<svg width="291" height="311" viewBox="0 0 291 311" fill="none" xmlns="http://www.w3.org/2000/svg">
<path fill-rule="evenodd" clip-rule="evenodd" d="M144.197 36.5168C184.862 36.2946 227.397 44.0599 253.49 75.2243C280.205 107.132 285.843 152.005 274.376 191.998C263.625 229.49 230.967 252.671 197.066 272.003C158.537 293.974 116.366 321.951 75.1247 305.619C31.7932 288.459 9.73516 240.666 1.97508 194.744C-5.22582 152.131 7.49184 108.563 36.3921 76.4107C63.3308 46.4403 103.881 36.7371 144.197 36.5168Z" fill="url(#paint0_linear_1_3158)"/>
<mask id="mask0_1_3158" style="mask-type:alpha" maskUnits="userSpaceOnUse" x="0" y="0" width="280" height="311">
<path fill-rule="evenodd" clip-rule="evenodd" d="M144.197 36.517C184.862 36.2948 227.397 44.06 253.49 75.2244C280.205 107.132 285.843 152.006 274.376 191.998C263.625 229.491 230.967 252.671 197.066 272.003C158.537 293.974 116.366 321.951 75.1247 305.619C31.7932 288.459 9.73516 240.666 1.97508 194.744C-5.22582 152.131 7.49184 108.564 36.3921 76.4109C48.0771 63.4108 88.8231 7.2681 104.5 1.01448C124.965 -7.14905 121.368 36.6417 144.197 36.517Z" fill="url(#paint1_linear_1_3158)"/>
</mask>
<g mask="url(#mask0_1_3158)">
<path d="M1.79806 311.515C-33.0537 288.655 -60.9177 240.082 -14.7381 195.888C13.4081 168.954 -26.5868 114.932 -11.3527 40.6881C6.89779 -48.3961 157.828 -143.429 306.653 -11.0234C435.861 103.949 235.604 129.772 316.18 182.464C416.373 247.992 343.241 311.493 343.241 311.493H1.79806V311.515Z" fill="#EBF3FA"/>
<path opacity="0.5" d="M309.822 -8.14697L-14.9336 79.6297C-14.6732 97.8475 -11.9823 114.453 -9.39985 129.315L346.366 84.3367C356.782 61.1286 353.614 32.015 309.822 -8.14697Z" fill="#F8FBFF"/>
<g opacity="0.5">
<path opacity="0.5" d="M6.18121 -0.28017C-1.89155 11.9885 -7.66401 24.8674 -10.7021 37.6808L226.207 -33.3599L6.18121 -0.28017Z" fill="#F8FBFF"/>
</g>
<path d="M394.34 181.515C359.451 181.807 302.673 185.312 271.863 203.351C225.319 230.592 146.946 230.921 116.208 219.345C85.4341 207.77 -0.587506 209.303 -56.1993 236.033C-117.092 265.282 -180.352 227.16 -260 254.656C-248.637 268.751 -234.798 280.947 -220.23 290.515H352.786C352.786 290.478 405.958 244.359 394.34 181.515Z" fill="#C5DDFF"/>
<path d="M273.709 207.515C199.096 207.515 188.963 277.368 146.821 275.875C145.439 275.837 144.096 275.913 142.829 275.99C141.524 276.067 140.296 276.181 139.068 276.334C137.993 276.487 136.957 276.641 135.959 276.832C133.004 277.406 130.279 278.21 127.745 279.167C108.209 286.669 100.111 304.812 98 310.4L136.765 310.515H228.496C228.457 310.515 278.238 267.569 273.709 207.515Z" fill="#A8D29F"/>
<path d="M50.3222 310.723H146.18L187.652 310.657C185.417 307.475 176.736 297.146 155.837 292.874C153.124 292.308 150.194 291.872 147.048 291.545C145.962 291.436 144.856 291.349 143.727 291.262C142.425 291.175 141.08 291.109 139.712 291.066C138.323 291.022 136.891 291 135.415 291C99.9327 291.153 87.8231 257.222 10 252.515C13.0383 276.508 30.5517 297.756 50.3222 310.723Z" fill="#A8D29F"/>
<path d="M205.991 248.294C205.991 248.294 194.033 230.948 186.242 232.626C178.43 234.325 205.991 248.294 205.991 248.294Z" fill="#A8D29F"/>
<path d="M142.759 283.515C142.759 283.515 144.747 257.531 137.311 259.636C129.876 261.702 142.759 283.515 142.759 283.515Z" fill="#A8D29F"/>
<path d="M234.17 294.514C234.17 294.514 245.019 241.454 224.233 232.322C203.409 223.19 234.17 294.514 234.17 294.514Z" fill="#82B378"/>
<path d="M227 288.514C227 288.514 216.256 258.993 200.081 252.508C183.946 245.985 202.331 273.131 227 288.514Z" fill="#82B378"/>
<path d="M260.006 241.669C260.006 241.669 266.257 232.516 264.846 226.676C263.414 220.836 259.399 231.601 260.006 241.669Z" fill="#82B378"/>
<path d="M263 263.514C251.462 264.392 234.846 269.927 204.231 295.581C199.923 299.207 194.462 301.23 188.846 301.23C183.346 301.192 176.308 299.971 169.077 295.428C141.923 278.326 122 309.514 122 309.514H229.769C234.577 305.01 251.5 288.251 263 263.514Z" fill="#82B378"/>
<path d="M93.3725 110.999L91.1623 106.879C91.1623 106.879 90.5093 98.0319 80.915 97.7539C80.915 97.7539 76.9468 97.9308 78.0016 100.635C79.0565 103.315 79.0314 102.127 80.4378 105.943C81.8443 109.76 84.8833 112.591 87.847 112.641L90.886 114.032L93.3725 110.999Z" fill="#FFB27D"/>
<path d="M88.927 109.305C91.4135 107.03 91.966 107.03 91.966 107.03C91.966 107.03 118.086 126.164 120.422 128.11C126.55 133.267 166.183 139.232 166.183 139.232L167.188 162.663C167.188 162.663 118.991 149.292 110.778 142.442C101.008 134.278 86.3652 113.299 86.3652 113.299C86.3652 113.299 86.968 111.1 88.927 109.305Z" fill="#1E3D70"/>
<path d="M77.3231 96.4399C77.3231 96.4399 71.6469 77.1038 72.6767 75.107C73.7064 73.1354 85.5359 58.2985 85.5359 58.2985L82.8988 55.417C82.8988 55.417 65.594 68.5605 63.2583 73.4893C61.3243 77.5335 66.8498 99.928 66.8498 99.928L77.3231 96.4399Z" fill="#FFB27D"/>
<path d="M85.5366 58.2983C85.5366 58.2983 87.144 56.4785 88.5253 55.6444C89.8314 54.8608 91.2881 52.3079 90.7104 51.853C90.1328 51.4233 90.1076 53.9256 89.9318 53.5717C90.0825 52.7882 94.0006 50.1848 93.0964 49.5781C92.1922 48.9968 89.2286 48.5165 86.9179 50.5892C84.5822 52.6618 82.8994 55.3916 82.8994 55.3916C83.0752 57.0093 84.5319 58.172 85.5366 58.2983Z" fill="#FFB27D"/>
<path d="M99.3247 100.686L86.365 105.109L85.1846 96.3387C85.1846 96.3387 87.1436 93.6594 88.525 88.9833C89.1026 87.0118 89.5798 84.7117 89.7808 82.083L98.8727 88.5789C98.8727 88.5789 98.4959 89.4636 98.1443 90.7779C97.7676 92.2187 97.4159 94.1649 97.5415 96.0859C97.6671 97.7794 98.1694 99.4223 99.3247 100.686Z" fill="#FFB27D"/>
<path d="M102.565 238.314C102.565 238.314 104.173 242.939 106.508 244.633C108.467 246.048 109.572 247.236 109.999 248.525C110.426 249.814 109.196 251.053 107.915 250.623L94.3522 246.174C93.1969 245.795 92.6193 244.506 93.1216 243.369C93.5485 242.383 94.0509 241.246 94.3774 240.361C95.1057 238.415 97.5922 237.479 97.5922 237.479L102.565 238.314Z" fill="#2C3A64"/>
<path d="M103.293 238.263C103.293 238.263 99.3251 240.614 94.2266 239.451C94.2266 239.451 84.0296 214.226 83.2761 202.296C83.251 201.815 83.2259 201.36 83.2259 200.931C83.2761 189.734 72.5768 160.641 75.2642 154.625C77.9515 148.584 100.531 156.976 100.531 156.976L101.259 177.323L103.293 238.263Z" fill="#35488B"/>
<path d="M101.259 177.323L83.2761 202.321C83.251 201.841 83.2259 201.386 83.2259 200.956C83.2761 189.734 72.5768 160.641 75.2642 154.625C77.9515 148.584 100.531 156.976 100.531 156.976L101.259 177.323Z" fill="#2C3A64"/>
<path d="M103.117 101.975C103.117 101.975 116.479 87.5678 116.554 85.3183C116.629 83.094 113.565 64.3139 113.565 64.3139L117.282 63.126C117.282 63.126 126.023 82.4874 125.671 87.947C125.37 92.4208 110.602 109.305 110.602 109.305L103.117 101.975Z" fill="#FFB27D"/>
<path d="M67.1762 238.769C67.1762 238.769 67.126 242.156 69.964 244.835C71.2952 246.074 72.4756 247.666 72.7519 248.98C73.0282 250.32 71.697 251.407 70.4664 250.851L57.4564 244.961C56.3513 244.456 55.9243 243.116 56.5271 242.055C57.0545 241.119 57.6573 240.033 58.1094 239.199C59.0387 237.328 61.274 235.71 61.274 235.71L67.1762 238.769Z" fill="#2C3A64"/>
<path d="M87.4198 157.607C87.4198 157.607 68.7086 231.59 68.1812 238.87C68.1812 238.87 62.3041 239.299 58.3358 237.303C58.3358 237.303 53.815 204.949 57.3312 195.774C60.8474 186.599 56.1005 159.073 65.2929 152.729C74.4852 146.385 87.4198 157.607 87.4198 157.607Z" fill="#35488B"/>
<path d="M107.864 113.375C108.065 112.364 115.048 106.753 115.048 106.753C117.032 101.571 110.125 93.4069 110.125 93.4069L104.298 98.917C103.519 98.917 102.841 99.3467 102.841 99.3467C101.686 98.8412 98.2703 98.6643 98.2703 98.6643C98.0693 100.408 97.1401 101.9 94.0508 101.849C89.9318 101.773 86.717 98.4621 85.1598 96.3136C85.1598 96.3136 83.3515 95.8334 80.865 96.4906C80.865 96.4906 79.6344 95.1509 78.0521 94.8729L75.5907 87.0879C75.5907 87.0879 65.8961 88.2253 63.3845 94.2157C63.3845 94.2157 67.7546 109.002 68.3574 112.162L68.3072 113.982L68.1314 120.452L67.8551 131.801L60.6469 153.412C60.5966 153.614 60.5464 153.791 60.5213 153.993C60.2952 155.485 61.1241 156.951 62.5557 157.532C62.5557 157.532 62.8822 157.633 63.5101 157.81C67.629 159.023 84.4315 163.598 98.3707 161.905C101.51 161.526 103.921 158.922 104.122 155.737L106.483 119.492C106.483 119.542 107.664 114.386 107.864 113.375Z" fill="#95C0F4"/>
<path d="M71.3454 141.861C69.964 149.57 68.2561 156.015 63.4841 157.835C62.8563 157.658 62.5297 157.557 62.5297 157.557C61.0981 156.976 60.2944 155.484 60.4954 154.018C60.5205 153.816 60.5707 153.639 60.6209 153.437L67.8292 131.826L68.1054 120.477C68.2059 120.3 68.2561 120.199 68.2561 120.199C68.2561 120.199 73.1286 132.003 71.3454 141.861Z" fill="#77A5D9"/>
<path d="M97.5419 96.1366C91.9914 95.1761 88.5254 89.0088 88.5254 89.0088L98.1447 90.8287C97.768 92.2441 97.4164 94.1904 97.5419 96.1366Z" fill="#EA9C68"/>
<path d="M100.706 93.4065C100.706 93.4065 89.1276 94.7208 86.5909 85.2423C83.8533 75.0056 89.4039 68.6866 93.2717 68.7624C100.957 68.9393 104.9 72.478 105.779 75.7133C106.684 78.9739 107.085 92.724 100.706 93.4065Z" fill="#FFB27D"/>
<path d="M98.0439 87.3405C98.0439 87.3405 98.3202 88.8065 100.706 88.7054C100.706 88.7054 102.389 88.5032 102.565 86.936C101.234 87.0877 100.053 87.3152 98.0439 87.3405Z" fill="white"/>
<path d="M90.333 61.0031C87.294 61.5086 84.908 62.5955 83.1751 64.1373C83.1248 63.4548 83.2002 62.8482 83.2002 62.8482C82.8234 63.379 82.6727 64.0615 82.6476 64.6428C82.6225 64.6681 82.5974 64.6934 82.5974 64.6934C82.0197 64.6681 81.1407 64.7692 80.5128 65.5275C80.5128 65.5275 81.1909 65.1989 81.9695 65.4011C77.097 71.3409 79.6588 81.6788 88.148 88.655C88.148 88.655 87.3945 84.6108 87.8466 82.5635C87.8466 82.5635 85.4857 78.4182 87.3192 77.7358C89.1526 77.0533 89.7303 79.404 90.1824 79.0248C90.6344 78.6457 92.2921 71.4168 94.3265 71.9476C96.3608 72.4784 103.619 75.9664 107.362 73.5652C111.129 71.164 104.674 58.6524 90.333 61.0031Z" fill="#A9453D"/>
<path d="M113.59 64.3141C113.59 64.3141 112.962 62.747 111.882 61.6854C110.802 60.6238 109.572 57.1358 110.275 57.0347C110.978 56.9336 111.255 58.2732 111.882 57.7929C112.51 57.338 109.496 53.951 110.551 53.8752C111.631 53.7993 115.851 55.1137 116.755 58.0963C117.031 59.0062 117.282 63.1009 117.282 63.1009C116.353 64.4152 114.52 64.7186 113.59 64.3141Z" fill="#FFB27D"/>
<path d="M93.3978 80.5412C93.3476 80.5412 93.2973 80.5159 93.2722 80.4653C93.222 80.3895 93.2471 80.2631 93.3225 80.2126C95.3317 78.974 97.6926 79.9598 97.768 80.0104C97.8684 80.0609 97.8935 80.162 97.8684 80.2378C97.8182 80.3389 97.7177 80.3642 97.6424 80.3389C97.6173 80.3389 95.3568 79.3785 93.4983 80.5412C93.4732 80.5412 93.448 80.5412 93.3978 80.5412Z" fill="#2C3A64"/>
<path d="M101.711 80.2128C101.66 80.2128 101.635 80.1875 101.61 80.1369C101.56 80.0611 101.585 79.9347 101.66 79.8842C103.418 78.6204 105.428 79.5303 105.503 79.5809C105.578 79.6061 105.604 79.7072 105.578 79.8083C105.553 79.9095 105.453 79.9347 105.377 79.9095C105.352 79.9095 103.418 78.9995 101.811 80.1875C101.761 80.2128 101.736 80.2128 101.711 80.2128Z" fill="#2C3A64"/>
<path d="M112.711 58.0961L90.4337 54.8102C90.0569 54.7597 89.8058 54.4058 89.856 54.0267L91.815 40.5546C91.8653 40.1754 92.2169 39.9227 92.5936 39.9732L114.871 43.2591C115.248 43.3097 115.499 43.6635 115.449 44.0427L113.49 57.5147C113.44 57.8939 113.088 58.1466 112.711 58.0961Z" fill="#F99746"/>
<path d="M111.807 33.6032C111.456 33.5527 111.154 33.3758 110.954 33.1483C110.501 32.6427 110.426 31.6823 111.33 30.8229C111.908 30.2668 113.139 29.8118 114.721 29.2558C117.433 28.27 121.151 26.9304 121.703 24.7566C122.105 23.1643 121.653 21.7741 120.598 21.2686C119.568 20.7883 117.76 21.1675 115.926 23.7203C115.7 24.0236 115.299 24.0995 114.997 23.872C114.696 23.6445 114.62 23.2401 114.847 22.9368C117.132 19.6762 119.619 19.297 121.176 20.03C122.858 20.8136 123.587 22.8357 123.009 25.0852C122.281 27.9414 118.338 29.3569 115.173 30.5196C113.917 30.9745 112.636 31.4295 112.26 31.7834C111.983 32.0361 111.958 32.2131 111.983 32.2636C112.008 32.2636 112.159 32.2636 112.36 32.112C112.661 31.8845 113.063 31.935 113.314 32.2131C113.54 32.5164 113.49 32.9208 113.214 33.1735C112.737 33.5527 112.234 33.6538 111.807 33.6032Z" fill="#E6A330"/>
<path d="M98.2953 31.6064C98.6469 31.657 98.9734 31.5811 99.2497 31.4042C99.8273 31.0503 100.179 30.1404 99.5511 29.0535C99.1492 28.3711 98.0944 27.5623 96.7632 26.5765C94.4526 24.8577 91.2629 22.4818 91.3382 20.2575C91.3884 18.6146 92.2173 17.4266 93.3977 17.2497C94.5028 17.098 96.1604 17.9574 97.1651 20.9652C97.2906 21.3191 97.6674 21.5213 98.019 21.3949C98.3706 21.2685 98.5716 20.8894 98.446 20.5355C97.1902 16.7442 94.9047 15.6826 93.2219 15.91C91.3884 16.1881 90.1075 17.9068 90.0071 20.207C89.9066 23.139 93.2721 25.6413 95.9595 27.6634C97.0144 28.4469 98.1195 29.281 98.3706 29.7107C98.5464 30.0393 98.5213 30.2162 98.5213 30.2415C98.4962 30.2415 98.3455 30.191 98.1948 29.9888C97.9939 29.6854 97.5669 29.6096 97.2655 29.8118C96.9641 30.014 96.8888 30.4437 97.0897 30.747C97.4162 31.3031 97.8683 31.5559 98.2953 31.6064Z" fill="#E6A330"/>
<path d="M105.955 38.7852L102.414 38.2544C103.092 38.3555 103.519 35.3224 102.841 35.2466L106.382 35.7774C105.554 35.651 105.127 38.6588 105.955 38.7852Z" fill="#E6A330"/>
<path d="M117.433 15.2279C115.65 27.4362 109.899 36.6872 104.574 35.9036C99.2495 35.1201 96.3612 24.58 98.1444 12.397C101.384 12.8519 112.712 14.5202 117.433 15.2279Z" fill="#FFB93E"/>
<path d="M94.9043 40.3016C95.1806 38.4312 99.3498 37.496 104.222 38.229C109.095 38.9367 112.837 41.0346 112.561 42.905C109.597 42.4753 99.2242 40.9335 94.9043 40.3016Z" fill="#FFB93E"/>
<path d="M117.66 16.2137L97.6425 13.2564C97.1653 13.1806 96.8388 12.7256 96.9141 12.2453C96.9895 11.7651 97.4416 11.4365 97.9188 11.5123L117.936 14.4696C118.413 14.5455 118.74 14.9752 118.664 15.4807C118.589 15.9609 118.137 16.2895 117.66 16.2137Z" fill="#E6A330"/>
<path d="M109.004 46.1555L97.3984 44.4463L96.8566 48.1729L108.462 49.8821L109.004 46.1555Z" fill="#FFB93E"/>
<path d="M116.78 58.0957C115.75 54.8351 111.506 52.8636 110.275 52.7878C109.522 52.7372 110.024 55.5934 111.983 59.0815C112.937 60.7497 113.515 61.3563 113.515 61.3563C115.826 60.4717 116.78 58.0957 116.78 58.0957Z" fill="#FFB27D"/>
<path d="M86.0888 51.5496C86.8674 50.3616 88.6507 49.3 89.8311 49.0472C90.9111 48.8197 93.4226 48.9461 93.0459 49.8308C92.5687 50.9682 90.459 55.3915 86.3902 57.3883C84.2554 57.2619 86.0888 51.5496 86.0888 51.5496Z" fill="#FFB27D"/>
<path d="M188.485 139.257C188.485 139.257 177.811 147.826 167.69 141.305C167.69 141.305 166.459 135.087 167.263 130.84C167.363 130.31 167.464 129.804 167.539 129.324C168.418 124.547 168.795 121.817 168.795 121.817C169.347 121.716 186.953 118.253 186.828 118.809C184.015 131.674 188.485 139.257 188.485 139.257Z" fill="#FFB27D"/>
<path d="M184.618 121.564C182.458 124.167 175.928 128.843 167.539 129.323C168.418 124.546 168.795 121.816 168.795 121.816C169.297 121.791 185.246 120.805 184.618 121.564Z" fill="#ED975D"/>
<path d="M165.48 120.654C165.48 120.654 182.935 128.667 187.732 117.646C192.529 106.626 198.005 100.231 187.054 94.6453C176.104 89.0593 172.085 92.3199 169.599 95.6058C167.137 98.8917 161.059 118.278 165.48 120.654Z" fill="#FFB27D"/>
<path d="M186.501 120.654C186.727 120.856 190.419 122.878 200.842 109.406C202.475 107.283 204.283 102.379 202.45 97.3242C200.616 92.2942 191.625 86.8094 183.864 83.6499C176.128 80.4904 173.29 84.6609 170.477 88.882C167.539 93.28 161.009 96.1109 161.009 96.1109C167.187 101.394 176.656 97.5011 179.368 98.9924C182.081 100.484 182.207 105.286 182.131 106.803C182.056 108.319 182.156 109.608 186.049 109.027C189.942 108.446 186.677 114.562 185.848 115.675C185.823 115.675 184.668 118.885 186.501 120.654Z" fill="#A9453D"/>
<path d="M138.555 240.437C138.555 240.437 140.162 260.556 142.046 284.72C144.608 317.553 147.672 357.894 147.973 365.527C148.501 378.797 150.61 400.029 150.61 400.029C150.61 400.029 155.608 405.084 165.629 402.936C165.629 402.936 174.571 372.63 177.107 340.58C177.158 340.049 177.183 339.518 177.233 338.987C179.594 306.356 183.286 237.631 183.286 237.631L138.555 240.437Z" fill="#2B478B"/>
<path d="M138.555 240.437C138.555 240.437 140.162 260.556 142.046 284.72L177.132 340.58C177.183 340.049 177.208 339.518 177.258 338.987C179.619 306.356 183.311 237.631 183.311 237.631L138.555 240.437Z" fill="#233862"/>
<path d="M145.889 242.838C145.889 242.838 174.747 315.658 193.734 349.907C212.722 384.131 218.649 393.685 218.649 393.685C218.649 393.685 229.524 389.312 230.504 386.33C230.504 386.33 223.245 320.258 210.537 304.157C203.353 295.058 194.915 267.735 194.513 258.18C194.111 248.626 191.951 229.72 191.951 229.72L145.889 242.838Z" fill="#2B478B"/>
<path d="M144.507 174.694C143.402 180.836 142.398 187.762 141.494 194.839C141.443 195.268 141.393 195.673 141.343 196.103C140.79 200.475 140.263 204.873 139.811 209.17C139.635 210.889 139.459 212.608 139.309 214.276L139.283 214.503C139.183 215.11 139.108 215.793 139.057 216.424C137.475 232.55 136.596 247.413 136.847 247.666C138.53 249.46 154.328 251.937 164.826 251.735C173.667 251.634 194.664 249.586 195.744 245.517C195.919 240.816 194.764 212.178 197.2 195.066C197.652 191.881 198.004 188.697 198.28 185.588C199.009 177.424 199.109 169.588 198.582 162.46C197.602 149.266 192.504 138.524 186.903 133.494C186.175 132.862 183.11 134.252 178.489 136.097C174.219 137.791 170.578 137.235 166.986 135.036L162.013 140.394C156.915 144.413 151.213 149.974 148.199 158.896C147.973 159.554 147.747 160.261 147.546 161.02C146.492 164.659 145.462 169.386 144.507 174.694Z" fill="#2A4E96"/>
<path d="M144.508 174.694C143.403 180.836 142.399 187.762 141.494 194.839C141.444 195.269 141.394 195.673 141.344 196.103C167.816 185.967 176.807 159.554 176.807 159.554C165.128 157.734 155.383 158.568 147.547 160.994C146.492 164.659 145.463 169.386 144.508 174.694Z" fill="#1E3D70"/>
<path d="M76.9969 131.345C76.796 130.537 76.9969 129.753 76.9216 128.262C76.8462 126.77 77.223 123.838 76.6704 123.788C76.1179 123.737 75.4649 124.597 75.4146 125.406C75.3895 125.911 75.0379 126.872 74.6863 127.554C73.5561 126.518 71.8231 124.369 71.2705 123.105C69.0352 118.025 67.4027 116.888 65.7451 120.957C64.8158 123.206 64.5144 126.113 65.3683 129.829C66.4483 134.48 69.8892 135.743 73.2045 136.906C74.1086 137.235 76.1681 139.383 76.1681 139.383L81.0155 134.833C81.0406 134.833 77.3234 132.533 76.9969 131.345Z" fill="#FFB27D"/>
<path d="M75.6907 134.986C77.5493 131.927 79.4078 132.508 79.4078 132.508C79.4078 132.508 112.661 148.306 115.725 149.317C118.789 150.328 156.111 143.301 156.111 143.301C156.111 143.301 170.93 139.889 176.179 146.764C180.75 152.755 179.77 158.972 177.46 163.901C174.697 169.765 168.594 173.304 162.164 172.849C147.723 171.838 118.915 169.588 113.189 167.566C100.43 163.092 74.1084 139.864 74.1084 139.864C74.1084 139.864 74.234 137.387 75.6907 134.986Z" fill="#2A4E96"/>
</g>
<path d="M262.827 92.3392C277.891 77.2752 277.891 52.8517 262.827 37.7877C247.763 22.7237 223.34 22.7237 208.276 37.7877C193.212 52.8517 193.212 77.2752 208.276 92.3392C223.34 107.403 247.763 107.403 262.827 92.3392Z" fill="white"/>
<path d="M240.678 98.6605C261.982 98.6605 279.252 81.3903 279.252 60.0863C279.252 38.7824 261.982 21.5122 240.678 21.5122C219.374 21.5122 202.104 38.7824 202.104 60.0863C202.104 81.3903 219.374 98.6605 240.678 98.6605Z" fill="url(#paint2_linear_1_3158)"/>
<path d="M255.914 67.416C255.914 69.5632 255.505 71.4668 254.686 73.127C253.867 74.7871 252.727 76.1816 251.266 77.3105C249.805 78.4395 248.056 79.3027 246.02 79.9004C243.983 80.4759 241.758 80.7637 239.346 80.7637C237.885 80.7637 236.512 80.653 235.229 80.4316C233.945 80.2324 232.805 79.9779 231.809 79.668C230.835 79.3581 230.027 79.0371 229.385 78.7051C228.743 78.373 228.322 78.1185 228.123 77.9414C227.924 77.7643 227.769 77.5651 227.658 77.3438C227.57 77.1224 227.481 76.8678 227.393 76.5801C227.326 76.2702 227.271 75.8939 227.227 75.4512C227.204 74.9863 227.193 74.4329 227.193 73.791C227.193 72.7285 227.282 71.998 227.459 71.5996C227.636 71.179 227.902 70.9688 228.256 70.9688C228.477 70.9688 228.854 71.1237 229.385 71.4336C229.938 71.7214 230.635 72.0423 231.477 72.3965C232.318 72.7285 233.303 73.0495 234.432 73.3594C235.561 73.6471 236.844 73.791 238.283 73.791C239.501 73.791 240.574 73.6471 241.504 73.3594C242.434 73.0716 243.219 72.6732 243.861 72.1641C244.525 71.6328 245.012 71.002 245.322 70.2715C245.654 69.5189 245.82 68.6888 245.82 67.7812C245.82 66.7852 245.621 65.8887 245.223 65.0918C244.846 64.2949 244.271 63.6198 243.496 63.0664C242.743 62.4909 241.781 62.0482 240.607 61.7383C239.456 61.4284 238.095 61.2734 236.523 61.2734H232.805C232.517 61.2734 232.273 61.2402 232.074 61.1738C231.875 61.0853 231.709 60.9193 231.576 60.6758C231.443 60.4323 231.344 60.1003 231.277 59.6797C231.233 59.237 231.211 58.6725 231.211 57.9863C231.211 57.3444 231.233 56.8242 231.277 56.4258C231.344 56.0052 231.432 55.6842 231.543 55.4629C231.676 55.2415 231.831 55.0866 232.008 54.998C232.207 54.9095 232.439 54.8652 232.705 54.8652H236.457C237.741 54.8652 238.881 54.7214 239.877 54.4336C240.873 54.1237 241.703 53.6921 242.367 53.1387C243.053 52.5853 243.574 51.9212 243.928 51.1465C244.282 50.3496 244.459 49.4753 244.459 48.5234C244.459 47.793 244.337 47.1068 244.094 46.4648C243.85 45.8008 243.485 45.2363 242.998 44.7715C242.533 44.2845 241.924 43.9082 241.172 43.6426C240.419 43.3548 239.534 43.2109 238.516 43.2109C237.365 43.2109 236.28 43.388 235.262 43.7422C234.243 44.0742 233.325 44.4505 232.506 44.8711C231.709 45.2695 231.023 45.6458 230.447 46C229.894 46.3542 229.484 46.5312 229.219 46.5312C229.042 46.5312 228.887 46.498 228.754 46.4316C228.621 46.3431 228.51 46.1882 228.422 45.9668C228.333 45.7454 228.267 45.4245 228.223 45.0039C228.178 44.5833 228.156 44.041 228.156 43.377C228.156 42.8236 228.167 42.3698 228.189 42.0156C228.212 41.6393 228.256 41.3294 228.322 41.0859C228.389 40.8424 228.466 40.6322 228.555 40.4551C228.665 40.278 228.831 40.0898 229.053 39.8906C229.274 39.6693 229.728 39.3483 230.414 38.9277C231.1 38.5072 231.964 38.0977 233.004 37.6992C234.044 37.3008 235.24 36.9688 236.59 36.7031C237.962 36.4154 239.445 36.2715 241.039 36.2715C243.12 36.2715 244.957 36.515 246.551 37.002C248.167 37.4889 249.517 38.1973 250.602 39.127C251.708 40.0345 252.538 41.1634 253.092 42.5137C253.667 43.8418 253.955 45.347 253.955 47.0293C253.955 48.3353 253.789 49.5527 253.457 50.6816C253.125 51.8105 252.638 52.8177 251.996 53.7031C251.354 54.5885 250.546 55.3411 249.572 55.9609C248.62 56.5807 247.514 57.0456 246.252 57.3555V57.4551C247.757 57.6322 249.107 58.0195 250.303 58.6172C251.498 59.1927 252.505 59.9232 253.324 60.8086C254.165 61.694 254.807 62.7012 255.25 63.8301C255.693 64.9368 255.914 66.1322 255.914 67.416Z" fill="white"/>
<defs>
<linearGradient id="paint0_linear_1_3158" x1="140" y1="36.5122" x2="140" y2="310.512" gradientUnits="userSpaceOnUse">
<stop stop-color="#FFEBB7"/>
<stop offset="1" stop-color="#FFAC88"/>
</linearGradient>
<linearGradient id="paint1_linear_1_3158" x1="140" y1="36.5147" x2="140" y2="310.515" gradientUnits="userSpaceOnUse">
<stop stop-color="#FFEBB7"/>
<stop offset="1" stop-color="#FFAC88"/>
</linearGradient>
<linearGradient id="paint2_linear_1_3158" x1="202.104" y1="21.5122" x2="286.593" y2="30.6298" gradientUnits="userSpaceOnUse">
<stop stop-color="#16ADC5"/>
<stop offset="1" stop-color="#14899B"/>
</linearGradient>
</defs>
</svg>
