<svg width="322" height="301" viewBox="0 0 322 301" fill="none" xmlns="http://www.w3.org/2000/svg">
<path fill-rule="evenodd" clip-rule="evenodd" d="M162.75 26.2197C202.445 30.0204 237.718 49.7422 262.282 81.0952C286.521 112.033 298.411 150.949 290.632 189.447C282.599 229.198 257.579 263.446 221.621 282.325C183.978 302.088 138.825 307.74 100.538 289.25C62.3258 270.797 42.5375 231.105 31.0809 190.31C18.6606 146.082 7.22902 95.2808 35.9971 59.4291C64.7259 23.6265 117.002 21.8395 162.75 26.2197Z" fill="url(#paint0_linear_1_3504)"/>
<mask id="mask0_1_3504" style="mask-type:alpha" maskUnits="userSpaceOnUse" x="0" y="24" width="322" height="277">
<path fill-rule="evenodd" clip-rule="evenodd" d="M162.751 26.2197C202.446 30.0204 288.436 85.6617 313 117.015C337.238 147.952 302.5 201.015 285.5 208.015C282.5 216.015 280.544 222.71 271.246 237.015C258.985 255.879 242.072 271.587 221.621 282.325C183.979 302.088 138.825 307.74 100.538 289.25C62.3262 270.797 42.5379 231.105 31.0814 190.31C27.0601 175.99 13.4832 170.982 10.9999 156.015C5.81338 124.754 -19.9999 83.5146 35.9975 59.4291C64.7263 23.6265 117.002 21.8395 162.751 26.2197Z" fill="url(#paint1_linear_1_3504)"/>
</mask>
<g mask="url(#mask0_1_3504)">
<path d="M23.7094 152.535C22.8956 159.367 24.9634 166.41 29.3397 171.856C30.8258 173.695 32.0762 175.396 32.6904 176.52C34.4415 179.744 35.5932 178.78 36.4849 179.942C38.7015 182.819 38.6668 188.616 40.0096 191.051C41.8245 194.348 43.7287 193.873 43.7287 193.873L65.4393 189.665C65.4393 189.665 66.0004 185.741 63.729 179.103C62.8979 176.687 62.1416 170.384 62.9827 166.516C64.1566 161.102 61.4708 154.495 59.5158 148.204C58.6011 145.268 56.55 139.803 55.5299 137.91C54.4592 135.903 53.1213 127.868 50.3281 128.214C45.3902 128.859 50.7137 148.631 47.5412 146.685C43.5031 144.218 39.3103 141.1 34.4823 137.268C23.7525 128.73 24.9529 142.18 23.7094 152.535Z" fill="#FDAD9B"/>
<path d="M48.4273 177.624C48.3609 177.629 48.2755 177.616 48.2187 177.563C48.1619 177.509 46.9499 176.233 46.1384 173.979C45.6595 172.664 45.4393 171.272 45.4516 169.861C45.4717 168.102 45.8904 166.313 46.6958 164.531C46.7482 164.411 46.893 164.361 47.002 164.43C47.111 164.499 47.1652 164.668 47.1128 164.788C46.3503 166.508 45.9388 168.221 45.9093 169.903C45.8877 171.237 46.0985 172.553 46.5538 173.811C47.3181 175.953 48.4899 177.175 48.5088 177.193C48.6059 177.301 48.6246 177.454 48.5366 177.557C48.5223 177.578 48.4748 177.601 48.4273 177.624Z" fill="#F18C7E"/>
<path d="M54.2868 134.567C54.0377 134.586 53.7102 134.552 53.3458 134.366C53.1939 134.3 52.459 133.735 52.2418 129.962C52.2274 129.847 52.3068 129.763 52.4136 129.755C52.5203 129.747 52.6035 129.837 52.6178 129.953C52.7024 131.501 53.0379 133.768 53.4807 134.006C54.1335 134.345 54.6185 134.056 54.6363 134.054C54.7204 134.009 54.8498 134.038 54.8973 134.132C54.9449 134.225 54.926 134.363 54.8418 134.408C54.8418 134.408 54.6249 134.541 54.2868 134.567Z" fill="#F18C7E"/>
<path d="M38.0854 180.307C38.067 180.309 38.0487 180.31 38.0487 180.31C35.805 180.321 34.3416 179.531 33.5096 178.88C32.5959 178.174 32.218 177.452 32.1941 177.413C32.1196 177.277 32.171 177.111 32.2914 177.043C32.4118 176.974 32.5699 177.044 32.6444 177.18C32.6444 177.18 32.9929 177.824 33.8248 178.475C34.5934 179.069 35.9327 179.766 38.0109 179.767C38.1579 179.757 38.2692 179.891 38.2885 180.031C38.2895 180.172 38.2113 180.279 38.0854 180.307Z" fill="#F18C7E"/>
<path d="M23.4008 171.023L30.3195 172.005C32.1878 172.684 34.0745 171.631 34.5411 169.669C35.0077 167.706 33.861 165.571 31.9927 164.893L27.1486 163.147C23.8479 162.002 21.1882 161.88 20.4427 165.027C19.4011 169.503 21.5901 170.361 23.4008 171.023Z" fill="#FDAD9B"/>
<path d="M33.1499 166.754C32.8189 165.685 31.0665 165.148 30.0449 165.276C29.2554 165.369 28.701 167.153 28.6663 168.346C28.6262 169.5 29.0575 169.848 29.3241 169.929C30.153 170.25 31.4954 170.2 32.0916 170.159C32.2542 170.148 32.3626 170.141 32.3807 170.14C32.5794 170.127 32.7437 169.996 32.8762 169.769C33.2612 169.128 33.4093 167.57 33.1499 166.754ZM32.4476 169.441C32.3709 169.545 32.3222 169.588 32.3041 169.589C32.2861 169.591 30.4153 169.776 29.4726 169.423C29.2991 169.355 29.1902 168.965 29.2067 168.428C29.2414 167.235 29.8017 165.888 30.1603 165.844C30.1964 165.841 30.2145 165.84 30.2506 165.838C31.0817 165.782 32.4564 166.225 32.6785 166.905C32.8771 167.546 32.7406 168.925 32.4476 169.441Z" fill="#F18C7E"/>
<path d="M31.3054 172.45C29.3952 172.59 22.7724 170.935 22.4806 170.871C22.344 170.838 22.2284 170.675 22.244 170.503C22.2622 170.351 22.3984 170.234 22.5537 170.266C22.6313 170.282 29.6263 172.038 31.3009 171.829C32.9033 171.647 33.5506 170.658 33.5693 170.656C33.6465 170.522 33.815 170.51 33.9411 170.608C34.0672 170.706 34.0918 170.896 34.0146 171.031C33.9826 171.076 33.2581 172.199 31.415 172.42C31.3616 172.445 31.3241 172.448 31.3054 172.45Z" fill="#F18C7E"/>
<path d="M33.4678 159.42C31.0623 159.085 29.2382 156.711 29.3977 154.105L32.2315 106.886C32.391 104.28 34.4607 102.435 36.8663 102.77C39.2718 103.105 41.0959 105.479 40.9364 108.085L38.1026 155.303C37.9431 157.909 35.8734 159.755 33.4678 159.42Z" fill="#66192D"/>
<path d="M64.9684 124.989L11.2043 118.714C9.37357 118.494 7.99047 116.676 8.23251 114.778L12.8386 77.2959C13.0587 75.5176 14.5837 74.3549 16.2771 74.6645L66.0872 83.6094C67.7044 83.9049 68.9397 85.4363 68.8986 87.1617L68.2466 121.974C68.223 123.836 66.7414 125.194 64.9684 124.989Z" fill="#FF8548"/>
<path d="M42.1459 84.8605L38.9315 84.423C38.4723 84.3605 38.0145 84.4535 37.6296 84.6968L30.3356 89.1803C29.3299 89.8014 29.0204 91.2259 29.6657 92.3446L30.4723 93.7429C31.1403 94.8988 32.5086 95.3011 33.525 94.6208L36.0964 92.9471C36.548 92.6599 37.14 93.0626 37.1228 93.6477L36.5568 102.992L36.019 111.984C35.943 113.255 36.8483 114.432 38.0601 114.593L40.3739 114.904C40.9607 114.977 41.5008 114.819 41.9249 114.456C42.349 114.093 42.6417 113.545 42.685 112.88L44.2204 87.4471C44.263 86.1985 43.3398 85.023 42.1459 84.8605Z" fill="#553E93"/>
<path d="M18.3798 161.057L26.4111 163.639C28.5044 164.799 30.9314 163.995 31.8263 161.834C32.7213 159.672 31.7571 156.976 29.6639 155.815L24.2397 152.798C20.5193 150.787 17.4213 150.074 15.9557 153.555C13.9332 158.454 16.3623 159.912 18.3798 161.057Z" fill="#FDAD9B"/>
<path d="M28.1873 156.021C27.8638 155.924 27.543 155.846 27.2692 155.845C26.3314 155.789 25.378 157.719 25.1249 159.046C24.949 160.01 25.099 160.695 25.5917 160.959C26.7435 161.636 29.0123 161.821 29.1596 161.831C29.1957 161.828 29.2138 161.827 29.2499 161.825C29.4306 161.813 29.6157 161.701 29.7898 161.511C30.212 161.006 30.5674 159.89 30.6584 158.971C30.6897 158.671 30.6848 158.374 30.6519 158.138C30.4818 157.177 29.2746 156.365 28.1873 156.021ZM29.3738 161.142C29.279 161.247 29.1942 161.293 29.14 161.296C29.1219 161.297 26.8531 161.113 25.7817 160.49C25.5638 160.366 25.4954 159.874 25.622 159.211C25.8822 157.804 26.7676 156.434 27.2555 156.401C27.2735 156.4 27.2735 156.4 27.2916 156.399C27.6404 156.415 28.0778 156.545 28.4846 156.716C29.28 157.059 30.0333 157.624 30.1335 158.212C30.1526 158.35 30.1564 158.509 30.163 158.687C30.1152 159.524 29.7653 160.679 29.3738 161.142Z" fill="#F18C7E"/>
<path d="M28.4898 164.202C26.7256 164.325 23.728 162.816 23.5868 162.743C23.4457 162.67 23.3864 162.508 23.4412 162.36C23.496 162.211 23.639 162.16 23.7802 162.233C24.8264 162.76 27.7721 164.024 28.8837 163.513C29.0082 163.463 29.1678 163.535 29.243 163.674C29.2996 163.815 29.2475 163.984 29.1259 164.055C28.9327 164.151 28.7312 164.185 28.4898 164.202Z" fill="#F18C7E"/>
<path d="M19.8979 150.812L27.5657 154.562C29.492 156.027 32.0366 155.617 33.2094 153.645C34.4031 151.691 33.7948 148.902 31.8531 147.458L26.8365 143.669C23.4075 141.149 20.4014 139.956 18.4805 143.134C15.7862 147.6 18.0343 149.403 19.8979 150.812Z" fill="#FDAD9B"/>
<path d="M29.3877 147.069C29.1627 147.025 28.9333 147.08 28.6969 147.215C27.9387 147.663 27.1427 148.887 26.8044 149.863C26.494 150.777 26.5716 151.466 27.0029 151.814C27.3899 152.106 27.9187 152.368 28.4419 152.59C29.408 152.982 30.3703 153.215 30.4633 153.228C30.5203 153.244 30.5953 153.259 30.6494 153.256C30.812 153.245 30.9664 153.175 31.1279 153.025C31.7793 152.465 32.4664 150.851 32.438 149.861C32.4408 148.571 30.5902 147.326 29.3877 147.069ZM31.9421 149.835C31.9666 150.666 31.348 152.117 30.8121 152.59C30.7146 152.676 30.6117 152.722 30.5548 152.706C30.5367 152.708 29.4814 152.461 28.4945 152.051C28.049 151.863 27.6187 151.654 27.3095 151.396C27.1042 151.232 27.1081 150.735 27.3151 150.126C27.6129 149.253 28.1899 148.42 28.6744 147.971C28.9026 147.777 29.103 147.644 29.2656 147.633C29.2836 147.632 29.3198 147.629 29.3378 147.628C30.3335 147.839 31.9246 148.923 31.9421 149.835Z" fill="#F18C7E"/>
<path d="M30.1866 155.596C27.2884 155.793 21.6492 151.916 21.3842 151.751C21.2595 151.657 21.216 151.477 21.2732 151.351C21.3488 151.223 21.5122 151.192 21.634 151.265C21.695 151.302 28.2382 155.79 30.6145 154.914C30.7566 154.864 30.8969 154.936 30.9561 155.095C31.0153 155.254 30.9609 155.401 30.8188 155.451C30.624 155.525 30.4081 155.581 30.1866 155.596Z" fill="#F18C7E"/>
<path d="M23.8926 142.05L30.3282 144.771C31.969 145.878 34.0342 145.42 34.9176 143.724C35.8037 142.048 35.1933 139.773 33.5342 138.667L29.2624 135.801C26.3339 133.882 23.8142 133.053 22.393 135.763C20.3778 139.611 22.2936 140.979 23.8926 142.05Z" fill="#FDAD9B"/>
<path d="M31.5074 138.49C30.7602 138.362 29.8497 139.812 29.525 140.886C29.5278 140.906 29.5097 140.907 29.5124 140.927C29.3794 141.412 29.3646 141.83 29.4779 142.12C29.5386 142.294 29.63 142.427 29.7702 142.517C30.6789 143.151 32.5483 143.481 32.6622 143.513C32.7011 143.531 32.7372 143.528 32.7914 143.524C32.9359 143.515 33.0722 143.446 33.2003 143.318C33.7155 142.827 34.1979 141.445 34.1399 140.635C34.0671 139.588 32.5158 138.661 31.5074 138.49ZM32.9162 142.98C32.8368 143.065 32.7673 143.089 32.7131 143.093C32.6951 143.094 30.8256 142.764 29.9974 142.184C29.8156 142.057 29.797 141.662 29.9427 141.136C30.2466 140.044 31.0492 138.997 31.4466 138.971C31.4647 138.969 31.4827 138.968 31.5008 138.967C32.3203 139.091 33.6746 139.912 33.7244 140.663C33.7813 141.334 33.352 142.574 32.9162 142.98Z" fill="#F18C7E"/>
<path d="M32.3548 145.488C29.9293 145.654 25.3593 142.848 25.1361 142.72C25.0324 142.645 24.9759 142.505 25.0361 142.398C25.0962 142.292 25.2203 142.242 25.324 142.317C25.3851 142.354 30.9514 145.748 32.8352 144.9C32.9407 144.852 33.0786 144.904 33.1324 145.024C33.1861 145.143 33.15 145.289 33.0445 145.338C32.8491 145.413 32.614 145.47 32.3548 145.488Z" fill="#F18C7E"/>
<path d="M37.7786 196.518C37.7786 196.518 36.344 185.623 37.5228 184.297C38.7016 182.971 46.9869 184.448 54.4166 180.199C61.8464 175.95 64.0002 174.052 64.9059 176.48C65.8116 178.908 66.9474 189.067 66.9474 189.067L37.7786 196.518Z" fill="#FFBA41"/>
<path d="M105.447 297.729L44.5929 302.328C38.3084 262.547 35.053 192.175 36.0605 191.982C36.2553 191.948 36.468 191.912 36.7011 191.895C37.0573 191.848 37.4362 191.839 37.851 191.827C38.6089 191.809 39.4768 191.802 40.4343 191.788C42.188 191.772 44.2082 191.717 46.356 191.379L46.3739 191.378C47.0301 191.27 47.7018 191.141 48.371 190.993C50.1278 190.568 51.9297 189.926 53.6881 188.936C57.8117 186.599 61.3283 185.34 63.6902 185.122C63.995 185.099 64.2819 185.078 64.5377 185.097C64.6836 185.106 64.8115 185.116 64.9394 185.125C65.7835 185.217 66.3649 185.524 66.6298 186.049C66.7988 186.387 84.0544 232.116 95.8663 267.039C100.12 279.474 103.647 290.581 105.447 297.729Z" fill="#786AB5"/>
<path d="M96.1433 168.715C93.2544 174.923 93.1974 182.088 95.9913 188.335C96.9416 190.455 97.7018 192.366 97.9869 193.588C98.7852 197.065 100.249 196.454 100.8 197.791C102.168 201.058 100.382 206.522 101.009 209.139C101.845 212.712 103.936 212.75 103.936 212.75L131.513 210.61C131.513 210.61 130.829 207.821 130.525 200.982C130.411 198.479 129.746 195.461 131.779 192.041C134.611 187.265 133.889 180.349 133.813 173.93C133.775 170.931 133.338 165.276 132.882 163.213C132.407 161.054 133.49 153.145 130.544 152.763C125.336 152.075 124.747 172.039 122.124 169.402C118.76 166.021 115.453 162.009 111.728 157.156C103.385 146.343 100.534 159.296 96.1433 168.715Z" fill="#FDAD9B"/>
<path d="M113.856 199.071C113.78 199.071 113.704 199.014 113.647 198.956C113.609 198.899 112.659 197.333 112.469 194.964C112.355 193.569 112.545 192.193 113.001 190.875C113.571 189.213 114.598 187.647 116.023 186.176C116.118 186.08 116.289 186.08 116.384 186.176C116.479 186.271 116.479 186.443 116.384 186.539C114.997 187.952 114.027 189.462 113.476 191.047C113.039 192.308 112.868 193.607 112.963 194.925C113.134 197.161 114.046 198.67 114.065 198.67C114.141 198.784 114.103 198.956 113.989 199.033C113.97 199.052 113.913 199.071 113.856 199.071Z" fill="#F18C7E"/>
<path d="M136.702 300.515H72.3477C74.0962 290.848 76.4719 280.226 79.1138 269.662C87.5524 235.713 98.5759 202.243 99.3931 202.3C99.9253 202.338 100.552 202.453 101.275 202.606C105.133 203.465 111.424 205.681 118.342 203.905C123.93 202.472 128.282 202.223 130.601 202.892C131.684 203.217 132.33 203.733 132.444 204.42C132.539 204.822 135.923 261.408 136.702 300.515Z" fill="#FF443C"/>
<path d="M131.513 159.296C131.209 159.296 130.753 159.219 130.296 158.837C130.163 158.723 129.574 158.016 130.505 154.386C130.524 154.271 130.639 154.214 130.753 154.233C130.867 154.252 130.924 154.367 130.905 154.481C130.524 155.972 130.182 158.188 130.562 158.532C131.133 159.009 131.722 158.875 131.741 158.875C131.855 158.856 131.95 158.914 131.988 159.028C132.007 159.143 131.95 159.238 131.836 159.277C131.817 159.277 131.703 159.296 131.513 159.296Z" fill="#F18C7E"/>
<path d="M103.232 198.708C103.213 198.708 103.194 198.708 103.194 198.708C100.971 198.154 99.7353 197.103 99.1081 196.301C98.4049 195.422 98.2529 194.677 98.2529 194.658C98.2339 194.524 98.3099 194.372 98.4619 194.352C98.595 194.333 98.747 194.41 98.766 194.563C98.766 194.563 98.9181 195.231 99.5453 196.015C100.134 196.741 101.256 197.696 103.327 198.212C103.46 198.25 103.556 198.383 103.518 198.517C103.48 198.632 103.365 198.727 103.232 198.708Z" fill="#F18C7E"/>
<path d="M91.2969 185.851L97.911 188.449C99.5645 189.519 101.788 189.041 102.853 187.36C103.917 185.698 103.442 183.463 101.769 182.393L97.4548 179.604C94.4899 177.751 91.8861 176.967 90.1756 179.661C87.7808 183.463 89.7004 184.8 91.2969 185.851Z" fill="#FDAD9B"/>
<path d="M99.6023 182.355C98.7851 182.259 97.6638 183.75 97.2456 184.839C96.8465 185.889 97.1696 186.31 97.4167 186.462C98.348 187.093 100.325 187.398 100.439 187.418C100.477 187.418 100.515 187.418 100.534 187.418C100.705 187.418 100.876 187.341 101.066 187.188C101.655 186.692 102.282 185.297 102.282 184.495C102.282 183.425 100.667 182.489 99.6023 182.355ZM100.724 186.787C100.629 186.883 100.553 186.883 100.534 186.883C100.515 186.883 98.557 186.577 97.7208 186.004C97.5497 185.889 97.5687 185.507 97.7588 185.01C98.1579 183.941 99.1082 182.871 99.5073 182.871H99.5263C100.382 182.985 101.731 183.769 101.75 184.476C101.75 185.144 101.199 186.386 100.724 186.787Z" fill="#F18C7E"/>
<path d="M99.6788 189.328C99.4508 189.328 99.2037 189.309 98.9186 189.271C97.132 189.022 90.9171 185.87 90.651 185.736C90.518 185.66 90.461 185.507 90.537 185.373C90.613 185.24 90.7651 185.182 90.8981 185.259C90.9551 185.297 97.3031 188.507 99.0136 188.736C100.648 188.965 101.541 188.296 101.56 188.296C101.674 188.201 101.846 188.22 101.941 188.354C102.036 188.468 102.017 188.64 101.884 188.736C101.846 188.736 101.066 189.328 99.6788 189.328Z" fill="#F18C7E"/>
<path d="M100.818 209.979C100.856 209.349 101.483 208.699 102.111 208.661C102.928 208.623 103.517 209.215 103.479 209.845C103.441 210.59 102.738 211.259 101.977 211.202C101.369 211.164 100.78 210.61 100.818 209.979Z" fill="#66192D"/>
<path d="M103.365 177.139C100.951 176.184 99.7731 173.433 100.723 171.007L118.057 127.048C119.007 124.621 121.744 123.437 124.158 124.392C126.572 125.347 127.75 128.098 126.8 130.525L109.466 174.503C108.516 176.91 105.779 178.113 103.365 177.139Z" fill="#66192D"/>
<path d="M137.557 153.775L89.0539 135.435C87.4004 134.804 86.6211 132.894 87.3813 131.289L102.244 99.7098C102.947 98.2197 104.715 97.551 106.216 98.2388L150.291 117.954C151.735 118.604 152.439 120.228 151.926 121.737L141.51 151.941C140.921 153.527 139.154 154.367 137.557 153.775Z" fill="#786AB5"/>
<path d="M89.1298 174.942L96.3901 179.298C98.1387 180.884 100.819 180.75 102.396 179.011C103.973 177.254 103.84 174.56 102.111 172.974L97.6065 168.867C94.5085 166.116 91.6006 164.683 89.0538 167.491C85.4427 171.446 87.4383 173.395 89.1298 174.942Z" fill="#FDAD9B"/>
<path d="M100.4 172.936C100.096 172.764 99.7919 172.611 99.5258 172.535C98.5945 172.249 97.017 173.777 96.3518 174.961C95.8577 175.802 95.8197 176.471 96.2188 176.853C97.1881 177.77 99.4308 178.515 99.5638 178.553C99.6399 178.572 99.6969 178.591 99.7729 178.591C99.9249 178.591 100.115 178.534 100.286 178.419C100.875 178.075 101.597 177.139 101.959 176.299C102.073 176.031 102.168 175.764 102.206 175.534C102.377 174.56 101.407 173.529 100.4 172.936ZM100.02 177.942C99.9059 178.018 99.7919 178.037 99.7349 178.018C99.7159 178.018 97.4732 177.273 96.5799 176.432C96.3899 176.26 96.4849 175.783 96.808 175.21C97.4922 174.044 98.7466 173.013 99.2788 173.013C99.3168 173.013 99.3358 173.013 99.3738 173.032C99.7159 173.146 100.115 173.357 100.495 173.624C101.198 174.14 101.788 174.847 101.692 175.42C101.673 175.554 101.635 175.706 101.559 175.859C101.255 176.643 100.552 177.617 100.02 177.942Z" fill="#F18C7E"/>
<path d="M98.8033 180.674C97.0358 180.674 94.1089 178.247 93.9758 178.152C93.8618 178.056 93.8428 177.884 93.9378 177.77C94.0328 177.655 94.2039 177.636 94.3179 177.732C95.1922 178.458 97.72 180.292 98.9744 180.12C99.1264 180.1 99.2595 180.196 99.2785 180.349C99.2975 180.502 99.2025 180.635 99.0504 180.655C98.9554 180.674 98.8794 180.674 98.8033 180.674Z" fill="#F18C7E"/>
<path d="M93.3493 165.562L99.9063 170.912C101.408 172.726 104.088 172.994 105.893 171.485C107.699 169.975 107.965 167.282 106.463 165.467L102.586 160.748C99.9063 157.577 97.2265 155.743 94.3186 158.169C90.2133 161.589 91.9048 163.805 93.3493 165.562Z" fill="#FDAD9B"/>
<path d="M103.992 164.664C103.783 164.569 103.517 164.569 103.232 164.626C102.32 164.836 101.122 165.772 100.495 166.594C99.906 167.358 99.754 168.007 100.096 168.428C100.381 168.791 100.837 169.173 101.312 169.498C102.168 170.09 103.08 170.548 103.156 170.587C103.251 170.644 103.365 170.663 103.479 170.663C103.612 170.663 103.745 170.625 103.897 170.567C104.734 170.224 105.931 168.886 106.216 167.988C106.615 166.823 105.133 165.218 103.992 164.664ZM105.722 167.855C105.475 168.619 104.41 169.822 103.707 170.109C103.574 170.166 103.46 170.185 103.403 170.147C103.384 170.147 102.396 169.65 101.522 169.02C101.122 168.733 100.761 168.428 100.514 168.122C100.343 167.912 100.514 167.473 100.913 166.957C101.503 166.212 102.339 165.6 102.985 165.314C103.232 165.199 103.441 165.142 103.593 165.142C103.65 165.142 103.707 165.161 103.764 165.18C104.715 165.6 105.988 167.014 105.722 167.855Z" fill="#F18C7E"/>
<path d="M102.852 172.746C99.9443 172.746 95.0027 167.32 94.7937 167.091C94.6986 166.976 94.6986 166.804 94.8127 166.709C94.9267 166.613 95.0978 166.613 95.1928 166.728C95.2498 166.785 100.362 172.421 102.985 172.211C103.137 172.192 103.27 172.306 103.27 172.459C103.289 172.612 103.175 172.746 103.023 172.746C102.985 172.746 102.909 172.746 102.852 172.746Z" fill="#F18C7E"/>
<path d="M99.6402 158.207L105.285 162.295C106.596 163.728 108.82 163.804 110.226 162.486C111.652 161.168 111.728 158.933 110.417 157.519L107.014 153.813C104.658 151.329 102.377 149.954 100.096 152.074C96.8843 155.093 98.3668 156.831 99.6402 158.207Z" fill="#FDAD9B"/>
<path d="M108.345 156.984C107.623 156.698 106.254 157.787 105.589 158.704C105.589 158.723 105.57 158.723 105.57 158.742C105.285 159.162 105.133 159.544 105.152 159.85C105.152 160.022 105.209 160.175 105.323 160.289C106.045 161.111 107.832 161.875 107.946 161.932C108.022 161.97 108.098 161.97 108.174 161.97C108.288 161.97 108.421 161.932 108.554 161.875C109.219 161.55 110.151 160.404 110.341 159.64C110.588 158.627 109.295 157.366 108.345 156.984ZM109.903 159.506C109.732 160.136 108.915 161.187 108.364 161.455C108.25 161.512 108.174 161.531 108.117 161.493C108.098 161.493 106.311 160.729 105.646 159.964C105.513 159.812 105.608 159.43 105.931 158.99C106.558 158.092 107.623 157.366 108.079 157.366C108.117 157.366 108.155 157.366 108.193 157.385C108.972 157.729 110.074 158.818 109.903 159.506Z" fill="#F18C7E"/>
<path d="M107.661 163.67C105.266 163.67 101.085 159.582 100.895 159.391C100.799 159.315 100.799 159.162 100.895 159.085C100.971 158.99 101.123 158.99 101.199 159.085C101.237 159.124 105.722 163.518 107.851 163.231C107.965 163.212 108.079 163.307 108.098 163.422C108.117 163.537 108.022 163.651 107.908 163.67C107.832 163.67 107.756 163.67 107.661 163.67Z" fill="#F18C7E"/>
<path d="M133.547 121.164C133.433 119.998 133.091 118.929 132.502 117.954C131.913 116.98 131.152 116.12 130.202 115.375C129.252 114.63 128.206 114.019 127.066 113.56C125.85 113.064 124.633 112.777 123.398 112.701C122.163 112.624 120.984 112.758 119.863 113.102C118.741 113.465 117.715 114.019 116.765 114.783C116.746 114.783 116.727 114.802 116.727 114.821C115.244 116.025 115.472 118.374 117.126 119.349L117.62 119.635C118.684 120.247 119.977 120.056 120.889 119.234C121.193 118.948 121.535 118.737 121.896 118.546C122.79 118.107 123.74 118.088 124.709 118.489C125.641 118.871 126.268 119.444 126.61 120.228C126.952 121.011 126.933 121.832 126.572 122.73C126.268 123.475 125.812 124.087 125.184 124.526C125.089 124.602 124.994 124.679 124.88 124.736C124.329 125.099 123.702 125.424 122.999 125.711L117.848 127.583L110.949 130.105C110.208 130.372 109.638 130.945 109.334 131.671L108.839 132.875C108.269 134.288 108.934 135.912 110.36 136.485L113.781 137.88L122.486 141.452L123.151 141.72C123.493 141.854 123.854 141.93 124.196 141.93C125.279 141.93 126.306 141.281 126.743 140.211C127.313 138.797 126.629 137.173 125.222 136.6L124.5 136.313L119.844 134.403C119.084 134.097 119.103 133.008 119.882 132.722L125.489 130.735C125.964 130.563 126.439 130.372 126.914 130.181C127.199 130.066 127.465 129.952 127.75 129.837C128.491 129.531 129.176 129.149 129.841 128.71C130.487 128.271 131.076 127.736 131.608 127.124C132.122 126.513 132.578 125.749 132.939 124.851C133.452 123.571 133.661 122.329 133.547 121.164Z" fill="#66192D"/>
<path d="M170.989 160.137C169.469 166.823 170.932 173.835 174.98 179.356C176.349 181.228 177.489 182.928 178.04 184.074C179.561 187.303 180.853 186.405 181.671 187.59C183.704 190.493 183.096 196.206 184.255 198.632C185.833 201.956 187.866 201.536 187.866 201.536L214.38 193.569C214.38 193.569 213.125 190.971 211.396 184.38C210.769 181.973 209.476 179.165 210.731 175.382C212.498 170.109 210.331 163.499 208.906 157.252C208.241 154.329 206.625 148.884 205.751 146.974C204.839 144.968 204.212 137.001 201.266 137.25C196.039 137.689 199.65 157.328 196.533 155.303C192.542 152.724 188.456 149.496 183.799 145.541C173.365 136.734 173.308 150.011 170.989 160.137Z" fill="#FDAD9B"/>
<path d="M194.708 186.042C194.632 186.061 194.537 186.023 194.48 185.965C194.423 185.908 193.168 184.59 192.503 182.317C192.104 180.979 191.99 179.604 192.161 178.209C192.37 176.471 193.035 174.713 194.138 172.975C194.214 172.86 194.366 172.822 194.499 172.898C194.613 172.975 194.651 173.127 194.575 173.261C193.529 174.942 192.883 176.623 192.674 178.286C192.503 179.604 192.617 180.922 192.997 182.183C193.643 184.342 194.841 185.602 194.86 185.622C194.955 185.717 194.955 185.889 194.86 185.985C194.803 186.004 194.746 186.023 194.708 186.042Z" fill="#F18C7E"/>
<path d="M242.812 300.515H180.663C180.663 300.458 180.644 300.381 180.644 300.324C180.491 299.235 180.358 298.127 180.225 297C179.674 292.376 179.275 287.314 178.971 282.022C178.914 280.895 178.838 279.729 178.781 278.583C178.477 272.26 178.325 265.65 178.268 259.02C178.268 257.931 178.249 256.823 178.249 255.734C178.23 250.366 178.287 245.017 178.382 239.821C178.401 238.732 178.42 237.662 178.458 236.592C178.61 230.402 178.819 224.48 179.047 219.112C179.104 217.984 179.161 216.876 179.199 215.807C179.351 212.845 179.503 210.094 179.655 207.573C179.731 206.426 179.807 205.337 179.864 204.287C180.396 196.893 180.91 192.347 181.214 192.289C181.746 192.213 182.392 192.175 183.114 192.194C187.068 192.213 193.682 193.034 200.068 189.825C205.218 187.246 209.437 186.061 211.851 186.233C212.973 186.31 213.714 186.673 213.98 187.322C214.018 187.437 215.272 191.869 217.23 199.052C217.496 200.026 217.781 201.058 218.066 202.147C219.188 206.254 220.499 211.03 221.905 216.284C222.19 217.354 222.495 218.462 222.78 219.57C223.863 223.62 225.003 227.919 226.182 232.332C226.448 233.363 226.733 234.414 227.018 235.465C228.557 241.33 230.135 247.405 231.693 253.461C231.96 254.512 232.226 255.582 232.492 256.632C234.24 263.491 235.913 270.292 237.452 276.692C237.699 277.743 237.965 278.793 238.193 279.825C239.524 285.461 240.721 290.753 241.729 295.452C241.957 296.541 242.185 297.611 242.394 298.643C242.565 299.254 242.698 299.884 242.812 300.515Z" fill="#FF8548"/>
<path d="M203.204 143.459C202.938 143.459 202.634 143.401 202.292 143.23C202.14 143.153 201.417 142.58 201.55 138.836C201.55 138.721 201.645 138.645 201.76 138.645C201.874 138.645 201.95 138.74 201.95 138.855C201.893 140.383 202.026 142.637 202.463 142.886C203.128 143.249 203.679 142.981 203.679 142.981C203.774 142.924 203.907 142.981 203.945 143.077C204.002 143.172 203.945 143.306 203.85 143.344C203.869 143.325 203.603 143.459 203.204 143.459Z" fill="#F18C7E"/>
<path d="M184.236 187.952C184.217 187.952 184.198 187.952 184.198 187.952C181.898 187.895 180.492 187.111 179.694 186.462C178.838 185.755 178.515 185.067 178.515 185.029C178.458 184.895 178.515 184.743 178.648 184.685C178.781 184.628 178.933 184.685 178.99 184.819C178.99 184.819 179.275 185.449 180.055 186.08C180.777 186.653 182.088 187.36 184.217 187.436C184.369 187.436 184.464 187.551 184.464 187.704C184.464 187.837 184.369 187.933 184.236 187.952Z" fill="#F18C7E"/>
<path d="M169.868 177.903L176.881 179.03C178.725 179.718 180.796 178.782 181.48 176.929C182.165 175.076 181.233 172.993 179.39 172.306L174.6 170.51C171.312 169.325 168.613 169.115 167.492 172.115C165.934 176.337 168.081 177.234 169.868 177.903Z" fill="#FDAD9B"/>
<path d="M179.123 177.235C179.123 177.235 177.09 177.368 176.082 176.967C175.075 176.566 176.348 173.089 177.28 173.013C178.211 172.936 179.883 173.433 180.074 174.331C180.245 175.21 179.75 177.215 179.123 177.235Z" fill="#F18C7E"/>
<path d="M177.831 179.642C175.759 179.642 169.487 178.018 169.221 177.942C169.069 177.903 168.993 177.751 169.031 177.617C169.069 177.464 169.221 177.388 169.354 177.426C169.43 177.445 176.291 179.241 178.002 179.107C179.636 178.992 180.397 178.133 180.397 178.133C180.492 178.018 180.663 177.999 180.777 178.094C180.891 178.19 180.91 178.362 180.815 178.477C180.777 178.515 179.922 179.508 178.059 179.642C177.983 179.642 177.907 179.642 177.831 179.642Z" fill="#F18C7E"/>
<path d="M179.846 166.842C177.28 166.422 175.55 163.976 175.969 161.416L183.666 114.764C184.084 112.185 186.517 110.446 189.064 110.866C191.629 111.287 193.359 113.732 192.941 116.292L185.243 162.945C184.825 165.524 182.393 167.262 179.846 166.842Z" fill="#66192D"/>
<path d="M213.03 136.638L159.851 128.748C158.046 128.481 156.829 126.704 157.248 124.908L165.42 89.6225C165.8 87.9605 167.454 86.9097 169.107 87.2536L218.086 97.5317C219.682 97.8756 220.765 99.3657 220.556 101.009L216.603 133.906C216.394 135.664 214.779 136.906 213.03 136.638Z" fill="#FF443C"/>
<path d="M165.439 167.702L173.459 170.414C175.493 171.599 178.097 170.892 179.275 168.848C180.453 166.804 179.75 164.187 177.717 163.002L172.433 159.945C168.822 157.92 165.667 157.137 163.785 160.423C161.124 165.084 163.481 166.575 165.439 167.702Z" fill="#FDAD9B"/>
<path d="M176.425 168.733C176.425 168.733 174.011 168.485 172.908 167.816C171.806 167.148 173.973 163.308 175.094 163.403C176.216 163.499 178.059 164.416 178.116 165.485C178.154 166.574 177.166 168.848 176.425 168.733Z" fill="#F18C7E"/>
<path d="M175.57 171.312C173.764 171.312 170.989 169.88 170.856 169.822C170.723 169.746 170.666 169.593 170.742 169.459C170.818 169.326 170.97 169.268 171.103 169.345C172.11 169.861 174.98 171.121 176.159 170.701C176.292 170.644 176.444 170.72 176.501 170.854C176.558 170.988 176.482 171.141 176.349 171.198C176.121 171.274 175.855 171.312 175.57 171.312Z" fill="#F18C7E"/>
<path d="M167.605 157.652L175.151 161.492C176.994 162.944 179.674 162.639 181.119 160.786C182.582 158.932 182.259 156.239 180.415 154.787L175.626 151.004C172.338 148.482 169.335 147.241 166.997 150.24C163.709 154.424 165.838 156.239 167.605 157.652Z" fill="#FDAD9B"/>
<path d="M178.325 160.251C178.325 160.251 175.969 159.659 174.961 158.837C173.954 158.016 176.653 154.539 177.736 154.787C178.82 155.035 180.53 156.22 180.416 157.29C180.34 158.36 179.048 160.442 178.325 160.251Z" fill="#F18C7E"/>
<path d="M177.793 162.696C174.79 162.696 169.583 158.99 169.335 158.818C169.221 158.723 169.183 158.57 169.278 158.436C169.373 158.322 169.526 158.283 169.659 158.379C169.716 158.417 175.931 162.849 178.42 162.085C178.553 162.047 178.705 162.123 178.762 162.257C178.8 162.391 178.724 162.544 178.591 162.601C178.344 162.677 178.078 162.696 177.793 162.696Z" fill="#F18C7E"/>
<path d="M172.205 149.132L178.572 151.941C180.15 153.049 182.335 152.667 183.457 151.081C184.559 149.495 184.179 147.298 182.601 146.171L178.496 143.286C175.683 141.357 173.156 140.497 171.369 143.057C168.86 146.668 170.685 148.043 172.205 149.132Z" fill="#FDAD9B"/>
<path d="M181.138 150.756C181.138 150.756 179.181 150.374 178.325 149.744C177.47 149.113 179.523 146.133 180.416 146.286C181.328 146.439 182.773 147.337 182.735 148.215C182.697 149.113 181.727 150.89 181.138 150.756Z" fill="#F18C7E"/>
<path d="M180.625 152.819C178.135 152.819 173.897 150.144 173.688 150.011C173.593 149.953 173.555 149.8 173.612 149.705C173.669 149.609 173.821 149.571 173.916 149.628C173.973 149.667 179.276 153.01 181.29 152.265C181.404 152.227 181.537 152.284 181.575 152.399C181.613 152.513 181.556 152.647 181.442 152.685C181.214 152.781 180.929 152.819 180.625 152.819Z" fill="#F18C7E"/>
<path d="M218.123 202.128C215.443 202.643 201.721 205.318 194.119 207.63C191.705 208.356 189.348 208.642 187.201 208.642C184.179 208.642 181.537 208.107 179.655 207.553C179.731 206.407 179.807 205.318 179.883 204.267C182.544 205.108 187.733 206.216 193.206 204.573C200.847 202.261 214.018 199.663 217.268 199.033C217.534 200.007 217.819 201.039 218.123 202.128Z" fill="#553E93"/>
<path d="M222.837 219.532C220.557 219.321 209.495 218.443 199.194 220.391C196.704 220.869 194.31 221.041 192.029 221.041C186.574 221.041 181.918 219.952 179.048 219.073C179.105 217.946 179.162 216.838 179.2 215.768C182.659 216.895 190.299 218.825 198.586 217.258C208.184 215.443 218.086 215.94 221.944 216.246C222.248 217.335 222.533 218.424 222.837 219.532Z" fill="#553E93"/>
<path d="M226.239 232.293C222.039 232.675 210.483 233.84 200.41 236.133C191.515 238.177 182.526 237.203 178.439 236.553C178.42 237.623 178.382 238.693 178.363 239.782C180.739 240.145 184.388 240.565 188.665 240.565C192.466 240.565 196.761 240.24 201.094 239.247C211.472 236.878 223.502 235.732 227.037 235.426C226.79 234.375 226.505 233.344 226.239 232.293Z" fill="#553E93"/>
<path d="M232.531 256.613C228.52 256.728 216.604 257.263 205.865 259.861C202.349 260.721 198.643 261.045 195.089 261.045C188.228 261.045 181.861 259.861 178.249 259.02C178.249 257.931 178.23 256.823 178.23 255.734C183.077 256.9 195.07 259.23 205.124 256.785C215.691 254.206 227.038 253.595 231.732 253.461C231.998 254.493 232.264 255.543 232.531 256.613Z" fill="#553E93"/>
<path d="M238.251 279.786C232.758 280.359 217.116 282.079 205.047 284.219C202.254 284.715 199.498 284.925 196.856 284.925C189.33 284.925 182.811 283.263 178.952 282.002C178.895 280.875 178.819 279.729 178.781 278.564C182.164 279.748 189.044 281.716 196.97 281.716C199.403 281.716 201.93 281.525 204.496 281.085C216.375 278.984 231.637 277.284 237.491 276.672C237.757 277.723 238.004 278.755 238.251 279.786Z" fill="#553E93"/>
<path d="M197.845 111.077C198.947 110.14 199.65 108.88 199.935 107.256C200.182 105.861 200.125 104.6 199.726 103.473C199.327 102.346 198.719 101.353 197.902 100.493C197.084 99.6331 196.096 98.9454 194.956 98.3914C193.815 97.8373 192.599 97.4552 191.326 97.226C190.128 97.0158 188.95 96.9585 187.752 97.0541C186.555 97.1496 185.434 97.4361 184.35 97.8564C183.286 98.2958 182.317 98.9072 181.442 99.6904C181.157 99.9579 180.872 100.225 180.625 100.531C179.808 101.486 180.131 102.976 181.29 103.473L183.875 104.6C184.616 104.925 185.491 104.753 186.004 104.123C186.327 103.721 186.707 103.397 187.163 103.148C187.98 102.69 188.893 102.556 189.862 102.747C190.812 102.919 191.592 103.339 192.219 104.027C192.846 104.715 193.074 105.575 192.884 106.606C192.751 107.313 192.504 107.867 192.143 108.249C191.782 108.631 191.345 108.918 190.812 109.09C190.299 109.262 189.729 109.338 189.121 109.338C188.513 109.319 187.885 109.262 187.22 109.147L187.049 109.109C186.042 108.918 185.073 109.586 184.883 110.618L184.654 111.917C184.635 112.032 184.616 112.146 184.616 112.261C184.616 112.357 184.616 112.452 184.635 112.529C184.749 113.293 185.339 113.942 186.137 114.095C186.84 114.229 187.524 114.42 188.209 114.668C188.893 114.917 189.482 115.241 189.976 115.623C190.489 116.005 190.85 116.483 191.097 117.037C191.345 117.591 191.402 118.222 191.269 118.967C191.154 119.654 190.907 120.189 190.565 120.61C190.223 121.03 189.824 121.336 189.387 121.546C188.95 121.756 188.456 121.89 187.923 121.928C187.391 121.966 186.897 121.947 186.403 121.851C185.111 121.622 184.103 121.049 183.4 120.189C183.172 119.922 182.982 119.635 182.83 119.349C182.697 119.119 182.583 118.89 182.507 118.661C182.222 117.916 181.499 117.419 180.701 117.477L177.622 117.706C176.463 117.801 175.646 118.948 175.988 120.075C176.159 120.629 176.368 121.164 176.634 121.66C177.223 122.768 177.964 123.705 178.858 124.507C179.675 125.233 180.625 125.844 181.671 126.36C181.766 126.417 181.88 126.456 181.975 126.494C183.153 127.01 184.388 127.411 185.681 127.64C187.011 127.888 188.342 127.946 189.691 127.812C190.128 127.774 190.565 127.697 190.983 127.621C191.858 127.43 192.675 127.162 193.473 126.78C194.633 126.226 195.64 125.424 196.495 124.392C197.331 123.361 197.902 122.042 198.187 120.476C198.339 119.654 198.339 118.871 198.206 118.107C198.073 117.343 197.807 116.617 197.426 115.948C197.046 115.28 196.552 114.668 195.963 114.114C195.355 113.56 194.671 113.121 193.891 112.796L193.91 112.681C195.45 112.529 196.742 112.013 197.845 111.077Z" fill="#FFBA41"/>
<path d="M293.93 176.835C295.349 183.443 293.952 190.711 290.089 196.767C288.783 198.808 287.685 200.69 287.187 201.905C285.731 205.354 284.526 204.581 283.733 205.878C281.803 209.068 282.362 214.771 281.246 217.378C279.746 220.919 277.813 220.747 277.813 220.747L252.75 215.731C252.75 215.731 253.948 212.959 255.605 206.068C256.209 203.538 257.447 200.551 256.261 196.866C254.601 191.728 256.679 184.761 258.043 178.276C258.68 175.227 260.228 169.528 261.06 167.491C261.941 165.342 262.542 157.203 265.349 157.108C270.3 156.944 266.805 177.27 269.776 174.86C273.564 171.786 277.446 168.042 281.874 163.499C291.763 153.368 291.775 166.817 293.93 176.835Z" fill="#FDAD9B"/>
<path d="M271.918 205.439C271.989 205.433 272.065 205.409 272.118 205.34C272.172 205.271 273.316 203.807 273.955 201.457C274.331 200.074 274.45 198.677 274.302 197.306C274.127 195.588 273.543 193.906 272.561 192.282C272.488 192.167 272.352 192.159 272.244 192.236C272.131 192.333 272.106 192.488 272.162 192.6C273.094 194.154 273.661 195.772 273.84 197.41C273.97 198.718 273.872 200.039 273.516 201.346C272.909 203.582 271.813 204.997 271.796 204.993C271.711 205.116 271.703 205.274 271.802 205.355C271.82 205.418 271.864 205.447 271.918 205.439Z" fill="#F18C7E"/>
<path d="M289.454 308.488L235.504 297.468C244.206 258.576 257.036 208.422 257.159 208.042C257.405 207.343 258.108 206.899 259.164 206.69C261.448 206.246 265.43 206.958 270.303 208.986C276.347 211.516 282.598 209.918 286.346 209.428C287.041 209.347 287.655 209.291 288.158 209.313C289.225 209.328 292.715 268.97 289.454 308.488Z" fill="#786AB5"/>
<path d="M260.684 163.481C260.601 163.464 260.539 163.431 260.539 163.431C260.444 163.391 260.402 163.282 260.449 163.172C260.496 163.062 260.6 163.004 260.695 163.044C260.712 163.048 261.204 163.251 261.812 162.82C262.226 162.527 262.339 160.255 262.289 158.727C262.286 158.606 262.367 158.503 262.472 158.505C262.582 158.489 262.667 158.566 262.653 158.683C262.787 162.406 262.117 163.064 261.982 163.175C261.422 163.556 260.934 163.534 260.684 163.481Z" fill="#F18C7E"/>
<path d="M282.838 206.871C282.855 206.875 282.872 206.878 282.878 206.858C285.085 206.506 286.45 205.511 287.216 204.751C288.063 203.904 288.368 203.157 288.379 203.117C288.435 202.984 288.388 202.83 288.254 202.783C288.139 202.739 287.989 202.813 287.927 202.967C287.927 202.967 287.639 203.655 286.878 204.395C286.186 205.087 284.907 205.974 282.867 206.318C282.735 206.334 282.62 206.477 282.616 206.621C282.646 206.771 282.728 206.87 282.838 206.871Z" fill="#F18C7E"/>
<path d="M296.205 195.577L289.409 197.661C287.603 198.62 285.631 197.899 284.998 196.045C284.365 194.191 285.31 191.917 287.098 190.955L291.757 188.472C294.94 186.825 297.575 186.258 298.59 189.229C300.046 193.434 297.947 194.647 296.205 195.577Z" fill="#FDAD9B"/>
<path d="M290.753 193.673C290.61 192.507 289.897 190.836 289.095 190.886C288.075 190.934 286.363 191.735 286.119 192.846C285.936 193.678 286.221 195.182 286.659 195.765C286.781 195.913 286.915 196.022 287.054 196.049C287.106 196.059 287.14 196.066 287.198 196.057C287.331 196.041 289.233 195.919 290.238 195.35C290.496 195.215 290.885 194.816 290.753 193.673ZM290.066 194.862C289.153 195.365 287.268 195.491 287.251 195.488C287.233 195.484 287.164 195.471 287.1 195.376C286.755 194.915 286.495 193.581 286.65 192.909C286.805 192.174 288.247 191.485 289.06 191.458C289.078 191.461 289.095 191.465 289.095 191.465C289.476 191.54 290.11 192.719 290.247 193.842C290.303 194.35 290.221 194.768 290.066 194.862Z" fill="#F18C7E"/>
<path d="M287.357 198.196C286.281 197.981 285.78 197.407 285.75 197.379C285.647 197.272 285.681 197.085 285.793 196.957C285.905 196.828 286.072 196.84 286.156 196.943C286.168 196.967 286.911 197.762 288.501 197.693C290.211 197.604 297.022 194.786 297.087 194.756C297.236 194.699 297.368 194.769 297.399 194.926C297.431 195.083 297.349 195.239 297.201 195.296C296.922 195.412 290.224 198.167 288.436 198.262C288.049 198.292 287.679 198.261 287.357 198.196Z" fill="#F18C7E"/>
<path d="M283.94 185.398C286.354 184.683 287.985 182.014 287.597 179.474L280.503 133.226C280.12 130.667 277.836 129.19 275.439 129.908C273.026 130.622 271.394 133.292 271.783 135.832L278.877 182.079C279.277 184.642 281.538 186.135 283.94 185.398Z" fill="#66192D"/>
<path d="M252.111 158.178L304.525 143.537C306.318 143.035 307.506 141.031 307.103 139.199L299.201 103.188C298.818 101.484 297.209 100.582 295.569 101.135L247.27 117.762C245.688 118.306 244.64 120.009 244.823 121.694L248.605 155.738C248.792 157.547 250.382 158.651 252.111 158.178Z" fill="#FFBA41"/>
<path d="M299.95 185.013L292.218 188.841C290.238 190.317 287.761 189.934 286.675 187.96C285.588 185.985 286.291 183.202 288.272 181.726L293.386 177.881C296.888 175.316 299.928 174.11 301.684 177.272C304.151 181.735 301.867 183.566 299.95 185.013Z" fill="#FDAD9B"/>
<path d="M293.16 184.006C292.779 182.71 291.638 180.996 290.722 181.189C290.446 181.259 290.123 181.361 289.802 181.526C288.739 182.041 287.611 183.041 287.55 184.022C287.535 184.268 287.566 184.543 287.609 184.841C287.773 185.742 288.245 186.787 288.71 187.21C288.844 187.319 288.971 187.385 289.11 187.412C289.197 187.429 289.289 187.427 289.37 187.401C289.508 187.366 291.772 186.817 292.86 185.955C293.325 185.612 293.434 184.909 293.16 184.006ZM292.62 185.514C291.605 186.309 289.359 186.861 289.342 186.858C289.284 186.867 289.186 186.827 289.098 186.748C288.656 186.371 288.219 185.271 288.108 184.442C288.083 184.272 288.07 184.124 288.092 183.984C288.133 183.392 288.843 182.703 289.612 182.254C290.014 182.002 290.433 181.815 290.785 181.739C290.825 181.727 290.86 181.733 290.912 181.744C291.415 181.842 292.332 182.995 292.706 184.248C292.845 184.855 292.832 185.349 292.62 185.514Z" fill="#F18C7E"/>
<path d="M289.809 189.663C289.773 189.656 289.756 189.653 289.72 189.646C289.579 189.618 289.513 189.457 289.576 189.301C289.621 189.141 289.779 189.046 289.915 189.094C291.058 189.403 293.874 187.701 294.867 187.032C295.001 186.953 295.16 186.984 295.22 187.102C295.274 187.239 295.223 187.419 295.106 187.501C294.948 187.596 291.451 189.987 289.809 189.663Z" fill="#F18C7E"/>
<path d="M297.219 175.037L289.949 179.938C288.161 181.669 285.621 181.685 284.255 179.953C282.906 178.224 283.249 175.425 285.043 173.674L289.685 169.163C292.863 166.139 295.756 164.501 297.936 167.28C301 171.244 298.939 173.354 297.219 175.037Z" fill="#FDAD9B"/>
<path d="M290.355 175.115C289.936 174.205 289.037 173.118 288.226 172.813C287.977 172.723 287.728 172.695 287.521 172.779C286.33 173.228 284.612 174.754 284.704 176.035C284.776 177.001 285.593 178.507 286.313 178.938C286.423 179.001 286.521 179.041 286.625 179.062C286.764 179.089 286.88 179.07 287.001 179.032C287.087 178.987 288.036 178.614 288.961 178.071C289.466 177.777 289.989 177.424 290.343 177.08C290.738 176.66 290.738 175.956 290.355 175.115ZM289.999 176.681C289.713 176.977 289.306 177.249 288.863 177.514C287.916 178.073 286.88 178.491 286.857 178.507C286.794 178.536 286.695 178.496 286.585 178.433C285.993 178.068 285.259 176.723 285.2 175.904C285.14 175.023 286.64 173.682 287.613 173.293C287.676 173.264 287.745 173.278 287.815 173.292C287.954 173.319 288.116 173.392 288.302 173.511C288.842 173.866 289.495 174.595 289.866 175.413C290.155 176.008 290.2 176.493 289.999 176.681Z" fill="#F18C7E"/>
<path d="M286.978 181.381C286.838 181.353 286.767 181.214 286.812 181.057C286.857 180.899 286.996 180.801 287.136 180.828C289.546 181.302 295.606 175.909 295.675 175.86C295.796 175.759 295.959 175.77 296.041 175.869C296.118 175.989 296.085 176.17 295.981 176.274C295.698 176.489 289.615 181.898 286.978 181.381Z" fill="#F18C7E"/>
<path d="M292.174 166.895L286.016 170.602C284.479 171.953 282.393 171.833 281.36 170.328C280.327 168.823 280.732 166.506 282.269 165.156L286.246 161.66C288.979 159.325 291.41 158.108 293.061 160.519C295.43 163.939 293.66 165.596 292.174 166.895Z" fill="#FDAD9B"/>
<path d="M286.53 166.617C286.518 166.594 286.519 166.594 286.507 166.571C286.099 165.56 285.049 164.298 284.323 164.528C283.333 164.851 281.865 166.012 281.892 167.073C281.899 167.882 282.506 169.16 283.069 169.561C283.162 169.62 283.255 169.68 283.359 169.7C283.446 169.717 283.538 169.715 283.642 169.673C283.763 169.635 285.593 169 286.458 168.218C286.584 168.098 286.664 167.948 286.708 167.791C286.775 167.493 286.725 167.09 286.53 166.617ZM286.184 167.895C285.393 168.609 283.563 169.244 283.546 169.24C283.505 169.253 283.419 169.236 283.326 169.176C282.855 168.835 282.319 167.695 282.313 167.011C282.306 166.264 283.59 165.233 284.396 164.977C284.437 164.964 284.489 164.974 284.541 164.985C284.975 165.07 285.779 165.911 286.151 166.853C286.341 167.346 286.356 167.742 286.184 167.895Z" fill="#F18C7E"/>
<path d="M283.599 171.626C283.564 171.619 283.529 171.612 283.512 171.609C283.406 171.588 283.353 171.452 283.386 171.333C283.42 171.214 283.554 171.136 283.659 171.157C283.677 171.16 283.712 171.167 283.73 171.17C285.73 171.563 290.803 167.494 290.849 167.461C290.948 167.376 291.088 167.403 291.136 167.496C291.201 167.593 291.155 167.751 291.063 167.817C290.866 167.987 285.811 172.06 283.599 171.626Z" fill="#F18C7E"/>
<path d="M287.012 133.553L286.799 131.798C286.652 130.607 285.609 129.866 284.48 130.166L284.44 130.178C283.294 130.475 282.264 129.757 282.121 128.546L280.241 113.435C280.098 112.224 279.051 111.502 277.922 111.803L272.537 113.235C271.844 113.421 271.257 113.953 270.955 114.646L261.874 135.375C261.688 135.785 261.617 136.239 261.679 136.68L262.109 140.169C262.252 141.38 263.3 142.102 264.429 141.801L270.329 140.229L274.465 139.133C275.611 138.836 276.642 139.555 276.784 140.766L277.01 142.604C277.158 143.796 278.201 144.537 279.329 144.236L280.16 144.018L281.879 143.573C283.025 143.276 283.821 142.052 283.679 140.841L283.453 139.003C283.411 138.689 283.444 138.369 283.529 138.061C283.758 137.231 284.416 136.509 285.247 136.291C286.364 135.968 287.16 134.744 287.012 133.553ZM273.728 133.035L272.302 133.418C271.488 133.64 270.784 133.334 270.351 132.777C269.917 132.22 269.801 131.382 270.144 130.535L274.217 120.768L274.337 120.731L275.501 130.135L275.528 130.304C275.653 131.511 274.857 132.734 273.728 133.035Z" fill="#553E93"/>
<path d="M166.162 59.1897C166.162 59.1897 163.273 53.5922 155.936 54.299C148.6 55.0059 149.474 60.6034 145.996 60.0876C142.499 59.5527 137.615 60.0876 136.569 63.6028C135.524 67.118 130.811 65.1885 130.64 68.1687C130.469 71.149 136.056 73.2505 142.499 70.6332C148.961 67.9968 152.097 72.6773 161.163 71.8367C170.229 70.9962 171.369 69.9454 176.729 70.4612C182.108 70.9962 181.975 67.2899 179.523 64.8446C177.109 62.3419 167.207 62.5712 166.162 59.1897Z" fill="white"/>
<path d="M272.272 37.6781C272.272 37.6781 267.843 29.1194 256.649 30.1892C245.455 31.2591 246.785 39.8369 241.463 39.0345C236.142 38.2321 228.672 39.0345 227.076 44.3837C225.479 49.7329 218.276 46.7908 218.01 51.3568C217.744 55.9036 226.278 59.1322 236.123 55.1012C245.987 51.0893 250.776 58.2152 264.631 56.9352C278.487 55.6361 280.197 54.0314 288.408 54.8337C296.618 55.6361 296.409 50.0004 292.684 46.2368C288.978 42.4924 273.868 42.8554 272.272 37.6781Z" fill="white"/>
<path d="M85.5571 35.08C85.5571 35.08 81.1287 26.5212 69.9342 27.5911C58.7397 28.6609 60.0701 37.2387 54.7484 36.4364C49.4268 35.634 41.9575 36.4364 40.361 41.7856C38.7645 47.1347 31.5612 44.1927 31.2951 48.7586C31.029 53.3054 39.5627 56.534 49.4078 52.503C59.2529 48.472 64.0614 55.617 77.9167 54.3371C91.772 53.038 93.4825 51.4332 101.693 52.2356C109.904 53.038 109.695 47.4022 105.969 43.6387C102.263 39.9133 87.1536 40.2572 85.5571 35.08Z" fill="white"/>
</g>
<path d="M285.826 82.3417C300.89 67.2777 300.89 42.8541 285.826 27.7902C270.762 12.7262 246.339 12.7262 231.275 27.7902C216.211 42.8541 216.211 67.2777 231.275 82.3417C246.339 97.4056 270.762 97.4056 285.826 82.3417Z" fill="white"/>
<path d="M263.676 88.6629C284.98 88.6629 302.25 71.3927 302.25 50.0888C302.25 28.7849 284.98 11.5146 263.676 11.5146C242.372 11.5146 225.102 28.7849 225.102 50.0888C225.102 71.3927 242.372 88.6629 263.676 88.6629Z" fill="url(#paint2_linear_1_3504)"/>
<path d="M279.111 66.4473C279.111 67.0892 279.078 67.6426 279.012 68.1074C278.967 68.5501 278.89 68.9154 278.779 69.2031C278.669 69.4909 278.525 69.7012 278.348 69.834C278.171 69.9447 277.971 70 277.75 70H253.047C252.56 70 252.139 69.9557 251.785 69.8672C251.431 69.7786 251.143 69.6126 250.922 69.3691C250.701 69.1035 250.535 68.7272 250.424 68.2402C250.335 67.7533 250.291 67.1224 250.291 66.3477C250.291 65.6172 250.324 64.9974 250.391 64.4883C250.457 63.957 250.579 63.4922 250.756 63.0938C250.933 62.6732 251.154 62.2747 251.42 61.8984C251.708 61.5 252.073 61.0684 252.516 60.6035L259.953 52.6348C261.436 51.0853 262.632 49.6797 263.539 48.418C264.447 47.1341 265.155 45.972 265.664 44.9316C266.173 43.8691 266.516 42.8952 266.693 42.0098C266.893 41.1243 266.992 40.2832 266.992 39.4863C266.992 38.7559 266.87 38.0697 266.627 37.4277C266.406 36.7637 266.062 36.1882 265.598 35.7012C265.155 35.2142 264.59 34.8379 263.904 34.5723C263.218 34.2845 262.41 34.1406 261.48 34.1406C260.174 34.1406 259.012 34.3066 257.994 34.6387C256.998 34.9707 256.113 35.347 255.338 35.7676C254.585 36.166 253.954 36.5423 253.445 36.8965C252.936 37.2285 252.538 37.3945 252.25 37.3945C252.051 37.3945 251.874 37.3281 251.719 37.1953C251.586 37.0625 251.475 36.8411 251.387 36.5312C251.298 36.2214 251.221 35.8118 251.154 35.3027C251.11 34.7715 251.088 34.1296 251.088 33.377C251.088 32.8678 251.099 32.4473 251.121 32.1152C251.165 31.7611 251.221 31.4622 251.287 31.2188C251.354 30.9531 251.442 30.7318 251.553 30.5547C251.663 30.3555 251.852 30.123 252.117 29.8574C252.405 29.5918 252.914 29.2598 253.645 28.8613C254.397 28.4408 255.316 28.0423 256.4 27.666C257.485 27.2676 258.68 26.9355 259.986 26.6699C261.292 26.4043 262.654 26.2715 264.07 26.2715C266.306 26.2715 268.254 26.5592 269.914 27.1348C271.596 27.6882 272.991 28.474 274.098 29.4922C275.204 30.4883 276.023 31.6836 276.555 33.0781C277.108 34.4505 277.385 35.9336 277.385 37.5273C277.385 38.9219 277.252 40.2943 276.986 41.6445C276.721 42.9948 276.167 44.4557 275.326 46.0273C274.485 47.5768 273.301 49.3034 271.773 51.207C270.246 53.0885 268.221 55.2799 265.697 57.7812L260.684 62.9277H277.617C277.839 62.9277 278.038 62.9941 278.215 63.127C278.414 63.2598 278.58 63.4701 278.713 63.7578C278.846 64.0234 278.945 64.3887 279.012 64.8535C279.078 65.2962 279.111 65.8275 279.111 66.4473Z" fill="white"/>
<defs>
<linearGradient id="paint0_linear_1_3504" x1="155.499" y1="24.5146" x2="155.499" y2="300.515" gradientUnits="userSpaceOnUse">
<stop stop-color="#CAEBF2"/>
<stop offset="1" stop-color="#FBF7A1"/>
</linearGradient>
<linearGradient id="paint1_linear_1_3504" x1="155.5" y1="24.5146" x2="155.5" y2="300.515" gradientUnits="userSpaceOnUse">
<stop stop-color="#C782F2"/>
<stop offset="1" stop-color="#F6A860"/>
</linearGradient>
<linearGradient id="paint2_linear_1_3504" x1="227.842" y1="16.3364" x2="308.168" y2="23.6479" gradientUnits="userSpaceOnUse">
<stop stop-color="#E7FF74"/>
<stop offset="1" stop-color="#C1E707"/>
</linearGradient>
</defs>
</svg>
