<svg width="299" height="306" viewBox="0 0 299 306" fill="none" xmlns="http://www.w3.org/2000/svg">
<path fill-rule="evenodd" clip-rule="evenodd" d="M147.247 15.5149C192.342 15.3294 226.817 50.632 254.484 86.0106C281.583 120.663 303.901 161.493 295.02 204.477C285.938 248.43 252.492 285.134 210.127 300.688C171.66 314.812 132.58 295.124 95.4914 277.737C57.8398 260.087 14.4637 243.446 3.1252 203.649C-8.67207 162.242 14.8837 121.133 41.1172 86.8884C68.3366 51.3565 102.302 15.6998 147.247 15.5149Z" fill="url(#paint0_linear_1_3308)"/>
<path d="M134.697 178.834C134.697 180.999 132.94 182.749 130.783 182.749C128.625 182.749 126.868 180.991 126.868 178.834C126.868 176.677 128.625 174.919 130.783 174.919" fill="#63A4E5"/>
<path opacity="0.1" d="M284.937 192.829C284.937 192.821 284.937 192.814 284.937 192.814C284.937 192.806 284.937 192.79 284.937 192.79C284.937 192.735 284.937 192.672 284.929 192.618C284.921 192.555 284.921 192.5 284.913 192.437C284.913 192.414 284.913 192.39 284.906 192.359C284.906 192.343 284.906 192.327 284.898 192.312C284.89 192.272 284.89 192.233 284.882 192.202C284.874 192.162 284.874 192.123 284.866 192.084C284.851 191.998 284.835 191.919 284.819 191.841L284.772 191.637L284.623 190.954L270.133 126.053C270.118 125.974 270.094 125.888 270.071 125.81C270.055 125.755 270.039 125.692 270.024 125.637C270.008 125.566 269.984 125.504 269.953 125.433C269.929 125.378 269.914 125.323 269.89 125.268C269.867 125.213 269.843 125.158 269.82 125.104C269.788 125.033 269.757 124.97 269.725 124.9C269.655 124.766 269.584 124.625 269.498 124.499C269.498 124.492 269.49 124.492 269.49 124.492C269.435 124.413 269.38 124.335 269.325 124.256C269.121 123.974 268.886 123.715 268.627 123.487C268.564 123.433 268.502 123.378 268.439 123.323C268.29 123.205 268.141 123.095 267.984 123.001C267.929 122.97 267.882 122.938 267.827 122.907C267.756 122.868 267.686 122.828 267.615 122.789C267.607 122.781 267.592 122.781 267.576 122.774L267.294 122.64C267.294 122.64 267.294 122.632 267.294 122.64L259.982 119.29L249.619 72.8716C248.583 68.2195 243.963 65.2855 239.31 66.3289L147.006 86.9376C142.354 87.9732 139.42 92.5939 140.464 97.246L150.827 143.657L145.633 149.8L145.429 150.043C145.422 150.051 145.414 150.066 145.406 150.074C144.88 150.749 144.535 151.557 144.425 152.42C144.355 152.961 144.378 153.526 144.504 154.091L159.111 219.51L159.15 219.675L159.197 219.879C159.221 220.004 159.252 220.114 159.292 220.232C159.299 220.255 159.307 220.287 159.315 220.31C159.323 220.334 159.331 220.35 159.331 220.373C159.339 220.381 159.339 220.397 159.339 220.404C159.347 220.412 159.347 220.428 159.354 220.436C159.378 220.506 159.401 220.577 159.433 220.648C159.441 220.655 159.441 220.671 159.448 220.687C159.456 220.71 159.472 220.742 159.488 220.765C159.503 220.797 159.511 220.82 159.527 220.852C159.535 220.867 159.543 220.883 159.55 220.899C159.558 220.914 159.566 220.922 159.566 220.938C159.605 221.009 159.637 221.087 159.676 221.158C159.684 221.173 159.692 221.189 159.7 221.205C159.715 221.236 159.731 221.267 159.754 221.291C159.77 221.322 159.794 221.354 159.809 221.385C159.856 221.456 159.904 221.534 159.951 221.605L159.958 221.613C159.99 221.66 160.029 221.707 160.068 221.754C160.084 221.777 160.1 221.801 160.115 221.817C160.162 221.879 160.217 221.942 160.264 221.997C160.272 222.005 160.28 222.013 160.288 222.021C160.296 222.036 160.311 222.044 160.319 222.06C160.351 222.091 160.382 222.13 160.413 222.162C160.429 222.177 160.445 222.185 160.46 222.201C160.523 222.264 160.578 222.326 160.641 222.381C160.657 222.397 160.664 222.405 160.68 222.421C160.743 222.476 160.806 222.53 160.876 222.585C160.908 222.609 160.939 222.64 160.97 222.664C161.017 222.703 161.065 222.734 161.112 222.774C161.127 222.789 161.151 222.797 161.174 222.813C161.269 222.876 161.363 222.938 161.457 222.993C161.488 223.009 161.52 223.033 161.551 223.048C161.59 223.072 161.629 223.095 161.669 223.111C161.826 223.189 161.982 223.268 162.147 223.331C162.171 223.338 162.202 223.346 162.233 223.362C162.273 223.378 162.312 223.393 162.359 223.409C162.422 223.433 162.492 223.456 162.555 223.472C162.602 223.488 162.641 223.495 162.688 223.503C162.736 223.519 162.79 223.527 162.838 223.542C162.885 223.55 162.932 223.566 162.987 223.574C163.065 223.59 163.143 223.597 163.222 223.613C163.238 223.613 163.245 223.621 163.261 223.621C163.293 223.629 163.324 223.637 163.347 223.637C163.387 223.644 163.426 223.644 163.465 223.644C163.489 223.644 163.504 223.644 163.528 223.652H163.536C163.638 223.66 163.74 223.66 163.842 223.668C163.873 223.668 163.897 223.676 163.92 223.668C163.936 223.668 163.944 223.668 163.959 223.668C163.975 223.668 163.999 223.668 164.014 223.668C164.077 223.668 164.14 223.668 164.203 223.66C164.21 223.66 164.21 223.66 164.218 223.66C164.234 223.66 164.25 223.66 164.265 223.66C164.281 223.66 164.297 223.66 164.32 223.652C164.359 223.652 164.391 223.644 164.43 223.644C164.446 223.644 164.461 223.644 164.477 223.637C164.493 223.637 164.501 223.637 164.516 223.629C164.571 223.621 164.634 223.613 164.697 223.597C164.783 223.582 164.869 223.566 164.948 223.55L280.928 197.654L281.187 197.599C281.273 197.583 281.352 197.56 281.438 197.536C281.493 197.521 281.556 197.505 281.611 197.489C281.626 197.481 281.642 197.481 281.658 197.474C281.681 197.466 281.713 197.45 281.736 197.442C281.752 197.442 281.768 197.434 281.783 197.426C281.815 197.419 281.846 197.403 281.877 197.395C281.877 197.387 281.885 197.387 281.893 197.387C281.932 197.372 281.972 197.356 282.003 197.34C282.034 197.332 282.066 197.317 282.097 197.301C282.105 197.301 282.105 197.293 282.113 197.293C282.152 197.277 282.191 197.254 282.238 197.238C282.332 197.191 282.419 197.152 282.505 197.097C282.505 197.097 282.513 197.097 282.513 197.089C282.536 197.073 282.552 197.066 282.576 197.05C282.599 197.034 282.631 197.019 282.654 197.003C282.67 196.995 282.685 196.987 282.701 196.979C282.717 196.971 282.725 196.964 282.74 196.956C282.764 196.94 282.78 196.924 282.803 196.909C282.991 196.783 283.164 196.65 283.329 196.509C283.337 196.509 283.337 196.501 283.344 196.501C283.368 196.477 283.399 196.454 283.423 196.43C283.446 196.407 283.47 196.383 283.493 196.36C283.525 196.336 283.556 196.305 283.58 196.273C283.595 196.265 283.603 196.25 283.619 196.234C283.635 196.218 283.642 196.203 283.658 196.195C283.705 196.148 283.744 196.101 283.792 196.054C283.799 196.046 283.799 196.038 283.807 196.03C283.839 195.999 283.862 195.959 283.886 195.928C283.909 195.897 283.933 195.865 283.964 195.834C283.972 195.818 283.98 195.81 283.988 195.803C283.996 195.795 284.003 195.779 284.011 195.771C284.035 195.74 284.058 195.701 284.082 195.669C284.105 195.646 284.121 195.614 284.137 195.591C284.152 195.567 284.168 195.544 284.184 195.52C284.2 195.497 284.215 195.473 284.231 195.442C284.262 195.395 284.294 195.348 284.317 195.293C284.349 195.246 284.372 195.191 284.403 195.136C284.419 195.104 284.435 195.073 284.451 195.042C284.49 194.963 284.529 194.877 284.568 194.791C284.584 194.751 284.592 194.72 284.607 194.681C284.615 194.657 284.623 194.634 284.631 194.61C284.655 194.555 284.678 194.5 284.694 194.438C284.709 194.398 284.717 194.367 284.733 194.328C284.741 194.288 284.756 194.257 284.764 194.218C284.772 194.179 284.788 194.139 284.796 194.1C284.827 193.99 284.851 193.873 284.874 193.763C284.874 193.755 284.874 193.739 284.882 193.731C284.882 193.692 284.89 193.653 284.898 193.614C284.906 193.575 284.913 193.528 284.913 193.48C284.913 193.473 284.913 193.473 284.913 193.465C284.921 193.426 284.921 193.386 284.921 193.355C284.921 193.324 284.929 193.284 284.929 193.253C284.929 193.237 284.929 193.222 284.937 193.206C284.937 193.198 284.937 193.182 284.937 193.174C284.937 193.127 284.945 193.073 284.945 193.018C284.945 192.986 284.945 192.963 284.945 192.931C284.945 192.916 284.945 192.9 284.945 192.884C284.937 192.869 284.937 192.853 284.937 192.829Z" fill="#232323"/>
<path d="M274.19 118.993L288.876 184.789C288.891 184.868 288.907 184.954 288.923 185.032C288.93 185.072 288.938 185.111 288.938 185.15C288.946 185.181 288.954 185.221 288.954 185.26C288.954 185.275 288.954 185.291 288.962 185.307C288.962 185.338 288.962 185.362 288.97 185.385C288.978 185.44 288.978 185.503 288.985 185.566C288.993 185.621 288.993 185.683 288.993 185.738C288.993 185.77 288.993 185.793 288.993 185.825C289.001 185.84 289.001 185.864 288.993 185.887C288.993 185.919 288.993 185.942 288.993 185.974C288.993 186.029 288.985 186.076 288.985 186.131C288.985 186.138 288.985 186.154 288.985 186.162C288.978 186.248 288.97 186.342 288.962 186.429C288.962 186.429 288.962 186.437 288.962 186.444C288.954 186.491 288.954 186.539 288.946 186.578C288.938 186.617 288.93 186.656 288.93 186.695C288.93 186.711 288.923 186.719 288.923 186.727C288.899 186.837 288.876 186.954 288.844 187.064C288.836 187.096 288.828 187.143 288.813 187.182C288.805 187.221 288.789 187.252 288.781 187.292C288.766 187.323 288.758 187.362 288.742 187.401C288.719 187.472 288.687 187.551 288.664 187.621C288.648 187.668 288.625 187.707 288.617 187.755C288.57 187.856 288.53 187.951 288.475 188.045C288.436 188.115 288.405 188.186 288.366 188.249C288.326 188.319 288.287 188.382 288.248 188.445C288.232 188.476 288.209 188.508 288.185 188.539C288.169 188.57 288.146 188.594 288.13 188.617C288.107 188.649 288.083 188.68 288.06 188.719C288.052 188.727 288.044 188.735 288.036 188.751C287.981 188.829 287.918 188.908 287.856 188.986C287.848 188.994 287.84 189.002 287.84 189.01C287.785 189.065 287.738 189.127 287.683 189.182C287.667 189.206 287.652 189.222 287.628 189.237C287.597 189.269 287.573 189.3 287.542 189.324C287.518 189.347 287.495 189.371 287.471 189.394C287.448 189.418 287.416 189.449 287.393 189.465C287.205 189.637 287.008 189.786 286.789 189.92C286.773 189.928 286.765 189.935 286.75 189.943C286.734 189.951 286.718 189.959 286.702 189.967C286.655 189.998 286.6 190.03 286.553 190.053C286.467 190.108 286.373 190.147 286.287 190.194C286.24 190.218 286.193 190.241 286.145 190.265C286.114 190.281 286.083 190.288 286.051 190.304C286.012 190.32 285.973 190.335 285.942 190.351C285.934 190.351 285.934 190.351 285.926 190.359C285.894 190.367 285.863 190.383 285.832 190.39C285.816 190.39 285.8 190.398 285.785 190.406C285.761 190.414 285.73 190.43 285.706 190.437C285.69 190.437 285.675 190.445 285.659 190.453C285.604 190.469 285.541 190.485 285.486 190.5C285.4 190.524 285.322 190.547 285.235 190.563L168.996 216.514C168.91 216.53 168.832 216.546 168.745 216.561C168.69 216.569 168.628 216.577 168.565 216.593C168.502 216.601 168.431 216.608 168.369 216.616C168.33 216.624 168.29 216.624 168.251 216.624C168.157 216.632 168.063 216.632 167.969 216.632C167.937 216.632 167.914 216.632 167.89 216.632C167.788 216.632 167.686 216.632 167.584 216.616C167.521 216.608 167.467 216.608 167.412 216.601C167.137 216.569 166.862 216.514 166.604 216.444C166.541 216.42 166.47 216.404 166.407 216.381C166.337 216.357 166.258 216.326 166.188 216.302C165.756 216.13 165.348 215.902 164.98 215.612C164.893 215.549 164.807 215.479 164.729 215.4C164.454 215.157 164.211 214.882 163.999 214.577C163.952 214.506 163.905 214.427 163.858 214.357C163.811 214.286 163.772 214.208 163.724 214.129C163.685 214.051 163.638 213.972 163.607 213.894C163.568 213.816 163.536 213.745 163.505 213.666C163.497 213.659 163.497 213.643 163.489 213.627C163.458 213.557 163.434 213.478 163.403 213.4C163.395 213.4 163.395 213.392 163.395 213.384C163.371 213.321 163.356 213.266 163.34 213.211C163.301 213.094 163.269 212.976 163.246 212.858L148.56 147.063C148.435 146.498 148.411 145.933 148.482 145.392C148.592 144.529 148.937 143.721 149.462 143.046C149.47 143.038 149.478 143.03 149.486 143.015L149.69 142.771C150.333 142.057 151.204 141.524 152.216 141.296L268.432 115.337C268.549 115.314 268.659 115.29 268.769 115.275C268.785 115.267 268.808 115.267 268.832 115.267C268.941 115.251 269.051 115.235 269.161 115.228C269.185 115.228 269.216 115.228 269.24 115.22C269.334 115.212 269.428 115.212 269.522 115.22C269.545 115.22 269.569 115.22 269.593 115.22C269.71 115.22 269.82 115.228 269.938 115.235C270.048 115.243 270.157 115.259 270.259 115.275C270.408 115.298 270.557 115.33 270.699 115.369C270.777 115.384 270.863 115.408 270.934 115.432C271.075 115.471 271.209 115.526 271.334 115.581C271.334 115.573 271.334 115.581 271.334 115.581L271.617 115.714C271.632 115.722 271.64 115.722 271.656 115.73C271.734 115.761 271.797 115.808 271.868 115.847C271.923 115.879 271.97 115.91 272.025 115.941C272.181 116.036 272.33 116.145 272.48 116.263C272.55 116.318 272.613 116.373 272.668 116.428C272.927 116.655 273.162 116.906 273.366 117.197C273.421 117.275 273.476 117.354 273.531 117.432L273.539 117.44C273.625 117.565 273.695 117.707 273.766 117.84C273.797 117.911 273.829 117.973 273.86 118.044C273.884 118.099 273.907 118.146 273.931 118.209C273.954 118.264 273.978 118.319 273.994 118.373C274.017 118.436 274.041 118.507 274.064 118.577C274.088 118.632 274.103 118.695 274.111 118.75C274.15 118.828 274.174 118.915 274.19 118.993Z" fill="#F9C067"/>
<path d="M273.554 117.448L148.466 145.376C148.576 144.513 148.921 143.705 149.446 143.03C149.454 143.022 149.462 143.014 149.47 142.999L149.674 142.756L197.803 85.8244C199.215 84.1456 201.576 83.62 203.569 84.5379L271.342 115.588C271.342 115.58 271.342 115.588 271.342 115.588L271.624 115.722C271.64 115.73 271.648 115.73 271.664 115.737C271.742 115.769 271.805 115.816 271.875 115.855C271.93 115.886 271.977 115.918 272.032 115.949C272.189 116.043 272.338 116.153 272.487 116.271C272.558 116.326 272.621 116.381 272.676 116.436C272.934 116.663 273.17 116.914 273.374 117.204C273.429 117.283 273.484 117.361 273.539 117.44C273.546 117.44 273.554 117.448 273.554 117.448Z" fill="#A36017"/>
<path d="M275.782 164.87L166.627 189.244L144.512 90.2015C143.476 85.5495 146.403 80.9366 151.055 79.8932L243.359 59.2845C248.011 58.2489 252.624 61.1751 253.667 65.8272L275.782 164.87Z" fill="white"/>
<path d="M245.43 96.9956L165.223 114.906C164.101 115.157 162.971 114.443 162.72 113.321L162.524 112.45C162.273 111.328 162.987 110.199 164.109 109.948L244.324 92.0376C245.445 91.7865 246.575 92.5004 246.826 93.6223L247.022 94.4931C247.265 95.6149 246.552 96.7446 245.43 96.9956Z" fill="#E4ECF9"/>
<path d="M247.791 107.579L167.584 125.489C166.462 125.74 165.332 125.026 165.081 123.904L164.885 123.033C164.634 121.911 165.348 120.782 166.47 120.531L246.677 102.621C247.799 102.37 248.929 103.083 249.18 104.205L249.376 105.076C249.627 106.206 248.913 107.328 247.791 107.579Z" fill="#E4ECF9"/>
<path d="M250.152 118.161L169.945 136.071C168.823 136.322 167.694 135.608 167.443 134.487L167.247 133.616C166.996 132.494 167.709 131.364 168.831 131.113L249.038 113.203C250.16 112.952 251.29 113.666 251.541 114.788L251.737 115.659C251.988 116.788 251.274 117.91 250.152 118.161Z" fill="#E4ECF9"/>
<path d="M252.514 128.752L172.307 146.654C171.185 146.905 170.055 146.191 169.804 145.07L169.608 144.199C169.357 143.077 170.071 141.947 171.193 141.696L251.4 123.786C252.522 123.535 253.651 124.249 253.902 125.371L254.098 126.242C254.357 127.371 253.643 128.501 252.514 128.752Z" fill="#E4ECF9"/>
<path d="M254.883 139.335L174.676 157.245C173.554 157.496 172.424 156.782 172.173 155.66L171.977 154.79C171.726 153.668 172.44 152.538 173.562 152.287L253.769 134.377C254.891 134.126 256.02 134.84 256.271 135.962L256.468 136.832C256.719 137.962 256.005 139.084 254.883 139.335Z" fill="#E4ECF9"/>
<path d="M195.936 88.0054L160.955 95.819C159.833 96.07 158.704 95.3561 158.452 94.2343L158.256 93.3635C158.005 92.2417 158.719 91.112 159.841 90.8609L194.822 83.0474C195.944 82.7963 197.073 83.5102 197.324 84.632L197.52 85.5028C197.772 86.6247 197.058 87.7543 195.936 88.0054Z" fill="#A5C0DA"/>
<path d="M219.109 167.679C218.968 167.922 218.795 168.149 218.584 168.361L169.246 216.435L168.988 216.49C168.509 216.6 168.038 216.631 167.575 216.592C167.513 216.584 167.442 216.584 167.387 216.577C166.579 216.482 165.81 216.184 165.159 215.721C165.096 215.682 165.034 215.635 164.971 215.58C164.791 215.439 164.618 215.282 164.453 215.117C164.398 215.062 164.351 215.008 164.296 214.945C164.249 214.882 164.194 214.827 164.147 214.764C163.716 214.215 163.394 213.564 163.229 212.827L148.544 147.031C148.418 146.466 148.394 145.901 148.465 145.36C148.575 144.497 148.92 143.689 149.446 143.014C149.454 143.006 149.461 142.998 149.469 142.983L149.673 142.74C150.317 142.026 151.187 141.492 152.199 141.265L153.274 141.021L158.993 142.998L211.68 161.23L213.665 161.913L217.446 163.223C217.728 163.317 217.987 163.458 218.215 163.615C219.494 164.549 219.886 166.322 219.109 167.679Z" fill="#FF8D73"/>
<path d="M274.19 118.993L288.875 184.789C288.891 184.868 288.907 184.954 288.922 185.032C288.93 185.071 288.938 185.111 288.938 185.15C288.946 185.181 288.954 185.221 288.954 185.26C288.954 185.275 288.954 185.291 288.962 185.307C288.962 185.338 288.962 185.362 288.969 185.385C288.977 185.44 288.977 185.503 288.985 185.566C288.993 185.621 288.993 185.683 288.993 185.738C288.993 185.746 288.993 185.762 288.993 185.77C288.993 185.785 288.993 185.809 288.993 185.825C289.001 185.84 289.001 185.864 288.993 185.887C288.993 185.919 288.993 185.942 288.993 185.974C288.993 186.029 288.993 186.076 288.985 186.131C288.985 186.138 288.985 186.154 288.985 186.162C288.977 186.248 288.969 186.342 288.962 186.429C288.962 186.429 288.962 186.437 288.962 186.444C288.954 186.491 288.954 186.531 288.946 186.578C288.946 186.617 288.938 186.648 288.93 186.695C288.93 186.703 288.93 186.719 288.922 186.727C288.899 186.837 288.875 186.954 288.844 187.064C288.836 187.096 288.828 187.143 288.813 187.182C288.805 187.221 288.789 187.252 288.781 187.292C288.766 187.323 288.758 187.362 288.742 187.401C288.718 187.472 288.687 187.551 288.664 187.621C288.648 187.668 288.624 187.707 288.616 187.754C288.569 187.856 288.522 187.951 288.475 188.045C288.436 188.115 288.405 188.186 288.365 188.249C288.326 188.319 288.287 188.382 288.248 188.445C288.232 188.476 288.209 188.508 288.185 188.539C288.169 188.57 288.146 188.594 288.13 188.617C288.107 188.649 288.083 188.68 288.059 188.719C288.052 188.727 288.044 188.735 288.036 188.751C287.981 188.829 287.918 188.908 287.855 188.986C287.848 188.994 287.84 189.002 287.84 189.01C287.785 189.065 287.738 189.127 287.683 189.182C287.667 189.206 287.652 189.221 287.628 189.237C287.597 189.269 287.573 189.3 287.542 189.323C287.518 189.347 287.495 189.371 287.471 189.394C287.448 189.418 287.416 189.449 287.393 189.465C287.204 189.637 287.008 189.786 286.789 189.92C286.773 189.928 286.757 189.935 286.749 189.943C286.734 189.951 286.718 189.959 286.702 189.967C286.655 189.998 286.6 190.03 286.553 190.053C286.467 190.108 286.373 190.147 286.287 190.194C286.239 190.218 286.192 190.241 286.145 190.265C286.114 190.281 286.083 190.288 286.051 190.304C286.012 190.32 285.973 190.335 285.941 190.351H285.933C285.902 190.359 285.871 190.375 285.839 190.39C285.824 190.39 285.808 190.398 285.792 190.406C285.769 190.414 285.737 190.422 285.714 190.437C285.698 190.437 285.682 190.445 285.667 190.453C285.612 190.469 285.549 190.485 285.494 190.5C285.408 190.524 285.329 190.547 285.243 190.563L284.984 190.618L219.887 168.087C219.604 167.993 219.345 167.852 219.126 167.695C217.839 166.793 217.439 165.028 218.223 163.663C218.357 163.427 218.537 163.192 218.749 162.988L221.613 160.195L223.111 158.728L263.042 119.817L267.372 115.596L268.447 115.353C268.565 115.33 268.675 115.306 268.784 115.29C268.8 115.282 268.824 115.282 268.847 115.282C268.957 115.267 269.067 115.251 269.177 115.243C269.2 115.243 269.232 115.243 269.255 115.235C269.349 115.228 269.443 115.228 269.537 115.235C269.561 115.235 269.585 115.235 269.608 115.235C269.726 115.235 269.836 115.243 269.953 115.251C270.063 115.259 270.173 115.275 270.275 115.29C270.424 115.314 270.573 115.345 270.714 115.384C270.793 115.4 270.879 115.424 270.95 115.447C271.091 115.486 271.224 115.541 271.35 115.596C271.35 115.588 271.35 115.596 271.35 115.596L271.632 115.73C271.648 115.737 271.656 115.737 271.671 115.745C271.75 115.777 271.813 115.824 271.883 115.863C271.938 115.894 271.985 115.926 272.04 115.957C272.197 116.051 272.346 116.161 272.495 116.279C272.566 116.334 272.628 116.389 272.683 116.444C272.942 116.671 273.178 116.922 273.382 117.212C273.436 117.291 273.491 117.369 273.546 117.448L273.554 117.456C273.64 117.581 273.711 117.722 273.782 117.856C273.813 117.926 273.844 117.989 273.876 118.06C273.899 118.114 273.923 118.162 273.946 118.224C273.97 118.279 273.993 118.334 274.009 118.389C274.033 118.452 274.056 118.522 274.08 118.593C274.103 118.648 274.119 118.711 274.127 118.766C274.15 118.828 274.174 118.915 274.19 118.993Z" fill="#FF8D73"/>
<path opacity="0.29" d="M288.687 183.895L288.836 184.577C289.44 187.292 287.824 189.959 285.228 190.539L168.989 216.491C166.392 217.071 163.787 215.345 163.183 212.631L163.034 211.948L214.034 159.261C215.619 157.622 217.98 157.096 220.106 157.904L288.687 183.895Z" fill="#474747"/>
<path d="M288.734 184.13L288.883 184.789C289.464 187.385 287.824 189.966 285.228 190.547L168.988 216.498C166.392 217.079 163.811 215.439 163.23 212.842L163.081 212.183L214.45 161.152C216.043 159.567 218.412 159.041 220.522 159.795L288.734 184.13Z" fill="#FFA691"/>
<path d="M140.794 122.813C140.778 122.813 140.762 122.813 140.747 122.813C139.201 122.719 137.703 122.507 136.299 122.185C135.859 122.083 135.585 121.644 135.687 121.205C135.789 120.766 136.228 120.491 136.667 120.593C137.985 120.899 139.397 121.095 140.849 121.189C141.304 121.213 141.641 121.605 141.617 122.052C141.586 122.476 141.225 122.813 140.794 122.813ZM145.156 122.766C144.732 122.766 144.371 122.436 144.34 122.013C144.308 121.566 144.646 121.166 145.093 121.134C146.473 121.024 147.893 120.828 149.321 120.554C149.776 120.467 150.192 120.758 150.286 121.197C150.372 121.644 150.082 122.068 149.643 122.162C148.16 122.452 146.67 122.656 145.226 122.774C145.195 122.766 145.179 122.766 145.156 122.766ZM153.707 121.103C153.354 121.103 153.032 120.875 152.922 120.522C152.789 120.091 153.032 119.636 153.463 119.502C154.805 119.087 156.162 118.592 157.488 118.035C157.911 117.863 158.382 118.059 158.563 118.475C158.735 118.891 158.539 119.369 158.123 119.542C156.743 120.122 155.338 120.632 153.95 121.056C153.863 121.087 153.785 121.103 153.707 121.103ZM132.352 120.805C132.235 120.805 132.117 120.781 132.007 120.726C130.58 120.067 129.277 119.251 128.14 118.31C127.795 118.02 127.74 117.51 128.03 117.157C128.32 116.812 128.83 116.757 129.183 117.047C130.219 117.902 131.395 118.632 132.698 119.236C133.106 119.424 133.286 119.91 133.098 120.318C132.957 120.632 132.658 120.805 132.352 120.805ZM125.731 115.282C125.472 115.282 125.214 115.156 125.057 114.929C124.492 114.105 123.966 113.211 123.519 112.301C123.315 112.356 123.095 112.332 122.899 112.222C121.668 111.524 120.42 110.653 119.204 109.649C118.859 109.359 118.804 108.849 119.094 108.496C119.385 108.151 119.895 108.096 120.248 108.386C121.126 109.116 122.021 109.759 122.907 110.316C122.986 110.12 123.142 109.955 123.362 109.869C123.778 109.696 124.256 109.9 124.429 110.324C124.947 111.595 125.629 112.866 126.414 114.003C126.673 114.372 126.579 114.882 126.202 115.141C126.053 115.235 125.896 115.282 125.731 115.282ZM130.015 114.38C129.089 114.38 128.116 114.246 127.112 113.987C126.673 113.878 126.414 113.43 126.524 112.991C126.633 112.552 127.081 112.293 127.52 112.403C128.94 112.771 130.281 112.834 131.474 112.599C131.921 112.513 132.345 112.803 132.439 113.242C132.525 113.689 132.235 114.113 131.795 114.207C131.231 114.317 130.627 114.38 130.015 114.38ZM135.522 112.316C135.287 112.316 135.043 112.214 134.886 112.011C134.604 111.657 134.659 111.148 135.012 110.857C136.071 110.002 136.965 108.943 137.616 107.782C137.836 107.39 138.338 107.249 138.73 107.468C139.123 107.688 139.264 108.19 139.044 108.582C138.299 109.924 137.263 111.148 136.04 112.136C135.883 112.254 135.702 112.316 135.522 112.316ZM122.554 107.241C122.146 107.241 121.793 106.935 121.746 106.519C121.683 105.97 121.644 105.421 121.644 104.887C121.644 103.852 121.77 102.84 122.013 101.89C122.123 101.451 122.57 101.192 123.009 101.302C123.448 101.412 123.707 101.859 123.597 102.298C123.386 103.122 123.284 103.993 123.284 104.887C123.284 105.358 123.315 105.844 123.37 106.331C123.425 106.778 123.103 107.186 122.656 107.241C122.617 107.241 122.585 107.241 122.554 107.241ZM116.568 106.833C116.349 106.833 116.129 106.747 115.964 106.566C114.96 105.476 114.011 104.307 113.148 103.099C112.889 102.73 112.968 102.22 113.336 101.953C113.705 101.687 114.215 101.773 114.482 102.142C115.305 103.295 116.207 104.409 117.172 105.452C117.478 105.782 117.455 106.299 117.125 106.605C116.968 106.762 116.764 106.833 116.568 106.833ZM139.531 104.848C139.523 104.848 139.507 104.848 139.499 104.848C139.044 104.832 138.699 104.448 138.715 104.001C138.723 103.907 138.723 103.812 138.723 103.718C138.723 103.554 138.715 103.389 138.707 103.216C138.636 102.212 138.354 101.153 137.883 100.157C137.695 99.7488 137.868 99.2624 138.275 99.0663C138.683 98.878 139.17 99.0506 139.366 99.4585C139.923 100.643 140.26 101.898 140.339 103.106C140.354 103.31 140.362 103.514 140.362 103.718C140.362 103.836 140.362 103.954 140.354 104.064C140.331 104.503 139.962 104.848 139.531 104.848ZM111.516 99.7409C111.226 99.7409 110.944 99.584 110.794 99.3095C110.167 98.1249 109.633 96.9403 109.21 95.7714C109.139 95.5753 109.069 95.3791 109.006 95.183C108.865 94.7515 109.092 94.2887 109.524 94.1475C109.955 94.0063 110.418 94.2338 110.559 94.6652C110.622 94.8457 110.685 95.0261 110.747 95.2065C111.147 96.3048 111.65 97.4267 112.246 98.5407C112.458 98.9408 112.309 99.435 111.908 99.6468C111.775 99.7096 111.642 99.7409 111.516 99.7409ZM124.704 99.0035C124.531 99.0035 124.366 98.9486 124.217 98.8466C123.856 98.5799 123.778 98.07 124.045 97.7012C125.049 96.3441 126.249 95.2536 127.512 94.5554C127.904 94.3357 128.406 94.4848 128.626 94.877C128.846 95.2693 128.697 95.7714 128.304 95.991C127.238 96.5794 126.226 97.5051 125.363 98.674C125.206 98.8937 124.955 99.0035 124.704 99.0035ZM136 97.1678C135.812 97.1678 135.624 97.105 135.467 96.9717C134.4 96.0616 133.2 95.4811 131.992 95.3007C131.544 95.2301 131.239 94.8143 131.301 94.3671C131.372 93.92 131.788 93.614 132.235 93.6768C133.749 93.9043 135.232 94.6103 136.526 95.7243C136.871 96.0146 136.91 96.5323 136.612 96.8775C136.463 97.0658 136.236 97.1678 136 97.1678ZM108.739 91.5116C108.339 91.5116 107.994 91.2213 107.931 90.8133C107.719 89.4326 107.609 88.0048 107.609 86.5692V86.3339C107.609 85.8867 107.978 85.5258 108.425 85.5258H108.433C108.888 85.5258 109.249 85.9024 109.241 86.3495V86.5692C109.241 87.9186 109.343 89.2679 109.539 90.5623C109.61 91.0095 109.304 91.4253 108.857 91.4959C108.825 91.5037 108.778 91.5116 108.739 91.5116ZM108.786 82.8115C108.747 82.8115 108.7 82.8115 108.661 82.8036C108.213 82.733 107.907 82.3172 107.978 81.8701C108.198 80.4344 108.519 78.9674 108.935 77.5083C109.061 77.0768 109.516 76.8257 109.947 76.9434C110.379 77.0689 110.63 77.5239 110.512 77.9554C110.112 79.344 109.806 80.7404 109.594 82.1133C109.531 82.5212 109.186 82.8115 108.786 82.8115ZM111.163 74.4409C111.061 74.4409 110.951 74.4173 110.849 74.3781C110.434 74.2055 110.23 73.727 110.402 73.3112C110.959 71.9697 111.602 70.6203 112.316 69.2945C112.528 68.8944 113.022 68.7454 113.423 68.9651C113.823 69.1769 113.972 69.6789 113.752 70.0712C113.069 71.3421 112.45 72.6444 111.916 73.9309C111.791 74.2447 111.485 74.4409 111.163 74.4409ZM115.29 66.7606C115.133 66.7606 114.976 66.7135 114.835 66.6272C114.458 66.3762 114.356 65.8663 114.607 65.4897C115.415 64.2738 116.294 63.0735 117.219 61.9046C117.502 61.5515 118.012 61.4888 118.373 61.7712C118.726 62.0536 118.788 62.5714 118.506 62.9244C117.612 64.0541 116.757 65.2151 115.98 66.3919C115.815 66.6351 115.549 66.7606 115.29 66.7606ZM120.711 59.9355C120.507 59.9355 120.31 59.8649 120.154 59.7158C119.824 59.4099 119.808 58.8921 120.114 58.5626C120.852 57.7781 121.628 56.9858 122.421 56.2248C122.75 55.911 123.268 55.9267 123.574 56.2483C123.888 56.5778 123.872 57.0956 123.55 57.4015C122.774 58.139 122.021 58.9078 121.307 59.6687C121.15 59.8413 120.93 59.9355 120.711 59.9355Z" fill="#5E5A5C"/>
<path opacity="0.1" d="M164.234 40.4169L102 37.9614L114.803 51.7137L111.453 72.3382L126.037 63.7558L132.242 70.377L164.234 40.4169Z" fill="#232323"/>
<path d="M112.229 69.8827L117.117 39.7501L165.011 37.9614L112.229 69.8827Z" fill="#E27056"/>
<path d="M115.658 49.3527C115.909 49.2743 165.011 37.9696 165.011 37.9696L102.769 35.5142L115.658 49.3527Z" fill="#FF9A82"/>
<path d="M120.035 54.0674L112.229 69.8829L136.4 55.6521L120.035 54.0674Z" fill="#FF7556"/>
<path d="M120.036 54.0672L133.02 67.9214L165.011 37.9614L120.036 54.0672Z" fill="#FF9A82"/>
<path d="M271.724 82.2372C286.788 67.1732 286.788 42.7497 271.724 27.6857C256.66 12.6217 232.236 12.6217 217.172 27.6857C202.108 42.7497 202.108 67.1732 217.172 82.2372C232.236 97.3012 256.66 97.3012 271.724 82.2372Z" fill="white"/>
<path d="M249.574 87.6624C270.878 87.6624 288.148 70.3922 288.148 49.0883C288.148 27.7844 270.878 10.5142 249.574 10.5142C228.27 10.5142 211 27.7844 211 49.0883C211 70.3922 228.27 87.6624 249.574 87.6624Z" fill="url(#paint1_linear_1_3308)"/>
<path d="M264.611 63.6797C264.611 64.2995 264.578 64.8307 264.512 65.2734C264.445 65.694 264.346 66.0371 264.213 66.3027C264.102 66.5462 263.969 66.7233 263.814 66.834C263.66 66.9447 263.482 67 263.283 67H239.576C239.399 67 239.233 66.9447 239.078 66.834C238.923 66.7233 238.779 66.5462 238.646 66.3027C238.536 66.0371 238.447 65.694 238.381 65.2734C238.314 64.8307 238.281 64.2995 238.281 63.6797C238.281 63.0378 238.303 62.5065 238.348 62.0859C238.414 61.6432 238.503 61.2891 238.613 61.0234C238.746 60.7578 238.89 60.5697 239.045 60.459C239.2 60.3262 239.377 60.2598 239.576 60.2598H247.578V32.3027L240.672 36.1211C240.163 36.3646 239.742 36.5195 239.41 36.5859C239.1 36.6302 238.846 36.5638 238.646 36.3867C238.469 36.1875 238.348 35.8555 238.281 35.3906C238.215 34.9258 238.182 34.2728 238.182 33.4316C238.182 32.9004 238.193 32.4688 238.215 32.1367C238.237 31.7826 238.292 31.4837 238.381 31.2402C238.469 30.9967 238.591 30.7975 238.746 30.6426C238.901 30.4876 239.111 30.3216 239.377 30.1445L248.607 24.168C248.718 24.0794 248.851 24.013 249.006 23.9688C249.183 23.9023 249.404 23.8581 249.67 23.8359C249.936 23.7917 250.279 23.7695 250.699 23.7695C251.142 23.7474 251.706 23.7363 252.393 23.7363C253.234 23.7363 253.909 23.7585 254.418 23.8027C254.949 23.8249 255.348 23.8802 255.613 23.9688C255.879 24.0352 256.056 24.1348 256.145 24.2676C256.233 24.4004 256.277 24.5664 256.277 24.7656V60.2598H263.283C263.482 60.2598 263.66 60.3262 263.814 60.459C263.992 60.5697 264.135 60.7578 264.246 61.0234C264.379 61.2891 264.467 61.6432 264.512 62.0859C264.578 62.5065 264.611 63.0378 264.611 63.6797Z" fill="white"/>
<g clip-path="url(#clip0_1_3308)">
<path d="M96.3164 187.802L98.6373 201.609L114.303 295.861H116.79L105.434 201.609L103.776 187.802H96.3164Z" fill="#DBDBDB"/>
<path d="M103.776 187.802H96.3164L98.6373 201.609H105.434L103.776 187.802Z" fill="#A6A6A6"/>
<path d="M47.0801 295.861H49.5667L65.2326 201.609L67.5534 187.802H60.1764L58.4357 201.609L47.0801 295.861Z" fill="#DBDBDB"/>
<path d="M60.1762 187.802L58.4355 201.609H65.2324L67.5532 187.802H60.1762Z" fill="#A6A6A6"/>
<path d="M0 295.861H2.56953L18.2354 201.609L20.5563 187.802H13.0963L11.4386 201.609L0 295.861Z" fill="#DBDBDB"/>
<path d="M11.4385 201.609H18.2353L20.5562 187.802H13.0962L11.4385 201.609Z" fill="#A6A6A6"/>
<path d="M3.97852 194.25H118.944V182.18H75.9254L61.42 98.2622H8.37159L3.97852 194.25Z" fill="#DBDBDB"/>
<path d="M3.97852 194.25H10.278L14.3395 98.2622H8.37159L3.97852 194.25Z" fill="#A6A6A6"/>
<path d="M118.695 297.183C116.623 297.349 60.0105 283.872 58.2699 282.053C58.0212 281.888 59.1817 276.679 60.8394 269.735V269.569C61.8341 265.105 78.4117 229.223 78.4117 229.223L115.131 239.475L98.3877 272.794C98.3877 272.794 105.267 277.754 111.235 282.467C114.882 285.36 118.032 288.006 118.695 288.833C120.353 291.065 120.768 297.018 118.695 297.183Z" fill="#D3766A"/>
<path d="M118.695 297.183C116.623 297.349 60.0105 283.872 58.2699 282.054C58.0212 281.805 59.1817 276.68 60.8394 269.735V269.569C61.2539 267.916 63.7405 261.88 66.8074 255.018C72.8582 256.672 94.492 262.459 102.366 264.939L98.3877 272.794C98.3877 272.794 105.267 277.754 111.235 282.467C114.882 285.361 118.032 288.006 118.695 288.833C120.353 291.065 120.768 297.018 118.695 297.183Z" fill="white"/>
<path d="M118.861 297.514C116.706 297.679 60.0936 284.038 58.2701 282.136C57.607 281.392 58.8503 272.545 61.9172 263.038L98.388 271.884C98.388 271.884 117.038 286.601 118.778 288.916C120.602 291.231 121.016 297.266 118.861 297.514Z" fill="#FF7556"/>
<path d="M118.612 295.034C109.163 292.471 70.8687 283.211 61.3366 281.475C61.2537 281.475 61.2537 281.475 61.3366 281.557C70.6201 284.286 108.997 293.215 118.612 295.282C118.778 295.199 118.778 295.034 118.612 295.034Z" fill="#263238"/>
<path d="M115.711 286.022C113.473 285.361 110.986 285.939 109.494 286.932C108.002 287.924 106.593 289.495 106.179 291.479C106.179 291.561 106.262 291.561 106.262 291.479C107.671 287.924 111.898 285.443 115.711 286.105C115.711 286.105 115.794 286.022 115.711 286.022Z" fill="#263238"/>
<path d="M101.206 273.537C97.3933 272.545 92.6687 272.876 89.6019 275.356C89.519 275.439 89.6019 275.604 89.7676 275.604C93.6634 274.695 97.2276 274.116 101.206 274.033C101.455 274.033 101.455 273.62 101.206 273.537Z" fill="#263238"/>
<path d="M103.859 275.439C100.046 274.447 95.3211 274.778 92.2542 277.258C92.1713 277.341 92.2542 277.506 92.42 277.506C96.3157 276.597 99.8799 276.018 103.859 275.935C104.107 275.853 104.107 275.439 103.859 275.439Z" fill="#263238"/>
<path d="M106.511 277.258C102.698 276.266 97.9734 276.597 94.9065 279.077C94.8237 279.16 94.9065 279.325 95.0723 279.325C98.9681 278.416 102.532 277.837 106.511 277.754C106.76 277.754 106.76 277.341 106.511 277.258Z" fill="#263238"/>
<path d="M109.163 279.077C105.35 278.085 100.626 278.415 97.5589 280.896C97.476 280.978 97.5589 281.144 97.7247 281.144C101.62 280.234 105.185 279.656 109.163 279.573C109.412 279.573 109.412 279.16 109.163 279.077Z" fill="#263238"/>
<path d="M65.895 273.042C61.6677 272.049 60.0099 278.664 64.3201 279.656C68.6303 280.648 70.2051 274.034 65.895 273.042Z" fill="#263238"/>
<path d="M107.754 264.443C106.179 262.376 103.443 263.368 101.869 264.691C99.299 266.924 97.0611 270.313 96.0664 273.538C96.0664 273.62 96.0664 273.703 96.1493 273.703C96.1493 274.034 96.398 274.282 96.7295 274.199C99.8793 272.959 103.443 272.049 106.096 269.9C107.671 268.66 109.163 266.345 107.754 264.443ZM101.123 271.388C99.5477 272.05 98.0557 272.546 96.4808 273.29C97.6413 271.553 98.6359 269.817 99.9622 268.164C100.625 267.42 101.205 266.593 101.951 265.931C103.112 264.857 107.588 262.624 106.925 266.841C106.676 269.156 102.946 270.644 101.123 271.388Z" fill="#263238"/>
<path d="M86.2027 272.711C89.3524 274.034 92.9995 273.868 96.3979 274.199C96.7295 274.199 96.8952 273.868 96.8123 273.538C96.8952 273.538 96.8952 273.455 96.8952 273.372C94.9888 270.561 91.9219 267.916 88.8551 266.51C86.9486 265.683 83.9647 265.518 83.0529 267.916C82.224 270.148 84.3791 271.967 86.2027 272.711ZM84.462 269.982C82.6385 266.097 87.6118 267.006 89.0209 267.75C89.9326 268.164 90.7615 268.742 91.5904 269.321C93.331 270.479 94.823 271.884 96.3979 273.207C94.7401 272.959 93.0824 272.876 91.4246 272.711C89.4353 272.463 85.4567 272.132 84.462 269.982Z" fill="#263238"/>
<path d="M102.45 269.735L63.1609 257.994C63.1609 257.994 95.5702 190.612 94.5755 187.223C93.9124 184.908 45.34 184.742 31.0832 172.01C16.3291 158.782 27.8506 132.904 27.8506 132.904L68.7144 132.656C68.7144 132.656 68.0513 141.172 69.5433 142.494C70.538 143.404 126.405 148.282 137.097 168.786C146.712 187.388 102.45 269.735 102.45 269.735Z" fill="#5E5A5C"/>
<path d="M94.5755 187.223C94.7412 187.801 93.9952 190.199 92.5033 193.837L121.846 229.801C132.29 205.99 142.153 178.542 137.014 168.786C126.322 148.282 70.455 143.404 69.4604 142.494C67.8855 141.172 68.6315 132.656 68.6315 132.656L42.6875 132.821L85.7893 185.569C91.0113 186.231 94.4097 186.644 94.5755 187.223Z" fill="#263238"/>
<path d="M103.444 261.466C102.449 260.97 101.289 260.64 100.211 260.309C99.0511 259.895 97.9735 259.565 96.8131 259.151C94.5751 258.407 92.3371 257.746 90.0163 257.084C85.4574 255.762 80.8986 254.521 76.2568 253.364C73.8531 252.785 68.714 251.462 68.3824 251.462C68.2167 251.462 68.2167 251.71 68.2996 251.793C72.7755 253.364 77.2515 254.769 81.7274 256.092C86.2034 257.498 90.7622 258.821 95.3211 259.978C96.5644 260.309 97.8906 260.557 99.1339 260.888C100.46 261.218 101.786 261.632 103.195 261.714C103.444 261.797 103.61 261.549 103.444 261.466Z" fill="#455A64"/>
<path d="M30.0057 140.675C30.1715 139.352 30.2544 137.947 30.4201 136.624C30.4201 136.459 30.6688 136.459 30.6688 136.624C30.0886 142.163 29.5913 147.785 30.5859 153.242C31.4977 158.368 34.0672 162.833 37.8801 166.388C46.0031 173.911 57.2759 176.144 67.8856 177.963C73.9364 178.955 79.9873 179.782 86.121 180.36C89.105 180.691 92.0889 180.856 95.0729 181.104C98.0569 181.27 101.041 181.352 104.025 181.518C104.937 181.6 105.765 182.014 105.683 183.089C105.6 183.75 105.268 184.329 104.937 184.99C104.605 185.734 104.273 186.396 103.942 187.14C102.781 189.868 101.538 192.514 100.378 195.242C97.8911 200.782 95.4044 206.321 92.8349 211.778C87.7787 222.691 82.4739 233.522 77.0033 244.27C76.3402 245.593 75.6771 246.915 74.9311 248.238C74.8482 248.321 74.7653 248.238 74.7653 248.156C79.9873 237.242 85.1263 226.411 90.1825 215.415C92.6691 209.959 95.2387 204.585 97.7253 199.128C98.9686 196.4 100.212 193.671 101.455 190.943C102.036 189.62 102.699 188.215 103.279 186.892C103.61 186.23 103.859 185.486 104.191 184.825C104.439 184.246 105.351 182.923 104.771 182.345C104.356 182.014 103.445 182.096 102.947 182.096C102.118 182.096 101.372 182.014 100.544 182.014C99.0515 181.931 97.5595 181.931 96.0676 181.848C93.0007 181.683 90.0167 181.518 86.9499 181.187C80.9819 180.691 75.0969 179.947 69.2118 178.955C58.685 177.301 47.3293 175.4 38.9576 168.372C35.2277 165.313 32.3266 161.262 30.9175 156.632C29.3426 151.506 29.5084 145.967 30.0057 140.675Z" fill="#979294"/>
<path d="M205.066 245.593C203.574 247.081 151.354 272.628 148.785 272.38C148.453 272.38 146.049 267.667 142.817 261.301L142.734 261.136C140.662 257.085 122.095 222.856 122.095 222.856L154.587 206.486L173.651 239.805C173.651 239.805 182.189 239.227 189.731 239.144C194.373 239.061 198.518 239.061 199.512 239.309C202.413 239.805 206.475 244.104 205.066 245.593Z" fill="#D3766A"/>
<path d="M205.066 245.593C203.574 247.081 151.355 272.628 148.785 272.38C148.454 272.38 146.05 267.668 142.9 261.301L142.817 261.136C142.651 260.888 142.569 260.557 142.403 260.309C142.32 260.061 142.154 259.896 142.071 259.731C141.905 259.4 141.74 259.152 141.574 258.821C140.165 256.175 137.844 251.794 135.274 247.081L168.43 230.463L173.817 239.888C173.817 239.888 182.355 239.309 189.898 239.227C194.539 239.144 198.684 239.144 199.679 239.392C202.414 239.805 206.558 244.105 205.066 245.593Z" fill="white"/>
<path d="M205.314 245.676C203.822 247.164 151.437 272.711 148.784 272.38C147.79 272.298 143.065 264.609 139.418 255.349L173.236 238.979C173.236 238.979 197.025 238.483 199.843 239.144C202.662 239.723 206.889 244.188 205.314 245.676Z" fill="#FF7556"/>
<path d="M203.573 243.939C194.704 247.99 159.228 265.187 150.773 269.9C150.69 269.9 150.69 269.982 150.773 269.982C159.642 266.179 194.952 248.652 203.656 244.104C203.822 244.022 203.739 243.856 203.573 243.939Z" fill="#263238"/>
<path d="M195.616 238.813C193.461 239.722 191.969 241.707 191.389 243.526C190.891 245.262 190.726 247.411 191.72 249.148C191.72 249.23 191.803 249.148 191.803 249.065C190.643 245.427 192.3 240.88 195.616 238.896C195.699 238.896 195.616 238.813 195.616 238.813Z" fill="#263238"/>
<path d="M176.468 238.482C172.904 240.136 169.423 243.36 168.677 247.329C168.677 247.494 168.843 247.494 168.925 247.411C171.329 244.27 173.733 241.541 176.717 238.896C176.883 238.73 176.717 238.4 176.468 238.482Z" fill="#263238"/>
<path d="M179.702 238.234C176.137 239.888 172.656 243.112 171.91 247.081C171.91 247.246 172.076 247.246 172.159 247.163C174.563 244.022 176.966 241.293 179.95 238.648C180.116 238.482 179.95 238.152 179.702 238.234Z" fill="#263238"/>
<path d="M182.934 237.986C179.37 239.64 175.889 242.864 175.143 246.833C175.143 246.998 175.308 246.998 175.391 246.916C177.795 243.774 180.199 241.045 183.183 238.4C183.348 238.152 183.183 237.821 182.934 237.986Z" fill="#263238"/>
<path d="M186.083 237.738C182.519 239.392 179.038 242.616 178.292 246.585C178.292 246.75 178.458 246.75 178.541 246.668C180.944 243.526 183.348 240.797 186.332 238.152C186.581 237.904 186.415 237.573 186.083 237.738Z" fill="#263238"/>
<path d="M148.95 260.475C145.054 262.376 148.038 268.494 151.934 266.593C155.912 264.691 152.845 258.573 148.95 260.475Z" fill="#263238"/>
<path d="M175.639 227.321C173.153 226.742 171.578 229.223 171.246 231.29C170.666 234.597 171.163 238.731 172.407 241.79C172.407 241.872 172.489 241.872 172.572 241.872C172.738 242.12 173.153 242.12 173.318 241.872C174.976 238.896 177.131 236.002 177.794 232.613C178.292 230.628 178.043 227.9 175.639 227.321ZM174.976 236.829C174.23 238.317 173.318 239.723 172.655 241.211C172.407 239.144 172.075 237.16 172.075 235.093C172.075 234.101 172.075 233.109 172.241 232.116C172.407 230.546 174.479 225.998 176.634 229.636C177.877 231.62 175.888 235.093 174.976 236.829Z" fill="#263238"/>
<path d="M164.367 247.329C167.683 246.337 170.418 243.939 173.153 241.955C173.402 241.789 173.319 241.376 173.07 241.211C173.07 241.128 173.07 241.045 172.987 241.045C169.755 240.053 165.693 239.971 162.378 240.88C160.388 241.459 157.985 243.195 158.814 245.593C159.725 247.908 162.461 247.99 164.367 247.329ZM161.3 246.419C157.487 244.6 161.88 242.12 163.372 241.789C164.367 241.541 165.362 241.459 166.356 241.376C168.429 241.211 170.501 241.293 172.573 241.376C171.164 242.203 169.838 243.195 168.429 244.104C166.688 245.179 163.372 247.412 161.3 246.419Z" fill="#263238"/>
<path d="M173.568 234.349L134.362 253.861C134.362 253.861 103.776 191.853 100.461 187.802C95.9847 182.51 37.7143 190.034 23.9549 172.754C9.78104 154.979 21.8827 132.821 21.8827 132.821H66.2279C66.2279 132.821 66.3936 137.699 63.8241 144.892C63.8241 144.892 114.552 141.916 128.891 155.806C139.915 166.554 173.568 234.349 173.568 234.349Z" fill="#5E5A5C"/>
<path d="M55.7843 149.439C58.1052 147.868 60.4261 146.463 62.8298 145.14C64.0731 144.479 66.5598 143.404 68.1347 142.991C69.4609 142.66 69.9582 142.577 68.7978 143.156C68.1347 143.487 66.8085 144.148 65.5651 144.727C65.8138 144.727 66.0625 144.727 66.2282 144.727C67.14 144.644 67.9689 144.644 68.8807 144.644C70.6213 144.561 72.2791 144.644 74.0197 144.561C77.501 144.561 80.8994 144.892 84.3807 145.057C84.4636 145.057 84.4636 145.223 84.3807 145.223C80.8994 145.14 77.501 145.305 74.0197 145.305C72.2791 145.305 70.6213 145.388 68.8807 145.388C68.0518 145.388 67.2229 145.388 66.394 145.471C65.7309 145.471 64.9849 145.554 64.2389 145.471C63.9074 145.636 63.4929 145.802 63.3272 145.884C60.8405 147.042 58.3539 148.282 55.8672 149.687C55.7843 149.605 55.7014 149.522 55.7843 149.439Z" fill="#455A64"/>
<path d="M67.3058 131.25C66.8914 133.317 66.4769 135.467 65.9796 137.534C65.7309 138.443 65.4823 139.435 65.1507 140.345C64.902 141.089 64.4876 141.998 63.5758 142.246C62.5812 142.494 62.2496 141.585 62.2496 140.758C62.3325 139.849 62.4983 138.857 62.6641 137.947C62.8298 136.872 62.9956 135.798 63.1614 134.723C63.2443 134.144 63.3272 133.648 63.4101 133.069C63.4101 132.904 63.4929 131.912 63.5758 131.581C63.5758 131.581 63.5758 131.664 63.6587 131.664C63.6587 131.664 63.7416 131.664 63.7416 131.581C63.7416 131.498 63.7416 131.498 63.6587 131.416H63.5758C63.4101 131.498 63.4101 131.829 63.3272 131.994C63.1614 132.49 62.9956 133.069 62.9127 133.565C62.6641 134.557 62.4154 135.55 62.1667 136.542C61.9181 137.534 61.7523 138.526 61.5036 139.601C61.3379 140.345 61.1721 141.172 61.4207 141.916C61.6694 142.742 62.3325 143.156 63.0785 143.156C63.0785 143.238 62.9956 143.321 62.9956 143.321C62.9127 143.487 62.8298 143.735 62.747 143.983C62.6641 144.231 62.5812 144.396 62.5812 144.644C62.5812 144.727 62.5812 144.892 62.4983 144.975C62.4983 145.057 62.4983 145.223 62.4983 145.305C62.4983 145.471 62.747 145.636 62.8298 145.388C62.9127 145.305 62.9956 145.223 62.9956 145.057C63.0785 144.975 63.0785 144.809 63.1614 144.727C63.2443 144.479 63.2443 144.313 63.3272 144.065C63.4101 143.817 63.4101 143.652 63.4929 143.404C63.4929 143.238 63.4929 143.156 63.4929 142.99C63.9074 142.908 64.3218 142.742 64.6534 142.494C65.2336 141.998 65.5651 141.254 65.8138 140.593C66.0625 139.683 66.3111 138.857 66.5598 137.947C67.0571 135.715 67.5545 133.483 67.6373 131.25C67.7202 131.085 67.3887 131.002 67.3058 131.25Z" fill="#455A64"/>
<path d="M45.9208 137.203C45.7551 138.195 45.6722 139.27 45.5064 140.345C45.3406 141.337 45.092 142.329 44.7604 143.321C44.5117 144.231 44.0973 145.223 43.6 146.05C43.1026 146.876 42.3566 147.538 41.6935 148.199C40.2844 149.439 38.6267 150.349 36.886 151.093C35.9743 151.424 35.1454 151.754 34.2336 152.002C33.7363 152.085 33.2389 152.25 32.8245 152.333C32.4101 152.416 31.9956 152.416 31.6641 152.664C31.4983 152.746 31.5812 152.995 31.6641 153.077C32.3272 153.325 33.1561 153.16 33.8192 153.077C34.5652 152.995 35.394 152.829 36.14 152.581C37.632 152.168 39.124 151.424 40.4502 150.597C41.7764 149.77 43.0198 148.778 44.0144 147.538C45.0091 146.298 45.5064 144.809 45.838 143.239C46.2524 141.337 46.4182 139.353 46.2524 137.451C46.1695 137.12 46.0037 137.12 45.9208 137.203Z" fill="#455A64"/>
<path d="M165.611 227.238C164.533 227.569 163.456 228.065 162.461 228.561C161.383 229.057 160.306 229.553 159.228 230.049C157.073 231.042 155.001 232.116 152.929 233.191C148.702 235.341 144.557 237.573 140.413 239.888C138.258 241.128 133.616 243.609 133.367 243.857C133.284 243.939 133.45 244.187 133.533 244.105C137.843 242.203 142.071 240.136 146.298 237.987C150.525 235.92 154.752 233.77 158.814 231.538C159.974 230.876 161.052 230.215 162.212 229.553C163.373 228.892 164.699 228.231 165.777 227.404C165.859 227.487 165.777 227.156 165.611 227.238Z" fill="#979294"/>
<path d="M21.9657 143.238C21.9657 143.073 22.2973 143.073 22.2973 143.238C22.2144 152.829 23.7064 163.577 31.0834 170.439C39.2064 177.963 50.9765 178.872 61.5033 178.789C67.5542 178.707 73.605 178.624 79.6558 178.789C85.7067 178.955 91.9233 179.286 97.8912 180.03C100.295 180.36 102.367 181.187 104.108 183.006C105.766 184.742 107.009 186.892 108.252 188.876C111.319 193.919 114.22 198.963 117.121 204.171C122.758 214.423 128.063 224.841 132.87 235.506C133.45 236.829 134.03 238.152 134.611 239.474C134.611 239.557 134.528 239.64 134.445 239.557C129.555 228.892 124.25 218.392 118.613 208.057C115.795 202.931 112.894 197.805 109.91 192.679C108.501 190.282 107.092 187.884 105.517 185.569C104.108 183.585 102.367 181.683 99.9634 180.939C98.4714 180.526 96.9795 180.443 95.4875 180.278C93.9126 180.112 92.4206 180.03 90.8457 179.864C87.8618 179.616 84.7949 179.451 81.8109 179.368C75.6772 179.12 69.6264 179.203 63.4927 179.368C52.883 179.534 41.2786 179.203 32.4925 172.423C28.6796 169.53 25.9443 165.561 24.2866 161.014C22.6288 156.467 22.0486 151.506 21.8828 146.711C21.9657 145.636 21.9657 144.478 21.9657 143.238Z" fill="#979294"/>
<path d="M85.4579 185.321C87.613 185.321 89.7681 185.487 91.9232 185.487C93.7467 185.569 95.5702 185.569 97.3109 185.983C98.9687 186.396 100.212 186.561 101.621 188.38C103.279 190.695 112.397 208.223 116.209 215.995C117.287 218.144 118.282 220.294 119.359 222.443C120.437 224.676 121.348 226.991 122.426 229.223C122.426 229.306 122.343 229.388 122.26 229.306C121.348 227.404 120.271 225.585 119.276 223.766C118.282 221.865 117.37 220.046 116.458 218.144C114.552 214.341 112.645 210.538 110.739 206.817C108.832 203.097 106.511 199.376 104.605 195.656C103.03 192.514 100.792 188.215 99.2173 187.636C97.3938 186.892 94.4927 186.148 92.5034 185.983C90.0996 185.817 87.6959 185.652 85.375 185.487C85.375 185.487 85.375 185.321 85.4579 185.321Z" fill="#455A64"/>
<path d="M49.2356 47.9945C41.1954 54.8567 43.4334 64.778 40.1179 70.2347C38.0457 73.5418 31.4146 77.0142 30.0884 80.8174C27.9333 87.1008 33.2381 89.3331 32.0777 92.7229C30.4199 97.5182 23.9547 97.1875 22.7113 105.042C21.5509 112.896 30.2542 121.329 50.8933 123.561C71.5325 125.876 82.8881 118.27 83.6341 111.573C84.3801 104.876 77.5004 102.644 77.0031 97.6835C76.6715 94.4591 80.9817 92.2268 81.1475 86.3567C81.3961 80.4867 75.594 78.5851 74.7651 73.5418C73.9362 68.4985 76.5886 56.4276 69.2116 50.2268C62.0003 44.1087 53.2142 44.6048 49.2356 47.9945Z" fill="#263238"/>
<path d="M50.2302 48.1601C47.9923 49.731 46.2516 51.7979 44.9254 54.2782C43.5992 56.8412 42.6874 59.5695 41.9414 62.3806C41.527 64.0341 41.1125 65.6877 40.3666 67.2585C39.7034 68.5814 38.7088 69.6562 37.6312 70.6483C35.3933 72.6325 32.7408 74.2034 30.7515 76.4357C28.8451 78.5853 27.3531 81.479 28.0991 84.3727C28.5136 85.9436 29.5911 87.2664 30.2542 88.7546C30.8344 90.1601 31.0831 91.8963 29.9226 93.0538C28.928 94.0459 27.3531 94.542 26.1927 95.3688C25.0322 96.1955 24.0376 97.1877 23.2087 98.2625C21.4681 100.577 20.805 103.388 21.3023 106.199C22.3798 112.566 28.4307 116.203 33.9842 118.518C34.7302 118.849 35.559 119.18 36.305 119.428C36.3879 119.51 36.5537 119.262 36.3879 119.262C30.8344 116.782 24.2863 113.806 22.1312 107.605C21.1365 104.794 21.4681 101.818 23.1258 99.3373C23.8718 98.0971 24.9494 97.105 26.1098 96.2782C27.2702 95.4514 28.5135 94.9554 29.674 94.1286C30.8344 93.3018 31.4975 92.1444 31.4146 90.7388C31.3317 89.2507 30.5858 87.9278 29.8398 86.605C29.0938 85.2821 28.4307 83.8766 28.5136 82.3058C28.5964 80.8176 29.3424 79.4121 30.1713 78.1719C31.912 75.6916 34.4815 74.1207 36.8024 72.2192C39.1232 70.3176 40.9468 68.168 41.8585 65.2743C42.273 63.7861 42.5216 62.2979 42.9361 60.8097C43.2676 59.4042 43.6821 58.0814 44.1794 56.7585C45.1741 54.1129 46.5003 51.5499 48.5725 49.5656C49.0698 49.0695 49.65 48.5735 50.3131 48.1601C50.3131 48.2428 50.2302 48.0774 50.2302 48.1601Z" fill="#263238"/>
<path d="M84.6288 106.778C84.3802 105.703 83.8828 104.628 83.2197 103.801C82.4737 102.892 81.6448 102.148 80.816 101.321C80.07 100.494 79.324 99.6676 79.1582 98.5101C78.9095 97.1873 79.4069 95.9471 80.07 94.7897C80.7331 93.6322 81.4791 92.4747 81.8935 91.2345C82.3908 89.9944 82.6395 88.6716 82.6395 87.4314C82.8053 84.703 81.9764 82.0574 80.5673 79.7424C79.8213 78.5849 79.0753 77.5101 78.3293 76.3527C77.5833 75.1125 76.9202 73.7897 76.5058 72.3842C75.594 69.2424 75.3453 66.018 74.5994 62.8763C73.8534 59.6519 72.6929 56.5101 71.2838 53.5338C71.2838 53.4511 71.1181 53.5338 71.2009 53.6164C72.4443 56.3448 73.4389 59.1558 74.102 62.0495C74.7651 64.7779 75.0138 67.5889 75.5111 70.3999C75.7598 71.8054 76.0913 73.1282 76.5887 74.4511C77.086 75.6912 77.6662 76.766 78.4122 77.9235C79.8213 80.1558 81.2304 82.4708 81.6448 85.1164C82.0593 87.7621 81.562 90.4905 80.3186 92.8054C79.2411 94.8723 77.7491 97.1046 78.6609 99.5023C79.4898 101.569 81.3962 102.727 82.7224 104.463C84.1315 106.282 84.5459 108.679 84.1315 110.994C83.0539 116.782 77.2518 119.593 71.7812 119.924C71.6154 119.924 71.6154 120.172 71.7812 120.172C76.5058 120.089 81.6448 118.022 83.8828 113.64C84.7946 111.408 85.1262 109.01 84.6288 106.778Z" fill="#263238"/>
<path d="M52.7994 89.664C54.7887 97.7664 67.7193 126.042 72.2781 129.101C77.583 132.656 105.765 146.794 111.07 145.14C112.893 144.562 120.768 124.967 117.203 123.396C106.428 118.766 86.1204 115.211 83.2194 112.731C81.3129 111.077 69.8744 97.6837 59.3476 86.4396C55.369 82.2231 51.4732 84.4554 52.7994 89.664Z" fill="#F5A891"/>
<path d="M51.3079 89.1679C52.3026 94.4592 56.8614 104.38 56.8614 104.38L76.5888 101.073C76.5888 101.073 65.2331 88.0104 56.8614 83.3805C53.5459 81.5616 50.3133 83.7939 51.3079 89.1679Z" fill="#FFC727"/>
<path d="M51.3079 89.1679C52.3026 94.4592 56.8614 104.38 56.8614 104.38L76.5888 101.073C76.5888 101.073 65.2331 88.0104 56.8614 83.3805C53.5459 81.5616 50.3133 83.7939 51.3079 89.1679Z" fill="#83AFF7"/>
<path d="M57.442 94.0458C57.442 94.8726 56.7789 95.534 55.95 95.534C55.1211 95.534 54.458 94.8726 54.458 94.0458C54.458 93.219 55.1211 92.5576 55.95 92.5576C56.7789 92.5576 57.442 93.219 57.442 94.0458Z" fill="white"/>
<path d="M56.5299 101.652C59.431 100.991 62.3321 100.329 65.3161 99.8333C66.8081 99.5852 68.2172 99.3372 69.7092 99.1718C71.2011 98.9238 72.6931 98.9238 74.1022 98.6758C74.1851 98.6758 74.1851 98.7585 74.1022 98.8411C72.6102 99.0065 71.2011 99.3372 69.7092 99.5852C68.2172 99.8333 66.8081 100.081 65.3161 100.329C62.415 100.825 59.431 101.321 56.5299 101.9C56.4471 101.818 56.4471 101.652 56.5299 101.652Z" fill="#263238"/>
<path opacity="0.1" d="M72.1955 101.818L56.8612 104.381C56.8612 104.381 52.3024 94.4593 51.3077 89.1679C50.8104 86.4396 51.3906 84.538 52.551 83.5459L72.1955 101.818Z" fill="black"/>
<path d="M68.0514 140.51L14.3398 142.247C14.3398 142.247 30.6688 95.6167 42.4389 84.4553C47.8267 79.412 52.7171 80.4868 56.6957 84.2073C57.6903 85.1167 69.6262 102.314 70.3722 108.101C71.0353 113.227 66.5594 118.518 66.5594 118.518L68.0514 140.51Z" fill="#83AFF7"/>
<path d="M29.3424 108.349C29.3424 109.176 28.6793 109.837 27.8504 109.837C27.6846 109.837 27.6017 109.837 27.4359 109.754C27.8504 108.845 28.2648 107.936 28.6793 107.026C29.0937 107.357 29.3424 107.77 29.3424 108.349ZM46.5831 106.778C45.7542 106.778 45.0911 107.44 45.0911 108.266C45.0911 109.093 45.7542 109.754 46.5831 109.754C47.412 109.754 48.0751 109.093 48.0751 108.266C48.0751 107.522 47.412 106.778 46.5831 106.778ZM65.3158 106.778C64.487 106.778 63.8238 107.44 63.8238 108.266C63.8238 109.093 64.487 109.754 65.3158 109.754C66.1447 109.754 66.8078 109.093 66.8078 108.266C66.8078 107.522 66.1447 106.778 65.3158 106.778ZM37.2167 92.5576C36.3879 92.5576 35.7248 93.219 35.7248 94.0458C35.7248 94.8726 36.3879 95.534 37.2167 95.534C38.0456 95.534 38.7087 94.8726 38.7087 94.0458C38.7087 93.219 38.0456 92.5576 37.2167 92.5576ZM55.9495 92.5576C55.1206 92.5576 54.4575 93.219 54.4575 94.0458C54.4575 94.8726 55.1206 95.534 55.9495 95.534C56.7784 95.534 57.4415 94.8726 57.4415 94.0458C57.4415 93.219 56.7784 92.5576 55.9495 92.5576ZM27.8504 136.046C27.0215 136.046 26.3584 136.707 26.3584 137.534C26.3584 138.361 27.0215 139.022 27.8504 139.022C28.6793 139.022 29.3424 138.361 29.3424 137.534C29.3424 136.707 28.6793 136.046 27.8504 136.046ZM46.5831 136.046C45.7542 136.046 45.0911 136.707 45.0911 137.534C45.0911 138.361 45.7542 139.022 46.5831 139.022C47.412 139.022 48.0751 138.361 48.0751 137.534C48.0751 136.707 47.412 136.046 46.5831 136.046ZM65.3158 136.046C64.487 136.046 63.8238 136.707 63.8238 137.534C63.8238 138.361 64.487 139.022 65.3158 139.022C66.1447 139.022 66.8078 138.361 66.8078 137.534C66.8078 136.707 66.1447 136.046 65.3158 136.046ZM37.2167 121.743C36.3879 121.743 35.7248 122.404 35.7248 123.231C35.7248 124.058 36.3879 124.719 37.2167 124.719C38.0456 124.719 38.7087 124.058 38.7087 123.231C38.7087 122.404 38.0456 121.743 37.2167 121.743ZM55.9495 121.743C55.1206 121.743 54.4575 122.404 54.4575 123.231C54.4575 124.058 55.1206 124.719 55.9495 124.719C56.7784 124.719 57.4415 124.058 57.4415 123.231C57.4415 122.404 56.7784 121.743 55.9495 121.743Z" fill="white"/>
<path d="M63.2443 118.436C62.1668 118.27 61.0892 118.27 60.0117 118.353C59.5144 118.436 59.017 118.436 58.4368 118.518C57.8566 118.601 57.2764 118.767 56.7791 118.932C56.6962 118.932 56.6962 119.097 56.8619 119.097C57.4422 119.015 58.0224 118.932 58.6026 118.932C59.0999 118.932 59.5972 118.849 60.1775 118.767C61.0892 118.684 62.1668 118.601 63.2443 118.436C63.3272 118.436 63.3272 118.518 63.2443 118.436Z" fill="#263238"/>
<path d="M63.7415 116.203C61.3378 116.286 58.934 116.617 56.6132 117.361C54.2094 118.022 51.8056 119.014 49.319 119.262C49.2361 119.262 49.2361 119.428 49.319 119.428C50.5623 119.262 51.7228 119.18 52.8832 119.014C54.0436 118.849 55.2869 118.518 56.4474 118.27C58.934 117.691 61.2549 116.782 63.8244 116.451C63.8244 116.369 63.8244 116.12 63.7415 116.203Z" fill="#263238"/>
<path d="M47.5781 82.7188C47.5781 83.7109 50.4792 90.7385 54.7065 91.5652C56.1156 91.8133 57.9391 84.3723 57.9391 84.3723L58.1878 83.8763L61.8349 76.6007L54.2092 68.4983L53.0487 67.3408C53.0487 67.3408 52.137 69.4077 51.1423 71.9707C51.0594 72.0534 51.0594 72.2188 50.9765 72.3015C50.8936 72.4668 50.8108 72.5495 50.8108 72.7148C50.645 73.1282 50.4792 73.4589 50.3134 73.8723C50.2305 74.203 50.0648 74.4511 49.9819 74.7818C49.899 75.1125 49.7332 75.4432 49.6503 75.6912C48.4899 78.9983 47.5781 82.3054 47.5781 82.7188Z" fill="#F5A891"/>
<path d="M51.1426 71.9707C51.8057 78.6676 56.1159 82.3881 58.1881 83.7936L61.8352 76.518L54.2094 68.4156L53.049 67.3408C53.049 67.3408 52.2201 69.4078 51.1426 71.9707Z" fill="#E48F75"/>
<path d="M76.1752 68.0852C73.2741 82.1404 64.488 81.975 61.504 81.3963C58.7687 80.8175 49.4023 78.5026 50.8943 64.2821C52.3034 49.9789 59.7634 46.9199 66.1458 47.912C72.5281 48.8215 79.0763 54.0301 76.1752 68.0852Z" fill="#F5A891"/>
<path d="M70.7041 78.9986C71.2843 78.5025 71.8645 77.9238 72.279 77.2624C72.7763 76.6836 73.1907 75.9396 73.5223 75.2781C74.2683 73.8726 74.8485 72.4671 75.2629 70.9789C75.7603 69.4907 76.0089 67.9199 76.3405 66.4317L76.672 64.1167L76.9207 61.8018V64.1994L76.672 66.5144C76.4234 68.0852 76.1747 69.6561 75.6774 71.1443C75.1801 72.6325 74.5998 74.1207 73.771 75.5262C72.9421 76.7663 71.9474 78.0892 70.7041 78.9986Z" fill="#263238"/>
<path d="M75.0144 63.951C74.6828 63.8684 74.4342 63.703 74.1026 63.5377C73.7711 63.3723 73.4395 63.2896 73.2737 62.9589C73.1908 62.7936 73.2737 62.4628 73.4395 62.3802C73.8539 62.1321 74.2684 62.2148 74.7657 62.3802C75.263 62.5455 75.5117 62.8762 75.7604 63.2896C75.9261 63.6203 75.4288 64.1164 75.0144 63.951Z" fill="#263238"/>
<path d="M65.1511 63.0416C65.4827 63.0416 65.8143 63.0416 66.1458 63.0416C66.5603 63.0416 66.8089 63.1243 67.1405 62.8762C67.3062 62.7936 67.3891 62.4628 67.3062 62.2975C67.0576 61.8841 66.6431 61.7188 66.1458 61.7188C65.6485 61.7188 65.234 61.8014 64.8196 62.1321C64.4052 62.3802 64.6538 62.9589 65.1511 63.0416Z" fill="#263238"/>
<path d="M66.5602 66.9272C66.5602 66.9272 66.4773 66.9272 66.4773 67.0099C66.3116 68.002 65.98 69.0768 64.9854 69.1595V69.2422C66.0629 69.3249 66.5602 67.9194 66.5602 66.9272Z" fill="#263238"/>
<path d="M65.8967 65.7698C64.4047 65.3564 63.6587 68.4154 65.0678 68.8288C66.394 69.1595 67.14 66.1005 65.8967 65.7698Z" fill="#263238"/>
<path d="M65.2339 65.77C64.9024 65.8527 64.5708 66.1007 64.2393 66.1007C63.8248 66.018 63.659 65.6873 63.4933 65.2739H63.4104C63.2446 65.8527 63.3275 66.5141 63.9077 66.7621C64.4879 67.0101 64.9853 66.5968 65.3168 66.018C65.3997 65.9353 65.3997 65.77 65.2339 65.77Z" fill="#263238"/>
<path d="M71.8654 68.085L71.9483 68.1676C71.6997 69.0771 71.5339 70.2346 72.2799 70.7306V70.8133C71.2852 70.3999 71.451 68.9117 71.8654 68.085Z" fill="#263238"/>
<path d="M73.0261 67.2581C74.601 67.5061 73.9379 70.6478 72.4459 70.3998C71.0368 70.1518 71.6999 67.01 73.0261 67.2581Z" fill="#263238"/>
<path d="M73.6061 67.5889C73.8548 67.837 74.0205 68.1677 74.2692 68.2504C74.6007 68.333 74.9323 68.085 75.181 67.7543C75.181 67.7543 75.2638 67.7543 75.181 67.837C75.0981 68.4157 74.7665 68.9945 74.1863 68.9945C73.6061 68.9945 73.3574 68.4157 73.3574 67.7543C73.3574 67.6716 73.5232 67.5063 73.6061 67.5889Z" fill="#263238"/>
<path d="M64.4882 74.6992C64.6539 74.9473 64.8197 75.3606 65.1513 75.4433C65.4828 75.526 65.8973 75.526 66.2288 75.526C66.2288 75.526 66.3117 75.526 66.2288 75.6087C65.8973 75.8567 65.317 75.9394 64.9026 75.774C64.4882 75.6087 64.4053 75.1126 64.4053 74.6992C64.4053 74.6992 64.4882 74.6992 64.4882 74.6992Z" fill="#263238"/>
<path d="M69.2956 72.2185C69.2956 72.2185 69.1299 73.7067 68.9641 74.3681C68.9641 74.4508 68.7983 74.4508 68.5496 74.3681C67.3063 74.2854 66.2288 73.624 65.7314 72.4665C65.7314 72.3838 65.8143 72.3012 65.8143 72.3839C66.5603 73.2106 67.4721 73.624 68.5496 73.872C68.6325 73.7067 68.7154 71.3917 68.7983 71.3917C69.2127 71.4744 69.8758 71.8878 70.2074 72.0531C70.539 68.9941 70.4561 65.935 70.8705 62.876C70.8705 62.7933 71.0363 62.7933 71.0363 62.876C71.3678 66.1004 71.0363 69.5728 70.7047 72.7972C70.7876 73.2106 69.5443 72.3839 69.2956 72.2185Z" fill="#263238"/>
<path d="M51.7229 65.5221C53.2978 65.6875 58.0224 62.1323 59.4315 54.6914C59.4315 54.6914 57.6908 61.2229 57.0277 62.1323C56.3646 63.0418 59.6801 60.1481 60.8406 54.1953C60.8406 54.1953 63.7417 57.1717 66.477 58.4119C69.2123 59.652 70.9529 59.9827 71.1187 59.8174C71.3674 59.652 67.3887 57.6678 66.477 56.1796C66.477 56.1796 73.4396 60.9749 76.838 61.8016C77.2524 61.8843 79.076 53.6993 74.3513 49.3174C69.5438 44.9355 60.4261 47.2504 57.7737 49.0693C57.7737 49.0693 55.0384 48.9867 51.3913 52.4591C47.8271 55.9315 49.9822 65.3567 51.7229 65.5221Z" fill="#263238"/>
<path d="M62.8298 70.9791C60.9234 70.3177 59.6801 68.4161 59.8458 66.3492C60.0945 63.8689 62.2496 62.05 64.7362 62.298C67.2229 62.5461 69.0464 64.6957 68.7978 67.176C68.5491 69.6563 66.394 71.4752 63.9074 71.2272C63.4929 71.2272 63.1614 71.1445 62.8298 70.9791ZM65.5651 63.0421C65.3165 62.9594 64.9849 62.8768 64.6534 62.8768C62.4983 62.7114 60.5918 64.2823 60.4261 66.4319C60.2603 68.5815 61.8352 70.4831 63.9902 70.6484C66.1453 70.8138 68.0518 69.2429 68.2175 67.0933C68.3004 65.2744 67.2229 63.6209 65.5651 63.0421Z" fill="#FFC727"/>
<path d="M72.9422 73.2112C71.2845 72.6324 70.4556 70.4828 70.9529 68.1679C71.2016 67.0104 71.7818 66.0183 72.6107 65.2742C73.4396 64.5301 74.3513 64.282 75.2631 64.4474C76.1749 64.6128 76.9209 65.2742 77.3353 66.2663C77.7497 67.2584 77.8326 68.4159 77.584 69.5734C77.0037 71.971 75.0973 73.6246 73.3567 73.2112C73.108 73.2112 73.0251 73.2112 72.9422 73.2112ZM75.2631 65.1088C75.1802 65.1088 75.0973 65.0261 75.0144 65.0261C74.3513 64.8608 73.5224 65.1088 72.8593 65.6876C72.1962 66.2663 71.6989 67.1758 71.4502 68.2506C70.9529 70.3175 71.7818 72.3017 73.2738 72.6324C74.7658 72.9632 76.3406 71.5576 76.838 69.408C77.0866 68.3332 77.0037 67.3411 76.6722 66.5143C76.3406 65.8529 75.8433 65.3569 75.2631 65.1088Z" fill="#FFC727"/>
<path d="M68.5485 67.5889L68.2998 67.0929C69.1287 66.6795 70.7864 66.2661 71.6153 67.6716L71.118 68.0023C70.2891 66.6795 68.6314 67.5889 68.5485 67.5889Z" fill="#FFC727"/>
<path d="M48.6555 64.3647L48.1582 63.9513C48.324 63.7033 49.9817 61.8844 51.308 61.9671C52.5513 62.0498 60.3428 64.5301 60.6743 64.6128L60.5085 65.1915C58.2706 64.4474 52.3026 62.6285 51.308 62.5458C50.3962 62.4632 49.07 63.8687 48.6555 64.3647Z" fill="#FFC727"/>
<path d="M49.7334 69.4081C49.8992 69.5734 50.1479 69.6561 50.3136 69.7388C50.5623 69.8215 50.7281 69.9041 50.9767 69.9868C51.3083 70.0695 51.557 70.0695 51.8885 69.9868C52.1372 69.9041 52.3858 69.8215 52.5516 69.7388C53.0489 69.4908 53.2976 69.1601 53.2976 69.1601L53.6292 65.2742C53.6292 65.2742 51.8885 60.0656 49.6505 60.5616C47.3297 60.975 47.7441 67.8372 49.7334 69.4081Z" fill="#F5A891"/>
<path d="M49.7334 62.4634C51.1425 63.6209 51.5569 65.3571 51.6398 67.0933C51.3083 66.3492 50.8109 65.8531 49.8163 66.1838C49.7334 66.1838 49.8163 66.2665 49.8163 66.2665C50.4794 66.3492 50.9767 66.5972 51.2254 67.2587C51.3912 67.7547 51.474 68.2508 51.6398 68.7468C51.6398 68.9122 51.9714 68.9122 51.9714 68.7468C52.6345 66.5972 51.8885 63.2901 49.7334 62.4634Z" fill="#263238"/>
<path d="M50.1475 68.8292C50.1475 69.1599 50.3961 69.4906 50.7277 69.5733C51.0592 69.5733 51.3908 69.3253 51.4737 68.9946C51.4737 68.6639 51.225 68.3332 50.8935 68.2505C50.479 68.2505 50.1475 68.4985 50.1475 68.8292Z" fill="white"/>
<path d="M49.0703 67.5066C49.0703 67.7547 49.2361 68.0027 49.4848 68.0027C49.7334 68.0027 49.9821 67.8374 49.9821 67.5893C49.9821 67.3413 49.8163 67.0933 49.5676 67.0933C49.319 67.0933 49.1532 67.2586 49.0703 67.5066Z" fill="white"/>
<path d="M39.372 87.1007C33.404 92.6401 15.3344 114.384 15.4173 120.668C15.5002 130.176 48.7383 142.742 53.9603 145.884C56.1982 147.207 63.9897 124.14 61.6689 122.652C59.6795 121.412 37.134 115.79 37.2169 114.798C37.2169 113.971 42.1073 103.223 45.7543 90.0771C48.5725 79.8252 42.4388 84.207 39.372 87.1007Z" fill="#F5A891"/>
<path d="M69.7918 130.754C68.7142 129.68 69.2944 129.101 71.9469 129.514C74.5993 129.928 84.7945 133.648 85.7892 129.928C86.7838 126.29 72.3613 121.247 67.8853 120.916C63.4094 120.585 56.1152 121.743 56.1152 121.743C58.6848 123.231 64.6527 127.613 69.7918 130.754Z" fill="#F5A891"/>
<path d="M73.5224 129.762C75.0144 129.928 76.4235 130.258 77.9155 130.589C79.3246 130.92 80.8166 131.333 82.2257 131.416C82.9717 131.498 83.6348 131.498 84.2979 131.25C84.961 131.085 85.3754 130.506 85.5412 129.845C85.6241 129.266 85.2925 128.605 84.7952 128.109C84.2979 127.613 83.7177 127.117 83.1374 126.703C81.977 125.876 80.6508 125.215 79.3246 124.554C77.9984 123.892 76.6722 123.313 75.2631 122.9C73.854 122.404 72.4449 121.991 71.0358 121.577C69.6267 121.164 68.2176 120.75 66.7256 120.75C68.2176 120.585 69.7096 120.998 71.1187 121.246C72.5278 121.577 74.0197 121.991 75.4288 122.404C76.8379 122.817 78.247 123.396 79.5733 124.057C80.8995 124.719 82.2257 125.38 83.469 126.207C84.0492 126.62 84.7123 127.117 85.2097 127.695C85.707 128.274 86.2043 129.018 86.0385 129.928C85.8728 130.754 85.2097 131.498 84.4637 131.746C83.7177 131.994 82.8888 131.912 82.1428 131.829C79.1588 131.498 76.4235 130.341 73.5224 129.762Z" fill="#263238"/>
<path d="M106.677 144.479H51.4736V146.959H106.677V144.479Z" fill="#ECECEC"/>
<path d="M73.6877 144.479L71.7812 146.959H117.038V144.479H73.6877Z" fill="#A6A6A6"/>
<path d="M76.0088 146.959H129.886L134.362 110.499H80.4848L76.0088 146.959Z" fill="#ECECEC"/>
<path d="M101.953 128.77C101.953 130.589 103.362 132.077 105.186 132.077C107.009 132.077 108.501 130.589 108.501 128.77C108.501 126.951 107.092 125.463 105.269 125.463C103.445 125.463 101.953 126.951 101.953 128.77Z" fill="#FF9A82"/>
<path d="M46.832 142.081C54.5406 147.207 63.4926 151.755 73.1905 151.424C75.0969 151.341 76.1744 150.349 76.1744 150.349C80.4846 150.266 81.8108 148.199 81.8108 148.199C85.7895 146.877 86.867 144.644 86.867 144.644C86.867 144.644 91.9232 144.479 92.4205 141.42C92.9178 137.947 85.7066 138.857 81.3964 136.873C71.6156 132.408 58.9337 123.314 56.2813 121.743L46.832 142.081Z" fill="#F5A891"/>
<path d="M67.6373 139.353C70.5384 140.593 73.3566 141.916 76.4235 142.826C79.8219 143.735 83.2203 144.148 86.6187 144.562C86.7016 144.562 86.7016 144.727 86.6187 144.727C80.2363 144.892 73.0251 142.826 67.5544 139.518C67.4716 139.436 67.4716 139.27 67.6373 139.353Z" fill="#263238"/>
<path d="M64.073 144.892C66.974 145.967 72.1131 147.786 81.7281 148.117V148.199C75.4286 148.861 69.7094 147.703 64.073 145.058C63.8243 144.892 63.9072 144.81 64.073 144.892Z" fill="#263238"/>
<path d="M62.2496 147.869C67.2229 149.522 70.6213 149.936 76.092 150.349V150.432C69.7925 150.597 67.4716 149.936 62.1667 148.117C61.9181 147.951 62.001 147.786 62.2496 147.869Z" fill="#263238"/>
<path d="M22.7119 103.058L43.0195 105.29C43.0195 105.29 46.5837 95.6993 47.7441 90.0773C49.319 82.6363 46.9153 80.3214 39.4553 85.9434C34.482 89.5812 22.7119 103.058 22.7119 103.058Z" fill="#FFC727"/>
<path d="M22.7119 103.058L43.0195 105.29C43.0195 105.29 46.5837 95.6993 47.7441 90.0773C49.319 82.6363 46.9153 80.3214 39.4553 85.9434C34.482 89.5812 22.7119 103.058 22.7119 103.058Z" fill="#83AFF7"/>
<path d="M38.7096 94.0458C38.7096 94.8726 38.0465 95.534 37.2176 95.534C36.3887 95.534 35.7256 94.8726 35.7256 94.0458C35.7256 93.219 36.3887 92.5576 37.2176 92.5576C38.0465 92.5576 38.7096 93.219 38.7096 94.0458Z" fill="white"/>
<path d="M40.5322 104.959C40.7809 104.959 42.8531 105.125 43.0189 105.125C43.4333 103.967 43.7649 102.81 44.1793 101.735C44.3451 101.156 44.5937 100.577 44.8424 99.9987C45.0911 99.42 45.3397 98.6759 45.5055 98.0972C45.5055 98.0145 45.6713 98.0145 45.5884 98.0972C45.4226 98.8413 45.174 99.42 45.0082 99.9987C44.8424 100.577 44.6766 101.156 44.5109 101.735C44.0964 102.892 43.7649 104.215 43.2675 105.373C43.2675 105.538 40.7809 105.125 40.5322 104.959C40.5322 104.959 40.5322 105.042 40.5322 104.959Z" fill="#263238"/>
<path d="M25.8612 100.66C28.7623 100.743 31.5805 100.908 34.3987 101.239C35.8078 101.404 37.2169 101.57 38.626 101.735C40.0351 101.9 41.4442 102.231 42.8533 102.396C42.9362 102.396 42.9362 102.562 42.8533 102.479C41.4442 102.231 40.0351 102.231 38.5431 102.066C37.134 101.9 35.7249 101.735 34.3158 101.57C31.4976 101.322 28.5965 100.991 25.7783 100.743C25.7783 100.743 25.7783 100.66 25.8612 100.66Z" fill="#263238"/>
<path d="M34.8963 90.1599C34.9792 90.0772 34.8963 89.9945 34.8134 90.0772C33.9016 90.904 32.9899 91.6481 32.0781 92.4749C32.3267 92.0615 32.6583 91.7308 32.9898 91.4C32.9898 91.4 32.9898 91.3174 32.9898 91.4C32.4925 91.8134 32.0781 92.3095 31.7465 92.8882C30.5861 93.963 29.4257 95.1205 28.2652 96.278C26.193 98.4276 24.1208 100.577 22.3802 102.975C22.2973 103.14 22.3802 103.306 22.546 103.306C23.5406 103.388 24.5353 103.471 25.447 103.636C25.5299 103.636 25.6128 103.471 25.447 103.471C24.6182 103.388 23.7893 103.14 22.9604 102.892C24.9497 100.825 26.7732 98.6756 28.6797 96.6087C30.7519 94.3764 32.8241 92.2268 34.8963 90.1599Z" fill="#263238"/>
<path d="M133.533 116.699C135.522 119.841 140.578 123.479 141.241 126.124C141.822 128.522 139.915 129.68 139.915 129.68C139.915 129.68 142.816 130.672 143.065 133.235C143.148 134.557 141.159 135.88 141.159 135.88C141.159 135.88 143.479 136.79 143.479 139.022C143.562 140.841 141.49 141.916 141.49 141.916C141.49 141.916 143.314 143.817 142.733 145.636C141.656 149.357 126.239 151.424 123.089 146.05C121.597 143.569 125.41 143.239 125.41 143.239C125.41 143.239 119.856 142.329 119.359 139.187C118.862 136.046 123.835 135.963 123.835 135.963C123.835 135.963 118.447 135.054 118.281 131.746C118.116 128.274 123.006 129.018 123.006 129.018C123.006 129.018 119.276 127.117 119.691 124.554C120.437 120.337 129.223 124.802 132.455 123.561L133.533 116.699Z" fill="#F5A891"/>
<path d="M141.242 142.081C141.325 142.081 141.325 142.164 141.242 142.081C136.351 144.065 130.384 144.644 125.244 143.321C125.079 143.239 125.079 142.991 125.244 142.991C130.881 143.404 135.771 143.239 141.242 142.081Z" fill="#263238"/>
<path d="M141.241 135.88C141.324 135.88 141.324 135.963 141.241 135.963C136.185 137.865 129.471 138.361 123.752 136.128C123.586 136.046 123.42 135.798 123.669 135.88C127.565 137.121 136.351 136.955 141.241 135.88Z" fill="#263238"/>
<path d="M122.757 128.77C128.311 130.672 133.947 130.672 139.75 129.762C139.832 129.762 139.832 129.845 139.75 129.845C137.014 131.002 133.284 131.25 130.383 131.085C127.565 131.002 125.078 130.341 122.675 128.853C122.592 128.935 122.592 128.687 122.757 128.77Z" fill="#263238"/>
</g>
<defs>
<linearGradient id="paint0_linear_1_3308" x1="148.5" y1="15.5142" x2="148.5" y2="305.514" gradientUnits="userSpaceOnUse">
<stop stop-color="#D2E0F7"/>
<stop offset="1" stop-color="#A5C0DA"/>
</linearGradient>
<linearGradient id="paint1_linear_1_3308" x1="211" y1="10.5142" x2="293.147" y2="16.2651" gradientUnits="userSpaceOnUse">
<stop stop-color="#F87B7B"/>
<stop offset="1" stop-color="#C42A56"/>
</linearGradient>
<clipPath id="clip0_1_3308">
<rect width="205.645" height="252" fill="white" transform="translate(0 45.5142)"/>
</clipPath>
</defs>
</svg>
