<svg width="77" height="77" viewBox="0 0 77 77" fill="none" xmlns="http://www.w3.org/2000/svg">
<rect width="77" height="77" rx="38.5" fill="white"/>
<path d="M38.4996 50.5355C37.6383 50.5355 36.9414 49.8386 36.9414 48.9773V39.6282C36.9414 38.767 37.6383 38.0701 38.4996 38.0701C39.3608 38.0701 40.0578 38.767 40.0578 39.6282V48.9773C40.0578 49.8386 39.3608 50.5355 38.4996 50.5355Z" fill="#FABE2C"/>
<path d="M40.0582 48.981V39.6319C40.0582 38.7706 39.3613 38.0737 38.5 38.0737V50.5391C39.3613 50.5391 40.0582 49.8422 40.0582 48.981Z" fill="#FF9100"/>
<path d="M58.1356 39.5799C59.4624 39.5799 60.7406 39.1965 61.8667 38.4401C63.7261 37.1818 65.0196 34.8977 65.0713 32.5194C65.1292 31.3173 65.0713 30.0375 64.8948 28.6056C64.8431 28.1933 64.6331 27.819 64.3044 27.5648C63.9787 27.3107 63.5679 27.2102 63.1509 27.2498C61.5646 27.4539 59.9394 28.2085 58.5851 29.3896C58.5213 28.8751 58.4025 28.351 58.2945 27.833C59.8161 27.0921 60.9954 25.8931 61.6049 24.3876C62.4723 22.2998 62.1983 19.7252 60.8867 17.6694C60.1532 16.5145 59.3681 15.4585 58.5555 14.5318C57.9895 13.8836 57.0004 13.8197 56.3583 14.3857C54.9523 15.6168 54.0027 17.4032 53.6132 19.567C53.2875 21.501 53.4763 23.2935 54.1824 24.908C57.629 32.5144 54.7162 41.9088 47.691 46.2995C46.8145 46.8625 46.291 47.8197 46.291 48.9807C46.291 49.842 46.9636 50.5146 47.8249 50.5146C48.6861 50.5146 49.3588 49.7918 49.3588 48.9305C49.5185 48.8309 49.6707 48.7243 49.8266 48.6201C51.0721 49.7139 52.5877 50.3141 54.2189 50.3152H54.2706C58.1089 50.3152 60.5967 47.1807 62.1954 43.6945C62.5484 42.9292 62.2259 42.0237 61.4742 41.6494C60.0515 40.9431 58.4416 40.7371 56.5889 40.9632C56.8286 40.4882 57.0515 40.0032 57.2554 39.5059C57.5498 39.5429 57.845 39.5799 58.1356 39.5799Z" fill="#FF9100"/>
<path d="M28.7909 45.948C22.0069 41.1278 19.5075 32.3923 22.9143 24.7634L22.8983 24.7556C23.5511 23.1961 23.7299 21.4527 23.4103 19.5517C23.0269 17.4076 22.0804 15.6212 20.6684 14.3857C20.0232 13.8197 19.0372 13.8836 18.4711 14.5318C17.6586 15.4585 16.8734 16.5145 16.14 17.6679C14.8283 19.7266 14.5544 22.3028 15.4188 24.3707C16.0274 25.8861 17.2063 27.088 18.7257 27.8302C18.6196 28.3529 18.5214 28.8741 18.4572 29.404C17.0965 28.2129 15.4389 27.4544 13.848 27.2496C13.4433 27.2116 13.0233 27.3105 12.6945 27.5646C12.3658 27.8187 12.1528 28.1945 12.1041 28.6054C11.9306 30.0206 11.8728 31.3018 11.9245 32.4933C11.9915 34.9583 13.3309 37.2516 15.1782 38.4521C16.2585 39.1992 17.5367 39.5811 18.8758 39.5811C19.1919 39.5811 19.5123 39.5434 19.833 39.5006C20.0285 39.9849 20.2355 40.4617 20.469 40.9297C19.0637 40.7439 17.3009 40.7885 15.5769 41.6445C14.8146 42.0225 14.4779 42.9664 14.8891 43.7627C15.4308 44.7928 16.0729 45.9858 16.8642 47.0541C19.2192 50.4875 23.8973 51.5051 27.1963 48.6381C27.3827 48.7699 27.5577 48.8945 27.5889 48.9166L27.5919 48.9805C27.5919 49.8418 28.2888 50.5387 29.15 50.5387C30.0113 50.5387 30.7082 49.8418 30.7082 48.9805C30.7082 47.3053 29.6461 46.5536 28.7909 45.948Z" fill="#FABE2C"/>
<path d="M46.2904 41.1945H30.7086C29.8473 41.1945 29.1504 40.4976 29.1504 39.6363V33.4036C29.1504 32.5424 29.8473 31.8455 30.7086 31.8455H33.8249V27.1709H30.7086C29.8473 27.1709 29.1504 26.474 29.1504 25.6127V20.9382C29.1504 20.0769 29.8473 19.38 30.7086 19.38C32.0294 19.38 33.204 18.5492 33.6302 17.3136C33.8462 16.6851 34.4397 16.2637 35.1032 16.2637H41.6158C42.4771 16.2637 43.174 16.9606 43.174 17.8218V31.8455H46.2904C47.1516 31.8455 47.8485 32.5424 47.8485 33.4036V39.6363C47.8485 40.4976 47.1516 41.1945 46.2904 41.1945Z" fill="#FED843"/>
<path d="M47.8481 47.4246H29.15C28.2773 47.4246 27.5918 48.1101 27.5918 48.9827V61.4482H49.4063V48.9827C49.4063 48.1101 48.7208 47.4246 47.8481 47.4246Z" fill="#646D73"/>
<path d="M46.2909 31.8415H43.1745V17.8179C43.1745 16.9567 42.4776 16.2598 41.6164 16.2598H38.5V41.1906H46.2909C47.1522 41.1906 47.8491 40.4937 47.8491 39.6324V33.3997C47.8491 32.5385 47.1522 31.8415 46.2909 31.8415Z" fill="#FABE2C"/>
<path d="M47.8491 47.4226H38.5V61.4462H49.4073V48.9808C49.4073 48.1081 48.7218 47.4226 47.8491 47.4226Z" fill="#474F54"/>
<path d="M41.6151 56.7704H35.3824C34.5211 56.7704 33.8242 56.0735 33.8242 55.2122C33.8242 54.351 34.5211 53.6541 35.3824 53.6541H41.6151C42.4764 53.6541 43.1733 54.351 43.1733 55.2122C43.1733 56.0735 42.4764 56.7704 41.6151 56.7704Z" fill="#FED843"/>
<path d="M41.6164 53.6552H38.5V56.7715H41.6164C42.4776 56.7715 43.1745 56.0746 43.1745 55.2133C43.1745 54.3521 42.4776 53.6552 41.6164 53.6552Z" fill="#FABE2C"/>
<path d="M50.9636 63.0016H26.0328C25.1715 63.0016 24.4746 62.3047 24.4746 61.4434C24.4746 60.5822 25.1715 59.8853 26.0328 59.8853H50.9636C51.8249 59.8853 52.5218 60.5822 52.5218 61.4434C52.5218 62.3047 51.8249 63.0016 50.9636 63.0016Z" fill="#474F54"/>
<path d="M50.9654 59.8877H38.5V63.0041H50.9654C51.8267 63.0041 52.5236 62.3071 52.5236 61.4459C52.5236 60.5846 51.8267 59.8877 50.9654 59.8877Z" fill="#32393F"/>
</svg>
