<svg width="1303" height="1006" viewBox="0 0 1303 1006" fill="none" xmlns="http://www.w3.org/2000/svg">
<path d="M988.057 266.759H964.817C961.153 266.759 957.638 268.215 955.047 270.806C952.456 273.397 951 276.911 951 280.576C951 284.241 952.456 287.755 955.047 290.346C957.638 292.937 961.153 294.393 964.817 294.393H1019.12C1017.22 294.38 1015.33 293.971 1013.59 293.192C1011.85 292.412 1010.29 291.28 1009.01 289.867L988.057 266.759Z" fill="#14899B"/>
<path d="M1032.82 277.989V226.349C1032.82 222.685 1031.36 219.17 1028.77 216.579C1026.18 213.988 1022.67 212.532 1019 212.532C1015.34 212.532 1011.82 213.988 1009.23 216.579C1006.64 219.17 1005.19 222.685 1005.19 226.349V244.469L1029.48 271.245C1031.19 273.142 1032.35 275.476 1032.82 277.989Z" fill="#14899B"/>
<path d="M1298.07 -119.212C1299.39 -120.48 1300.44 -121.998 1301.17 -123.677C1301.9 -125.357 1302.29 -127.164 1302.32 -128.995C1302.34 -130.826 1302 -132.644 1301.32 -134.343C1300.63 -136.041 1299.62 -137.587 1298.33 -138.89C1297.05 -140.193 1295.51 -141.228 1293.82 -141.933C1292.13 -142.639 1290.32 -143.001 1288.49 -143C1286.66 -142.999 1284.85 -142.633 1283.16 -141.925C1281.47 -141.217 1279.94 -140.181 1278.65 -138.876L966.045 169.695L965.952 169.801C956.399 179.421 951.027 192.424 951.005 205.982C950.983 219.541 956.312 232.56 965.834 242.212L988.057 266.759H1005.21V244.469L986.117 223.42L985.655 222.932C981.21 218.472 978.704 212.439 978.682 206.143C978.66 199.847 981.123 193.796 985.537 189.306L1298.07 -119.212Z" fill="#C6ED07"/>
<path d="M988.057 266.758L1009.01 289.853C1010.87 291.892 1013.3 293.321 1015.99 293.951C1018.67 294.581 1021.49 294.383 1024.06 293.383C1026.63 292.383 1028.84 290.628 1030.39 288.349C1031.95 286.07 1032.78 283.374 1032.77 280.615V278.081C1032.3 275.568 1031.14 273.235 1029.43 271.338L1005.13 244.561V266.758H988.057Z" fill="#0E6674"/>
<path d="M871.006 210.924C870.842 210.924 870.679 210.891 870.527 210.828C870.376 210.764 870.238 210.671 870.122 210.554C869.9 210.311 869.776 209.993 869.776 209.663C869.776 209.334 869.9 209.016 870.122 208.773L1260.47 -181.567C1260.59 -181.697 1260.73 -181.802 1260.88 -181.877C1261.04 -181.951 1261.21 -181.993 1261.38 -181.999C1261.55 -182.005 1261.72 -181.976 1261.88 -181.913C1262.04 -181.85 1262.19 -181.755 1262.31 -181.633C1262.43 -181.511 1262.53 -181.365 1262.59 -181.205C1262.65 -181.045 1262.68 -180.873 1262.68 -180.701C1262.67 -180.529 1262.63 -180.36 1262.55 -180.205C1262.48 -180.049 1262.37 -179.911 1262.24 -179.798L871.904 210.554C871.787 210.673 871.647 210.767 871.493 210.83C871.339 210.894 871.173 210.926 871.006 210.924Z" fill="white"/>
<path d="M869.858 203.586L860 220.676L877.09 210.818L869.858 203.586Z" fill="white"/>
<path d="M956.594 51.2034C956.359 51.1775 956.135 51.0888 955.946 50.9468C955.757 50.8048 955.609 50.6146 955.519 50.3961C955.429 50.1776 955.399 49.9388 955.432 49.7047C955.466 49.4707 955.562 49.2499 955.71 49.0655L1148.06 -143.293C1148.15 -143.476 1148.29 -143.635 1148.46 -143.755C1148.63 -143.875 1148.82 -143.954 1149.02 -143.985C1149.23 -144.016 1149.44 -143.999 1149.64 -143.934C1149.83 -143.87 1150.01 -143.76 1150.16 -143.613C1150.3 -143.467 1150.41 -143.288 1150.48 -143.092C1150.54 -142.895 1150.56 -142.686 1150.53 -142.481C1150.5 -142.277 1150.42 -142.082 1150.3 -141.914C1150.18 -141.745 1150.02 -141.608 1149.84 -141.512L957.491 50.8207C957.375 50.9418 957.236 51.0382 957.082 51.104C956.927 51.1698 956.761 51.2036 956.594 51.2034Z" fill="white"/>
<path d="M955.446 43.8789L945.574 60.9689L962.677 51.0976L955.446 43.8789Z" fill="white"/>
<path d="M1252.53 13.4204L1248.48 9.36899C1244.01 4.89088 1241.5 -1.17702 1241.5 -7.5033C1241.5 -13.8296 1244.01 -19.8975 1248.48 -24.3756C1250.94 -26.9914 1252.28 -30.463 1252.23 -34.0545C1252.18 -37.6461 1250.72 -41.0752 1248.19 -43.6151C1245.65 -46.155 1242.22 -47.606 1238.62 -47.6605C1235.03 -47.715 1231.56 -46.3687 1228.95 -43.9071C1219.31 -34.2438 1213.89 -21.1521 1213.89 -7.5033C1213.89 6.14553 1219.31 19.2372 1228.95 28.9005L1233 32.9387C1237.47 37.4168 1239.98 43.4848 1239.98 49.811C1239.98 56.1373 1237.47 62.2052 1233 66.6833L1110.01 189.666V209.197H1129.55L1252.53 86.228C1262.16 76.563 1267.58 63.472 1267.58 49.8242C1267.58 36.1765 1262.16 23.0854 1252.53 13.4204Z" fill="#14899B"/>
<path d="M1096.2 236.844H1153.35C1157.02 236.844 1160.53 235.389 1163.12 232.797C1165.71 230.206 1167.17 226.692 1167.17 223.027C1167.17 219.363 1165.71 215.848 1163.12 213.257C1160.53 210.666 1157.02 209.21 1153.35 209.21H1129.6L1106.02 232.793C1104.73 234.087 1103.2 235.111 1101.51 235.807C1099.83 236.503 1098.02 236.855 1096.2 236.844Z" fill="#C42A56"/>
<path d="M1110.01 189.679V165.924C1110.07 164.075 1109.76 162.233 1109.09 160.507C1108.42 158.782 1107.41 157.208 1106.12 155.879C1104.83 154.551 1103.29 153.494 1101.59 152.773C1099.88 152.052 1098.05 151.68 1096.2 151.68C1094.35 151.68 1092.52 152.052 1090.82 152.773C1089.11 153.494 1087.57 154.551 1086.28 155.879C1084.99 157.208 1083.99 158.782 1083.32 160.507C1082.65 162.233 1082.34 164.075 1082.39 165.924V222.975C1082.39 221.161 1082.74 219.365 1083.44 217.689C1084.13 216.013 1085.15 214.49 1086.43 213.209L1110.01 189.679Z" fill="#C42A56"/>
<path d="M1110.01 189.679L1086.43 213.262C1085.15 214.543 1084.13 216.066 1083.44 217.742C1082.74 219.417 1082.39 221.214 1082.39 223.027C1082.37 223.467 1082.37 223.908 1082.39 224.347C1082.39 224.558 1082.39 224.756 1082.47 224.967C1082.55 225.178 1082.47 225.456 1082.59 225.693C1082.71 225.931 1082.7 226.142 1082.76 226.379C1082.83 226.617 1082.85 226.802 1082.92 227C1082.99 227.198 1083.07 227.435 1083.15 227.66C1083.22 227.884 1083.29 228.082 1083.37 228.28L1083.65 228.874L1083.95 229.507L1084.28 230.061C1084.4 230.259 1084.52 230.47 1084.65 230.655C1084.78 230.84 1084.94 231.051 1085.09 231.249C1085.23 231.447 1085.32 231.592 1085.45 231.751C1085.74 232.104 1086.04 232.439 1086.37 232.754C1086.69 233.079 1087.03 233.387 1087.38 233.677L1087.87 234.047L1088.46 234.482C1088.66 234.614 1088.86 234.72 1089.07 234.839C1089.25 234.958 1089.43 235.068 1089.63 235.169C1089.83 235.283 1090.03 235.384 1090.25 235.472C1090.44 235.564 1090.64 235.67 1090.85 235.749C1091.05 235.836 1091.25 235.91 1091.46 235.974L1092.13 236.211C1092.33 236.277 1092.54 236.317 1092.75 236.369L1093.44 236.541L1094.16 236.647L1094.77 236.739C1095.22 236.739 1095.67 236.739 1096.09 236.739C1097.91 236.743 1099.7 236.387 1101.38 235.691C1103.06 234.996 1104.58 233.975 1105.86 232.688L1129.44 209.105H1109.91L1110.01 189.679Z" fill="#922D69"/>
<path d="M24.6621 708.515C24.7583 708.736 24.8418 708.962 24.9122 709.192C24.8418 708.962 24.7583 708.736 24.6621 708.515Z" fill="#C42A56"/>
<path d="M24.0137 707.131C24.1411 707.354 24.2541 707.585 24.352 707.822C24.2541 707.585 24.1411 707.354 24.0137 707.131Z" fill="#C42A56"/>
<path d="M15.6328 699.899L16.3242 700.15L15.6328 699.899Z" fill="#C42A56"/>
<path d="M23.248 705.834C23.3952 706.055 23.5128 706.276 23.6599 706.511C23.5128 706.276 23.3952 706.055 23.248 705.834Z" fill="#C42A56"/>
<path d="M18.3145 701.151L18.9911 701.563L18.3145 701.151Z" fill="#C42A56"/>
<path d="M19.6543 702.064L20.1986 702.476L19.6543 702.064Z" fill="#C42A56"/>
<path d="M17.0332 700.459L17.7393 700.797L17.0332 700.459Z" fill="#C42A56"/>
<path d="M25.1768 709.988C25.2503 710.223 25.2944 710.459 25.3533 710.679C25.2944 710.385 25.2503 710.15 25.1768 709.988Z" fill="#C42A56"/>
<path d="M22.3496 704.627C22.4967 704.803 22.6291 704.995 22.7615 705.171C22.6291 704.995 22.4967 704.803 22.3496 704.627Z" fill="#C42A56"/>
<path d="M12.6143 699.148C12.8938 699.148 13.1732 699.222 13.438 699.281L12.6143 699.148Z" fill="#C42A56"/>
<path d="M11.9513 699.045C11.4358 699.045 10.9351 698.972 10.4785 698.972C10.9351 698.972 11.4506 699.001 11.9513 699.045Z" fill="#C42A56"/>
<path d="M25.5449 711.372C25.5449 711.652 25.6332 711.916 25.6626 712.196C25.6332 711.916 25.5891 711.652 25.5449 711.372Z" fill="#C42A56"/>
<path d="M14.2051 699.458L14.8965 699.634L14.2051 699.458Z" fill="#C42A56"/>
<path d="M25.7666 712.934C25.7666 713.434 25.8403 713.935 25.8403 714.406C25.8697 713.891 25.8697 713.375 25.7666 712.934Z" fill="#C42A56"/>
<path d="M11.9512 699.045L12.6132 699.148L11.9512 699.045Z" fill="#C6ED07"/>
<path d="M18.9912 701.578C19.2168 701.725 19.4374 701.887 19.6532 702.064C19.4374 701.887 19.2168 701.725 18.9912 701.578Z" fill="#C6ED07"/>
<path d="M14.8965 699.678C15.1466 699.678 15.3819 699.855 15.632 699.943L14.8965 699.678Z" fill="#C6ED07"/>
<path d="M13.4395 699.281L14.2044 699.457L13.4395 699.281Z" fill="#C6ED07"/>
<path d="M17.6953 700.798L18.3131 701.166L17.6953 700.798Z" fill="#C6ED07"/>
<path d="M16.3262 700.15L16.9882 700.459L16.3262 700.15Z" fill="#C6ED07"/>
<path d="M25.6631 712.197C25.6631 712.418 25.7366 712.639 25.7661 712.874C25.7366 712.639 25.6925 712.418 25.6631 712.197Z" fill="#C6ED07"/>
<path d="M25.3535 710.606C25.3535 710.871 25.4859 711.121 25.5448 711.371C25.4859 711.121 25.4124 710.871 25.3535 710.606Z" fill="#C6ED07"/>
<path d="M24.9121 709.178C25.0004 709.428 25.1033 709.663 25.1769 709.913C25.1033 709.663 25.0004 709.428 24.9121 709.178Z" fill="#C6ED07"/>
<path d="M21.3178 725.29L-4.98633 751.609V774.791C-4.98633 778.882 -3.36094 782.806 -0.467719 785.7C2.4255 788.593 6.34956 790.218 10.4412 790.218C14.5328 790.218 18.4569 788.593 21.3501 785.7C24.2433 782.806 25.8687 778.882 25.8687 774.791V714.406C25.8672 716.431 25.4643 718.436 24.6831 720.304C23.902 722.172 22.7581 723.867 21.3178 725.29Z" fill="#C6ED07"/>
<path d="M21.3477 703.508C21.7011 703.861 22.0251 704.244 22.3491 704.627C22.0347 704.237 21.7004 703.864 21.3477 703.508Z" fill="#C6ED07"/>
<path d="M24.3965 707.823C24.4995 708.043 24.6171 708.264 24.7054 708.499C24.573 708.264 24.3965 708.043 24.3965 707.823Z" fill="#C6ED07"/>
<path d="M22.7617 705.172C22.9235 705.393 23.1 705.613 23.2471 705.834C23.0853 705.569 22.9235 705.393 22.7617 705.172Z" fill="#C6ED07"/>
<path d="M20.1992 702.477C20.5848 702.791 20.9535 703.125 21.3038 703.478C20.9535 703.125 20.5848 702.791 20.1992 702.477Z" fill="#C6ED07"/>
<path d="M23.6602 706.512C23.7778 706.718 23.9102 706.909 24.0132 707.13C23.9102 706.909 23.7778 706.718 23.6602 706.512Z" fill="#C6ED07"/>
<path d="M25.8695 714.406C25.8695 713.891 25.8695 713.39 25.7959 712.933C25.7959 712.698 25.7222 712.477 25.6928 712.256C25.6633 712.035 25.6191 711.711 25.5749 711.431C25.5308 711.151 25.4424 710.93 25.3835 710.665C25.3246 710.4 25.2804 710.209 25.2067 709.973C25.1331 709.737 25.03 709.487 24.9416 709.237C24.8712 709.006 24.7876 708.78 24.6913 708.559C24.6029 708.323 24.4851 708.103 24.382 707.882C24.284 707.644 24.1708 707.413 24.0433 707.189C23.9402 706.969 23.8076 706.777 23.6898 706.571C23.5719 706.365 23.4247 706.114 23.2774 705.893C23.1301 705.672 22.9534 705.451 22.7914 705.231C22.6294 705.01 22.5263 704.862 22.379 704.686C22.2317 704.509 21.731 703.92 21.3775 703.566C21.0272 703.213 20.6585 702.879 20.2729 702.565L19.7279 702.152C19.5119 701.976 19.291 701.814 19.0652 701.666L18.3877 701.254L17.7692 700.886L17.0622 700.547L16.3995 700.238L15.7073 699.987C15.4569 699.899 15.2212 699.796 14.9709 699.722L14.2786 699.546L13.5128 699.369C13.2477 699.369 12.9678 699.281 12.688 699.236L12.0253 699.133C11.5245 699.133 11.009 699.06 10.5525 699.06C8.52761 699.058 6.52248 699.457 4.65218 700.233C2.78188 701.009 1.08324 702.147 -0.346186 703.581L-26.665 729.9H-4.85293V751.697L21.4511 725.378C22.8782 723.934 24.0037 722.22 24.7622 720.336C25.5208 718.452 25.8971 716.437 25.8695 714.406Z" fill="#C42A56"/>
<path d="M25.8695 714.406C25.8695 713.891 25.8695 713.39 25.7959 712.933C25.7959 712.698 25.7222 712.477 25.6928 712.256C25.6633 712.035 25.6191 711.711 25.5749 711.431C25.5308 711.151 25.4424 710.93 25.3835 710.665C25.3246 710.4 25.2804 710.209 25.2067 709.973C25.1331 709.737 25.03 709.487 24.9416 709.237C24.8712 709.006 24.7876 708.78 24.6913 708.559C24.6029 708.323 24.4851 708.103 24.382 707.882C24.284 707.644 24.1708 707.413 24.0433 707.189C23.9402 706.969 23.8076 706.777 23.6898 706.571C23.5719 706.365 23.4247 706.114 23.2774 705.893C23.1301 705.672 22.9534 705.451 22.7914 705.231C22.6294 705.01 22.5263 704.862 22.379 704.686C22.2317 704.509 21.731 703.92 21.3775 703.566C21.0272 703.213 20.6585 702.879 20.2729 702.565L19.7279 702.152C19.5119 701.976 19.291 701.814 19.0652 701.666L18.3877 701.254L17.7692 700.886L17.0622 700.547L16.3995 700.238L15.7073 699.987C15.4569 699.899 15.2212 699.796 14.9709 699.722L14.2786 699.546L13.5128 699.369C13.2477 699.369 12.9678 699.281 12.688 699.236L12.0253 699.133C11.5245 699.133 11.009 699.06 10.5525 699.06C8.52761 699.058 6.52248 699.457 4.65218 700.233C2.78188 701.009 1.08324 702.147 -0.346186 703.581L-26.665 729.9H-4.85293V751.697L21.4511 725.378C22.8782 723.934 24.0037 722.22 24.7622 720.336C25.5208 718.452 25.8971 716.437 25.8695 714.406Z" fill="#E24F10"/>
<path d="M-96.6674 550.234C-96.791 550.234 -96.9132 550.209 -97.027 550.161C-97.1408 550.113 -97.2439 550.043 -97.3301 549.954C-97.5012 549.776 -97.5967 549.539 -97.5967 549.292C-97.5967 549.045 -97.5012 548.807 -97.3301 548.629L283.033 168.28C283.12 168.192 283.223 168.122 283.337 168.074C283.451 168.026 283.573 168.001 283.696 168.001C283.82 168.001 283.942 168.026 284.056 168.074C284.169 168.122 284.273 168.192 284.359 168.28C284.447 168.365 284.516 168.467 284.564 168.58C284.612 168.692 284.636 168.813 284.636 168.935C284.636 169.058 284.612 169.179 284.564 169.291C284.516 169.404 284.447 169.506 284.359 169.591L-96.0046 549.954C-96.0899 550.044 -96.1927 550.115 -96.3068 550.163C-96.4208 550.212 -96.5436 550.236 -96.6674 550.234Z" fill="white"/>
<path d="M103.928 267.634C104.016 267.884 104.119 268.12 104.193 268.37L103.928 267.634Z" fill="#019002"/>
<path d="M100.349 261.979C100.697 262.324 101.026 262.688 101.335 263.069C101.03 262.685 100.7 262.321 100.349 261.979Z" fill="#019002"/>
<path d="M99.2002 260.918C99.5684 261.228 99.9367 261.552 100.29 261.905C99.9367 261.566 99.5095 261.228 99.2002 260.918Z" fill="#019002"/>
<path d="M101.763 263.628C101.925 263.849 102.086 264.055 102.233 264.276C102.086 264.055 101.925 263.849 101.763 263.628Z" fill="#019002"/>
<path d="M102.646 264.954C102.779 265.16 102.897 265.366 103.014 265.572C102.897 265.366 102.779 265.204 102.646 264.954Z" fill="#019002"/>
<path d="M103.353 266.279C103.456 266.5 103.573 266.721 103.661 266.941C103.573 266.676 103.456 266.5 103.353 266.279Z" fill="#019002"/>
<path d="M98.0361 260.02C98.2568 260.167 98.4774 260.344 98.6834 260.505C98.4186 260.344 98.1979 260.167 98.0361 260.02Z" fill="#019002"/>
<path d="M92.4395 257.723C92.6929 257.773 92.9433 257.836 93.1897 257.914L92.4395 257.723Z" fill="#019002"/>
<path d="M90.9375 257.501C91.1651 257.52 91.3913 257.555 91.6142 257.604C91.3913 257.555 91.1651 257.52 90.9375 257.501Z" fill="#019002"/>
<path d="M93.8975 258.091L94.633 258.341L93.8975 258.091Z" fill="#019002"/>
<path d="M96.6816 259.313L97.2995 259.681L96.6816 259.313Z" fill="#019002"/>
<path d="M95.3262 258.591L95.9882 258.915L95.3262 258.591Z" fill="#019002"/>
<path d="M104.664 270.639C104.664 270.874 104.664 271.095 104.767 271.315C104.738 271.095 104.693 270.874 104.664 270.639Z" fill="#019002"/>
<path d="M100.319 283.747L74 310.066V333.306C74 337.396 75.6246 341.318 78.5165 344.21C81.4083 347.102 85.3305 348.727 89.4202 348.727C93.5099 348.727 97.432 347.102 100.324 344.21C103.216 341.318 104.84 337.396 104.84 333.306V272.922C104.823 276.986 103.197 280.878 100.319 283.747Z" fill="#019002"/>
<path d="M89.4199 257.428H29.0353C26.9712 257.364 24.9153 257.715 22.9895 258.461C21.0638 259.207 19.3075 260.332 17.8249 261.77C16.3422 263.207 15.1635 264.928 14.3585 266.83C13.5535 268.731 13.1387 270.775 13.1387 272.841C13.1387 274.906 13.5535 276.95 14.3585 278.851C15.1635 280.753 16.3422 282.474 17.8249 283.911C19.3075 285.349 21.0638 286.474 22.9895 287.22C24.9153 287.966 26.9712 288.317 29.0353 288.253H52.276L78.5948 261.935C81.4653 259.06 85.3576 257.44 89.4199 257.428Z" fill="#019002"/>
<path d="M104.354 269.063C104.354 269.328 104.487 269.578 104.531 269.828C104.487 269.622 104.413 269.328 104.354 269.063Z" fill="#019002"/>
<path d="M94.6338 258.341L95.3251 258.591L94.6338 258.341Z" fill="#6CCD18"/>
<path d="M89.4199 257.428C89.9354 257.428 90.4361 257.428 90.8927 257.501C90.4361 257.457 89.9207 257.428 89.4199 257.428Z" fill="#6CCD18"/>
<path d="M52.2028 288.253L-85.0468 425.503C-90.3861 430.837 -94.6218 437.172 -97.5117 444.144C-100.402 451.116 -101.889 458.59 -101.889 466.137C-101.889 473.685 -100.402 481.158 -97.5117 488.131C-94.6218 495.103 -90.3861 501.437 -85.0468 506.772L-80.5253 511.293C-78.0507 513.765 -76.0875 516.7 -74.7481 519.931C-73.4087 523.162 -72.7192 526.625 -72.7192 530.123C-72.7192 533.62 -73.4087 537.084 -74.7481 540.315C-76.0875 543.546 -78.0507 546.481 -80.5253 548.953L-185.771 654.198C-190.577 658.996 -197.033 661.779 -203.821 661.979C-210.608 662.178 -217.217 659.78 -222.296 655.273L-267.408 615.169C-278.359 605.426 -292.621 600.239 -307.272 600.669C-321.923 601.098 -335.856 607.113 -346.217 617.482L-391.874 663.138C-388.738 660.971 -384.911 660.043 -381.131 660.534C-377.352 661.024 -373.888 662.898 -371.41 665.794C-368.931 668.69 -367.615 672.402 -367.714 676.212C-367.813 680.022 -369.321 683.66 -371.947 686.423L-396.984 711.858L-324.42 639.294C-319.614 634.496 -313.158 631.713 -306.37 631.513C-299.583 631.314 -292.974 633.712 -287.895 638.219L-242.783 678.323C-231.822 688.046 -217.565 693.22 -202.92 692.79C-188.275 692.361 -174.345 686.359 -163.974 676.01L-58.728 570.765C-53.3886 565.43 -49.1529 559.096 -46.263 552.124C-43.373 545.151 -41.8856 537.678 -41.8856 530.13C-41.8856 522.583 -43.373 515.109 -46.263 508.137C-49.1529 501.165 -53.3886 494.83 -58.728 489.496L-63.2495 484.974C-68.24 479.979 -71.0433 473.206 -71.0433 466.145C-71.0433 459.083 -68.24 452.311 -63.2495 447.315L74.0001 310.08V288.253H52.2028Z" fill="#6CCD00"/>
<path d="M95.9893 258.916L96.6807 259.239L95.9893 258.916Z" fill="#6CCD18"/>
<path d="M91.6152 257.604C91.8917 257.629 92.1667 257.669 92.439 257.722C92.1667 257.669 91.8917 257.629 91.6152 257.604Z" fill="#6CCD18"/>
<path d="M93.1904 257.914L93.8965 258.091L93.1904 257.914Z" fill="#6CCD18"/>
<path d="M97.2998 259.607L97.9765 260.019L97.2998 259.607Z" fill="#6CCD18"/>
<path d="M104.531 269.829C104.531 270.094 104.62 270.373 104.664 270.638C104.62 270.373 104.59 270.094 104.531 269.829Z" fill="#6CCD18"/>
<path d="M102.234 264.276C102.381 264.497 102.514 264.732 102.646 264.953C102.455 264.732 102.455 264.497 102.234 264.276Z" fill="#6CCD18"/>
<path d="M104.178 268.371L104.354 269.062L104.178 268.371Z" fill="#6CCD18"/>
<path d="M103.014 265.573C103.131 265.808 103.249 266.043 103.352 266.279C103.249 266.043 103.131 265.808 103.014 265.573Z" fill="#6CCD18"/>
<path d="M101.336 263.069C101.498 263.245 101.615 263.437 101.763 263.628C101.615 263.437 101.498 263.245 101.336 263.069Z" fill="#6CCD18"/>
<path d="M103.662 266.942C103.75 267.163 103.839 267.398 103.912 267.634C103.839 267.398 103.75 267.163 103.662 266.942Z" fill="#6CCD18"/>
<path d="M98.625 260.506L99.1986 260.918L98.625 260.506Z" fill="#6CCD18"/>
<path d="M104.841 272.848C104.841 272.333 104.841 271.817 104.841 271.375C104.841 271.154 104.767 270.933 104.738 270.698C104.708 270.462 104.738 270.153 104.605 269.888C104.473 269.623 104.487 269.387 104.428 269.122L104.252 268.43C104.252 268.179 104.075 267.944 103.986 267.693C103.898 267.443 103.825 267.222 103.736 267.001C103.648 266.78 103.53 266.559 103.427 266.338C103.324 266.117 103.206 265.867 103.088 265.631C102.97 265.396 102.852 265.219 102.72 265.013C102.587 264.807 102.455 264.556 102.308 264.335C102.16 264.114 101.998 263.908 101.836 263.687C101.674 263.466 101.571 263.304 101.409 263.128C101.1 262.747 100.771 262.383 100.422 262.038V261.964C100.069 261.611 99.7007 261.287 99.3325 260.977L98.7581 260.565C98.5519 260.403 98.331 260.226 98.1101 260.079L97.4326 259.667L96.814 259.298L96.1218 258.974L95.4591 258.65L94.7669 258.4L94.0305 258.15L93.3235 257.973C93.0768 257.895 92.8261 257.831 92.5723 257.781C92.2997 257.728 92.0244 257.688 91.7476 257.664C91.5244 257.614 91.2981 257.579 91.0702 257.56C90.5694 257.56 90.0687 257.487 89.5974 257.487C87.5734 257.483 85.5686 257.879 83.6983 258.653C81.8279 259.426 80.1288 260.561 78.6987 261.994L52.2031 288.253H74.0004V310.066L100.319 283.747C101.753 282.317 102.891 280.619 103.667 278.748C104.443 276.878 104.842 274.873 104.841 272.848Z" fill="#6CCD00"/>
<path d="M104.841 272.848C104.841 272.333 104.841 271.817 104.841 271.375C104.841 271.154 104.767 270.933 104.738 270.698C104.708 270.462 104.738 270.153 104.605 269.888C104.473 269.623 104.487 269.387 104.428 269.122L104.252 268.43C104.252 268.179 104.075 267.944 103.986 267.693C103.898 267.443 103.825 267.222 103.736 267.001C103.648 266.78 103.53 266.559 103.427 266.338C103.324 266.117 103.206 265.867 103.088 265.631C102.97 265.396 102.852 265.219 102.72 265.013C102.587 264.807 102.455 264.556 102.308 264.335C102.16 264.114 101.998 263.908 101.836 263.687C101.674 263.466 101.571 263.304 101.409 263.128C101.1 262.747 100.771 262.383 100.422 262.038V261.964C100.069 261.611 99.7007 261.287 99.3325 260.977L98.7581 260.565C98.5519 260.403 98.331 260.226 98.1101 260.079L97.4326 259.667L96.814 259.298L96.1218 258.974L95.4591 258.65L94.7669 258.4L94.0305 258.15L93.3235 257.973C93.0768 257.895 92.8261 257.831 92.5723 257.781C92.2997 257.728 92.0244 257.688 91.7476 257.664C91.5244 257.614 91.2981 257.579 91.0702 257.56C90.5694 257.56 90.0687 257.487 89.5974 257.487C87.5734 257.483 85.5686 257.879 83.6983 258.653C81.8279 259.426 80.1288 260.561 78.6987 261.994L52.2031 288.253H74.0004V310.066L100.319 283.747C101.753 282.317 102.891 280.619 103.667 278.748C104.443 276.878 104.842 274.873 104.841 272.848Z" fill="#007400"/>
<path d="M348.411 459.318C348.514 459.539 348.632 459.76 348.72 459.98C348.632 459.76 348.514 459.613 348.411 459.318Z" fill="#C42A56"/>
<path d="M344.243 453.958C344.634 454.272 345.007 454.606 345.363 454.959C345.011 454.602 344.637 454.268 344.243 453.958Z" fill="#C42A56"/>
<path d="M345.466 454.988C345.819 455.356 346.158 455.725 346.467 456.108C346.153 455.717 345.819 455.344 345.466 454.988Z" fill="#C42A56"/>
<path d="M346.82 456.667C346.982 456.873 347.144 457.094 347.291 457.315C347.144 457.094 346.938 456.873 346.82 456.667Z" fill="#C42A56"/>
<path d="M347.704 457.993C347.836 458.199 347.954 458.405 348.072 458.611C347.954 458.405 347.836 458.14 347.704 457.993Z" fill="#C42A56"/>
<path d="M343.035 453.059L343.697 453.545C343.476 453.383 343.271 453.206 343.035 453.059Z" fill="#C42A56"/>
<path d="M335.995 450.541C336.227 450.56 336.458 450.595 336.686 450.644C336.458 450.595 336.227 450.56 335.995 450.541Z" fill="#C42A56"/>
<path d="M337.497 450.776C337.75 450.826 338.001 450.89 338.247 450.968C338.001 450.89 337.75 450.826 337.497 450.776Z" fill="#C42A56"/>
<path d="M341.739 452.249L342.357 452.617L341.739 452.249Z" fill="#C42A56"/>
<path d="M338.956 451.13L339.692 451.38L338.956 451.13Z" fill="#C42A56"/>
<path d="M340.384 451.63L341.046 451.939L340.384 451.63Z" fill="#C42A56"/>
<path d="M349.722 463.678C349.722 463.898 349.795 464.134 349.825 464.354C349.795 464.134 349.751 463.898 349.722 463.678Z" fill="#C42A56"/>
<path d="M345.377 476.786L319.059 503.09V526.345C319.059 530.435 320.683 534.357 323.575 537.249C326.467 540.141 330.389 541.766 334.479 541.766C338.568 541.766 342.491 540.141 345.382 537.249C348.274 534.357 349.899 530.435 349.899 526.345V465.873C349.902 467.9 349.504 469.908 348.728 471.781C347.952 473.654 346.813 475.355 345.377 476.786Z" fill="#C42A56"/>
<path d="M334.478 450.467H274.094C272.03 450.403 269.974 450.754 268.048 451.5C266.122 452.246 264.366 453.371 262.884 454.809C261.401 456.246 260.222 457.967 259.417 459.869C258.612 461.77 258.197 463.815 258.197 465.88C258.197 467.945 258.612 469.989 259.417 471.891C260.222 473.792 261.401 475.513 262.884 476.951C264.366 478.388 266.122 479.513 268.048 480.259C269.974 481.005 272.03 481.356 274.094 481.292H297.335L323.653 454.974C326.524 452.099 330.416 450.479 334.478 450.467Z" fill="#C42A56"/>
<path d="M349.413 462.102C349.413 462.352 349.545 462.602 349.59 462.867C349.545 462.558 349.472 462.352 349.413 462.102Z" fill="#C42A56"/>
<path d="M348.971 460.673C349.059 460.909 349.162 461.159 349.235 461.409C349.162 461.159 349.059 460.909 348.971 460.673Z" fill="#C42A56"/>
<path d="M334.479 450.467C334.994 450.467 335.495 450.467 335.951 450.541C335.462 450.488 334.97 450.464 334.479 450.467Z" fill="#C6ED07"/>
<path d="M339.692 451.38L340.384 451.63L339.692 451.38Z" fill="#C6ED07"/>
<path d="M341.047 451.94L341.738 452.278L341.047 451.94Z" fill="#C6ED07"/>
<path d="M336.629 450.644C336.894 450.644 337.158 450.644 337.438 450.761C337.217 450.776 336.953 450.673 336.629 450.644Z" fill="#C6ED07"/>
<path d="M297.261 481.292L120.128 658.44C116.742 661.827 114.107 665.888 112.395 670.361C110.682 674.833 109.931 679.616 110.189 684.398C110.448 689.18 111.71 693.854 113.895 698.116C116.079 702.378 119.136 706.132 122.868 709.134L135.681 719.443C136.041 719.729 136.336 720.089 136.547 720.497C136.758 720.906 136.88 721.354 136.905 721.814C136.93 722.273 136.858 722.732 136.692 723.161C136.527 723.59 136.273 723.98 135.946 724.303L-68.1243 928.359C-69.6276 929.774 -70.8316 931.476 -71.6648 933.365C-72.498 935.253 -72.9435 937.29 -72.9748 939.354C-73.0061 941.419 -72.6226 943.468 -71.8471 945.381C-71.0716 947.294 -69.9198 949.032 -68.4601 950.492C-67.0004 951.952 -65.2624 953.103 -63.3492 953.879C-61.436 954.655 -59.3866 955.038 -57.3225 955.007C-55.2584 954.975 -53.2215 954.53 -51.3327 953.697C-49.4439 952.863 -47.7417 951.66 -46.3269 950.156L157.699 746.145C161.082 742.756 163.714 738.693 165.424 734.221C167.134 729.748 167.883 724.965 167.624 720.184C167.364 715.403 166.101 710.73 163.916 706.468C161.732 702.207 158.675 698.454 154.945 695.451L142.132 685.142C141.775 684.853 141.482 684.493 141.274 684.083C141.066 683.674 140.946 683.226 140.922 682.768C140.899 682.309 140.972 681.851 141.137 681.422C141.302 680.994 141.556 680.605 141.881 680.282L319.058 503.09V481.292H297.261Z" fill="#C6ED07"/>
<path d="M338.249 450.953L338.955 451.13L338.249 450.953Z" fill="#C6ED07"/>
<path d="M349.236 461.41L349.413 462.101L349.236 461.41Z" fill="#C6ED07"/>
<path d="M342.358 452.646L343.035 453.058L342.358 452.646Z" fill="#C6ED07"/>
<path d="M346.394 456.108C346.541 456.284 346.673 456.476 346.82 456.667C346.673 456.476 346.555 456.284 346.394 456.108Z" fill="#C6ED07"/>
<path d="M348.072 458.612C348.19 458.847 348.308 459.083 348.411 459.318C348.308 459.083 348.19 458.847 348.072 458.612Z" fill="#C6ED07"/>
<path d="M347.292 457.315C347.439 457.536 347.572 457.771 347.704 457.992C347.572 457.771 347.454 457.536 347.292 457.315Z" fill="#C6ED07"/>
<path d="M343.698 453.545L344.243 453.957L343.698 453.545Z" fill="#C6ED07"/>
<path d="M348.721 459.981C348.809 460.202 348.897 460.437 348.971 460.673C348.897 460.437 348.809 460.202 348.721 459.981Z" fill="#C6ED07"/>
<path d="M349.589 462.868C349.589 463.132 349.677 463.412 349.721 463.677C349.677 463.412 349.648 463.132 349.589 462.868Z" fill="#C6ED07"/>
<path d="M349.884 465.872C349.884 465.372 349.884 464.856 349.884 464.4C349.884 464.179 349.81 463.943 349.781 463.722C349.751 463.501 349.781 463.177 349.648 462.912C349.516 462.647 349.53 462.397 349.472 462.146L349.295 461.454C349.295 461.204 349.118 460.953 349.03 460.718C348.941 460.482 348.868 460.246 348.779 460.025C348.691 459.804 348.573 459.584 348.47 459.363C348.367 459.142 348.249 458.891 348.131 458.656C348.013 458.42 347.896 458.243 347.763 458.037C347.631 457.831 347.498 457.581 347.351 457.36C347.203 457.139 347.041 456.918 346.879 456.712C346.717 456.505 346.6 456.329 346.452 456.152C346.305 455.975 345.804 455.401 345.451 455.033C345.095 454.679 344.722 454.345 344.331 454.031L343.787 453.619L343.124 453.133L342.446 452.72L341.828 452.352L341.136 452.013L340.473 451.704L339.781 451.454L339.044 451.203L338.337 451.027C338.091 450.949 337.84 450.885 337.586 450.835C337.306 450.835 337.041 450.747 336.776 450.717C336.548 450.669 336.317 450.634 336.084 450.614C335.583 450.614 335.082 450.541 334.611 450.541C332.587 450.537 330.582 450.933 328.712 451.706C326.842 452.48 325.143 453.615 323.712 455.047L297.394 481.366H319.191V503.163L345.51 476.859C346.928 475.407 348.045 473.689 348.795 471.803C349.546 469.917 349.916 467.902 349.884 465.872Z" fill="#C42A56"/>
<path d="M349.884 465.872C349.884 465.372 349.884 464.856 349.884 464.4C349.884 464.179 349.81 463.943 349.781 463.722C349.751 463.501 349.781 463.177 349.648 462.912C349.516 462.647 349.53 462.397 349.472 462.146L349.295 461.454C349.295 461.204 349.118 460.953 349.03 460.718C348.941 460.482 348.868 460.246 348.779 460.025C348.691 459.804 348.573 459.584 348.47 459.363C348.367 459.142 348.249 458.891 348.131 458.656C348.013 458.42 347.896 458.243 347.763 458.037C347.631 457.831 347.498 457.581 347.351 457.36C347.203 457.139 347.041 456.918 346.879 456.712C346.717 456.505 346.6 456.329 346.452 456.152C346.305 455.975 345.804 455.401 345.451 455.033C345.095 454.679 344.722 454.345 344.331 454.031L343.787 453.619L343.124 453.133L342.446 452.72L341.828 452.352L341.136 452.013L340.473 451.704L339.781 451.454L339.044 451.203L338.337 451.027C338.091 450.949 337.84 450.885 337.586 450.835C337.306 450.835 337.041 450.747 336.776 450.717C336.548 450.669 336.317 450.634 336.084 450.614C335.583 450.614 335.082 450.541 334.611 450.541C332.587 450.537 330.582 450.933 328.712 451.706C326.842 452.48 325.143 453.615 323.712 455.047L297.394 481.366H319.191V503.163L345.51 476.859C346.928 475.407 348.045 473.689 348.795 471.803C349.546 469.917 349.916 467.902 349.884 465.872Z" fill="#A3264A"/>
<path d="M379.694 679.059H353.758C349.668 679.059 345.746 680.684 342.854 683.576C339.963 686.467 338.338 690.39 338.338 694.479C338.338 698.569 339.963 702.491 342.854 705.383C345.746 708.275 349.668 709.899 353.758 709.899H414.364C412.236 709.885 410.134 709.428 408.192 708.558C406.25 707.689 404.51 706.425 403.082 704.848L379.694 679.059Z" fill="#C6ED07"/>
<path d="M429.65 691.593V633.962C429.65 629.872 428.025 625.95 425.133 623.058C422.242 620.167 418.319 618.542 414.23 618.542C410.14 618.542 406.218 620.167 403.326 623.058C400.434 625.95 398.81 629.872 398.81 633.962V654.184L425.924 684.067C427.836 686.183 429.126 688.788 429.65 691.593Z" fill="#C6ED07"/>
<path d="M414.363 709.826H414.511C416.774 709.823 419.008 709.323 421.056 708.359C423.104 707.396 424.914 705.994 426.359 704.252C427.804 702.511 428.848 700.472 429.417 698.282C429.986 696.092 430.066 693.803 429.651 691.578V694.406C429.655 698.474 428.05 702.378 425.186 705.267C422.322 708.156 418.431 709.795 414.363 709.826Z" fill="#C42A56"/>
<path d="M725.668 248.311C727.142 246.897 728.321 245.203 729.135 243.329C729.949 241.454 730.383 239.437 730.411 237.393C730.438 235.35 730.06 233.322 729.296 231.426C728.533 229.53 727.401 227.805 725.965 226.351C724.53 224.897 722.819 223.742 720.933 222.955C719.048 222.167 717.024 221.763 714.981 221.764C712.937 221.766 710.914 222.173 709.03 222.963C707.145 223.754 705.436 224.91 704.003 226.367L355.127 570.735L355.024 570.853C344.362 581.59 338.368 596.1 338.343 611.232C338.318 626.363 344.265 640.893 354.892 651.665L379.694 679.059H398.84V654.184L377.529 630.693L377.013 630.148C372.052 625.171 369.256 618.438 369.231 611.412C369.206 604.385 371.955 597.632 376.881 592.621L725.668 248.311Z" fill="#C42A56"/>
<path d="M379.693 679.059L403.081 704.833C405.155 707.108 407.869 708.703 410.866 709.406C413.864 710.109 417.004 709.888 419.873 708.773C422.743 707.657 425.207 705.698 426.941 703.155C428.676 700.611 429.6 697.602 429.592 694.523V691.696C429.068 688.891 427.778 686.287 425.865 684.17L398.751 654.287V679.059H379.693Z" fill="#C6ED07"/>
<path d="M379.693 679.059L403.081 704.833C405.155 707.108 407.869 708.703 410.866 709.406C413.864 710.109 417.004 709.888 419.873 708.773C422.743 707.657 425.207 705.698 426.941 703.155C428.676 700.611 429.6 697.602 429.592 694.523V691.696C429.068 688.891 427.778 686.287 425.865 684.17L398.751 654.287V679.059H379.693Z" fill="#9C1A3F"/>
<path d="M165.372 487.124C165.225 486.948 165.092 486.757 164.96 486.565C165.092 486.757 165.225 486.948 165.372 487.124Z" fill="#C6ED07"/>
<path d="M162.545 481.822C162.545 481.601 162.427 481.366 162.368 481.13C162.427 481.366 162.471 481.586 162.545 481.822Z" fill="#C6ED07"/>
<path d="M172.073 491.837C171.843 491.767 171.617 491.684 171.396 491.587C171.617 491.684 171.843 491.767 172.073 491.837Z" fill="#C6ED07"/>
<path d="M170.718 491.278C170.48 491.18 170.249 491.067 170.026 490.939C170.249 491.067 170.48 491.18 170.718 491.278Z" fill="#C6ED07"/>
<path d="M169.407 490.541C169.172 490.409 168.951 490.291 168.73 490.144C168.951 490.321 169.172 490.438 169.407 490.541Z" fill="#C6ED07"/>
<path d="M164.473 485.902C164.326 485.696 164.194 485.46 164.062 485.24C164.194 485.46 164.312 485.696 164.473 485.902Z" fill="#C6ED07"/>
<path d="M163.693 484.649L163.354 483.943L163.693 484.649Z" fill="#C6ED07"/>
<path d="M163.045 483.25C162.957 483.03 162.883 482.794 162.795 482.559L163.045 483.25Z" fill="#C6ED07"/>
<path d="M177.287 492.766C176.772 492.766 176.271 492.766 175.814 492.766C176.271 492.736 176.786 492.766 177.287 492.766Z" fill="#C6ED07"/>
<path d="M162.176 480.364C162.176 480.099 162.088 479.819 162.044 479.555C162.088 479.819 162.117 480.099 162.176 480.364Z" fill="#C6ED07"/>
<path d="M168.068 489.687L167.523 489.275L168.068 489.687Z" fill="#C6ED07"/>
<path d="M351.755 243.422L347.233 238.9C342.246 233.903 339.446 227.131 339.446 220.071C339.446 213.01 342.246 206.239 347.233 201.241C349.981 198.322 351.483 194.447 351.422 190.439C351.362 186.431 349.742 182.604 346.908 179.769C344.073 176.935 340.246 175.316 336.238 175.255C332.23 175.194 328.355 176.696 325.436 179.444C314.679 190.228 308.638 204.838 308.638 220.071C308.638 235.303 314.679 249.913 325.436 260.698L329.958 265.204C334.945 270.202 337.745 276.974 337.745 284.034C337.745 291.094 334.945 297.866 329.958 302.864L192.708 440.113V461.911H214.505L351.755 324.676C362.509 313.89 368.547 299.28 368.547 284.049C368.547 268.818 362.509 254.208 351.755 243.422Z" fill="#C6ED07"/>
<path d="M173.517 492.28C173.281 492.28 173.046 492.177 172.825 492.103C173.046 492.177 173.281 492.221 173.517 492.28Z" fill="#C6ED07"/>
<path d="M175.092 492.589L174.283 492.471L175.092 492.589Z" fill="#C6ED07"/>
<path d="M161.956 478.862C161.927 478.372 161.927 477.88 161.956 477.39C161.928 477.88 161.928 478.372 161.956 478.862Z" fill="#C6ED07"/>
<path d="M172.823 492.103L172.073 491.838L172.823 492.103Z" fill="#14899B"/>
<path d="M174.282 492.471L173.517 492.279L174.282 492.471Z" fill="#14899B"/>
<path d="M175.769 492.692L175.093 492.589L175.769 492.692Z" fill="#14899B"/>
<path d="M168.729 490.173L168.067 489.688L168.729 490.173Z" fill="#14899B"/>
<path d="M170.026 490.939C169.814 490.827 169.608 490.705 169.408 490.571C169.606 490.708 169.812 490.831 170.026 490.939Z" fill="#14899B"/>
<path d="M171.395 491.587C171.16 491.499 170.939 491.381 170.719 491.278C170.939 491.381 171.16 491.499 171.395 491.587Z" fill="#14899B"/>
<path d="M167.523 489.275C167.127 488.951 166.749 488.607 166.389 488.244C166.749 488.607 167.127 488.951 167.523 489.275Z" fill="#14899B"/>
<path d="M162.043 479.554C162.043 479.318 161.97 479.098 161.955 478.862C161.97 479.098 162.014 479.318 162.043 479.554Z" fill="#14899B"/>
<path d="M162.367 481.13C162.367 480.865 162.22 480.615 162.176 480.365C162.22 480.615 162.293 480.865 162.367 481.13Z" fill="#14899B"/>
<path d="M177.287 492.766H241.074C245.163 492.766 249.086 491.141 251.978 488.249C254.869 485.357 256.494 481.435 256.494 477.345C256.494 473.256 254.869 469.334 251.978 466.442C249.086 463.55 245.163 461.925 241.074 461.925H214.564L188.245 488.244C186.81 489.688 185.102 490.831 183.221 491.608C181.34 492.384 179.322 492.778 177.287 492.766Z" fill="#14899B"/>
<path d="M192.707 440.128V413.618C192.771 411.554 192.419 409.498 191.674 407.572C190.928 405.646 189.803 403.89 188.365 402.407C186.928 400.925 185.207 399.746 183.305 398.941C181.403 398.136 179.359 397.721 177.294 397.721C175.229 397.721 173.185 398.136 171.283 398.941C169.382 399.746 167.661 400.925 166.223 402.407C164.786 403.89 163.661 405.646 162.915 407.572C162.169 409.498 161.818 411.554 161.881 413.618V477.287C161.878 475.263 162.274 473.258 163.047 471.388C163.821 469.517 164.956 467.818 166.388 466.388L192.707 440.128Z" fill="#14899B"/>
<path d="M162.839 482.558C162.751 482.308 162.662 482.073 162.589 481.823C162.618 482.073 162.707 482.308 162.839 482.558Z" fill="#14899B"/>
<path d="M164.959 486.564C164.797 486.344 164.621 486.138 164.474 485.902C164.621 486.123 164.797 486.344 164.959 486.564Z" fill="#14899B"/>
<path d="M166.388 488.244C166.026 487.892 165.687 487.519 165.372 487.125C165.696 487.507 166.035 487.89 166.388 488.244Z" fill="#14899B"/>
<path d="M164.061 485.239L163.693 484.621L164.061 485.239Z" fill="#14899B"/>
<path d="M163.355 483.913L163.046 483.251L163.355 483.913Z" fill="#14899B"/>
<path d="M192.707 440.128L166.388 466.447C164.956 467.877 163.821 469.576 163.047 471.446C162.274 473.317 161.878 475.321 161.882 477.345C161.853 477.836 161.853 478.328 161.882 478.818C161.882 479.054 161.882 479.275 161.97 479.51C162.058 479.746 161.97 480.055 162.103 480.32C162.235 480.586 162.22 480.821 162.294 481.086C162.368 481.351 162.397 481.558 162.471 481.779C162.544 481.999 162.633 482.265 162.721 482.515C162.809 482.765 162.883 482.986 162.972 483.207L163.281 483.87L163.62 484.577L163.988 485.195C164.12 485.416 164.253 485.652 164.4 485.858C164.547 486.064 164.724 486.3 164.886 486.521C165.048 486.742 165.151 486.904 165.298 487.081C165.613 487.475 165.953 487.848 166.315 488.2C166.675 488.563 167.053 488.907 167.449 489.231L167.994 489.643L168.657 490.129C168.877 490.277 169.098 490.394 169.334 490.527C169.534 490.66 169.74 490.783 169.953 490.895C170.176 491.023 170.407 491.136 170.645 491.234C170.866 491.337 171.087 491.455 171.322 491.543C171.543 491.639 171.769 491.723 172 491.794L172.751 492.059C172.972 492.132 173.207 492.176 173.443 492.235L174.209 492.427L175.019 492.545L175.696 492.648C176.197 492.648 176.698 492.648 177.169 492.648C179.195 492.652 181.201 492.255 183.071 491.479C184.942 490.702 186.64 489.563 188.068 488.126L214.387 461.807H192.589L192.707 440.128Z" fill="#C6ED07"/>
<path d="M192.707 440.128L166.388 466.447C164.956 467.877 163.821 469.576 163.047 471.446C162.274 473.317 161.878 475.321 161.882 477.345C161.853 477.836 161.853 478.328 161.882 478.818C161.882 479.054 161.882 479.275 161.97 479.51C162.058 479.746 161.97 480.055 162.103 480.32C162.235 480.586 162.22 480.821 162.294 481.086C162.368 481.351 162.397 481.558 162.471 481.779C162.544 481.999 162.633 482.265 162.721 482.515C162.809 482.765 162.883 482.986 162.972 483.207L163.281 483.87L163.62 484.577L163.988 485.195C164.12 485.416 164.253 485.652 164.4 485.858C164.547 486.064 164.724 486.3 164.886 486.521C165.048 486.742 165.151 486.904 165.298 487.081C165.613 487.475 165.953 487.848 166.315 488.2C166.675 488.563 167.053 488.907 167.449 489.231L167.994 489.643L168.657 490.129C168.877 490.277 169.098 490.394 169.334 490.527C169.534 490.66 169.74 490.783 169.953 490.895C170.176 491.023 170.407 491.136 170.645 491.234C170.866 491.337 171.087 491.455 171.322 491.543C171.543 491.639 171.769 491.723 172 491.794L172.751 492.059C172.972 492.132 173.207 492.176 173.443 492.235L174.209 492.427L175.019 492.545L175.696 492.648C176.197 492.648 176.698 492.648 177.169 492.648C179.195 492.652 181.201 492.255 183.071 491.479C184.942 490.702 186.64 489.563 188.068 488.126L214.387 461.807H192.589L192.707 440.128Z" fill="#086E0F"/>
<path d="M98.5808 891.819C95.5324 891.817 92.5531 890.911 90.0191 889.217C87.4851 887.522 85.5102 885.115 84.3439 882.298C83.1776 879.482 82.8722 876.383 83.4664 873.393C84.0605 870.403 85.5275 867.657 87.6821 865.5L84.5451 868.622C80.1976 872.953 74.4913 875.653 68.3864 876.27C62.2814 876.887 56.1502 875.383 51.0243 872.01L50.9065 871.995L-6.28209 835.013C-17.3321 827.725 -30.5602 824.478 -43.729 825.819C-56.8978 827.161 -69.199 833.01 -78.552 842.377L-215.978 979.804C-218.796 982.709 -220.359 986.607 -220.329 990.654C-220.298 994.702 -218.678 998.576 -215.816 1001.44C-212.955 1004.3 -209.083 1005.93 -205.035 1005.96C-200.987 1005.99 -197.089 1004.43 -194.181 1001.62L-56.7547 864.175C-52.4002 859.85 -46.6911 857.155 -40.5851 856.541C-34.479 855.927 -28.3476 857.431 -23.2192 860.802L-23.0867 860.89L34.1019 897.872C45.1519 905.16 58.38 908.408 71.5489 907.066C84.7177 905.724 97.0188 899.875 106.372 890.508L127.168 869.712L109.494 887.386C108.058 888.808 106.354 889.932 104.481 890.693C102.608 891.454 100.602 891.837 98.5808 891.819Z" fill="#14899B"/>
<path d="M269.572 705.408H247.775L87.7266 865.5L105.4 847.827C106.832 846.395 108.533 845.259 110.404 844.483C112.275 843.708 114.281 843.309 116.306 843.309C118.332 843.309 120.337 843.708 122.208 844.483C124.08 845.259 125.78 846.395 127.212 847.827C128.644 849.259 129.78 850.959 130.556 852.831C131.331 854.702 131.73 856.707 131.73 858.733C131.73 860.758 131.331 862.764 130.556 864.635C129.78 866.506 128.644 868.207 127.212 869.639L269.631 727.22L269.572 705.408Z" fill="#6CCD18"/>
<path d="M127.153 847.826C124.258 844.94 120.336 843.32 116.247 843.32C112.159 843.32 108.237 844.94 105.341 847.826L87.6678 865.5C86.1644 866.915 84.9604 868.617 84.1272 870.506C83.294 872.394 82.8485 874.431 82.8172 876.495C82.7859 878.56 83.1694 880.609 83.9449 882.522C84.7204 884.435 85.8722 886.173 87.3319 887.633C88.7917 889.093 90.5297 890.245 92.4429 891.02C94.356 891.796 96.4054 892.179 98.4696 892.148C100.534 892.116 102.571 891.671 104.459 890.838C106.348 890.005 108.05 888.801 109.465 887.297L127.139 869.624C130.022 866.731 131.643 862.813 131.645 858.728C131.648 854.643 130.033 850.724 127.153 847.826Z" fill="#6CCD18"/>
<path d="M127.153 847.826C124.258 844.94 120.336 843.32 116.247 843.32C112.159 843.32 108.237 844.94 105.341 847.826L87.6678 865.5C86.1644 866.915 84.9604 868.617 84.1272 870.506C83.294 872.394 82.8485 874.431 82.8172 876.495C82.7859 878.56 83.1694 880.609 83.9449 882.522C84.7204 884.435 85.8722 886.173 87.3319 887.633C88.7917 889.093 90.5297 890.245 92.4429 891.02C94.356 891.796 96.4054 892.179 98.4696 892.148C100.534 892.116 102.571 891.671 104.459 890.838C106.348 890.005 108.05 888.801 109.465 887.297L127.139 869.624C130.022 866.731 131.643 862.813 131.645 858.728C131.648 854.643 130.033 850.724 127.153 847.826Z" fill="#086E0F"/>
<path d="M298.219 682.108L298.587 682.726L298.219 682.108Z" fill="#14899B"/>
<path d="M289.499 675.245L290.235 675.495L289.499 675.245Z" fill="#14899B"/>
<path d="M297.32 680.782C297.482 680.988 297.659 681.209 297.806 681.429C297.659 681.209 297.482 680.988 297.32 680.782Z" fill="#14899B"/>
<path d="M298.925 683.478L299.234 684.154L298.925 683.478Z" fill="#14899B"/>
<path d="M290.884 675.746L291.56 676.069L290.884 675.746Z" fill="#14899B"/>
<path d="M292.254 676.394L292.872 676.761L292.254 676.394Z" fill="#14899B"/>
<path d="M293.55 677.174L294.212 677.659L293.55 677.174Z" fill="#14899B"/>
<path d="M294.757 678.072C295.14 678.382 295.508 678.72 295.876 679.074C295.523 678.72 295.14 678.396 294.757 678.072Z" fill="#14899B"/>
<path d="M295.906 679.059C296.259 679.409 296.594 679.778 296.908 680.164C296.594 679.778 296.259 679.409 295.906 679.059Z" fill="#14899B"/>
<path d="M299.485 684.773C299.574 685.024 299.662 685.274 299.735 685.524C299.662 685.274 299.574 685.024 299.485 684.773Z" fill="#14899B"/>
<path d="M286.554 674.641C286.781 674.661 287.007 674.695 287.23 674.744C287.007 674.694 286.781 674.659 286.554 674.641Z" fill="#14899B"/>
<path d="M284.993 674.641H224.52C220.515 674.765 216.715 676.443 213.925 679.32C211.136 682.197 209.576 686.047 209.576 690.054C209.576 694.061 211.136 697.911 213.925 700.788C216.715 703.665 220.515 705.343 224.52 705.467H247.775L274.094 679.059C275.531 677.643 277.234 676.524 279.104 675.766C280.974 675.008 282.975 674.626 284.993 674.641Z" fill="#14899B"/>
<path d="M288.026 674.876C288.285 674.925 288.54 674.988 288.791 675.068C288.54 674.988 288.285 674.925 288.026 674.876Z" fill="#14899B"/>
<path d="M299.912 686.217C299.991 686.468 300.055 686.723 300.103 686.982C300.055 686.723 299.991 686.468 299.912 686.217Z" fill="#14899B"/>
<path d="M269.572 727.22V750.46C269.696 754.465 271.374 758.265 274.251 761.055C277.128 763.844 280.978 765.404 284.985 765.404C288.992 765.404 292.842 763.844 295.719 761.055C298.596 758.265 300.274 754.465 300.398 750.46V689.987C300.4 692.013 300.004 694.02 299.23 695.892C298.457 697.765 297.322 699.467 295.891 700.901L269.572 727.22Z" fill="#14899B"/>
<path d="M300.236 687.793C300.236 688.014 300.31 688.249 300.325 688.47C300.31 688.249 300.266 688.014 300.236 687.793Z" fill="#14899B"/>
<path d="M284.992 674.641C285.508 674.641 286.008 674.641 286.465 674.714C286.008 674.641 285.493 674.641 284.992 674.641Z" fill="#6CCD18"/>
<path d="M287.188 674.759C287.459 674.783 287.729 674.822 287.997 674.876C287.729 674.822 287.459 674.783 287.188 674.759Z" fill="#6CCD18"/>
<path d="M288.763 675.068L289.469 675.244L288.763 675.068Z" fill="#6CCD18"/>
<path d="M292.872 676.762L293.549 677.174L292.872 676.762Z" fill="#6CCD18"/>
<path d="M291.562 676.114L292.253 676.437L291.562 676.114Z" fill="#6CCD18"/>
<path d="M290.206 675.495L290.883 675.745L290.206 675.495Z" fill="#6CCD18"/>
<path d="M299.809 685.525C299.809 685.746 299.926 685.981 299.985 686.216C299.942 685.982 299.883 685.751 299.809 685.525Z" fill="#6CCD18"/>
<path d="M300.104 686.983C300.104 687.248 300.192 687.512 300.236 687.792C300.192 687.512 300.162 687.248 300.104 686.983Z" fill="#6CCD18"/>
<path d="M300.324 688.47C300.352 688.961 300.352 689.452 300.324 689.943C300.352 689.452 300.352 688.961 300.324 688.47Z" fill="#6CCD18"/>
<path d="M294.213 677.66L294.757 678.072L294.213 677.66Z" fill="#6CCD18"/>
<path d="M299.234 684.096C299.323 684.317 299.396 684.552 299.485 684.773C299.396 684.552 299.323 684.317 299.234 684.096Z" fill="#6CCD18"/>
<path d="M296.863 680.223C297.01 680.399 297.143 680.59 297.275 680.782C297.187 680.532 297.055 680.399 296.863 680.223Z" fill="#6CCD18"/>
<path d="M297.807 681.431C297.954 681.651 298.086 681.887 298.218 682.107C298.086 681.887 297.954 681.651 297.807 681.431Z" fill="#6CCD18"/>
<path d="M298.586 682.727C298.704 682.947 298.807 683.197 298.924 683.418C298.807 683.197 298.704 682.962 298.586 682.727Z" fill="#6CCD18"/>
<path d="M300.324 688.471C300.324 688.25 300.324 688.014 300.236 687.793C300.147 687.572 300.236 687.248 300.103 686.983C300.055 686.724 299.991 686.468 299.912 686.217C299.912 685.982 299.809 685.746 299.735 685.525C299.661 685.304 299.573 685.024 299.485 684.774C299.396 684.523 299.323 684.317 299.234 684.096L298.925 683.419C298.807 683.198 298.704 682.948 298.586 682.727L298.218 682.108C298.086 681.887 297.953 681.652 297.806 681.431C297.658 681.21 297.482 680.989 297.32 680.783C297.158 680.576 297.055 680.4 296.907 680.223C296.593 679.837 296.259 679.469 295.906 679.118C295.538 678.765 295.169 678.426 294.787 678.117L294.242 677.704L293.579 677.218L292.901 676.806L292.283 676.438L291.591 676.114L290.913 675.79L290.236 675.539L289.499 675.289L288.792 675.112C288.541 675.033 288.285 674.969 288.026 674.921C287.759 674.866 287.488 674.827 287.216 674.803C286.999 674.735 286.778 674.681 286.554 674.641C286.053 674.641 285.552 674.567 285.081 674.567C283.057 674.564 281.052 674.96 279.182 675.733C277.311 676.507 275.612 677.642 274.182 679.074L247.863 705.393H269.661V727.22L295.979 700.901C297.411 699.467 298.545 697.765 299.319 695.893C300.092 694.02 300.489 692.014 300.486 689.988C300.462 689.479 300.408 688.973 300.324 688.471Z" fill="#6CCD18"/>
<path d="M300.324 688.471C300.324 688.25 300.324 688.014 300.236 687.793C300.147 687.572 300.236 687.248 300.103 686.983C300.055 686.724 299.991 686.468 299.912 686.217C299.912 685.982 299.809 685.746 299.735 685.525C299.661 685.304 299.573 685.024 299.485 684.774C299.396 684.523 299.323 684.317 299.234 684.096L298.925 683.419C298.807 683.198 298.704 682.948 298.586 682.727L298.218 682.108C298.086 681.887 297.953 681.652 297.806 681.431C297.658 681.21 297.482 680.989 297.32 680.783C297.158 680.576 297.055 680.4 296.907 680.223C296.593 679.837 296.259 679.469 295.906 679.118C295.538 678.765 295.169 678.426 294.787 678.117L294.242 677.704L293.579 677.218L292.901 676.806L292.283 676.438L291.591 676.114L290.913 675.79L290.236 675.539L289.499 675.289L288.792 675.112C288.541 675.033 288.285 674.969 288.026 674.921C287.759 674.866 287.488 674.827 287.216 674.803C286.999 674.735 286.778 674.681 286.554 674.641C286.053 674.641 285.552 674.567 285.081 674.567C283.057 674.564 281.052 674.96 279.182 675.733C277.311 676.507 275.612 677.642 274.182 679.074L247.863 705.393H269.661V727.22L295.979 700.901C297.411 699.467 298.545 697.765 299.319 695.893C300.092 694.02 300.489 692.014 300.486 689.988C300.462 689.479 300.408 688.973 300.324 688.471Z" fill="#007400"/>
<path d="M-299.883 975.798C-300.132 975.791 -300.368 975.691 -300.546 975.518C-300.717 975.34 -300.812 975.102 -300.812 974.855C-300.812 974.608 -300.717 974.371 -300.546 974.192L25.3831 648.278C25.4695 648.19 25.5726 648.12 25.6864 648.072C25.8002 648.024 25.9224 648 26.0459 648C26.1693 648 26.2915 648.024 26.4053 648.072C26.5191 648.12 26.6223 648.19 26.7086 648.278C26.8796 648.456 26.9751 648.694 26.9751 648.941C26.9751 649.188 26.8796 649.425 26.7086 649.604L-299.221 975.518C-299.396 975.695 -299.634 975.796 -299.883 975.798Z" fill="white"/>
<path d="M26.9001 653.462L34.2346 640.737L21.5244 648.087L26.9001 653.462Z" fill="white"/>
<path d="M160.586 971.983C160.4 971.985 160.215 971.95 160.043 971.879C159.871 971.808 159.715 971.703 159.584 971.571C159.336 971.299 159.198 970.945 159.198 970.577C159.198 970.209 159.336 969.854 159.584 969.583L335.657 793.525C335.927 793.281 336.279 793.146 336.644 793.146C337.008 793.146 337.36 793.281 337.63 793.525C337.879 793.796 338.016 794.151 338.016 794.519C338.016 794.887 337.879 795.242 337.63 795.513L161.573 971.571C161.444 971.702 161.29 971.805 161.121 971.876C160.951 971.947 160.769 971.983 160.586 971.983Z" fill="white"/>
<path d="M337.925 801.301L348.942 782.229L329.869 793.23L337.925 801.301Z" fill="white"/>
<path d="M215.08 653.3C214.896 653.3 214.715 653.264 214.545 653.193C214.376 653.122 214.222 653.019 214.093 652.888C213.845 652.616 213.707 652.262 213.707 651.894C213.707 651.526 213.845 651.171 214.093 650.9L649.731 215.277C649.856 215.131 650.011 215.013 650.184 214.93C650.358 214.847 650.546 214.801 650.738 214.794C650.93 214.787 651.122 214.82 651.301 214.89C651.48 214.96 651.642 215.067 651.778 215.203C651.914 215.339 652.021 215.501 652.091 215.68C652.161 215.859 652.194 216.051 652.187 216.243C652.18 216.435 652.134 216.623 652.051 216.797C651.967 216.97 651.85 217.125 651.704 217.25L216.081 652.888C215.951 653.02 215.795 653.125 215.623 653.196C215.451 653.267 215.266 653.302 215.08 653.3Z" fill="white"/>
<path d="M213.798 645.111L202.796 664.184L221.869 653.182L213.798 645.111Z" fill="white"/>
<path d="M102.735 407.123C102.428 407.126 102.124 407.068 101.841 406.952C101.558 406.835 101.301 406.663 101.085 406.445C100.868 406.229 100.695 405.972 100.578 405.689C100.46 405.406 100.399 405.102 100.399 404.796C100.399 404.489 100.46 404.186 100.578 403.902C100.695 403.619 100.868 403.362 101.085 403.146L272.829 241.387C273.276 240.99 273.858 240.779 274.456 240.797C275.054 240.815 275.622 241.062 276.044 241.485C276.466 241.909 276.71 242.479 276.726 243.077C276.741 243.675 276.527 244.256 276.128 244.701L104.384 406.445C104.167 406.661 103.91 406.832 103.627 406.948C103.344 407.064 103.041 407.124 102.735 407.123Z" fill="white"/>
<path d="M100.599 393.484L82.2334 425.267L114.031 406.931L100.599 393.484Z" fill="white"/>
<path d="M382.02 414.384C381.758 414.355 381.508 414.256 381.297 414.097C381.086 413.939 380.922 413.727 380.821 413.483C380.72 413.239 380.686 412.973 380.724 412.711C380.761 412.45 380.868 412.204 381.033 411.998L505.693 287.324C505.8 287.119 505.954 286.943 506.142 286.808C506.33 286.674 506.547 286.586 506.775 286.551C507.004 286.517 507.237 286.536 507.456 286.608C507.676 286.68 507.875 286.803 508.039 286.966C508.202 287.129 508.325 287.329 508.397 287.548C508.469 287.768 508.488 288.001 508.453 288.229C508.418 288.458 508.33 288.675 508.196 288.863C508.062 289.051 507.886 289.205 507.681 289.312L383.022 413.957C382.892 414.092 382.737 414.199 382.565 414.273C382.392 414.346 382.207 414.384 382.02 414.384Z" fill="white"/>
<path d="M380.738 406.209L369.722 425.282L388.809 414.266L380.738 406.209Z" fill="white"/>
<path d="M112.131 491.823C112.234 492.059 112.307 492.294 112.396 492.515C112.307 492.294 112.234 492.014 112.131 491.823Z" fill="#015A00"/>
<path d="M105.783 484.503L106.46 484.901C106.239 484.754 106.004 484.651 105.783 484.503Z" fill="#015A00"/>
<path d="M109.818 487.95L110.23 488.509L109.818 487.95Z" fill="#015A00"/>
<path d="M110.717 489.172C110.864 489.378 110.982 489.613 111.129 489.849C110.982 489.613 110.864 489.393 110.717 489.172Z" fill="#015A00"/>
<path d="M111.482 490.453C111.607 490.683 111.72 490.918 111.821 491.159C111.72 490.918 111.607 490.683 111.482 490.453Z" fill="#015A00"/>
<path d="M107.109 485.387C107.286 485.519 107.492 485.652 107.668 485.799L107.109 485.387Z" fill="#015A00"/>
<path d="M100.098 482.485L100.907 482.603L100.098 482.485Z" fill="#015A00"/>
<path d="M97.8887 482.309C98.4041 482.309 98.9196 482.309 99.3615 482.382C98.9049 482.338 98.4041 482.309 97.8887 482.309Z" fill="#015A00"/>
<path d="M101.674 482.795L102.365 482.971L101.674 482.795Z" fill="#015A00"/>
<path d="M104.457 483.796L105.163 484.135C104.934 484.01 104.698 483.897 104.457 483.796Z" fill="#015A00"/>
<path d="M103.103 483.178L103.794 483.428C103.568 483.332 103.338 483.248 103.103 483.178Z" fill="#015A00"/>
<path d="M60.6717 513.149L-128.361 702.182L-108.39 682.211C-106.975 680.708 -105.273 679.504 -103.384 678.67C-101.496 677.837 -99.4589 677.392 -97.3947 677.36C-95.3306 677.329 -93.2811 677.712 -91.368 678.488C-89.4548 679.264 -87.7168 680.415 -86.2571 681.875C-84.7974 683.335 -83.6456 685.073 -82.87 686.986C-82.0945 688.899 -81.7111 690.949 -81.7424 693.013C-81.7737 695.077 -82.2192 697.114 -83.0524 699.002C-83.8856 700.891 -85.0895 702.593 -86.5929 704.008L82.4837 534.946V513.149H60.6717Z" fill="#015A00"/>
<path d="M113.015 494.709C113.015 494.989 113.103 495.254 113.132 495.533C113.103 495.254 113.059 494.96 113.015 494.709Z" fill="#015A00"/>
<path d="M112.646 493.251C112.72 493.487 112.764 493.722 112.823 493.958C112.764 493.722 112.764 493.487 112.646 493.251Z" fill="#015A00"/>
<path d="M105.164 484.135C105.376 484.247 105.583 484.37 105.782 484.503C105.583 484.37 105.376 484.247 105.164 484.135Z" fill="#C6ED07"/>
<path d="M97.889 482.309H9.03538C4.9457 482.309 1.02352 483.933 -1.86831 486.825C-4.76015 489.717 -6.38477 493.639 -6.38477 497.729C-6.38477 501.818 -4.76015 505.741 -1.86831 508.632C1.02352 511.524 4.9457 513.149 9.03538 513.149H60.6715L86.9903 486.83C88.4188 485.395 90.1173 484.256 91.9878 483.48C93.8583 482.704 95.8639 482.306 97.889 482.309Z" fill="#C6ED07"/>
<path d="M103.795 483.487L104.457 483.796L103.795 483.487Z" fill="#C6ED07"/>
<path d="M99.4209 482.382L100.098 482.485L99.4209 482.382Z" fill="#C6ED07"/>
<path d="M108.788 508.628L82.4839 534.946V586.583C82.4201 588.647 82.7716 590.703 83.5174 592.628C84.2633 594.554 85.3883 596.31 86.8258 597.793C88.2633 599.276 89.984 600.454 91.8857 601.259C93.7875 602.064 95.8316 602.479 97.8967 602.479C99.9619 602.479 102.006 602.064 103.908 601.259C105.809 600.454 107.53 599.276 108.968 597.793C110.405 596.31 111.53 594.554 112.276 592.628C113.022 590.703 113.373 588.647 113.309 586.583V497.729C113.314 499.754 112.916 501.76 112.14 503.631C111.364 505.502 110.225 507.2 108.788 508.628Z" fill="#C6ED07"/>
<path d="M112.396 492.515C112.396 492.765 112.573 493.001 112.647 493.251C112.573 493.001 112.47 492.765 112.396 492.515Z" fill="#C6ED07"/>
<path d="M102.366 482.972C102.616 482.972 102.852 483.148 103.102 483.236C102.852 483.178 102.616 483.045 102.366 482.972Z" fill="#C6ED07"/>
<path d="M100.982 482.604L101.747 482.795L100.982 482.604Z" fill="#C6ED07"/>
<path d="M110.231 488.509C110.393 488.73 110.57 488.951 110.717 489.171C110.57 488.936 110.393 488.73 110.231 488.509Z" fill="#C6ED07"/>
<path d="M112.764 493.958C112.764 494.209 112.896 494.459 112.955 494.709C112.955 494.459 112.881 494.209 112.764 493.958Z" fill="#C6ED07"/>
<path d="M111.13 489.85C111.248 490.056 111.38 490.247 111.483 490.453C111.38 490.247 111.292 490.056 111.13 489.85Z" fill="#C6ED07"/>
<path d="M106.46 484.901L107.107 485.386L106.46 484.901Z" fill="#C6ED07"/>
<path d="M111.821 491.16C111.924 491.381 112.042 491.601 112.13 491.822C112.042 491.601 111.924 491.381 111.821 491.16Z" fill="#C6ED07"/>
<path d="M107.668 485.799C108.036 486.109 108.404 486.447 108.758 486.801C108.412 486.448 108.048 486.114 107.668 485.799Z" fill="#C6ED07"/>
<path d="M113.133 495.535C113.133 495.755 113.133 495.976 113.236 496.211C113.206 495.976 113.162 495.755 113.133 495.535Z" fill="#C6ED07"/>
<path d="M108.832 486.86C109.171 487.213 109.509 487.582 109.819 487.95C109.509 487.596 109.171 487.213 108.832 486.86Z" fill="#C6ED07"/>
<path d="M113.309 497.729C113.309 497.214 113.309 496.713 113.309 496.256C113.309 496.021 113.235 495.8 113.206 495.579C113.176 495.358 113.206 495.034 113.088 494.754C112.97 494.474 112.955 494.253 112.896 494.003C112.838 493.753 112.793 493.532 112.72 493.296C112.646 493.06 112.543 492.81 112.469 492.56C112.396 492.309 112.307 492.103 112.204 491.867C112.101 491.632 111.998 491.426 111.895 491.205C111.794 490.963 111.681 490.728 111.556 490.498C111.453 490.292 111.321 490.1 111.203 489.894C111.085 489.688 110.938 489.423 110.79 489.216C110.643 489.01 110.466 488.775 110.304 488.554L109.892 487.994C109.583 487.626 109.244 487.258 108.905 486.904H108.832C108.478 486.551 108.11 486.212 107.742 485.903C107.374 485.593 107.359 485.623 107.182 485.49L106.534 485.004L105.856 484.607C105.657 484.473 105.45 484.35 105.238 484.238L104.531 483.9L103.868 483.59L103.176 483.34C102.926 483.252 102.69 483.149 102.44 483.075L101.747 482.898L100.982 482.707L100.172 482.589L99.494 482.486C98.9933 482.486 98.4778 482.412 98.0212 482.412C95.9961 482.409 93.9905 482.808 92.12 483.584C90.2495 484.36 88.5511 485.498 87.1226 486.934L60.8037 513.252H82.6159V535.05L108.92 508.731C110.345 507.28 111.467 505.56 112.221 503.671C112.974 501.783 113.344 499.763 113.309 497.729Z" fill="#015A00"/>
<path d="M113.309 497.729C113.309 497.214 113.309 496.713 113.309 496.256C113.309 496.021 113.235 495.8 113.206 495.579C113.176 495.358 113.206 495.034 113.088 494.754C112.97 494.474 112.955 494.253 112.896 494.003C112.838 493.753 112.793 493.532 112.72 493.296C112.646 493.06 112.543 492.81 112.469 492.56C112.396 492.309 112.307 492.103 112.204 491.867C112.101 491.632 111.998 491.426 111.895 491.205C111.794 490.963 111.681 490.728 111.556 490.498C111.453 490.292 111.321 490.1 111.203 489.894C111.085 489.688 110.938 489.423 110.79 489.216C110.643 489.01 110.466 488.775 110.304 488.554L109.892 487.994C109.583 487.626 109.244 487.258 108.905 486.904H108.832C108.478 486.551 108.11 486.212 107.742 485.903C107.374 485.593 107.359 485.623 107.182 485.49L106.534 485.004L105.856 484.607C105.657 484.473 105.45 484.35 105.238 484.238L104.531 483.9L103.868 483.59L103.176 483.34C102.926 483.252 102.69 483.149 102.44 483.075L101.747 482.898L100.982 482.707L100.172 482.589L99.494 482.486C98.9933 482.486 98.4778 482.412 98.0212 482.412C95.9961 482.409 93.9905 482.808 92.12 483.584C90.2495 484.36 88.5511 485.498 87.1226 486.934L60.8037 513.252H82.6159V535.05L108.92 508.731C110.345 507.28 111.467 505.56 112.221 503.671C112.974 501.783 113.344 499.763 113.309 497.729Z" fill="#63BC0B"/>
<path d="M10.4203 698.972H-50.0379C-54.1275 698.972 -58.0497 700.596 -60.9416 703.488C-63.8334 706.38 -65.458 710.302 -65.458 714.392C-65.458 718.482 -63.8334 722.404 -60.9416 725.296C-58.0497 728.187 -54.1275 729.812 -50.0379 729.812H-26.7972L-0.478378 703.493C0.95105 702.059 2.64968 700.921 4.51999 700.145C6.39029 699.369 8.39546 698.971 10.4203 698.972Z" fill="#C6ED07"/>
<path d="M69.7139 587.746C69.5301 587.748 69.3477 587.712 69.1781 587.641C69.0084 587.57 68.855 587.466 68.7271 587.334C68.4828 587.063 68.3477 586.711 68.3477 586.347C68.3477 585.982 68.4828 585.631 68.7271 585.36L424.467 229.679C424.738 229.431 425.093 229.293 425.461 229.293C425.829 229.293 426.184 229.431 426.455 229.679C426.699 229.95 426.835 230.301 426.835 230.666C426.835 231.03 426.699 231.382 426.455 231.653L70.7007 587.392C70.5679 587.514 70.4123 587.608 70.2429 587.668C70.0734 587.729 69.8936 587.755 69.7139 587.746Z" fill="white"/>
<path d="M68.4326 579.631L57.416 598.704L76.5034 587.687L68.4326 579.631Z" fill="white"/>
</svg>
