<svg width="751" height="665" viewBox="0 0 751 665" fill="none" xmlns="http://www.w3.org/2000/svg">
<path d="M736.662 540.515C736.758 540.736 736.842 540.962 736.912 541.192C736.842 540.962 736.758 540.736 736.662 540.515Z" fill="#C42A56"/>
<path d="M736.014 539.131C736.141 539.354 736.254 539.585 736.352 539.822C736.254 539.585 736.141 539.354 736.014 539.131Z" fill="#C42A56"/>
<path d="M727.633 531.899L728.324 532.15L727.633 531.899Z" fill="#C42A56"/>
<path d="M735.248 537.834C735.395 538.055 735.513 538.276 735.66 538.511C735.513 538.276 735.395 538.055 735.248 537.834Z" fill="#C42A56"/>
<path d="M730.314 533.151L730.991 533.563L730.314 533.151Z" fill="#C42A56"/>
<path d="M731.654 534.064L732.199 534.476L731.654 534.064Z" fill="#C42A56"/>
<path d="M729.033 532.459L729.739 532.797L729.033 532.459Z" fill="#C42A56"/>
<path d="M737.177 541.988C737.25 542.223 737.294 542.459 737.353 542.679C737.294 542.385 737.25 542.15 737.177 541.988Z" fill="#C42A56"/>
<path d="M734.35 536.627C734.497 536.803 734.629 536.995 734.762 537.171C734.629 536.995 734.497 536.803 734.35 536.627Z" fill="#C42A56"/>
<path d="M685.203 561.812L599.869 647.145C595.518 651.474 589.809 654.174 583.703 654.791C577.596 655.407 571.463 653.904 566.334 650.533L490.249 600.178C479.202 592.86 465.964 589.586 452.78 590.912C439.595 592.238 427.274 598.082 417.906 607.453L280.479 744.894C278.976 746.309 277.772 748.011 276.939 749.9C276.106 751.789 275.66 753.826 275.629 755.89C275.597 757.954 275.981 760.004 276.756 761.917C277.532 763.83 278.684 765.568 280.143 767.028C281.603 768.487 283.341 769.639 285.254 770.415C287.167 771.19 289.217 771.574 291.281 771.542C293.345 771.511 295.382 771.066 297.271 770.232C299.16 769.399 300.862 768.195 302.277 766.692L439.718 629.265C444.072 624.944 449.782 622.255 455.887 621.648C461.992 621.042 468.119 622.557 473.238 625.937L549.352 676.233C560.399 683.551 573.637 686.825 586.822 685.499C600.007 684.173 612.327 678.329 621.696 668.957L707.044 583.609V561.812H685.203Z" fill="#C42A56"/>
<path d="M724.614 531.148C724.894 531.148 725.173 531.222 725.438 531.281L724.614 531.148Z" fill="#C42A56"/>
<path d="M723.951 531.045C723.436 531.045 722.935 530.972 722.479 530.972C722.935 530.972 723.451 531.001 723.951 531.045Z" fill="#C42A56"/>
<path d="M737.545 543.372C737.545 543.652 737.633 543.916 737.663 544.196C737.633 543.916 737.589 543.652 737.545 543.372Z" fill="#C42A56"/>
<path d="M726.205 531.458L726.896 531.634L726.205 531.458Z" fill="#C42A56"/>
<path d="M737.767 544.934C737.767 545.434 737.84 545.935 737.84 546.406C737.87 545.891 737.87 545.375 737.767 544.934Z" fill="#C42A56"/>
<path d="M723.951 531.045L724.613 531.148L723.951 531.045Z" fill="#C6ED07"/>
<path d="M730.991 533.578C731.217 533.725 731.437 533.887 731.653 534.064C731.437 533.887 731.217 533.725 730.991 533.578Z" fill="#C6ED07"/>
<path d="M726.896 531.678C727.147 531.678 727.382 531.855 727.632 531.943L726.896 531.678Z" fill="#C6ED07"/>
<path d="M725.439 531.281L726.204 531.457L725.439 531.281Z" fill="#C6ED07"/>
<path d="M729.695 532.798L730.313 533.166L729.695 532.798Z" fill="#C6ED07"/>
<path d="M728.326 532.15L728.988 532.459L728.326 532.15Z" fill="#C6ED07"/>
<path d="M737.663 544.197C737.663 544.418 737.737 544.639 737.766 544.874C737.737 544.639 737.693 544.418 737.663 544.197Z" fill="#C6ED07"/>
<path d="M737.354 542.606C737.354 542.871 737.486 543.121 737.545 543.371C737.486 543.121 737.412 542.871 737.354 542.606Z" fill="#C6ED07"/>
<path d="M736.912 541.178C737 541.428 737.103 541.663 737.177 541.913C737.103 541.663 737 541.428 736.912 541.178Z" fill="#C6ED07"/>
<path d="M733.318 557.29L707.014 583.609V606.791C707.014 610.882 708.639 614.806 711.532 617.7C714.426 620.593 718.35 622.218 722.441 622.218C726.533 622.218 730.457 620.593 733.35 617.7C736.243 614.806 737.869 610.882 737.869 606.791V546.406C737.867 548.431 737.464 550.436 736.683 552.304C735.902 554.172 734.758 555.867 733.318 557.29Z" fill="#C6ED07"/>
<path d="M733.348 535.508C733.701 535.861 734.025 536.244 734.349 536.627C734.035 536.237 733.7 535.864 733.348 535.508Z" fill="#C6ED07"/>
<path d="M736.396 539.823C736.499 540.043 736.617 540.264 736.705 540.499C736.573 540.264 736.396 540.043 736.396 539.823Z" fill="#C6ED07"/>
<path d="M734.762 537.172C734.924 537.393 735.1 537.613 735.247 537.834C735.085 537.569 734.924 537.393 734.762 537.172Z" fill="#C6ED07"/>
<path d="M732.199 534.477C732.585 534.791 732.954 535.125 733.304 535.478C732.954 535.125 732.585 534.791 732.199 534.477Z" fill="#C6ED07"/>
<path d="M735.66 538.512C735.778 538.718 735.91 538.909 736.013 539.13C735.91 538.909 735.778 538.718 735.66 538.512Z" fill="#C6ED07"/>
<path d="M737.87 546.406C737.87 545.891 737.87 545.39 737.796 544.933C737.796 544.698 737.722 544.477 737.693 544.256C737.663 544.035 737.619 543.711 737.575 543.431C737.531 543.151 737.442 542.93 737.384 542.665C737.325 542.4 737.28 542.209 737.207 541.973C737.133 541.737 737.03 541.487 736.942 541.237C736.871 541.006 736.788 540.78 736.691 540.559C736.603 540.323 736.485 540.103 736.382 539.882C736.284 539.644 736.171 539.413 736.043 539.189C735.94 538.969 735.808 538.777 735.69 538.571C735.572 538.365 735.425 538.114 735.277 537.893C735.13 537.672 734.953 537.451 734.791 537.231C734.629 537.01 734.526 536.862 734.379 536.686C734.232 536.509 733.731 535.92 733.378 535.566C733.027 535.213 732.658 534.879 732.273 534.565L731.728 534.152C731.512 533.976 731.291 533.814 731.065 533.666L730.388 533.254L729.769 532.886L729.062 532.547L728.399 532.238L727.707 531.987C727.457 531.899 727.221 531.796 726.971 531.722L726.279 531.546L725.513 531.369C725.248 531.369 724.968 531.281 724.688 531.236L724.025 531.133C723.525 531.133 723.009 531.06 722.552 531.06C720.528 531.058 718.522 531.457 716.652 532.233C714.782 533.009 713.083 534.147 711.654 535.581L685.335 561.9H707.147V583.697L733.451 557.378C734.878 555.934 736.004 554.22 736.762 552.336C737.521 550.452 737.897 548.437 737.87 546.406Z" fill="#C42A56"/>
<path d="M737.87 546.406C737.87 545.891 737.87 545.39 737.796 544.933C737.796 544.698 737.722 544.477 737.693 544.256C737.663 544.035 737.619 543.711 737.575 543.431C737.531 543.151 737.442 542.93 737.384 542.665C737.325 542.4 737.28 542.209 737.207 541.973C737.133 541.737 737.03 541.487 736.942 541.237C736.871 541.006 736.788 540.78 736.691 540.559C736.603 540.323 736.485 540.103 736.382 539.882C736.284 539.644 736.171 539.413 736.043 539.189C735.94 538.969 735.808 538.777 735.69 538.571C735.572 538.365 735.425 538.114 735.277 537.893C735.13 537.672 734.953 537.451 734.791 537.231C734.629 537.01 734.526 536.862 734.379 536.686C734.232 536.509 733.731 535.92 733.378 535.566C733.027 535.213 732.658 534.879 732.273 534.565L731.728 534.152C731.512 533.976 731.291 533.814 731.065 533.666L730.388 533.254L729.769 532.886L729.062 532.547L728.399 532.238L727.707 531.987C727.457 531.899 727.221 531.796 726.971 531.722L726.279 531.546L725.513 531.369C725.248 531.369 724.968 531.281 724.688 531.236L724.025 531.133C723.525 531.133 723.009 531.06 722.552 531.06C720.528 531.058 718.522 531.457 716.652 532.233C714.782 533.009 713.083 534.147 711.654 535.581L685.335 561.9H707.147V583.697L733.451 557.378C734.878 555.934 736.004 554.22 736.762 552.336C737.521 550.452 737.897 548.437 737.87 546.406Z" fill="#E24F10"/>
<path d="M615.333 382.234C615.209 382.234 615.087 382.209 614.973 382.161C614.859 382.113 614.756 382.043 614.67 381.954C614.499 381.776 614.403 381.539 614.403 381.292C614.403 381.045 614.499 380.807 614.67 380.629L995.033 0.279958C995.12 0.191785 995.223 0.121737 995.337 0.0739168C995.451 0.0260964 995.573 0.00146484 995.696 0.00146484C995.82 0.00146484 995.942 0.0260964 996.056 0.0739168C996.169 0.121737 996.273 0.191785 996.359 0.279958C996.447 0.365077 996.516 0.466947 996.564 0.579528C996.612 0.692108 996.636 0.813107 996.636 0.935351C996.636 1.05759 996.612 1.17859 996.564 1.29117C996.516 1.40375 996.447 1.50562 996.359 1.59074L615.995 381.954C615.91 382.044 615.807 382.115 615.693 382.163C615.579 382.212 615.456 382.236 615.333 382.234Z" fill="white"/>
<path d="M614.479 376.77L607.145 389.495L619.855 382.146L614.479 376.77Z" fill="white"/>
<path d="M801.42 89.4278H741.035C738.971 89.364 736.915 89.7154 734.99 90.4613C733.064 91.2071 731.308 92.3322 729.825 93.7697C728.342 95.2072 727.163 96.9279 726.358 98.8296C725.553 100.731 725.139 102.775 725.139 104.841C725.139 106.906 725.553 108.95 726.358 110.851C727.163 112.753 728.342 114.474 729.825 115.911C731.308 117.349 733.064 118.474 734.99 119.22C736.915 119.966 738.971 120.317 741.035 120.253H764.276L790.595 93.9345C793.465 91.06 797.358 89.4396 801.42 89.4278Z" fill="#019002"/>
<path d="M764.203 120.253L626.953 257.503C621.614 262.837 617.378 269.172 614.488 276.144C611.598 283.116 610.111 290.59 610.111 298.137C610.111 305.685 611.598 313.158 614.488 320.131C617.378 327.103 621.614 333.437 626.953 338.772L631.475 343.293C633.949 345.765 635.912 348.7 637.252 351.931C638.591 355.162 639.281 358.625 639.281 362.123C639.281 365.62 638.591 369.084 637.252 372.315C635.912 375.546 633.949 378.481 631.475 380.953L526.229 486.198C521.423 490.996 514.967 493.779 508.179 493.979C501.392 494.178 494.783 491.78 489.704 487.273L444.592 447.169C433.641 437.426 419.379 432.239 404.728 432.669C390.077 433.098 376.144 439.113 365.783 449.482L320.126 495.138C323.262 492.971 327.089 492.043 330.869 492.534C334.648 493.024 338.112 494.898 340.59 497.794C343.069 500.69 344.385 504.402 344.286 508.212C344.187 512.022 342.679 515.66 340.053 518.423L315.016 543.858L387.58 471.294C392.386 466.496 398.842 463.713 405.63 463.513C412.417 463.314 419.026 465.712 424.105 470.219L469.217 510.323C480.178 520.046 494.435 525.22 509.08 524.79C523.725 524.361 537.655 518.359 548.026 508.01L653.272 402.765C658.611 397.43 662.847 391.096 665.737 384.124C668.627 377.151 670.114 369.678 670.114 362.13C670.114 354.583 668.627 347.109 665.737 340.137C662.847 333.165 658.611 326.83 653.272 321.496L648.751 316.974C643.76 311.979 640.957 305.206 640.957 298.145C640.957 291.083 643.76 284.311 648.751 279.315L786 142.08V120.253H764.203Z" fill="#6CCD00"/>
<path d="M291.612 523.666L291.406 523.887L293.056 522.223L291.612 523.666Z" fill="#6CCD18"/>
<path d="M318.123 496.832L293.086 522.223L320.23 495.08C319.474 495.596 318.769 496.183 318.123 496.832Z" fill="#C6ED07"/>
<path d="M302.496 549.985C299.475 549.981 296.522 549.09 294.003 547.422C291.484 545.754 289.51 543.382 288.327 540.603C287.145 537.823 286.804 534.756 287.349 531.785C287.894 528.813 289.299 526.067 291.392 523.887L92.3141 725.66C90.8221 727.085 89.6314 728.796 88.8124 730.689C87.9935 732.583 87.563 734.622 87.5464 736.686C87.5298 738.749 87.9275 740.795 88.7159 742.702C89.5043 744.608 90.6674 746.338 92.1363 747.787C93.6051 749.236 95.3499 750.375 97.2672 751.138C99.1845 751.901 101.235 752.271 103.298 752.226C105.361 752.182 107.394 751.724 109.277 750.879C111.16 750.035 112.854 748.821 114.259 747.31L314.941 544.064L313.395 545.611C311.955 547.021 310.252 548.133 308.382 548.884C306.511 549.635 304.511 550.009 302.496 549.985Z" fill="#C6ED07"/>
<path d="M339.906 496.685C337.33 494.144 333.943 492.591 330.337 492.298C326.731 492.004 323.137 492.989 320.185 495.08L293.086 522.223L291.436 523.887C288.575 526.805 286.99 530.74 287.03 534.827C287.07 538.913 288.732 542.816 291.65 545.677C294.568 548.539 298.502 550.124 302.589 550.083C306.675 550.043 310.578 548.382 313.44 545.464L314.986 543.917L340.024 518.482C341.448 517.044 342.575 515.339 343.34 513.464C344.105 511.59 344.493 509.584 344.482 507.559C344.471 505.535 344.062 503.533 343.276 501.667C342.491 499.801 341.346 498.108 339.906 496.685Z" fill="#C6ED07"/>
<path d="M339.906 496.685C337.33 494.144 333.943 492.591 330.337 492.298C326.731 492.004 323.137 492.989 320.185 495.08L293.086 522.223L291.436 523.887C288.575 526.805 286.99 530.74 287.03 534.827C287.07 538.913 288.732 542.816 291.65 545.677C294.568 548.539 298.502 550.124 302.589 550.083C306.675 550.043 310.578 548.382 313.44 545.464L314.986 543.917L340.024 518.482C341.448 517.044 342.575 515.339 343.34 513.464C344.105 511.59 344.493 509.584 344.482 507.559C344.471 505.535 344.062 503.533 343.276 501.667C342.491 499.801 341.346 498.108 339.906 496.685Z" fill="#41B100"/>
<path d="M1009.26 313.292L832.128 490.44C828.742 493.827 826.107 497.888 824.395 502.361C822.682 506.833 821.931 511.616 822.189 516.398C822.448 521.18 823.71 525.854 825.895 530.116C828.079 534.378 831.136 538.132 834.868 541.134L847.681 551.443C848.041 551.729 848.336 552.089 848.547 552.497C848.758 552.906 848.88 553.354 848.905 553.814C848.93 554.273 848.858 554.732 848.692 555.161C848.527 555.59 848.273 555.98 847.946 556.303L643.876 760.359C642.372 761.774 641.168 763.476 640.335 765.365C639.502 767.253 639.057 769.29 639.025 771.354C638.994 773.419 639.377 775.468 640.153 777.381C640.928 779.294 642.08 781.032 643.54 782.492C645 783.952 646.738 785.103 648.651 785.879C650.564 786.655 652.613 787.038 654.678 787.007C656.742 786.975 658.779 786.53 660.667 785.697C662.556 784.863 664.258 783.66 665.673 782.156L869.699 578.145C873.082 574.756 875.714 570.693 877.424 566.221C879.134 561.748 879.883 556.965 879.624 552.184C879.364 547.403 878.101 542.73 875.916 538.468C873.732 534.207 870.675 530.454 866.945 527.451L854.132 517.142C853.775 516.853 853.482 516.493 853.274 516.083C853.066 515.674 852.946 515.226 852.922 514.768C852.899 514.309 852.972 513.851 853.137 513.422C853.302 512.994 853.556 512.605 853.881 512.282L1031.06 335.09V313.292H1009.26Z" fill="#C6ED07"/>
<path d="M539.734 294.559L516.346 268.785C514.276 266.501 511.562 264.9 508.562 264.192C505.562 263.484 502.418 263.703 499.545 264.821C496.672 265.938 494.206 267.9 492.473 270.449C490.739 272.998 489.82 276.012 489.836 279.094V281.907C490.344 284.721 491.636 287.335 493.562 289.448L520.662 319.331V294.559H539.734Z" fill="#C42A56"/>
<path d="M539.735 294.559H565.671C567.735 294.622 569.791 294.271 571.717 293.525C573.642 292.779 575.399 291.654 576.881 290.217C578.364 288.779 579.543 287.058 580.348 285.157C581.153 283.255 581.568 281.211 581.568 279.146C581.568 277.081 581.153 275.037 580.348 273.135C579.543 271.233 578.364 269.512 576.881 268.075C575.399 266.637 573.642 265.512 571.717 264.766C569.791 264.021 567.735 263.669 565.671 263.733H504.859C507.021 263.717 509.161 264.157 511.141 265.025C513.12 265.893 514.894 267.169 516.347 268.77L539.735 294.559Z" fill="#C42A56"/>
<path d="M489.793 281.937V339.582C489.729 341.646 490.08 343.702 490.826 345.627C491.572 347.553 492.697 349.309 494.134 350.792C495.572 352.275 497.293 353.453 499.194 354.258C501.096 355.063 503.14 355.478 505.205 355.478C507.27 355.478 509.315 355.063 511.216 354.258C513.118 353.453 514.839 352.275 516.276 350.792C517.714 349.309 518.839 347.553 519.585 345.627C520.33 343.702 520.682 341.646 520.618 339.582V319.36L493.519 289.477C491.592 287.364 490.301 284.751 489.793 281.937Z" fill="#C42A56"/>
<path d="M504.859 263.718C502.603 263.725 500.376 264.228 498.335 265.192C496.295 266.155 494.492 267.556 493.054 269.295C491.616 271.034 490.579 273.068 490.015 275.252C489.451 277.437 489.375 279.719 489.792 281.937V279.124C489.795 275.097 491.373 271.231 494.188 268.353C497.004 265.474 500.834 263.811 504.859 263.718Z" fill="#14899B"/>
<path d="M539.734 294.559H520.588V319.39L541.987 342.851L542.503 343.382C547.462 348.363 550.257 355.099 550.279 362.128C550.301 369.157 547.549 375.911 542.621 380.923L193.76 725.233C190.918 728.12 189.326 732.01 189.329 736.062C189.332 740.113 190.929 744.001 193.776 746.884C196.622 749.767 200.489 751.414 204.54 751.469C208.591 751.524 212.501 749.982 215.425 747.177L564.3 402.809C564.336 402.766 564.375 402.727 564.418 402.691C575.082 391.952 581.077 377.437 581.099 362.302C581.121 347.167 575.169 332.635 564.536 321.864L539.734 294.559Z" fill="#14899B"/>
<path d="M539.734 294.559L516.346 268.785C514.276 266.501 511.562 264.9 508.562 264.192C505.562 263.484 502.418 263.703 499.545 264.821C496.672 265.938 494.206 267.9 492.473 270.449C490.739 272.998 489.82 276.012 489.836 279.094V281.907C490.344 284.721 491.636 287.335 493.562 289.448L520.662 319.331V294.559H539.734Z" fill="#922D69"/>
<path d="M810.581 723.819C807.532 723.817 804.553 722.911 802.019 721.217C799.485 719.522 797.51 717.115 796.344 714.298C795.178 711.482 794.872 708.383 795.466 705.393C796.061 702.403 797.528 699.657 799.682 697.5L796.545 700.622C792.198 704.953 786.491 707.653 780.386 708.27C774.281 708.887 768.15 707.383 763.024 704.01L762.906 703.995L705.718 667.013C694.668 659.725 681.44 656.478 668.271 657.819C655.102 659.161 642.801 665.01 633.448 674.377L496.022 811.804C493.204 814.709 491.641 818.607 491.671 822.654C491.702 826.702 493.322 830.576 496.184 833.439C499.045 836.302 502.917 837.925 506.965 837.958C511.013 837.992 514.911 836.432 517.819 833.616L655.245 696.175C659.6 691.85 665.309 689.155 671.415 688.541C677.521 687.927 683.652 689.431 688.781 692.802L688.913 692.89L746.102 729.872C757.152 737.16 770.38 740.408 783.549 739.066C796.718 737.724 809.019 731.875 818.372 722.508L839.168 701.712L821.494 719.386C820.058 720.808 818.354 721.932 816.481 722.693C814.608 723.454 812.602 723.837 810.581 723.819Z" fill="#14899B"/>
<path d="M412.117 807.798C411.868 807.791 411.632 807.691 411.454 807.518C411.283 807.34 411.188 807.102 411.188 806.855C411.188 806.608 411.283 806.371 411.454 806.192L737.383 480.278C737.47 480.19 737.573 480.12 737.686 480.072C737.8 480.024 737.922 480 738.046 480C738.169 480 738.291 480.024 738.405 480.072C738.519 480.12 738.622 480.19 738.709 480.278C738.88 480.456 738.975 480.694 738.975 480.941C738.975 481.188 738.88 481.425 738.709 481.604L412.779 807.518C412.604 807.695 412.366 807.796 412.117 807.798Z" fill="white"/>
<path d="M738.9 485.462L746.235 472.737L733.524 480.087L738.9 485.462Z" fill="white"/>
<path d="M1.47267 755.248C1.28881 755.25 1.10652 755.214 0.936872 755.144C0.767229 755.073 0.613789 754.968 0.485894 754.836C0.241646 754.565 0.106445 754.214 0.106445 753.849C0.106445 753.485 0.241646 753.133 0.485894 752.862L253.806 499.542C253.911 499.334 254.063 499.155 254.251 499.017C254.438 498.88 254.656 498.789 254.885 498.752C255.115 498.715 255.35 498.732 255.571 498.803C255.792 498.874 255.994 498.997 256.159 499.16C256.324 499.324 256.447 499.525 256.52 499.745C256.593 499.966 256.612 500.201 256.577 500.431C256.541 500.66 256.452 500.878 256.316 501.067C256.18 501.255 256.001 501.409 255.795 501.515L2.47416 754.836C2.34511 754.971 2.18938 755.077 2.01693 755.148C1.84448 755.219 1.6591 755.253 1.47267 755.248Z" fill="white"/>
<path d="M255.957 507.348L266.973 488.29L247.9 499.292L255.957 507.348Z" fill="white"/>
<path d="M205.925 789.137C205.619 789.139 205.316 789.08 205.033 788.964C204.749 788.848 204.492 788.676 204.276 788.46C204.058 788.242 203.885 787.984 203.767 787.7C203.65 787.416 203.589 787.111 203.589 786.803C203.589 786.495 203.65 786.191 203.767 785.906C203.885 785.622 204.058 785.364 204.276 785.146L436.02 553.402C436.459 552.963 437.055 552.716 437.677 552.716C438.298 552.716 438.894 552.963 439.334 553.402C439.773 553.842 440.02 554.438 440.02 555.059C440.02 555.68 439.773 556.276 439.334 556.716L207.575 788.46C207.358 788.676 207.101 788.848 206.818 788.964C206.535 789.08 206.231 789.139 205.925 789.137Z" fill="white"/>
<path d="M439.806 566.348L458.172 534.565L426.374 552.916L439.806 566.348Z" fill="white"/>
<path d="M772.672 345.149L583.639 534.182L603.61 514.211C605.025 512.708 606.727 511.504 608.616 510.67C610.504 509.837 612.541 509.392 614.605 509.36C616.669 509.329 618.719 509.712 620.632 510.488C622.545 511.264 624.283 512.415 625.743 513.875C627.203 515.335 628.354 517.073 629.13 518.986C629.905 520.899 630.289 522.949 630.258 525.013C630.226 527.077 629.781 529.114 628.948 531.002C628.114 532.891 626.91 534.593 625.407 536.008L794.484 366.946V345.149H772.672Z" fill="#015A00"/>
<path d="M594.536 560.501C591.488 560.499 588.509 559.593 585.975 557.899C583.441 556.204 581.466 553.797 580.3 550.98C579.133 548.164 578.828 545.065 579.422 542.075C580.016 539.085 581.483 536.339 583.638 534.182L374.236 743.584C372.733 744.999 371.529 746.701 370.696 748.59C369.862 750.478 369.417 752.515 369.386 754.579C369.354 756.644 369.738 758.693 370.513 760.606C371.289 762.519 372.441 764.257 373.9 765.717C375.36 767.177 377.098 768.329 379.011 769.104C380.924 769.88 382.974 770.263 385.038 770.232C387.102 770.2 389.139 769.755 391.028 768.922C392.916 768.088 394.619 766.885 396.033 765.381L625.406 536.008L605.435 555.979C604.008 557.416 602.309 558.556 600.439 559.332C598.568 560.108 596.562 560.505 594.536 560.501Z" fill="#6CCD00"/>
<path d="M625.407 514.211C623.976 512.779 622.277 511.643 620.407 510.867C618.537 510.092 616.532 509.693 614.508 509.693C612.484 509.693 610.479 510.092 608.609 510.867C606.739 511.643 605.04 512.779 603.609 514.211L583.638 534.182C582.135 535.597 580.931 537.299 580.098 539.188C579.265 541.077 578.819 543.113 578.788 545.178C578.757 547.242 579.14 549.291 579.916 551.204C580.691 553.117 581.843 554.855 583.303 556.315C584.762 557.775 586.5 558.927 588.413 559.702C590.327 560.478 592.376 560.861 594.44 560.83C596.504 560.799 598.541 560.353 600.43 559.52C602.319 558.687 604.021 557.483 605.436 555.979L625.407 536.008C626.839 534.578 627.975 532.879 628.75 531.008C629.525 529.138 629.924 527.134 629.924 525.11C629.924 523.085 629.525 521.081 628.75 519.211C627.975 517.341 626.839 515.642 625.407 514.211Z" fill="#015A00"/>
<path d="M625.407 514.211C623.976 512.779 622.277 511.643 620.407 510.867C618.537 510.092 616.532 509.693 614.508 509.693C612.484 509.693 610.479 510.092 608.609 510.867C606.739 511.643 605.04 512.779 603.609 514.211L583.638 534.182C582.135 535.597 580.931 537.299 580.098 539.188C579.265 541.077 578.819 543.113 578.788 545.178C578.757 547.242 579.14 549.291 579.916 551.204C580.691 553.117 581.843 554.855 583.303 556.315C584.762 557.775 586.5 558.927 588.413 559.702C590.327 560.478 592.376 560.861 594.44 560.83C596.504 560.799 598.541 560.353 600.43 559.52C602.319 558.687 604.021 557.483 605.436 555.979L625.407 536.008C626.839 534.578 627.975 532.879 628.75 531.008C629.525 529.138 629.924 527.134 629.924 525.11C629.924 523.085 629.525 521.081 628.75 519.211C627.975 517.341 626.839 515.642 625.407 514.211Z" fill="#009000"/>
<path d="M809.889 314.309H721.035C716.946 314.309 713.024 315.933 710.132 318.825C707.24 321.717 705.615 325.639 705.615 329.729C705.615 333.818 707.24 337.741 710.132 340.632C713.024 343.524 716.946 345.149 721.035 345.149H772.672L798.99 318.83C800.419 317.395 802.117 316.256 803.988 315.48C805.858 314.704 807.864 314.306 809.889 314.309Z" fill="#C6ED07"/>
<path d="M722.42 530.972H661.962C657.872 530.972 653.95 532.596 651.058 535.488C648.167 538.38 646.542 542.302 646.542 546.392C646.542 550.482 648.167 554.404 651.058 557.296C653.95 560.187 657.872 561.812 661.962 561.812H685.203L711.522 535.493C712.951 534.059 714.65 532.921 716.52 532.145C718.39 531.369 720.395 530.971 722.42 530.972Z" fill="#C6ED07"/>
</svg>
