<svg width="1920" height="927" viewBox="0 0 1920 927" fill="none" xmlns="http://www.w3.org/2000/svg">
<path d="M1926 0H-3.99996V774.5L-4 813.5C-4 813.5 192 718.69 236 768C280 817.31 292 881 371.5 881C451 881 593.5 826.5 664.5 826.5C776.123 826.5 753.791 910 876.5 910C975.5 910 1103.5 826.5 1233.5 826.5C1363.5 826.5 1380 926.5 1507.5 926.5C1564.63 926.5 1633.1 819.84 1715 801C1815.87 777.797 1926 841.5 1926 841.5V0Z" fill="#68C0AF"/>
<path d="M1927.5 0H-6.5V761.5C-6.5 761.5 174 688 236 749C298 810 283.5 845.5 363 845.5C442.5 845.5 599 799 670 799C781.623 799 755.291 906 878 906C977 906 1102 799 1232 799C1362 799 1407.5 907 1500.5 888.5C1593.5 870 1639 822.5 1664 808.5C1689 794.5 1771 734 1927.5 823V0Z" fill="#7BCFBF"/>
<mask id="mask0_1_1692" style="mask-type:alpha" maskUnits="userSpaceOnUse" x="-7" y="0" width="1935" height="906">
<path d="M1927.5 0H-6.5V761.5C-6.5 761.5 174 688 236 749C298 810 283.5 845.5 363 845.5C442.5 845.5 599 799 670 799C781.623 799 755.291 906 878 906C977 906 1102 799 1232 799C1362 799 1407.5 907 1500.5 888.5C1593.5 870 1639 822.5 1664 808.5C1689 794.5 1771 734 1927.5 823V0Z" fill="#7BCFBF"/>
</mask>
<g mask="url(#mask0_1_1692)">
<path d="M160.149 675.554C160.274 675.804 160.274 675.929 160.399 676.179C160.274 675.929 160.149 675.679 160.149 675.554Z" fill="#C42A56"/>
<path d="M159.524 674.43C159.649 674.68 159.774 674.805 159.774 675.054C159.774 674.805 159.649 674.555 159.524 674.43Z" fill="#C42A56"/>
<path d="M152.4 668.183C152.65 668.307 152.775 668.307 153.025 668.432C152.9 668.432 152.65 668.307 152.4 668.183Z" fill="#C42A56"/>
<path d="M158.899 673.306C159.024 673.43 159.149 673.68 159.274 673.93C159.149 673.68 159.024 673.43 158.899 673.306Z" fill="#C42A56"/>
<path d="M154.775 669.307C155.025 669.432 155.15 669.557 155.4 669.682C155.15 669.557 154.9 669.432 154.775 669.307Z" fill="#C42A56"/>
<path d="M155.9 670.057C156.025 670.182 156.275 670.307 156.4 670.432C156.15 670.307 156.025 670.182 155.9 670.057Z" fill="#C42A56"/>
<path d="M153.65 668.682C153.9 668.807 154.025 668.807 154.275 668.932C154.025 668.932 153.775 668.807 153.65 668.682Z" fill="#C42A56"/>
<path d="M160.524 676.804C160.524 677.054 160.649 677.179 160.649 677.429C160.649 677.179 160.649 676.929 160.524 676.804Z" fill="#C42A56"/>
<path d="M158.149 672.306C158.274 672.431 158.399 672.681 158.524 672.806C158.399 672.556 158.274 672.431 158.149 672.306Z" fill="#C42A56"/>
<path d="M116.406 693.672L44.0428 766.016C36.4191 773.638 24.546 774.762 15.5475 768.89L-49.0671 726.158C-58.4406 719.91 -69.6887 717.162 -80.8119 718.286C-91.9351 719.411 -102.433 724.409 -110.432 732.28L-227.038 848.855C-232.162 853.978 -232.162 862.225 -227.038 867.348C-224.539 869.846 -221.164 871.221 -217.79 871.221C-214.415 871.221 -211.041 869.971 -208.541 867.348L-91.9351 750.772C-84.3113 743.151 -72.4383 742.026 -63.4397 747.898L1.1748 790.63C9.17351 795.878 18.547 798.752 28.1704 798.752C29.7952 798.752 31.4199 798.627 33.0446 798.502C44.1678 797.377 54.6661 792.38 62.6649 784.508L135.028 712.164V693.672H116.406Z" fill="#C42A56"/>
<path d="M149.9 667.558C150.15 667.558 150.4 667.558 150.65 667.683C150.4 667.683 150.15 667.683 149.9 667.558Z" fill="#C42A56"/>
<path d="M149.276 667.558C148.901 667.558 148.401 667.433 148.026 667.433C148.526 667.433 148.901 667.433 149.276 667.558Z" fill="#C42A56"/>
<path d="M160.898 677.928C160.898 678.178 161.023 678.428 161.023 678.677C160.898 678.428 160.898 678.178 160.898 677.928Z" fill="#C42A56"/>
<path d="M151.275 667.932C151.525 667.932 151.65 668.057 151.9 668.057C151.65 667.933 151.4 667.932 151.275 667.932Z" fill="#C42A56"/>
<path d="M161.024 679.303C161.024 679.678 161.149 680.177 161.149 680.552C161.149 680.053 161.149 679.678 161.024 679.303Z" fill="#C42A56"/>
<path d="M149.276 667.558C149.526 667.558 149.65 667.558 149.9 667.683C149.775 667.558 149.526 667.558 149.276 667.558Z" fill="#C6ED07"/>
<path d="M155.274 669.682C155.524 669.807 155.649 669.932 155.774 670.057C155.649 669.932 155.524 669.807 155.274 669.682Z" fill="#C6ED07"/>
<path d="M151.9 668.058C152.15 668.183 152.275 668.183 152.525 668.308C152.275 668.183 152.025 668.058 151.9 668.058Z" fill="#C6ED07"/>
<path d="M150.651 667.683C150.901 667.683 151.025 667.807 151.275 667.807C151.025 667.807 150.776 667.807 150.651 667.683Z" fill="#C6ED07"/>
<path d="M154.15 669.057C154.275 669.182 154.525 669.307 154.65 669.432C154.525 669.182 154.4 669.057 154.15 669.057Z" fill="#C6ED07"/>
<path d="M153.025 668.432C153.275 668.557 153.4 668.557 153.65 668.682C153.4 668.682 153.275 668.557 153.025 668.432Z" fill="#C6ED07"/>
<path d="M161.024 678.678C161.024 678.928 161.149 679.053 161.149 679.303C161.024 679.053 161.024 678.803 161.024 678.678Z" fill="#C6ED07"/>
<path d="M160.774 677.304C160.774 677.554 160.899 677.679 160.899 677.928C160.774 677.804 160.774 677.554 160.774 677.304Z" fill="#C6ED07"/>
<path d="M160.399 676.179C160.524 676.429 160.524 676.554 160.649 676.804C160.524 676.554 160.399 676.304 160.399 676.179Z" fill="#C6ED07"/>
<path d="M157.275 689.798L134.903 712.164V731.78C134.903 739.027 140.777 744.9 148.026 744.9C155.275 744.9 161.149 739.027 161.149 731.78V680.552C161.149 683.926 159.899 687.174 157.275 689.798Z" fill="#C6ED07"/>
<path d="M157.275 671.306C157.525 671.556 157.9 671.931 158.15 672.306C157.9 671.931 157.65 671.556 157.275 671.306Z" fill="#C6ED07"/>
<path d="M159.899 674.93C160.024 675.18 160.024 675.305 160.149 675.554C160.024 675.305 159.899 675.18 159.899 674.93Z" fill="#C6ED07"/>
<path d="M158.524 672.681C158.649 672.806 158.774 673.055 158.899 673.18C158.774 673.055 158.649 672.931 158.524 672.681Z" fill="#C6ED07"/>
<path d="M156.275 670.432C156.65 670.682 156.9 670.931 157.275 671.306C157.025 670.931 156.65 670.682 156.275 670.432Z" fill="#C6ED07"/>
<path d="M159.274 673.805C159.399 673.93 159.524 674.18 159.524 674.305C159.524 674.18 159.399 674.055 159.274 673.805Z" fill="#C6ED07"/>
<path d="M161.149 680.552C161.149 680.177 161.149 679.678 161.024 679.303C161.024 679.053 161.024 678.928 160.899 678.678C160.899 678.428 160.899 678.178 160.774 677.928C160.774 677.679 160.649 677.554 160.649 677.304C160.649 677.054 160.524 676.929 160.524 676.679C160.399 676.429 160.399 676.304 160.274 676.054C160.149 675.804 160.149 675.679 160.024 675.43C159.899 675.18 159.899 675.055 159.774 674.805C159.649 674.555 159.649 674.43 159.524 674.18C159.399 674.055 159.274 673.805 159.274 673.68C159.149 673.43 159.024 673.305 158.899 673.056C158.774 672.806 158.649 672.681 158.524 672.556C158.399 672.431 158.274 672.181 158.149 672.056C157.9 671.681 157.65 671.431 157.275 671.056C157.025 670.806 156.65 670.432 156.275 670.182C156.15 670.057 156.025 669.932 155.775 669.807C155.65 669.682 155.4 669.557 155.275 669.432C155.15 669.307 154.9 669.182 154.65 669.057C154.525 668.932 154.275 668.807 154.15 668.682C153.9 668.557 153.775 668.432 153.525 668.432C153.275 668.308 153.15 668.308 152.9 668.183C152.65 668.058 152.525 668.058 152.275 667.933C152.025 667.808 151.9 667.808 151.651 667.683C151.401 667.683 151.276 667.558 151.026 667.558C150.776 667.558 150.651 667.433 150.401 667.433C150.151 667.433 149.901 667.308 149.651 667.308C149.401 667.308 149.276 667.183 149.026 667.183C148.651 667.183 148.151 667.058 147.776 667.058C144.402 667.058 141.027 668.308 138.528 670.931L116.156 693.297H134.903V711.789L157.275 689.424C159.899 687.174 161.149 683.926 161.149 680.552Z" fill="#AB1B44"/>
<path d="M57.1649 541.237C56.915 541.237 56.79 541.112 56.665 540.987C56.415 540.737 56.415 540.237 56.665 539.862L199.363 397.25C199.613 397 200.113 397 200.487 397.25C200.737 397.5 200.737 398 200.487 398.374L57.7898 540.987C57.5399 541.237 57.4149 541.237 57.1649 541.237Z" fill="white"/>
<path d="M56.4155 536.614L50.1665 547.484L61.0397 541.237L56.4155 536.614Z" fill="white"/>
<path d="M-6.94864 466.893H15.0478C22.2966 466.893 28.1707 461.021 28.1707 453.774C28.1707 446.527 22.2966 440.655 15.0478 440.655H-36.3189C-36.4439 440.655 -36.5688 440.655 -36.5688 440.655C-32.9444 440.655 -29.445 442.029 -26.8204 444.903L-6.94864 466.893Z" fill="#C42A56"/>
<path d="M-6.94907 466.894H-23.1964V488.01L-5.07437 507.876C-4.9494 508.001 -4.82443 508.126 -4.57446 508.376C4.17413 517.122 4.17413 531.366 -4.44946 540.237L-300.526 832.238C-305.651 837.361 -305.776 845.607 -300.651 850.73C-298.152 853.354 -294.777 854.603 -291.278 854.603C-287.903 854.603 -284.654 853.354 -282.029 850.855L14.0475 558.729L14.1725 558.604C23.296 549.358 28.2952 537.114 28.2952 524.119C28.2952 511.25 23.296 499.13 14.2975 490.009L-6.94907 466.894Z" fill="#14899B"/>
<path d="M-115.307 902.333C-115.557 902.333 -115.682 902.208 -115.807 902.083C-116.057 901.833 -116.057 901.333 -115.807 900.958L160.774 624.451C161.024 624.201 161.523 624.201 161.898 624.451C162.148 624.701 162.148 625.201 161.898 625.576L-114.682 902.083C-114.932 902.208 -115.057 902.333 -115.307 902.333Z" fill="white"/>
<path d="M162.023 628.825L168.272 618.079L157.399 624.326L162.023 628.825Z" fill="white"/>
<path d="M234.387 491.758C234.512 492.008 234.512 492.133 234.637 492.383C234.512 492.133 234.387 491.883 234.387 491.758Z" fill="#015A00"/>
<path d="M229.012 485.51C229.262 485.635 229.387 485.76 229.636 485.885C229.387 485.76 229.137 485.635 229.012 485.51Z" fill="#015A00"/>
<path d="M232.387 488.384C232.512 488.509 232.637 488.759 232.762 488.884C232.637 488.759 232.512 488.634 232.387 488.384Z" fill="#015A00"/>
<path d="M233.136 489.509C233.261 489.634 233.386 489.884 233.511 490.134C233.386 489.884 233.261 489.634 233.136 489.509Z" fill="#015A00"/>
<path d="M233.762 490.508C233.887 490.758 234.012 490.883 234.012 491.133C234.012 491.008 233.887 490.758 233.762 490.508Z" fill="#015A00"/>
<path d="M230.137 486.26C230.262 486.385 230.512 486.51 230.637 486.635C230.387 486.51 230.262 486.385 230.137 486.26Z" fill="#015A00"/>
<path d="M224.139 483.761C224.389 483.761 224.639 483.761 224.889 483.886C224.639 483.886 224.389 483.886 224.139 483.761Z" fill="#015A00"/>
<path d="M222.264 483.636C222.639 483.636 223.139 483.636 223.513 483.761C223.139 483.636 222.639 483.636 222.264 483.636Z" fill="#015A00"/>
<path d="M225.514 484.011C225.763 484.011 225.888 484.136 226.138 484.136C225.888 484.136 225.638 484.136 225.514 484.011Z" fill="#015A00"/>
<path d="M227.888 484.886C228.138 485.011 228.263 485.011 228.513 485.136C228.263 485.136 228.013 485.011 227.888 484.886Z" fill="#015A00"/>
<path d="M226.638 484.386C226.888 484.511 227.013 484.511 227.263 484.636C227.138 484.511 226.888 484.511 226.638 484.386Z" fill="#015A00"/>
<path d="M190.643 509.75L30.2944 670.182L47.2917 653.189C52.4158 648.066 60.6645 648.066 65.7887 653.189C70.9129 658.312 70.9129 666.558 65.7887 671.681L209.265 528.242V509.75H190.643Z" fill="#015A00"/>
<path d="M235.386 496.756C235.386 496.381 235.386 495.881 235.261 495.506C235.386 495.881 235.386 496.256 235.386 496.756Z" fill="#015A00"/>
<path d="M235.137 494.132C235.137 494.382 235.262 494.632 235.262 494.881C235.137 494.632 235.137 494.382 235.137 494.132Z" fill="#015A00"/>
<path d="M234.762 492.882C234.762 493.132 234.887 493.257 234.887 493.507C234.887 493.382 234.887 493.132 234.762 492.882Z" fill="#015A00"/>
<path d="M39.5433 692.547C36.1689 692.547 32.7944 691.298 30.2948 688.674C25.1706 683.551 25.1706 675.305 30.2948 670.182L-147.426 847.856C-152.551 852.979 -152.551 861.225 -147.426 866.348C-144.927 868.847 -141.552 870.222 -138.178 870.222C-134.803 870.222 -131.429 868.972 -128.929 866.348L65.6641 671.806L48.6668 688.799C46.1673 691.173 42.9178 692.547 39.5433 692.547Z" fill="#6CCD00"/>
<path d="M65.664 653.189C60.5399 648.066 52.2912 648.066 47.167 653.189L30.1698 670.182C25.0456 675.305 25.0456 683.551 30.1698 688.674C32.6694 691.173 36.0438 692.547 39.4183 692.547C42.7927 692.547 46.1672 691.298 48.6668 688.674L65.664 671.681C70.7882 666.683 70.7882 658.312 65.664 653.189Z" fill="#C6ED07"/>
<path d="M228.387 485.136C228.512 485.261 228.762 485.386 228.887 485.386C228.762 485.386 228.637 485.261 228.387 485.136Z" fill="#C6ED07"/>
<path d="M222.264 483.636H146.901C139.652 483.636 133.778 489.509 133.778 496.756C133.778 504.003 139.652 509.875 146.901 509.875H190.769L213.14 487.51C215.515 484.886 218.89 483.636 222.264 483.636Z" fill="#C6ED07"/>
<path d="M227.263 484.636C227.512 484.761 227.637 484.761 227.887 484.886C227.637 484.761 227.512 484.761 227.263 484.636Z" fill="#C6ED07"/>
<path d="M223.514 483.761C223.763 483.761 223.888 483.761 224.138 483.886C223.888 483.761 223.763 483.761 223.514 483.761Z" fill="#C6ED07"/>
<path d="M231.512 506.002L209.141 528.367V572.223C209.141 579.47 215.015 585.343 222.264 585.343C229.513 585.343 235.387 579.47 235.387 572.223V496.881C235.387 500.129 234.012 503.378 231.512 506.002Z" fill="#C6ED07"/>
<path d="M234.512 492.258C234.637 492.508 234.637 492.633 234.762 492.883C234.762 492.758 234.637 492.508 234.512 492.258Z" fill="#C6ED07"/>
<path d="M226.013 484.261C226.263 484.386 226.388 484.386 226.638 484.511C226.513 484.386 226.263 484.261 226.013 484.261Z" fill="#C6ED07"/>
<path d="M224.763 483.886C225.013 483.886 225.138 484.011 225.388 484.011C225.263 484.011 225.013 483.886 224.763 483.886Z" fill="#C6ED07"/>
<path d="M232.762 488.884C232.887 489.009 233.012 489.259 233.137 489.384C233.012 489.259 232.887 489.134 232.762 488.884Z" fill="#C6ED07"/>
<path d="M234.887 493.507C234.887 493.757 235.012 493.882 235.012 494.132C235.012 494.007 235.012 493.757 234.887 493.507Z" fill="#C6ED07"/>
<path d="M233.512 490.009C233.637 490.134 233.762 490.384 233.762 490.508C233.762 490.384 233.637 490.259 233.512 490.009Z" fill="#C6ED07"/>
<path d="M229.513 485.885C229.763 486.01 229.888 486.135 230.013 486.26C229.888 486.135 229.763 486.01 229.513 485.885Z" fill="#C6ED07"/>
<path d="M234.137 491.133C234.262 491.383 234.262 491.508 234.387 491.758C234.262 491.508 234.137 491.383 234.137 491.133Z" fill="#C6ED07"/>
<path d="M230.512 486.635C230.887 486.885 231.137 487.135 231.387 487.51C231.137 487.135 230.887 486.885 230.512 486.635Z" fill="#C6ED07"/>
<path d="M235.261 494.881C235.261 495.131 235.386 495.256 235.386 495.506C235.261 495.256 235.261 495.006 235.261 494.881Z" fill="#C6ED07"/>
<path d="M231.512 487.51C231.762 487.76 232.137 488.134 232.387 488.384C232.137 488.134 231.887 487.76 231.512 487.51Z" fill="#C6ED07"/>
<path d="M235.387 496.756C235.387 496.256 235.387 495.881 235.262 495.506C235.262 495.256 235.262 495.132 235.137 494.882C235.137 494.632 235.137 494.382 235.012 494.132C235.012 493.882 234.887 493.757 234.887 493.507C234.887 493.257 234.762 493.132 234.762 492.882C234.637 492.633 234.637 492.508 234.512 492.258C234.387 492.008 234.387 491.883 234.262 491.633C234.137 491.383 234.137 491.258 234.012 491.008C233.887 490.758 233.887 490.633 233.762 490.384C233.637 490.259 233.512 490.009 233.512 489.884C233.387 489.634 233.262 489.509 233.137 489.259C233.012 489.009 232.887 488.884 232.762 488.759C232.637 488.634 232.512 488.384 232.387 488.259C232.137 487.885 231.887 487.635 231.512 487.385C231.262 487.135 230.887 486.76 230.638 486.51C230.513 486.385 230.263 486.26 230.138 486.135C230.013 486.01 229.763 485.885 229.638 485.761C229.513 485.636 229.263 485.511 229.013 485.386C228.888 485.261 228.638 485.136 228.513 485.136C228.263 485.011 228.138 484.886 227.888 484.886C227.638 484.761 227.513 484.761 227.263 484.636C227.013 484.511 226.888 484.511 226.638 484.386C226.388 484.261 226.263 484.261 226.013 484.136C225.763 484.136 225.638 484.011 225.388 484.011C225.138 484.011 225.014 483.886 224.764 483.886C224.514 483.886 224.264 483.761 224.014 483.761C223.764 483.761 223.639 483.636 223.389 483.636C223.014 483.636 222.514 483.511 222.139 483.511C218.764 483.511 215.39 484.761 212.89 487.385L190.519 509.75H209.016V528.242L231.387 505.877C234.012 503.378 235.387 500.129 235.387 496.756Z" fill="#6CCD00"/>
<path d="M148.026 667.433H96.659C89.4102 667.433 83.5361 673.305 83.5361 680.552C83.5361 687.799 89.4102 693.672 96.659 693.672H116.406L138.777 671.306C141.402 668.682 144.651 667.433 148.026 667.433Z" fill="#C6ED07"/>
<path d="M1525.66 707.515C1525.76 707.736 1525.84 707.962 1525.91 708.192C1525.84 707.962 1525.76 707.736 1525.66 707.515Z" fill="#C42A56"/>
<path d="M1525.01 706.131C1525.14 706.354 1525.25 706.585 1525.35 706.822C1525.25 706.585 1525.14 706.354 1525.01 706.131Z" fill="#C42A56"/>
<path d="M1516.63 698.899L1517.32 699.149L1516.63 698.899Z" fill="#C42A56"/>
<path d="M1524.25 704.834C1524.4 705.055 1524.51 705.276 1524.66 705.511C1524.51 705.276 1524.4 705.055 1524.25 704.834Z" fill="#C42A56"/>
<path d="M1519.31 700.151L1519.99 700.563L1519.31 700.151Z" fill="#C42A56"/>
<path d="M1520.65 701.064L1521.2 701.476L1520.65 701.064Z" fill="#C42A56"/>
<path d="M1518.03 699.459L1518.74 699.797L1518.03 699.459Z" fill="#C42A56"/>
<path d="M1526.18 708.988C1526.25 709.223 1526.29 709.459 1526.35 709.679C1526.29 709.385 1526.25 709.15 1526.18 708.988Z" fill="#C42A56"/>
<path d="M1523.35 703.627C1523.5 703.803 1523.63 703.995 1523.76 704.171C1523.63 703.995 1523.5 703.803 1523.35 703.627Z" fill="#C42A56"/>
<path d="M1474.2 728.812L1388.87 814.145C1384.52 818.474 1378.81 821.174 1372.7 821.791C1366.6 822.408 1360.46 820.904 1355.33 817.533L1279.25 767.178C1268.2 759.86 1254.96 756.586 1241.78 757.912C1228.59 759.238 1216.27 765.082 1206.91 774.454L1069.48 911.895C1067.98 913.309 1066.77 915.012 1065.94 916.9C1065.11 918.789 1064.66 920.826 1064.63 922.89C1064.6 924.954 1064.98 927.004 1065.76 928.917C1066.53 930.83 1067.68 932.568 1069.14 934.028C1070.6 935.488 1072.34 936.639 1074.25 937.415C1076.17 938.19 1078.22 938.574 1080.28 938.542C1082.34 938.511 1084.38 938.066 1086.27 937.232C1088.16 936.399 1089.86 935.195 1091.28 933.692L1228.72 796.266C1233.07 791.944 1238.78 789.255 1244.89 788.648C1250.99 788.042 1257.12 789.557 1262.24 792.937L1338.35 843.233C1349.4 850.551 1362.64 853.825 1375.82 852.499C1389.01 851.173 1401.33 845.329 1410.7 835.957L1496.04 750.609V728.812H1474.2Z" fill="#C42A56"/>
<path d="M1513.61 698.148C1513.89 698.148 1514.17 698.222 1514.44 698.281L1513.61 698.148Z" fill="#C42A56"/>
<path d="M1512.95 698.045C1512.44 698.045 1511.94 697.971 1511.48 697.971C1511.94 697.971 1512.45 698.001 1512.95 698.045Z" fill="#C42A56"/>
<path d="M1526.54 710.372C1526.54 710.652 1526.63 710.917 1526.66 711.196C1526.63 710.917 1526.59 710.652 1526.54 710.372Z" fill="#C42A56"/>
<path d="M1515.21 698.457L1515.9 698.634L1515.21 698.457Z" fill="#C42A56"/>
<path d="M1526.77 711.933C1526.77 712.434 1526.84 712.935 1526.84 713.406C1526.87 712.891 1526.87 712.375 1526.77 711.933Z" fill="#C42A56"/>
<path d="M1512.95 698.045L1513.61 698.148L1512.95 698.045Z" fill="#C6ED07"/>
<path d="M1519.99 700.578C1520.22 700.725 1520.44 700.887 1520.65 701.064C1520.44 700.887 1520.22 700.725 1519.99 700.578Z" fill="#C6ED07"/>
<path d="M1515.9 698.678C1516.15 698.678 1516.38 698.855 1516.63 698.943L1515.9 698.678Z" fill="#C6ED07"/>
<path d="M1514.44 698.281L1515.2 698.457L1514.44 698.281Z" fill="#C6ED07"/>
<path d="M1518.7 699.798L1519.31 700.165L1518.7 699.798Z" fill="#C6ED07"/>
<path d="M1517.33 699.15L1517.99 699.459L1517.33 699.15Z" fill="#C6ED07"/>
<path d="M1526.66 711.197C1526.66 711.418 1526.74 711.638 1526.77 711.874C1526.74 711.638 1526.69 711.418 1526.66 711.197Z" fill="#C6ED07"/>
<path d="M1526.35 709.607C1526.35 709.871 1526.49 710.121 1526.54 710.371C1526.49 710.121 1526.41 709.871 1526.35 709.607Z" fill="#C6ED07"/>
<path d="M1525.91 708.178C1526 708.428 1526.1 708.663 1526.18 708.913C1526.1 708.663 1526 708.428 1525.91 708.178Z" fill="#C6ED07"/>
<path d="M1522.32 724.29L1496.01 750.609V773.791C1496.01 777.882 1497.64 781.806 1500.53 784.7C1503.43 787.593 1507.35 789.218 1511.44 789.218C1515.53 789.218 1519.46 787.593 1522.35 784.7C1525.24 781.806 1526.87 777.882 1526.87 773.791V713.406C1526.87 715.431 1526.46 717.436 1525.68 719.304C1524.9 721.172 1523.76 722.867 1522.32 724.29Z" fill="#C6ED07"/>
<path d="M1522.35 702.508C1522.7 702.861 1523.03 703.244 1523.35 703.627C1523.04 703.237 1522.7 702.863 1522.35 702.508Z" fill="#C6ED07"/>
<path d="M1525.4 706.823C1525.5 707.044 1525.62 707.264 1525.71 707.5C1525.57 707.264 1525.4 707.044 1525.4 706.823Z" fill="#C6ED07"/>
<path d="M1523.76 704.172C1523.92 704.393 1524.1 704.613 1524.25 704.834C1524.09 704.569 1523.92 704.393 1523.76 704.172Z" fill="#C6ED07"/>
<path d="M1521.2 701.477C1521.58 701.791 1521.95 702.125 1522.3 702.478C1521.95 702.125 1521.58 701.791 1521.2 701.477Z" fill="#C6ED07"/>
<path d="M1524.66 705.512C1524.78 705.718 1524.91 705.909 1525.01 706.13C1524.91 705.909 1524.78 705.718 1524.66 705.512Z" fill="#C6ED07"/>
<path d="M1526.87 713.406C1526.87 712.891 1526.87 712.39 1526.8 711.933C1526.8 711.698 1526.72 711.477 1526.69 711.256C1526.66 711.035 1526.62 710.711 1526.57 710.431C1526.53 710.151 1526.44 709.93 1526.38 709.665C1526.32 709.4 1526.28 709.209 1526.21 708.973C1526.13 708.737 1526.03 708.487 1525.94 708.237C1525.87 708.006 1525.79 707.78 1525.69 707.559C1525.6 707.324 1525.49 707.103 1525.38 706.882C1525.28 706.644 1525.17 706.413 1525.04 706.19C1524.94 705.969 1524.81 705.777 1524.69 705.571C1524.57 705.365 1524.42 705.114 1524.28 704.893C1524.13 704.673 1523.95 704.452 1523.79 704.231C1523.63 704.01 1523.53 703.863 1523.38 703.686C1523.23 703.509 1522.73 702.92 1522.38 702.566C1522.03 702.213 1521.66 701.879 1521.27 701.565L1520.73 701.153C1520.51 700.976 1520.29 700.814 1520.07 700.667L1519.39 700.254L1518.77 699.886L1518.06 699.547L1517.4 699.238L1516.71 698.988C1516.46 698.899 1516.22 698.796 1515.97 698.722L1515.28 698.546L1514.51 698.369C1514.25 698.369 1513.97 698.281 1513.69 698.236L1513.03 698.133C1512.52 698.133 1512.01 698.06 1511.55 698.06C1509.53 698.059 1507.52 698.457 1505.65 699.233C1503.78 700.009 1502.08 701.147 1500.65 702.581L1474.33 728.9H1496.15V750.697L1522.45 724.379C1523.88 722.934 1525 721.22 1525.76 719.336C1526.52 717.452 1526.9 715.437 1526.87 713.406Z" fill="#C42A56"/>
<path d="M1526.87 713.406C1526.87 712.891 1526.87 712.39 1526.8 711.933C1526.8 711.698 1526.72 711.477 1526.69 711.256C1526.66 711.035 1526.62 710.711 1526.57 710.431C1526.53 710.151 1526.44 709.93 1526.38 709.665C1526.32 709.4 1526.28 709.209 1526.21 708.973C1526.13 708.737 1526.03 708.487 1525.94 708.237C1525.87 708.006 1525.79 707.78 1525.69 707.559C1525.6 707.324 1525.49 707.103 1525.38 706.882C1525.28 706.644 1525.17 706.413 1525.04 706.19C1524.94 705.969 1524.81 705.777 1524.69 705.571C1524.57 705.365 1524.42 705.114 1524.28 704.893C1524.13 704.673 1523.95 704.452 1523.79 704.231C1523.63 704.01 1523.53 703.863 1523.38 703.686C1523.23 703.509 1522.73 702.92 1522.38 702.566C1522.03 702.213 1521.66 701.879 1521.27 701.565L1520.73 701.153C1520.51 700.976 1520.29 700.814 1520.07 700.667L1519.39 700.254L1518.77 699.886L1518.06 699.547L1517.4 699.238L1516.71 698.988C1516.46 698.899 1516.22 698.796 1515.97 698.722L1515.28 698.546L1514.51 698.369C1514.25 698.369 1513.97 698.281 1513.69 698.236L1513.03 698.133C1512.52 698.133 1512.01 698.06 1511.55 698.06C1509.53 698.059 1507.52 698.457 1505.65 699.233C1503.78 700.009 1502.08 701.147 1500.65 702.581L1474.33 728.9H1496.15V750.697L1522.45 724.379C1523.88 722.934 1525 721.22 1525.76 719.336C1526.52 717.452 1526.9 715.437 1526.87 713.406Z" fill="#E24F10"/>
<path d="M1404.33 549.234C1404.21 549.234 1404.09 549.209 1403.97 549.161C1403.86 549.113 1403.76 549.042 1403.67 548.954C1403.5 548.776 1403.4 548.538 1403.4 548.291C1403.4 548.044 1403.5 547.807 1403.67 547.629L1784.03 167.28C1784.12 167.192 1784.22 167.121 1784.34 167.074C1784.45 167.026 1784.57 167.001 1784.7 167.001C1784.82 167.001 1784.94 167.026 1785.06 167.074C1785.17 167.121 1785.27 167.192 1785.36 167.28C1785.45 167.365 1785.52 167.467 1785.56 167.579C1785.61 167.692 1785.64 167.813 1785.64 167.935C1785.64 168.057 1785.61 168.178 1785.56 168.291C1785.52 168.404 1785.45 168.505 1785.36 168.59L1405 548.954C1404.91 549.044 1404.81 549.115 1404.69 549.163C1404.58 549.211 1404.46 549.235 1404.33 549.234Z" fill="white"/>
<path d="M1403.48 543.77L1396.14 556.495L1408.85 549.146L1403.48 543.77Z" fill="white"/>
<path d="M1604.93 266.635C1605.02 266.885 1605.12 267.12 1605.19 267.37L1604.93 266.635Z" fill="#019002"/>
<path d="M1601.35 260.979C1601.7 261.324 1602.03 261.688 1602.33 262.069C1602.03 261.685 1601.7 261.321 1601.35 260.979Z" fill="#019002"/>
<path d="M1600.2 259.918C1600.57 260.228 1600.94 260.552 1601.29 260.905C1600.94 260.566 1600.51 260.228 1600.2 259.918Z" fill="#019002"/>
<path d="M1602.76 262.628C1602.92 262.849 1603.09 263.055 1603.23 263.276C1603.09 263.055 1602.92 262.849 1602.76 262.628Z" fill="#019002"/>
<path d="M1603.65 263.954C1603.78 264.16 1603.9 264.366 1604.01 264.572C1603.9 264.366 1603.78 264.204 1603.65 263.954Z" fill="#019002"/>
<path d="M1604.35 265.28C1604.46 265.5 1604.57 265.721 1604.66 265.942C1604.57 265.677 1604.46 265.5 1604.35 265.28Z" fill="#019002"/>
<path d="M1599.04 259.02C1599.26 259.167 1599.48 259.344 1599.68 259.505C1599.42 259.344 1599.2 259.167 1599.04 259.02Z" fill="#019002"/>
<path d="M1593.44 256.723C1593.69 256.773 1593.94 256.836 1594.19 256.914L1593.44 256.723Z" fill="#019002"/>
<path d="M1591.94 256.502C1592.17 256.521 1592.39 256.555 1592.61 256.605C1592.39 256.555 1592.17 256.521 1591.94 256.502Z" fill="#019002"/>
<path d="M1594.9 257.091L1595.63 257.341L1594.9 257.091Z" fill="#019002"/>
<path d="M1597.68 258.313L1598.3 258.681L1597.68 258.313Z" fill="#019002"/>
<path d="M1596.33 257.592L1596.99 257.915L1596.33 257.592Z" fill="#019002"/>
<path d="M1605.66 269.639C1605.66 269.874 1605.66 270.095 1605.77 270.316C1605.74 270.095 1605.69 269.874 1605.66 269.639Z" fill="#019002"/>
<path d="M1601.32 282.747L1575 309.066V332.306C1575 336.396 1576.63 340.318 1579.52 343.21C1582.41 346.102 1586.33 347.727 1590.42 347.727C1594.51 347.727 1598.43 346.102 1601.32 343.21C1604.22 340.318 1605.84 336.396 1605.84 332.306V271.922C1605.82 275.986 1604.2 279.878 1601.32 282.747Z" fill="#019002"/>
<path d="M1590.42 256.428H1530.04C1527.97 256.364 1525.92 256.716 1523.99 257.461C1522.06 258.207 1520.31 259.332 1518.83 260.77C1517.34 262.207 1516.16 263.928 1515.36 265.83C1514.55 267.732 1514.14 269.776 1514.14 271.841C1514.14 273.906 1514.55 275.95 1515.36 277.852C1516.16 279.753 1517.34 281.474 1518.83 282.912C1520.31 284.349 1522.06 285.474 1523.99 286.22C1525.92 286.966 1527.97 287.317 1530.04 287.254H1553.28L1579.6 260.935C1582.47 258.06 1586.36 256.44 1590.42 256.428Z" fill="#019002"/>
<path d="M1605.35 268.063C1605.35 268.328 1605.49 268.578 1605.53 268.828C1605.49 268.622 1605.41 268.328 1605.35 268.063Z" fill="#019002"/>
<path d="M1595.63 257.341L1596.33 257.591L1595.63 257.341Z" fill="#6CCD18"/>
<path d="M1590.42 256.428C1590.94 256.428 1591.44 256.428 1591.89 256.502C1591.44 256.457 1590.92 256.428 1590.42 256.428Z" fill="#6CCD18"/>
<path d="M1553.2 287.254L1415.95 424.503C1410.61 429.838 1406.38 436.172 1403.49 443.144C1400.6 450.117 1399.11 457.59 1399.11 465.138C1399.11 472.685 1400.6 480.159 1403.49 487.131C1406.38 494.103 1410.61 500.438 1415.95 505.772L1420.48 510.293C1422.95 512.765 1424.91 515.7 1426.25 518.931C1427.59 522.162 1428.28 525.626 1428.28 529.123C1428.28 532.621 1427.59 536.084 1426.25 539.315C1424.91 542.546 1422.95 545.481 1420.48 547.953L1315.23 653.199C1310.42 657.996 1303.97 660.779 1297.18 660.979C1290.39 661.179 1283.78 658.781 1278.7 654.274L1233.59 614.17C1222.64 604.427 1208.38 599.239 1193.73 599.669C1179.08 600.099 1165.14 606.114 1154.78 616.482L1109.13 662.138C1112.26 659.971 1116.09 659.043 1119.87 659.534C1123.65 660.024 1127.11 661.899 1129.59 664.794C1132.07 667.69 1133.39 671.402 1133.29 675.212C1133.19 679.022 1131.68 682.66 1129.05 685.423L1104.02 710.858L1176.58 638.294C1181.39 633.496 1187.84 630.713 1194.63 630.514C1201.42 630.314 1208.03 632.712 1213.11 637.219L1258.22 677.323C1269.18 687.046 1283.44 692.22 1298.08 691.791C1312.73 691.361 1326.66 685.359 1337.03 675.011L1442.27 569.765C1447.61 564.43 1451.85 558.096 1454.74 551.124C1457.63 544.151 1459.11 536.678 1459.11 529.131C1459.11 521.583 1457.63 514.11 1454.74 507.137C1451.85 500.165 1447.61 493.831 1442.27 488.496L1437.75 483.975C1432.76 478.979 1429.96 472.206 1429.96 465.145C1429.96 458.084 1432.76 451.311 1437.75 446.315L1575 309.08V287.254H1553.2Z" fill="#6CCD00"/>
<path d="M1080.61 690.666L1080.41 690.887L1082.06 689.223L1080.61 690.666Z" fill="#6CCD18"/>
<path d="M1596.99 257.916L1597.68 258.239L1596.99 257.916Z" fill="#6CCD18"/>
<path d="M1592.62 256.605C1592.89 256.63 1593.17 256.669 1593.44 256.722C1593.17 256.669 1592.89 256.63 1592.62 256.605Z" fill="#6CCD18"/>
<path d="M1594.19 256.914L1594.9 257.091L1594.19 256.914Z" fill="#6CCD18"/>
<path d="M1598.3 258.608L1598.98 259.02L1598.3 258.608Z" fill="#6CCD18"/>
<path d="M1605.53 268.829C1605.53 269.094 1605.62 269.373 1605.66 269.638C1605.62 269.373 1605.59 269.094 1605.53 268.829Z" fill="#6CCD18"/>
<path d="M1603.23 263.276C1603.38 263.497 1603.51 263.732 1603.65 263.953C1603.45 263.732 1603.45 263.497 1603.23 263.276Z" fill="#6CCD18"/>
<path d="M1605.18 267.371L1605.35 268.062L1605.18 267.371Z" fill="#6CCD18"/>
<path d="M1604.01 264.573C1604.13 264.808 1604.25 265.043 1604.35 265.279C1604.25 265.043 1604.13 264.808 1604.01 264.573Z" fill="#6CCD18"/>
<path d="M1602.34 262.069C1602.5 262.245 1602.62 262.437 1602.76 262.628C1602.62 262.437 1602.5 262.245 1602.34 262.069Z" fill="#6CCD18"/>
<path d="M1604.66 265.942C1604.75 266.163 1604.84 266.398 1604.91 266.634C1604.84 266.398 1604.75 266.163 1604.66 265.942Z" fill="#6CCD18"/>
<path d="M1599.62 259.506L1600.2 259.918L1599.62 259.506Z" fill="#6CCD18"/>
<path d="M1605.84 271.848C1605.84 271.333 1605.84 270.817 1605.84 270.375C1605.84 270.154 1605.77 269.933 1605.74 269.698C1605.71 269.462 1605.74 269.153 1605.6 268.888C1605.47 268.623 1605.49 268.387 1605.43 268.122L1605.25 267.43C1605.25 267.179 1605.07 266.944 1604.99 266.693C1604.9 266.443 1604.82 266.222 1604.74 266.001C1604.65 265.78 1604.53 265.559 1604.43 265.338C1604.32 265.117 1604.21 264.867 1604.09 264.631C1603.97 264.396 1603.85 264.219 1603.72 264.013C1603.59 263.807 1603.45 263.556 1603.31 263.335C1603.16 263.114 1603 262.908 1602.84 262.687C1602.67 262.466 1602.57 262.304 1602.41 262.128C1602.1 261.747 1601.77 261.383 1601.42 261.038V260.964C1601.07 260.611 1600.7 260.287 1600.33 259.977L1599.76 259.565C1599.55 259.403 1599.33 259.226 1599.11 259.079L1598.43 258.667L1597.81 258.298L1597.12 257.974L1596.46 257.65L1595.77 257.4L1595.03 257.15L1594.32 256.973C1594.08 256.895 1593.83 256.831 1593.57 256.781C1593.3 256.728 1593.02 256.688 1592.75 256.664C1592.52 256.614 1592.3 256.579 1592.07 256.56C1591.57 256.56 1591.07 256.487 1590.6 256.487C1588.57 256.483 1586.57 256.879 1584.7 257.653C1582.83 258.426 1581.13 259.561 1579.7 260.994L1553.2 287.253H1575V309.066L1601.32 282.747C1602.75 281.317 1603.89 279.619 1604.67 277.748C1605.44 275.878 1605.84 273.873 1605.84 271.848Z" fill="#6CCD00"/>
<path d="M1605.84 271.848C1605.84 271.333 1605.84 270.817 1605.84 270.375C1605.84 270.154 1605.77 269.933 1605.74 269.698C1605.71 269.462 1605.74 269.153 1605.6 268.888C1605.47 268.623 1605.49 268.387 1605.43 268.122L1605.25 267.43C1605.25 267.179 1605.07 266.944 1604.99 266.693C1604.9 266.443 1604.82 266.222 1604.74 266.001C1604.65 265.78 1604.53 265.559 1604.43 265.338C1604.32 265.117 1604.21 264.867 1604.09 264.631C1603.97 264.396 1603.85 264.219 1603.72 264.013C1603.59 263.807 1603.45 263.556 1603.31 263.335C1603.16 263.114 1603 262.908 1602.84 262.687C1602.67 262.466 1602.57 262.304 1602.41 262.128C1602.1 261.747 1601.77 261.383 1601.42 261.038V260.964C1601.07 260.611 1600.7 260.287 1600.33 259.977L1599.76 259.565C1599.55 259.403 1599.33 259.226 1599.11 259.079L1598.43 258.667L1597.81 258.298L1597.12 257.974L1596.46 257.65L1595.77 257.4L1595.03 257.15L1594.32 256.973C1594.08 256.895 1593.83 256.831 1593.57 256.781C1593.3 256.728 1593.02 256.688 1592.75 256.664C1592.52 256.614 1592.3 256.579 1592.07 256.56C1591.57 256.56 1591.07 256.487 1590.6 256.487C1588.57 256.483 1586.57 256.879 1584.7 257.653C1582.83 258.426 1581.13 259.561 1579.7 260.994L1553.2 287.253H1575V309.066L1601.32 282.747C1602.75 281.317 1603.89 279.619 1604.67 277.748C1605.44 275.878 1605.84 273.873 1605.84 271.848Z" fill="#007400"/>
<path d="M1107.12 663.832L1082.09 689.223L1109.23 662.079C1108.47 662.596 1107.77 663.183 1107.12 663.832Z" fill="#C6ED07"/>
<path d="M1091.5 716.985C1088.48 716.981 1085.52 716.09 1083 714.422C1080.48 712.754 1078.51 710.382 1077.33 707.603C1076.15 704.823 1075.8 701.756 1076.35 698.785C1076.89 695.813 1078.3 693.067 1080.39 690.887L881.315 892.66C879.823 894.085 878.632 895.796 877.813 897.689C876.994 899.583 876.563 901.622 876.547 903.686C876.53 905.749 876.928 907.795 877.716 909.702C878.505 911.608 879.668 913.338 881.137 914.787C882.606 916.236 884.35 917.375 886.268 918.138C888.185 918.901 890.236 919.271 892.299 919.226C894.362 919.182 896.395 918.724 898.277 917.879C900.16 917.035 901.854 915.821 903.259 914.31L1103.94 711.064L1102.4 712.611C1100.96 714.021 1099.25 715.133 1097.38 715.884C1095.51 716.635 1093.51 717.009 1091.5 716.985Z" fill="#C6ED07"/>
<path d="M1128.91 663.685C1126.33 661.144 1122.94 659.591 1119.34 659.298C1115.73 659.004 1112.14 659.989 1109.19 662.079L1082.09 689.223L1080.44 690.887C1077.57 693.805 1075.99 697.74 1076.03 701.827C1076.07 705.913 1077.73 709.816 1080.65 712.677C1083.57 715.539 1087.5 717.123 1091.59 717.083C1095.68 717.043 1099.58 715.382 1102.44 712.464L1103.99 710.917L1129.02 685.482C1130.45 684.044 1131.57 682.339 1132.34 680.464C1133.11 678.59 1133.49 676.583 1133.48 674.559C1133.47 672.535 1133.06 670.532 1132.28 668.667C1131.49 666.801 1130.35 665.108 1128.91 663.685Z" fill="#C6ED07"/>
<path d="M1128.91 663.685C1126.33 661.144 1122.94 659.591 1119.34 659.298C1115.73 659.004 1112.14 659.989 1109.19 662.079L1082.09 689.223L1080.44 690.887C1077.57 693.805 1075.99 697.74 1076.03 701.827C1076.07 705.913 1077.73 709.816 1080.65 712.677C1083.57 715.539 1087.5 717.123 1091.59 717.083C1095.68 717.043 1099.58 715.382 1102.44 712.464L1103.99 710.917L1129.02 685.482C1130.45 684.044 1131.57 682.339 1132.34 680.464C1133.11 678.59 1133.49 676.583 1133.48 674.559C1133.47 672.535 1133.06 670.532 1132.28 668.667C1131.49 666.801 1130.35 665.108 1128.91 663.685Z" fill="#41B100"/>
<path d="M1849.41 458.319C1849.51 458.539 1849.63 458.76 1849.72 458.981C1849.63 458.76 1849.51 458.613 1849.41 458.319Z" fill="#C42A56"/>
<path d="M1845.24 452.958C1845.63 453.272 1846.01 453.606 1846.36 453.959C1846.01 453.602 1845.64 453.268 1845.24 452.958Z" fill="#C42A56"/>
<path d="M1846.47 453.989C1846.82 454.357 1847.16 454.725 1847.47 455.108C1847.15 454.717 1846.82 454.344 1846.47 453.989Z" fill="#C42A56"/>
<path d="M1847.82 455.667C1847.98 455.873 1848.14 456.094 1848.29 456.315C1848.14 456.094 1847.94 455.873 1847.82 455.667Z" fill="#C42A56"/>
<path d="M1848.7 456.993C1848.84 457.199 1848.95 457.405 1849.07 457.611C1848.95 457.405 1848.84 457.14 1848.7 456.993Z" fill="#C42A56"/>
<path d="M1844.04 452.059L1844.7 452.545C1844.48 452.383 1844.27 452.206 1844.04 452.059Z" fill="#C42A56"/>
<path d="M1837 449.541C1837.23 449.56 1837.46 449.595 1837.69 449.644C1837.46 449.595 1837.23 449.56 1837 449.541Z" fill="#C42A56"/>
<path d="M1838.5 449.776C1838.75 449.826 1839 449.89 1839.25 449.968C1839 449.89 1838.75 449.826 1838.5 449.776Z" fill="#C42A56"/>
<path d="M1842.74 451.249L1843.36 451.617L1842.74 451.249Z" fill="#C42A56"/>
<path d="M1839.96 450.13L1840.69 450.38L1839.96 450.13Z" fill="#C42A56"/>
<path d="M1841.38 450.63L1842.05 450.939L1841.38 450.63Z" fill="#C42A56"/>
<path d="M1850.72 462.678C1850.72 462.899 1850.8 463.134 1850.83 463.355C1850.8 463.134 1850.75 462.899 1850.72 462.678Z" fill="#C42A56"/>
<path d="M1846.38 475.786L1820.06 502.09V525.345C1820.06 529.435 1821.68 533.357 1824.57 536.249C1827.47 539.141 1831.39 540.765 1835.48 540.765C1839.57 540.765 1843.49 539.141 1846.38 536.249C1849.27 533.357 1850.9 529.435 1850.9 525.345V464.872C1850.9 466.9 1850.5 468.908 1849.73 470.781C1848.95 472.654 1847.81 474.355 1846.38 475.786Z" fill="#C42A56"/>
<path d="M1835.48 449.467H1775.09C1773.03 449.403 1770.97 449.755 1769.05 450.501C1767.12 451.246 1765.37 452.371 1763.88 453.809C1762.4 455.247 1761.22 456.967 1760.42 458.869C1759.61 460.771 1759.2 462.815 1759.2 464.88C1759.2 466.945 1759.61 468.989 1760.42 470.891C1761.22 472.793 1762.4 474.513 1763.88 475.951C1765.37 477.388 1767.12 478.513 1769.05 479.259C1770.97 480.005 1773.03 480.356 1775.09 480.293H1798.33L1824.65 453.974C1827.52 451.099 1831.42 449.479 1835.48 449.467Z" fill="#C42A56"/>
<path d="M1850.41 461.102C1850.41 461.352 1850.55 461.602 1850.59 461.867C1850.55 461.558 1850.47 461.352 1850.41 461.102Z" fill="#C42A56"/>
<path d="M1849.97 459.673C1850.06 459.909 1850.16 460.159 1850.24 460.409C1850.16 460.159 1850.06 459.909 1849.97 459.673Z" fill="#C42A56"/>
<path d="M1835.48 449.467C1835.99 449.467 1836.49 449.467 1836.95 449.541C1836.46 449.488 1835.97 449.464 1835.48 449.467Z" fill="#C6ED07"/>
<path d="M1840.69 450.38L1841.38 450.63L1840.69 450.38Z" fill="#C6ED07"/>
<path d="M1842.05 450.94L1842.74 451.278L1842.05 450.94Z" fill="#C6ED07"/>
<path d="M1837.63 449.644C1837.89 449.644 1838.16 449.644 1838.44 449.761C1838.22 449.776 1837.95 449.673 1837.63 449.644Z" fill="#C6ED07"/>
<path d="M1798.26 480.292L1621.13 657.44C1617.74 660.827 1615.11 664.888 1613.39 669.361C1611.68 673.833 1610.93 678.616 1611.19 683.398C1611.45 688.18 1612.71 692.854 1614.89 697.116C1617.08 701.378 1620.14 705.132 1623.87 708.134L1636.68 718.443C1637.04 718.729 1637.34 719.089 1637.55 719.497C1637.76 719.906 1637.88 720.354 1637.91 720.814C1637.93 721.273 1637.86 721.732 1637.69 722.161C1637.53 722.59 1637.27 722.98 1636.95 723.303L1432.88 927.359C1431.37 928.774 1430.17 930.476 1429.34 932.365C1428.5 934.253 1428.06 936.29 1428.03 938.354C1427.99 940.419 1428.38 942.468 1429.15 944.381C1429.93 946.294 1431.08 948.032 1432.54 949.492C1434 950.952 1435.74 952.103 1437.65 952.879C1439.56 953.655 1441.61 954.038 1443.68 954.007C1445.74 953.975 1447.78 953.53 1449.67 952.697C1451.56 951.863 1453.26 950.66 1454.67 949.156L1658.7 745.145C1662.08 741.756 1664.71 737.693 1666.42 733.221C1668.13 728.748 1668.88 723.965 1668.62 719.184C1668.36 714.403 1667.1 709.73 1664.92 705.468C1662.73 701.207 1659.68 697.454 1655.94 694.451L1643.13 684.142C1642.77 683.853 1642.48 683.493 1642.27 683.083C1642.07 682.674 1641.95 682.226 1641.92 681.768C1641.9 681.309 1641.97 680.851 1642.14 680.422C1642.3 679.994 1642.56 679.605 1642.88 679.282L1820.06 502.09V480.292H1798.26Z" fill="#C6ED07"/>
<path d="M1839.25 449.953L1839.96 450.13L1839.25 449.953Z" fill="#C6ED07"/>
<path d="M1850.24 460.41L1850.41 461.101L1850.24 460.41Z" fill="#C6ED07"/>
<path d="M1843.36 451.647L1844.03 452.059L1843.36 451.647Z" fill="#C6ED07"/>
<path d="M1847.39 455.108C1847.54 455.284 1847.67 455.476 1847.82 455.667C1847.67 455.476 1847.55 455.284 1847.39 455.108Z" fill="#C6ED07"/>
<path d="M1849.07 457.612C1849.19 457.847 1849.31 458.082 1849.41 458.318C1849.31 458.082 1849.19 457.847 1849.07 457.612Z" fill="#C6ED07"/>
<path d="M1848.29 456.315C1848.44 456.536 1848.57 456.771 1848.7 456.992C1848.57 456.771 1848.45 456.536 1848.29 456.315Z" fill="#C6ED07"/>
<path d="M1844.7 452.545L1845.24 452.957L1844.7 452.545Z" fill="#C6ED07"/>
<path d="M1849.72 458.981C1849.81 459.202 1849.9 459.437 1849.97 459.673C1849.9 459.437 1849.81 459.202 1849.72 458.981Z" fill="#C6ED07"/>
<path d="M1850.59 461.868C1850.59 462.133 1850.68 462.412 1850.72 462.677C1850.68 462.412 1850.65 462.133 1850.59 461.868Z" fill="#C6ED07"/>
<path d="M1850.88 464.872C1850.88 464.372 1850.88 463.856 1850.88 463.4C1850.88 463.179 1850.81 462.943 1850.78 462.722C1850.75 462.501 1850.78 462.177 1850.65 461.912C1850.52 461.647 1850.53 461.397 1850.47 461.146L1850.29 460.454C1850.29 460.204 1850.12 459.953 1850.03 459.718C1849.94 459.482 1849.87 459.246 1849.78 459.025C1849.69 458.804 1849.57 458.584 1849.47 458.363C1849.37 458.142 1849.25 457.891 1849.13 457.656C1849.01 457.42 1848.9 457.243 1848.76 457.037C1848.63 456.831 1848.5 456.581 1848.35 456.36C1848.2 456.139 1848.04 455.918 1847.88 455.712C1847.72 455.505 1847.6 455.329 1847.45 455.152C1847.3 454.975 1846.8 454.401 1846.45 454.033C1846.1 453.679 1845.72 453.345 1845.33 453.031L1844.79 452.619L1844.12 452.133L1843.45 451.72L1842.83 451.352L1842.14 451.013L1841.47 450.704L1840.78 450.454L1840.04 450.203L1839.34 450.027C1839.09 449.949 1838.84 449.885 1838.59 449.835C1838.31 449.835 1838.04 449.747 1837.78 449.717C1837.55 449.669 1837.32 449.634 1837.08 449.614C1836.58 449.614 1836.08 449.541 1835.61 449.541C1833.59 449.537 1831.58 449.933 1829.71 450.706C1827.84 451.48 1826.14 452.615 1824.71 454.047L1798.39 480.366H1820.19V502.163L1846.51 475.859C1847.93 474.407 1849.04 472.689 1849.8 470.803C1850.55 468.917 1850.92 466.902 1850.88 464.872Z" fill="#C42A56"/>
<path d="M1850.88 464.872C1850.88 464.372 1850.88 463.856 1850.88 463.4C1850.88 463.179 1850.81 462.943 1850.78 462.722C1850.75 462.501 1850.78 462.177 1850.65 461.912C1850.52 461.647 1850.53 461.397 1850.47 461.146L1850.29 460.454C1850.29 460.204 1850.12 459.953 1850.03 459.718C1849.94 459.482 1849.87 459.246 1849.78 459.025C1849.69 458.804 1849.57 458.584 1849.47 458.363C1849.37 458.142 1849.25 457.891 1849.13 457.656C1849.01 457.42 1848.9 457.243 1848.76 457.037C1848.63 456.831 1848.5 456.581 1848.35 456.36C1848.2 456.139 1848.04 455.918 1847.88 455.712C1847.72 455.505 1847.6 455.329 1847.45 455.152C1847.3 454.975 1846.8 454.401 1846.45 454.033C1846.1 453.679 1845.72 453.345 1845.33 453.031L1844.79 452.619L1844.12 452.133L1843.45 451.72L1842.83 451.352L1842.14 451.013L1841.47 450.704L1840.78 450.454L1840.04 450.203L1839.34 450.027C1839.09 449.949 1838.84 449.885 1838.59 449.835C1838.31 449.835 1838.04 449.747 1837.78 449.717C1837.55 449.669 1837.32 449.634 1837.08 449.614C1836.58 449.614 1836.08 449.541 1835.61 449.541C1833.59 449.537 1831.58 449.933 1829.71 450.706C1827.84 451.48 1826.14 452.615 1824.71 454.047L1798.39 480.366H1820.19V502.163L1846.51 475.859C1847.93 474.407 1849.04 472.689 1849.8 470.803C1850.55 468.917 1850.92 466.902 1850.88 464.872Z" fill="#A3264A"/>
<path d="M1880.69 678.059H1854.76C1850.67 678.059 1846.75 679.684 1843.85 682.576C1840.96 685.467 1839.34 689.39 1839.34 693.479C1839.34 697.569 1840.96 701.491 1843.85 704.383C1846.75 707.275 1850.67 708.899 1854.76 708.899H1915.36C1913.24 708.885 1911.13 708.428 1909.19 707.558C1907.25 706.689 1905.51 705.425 1904.08 703.848L1880.69 678.059Z" fill="#C6ED07"/>
<path d="M1930.65 690.593V632.962C1930.65 628.873 1929.03 624.951 1926.13 622.059C1923.24 619.167 1919.32 617.542 1915.23 617.542C1911.14 617.542 1907.22 619.167 1904.33 622.059C1901.43 624.951 1899.81 628.873 1899.81 632.962V653.184L1926.92 683.067C1928.84 685.184 1930.13 687.788 1930.65 690.593Z" fill="#C6ED07"/>
<path d="M1915.36 708.826H1915.51C1917.77 708.823 1920.01 708.322 1922.06 707.359C1924.1 706.396 1925.91 704.994 1927.36 703.252C1928.8 701.51 1929.85 699.472 1930.42 697.282C1930.99 695.091 1931.07 692.803 1930.65 690.578V693.406C1930.65 697.474 1929.05 701.378 1926.19 704.267C1923.32 707.156 1919.43 708.795 1915.36 708.826Z" fill="#C42A56"/>
<path d="M2226.67 247.311C2228.14 245.897 2229.32 244.203 2230.13 242.329C2230.95 240.454 2231.38 238.437 2231.41 236.393C2231.44 234.35 2231.06 232.322 2230.3 230.426C2229.53 228.53 2228.4 226.805 2226.96 225.351C2225.53 223.897 2223.82 222.742 2221.93 221.955C2220.05 221.167 2218.02 220.763 2215.98 220.764C2213.94 220.766 2211.91 221.173 2210.03 221.963C2208.14 222.754 2206.44 223.91 2205 225.367L1856.13 569.735L1856.02 569.853C1845.36 580.59 1839.37 595.1 1839.34 610.232C1839.32 625.363 1845.26 639.893 1855.89 650.665L1880.69 678.059H1899.84V653.184L1878.53 629.693L1878.01 629.148C1873.05 624.171 1870.26 617.438 1870.23 610.412C1870.21 603.385 1872.95 596.632 1877.88 591.621L2226.67 247.311Z" fill="#C42A56"/>
<path d="M1880.69 678.059L1904.08 703.833C1906.16 706.109 1908.87 707.703 1911.87 708.406C1914.86 709.109 1918 708.888 1920.87 707.773C1923.74 706.657 1926.21 704.698 1927.94 702.155C1929.68 699.611 1930.6 696.602 1930.59 693.523V690.696C1930.07 687.891 1928.78 685.287 1926.87 683.17L1899.75 653.287V678.059H1880.69Z" fill="#C6ED07"/>
<path d="M1880.69 678.059L1904.08 703.833C1906.16 706.109 1908.87 707.703 1911.87 708.406C1914.86 709.109 1918 708.888 1920.87 707.773C1923.74 706.657 1926.21 704.698 1927.94 702.155C1929.68 699.611 1930.6 696.602 1930.59 693.523V690.696C1930.07 687.891 1928.78 685.287 1926.87 683.17L1899.75 653.287V678.059H1880.69Z" fill="#9C1A3F"/>
<path d="M1666.37 486.124C1666.22 485.948 1666.09 485.756 1665.96 485.565C1666.09 485.756 1666.22 485.948 1666.37 486.124Z" fill="#C6ED07"/>
<path d="M1663.54 480.822C1663.54 480.601 1663.43 480.366 1663.37 480.131C1663.43 480.366 1663.47 480.587 1663.54 480.822Z" fill="#C6ED07"/>
<path d="M1673.07 490.837C1672.84 490.767 1672.62 490.684 1672.4 490.587C1672.62 490.684 1672.84 490.767 1673.07 490.837Z" fill="#C6ED07"/>
<path d="M1671.72 490.278C1671.48 490.18 1671.25 490.067 1671.03 489.939C1671.25 490.067 1671.48 490.18 1671.72 490.278Z" fill="#C6ED07"/>
<path d="M1670.41 489.541C1670.17 489.409 1669.95 489.291 1669.73 489.144C1669.95 489.321 1670.17 489.438 1670.41 489.541Z" fill="#C6ED07"/>
<path d="M1665.47 484.902C1665.33 484.696 1665.19 484.46 1665.06 484.24C1665.19 484.46 1665.31 484.696 1665.47 484.902Z" fill="#C6ED07"/>
<path d="M1664.69 483.65L1664.35 482.944L1664.69 483.65Z" fill="#C6ED07"/>
<path d="M1664.04 482.25C1663.96 482.03 1663.88 481.794 1663.79 481.559L1664.04 482.25Z" fill="#C6ED07"/>
<path d="M1678.29 491.766C1677.77 491.766 1677.27 491.766 1676.81 491.766C1677.27 491.736 1677.79 491.766 1678.29 491.766Z" fill="#C6ED07"/>
<path d="M1663.18 479.364C1663.18 479.099 1663.09 478.819 1663.04 478.555C1663.09 478.819 1663.12 479.099 1663.18 479.364Z" fill="#C6ED07"/>
<path d="M1669.07 488.687L1668.52 488.275L1669.07 488.687Z" fill="#C6ED07"/>
<path d="M1852.75 242.422L1848.23 237.9C1843.25 232.903 1840.45 226.131 1840.45 219.071C1840.45 212.01 1843.25 205.239 1848.23 200.241C1850.98 197.322 1852.48 193.447 1852.42 189.439C1852.36 185.431 1850.74 181.604 1847.91 178.769C1845.07 175.935 1841.25 174.316 1837.24 174.255C1833.23 174.194 1829.36 175.696 1826.44 178.444C1815.68 189.228 1809.64 203.838 1809.64 219.071C1809.64 234.303 1815.68 248.913 1826.44 259.698L1830.96 264.204C1835.94 269.202 1838.75 275.974 1838.75 283.034C1838.75 290.094 1835.94 296.866 1830.96 301.864L1693.71 439.113V460.911H1715.51L1852.75 323.676C1863.51 312.89 1869.55 298.28 1869.55 283.049C1869.55 267.818 1863.51 253.208 1852.75 242.422Z" fill="#C6ED07"/>
<path d="M1674.52 491.28C1674.28 491.28 1674.05 491.177 1673.83 491.103C1674.05 491.177 1674.28 491.221 1674.52 491.28Z" fill="#C6ED07"/>
<path d="M1676.09 491.589L1675.28 491.471L1676.09 491.589Z" fill="#C6ED07"/>
<path d="M1662.96 477.863C1662.93 477.372 1662.93 476.88 1662.96 476.39C1662.93 476.88 1662.93 477.372 1662.96 477.863Z" fill="#C6ED07"/>
<path d="M1673.82 491.103L1673.07 490.838L1673.82 491.103Z" fill="#14899B"/>
<path d="M1675.28 491.471L1674.52 491.28L1675.28 491.471Z" fill="#14899B"/>
<path d="M1676.77 491.692L1676.09 491.589L1676.77 491.692Z" fill="#14899B"/>
<path d="M1669.73 489.173L1669.07 488.688L1669.73 489.173Z" fill="#14899B"/>
<path d="M1671.03 489.939C1670.81 489.827 1670.61 489.705 1670.41 489.571C1670.61 489.708 1670.81 489.831 1671.03 489.939Z" fill="#14899B"/>
<path d="M1672.4 490.587C1672.16 490.499 1671.94 490.381 1671.72 490.278C1671.94 490.381 1672.16 490.499 1672.4 490.587Z" fill="#14899B"/>
<path d="M1668.52 488.275C1668.13 487.951 1667.75 487.607 1667.39 487.244C1667.75 487.607 1668.13 487.951 1668.52 488.275Z" fill="#14899B"/>
<path d="M1663.04 478.554C1663.04 478.319 1662.97 478.098 1662.96 477.863C1662.97 478.098 1663.01 478.319 1663.04 478.554Z" fill="#14899B"/>
<path d="M1663.37 480.13C1663.37 479.865 1663.22 479.615 1663.18 479.365C1663.22 479.615 1663.29 479.865 1663.37 480.13Z" fill="#14899B"/>
<path d="M1678.29 491.766H1742.07C1746.16 491.766 1750.09 490.141 1752.98 487.249C1755.87 484.357 1757.49 480.435 1757.49 476.346C1757.49 472.256 1755.87 468.334 1752.98 465.442C1750.09 462.55 1746.16 460.925 1742.07 460.925H1715.56L1689.24 487.244C1687.81 488.688 1686.1 489.832 1684.22 490.608C1682.34 491.384 1680.32 491.778 1678.29 491.766Z" fill="#14899B"/>
<path d="M1693.71 439.128V412.618C1693.77 410.554 1693.42 408.498 1692.67 406.572C1691.93 404.646 1690.8 402.89 1689.37 401.407C1687.93 399.925 1686.21 398.746 1684.31 397.941C1682.4 397.136 1680.36 396.721 1678.29 396.721C1676.23 396.721 1674.19 397.136 1672.28 397.941C1670.38 398.746 1668.66 399.925 1667.22 401.407C1665.79 402.89 1664.66 404.646 1663.91 406.572C1663.17 408.498 1662.82 410.554 1662.88 412.618V476.287C1662.88 474.263 1663.27 472.258 1664.05 470.387C1664.82 468.517 1665.96 466.818 1667.39 465.388L1693.71 439.128Z" fill="#14899B"/>
<path d="M1663.84 481.558C1663.75 481.308 1663.66 481.073 1663.59 480.823C1663.62 481.073 1663.71 481.308 1663.84 481.558Z" fill="#14899B"/>
<path d="M1665.96 485.564C1665.8 485.344 1665.62 485.138 1665.47 484.902C1665.62 485.123 1665.8 485.344 1665.96 485.564Z" fill="#14899B"/>
<path d="M1667.39 487.244C1667.03 486.893 1666.69 486.519 1666.37 486.125C1666.7 486.508 1667.03 486.891 1667.39 487.244Z" fill="#14899B"/>
<path d="M1665.06 484.239L1664.69 483.621L1665.06 484.239Z" fill="#14899B"/>
<path d="M1664.35 482.913L1664.05 482.251L1664.35 482.913Z" fill="#14899B"/>
<path d="M1693.71 439.128L1667.39 465.447C1665.96 466.877 1664.82 468.576 1664.05 470.446C1663.27 472.317 1662.88 474.321 1662.88 476.345C1662.85 476.836 1662.85 477.328 1662.88 477.818C1662.88 478.054 1662.88 478.275 1662.97 478.51C1663.06 478.746 1662.97 479.055 1663.1 479.32C1663.24 479.586 1663.22 479.821 1663.29 480.086C1663.37 480.351 1663.4 480.558 1663.47 480.779C1663.54 480.999 1663.63 481.265 1663.72 481.515C1663.81 481.765 1663.88 481.986 1663.97 482.207L1664.28 482.87L1664.62 483.577L1664.99 484.195C1665.12 484.416 1665.25 484.652 1665.4 484.858C1665.55 485.064 1665.72 485.3 1665.89 485.521C1666.05 485.742 1666.15 485.904 1666.3 486.081C1666.61 486.475 1666.95 486.848 1667.31 487.2C1667.67 487.563 1668.05 487.907 1668.45 488.231L1668.99 488.643L1669.66 489.129C1669.88 489.277 1670.1 489.394 1670.33 489.527C1670.53 489.66 1670.74 489.783 1670.95 489.895C1671.18 490.023 1671.41 490.136 1671.64 490.234C1671.87 490.337 1672.09 490.455 1672.32 490.543C1672.54 490.639 1672.77 490.723 1673 490.794L1673.75 491.059C1673.97 491.132 1674.21 491.176 1674.44 491.235L1675.21 491.427L1676.02 491.545L1676.7 491.648C1677.2 491.648 1677.7 491.648 1678.17 491.648C1680.19 491.652 1682.2 491.255 1684.07 490.479C1685.94 489.702 1687.64 488.563 1689.07 487.126L1715.39 460.807H1693.59L1693.71 439.128Z" fill="#C6ED07"/>
<path d="M1693.71 439.128L1667.39 465.447C1665.96 466.877 1664.82 468.576 1664.05 470.446C1663.27 472.317 1662.88 474.321 1662.88 476.345C1662.85 476.836 1662.85 477.328 1662.88 477.818C1662.88 478.054 1662.88 478.275 1662.97 478.51C1663.06 478.746 1662.97 479.055 1663.1 479.32C1663.24 479.586 1663.22 479.821 1663.29 480.086C1663.37 480.351 1663.4 480.558 1663.47 480.779C1663.54 480.999 1663.63 481.265 1663.72 481.515C1663.81 481.765 1663.88 481.986 1663.97 482.207L1664.28 482.87L1664.62 483.577L1664.99 484.195C1665.12 484.416 1665.25 484.652 1665.4 484.858C1665.55 485.064 1665.72 485.3 1665.89 485.521C1666.05 485.742 1666.15 485.904 1666.3 486.081C1666.61 486.475 1666.95 486.848 1667.31 487.2C1667.67 487.563 1668.05 487.907 1668.45 488.231L1668.99 488.643L1669.66 489.129C1669.88 489.277 1670.1 489.394 1670.33 489.527C1670.53 489.66 1670.74 489.783 1670.95 489.895C1671.18 490.023 1671.41 490.136 1671.64 490.234C1671.87 490.337 1672.09 490.455 1672.32 490.543C1672.54 490.639 1672.77 490.723 1673 490.794L1673.75 491.059C1673.97 491.132 1674.21 491.176 1674.44 491.235L1675.21 491.427L1676.02 491.545L1676.7 491.648C1677.2 491.648 1677.7 491.648 1678.17 491.648C1680.19 491.652 1682.2 491.255 1684.07 490.479C1685.94 489.702 1687.64 488.563 1689.07 487.126L1715.39 460.807H1693.59L1693.71 439.128Z" fill="#086E0F"/>
<path d="M1328.73 461.559L1305.35 435.785C1303.28 433.501 1300.56 431.9 1297.56 431.192C1294.56 430.484 1291.42 430.703 1288.55 431.821C1285.67 432.938 1283.21 434.9 1281.47 437.449C1279.74 439.998 1278.82 443.012 1278.84 446.094V448.907C1279.34 451.721 1280.64 454.335 1282.56 456.448L1309.66 486.331V461.559H1328.73Z" fill="#C42A56"/>
<path d="M1328.73 461.559H1354.67C1356.73 461.622 1358.79 461.271 1360.72 460.525C1362.64 459.779 1364.4 458.654 1365.88 457.217C1367.36 455.779 1368.54 454.058 1369.35 452.157C1370.15 450.255 1370.57 448.211 1370.57 446.146C1370.57 444.081 1370.15 442.037 1369.35 440.135C1368.54 438.233 1367.36 436.512 1365.88 435.075C1364.4 433.637 1362.64 432.512 1360.72 431.766C1358.79 431.021 1356.73 430.669 1354.67 430.733H1293.86C1296.02 430.717 1298.16 431.157 1300.14 432.025C1302.12 432.893 1303.89 434.169 1305.35 435.77L1328.73 461.559Z" fill="#C42A56"/>
<path d="M1278.79 448.937V506.582C1278.73 508.646 1279.08 510.702 1279.83 512.628C1280.57 514.553 1281.7 516.31 1283.13 517.792C1284.57 519.275 1286.29 520.454 1288.19 521.259C1290.1 522.064 1292.14 522.479 1294.21 522.479C1296.27 522.479 1298.31 522.064 1300.22 521.259C1302.12 520.454 1303.84 519.275 1305.28 517.792C1306.71 516.31 1307.84 514.553 1308.58 512.628C1309.33 510.702 1309.68 508.646 1309.62 506.582V486.36L1282.52 456.477C1280.59 454.364 1279.3 451.751 1278.79 448.937Z" fill="#C42A56"/>
<path d="M1293.86 430.719C1291.6 430.725 1289.38 431.228 1287.33 432.192C1285.29 433.156 1283.49 434.557 1282.05 436.295C1280.62 438.034 1279.58 440.068 1279.01 442.253C1278.45 444.437 1278.37 446.72 1278.79 448.937V446.124C1278.79 442.097 1280.37 438.232 1283.19 435.353C1286 432.474 1289.83 430.811 1293.86 430.719Z" fill="#14899B"/>
<path d="M1328.73 461.559H1309.59V486.39L1330.99 509.851L1331.5 510.382C1336.46 515.363 1339.26 522.099 1339.28 529.128C1339.3 536.157 1336.55 542.911 1331.62 547.923L982.761 892.233C979.918 895.12 978.327 899.01 978.33 903.062C978.333 907.113 979.93 911.001 982.776 913.884C985.623 916.767 989.489 918.414 993.541 918.469C997.592 918.524 1001.5 916.982 1004.43 914.177L1353.3 569.809C1353.34 569.766 1353.38 569.727 1353.42 569.691C1364.08 558.952 1370.08 544.437 1370.1 529.302C1370.12 514.167 1364.17 499.635 1353.54 488.864L1328.73 461.559Z" fill="#14899B"/>
<path d="M1328.73 461.559L1305.35 435.785C1303.28 433.501 1300.56 431.9 1297.56 431.192C1294.56 430.484 1291.42 430.703 1288.55 431.821C1285.67 432.938 1283.21 434.9 1281.47 437.449C1279.74 439.998 1278.82 443.012 1278.84 446.094V448.907C1279.34 451.721 1280.64 454.335 1282.56 456.448L1309.66 486.331V461.559H1328.73Z" fill="#922D69"/>
<path d="M1599.58 890.819C1596.53 890.817 1593.55 889.912 1591.02 888.217C1588.49 886.523 1586.51 884.115 1585.34 881.299C1584.18 878.482 1583.87 875.383 1584.47 872.393C1585.06 869.403 1586.53 866.657 1588.68 864.5L1585.55 867.623C1581.2 871.953 1575.49 874.654 1569.39 875.27C1563.28 875.887 1557.15 874.383 1552.02 871.01L1551.91 870.995L1494.72 834.013C1483.67 826.726 1470.44 823.478 1457.27 824.82C1444.1 826.161 1431.8 832.011 1422.45 841.377L1285.02 978.804C1282.2 981.71 1280.64 985.607 1280.67 989.655C1280.7 993.702 1282.32 997.576 1285.18 1000.44C1288.05 1003.3 1291.92 1004.93 1295.97 1004.96C1300.01 1004.99 1303.91 1003.43 1306.82 1000.62L1444.25 863.175C1448.6 858.851 1454.31 856.155 1460.42 855.541C1466.52 854.927 1472.65 856.432 1477.78 859.802L1477.91 859.89L1535.1 896.872C1546.15 904.16 1559.38 907.408 1572.55 906.066C1585.72 904.724 1598.02 898.875 1607.37 889.508L1628.17 868.712L1610.49 886.386C1609.06 887.809 1607.35 888.933 1605.48 889.694C1603.61 890.454 1601.6 890.837 1599.58 890.819Z" fill="#14899B"/>
<path d="M1770.57 704.407H1748.77L1588.73 864.5L1606.4 846.827C1607.83 845.394 1609.53 844.258 1611.4 843.483C1613.28 842.708 1615.28 842.309 1617.31 842.309C1619.33 842.309 1621.34 842.708 1623.21 843.483C1625.08 844.258 1626.78 845.394 1628.21 846.827C1629.64 848.259 1630.78 849.959 1631.56 851.83C1632.33 853.702 1632.73 855.707 1632.73 857.733C1632.73 859.758 1632.33 861.764 1631.56 863.635C1630.78 865.506 1629.64 867.206 1628.21 868.639L1770.63 726.22L1770.57 704.407Z" fill="#6CCD18"/>
<path d="M1628.15 846.826C1625.26 843.94 1621.34 842.32 1617.25 842.32C1613.16 842.32 1609.24 843.94 1606.34 846.826L1588.67 864.5C1587.16 865.915 1585.96 867.617 1585.13 869.506C1584.29 871.394 1583.85 873.431 1583.82 875.495C1583.79 877.56 1584.17 879.609 1584.94 881.522C1585.72 883.435 1586.87 885.173 1588.33 886.633C1589.79 888.093 1591.53 889.245 1593.44 890.02C1595.36 890.796 1597.41 891.179 1599.47 891.148C1601.53 891.116 1603.57 890.671 1605.46 889.838C1607.35 889.005 1609.05 887.801 1610.47 886.297L1628.14 868.624C1631.02 865.731 1632.64 861.813 1632.65 857.728C1632.65 853.643 1631.03 849.724 1628.15 846.826Z" fill="#6CCD18"/>
<path d="M1628.15 846.826C1625.26 843.94 1621.34 842.32 1617.25 842.32C1613.16 842.32 1609.24 843.94 1606.34 846.826L1588.67 864.5C1587.16 865.915 1585.96 867.617 1585.13 869.506C1584.29 871.394 1583.85 873.431 1583.82 875.495C1583.79 877.56 1584.17 879.609 1584.94 881.522C1585.72 883.435 1586.87 885.173 1588.33 886.633C1589.79 888.093 1591.53 889.245 1593.44 890.02C1595.36 890.796 1597.41 891.179 1599.47 891.148C1601.53 891.116 1603.57 890.671 1605.46 889.838C1607.35 889.005 1609.05 887.801 1610.47 886.297L1628.14 868.624C1631.02 865.731 1632.64 861.813 1632.65 857.728C1632.65 853.643 1631.03 849.724 1628.15 846.826Z" fill="#086E0F"/>
<path d="M1799.22 681.108L1799.59 681.726L1799.22 681.108Z" fill="#14899B"/>
<path d="M1790.5 674.245L1791.24 674.495L1790.5 674.245Z" fill="#14899B"/>
<path d="M1798.32 679.782C1798.48 679.988 1798.66 680.209 1798.81 680.43C1798.66 680.209 1798.48 679.988 1798.32 679.782Z" fill="#14899B"/>
<path d="M1799.93 682.478L1800.23 683.154L1799.93 682.478Z" fill="#14899B"/>
<path d="M1791.88 674.745L1792.56 675.069L1791.88 674.745Z" fill="#14899B"/>
<path d="M1793.25 675.393L1793.87 675.761L1793.25 675.393Z" fill="#14899B"/>
<path d="M1794.55 676.174L1795.21 676.659L1794.55 676.174Z" fill="#14899B"/>
<path d="M1795.76 677.072C1796.14 677.382 1796.51 677.72 1796.88 678.074C1796.52 677.72 1796.14 677.396 1795.76 677.072Z" fill="#14899B"/>
<path d="M1796.91 678.059C1797.26 678.41 1797.59 678.778 1797.91 679.164C1797.59 678.778 1797.26 678.41 1796.91 678.059Z" fill="#14899B"/>
<path d="M1800.49 683.774C1800.57 684.024 1800.66 684.274 1800.74 684.524C1800.66 684.274 1800.57 684.024 1800.49 683.774Z" fill="#14899B"/>
<path d="M1787.55 673.641C1787.78 673.661 1788.01 673.695 1788.23 673.744C1788.01 673.694 1787.78 673.66 1787.55 673.641Z" fill="#14899B"/>
<path d="M1785.99 673.641H1725.52C1721.51 673.765 1717.71 675.443 1714.93 678.32C1712.14 681.197 1710.58 685.047 1710.58 689.054C1710.58 693.061 1712.14 696.911 1714.93 699.788C1717.71 702.665 1721.51 704.343 1725.52 704.467H1748.77L1775.09 678.059C1776.53 676.643 1778.23 675.524 1780.1 674.766C1781.97 674.008 1783.97 673.626 1785.99 673.641Z" fill="#14899B"/>
<path d="M1789.03 673.877C1789.29 673.925 1789.54 673.989 1789.79 674.068C1789.54 673.989 1789.29 673.925 1789.03 673.877Z" fill="#14899B"/>
<path d="M1800.91 685.217C1800.99 685.468 1801.05 685.723 1801.1 685.982C1801.05 685.723 1800.99 685.468 1800.91 685.217Z" fill="#14899B"/>
<path d="M1770.57 726.22V749.46C1770.7 753.466 1772.37 757.265 1775.25 760.055C1778.13 762.844 1781.98 764.404 1785.98 764.404C1789.99 764.404 1793.84 762.844 1796.72 760.055C1799.6 757.265 1801.27 753.466 1801.4 749.46V688.987C1801.4 691.013 1801 693.02 1800.23 694.893C1799.46 696.765 1798.32 698.467 1796.89 699.901L1770.57 726.22Z" fill="#14899B"/>
<path d="M1801.24 686.793C1801.24 687.013 1801.31 687.249 1801.32 687.469C1801.31 687.249 1801.27 687.013 1801.24 686.793Z" fill="#14899B"/>
<path d="M1785.99 673.641C1786.51 673.641 1787.01 673.641 1787.47 673.714C1787.01 673.641 1786.49 673.641 1785.99 673.641Z" fill="#6CCD18"/>
<path d="M1788.19 673.759C1788.46 673.782 1788.73 673.822 1789 673.876C1788.73 673.822 1788.46 673.782 1788.19 673.759Z" fill="#6CCD18"/>
<path d="M1789.76 674.068L1790.47 674.245L1789.76 674.068Z" fill="#6CCD18"/>
<path d="M1793.87 675.762L1794.55 676.173L1793.87 675.762Z" fill="#6CCD18"/>
<path d="M1792.56 675.114L1793.25 675.437L1792.56 675.114Z" fill="#6CCD18"/>
<path d="M1791.21 674.495L1791.88 674.745L1791.21 674.495Z" fill="#6CCD18"/>
<path d="M1800.81 684.525C1800.81 684.746 1800.93 684.981 1800.99 685.216C1800.94 684.982 1800.88 684.751 1800.81 684.525Z" fill="#6CCD18"/>
<path d="M1801.1 685.983C1801.1 686.248 1801.19 686.512 1801.24 686.792C1801.19 686.512 1801.16 686.248 1801.1 685.983Z" fill="#6CCD18"/>
<path d="M1801.32 687.47C1801.35 687.961 1801.35 688.453 1801.32 688.943C1801.35 688.453 1801.35 687.961 1801.32 687.47Z" fill="#6CCD18"/>
<path d="M1795.21 676.66L1795.76 677.072L1795.21 676.66Z" fill="#6CCD18"/>
<path d="M1800.23 683.096C1800.32 683.317 1800.4 683.552 1800.48 683.773C1800.4 683.552 1800.32 683.317 1800.23 683.096Z" fill="#6CCD18"/>
<path d="M1797.86 679.223C1798.01 679.399 1798.14 679.591 1798.28 679.782C1798.19 679.532 1798.05 679.399 1797.86 679.223Z" fill="#6CCD18"/>
<path d="M1798.81 680.43C1798.95 680.651 1799.09 680.886 1799.22 681.107C1799.09 680.886 1798.95 680.651 1798.81 680.43Z" fill="#6CCD18"/>
<path d="M1799.59 681.727C1799.7 681.947 1799.81 682.197 1799.92 682.418C1799.81 682.197 1799.7 681.962 1799.59 681.727Z" fill="#6CCD18"/>
<path d="M1801.32 687.47C1801.32 687.249 1801.32 687.014 1801.24 686.793C1801.15 686.572 1801.24 686.248 1801.1 685.983C1801.06 685.724 1800.99 685.468 1800.91 685.217C1800.91 684.981 1800.81 684.746 1800.74 684.525C1800.66 684.304 1800.57 684.024 1800.49 683.774C1800.4 683.523 1800.32 683.317 1800.23 683.096L1799.93 682.419C1799.81 682.198 1799.7 681.947 1799.59 681.726L1799.22 681.108C1799.09 680.887 1798.95 680.651 1798.81 680.43C1798.66 680.209 1798.48 679.989 1798.32 679.782C1798.16 679.576 1798.05 679.399 1797.91 679.223C1797.59 678.837 1797.26 678.468 1796.91 678.118C1796.54 677.765 1796.17 677.426 1795.79 677.117L1795.24 676.704L1794.58 676.218L1793.9 675.806L1793.28 675.438L1792.59 675.114L1791.91 674.79L1791.24 674.539L1790.5 674.289L1789.79 674.112C1789.54 674.033 1789.29 673.969 1789.03 673.921C1788.76 673.866 1788.49 673.827 1788.22 673.803C1788 673.735 1787.78 673.681 1787.55 673.641C1787.05 673.641 1786.55 673.567 1786.08 673.567C1784.06 673.563 1782.05 673.96 1780.18 674.733C1778.31 675.506 1776.61 676.642 1775.18 678.074L1748.86 704.393H1770.66V726.22L1796.98 699.901C1798.41 698.467 1799.55 696.765 1800.32 694.892C1801.09 693.02 1801.49 691.013 1801.49 688.987C1801.46 688.479 1801.41 687.972 1801.32 687.47Z" fill="#6CCD18"/>
<path d="M1801.32 687.47C1801.32 687.249 1801.32 687.014 1801.24 686.793C1801.15 686.572 1801.24 686.248 1801.1 685.983C1801.06 685.724 1800.99 685.468 1800.91 685.217C1800.91 684.981 1800.81 684.746 1800.74 684.525C1800.66 684.304 1800.57 684.024 1800.49 683.774C1800.4 683.523 1800.32 683.317 1800.23 683.096L1799.93 682.419C1799.81 682.198 1799.7 681.947 1799.59 681.726L1799.22 681.108C1799.09 680.887 1798.95 680.651 1798.81 680.43C1798.66 680.209 1798.48 679.989 1798.32 679.782C1798.16 679.576 1798.05 679.399 1797.91 679.223C1797.59 678.837 1797.26 678.468 1796.91 678.118C1796.54 677.765 1796.17 677.426 1795.79 677.117L1795.24 676.704L1794.58 676.218L1793.9 675.806L1793.28 675.438L1792.59 675.114L1791.91 674.79L1791.24 674.539L1790.5 674.289L1789.79 674.112C1789.54 674.033 1789.29 673.969 1789.03 673.921C1788.76 673.866 1788.49 673.827 1788.22 673.803C1788 673.735 1787.78 673.681 1787.55 673.641C1787.05 673.641 1786.55 673.567 1786.08 673.567C1784.06 673.563 1782.05 673.96 1780.18 674.733C1778.31 675.506 1776.61 676.642 1775.18 678.074L1748.86 704.393H1770.66V726.22L1796.98 699.901C1798.41 698.467 1799.55 696.765 1800.32 694.892C1801.09 693.02 1801.49 691.013 1801.49 688.987C1801.46 688.479 1801.41 687.972 1801.32 687.47Z" fill="#007400"/>
<path d="M1201.12 974.797C1200.87 974.791 1200.63 974.691 1200.45 974.518C1200.28 974.339 1200.19 974.102 1200.19 973.855C1200.19 973.608 1200.28 973.37 1200.45 973.192L1526.38 647.278C1526.47 647.19 1526.57 647.12 1526.69 647.072C1526.8 647.024 1526.92 646.999 1527.05 646.999C1527.17 646.999 1527.29 647.024 1527.41 647.072C1527.52 647.12 1527.62 647.19 1527.71 647.278C1527.88 647.456 1527.98 647.693 1527.98 647.94C1527.98 648.188 1527.88 648.425 1527.71 648.603L1201.78 974.518C1201.6 974.695 1201.37 974.795 1201.12 974.797Z" fill="white"/>
<path d="M1527.9 652.462L1535.23 639.737L1522.52 647.086L1527.9 652.462Z" fill="white"/>
<path d="M1661.59 970.983C1661.4 970.985 1661.22 970.95 1661.04 970.879C1660.87 970.808 1660.71 970.703 1660.58 970.571C1660.34 970.299 1660.2 969.945 1660.2 969.577C1660.2 969.209 1660.34 968.854 1660.58 968.582L1836.66 792.525C1836.93 792.28 1837.28 792.145 1837.64 792.145C1838.01 792.145 1838.36 792.28 1838.63 792.525C1838.88 792.796 1839.02 793.151 1839.02 793.519C1839.02 793.887 1838.88 794.241 1838.63 794.513L1662.57 970.571C1662.44 970.701 1662.29 970.805 1662.12 970.876C1661.95 970.947 1661.77 970.983 1661.59 970.983Z" fill="white"/>
<path d="M1838.93 800.301L1849.94 781.229L1830.87 792.23L1838.93 800.301Z" fill="white"/>
<path d="M790.473 922.248C790.289 922.25 790.107 922.214 789.937 922.144C789.767 922.073 789.614 921.968 789.486 921.836C789.242 921.565 789.106 921.214 789.106 920.849C789.106 920.485 789.242 920.133 789.486 919.862L1042.81 666.542C1042.91 666.334 1043.06 666.155 1043.25 666.017C1043.44 665.88 1043.66 665.789 1043.89 665.752C1044.11 665.715 1044.35 665.732 1044.57 665.803C1044.79 665.874 1044.99 665.997 1045.16 666.16C1045.32 666.324 1045.45 666.525 1045.52 666.745C1045.59 666.966 1045.61 667.201 1045.58 667.431C1045.54 667.66 1045.45 667.878 1045.32 668.067C1045.18 668.255 1045 668.409 1044.79 668.515L791.474 921.836C791.345 921.971 791.189 922.077 791.017 922.148C790.844 922.219 790.659 922.253 790.473 922.248Z" fill="white"/>
<path d="M1044.96 674.348L1055.97 655.29L1036.9 666.292L1044.96 674.348Z" fill="white"/>
<path d="M1716.08 652.3C1715.9 652.3 1715.71 652.264 1715.54 652.193C1715.38 652.122 1715.22 652.018 1715.09 651.888C1714.84 651.616 1714.71 651.261 1714.71 650.893C1714.71 650.525 1714.84 650.171 1715.09 649.899L2150.73 214.277C2150.86 214.131 2151.01 214.013 2151.18 213.93C2151.36 213.847 2151.55 213.801 2151.74 213.794C2151.93 213.787 2152.12 213.819 2152.3 213.89C2152.48 213.96 2152.64 214.067 2152.78 214.203C2152.91 214.338 2153.02 214.501 2153.09 214.68C2153.16 214.859 2153.19 215.05 2153.19 215.242C2153.18 215.435 2153.13 215.623 2153.05 215.797C2152.97 215.97 2152.85 216.124 2152.7 216.25L1717.08 651.888C1716.95 652.02 1716.79 652.125 1716.62 652.196C1716.45 652.267 1716.27 652.302 1716.08 652.3Z" fill="white"/>
<path d="M1714.8 644.111L1703.8 663.184L1722.87 652.182L1714.8 644.111Z" fill="white"/>
<path d="M1603.73 406.123C1603.43 406.126 1603.12 406.068 1602.84 405.952C1602.56 405.835 1602.3 405.663 1602.09 405.445C1601.87 405.229 1601.7 404.972 1601.58 404.689C1601.46 404.406 1601.4 404.102 1601.4 403.796C1601.4 403.489 1601.46 403.186 1601.58 402.902C1601.7 402.619 1601.87 402.362 1602.09 402.146L1773.83 240.387C1774.28 239.99 1774.86 239.779 1775.46 239.797C1776.05 239.815 1776.62 240.062 1777.04 240.485C1777.47 240.909 1777.71 241.479 1777.73 242.077C1777.74 242.675 1777.53 243.256 1777.13 243.701L1605.38 405.445C1605.17 405.661 1604.91 405.832 1604.63 405.948C1604.34 406.064 1604.04 406.124 1603.73 406.123Z" fill="white"/>
<path d="M1601.6 392.485L1583.23 424.267L1615.03 405.931L1601.6 392.485Z" fill="white"/>
<path d="M994.926 956.137C994.62 956.139 994.316 956.08 994.033 955.964C993.75 955.848 993.493 955.676 993.276 955.46C993.059 955.242 992.886 954.984 992.768 954.7C992.65 954.415 992.589 954.111 992.589 953.803C992.589 953.495 992.65 953.19 992.768 952.906C992.886 952.622 993.059 952.363 993.276 952.146L1225.02 720.402C1225.46 719.962 1226.06 719.716 1226.68 719.716C1227.3 719.716 1227.89 719.962 1228.33 720.402C1228.77 720.841 1229.02 721.437 1229.02 722.059C1229.02 722.68 1228.77 723.276 1228.33 723.716L996.575 955.46C996.359 955.676 996.102 955.848 995.819 955.964C995.535 956.08 995.232 956.139 994.926 956.137Z" fill="white"/>
<path d="M1228.81 733.348L1247.17 701.565L1215.37 719.916L1228.81 733.348Z" fill="white"/>
<path d="M1883.02 413.384C1882.76 413.355 1882.51 413.256 1882.3 413.097C1882.09 412.939 1881.92 412.726 1881.82 412.483C1881.72 412.239 1881.69 411.972 1881.72 411.711C1881.76 411.45 1881.87 411.203 1882.03 410.998L2006.69 286.323C2006.8 286.119 2006.95 285.942 2007.14 285.808C2007.33 285.674 2007.55 285.586 2007.78 285.551C2008 285.516 2008.24 285.536 2008.46 285.608C2008.68 285.68 2008.88 285.802 2009.04 285.966C2009.2 286.129 2009.32 286.329 2009.4 286.548C2009.47 286.767 2009.49 287.001 2009.45 287.229C2009.42 287.457 2009.33 287.674 2009.2 287.862C2009.06 288.05 2008.89 288.204 2008.68 288.312L1884.02 412.956C1883.89 413.092 1883.74 413.199 1883.56 413.273C1883.39 413.346 1883.21 413.384 1883.02 413.384Z" fill="white"/>
<path d="M1881.74 405.21L1870.72 424.282L1889.81 413.266L1881.74 405.21Z" fill="white"/>
<path d="M1613.13 490.823C1613.23 491.058 1613.31 491.294 1613.4 491.514C1613.31 491.294 1613.23 491.014 1613.13 490.823Z" fill="#015A00"/>
<path d="M1606.78 483.503L1607.46 483.9C1607.24 483.753 1607 483.65 1606.78 483.503Z" fill="#015A00"/>
<path d="M1610.82 486.95L1611.23 487.509L1610.82 486.95Z" fill="#015A00"/>
<path d="M1611.72 488.172C1611.86 488.378 1611.98 488.613 1612.13 488.849C1611.98 488.613 1611.86 488.393 1611.72 488.172Z" fill="#015A00"/>
<path d="M1612.48 489.453C1612.61 489.683 1612.72 489.918 1612.82 490.159C1612.72 489.918 1612.61 489.683 1612.48 489.453Z" fill="#015A00"/>
<path d="M1608.11 484.387C1608.29 484.519 1608.49 484.652 1608.67 484.799L1608.11 484.387Z" fill="#015A00"/>
<path d="M1601.1 481.486L1601.91 481.603L1601.1 481.486Z" fill="#015A00"/>
<path d="M1598.89 481.309C1599.4 481.309 1599.92 481.309 1600.36 481.382C1599.9 481.338 1599.4 481.309 1598.89 481.309Z" fill="#015A00"/>
<path d="M1602.67 481.795L1603.37 481.971L1602.67 481.795Z" fill="#015A00"/>
<path d="M1605.46 482.796L1606.16 483.135C1605.93 483.01 1605.7 482.897 1605.46 482.796Z" fill="#015A00"/>
<path d="M1604.1 482.178L1604.79 482.428C1604.57 482.332 1604.34 482.248 1604.1 482.178Z" fill="#015A00"/>
<path d="M1561.67 512.149L1372.64 701.182L1392.61 681.211C1394.02 679.708 1395.73 678.504 1397.62 677.67C1399.5 676.837 1401.54 676.392 1403.6 676.36C1405.67 676.329 1407.72 676.713 1409.63 677.488C1411.54 678.264 1413.28 679.415 1414.74 680.875C1416.2 682.335 1417.35 684.073 1418.13 685.986C1418.9 687.899 1419.29 689.949 1419.26 692.013C1419.23 694.077 1418.78 696.114 1417.95 698.003C1417.11 699.891 1415.91 701.594 1414.41 703.008L1583.48 533.946V512.149H1561.67Z" fill="#015A00"/>
<path d="M1614.01 493.71C1614.01 493.989 1614.1 494.254 1614.13 494.533C1614.1 494.254 1614.06 493.96 1614.01 493.71Z" fill="#015A00"/>
<path d="M1613.65 492.252C1613.72 492.487 1613.76 492.722 1613.82 492.958C1613.76 492.722 1613.76 492.487 1613.65 492.252Z" fill="#015A00"/>
<path d="M1383.54 727.501C1380.49 727.499 1377.51 726.593 1374.98 724.899C1372.44 723.204 1370.47 720.797 1369.3 717.98C1368.13 715.164 1367.83 712.065 1368.42 709.075C1369.02 706.085 1370.48 703.339 1372.64 701.182L1163.24 910.584C1161.73 911.999 1160.53 913.701 1159.7 915.59C1158.86 917.478 1158.42 919.515 1158.39 921.579C1158.35 923.643 1158.74 925.693 1159.51 927.606C1160.29 929.519 1161.44 931.257 1162.9 932.717C1164.36 934.177 1166.1 935.328 1168.01 936.104C1169.92 936.879 1171.97 937.263 1174.04 937.232C1176.1 937.2 1178.14 936.755 1180.03 935.922C1181.92 935.088 1183.62 933.884 1185.03 932.381L1414.41 703.008L1394.44 722.979C1393.01 724.416 1391.31 725.556 1389.44 726.332C1387.57 727.108 1385.56 727.505 1383.54 727.501Z" fill="#6CCD00"/>
<path d="M1414.41 681.211C1412.98 679.779 1411.28 678.643 1409.41 677.867C1407.54 677.092 1405.53 676.693 1403.51 676.693C1401.48 676.693 1399.48 677.092 1397.61 677.867C1395.74 678.643 1394.04 679.779 1392.61 681.211L1372.64 701.182C1371.14 702.597 1369.93 704.299 1369.1 706.188C1368.26 708.077 1367.82 710.113 1367.79 712.178C1367.76 714.242 1368.14 716.291 1368.92 718.204C1369.69 720.117 1370.84 721.855 1372.3 723.315C1373.76 724.775 1375.5 725.927 1377.41 726.702C1379.33 727.478 1381.38 727.861 1383.44 727.83C1385.5 727.799 1387.54 727.353 1389.43 726.52C1391.32 725.687 1393.02 724.483 1394.44 722.979L1414.41 703.008C1415.84 701.578 1416.98 699.879 1417.75 698.008C1418.53 696.138 1418.92 694.134 1418.92 692.11C1418.92 690.085 1418.53 688.081 1417.75 686.211C1416.98 684.341 1415.84 682.642 1414.41 681.211Z" fill="#015A00"/>
<path d="M1414.41 681.211C1412.98 679.779 1411.28 678.643 1409.41 677.867C1407.54 677.092 1405.53 676.693 1403.51 676.693C1401.48 676.693 1399.48 677.092 1397.61 677.867C1395.74 678.643 1394.04 679.779 1392.61 681.211L1372.64 701.182C1371.14 702.597 1369.93 704.299 1369.1 706.188C1368.26 708.077 1367.82 710.113 1367.79 712.178C1367.76 714.242 1368.14 716.291 1368.92 718.204C1369.69 720.117 1370.84 721.855 1372.3 723.315C1373.76 724.775 1375.5 725.927 1377.41 726.702C1379.33 727.478 1381.38 727.861 1383.44 727.83C1385.5 727.799 1387.54 727.353 1389.43 726.52C1391.32 725.687 1393.02 724.483 1394.44 722.979L1414.41 703.008C1415.84 701.578 1416.98 699.879 1417.75 698.008C1418.53 696.138 1418.92 694.134 1418.92 692.11C1418.92 690.085 1418.53 688.081 1417.75 686.211C1416.98 684.341 1415.84 682.642 1414.41 681.211Z" fill="#009000"/>
<path d="M1606.16 483.135C1606.38 483.247 1606.58 483.369 1606.78 483.503C1606.58 483.369 1606.38 483.247 1606.16 483.135Z" fill="#C6ED07"/>
<path d="M1598.89 481.309H1510.04C1505.95 481.309 1502.02 482.933 1499.13 485.825C1496.24 488.717 1494.62 492.639 1494.62 496.729C1494.62 500.819 1496.24 504.741 1499.13 507.633C1502.02 510.525 1505.95 512.149 1510.04 512.149H1561.67L1587.99 485.83C1589.42 484.395 1591.12 483.256 1592.99 482.48C1594.86 481.704 1596.86 481.306 1598.89 481.309Z" fill="#C6ED07"/>
<path d="M1604.79 482.487L1605.46 482.796L1604.79 482.487Z" fill="#C6ED07"/>
<path d="M1600.42 481.382L1601.1 481.485L1600.42 481.382Z" fill="#C6ED07"/>
<path d="M1609.79 507.628L1583.48 533.946V585.583C1583.42 587.647 1583.77 589.703 1584.52 591.628C1585.26 593.554 1586.39 595.31 1587.83 596.793C1589.26 598.276 1590.98 599.454 1592.89 600.259C1594.79 601.064 1596.83 601.479 1598.9 601.479C1600.96 601.479 1603.01 601.064 1604.91 600.259C1606.81 599.454 1608.53 598.276 1609.97 596.793C1611.41 595.31 1612.53 593.554 1613.28 591.628C1614.02 589.703 1614.37 587.647 1614.31 585.583V496.729C1614.31 498.754 1613.92 500.76 1613.14 502.631C1612.36 504.502 1611.22 506.2 1609.79 507.628Z" fill="#C6ED07"/>
<path d="M1613.4 491.515C1613.4 491.765 1613.57 492.001 1613.65 492.251C1613.57 492.001 1613.47 491.765 1613.4 491.515Z" fill="#C6ED07"/>
<path d="M1603.37 481.971C1603.62 481.971 1603.85 482.148 1604.1 482.236C1603.85 482.177 1603.62 482.045 1603.37 481.971Z" fill="#C6ED07"/>
<path d="M1601.98 481.603L1602.75 481.795L1601.98 481.603Z" fill="#C6ED07"/>
<path d="M1611.23 487.509C1611.39 487.73 1611.57 487.951 1611.72 488.171C1611.57 487.936 1611.39 487.73 1611.23 487.509Z" fill="#C6ED07"/>
<path d="M1613.76 492.959C1613.76 493.209 1613.9 493.459 1613.96 493.709C1613.96 493.459 1613.88 493.209 1613.76 492.959Z" fill="#C6ED07"/>
<path d="M1612.13 488.85C1612.25 489.056 1612.38 489.247 1612.48 489.453C1612.38 489.247 1612.29 489.056 1612.13 488.85Z" fill="#C6ED07"/>
<path d="M1607.46 483.901L1608.11 484.386L1607.46 483.901Z" fill="#C6ED07"/>
<path d="M1612.82 490.16C1612.92 490.381 1613.04 490.602 1613.13 490.822C1613.04 490.602 1612.92 490.381 1612.82 490.16Z" fill="#C6ED07"/>
<path d="M1608.67 484.799C1609.04 485.109 1609.4 485.447 1609.76 485.801C1609.41 485.448 1609.05 485.114 1608.67 484.799Z" fill="#C6ED07"/>
<path d="M1614.13 494.534C1614.13 494.755 1614.13 494.976 1614.24 495.211C1614.21 494.976 1614.16 494.755 1614.13 494.534Z" fill="#C6ED07"/>
<path d="M1609.83 485.86C1610.17 486.213 1610.51 486.581 1610.82 486.95C1610.51 486.596 1610.17 486.213 1609.83 485.86Z" fill="#C6ED07"/>
<path d="M1614.31 496.729C1614.31 496.213 1614.31 495.713 1614.31 495.256C1614.31 495.021 1614.24 494.8 1614.21 494.579C1614.18 494.358 1614.21 494.034 1614.09 493.754C1613.97 493.474 1613.96 493.253 1613.9 493.003C1613.84 492.752 1613.79 492.531 1613.72 492.296C1613.65 492.06 1613.54 491.81 1613.47 491.559C1613.4 491.309 1613.31 491.103 1613.2 490.867C1613.1 490.632 1613 490.425 1612.89 490.204C1612.79 489.963 1612.68 489.727 1612.56 489.498C1612.45 489.291 1612.32 489.1 1612.2 488.894C1612.08 488.687 1611.94 488.422 1611.79 488.216C1611.64 488.01 1611.47 487.774 1611.3 487.553L1610.89 486.994C1610.58 486.626 1610.24 486.257 1609.91 485.904H1609.83C1609.48 485.55 1609.11 485.212 1608.74 484.902C1608.37 484.593 1608.36 484.623 1608.18 484.49L1607.53 484.004L1606.86 483.606C1606.66 483.473 1606.45 483.35 1606.24 483.238L1605.53 482.899L1604.87 482.59L1604.18 482.34C1603.93 482.251 1603.69 482.148 1603.44 482.075L1602.75 481.898L1601.98 481.706L1601.17 481.589L1600.49 481.486C1599.99 481.486 1599.48 481.412 1599.02 481.412C1597 481.409 1594.99 481.807 1593.12 482.583C1591.25 483.359 1589.55 484.498 1588.12 485.933L1561.8 512.252H1583.62V534.05L1609.92 507.731C1611.35 506.28 1612.47 504.56 1613.22 502.671C1613.97 500.782 1614.34 498.762 1614.31 496.729Z" fill="#015A00"/>
<path d="M1614.31 496.729C1614.31 496.213 1614.31 495.713 1614.31 495.256C1614.31 495.021 1614.24 494.8 1614.21 494.579C1614.18 494.358 1614.21 494.034 1614.09 493.754C1613.97 493.474 1613.96 493.253 1613.9 493.003C1613.84 492.752 1613.79 492.531 1613.72 492.296C1613.65 492.06 1613.54 491.81 1613.47 491.559C1613.4 491.309 1613.31 491.103 1613.2 490.867C1613.1 490.632 1613 490.425 1612.89 490.204C1612.79 489.963 1612.68 489.727 1612.56 489.498C1612.45 489.291 1612.32 489.1 1612.2 488.894C1612.08 488.687 1611.94 488.422 1611.79 488.216C1611.64 488.01 1611.47 487.774 1611.3 487.553L1610.89 486.994C1610.58 486.626 1610.24 486.257 1609.91 485.904H1609.83C1609.48 485.55 1609.11 485.212 1608.74 484.902C1608.37 484.593 1608.36 484.623 1608.18 484.49L1607.53 484.004L1606.86 483.606C1606.66 483.473 1606.45 483.35 1606.24 483.238L1605.53 482.899L1604.87 482.59L1604.18 482.34C1603.93 482.251 1603.69 482.148 1603.44 482.075L1602.75 481.898L1601.98 481.706L1601.17 481.589L1600.49 481.486C1599.99 481.486 1599.48 481.412 1599.02 481.412C1597 481.409 1594.99 481.807 1593.12 482.583C1591.25 483.359 1589.55 484.498 1588.12 485.933L1561.8 512.252H1583.62V534.05L1609.92 507.731C1611.35 506.28 1612.47 504.56 1613.22 502.671C1613.97 500.782 1614.34 498.762 1614.31 496.729Z" fill="#63BC0B"/>
<path d="M1511.42 697.971H1450.96C1446.87 697.971 1442.95 699.596 1440.06 702.488C1437.17 705.38 1435.54 709.302 1435.54 713.392C1435.54 717.481 1437.17 721.403 1440.06 724.295C1442.95 727.187 1446.87 728.812 1450.96 728.812H1474.2L1500.52 702.493C1501.95 701.059 1503.65 699.921 1505.52 699.145C1507.39 698.369 1509.4 697.97 1511.42 697.971Z" fill="#C6ED07"/>
<path d="M1570.71 586.746C1570.53 586.748 1570.35 586.712 1570.18 586.641C1570.01 586.571 1569.86 586.466 1569.73 586.334C1569.48 586.063 1569.35 585.712 1569.35 585.347C1569.35 584.982 1569.48 584.631 1569.73 584.36L1925.47 228.679C1925.74 228.431 1926.09 228.293 1926.46 228.293C1926.83 228.293 1927.18 228.431 1927.46 228.679C1927.7 228.95 1927.84 229.302 1927.84 229.666C1927.84 230.031 1927.7 230.382 1927.46 230.653L1571.7 586.393C1571.57 586.514 1571.41 586.608 1571.24 586.669C1571.07 586.729 1570.89 586.756 1570.71 586.746Z" fill="white"/>
<path d="M1569.43 578.631L1558.42 597.704L1577.5 586.687L1569.43 578.631Z" fill="white"/>
<path d="M1228.06 266.759H1204.82C1201.15 266.759 1197.64 268.214 1195.05 270.806C1192.46 273.397 1191 276.911 1191 280.576C1191 284.24 1192.46 287.755 1195.05 290.346C1197.64 292.937 1201.15 294.393 1204.82 294.393H1259.12C1257.22 294.38 1255.33 293.971 1253.59 293.191C1251.85 292.412 1250.29 291.28 1249.01 289.866L1228.06 266.759Z" fill="#14899B"/>
<path d="M1272.82 277.989V226.35C1272.82 222.685 1271.36 219.171 1268.77 216.579C1266.18 213.988 1262.67 212.532 1259 212.532C1255.34 212.532 1251.82 213.988 1249.23 216.579C1246.64 219.171 1245.19 222.685 1245.19 226.35V244.469L1269.48 271.246C1271.2 273.143 1272.35 275.476 1272.82 277.989Z" fill="#14899B"/>
<path d="M1538.07 -119.212C1539.39 -120.48 1540.44 -121.998 1541.17 -123.677C1541.9 -125.357 1542.29 -127.164 1542.32 -128.995C1542.34 -130.826 1542 -132.644 1541.32 -134.343C1540.63 -136.041 1539.62 -137.587 1538.33 -138.89C1537.05 -140.193 1535.51 -141.228 1533.82 -141.933C1532.13 -142.639 1530.32 -143.001 1528.49 -143C1526.66 -142.999 1524.85 -142.633 1523.16 -141.925C1521.47 -141.217 1519.94 -140.181 1518.65 -138.876L1206.04 169.695L1205.95 169.801C1196.4 179.421 1191.03 192.424 1191 205.982C1190.98 219.541 1196.31 232.56 1205.83 242.212L1228.06 266.759H1245.21V244.469L1226.12 223.42L1225.66 222.932C1221.21 218.472 1218.7 212.439 1218.68 206.143C1218.66 199.847 1221.12 193.796 1225.54 189.306L1538.07 -119.212Z" fill="#C6ED07"/>
<path d="M1228.06 266.759L1249.01 289.853C1250.87 291.892 1253.3 293.321 1255.99 293.951C1258.68 294.581 1261.49 294.383 1264.06 293.383C1266.63 292.383 1268.84 290.628 1270.39 288.349C1271.95 286.07 1272.78 283.374 1272.77 280.615V278.082C1272.3 275.569 1271.14 273.235 1269.43 271.338L1245.13 244.561V266.759H1228.06Z" fill="#0E6674"/>
<path d="M1111.01 210.924C1110.84 210.924 1110.68 210.891 1110.53 210.828C1110.38 210.764 1110.24 210.671 1110.12 210.554C1109.9 210.311 1109.78 209.993 1109.78 209.663C1109.78 209.334 1109.9 209.016 1110.12 208.773L1500.47 -181.567C1500.59 -181.697 1500.73 -181.802 1500.88 -181.877C1501.04 -181.951 1501.21 -181.993 1501.38 -181.999C1501.55 -182.005 1501.72 -181.976 1501.88 -181.913C1502.04 -181.85 1502.19 -181.755 1502.31 -181.633C1502.43 -181.511 1502.53 -181.365 1502.59 -181.205C1502.65 -181.045 1502.68 -180.873 1502.68 -180.701C1502.67 -180.529 1502.63 -180.36 1502.55 -180.205C1502.48 -180.049 1502.37 -179.911 1502.24 -179.798L1111.9 210.554C1111.79 210.673 1111.65 210.767 1111.49 210.83C1111.34 210.894 1111.17 210.926 1111.01 210.924Z" fill="white"/>
<path d="M1109.86 203.586L1100 220.676L1117.09 210.818L1109.86 203.586Z" fill="white"/>
<path d="M1196.59 51.2034C1196.36 51.1775 1196.13 51.0888 1195.95 50.9468C1195.76 50.8048 1195.61 50.6146 1195.52 50.3961C1195.43 50.1776 1195.4 49.9388 1195.43 49.7047C1195.47 49.4707 1195.56 49.2499 1195.71 49.0655L1388.06 -143.293C1388.15 -143.476 1388.29 -143.635 1388.46 -143.755C1388.63 -143.875 1388.82 -143.954 1389.02 -143.985C1389.23 -144.016 1389.44 -143.999 1389.64 -143.934C1389.83 -143.87 1390.01 -143.76 1390.16 -143.613C1390.3 -143.467 1390.41 -143.288 1390.48 -143.092C1390.54 -142.895 1390.56 -142.686 1390.53 -142.481C1390.5 -142.277 1390.42 -142.082 1390.3 -141.914C1390.18 -141.745 1390.02 -141.608 1389.84 -141.512L1197.49 50.8207C1197.38 50.9418 1197.24 51.0382 1197.08 51.104C1196.93 51.1698 1196.76 51.2036 1196.59 51.2034Z" fill="white"/>
<path d="M1195.45 43.8792L1185.57 60.9692L1202.68 51.0979L1195.45 43.8792Z" fill="white"/>
<path d="M1492.53 13.4202L1488.48 9.36874C1484.01 4.89063 1481.5 -1.17727 1481.5 -7.50354C1481.5 -13.8298 1484.01 -19.8977 1488.48 -24.3758C1490.94 -26.9916 1492.28 -30.4632 1492.23 -34.0548C1492.18 -37.6463 1490.72 -41.0755 1488.19 -43.6154C1485.65 -46.1553 1482.22 -47.6063 1478.62 -47.6608C1475.03 -47.7153 1471.56 -46.369 1468.95 -43.9073C1459.31 -34.2441 1453.89 -21.1524 1453.89 -7.50354C1453.89 6.14528 1459.31 19.237 1468.95 28.9002L1473 32.9385C1477.47 37.4166 1479.98 43.4845 1479.98 49.8108C1479.98 56.1371 1477.47 62.205 1473 66.6831L1350.01 189.665V209.197H1369.55L1492.53 86.2277C1502.16 76.5628 1507.58 63.4717 1507.58 49.824C1507.58 36.1762 1502.16 23.0852 1492.53 13.4202Z" fill="#14899B"/>
<path d="M1336.2 236.845H1393.35C1397.02 236.845 1400.53 235.389 1403.12 232.798C1405.71 230.206 1407.17 226.692 1407.17 223.027C1407.17 219.363 1405.71 215.848 1403.12 213.257C1400.53 210.666 1397.02 209.21 1393.35 209.21H1369.6L1346.02 232.793C1344.73 234.087 1343.2 235.112 1341.51 235.807C1339.83 236.503 1338.02 236.855 1336.2 236.845Z" fill="#C42A56"/>
<path d="M1350.01 189.679V165.924C1350.07 164.075 1349.76 162.232 1349.09 160.507C1348.42 158.781 1347.41 157.208 1346.12 155.879C1344.83 154.551 1343.29 153.494 1341.59 152.773C1339.88 152.052 1338.05 151.68 1336.2 151.68C1334.35 151.68 1332.52 152.052 1330.82 152.773C1329.11 153.494 1327.57 154.551 1326.28 155.879C1324.99 157.208 1323.99 158.781 1323.32 160.507C1322.65 162.232 1322.34 164.075 1322.39 165.924V222.974C1322.39 221.161 1322.74 219.365 1323.44 217.689C1324.13 216.013 1325.15 214.49 1326.43 213.209L1350.01 189.679Z" fill="#C42A56"/>
<path d="M1350.01 189.679L1326.43 213.262C1325.15 214.543 1324.13 216.066 1323.44 217.742C1322.74 219.417 1322.39 221.214 1322.39 223.027C1322.37 223.467 1322.37 223.908 1322.39 224.347C1322.39 224.558 1322.39 224.756 1322.47 224.967C1322.55 225.178 1322.47 225.456 1322.59 225.693C1322.71 225.931 1322.7 226.142 1322.76 226.379C1322.83 226.617 1322.85 226.802 1322.92 227C1322.99 227.198 1323.07 227.435 1323.14 227.66C1323.22 227.884 1323.29 228.082 1323.37 228.28L1323.65 228.874L1323.95 229.507L1324.28 230.061C1324.4 230.259 1324.52 230.47 1324.65 230.655C1324.78 230.84 1324.94 231.051 1325.08 231.249C1325.23 231.447 1325.32 231.592 1325.45 231.751C1325.74 232.104 1326.04 232.439 1326.36 232.754C1326.69 233.079 1327.03 233.387 1327.38 233.677L1327.87 234.047L1328.46 234.482C1328.66 234.614 1328.86 234.72 1329.07 234.839C1329.25 234.958 1329.43 235.068 1329.62 235.169C1329.82 235.283 1330.03 235.384 1330.24 235.472C1330.44 235.564 1330.64 235.67 1330.85 235.749C1331.05 235.836 1331.25 235.91 1331.46 235.974L1332.13 236.211C1332.33 236.277 1332.54 236.317 1332.75 236.369L1333.44 236.541L1334.16 236.647L1334.77 236.739C1335.22 236.739 1335.67 236.739 1336.09 236.739C1337.91 236.743 1339.7 236.387 1341.38 235.691C1343.06 234.996 1344.58 233.975 1345.86 232.688L1369.44 209.105H1349.91L1350.01 189.679Z" fill="#922D69"/>
</g>
</svg>
