<svg width="632" height="648" viewBox="0 0 632 648" fill="none" xmlns="http://www.w3.org/2000/svg">
<g opacity="0.2">
<path d="M308.132 199.45V108.219H399.362V0.262695H308.132H242.75C218.421 0.262695 200.175 20.0293 200.175 42.837V108.219V199.45H308.132Z" fill="white"/>
<path d="M466.263 0.262695H449.538V108.219H466.263V0.262695Z" fill="white"/>
<path d="M484.514 108.219H505.801C514.924 108.219 522.527 100.616 522.527 91.4933V16.9883C524.047 7.86525 516.445 0.262695 505.801 0.262695H484.514V108.219Z" fill="white"/>
<path d="M432.817 0.262695H416.091V108.219H432.817V0.262695Z" fill="white"/>
<path d="M416.088 216.175H365.911H308.132H216.901V324.132H365.911H416.088C475.388 324.132 524.044 372.788 524.044 432.088C524.044 491.388 475.388 540.044 416.088 540.044C356.788 540.044 308.132 491.388 308.132 432.088V340.857H200.175V432.088C200.175 550.688 297.488 648 416.088 648C534.688 648 632 550.688 632 432.088C632 313.488 534.688 216.175 416.088 216.175Z" fill="white"/>
<path d="M87.6592 295.242L200.177 324.132V216.175L87.6592 243.544V295.242Z" fill="white"/>
<path d="M70.932 248.106L4.02955 264.831C-0.531984 266.352 -0.531984 272.434 4.02955 273.954L70.932 290.68V248.106Z" fill="white"/>
</g>
</svg>
