<svg width="1440" height="927" viewBox="0 0 1440 927" fill="none" xmlns="http://www.w3.org/2000/svg">
<path d="M1686 0H-244V774.5L-244 813.5C-244 813.5 -47.9999 718.69 -3.99992 768C40.0001 817.31 52 881 131.5 881C211 881 353.5 826.5 424.5 826.5C536.123 826.5 513.791 910 636.5 910C735.5 910 863.5 826.5 993.5 826.5C1123.5 826.5 1140 926.5 1267.5 926.5C1324.63 926.5 1393.1 819.84 1475 801C1575.87 777.797 1686 841.5 1686 841.5V0Z" fill="#68C0AF"/>
<path d="M1687.5 0H-246.5V761.5C-246.5 761.5 -66 688 -4 749C58 810 43.5 845.5 123 845.5C202.5 845.5 359 799 430 799C541.623 799 515.291 906 638 906C737 906 862 799 992 799C1122 799 1167.5 907 1260.5 888.5C1353.5 870 1399 822.5 1424 808.5C1449 794.5 1531 734 1687.5 823V0Z" fill="#7BCFBF"/>
<mask id="mask0_1_3742" style="mask-type:alpha" maskUnits="userSpaceOnUse" x="-247" y="0" width="1935" height="906">
<path d="M1687.5 0H-246.5V761.5C-246.5 761.5 -66 688 -4 749C58 810 43.5 845.5 123 845.5C202.5 845.5 359 799 430 799C541.623 799 515.291 906 638 906C737 906 862 799 992 799C1122 799 1167.5 907 1260.5 888.5C1353.5 870 1399 822.5 1424 808.5C1449 794.5 1531 734 1687.5 823V0Z" fill="#7BCFBF"/>
</mask>
<g mask="url(#mask0_1_3742)">
<path d="M1285.66 707.515C1285.76 707.736 1285.84 707.962 1285.91 708.192C1285.84 707.962 1285.76 707.736 1285.66 707.515Z" fill="#C42A56"/>
<path d="M1285.01 706.131C1285.14 706.354 1285.25 706.585 1285.35 706.822C1285.25 706.585 1285.14 706.354 1285.01 706.131Z" fill="#C42A56"/>
<path d="M1276.63 698.899L1277.32 699.15L1276.63 698.899Z" fill="#C42A56"/>
<path d="M1284.25 704.834C1284.4 705.055 1284.51 705.276 1284.66 705.511C1284.51 705.276 1284.4 705.055 1284.25 704.834Z" fill="#C42A56"/>
<path d="M1279.31 700.151L1279.99 700.563L1279.31 700.151Z" fill="#C42A56"/>
<path d="M1280.65 701.064L1281.2 701.476L1280.65 701.064Z" fill="#C42A56"/>
<path d="M1278.03 699.459L1278.74 699.797L1278.03 699.459Z" fill="#C42A56"/>
<path d="M1286.18 708.988C1286.25 709.223 1286.29 709.459 1286.35 709.679C1286.29 709.385 1286.25 709.15 1286.18 708.988Z" fill="#C42A56"/>
<path d="M1283.35 703.627C1283.5 703.803 1283.63 703.995 1283.76 704.171C1283.63 703.995 1283.5 703.803 1283.35 703.627Z" fill="#C42A56"/>
<path d="M1234.2 728.812L1148.87 814.145C1144.52 818.474 1138.81 821.174 1132.7 821.791C1126.6 822.407 1120.46 820.904 1115.33 817.533L1039.25 767.178C1028.2 759.86 1014.96 756.586 1001.78 757.912C988.595 759.238 976.274 765.082 966.906 774.453L829.479 911.894C827.976 913.309 826.772 915.011 825.939 916.9C825.106 918.789 824.66 920.826 824.629 922.89C824.597 924.954 824.981 927.004 825.756 928.917C826.532 930.83 827.684 932.568 829.143 934.028C830.603 935.487 832.341 936.639 834.254 937.415C836.167 938.19 838.217 938.574 840.281 938.542C842.345 938.511 844.382 938.066 846.271 937.232C848.16 936.399 849.862 935.195 851.277 933.692L988.718 796.265C993.072 791.944 998.782 789.255 1004.89 788.648C1010.99 788.042 1017.12 789.557 1022.24 792.937L1098.35 843.233C1109.4 850.551 1122.64 853.825 1135.82 852.499C1149.01 851.173 1161.33 845.329 1170.7 835.957L1256.04 750.609V728.812H1234.2Z" fill="#C42A56"/>
<path d="M1273.61 698.148C1273.89 698.148 1274.17 698.222 1274.44 698.281L1273.61 698.148Z" fill="#C42A56"/>
<path d="M1272.95 698.045C1272.44 698.045 1271.94 697.972 1271.48 697.972C1271.94 697.972 1272.45 698.001 1272.95 698.045Z" fill="#C42A56"/>
<path d="M1286.54 710.372C1286.54 710.652 1286.63 710.916 1286.66 711.196C1286.63 710.916 1286.59 710.652 1286.54 710.372Z" fill="#C42A56"/>
<path d="M1275.21 698.458L1275.9 698.634L1275.21 698.458Z" fill="#C42A56"/>
<path d="M1286.77 711.934C1286.77 712.434 1286.84 712.935 1286.84 713.406C1286.87 712.891 1286.87 712.375 1286.77 711.934Z" fill="#C42A56"/>
<path d="M1272.95 698.045L1273.61 698.148L1272.95 698.045Z" fill="#C6ED07"/>
<path d="M1279.99 700.578C1280.22 700.725 1280.44 700.887 1280.65 701.064C1280.44 700.887 1280.22 700.725 1279.99 700.578Z" fill="#C6ED07"/>
<path d="M1275.9 698.678C1276.15 698.678 1276.38 698.855 1276.63 698.943L1275.9 698.678Z" fill="#C6ED07"/>
<path d="M1274.44 698.281L1275.2 698.457L1274.44 698.281Z" fill="#C6ED07"/>
<path d="M1278.7 699.798L1279.31 700.166L1278.7 699.798Z" fill="#C6ED07"/>
<path d="M1277.33 699.15L1277.99 699.459L1277.33 699.15Z" fill="#C6ED07"/>
<path d="M1286.66 711.197C1286.66 711.418 1286.74 711.639 1286.77 711.874C1286.74 711.639 1286.69 711.418 1286.66 711.197Z" fill="#C6ED07"/>
<path d="M1286.35 709.606C1286.35 709.871 1286.49 710.121 1286.54 710.371C1286.49 710.121 1286.41 709.871 1286.35 709.606Z" fill="#C6ED07"/>
<path d="M1285.91 708.178C1286 708.428 1286.1 708.663 1286.18 708.913C1286.1 708.663 1286 708.428 1285.91 708.178Z" fill="#C6ED07"/>
<path d="M1282.32 724.29L1256.01 750.609V773.791C1256.01 777.882 1257.64 781.806 1260.53 784.7C1263.43 787.593 1267.35 789.218 1271.44 789.218C1275.53 789.218 1279.46 787.593 1282.35 784.7C1285.24 781.806 1286.87 777.882 1286.87 773.791V713.406C1286.87 715.431 1286.46 717.436 1285.68 719.304C1284.9 721.172 1283.76 722.867 1282.32 724.29Z" fill="#C6ED07"/>
<path d="M1282.35 702.508C1282.7 702.861 1283.03 703.244 1283.35 703.627C1283.03 703.237 1282.7 702.864 1282.35 702.508Z" fill="#C6ED07"/>
<path d="M1285.4 706.823C1285.5 707.043 1285.62 707.264 1285.71 707.499C1285.57 707.264 1285.4 707.043 1285.4 706.823Z" fill="#C6ED07"/>
<path d="M1283.76 704.172C1283.92 704.393 1284.1 704.613 1284.25 704.834C1284.09 704.569 1283.92 704.393 1283.76 704.172Z" fill="#C6ED07"/>
<path d="M1281.2 701.477C1281.58 701.791 1281.95 702.125 1282.3 702.478C1281.95 702.125 1281.58 701.791 1281.2 701.477Z" fill="#C6ED07"/>
<path d="M1284.66 705.512C1284.78 705.718 1284.91 705.909 1285.01 706.13C1284.91 705.909 1284.78 705.718 1284.66 705.512Z" fill="#C6ED07"/>
<path d="M1286.87 713.406C1286.87 712.891 1286.87 712.39 1286.8 711.933C1286.8 711.698 1286.72 711.477 1286.69 711.256C1286.66 711.035 1286.62 710.711 1286.57 710.431C1286.53 710.151 1286.44 709.93 1286.38 709.665C1286.32 709.4 1286.28 709.209 1286.21 708.973C1286.13 708.737 1286.03 708.487 1285.94 708.237C1285.87 708.006 1285.79 707.78 1285.69 707.559C1285.6 707.323 1285.49 707.103 1285.38 706.882C1285.28 706.644 1285.17 706.413 1285.04 706.189C1284.94 705.969 1284.81 705.777 1284.69 705.571C1284.57 705.365 1284.42 705.114 1284.28 704.893C1284.13 704.672 1283.95 704.451 1283.79 704.231C1283.63 704.01 1283.53 703.862 1283.38 703.686C1283.23 703.509 1282.73 702.92 1282.38 702.566C1282.03 702.213 1281.66 701.879 1281.27 701.565L1280.73 701.152C1280.51 700.976 1280.29 700.814 1280.07 700.666L1279.39 700.254L1278.77 699.886L1278.06 699.547L1277.4 699.238L1276.71 698.987C1276.46 698.899 1276.22 698.796 1275.97 698.722L1275.28 698.546L1274.51 698.369C1274.25 698.369 1273.97 698.281 1273.69 698.236L1273.03 698.133C1272.52 698.133 1272.01 698.06 1271.55 698.06C1269.53 698.058 1267.52 698.457 1265.65 699.233C1263.78 700.009 1262.08 701.147 1260.65 702.581L1234.33 728.9H1256.15V750.697L1282.45 724.378C1283.88 722.934 1285 721.22 1285.76 719.336C1286.52 717.452 1286.9 715.437 1286.87 713.406Z" fill="#C42A56"/>
<path d="M1286.87 713.406C1286.87 712.891 1286.87 712.39 1286.8 711.933C1286.8 711.698 1286.72 711.477 1286.69 711.256C1286.66 711.035 1286.62 710.711 1286.57 710.431C1286.53 710.151 1286.44 709.93 1286.38 709.665C1286.32 709.4 1286.28 709.209 1286.21 708.973C1286.13 708.737 1286.03 708.487 1285.94 708.237C1285.87 708.006 1285.79 707.78 1285.69 707.559C1285.6 707.323 1285.49 707.103 1285.38 706.882C1285.28 706.644 1285.17 706.413 1285.04 706.189C1284.94 705.969 1284.81 705.777 1284.69 705.571C1284.57 705.365 1284.42 705.114 1284.28 704.893C1284.13 704.672 1283.95 704.451 1283.79 704.231C1283.63 704.01 1283.53 703.862 1283.38 703.686C1283.23 703.509 1282.73 702.92 1282.38 702.566C1282.03 702.213 1281.66 701.879 1281.27 701.565L1280.73 701.152C1280.51 700.976 1280.29 700.814 1280.07 700.666L1279.39 700.254L1278.77 699.886L1278.06 699.547L1277.4 699.238L1276.71 698.987C1276.46 698.899 1276.22 698.796 1275.97 698.722L1275.28 698.546L1274.51 698.369C1274.25 698.369 1273.97 698.281 1273.69 698.236L1273.03 698.133C1272.52 698.133 1272.01 698.06 1271.55 698.06C1269.53 698.058 1267.52 698.457 1265.65 699.233C1263.78 700.009 1262.08 701.147 1260.65 702.581L1234.33 728.9H1256.15V750.697L1282.45 724.378C1283.88 722.934 1285 721.22 1285.76 719.336C1286.52 717.452 1286.9 715.437 1286.87 713.406Z" fill="#E24F10"/>
<path d="M1164.33 549.234C1164.21 549.234 1164.09 549.209 1163.97 549.161C1163.86 549.113 1163.76 549.043 1163.67 548.954C1163.5 548.776 1163.4 548.539 1163.4 548.292C1163.4 548.045 1163.5 547.807 1163.67 547.629L1544.03 167.28C1544.12 167.192 1544.22 167.122 1544.34 167.074C1544.45 167.026 1544.57 167.001 1544.7 167.001C1544.82 167.001 1544.94 167.026 1545.06 167.074C1545.17 167.122 1545.27 167.192 1545.36 167.28C1545.45 167.365 1545.52 167.467 1545.56 167.58C1545.61 167.692 1545.64 167.813 1545.64 167.935C1545.64 168.058 1545.61 168.179 1545.56 168.291C1545.52 168.404 1545.45 168.506 1545.36 168.591L1165 548.954C1164.91 549.044 1164.81 549.115 1164.69 549.163C1164.58 549.212 1164.46 549.236 1164.33 549.234Z" fill="white"/>
<path d="M1163.48 543.77L1156.14 556.495L1168.85 549.146L1163.48 543.77Z" fill="white"/>
<path d="M1364.93 266.634C1365.02 266.884 1365.12 267.12 1365.19 267.37L1364.93 266.634Z" fill="#019002"/>
<path d="M1361.35 260.979C1361.7 261.324 1362.03 261.688 1362.34 262.069C1362.03 261.685 1361.7 261.321 1361.35 260.979Z" fill="#019002"/>
<path d="M1360.2 259.918C1360.57 260.228 1360.94 260.552 1361.29 260.905C1360.94 260.566 1360.51 260.228 1360.2 259.918Z" fill="#019002"/>
<path d="M1362.76 262.628C1362.92 262.849 1363.09 263.055 1363.23 263.276C1363.09 263.055 1362.92 262.849 1362.76 262.628Z" fill="#019002"/>
<path d="M1363.65 263.954C1363.78 264.16 1363.9 264.366 1364.01 264.572C1363.9 264.366 1363.78 264.204 1363.65 263.954Z" fill="#019002"/>
<path d="M1364.35 265.279C1364.46 265.5 1364.57 265.721 1364.66 265.941C1364.57 265.676 1364.46 265.5 1364.35 265.279Z" fill="#019002"/>
<path d="M1359.04 259.02C1359.26 259.167 1359.48 259.344 1359.68 259.505C1359.42 259.344 1359.2 259.167 1359.04 259.02Z" fill="#019002"/>
<path d="M1353.44 256.723C1353.69 256.773 1353.94 256.836 1354.19 256.914L1353.44 256.723Z" fill="#019002"/>
<path d="M1351.94 256.501C1352.17 256.52 1352.39 256.555 1352.61 256.604C1352.39 256.555 1352.17 256.52 1351.94 256.501Z" fill="#019002"/>
<path d="M1354.9 257.091L1355.63 257.341L1354.9 257.091Z" fill="#019002"/>
<path d="M1357.68 258.313L1358.3 258.681L1357.68 258.313Z" fill="#019002"/>
<path d="M1356.33 257.591L1356.99 257.915L1356.33 257.591Z" fill="#019002"/>
<path d="M1365.66 269.639C1365.66 269.874 1365.66 270.095 1365.77 270.315C1365.74 270.095 1365.69 269.874 1365.66 269.639Z" fill="#019002"/>
<path d="M1361.32 282.747L1335 309.066V332.306C1335 336.396 1336.62 340.318 1339.52 343.21C1342.41 346.102 1346.33 347.727 1350.42 347.727C1354.51 347.727 1358.43 346.102 1361.32 343.21C1364.22 340.318 1365.84 336.396 1365.84 332.306V271.922C1365.82 275.986 1364.2 279.878 1361.32 282.747Z" fill="#019002"/>
<path d="M1350.42 256.428H1290.04C1287.97 256.364 1285.92 256.715 1283.99 257.461C1282.06 258.207 1280.31 259.332 1278.82 260.77C1277.34 262.207 1276.16 263.928 1275.36 265.83C1274.55 267.731 1274.14 269.775 1274.14 271.841C1274.14 273.906 1274.55 275.95 1275.36 277.851C1276.16 279.753 1277.34 281.474 1278.82 282.911C1280.31 284.349 1282.06 285.474 1283.99 286.22C1285.92 286.966 1287.97 287.317 1290.04 287.253H1313.28L1339.59 260.935C1342.47 258.06 1346.36 256.44 1350.42 256.428Z" fill="#019002"/>
<path d="M1365.35 268.063C1365.35 268.328 1365.49 268.578 1365.53 268.828C1365.49 268.622 1365.41 268.328 1365.35 268.063Z" fill="#019002"/>
<path d="M1355.63 257.341L1356.33 257.591L1355.63 257.341Z" fill="#6CCD18"/>
<path d="M1350.42 256.428C1350.94 256.428 1351.44 256.428 1351.89 256.501C1351.44 256.457 1350.92 256.428 1350.42 256.428Z" fill="#6CCD18"/>
<path d="M1313.2 287.253L1175.95 424.503C1170.61 429.837 1166.38 436.172 1163.49 443.144C1160.6 450.116 1159.11 457.59 1159.11 465.137C1159.11 472.685 1160.6 480.158 1163.49 487.131C1166.38 494.103 1170.61 500.437 1175.95 505.772L1180.47 510.293C1182.95 512.765 1184.91 515.7 1186.25 518.931C1187.59 522.162 1188.28 525.625 1188.28 529.123C1188.28 532.62 1187.59 536.084 1186.25 539.315C1184.91 542.546 1182.95 545.481 1180.47 547.953L1075.23 653.198C1070.42 657.996 1063.97 660.779 1057.18 660.979C1050.39 661.178 1043.78 658.78 1038.7 654.273L993.592 614.169C982.641 604.426 968.379 599.239 953.728 599.669C939.077 600.098 925.144 606.113 914.783 616.482L869.126 662.138C872.262 659.971 876.089 659.043 879.869 659.534C883.648 660.024 887.112 661.898 889.59 664.794C892.069 667.69 893.385 671.402 893.286 675.212C893.187 679.022 891.679 682.66 889.053 685.423L864.016 710.858L936.58 638.294C941.386 633.496 947.842 630.713 954.63 630.513C961.417 630.314 968.026 632.712 973.105 637.219L1018.22 677.323C1029.18 687.046 1043.43 692.22 1058.08 691.79C1072.73 691.361 1086.65 685.359 1097.03 675.01L1202.27 569.765C1207.61 564.43 1211.85 558.096 1214.74 551.124C1217.63 544.151 1219.11 536.678 1219.11 529.13C1219.11 521.583 1217.63 514.109 1214.74 507.137C1211.85 500.165 1207.61 493.83 1202.27 488.496L1197.75 483.974C1192.76 478.979 1189.96 472.206 1189.96 465.145C1189.96 458.083 1192.76 451.311 1197.75 446.315L1335 309.08V287.253H1313.2Z" fill="#6CCD00"/>
<path d="M840.612 690.666L840.406 690.887L842.056 689.223L840.612 690.666Z" fill="#6CCD18"/>
<path d="M1356.99 257.916L1357.68 258.239L1356.99 257.916Z" fill="#6CCD18"/>
<path d="M1352.62 256.604C1352.89 256.629 1353.17 256.669 1353.44 256.722C1353.17 256.669 1352.89 256.629 1352.62 256.604Z" fill="#6CCD18"/>
<path d="M1354.19 256.914L1354.9 257.091L1354.19 256.914Z" fill="#6CCD18"/>
<path d="M1358.3 258.607L1358.98 259.019L1358.3 258.607Z" fill="#6CCD18"/>
<path d="M1365.53 268.829C1365.53 269.094 1365.62 269.373 1365.66 269.638C1365.62 269.373 1365.59 269.094 1365.53 268.829Z" fill="#6CCD18"/>
<path d="M1363.23 263.276C1363.38 263.497 1363.51 263.732 1363.65 263.953C1363.46 263.732 1363.46 263.497 1363.23 263.276Z" fill="#6CCD18"/>
<path d="M1365.18 267.371L1365.35 268.062L1365.18 267.371Z" fill="#6CCD18"/>
<path d="M1364.01 264.573C1364.13 264.808 1364.25 265.043 1364.35 265.279C1364.25 265.043 1364.13 264.808 1364.01 264.573Z" fill="#6CCD18"/>
<path d="M1362.34 262.069C1362.5 262.245 1362.62 262.437 1362.76 262.628C1362.62 262.437 1362.5 262.245 1362.34 262.069Z" fill="#6CCD18"/>
<path d="M1364.66 265.942C1364.75 266.163 1364.84 266.398 1364.91 266.634C1364.84 266.398 1364.75 266.163 1364.66 265.942Z" fill="#6CCD18"/>
<path d="M1359.62 259.506L1360.2 259.918L1359.62 259.506Z" fill="#6CCD18"/>
<path d="M1365.84 271.848C1365.84 271.333 1365.84 270.817 1365.84 270.375C1365.84 270.154 1365.77 269.933 1365.74 269.698C1365.71 269.462 1365.74 269.153 1365.61 268.888C1365.47 268.623 1365.49 268.387 1365.43 268.122L1365.25 267.43C1365.25 267.179 1365.07 266.944 1364.99 266.693C1364.9 266.443 1364.82 266.222 1364.74 266.001C1364.65 265.78 1364.53 265.559 1364.43 265.338C1364.32 265.117 1364.21 264.867 1364.09 264.631C1363.97 264.396 1363.85 264.219 1363.72 264.013C1363.59 263.807 1363.45 263.556 1363.31 263.335C1363.16 263.114 1363 262.908 1362.84 262.687C1362.67 262.466 1362.57 262.304 1362.41 262.128C1362.1 261.747 1361.77 261.383 1361.42 261.038V260.964C1361.07 260.611 1360.7 260.287 1360.33 259.977L1359.76 259.565C1359.55 259.403 1359.33 259.226 1359.11 259.079L1358.43 258.667L1357.81 258.298L1357.12 257.974L1356.46 257.65L1355.77 257.4L1355.03 257.15L1354.32 256.973C1354.08 256.895 1353.83 256.831 1353.57 256.781C1353.3 256.728 1353.02 256.688 1352.75 256.664C1352.52 256.614 1352.3 256.579 1352.07 256.56C1351.57 256.56 1351.07 256.487 1350.6 256.487C1348.57 256.483 1346.57 256.879 1344.7 257.653C1342.83 258.426 1341.13 259.561 1339.7 260.994L1313.2 287.253H1335V309.066L1361.32 282.747C1362.75 281.317 1363.89 279.619 1364.67 277.748C1365.44 275.878 1365.84 273.873 1365.84 271.848Z" fill="#6CCD00"/>
<path d="M1365.84 271.848C1365.84 271.333 1365.84 270.817 1365.84 270.375C1365.84 270.154 1365.77 269.933 1365.74 269.698C1365.71 269.462 1365.74 269.153 1365.61 268.888C1365.47 268.623 1365.49 268.387 1365.43 268.122L1365.25 267.43C1365.25 267.179 1365.07 266.944 1364.99 266.693C1364.9 266.443 1364.82 266.222 1364.74 266.001C1364.65 265.78 1364.53 265.559 1364.43 265.338C1364.32 265.117 1364.21 264.867 1364.09 264.631C1363.97 264.396 1363.85 264.219 1363.72 264.013C1363.59 263.807 1363.45 263.556 1363.31 263.335C1363.16 263.114 1363 262.908 1362.84 262.687C1362.67 262.466 1362.57 262.304 1362.41 262.128C1362.1 261.747 1361.77 261.383 1361.42 261.038V260.964C1361.07 260.611 1360.7 260.287 1360.33 259.977L1359.76 259.565C1359.55 259.403 1359.33 259.226 1359.11 259.079L1358.43 258.667L1357.81 258.298L1357.12 257.974L1356.46 257.65L1355.77 257.4L1355.03 257.15L1354.32 256.973C1354.08 256.895 1353.83 256.831 1353.57 256.781C1353.3 256.728 1353.02 256.688 1352.75 256.664C1352.52 256.614 1352.3 256.579 1352.07 256.56C1351.57 256.56 1351.07 256.487 1350.6 256.487C1348.57 256.483 1346.57 256.879 1344.7 257.653C1342.83 258.426 1341.13 259.561 1339.7 260.994L1313.2 287.253H1335V309.066L1361.32 282.747C1362.75 281.317 1363.89 279.619 1364.67 277.748C1365.44 275.878 1365.84 273.873 1365.84 271.848Z" fill="#007400"/>
<path d="M867.123 663.832L842.086 689.223L869.23 662.08C868.474 662.596 867.769 663.183 867.123 663.832Z" fill="#C6ED07"/>
<path d="M851.496 716.985C848.475 716.981 845.522 716.09 843.003 714.422C840.484 712.754 838.51 710.382 837.327 707.603C836.145 704.823 835.804 701.756 836.349 698.785C836.894 695.813 838.299 693.067 840.392 690.887L641.314 892.66C639.822 894.085 638.631 895.796 637.812 897.689C636.993 899.583 636.563 901.622 636.546 903.686C636.53 905.749 636.928 907.795 637.716 909.702C638.504 911.608 639.667 913.338 641.136 914.787C642.605 916.236 644.35 917.375 646.267 918.138C648.185 918.901 650.235 919.271 652.298 919.226C654.361 919.182 656.394 918.724 658.277 917.879C660.16 917.035 661.854 915.821 663.259 914.31L863.941 711.064L862.395 712.611C860.955 714.021 859.252 715.133 857.382 715.884C855.511 716.635 853.511 717.009 851.496 716.985Z" fill="#C6ED07"/>
<path d="M888.906 663.685C886.33 661.144 882.943 659.591 879.337 659.298C875.731 659.004 872.137 659.989 869.185 662.08L842.086 689.223L840.436 690.887C837.575 693.805 835.99 697.74 836.03 701.827C836.07 705.913 837.732 709.816 840.65 712.677C843.568 715.539 847.502 717.124 851.589 717.083C855.675 717.043 859.578 715.382 862.44 712.464L863.986 710.917L889.024 685.482C890.448 684.044 891.575 682.339 892.34 680.464C893.105 678.59 893.493 676.584 893.482 674.559C893.471 672.535 893.062 670.533 892.276 668.667C891.491 666.801 890.346 665.108 888.906 663.685Z" fill="#C6ED07"/>
<path d="M888.906 663.685C886.33 661.144 882.943 659.591 879.337 659.298C875.731 659.004 872.137 659.989 869.185 662.08L842.086 689.223L840.436 690.887C837.575 693.805 835.99 697.74 836.03 701.827C836.07 705.913 837.732 709.816 840.65 712.677C843.568 715.539 847.502 717.124 851.589 717.083C855.675 717.043 859.578 715.382 862.44 712.464L863.986 710.917L889.024 685.482C890.448 684.044 891.575 682.339 892.34 680.464C893.105 678.59 893.493 676.584 893.482 674.559C893.471 672.535 893.062 670.533 892.276 668.667C891.491 666.801 890.346 665.108 888.906 663.685Z" fill="#41B100"/>
<path d="M1558.26 480.292L1381.13 657.44C1377.74 660.827 1375.11 664.888 1373.39 669.361C1371.68 673.833 1370.93 678.616 1371.19 683.398C1371.45 688.18 1372.71 692.854 1374.89 697.116C1377.08 701.378 1380.14 705.132 1383.87 708.134L1396.68 718.443C1397.04 718.729 1397.34 719.089 1397.55 719.497C1397.76 719.906 1397.88 720.354 1397.91 720.814C1397.93 721.273 1397.86 721.732 1397.69 722.161C1397.53 722.59 1397.27 722.98 1396.95 723.303L1192.88 927.359C1191.37 928.774 1190.17 930.476 1189.34 932.365C1188.5 934.253 1188.06 936.29 1188.03 938.354C1187.99 940.419 1188.38 942.468 1189.15 944.381C1189.93 946.294 1191.08 948.032 1192.54 949.492C1194 950.952 1195.74 952.103 1197.65 952.879C1199.56 953.655 1201.61 954.038 1203.68 954.007C1205.74 953.975 1207.78 953.53 1209.67 952.697C1211.56 951.863 1213.26 950.66 1214.67 949.156L1418.7 745.145C1422.08 741.756 1424.71 737.693 1426.42 733.221C1428.13 728.748 1428.88 723.965 1428.62 719.184C1428.36 714.403 1427.1 709.73 1424.92 705.468C1422.73 701.207 1419.68 697.454 1415.94 694.451L1403.13 684.142C1402.77 683.853 1402.48 683.493 1402.27 683.083C1402.07 682.674 1401.95 682.226 1401.92 681.768C1401.9 681.309 1401.97 680.851 1402.14 680.422C1402.3 679.994 1402.56 679.605 1402.88 679.282L1580.06 502.09V480.292H1558.26Z" fill="#C6ED07"/>
<path d="M1426.37 486.124C1426.22 485.948 1426.09 485.757 1425.96 485.565C1426.09 485.757 1426.22 485.948 1426.37 486.124Z" fill="#C6ED07"/>
<path d="M1423.54 480.822C1423.54 480.601 1423.43 480.366 1423.37 480.13C1423.43 480.366 1423.47 480.586 1423.54 480.822Z" fill="#C6ED07"/>
<path d="M1433.07 490.837C1432.84 490.767 1432.62 490.684 1432.4 490.587C1432.62 490.684 1432.84 490.767 1433.07 490.837Z" fill="#C6ED07"/>
<path d="M1431.72 490.278C1431.48 490.18 1431.25 490.067 1431.03 489.939C1431.25 490.067 1431.48 490.18 1431.72 490.278Z" fill="#C6ED07"/>
<path d="M1430.41 489.541C1430.17 489.409 1429.95 489.291 1429.73 489.144C1429.95 489.321 1430.17 489.438 1430.41 489.541Z" fill="#C6ED07"/>
<path d="M1425.47 484.902C1425.33 484.696 1425.19 484.46 1425.06 484.24C1425.19 484.46 1425.31 484.696 1425.47 484.902Z" fill="#C6ED07"/>
<path d="M1424.69 483.649L1424.35 482.943L1424.69 483.649Z" fill="#C6ED07"/>
<path d="M1424.05 482.25C1423.96 482.03 1423.88 481.794 1423.79 481.559L1424.05 482.25Z" fill="#C6ED07"/>
<path d="M1438.29 491.766C1437.77 491.766 1437.27 491.766 1436.81 491.766C1437.27 491.736 1437.79 491.766 1438.29 491.766Z" fill="#C6ED07"/>
<path d="M1423.18 479.364C1423.18 479.099 1423.09 478.819 1423.04 478.555C1423.09 478.819 1423.12 479.099 1423.18 479.364Z" fill="#C6ED07"/>
<path d="M1429.07 488.687L1428.52 488.275L1429.07 488.687Z" fill="#C6ED07"/>
<path d="M1434.52 491.28C1434.28 491.28 1434.05 491.177 1433.83 491.103C1434.05 491.177 1434.28 491.221 1434.52 491.28Z" fill="#C6ED07"/>
<path d="M1436.09 491.589L1435.28 491.471L1436.09 491.589Z" fill="#C6ED07"/>
<path d="M1422.96 477.862C1422.93 477.372 1422.93 476.88 1422.96 476.39C1422.93 476.88 1422.93 477.372 1422.96 477.862Z" fill="#C6ED07"/>
<path d="M1433.82 491.103L1433.07 490.838L1433.82 491.103Z" fill="#14899B"/>
<path d="M1435.28 491.471L1434.52 491.279L1435.28 491.471Z" fill="#14899B"/>
<path d="M1436.77 491.692L1436.09 491.589L1436.77 491.692Z" fill="#14899B"/>
<path d="M1429.73 489.173L1429.07 488.688L1429.73 489.173Z" fill="#14899B"/>
<path d="M1431.03 489.939C1430.81 489.827 1430.61 489.705 1430.41 489.571C1430.61 489.708 1430.81 489.831 1431.03 489.939Z" fill="#14899B"/>
<path d="M1432.4 490.587C1432.16 490.499 1431.94 490.381 1431.72 490.278C1431.94 490.381 1432.16 490.499 1432.4 490.587Z" fill="#14899B"/>
<path d="M1428.52 488.275C1428.13 487.951 1427.75 487.607 1427.39 487.244C1427.75 487.607 1428.13 487.951 1428.52 488.275Z" fill="#14899B"/>
<path d="M1423.04 478.554C1423.04 478.318 1422.97 478.098 1422.96 477.862C1422.97 478.098 1423.01 478.318 1423.04 478.554Z" fill="#14899B"/>
<path d="M1423.37 480.13C1423.37 479.865 1423.22 479.615 1423.18 479.365C1423.22 479.615 1423.29 479.865 1423.37 480.13Z" fill="#14899B"/>
<path d="M1438.29 491.766H1502.07C1506.16 491.766 1510.09 490.141 1512.98 487.249C1515.87 484.357 1517.49 480.435 1517.49 476.345C1517.49 472.256 1515.87 468.334 1512.98 465.442C1510.09 462.55 1506.16 460.925 1502.07 460.925H1475.56L1449.24 487.244C1447.81 488.688 1446.1 489.831 1444.22 490.608C1442.34 491.384 1440.32 491.778 1438.29 491.766Z" fill="#14899B"/>
<path d="M1453.71 439.128V412.618C1453.77 410.554 1453.42 408.498 1452.67 406.572C1451.93 404.646 1450.8 402.89 1449.37 401.407C1447.93 399.925 1446.21 398.746 1444.31 397.941C1442.4 397.136 1440.36 396.721 1438.29 396.721C1436.23 396.721 1434.19 397.136 1432.28 397.941C1430.38 398.746 1428.66 399.925 1427.22 401.407C1425.79 402.89 1424.66 404.646 1423.91 406.572C1423.17 408.498 1422.82 410.554 1422.88 412.618V476.287C1422.88 474.263 1423.27 472.258 1424.05 470.388C1424.82 468.517 1425.96 466.818 1427.39 465.388L1453.71 439.128Z" fill="#14899B"/>
<path d="M1423.84 481.558C1423.75 481.308 1423.66 481.073 1423.59 480.823C1423.62 481.073 1423.71 481.308 1423.84 481.558Z" fill="#14899B"/>
<path d="M1425.96 485.564C1425.8 485.344 1425.62 485.138 1425.47 484.902C1425.62 485.123 1425.8 485.344 1425.96 485.564Z" fill="#14899B"/>
<path d="M1427.39 487.244C1427.03 486.892 1426.69 486.519 1426.37 486.125C1426.7 486.507 1427.03 486.89 1427.39 487.244Z" fill="#14899B"/>
<path d="M1425.06 484.239L1424.69 483.621L1425.06 484.239Z" fill="#14899B"/>
<path d="M1424.35 482.913L1424.05 482.251L1424.35 482.913Z" fill="#14899B"/>
<path d="M1453.71 439.128L1427.39 465.447C1425.96 466.877 1424.82 468.576 1424.05 470.446C1423.27 472.317 1422.88 474.321 1422.88 476.345C1422.85 476.836 1422.85 477.328 1422.88 477.818C1422.88 478.054 1422.88 478.275 1422.97 478.51C1423.06 478.746 1422.97 479.055 1423.1 479.32C1423.24 479.586 1423.22 479.821 1423.29 480.086C1423.37 480.351 1423.4 480.558 1423.47 480.779C1423.54 480.999 1423.63 481.265 1423.72 481.515C1423.81 481.765 1423.88 481.986 1423.97 482.207L1424.28 482.87L1424.62 483.577L1424.99 484.195C1425.12 484.416 1425.25 484.652 1425.4 484.858C1425.55 485.064 1425.72 485.3 1425.89 485.521C1426.05 485.742 1426.15 485.904 1426.3 486.081C1426.61 486.475 1426.95 486.848 1427.31 487.2C1427.67 487.563 1428.05 487.907 1428.45 488.231L1428.99 488.643L1429.66 489.129C1429.88 489.277 1430.1 489.394 1430.33 489.527C1430.53 489.66 1430.74 489.783 1430.95 489.895C1431.18 490.023 1431.41 490.136 1431.64 490.234C1431.87 490.337 1432.09 490.455 1432.32 490.543C1432.54 490.639 1432.77 490.723 1433 490.794L1433.75 491.059C1433.97 491.132 1434.21 491.176 1434.44 491.235L1435.21 491.427L1436.02 491.545L1436.7 491.648C1437.2 491.648 1437.7 491.648 1438.17 491.648C1440.19 491.652 1442.2 491.255 1444.07 490.479C1445.94 489.702 1447.64 488.563 1449.07 487.126L1475.39 460.807H1453.59L1453.71 439.128Z" fill="#C6ED07"/>
<path d="M1453.71 439.128L1427.39 465.447C1425.96 466.877 1424.82 468.576 1424.05 470.446C1423.27 472.317 1422.88 474.321 1422.88 476.345C1422.85 476.836 1422.85 477.328 1422.88 477.818C1422.88 478.054 1422.88 478.275 1422.97 478.51C1423.06 478.746 1422.97 479.055 1423.1 479.32C1423.24 479.586 1423.22 479.821 1423.29 480.086C1423.37 480.351 1423.4 480.558 1423.47 480.779C1423.54 480.999 1423.63 481.265 1423.72 481.515C1423.81 481.765 1423.88 481.986 1423.97 482.207L1424.28 482.87L1424.62 483.577L1424.99 484.195C1425.12 484.416 1425.25 484.652 1425.4 484.858C1425.55 485.064 1425.72 485.3 1425.89 485.521C1426.05 485.742 1426.15 485.904 1426.3 486.081C1426.61 486.475 1426.95 486.848 1427.31 487.2C1427.67 487.563 1428.05 487.907 1428.45 488.231L1428.99 488.643L1429.66 489.129C1429.88 489.277 1430.1 489.394 1430.33 489.527C1430.53 489.66 1430.74 489.783 1430.95 489.895C1431.18 490.023 1431.41 490.136 1431.64 490.234C1431.87 490.337 1432.09 490.455 1432.32 490.543C1432.54 490.639 1432.77 490.723 1433 490.794L1433.75 491.059C1433.97 491.132 1434.21 491.176 1434.44 491.235L1435.21 491.427L1436.02 491.545L1436.7 491.648C1437.2 491.648 1437.7 491.648 1438.17 491.648C1440.19 491.652 1442.2 491.255 1444.07 490.479C1445.94 489.702 1447.64 488.563 1449.07 487.126L1475.39 460.807H1453.59L1453.71 439.128Z" fill="#086E0F"/>
<path d="M1088.73 461.559L1065.35 435.785C1063.28 433.501 1060.56 431.9 1057.56 431.192C1054.56 430.484 1051.42 430.703 1048.55 431.821C1045.67 432.938 1043.21 434.9 1041.47 437.449C1039.74 439.998 1038.82 443.012 1038.84 446.094V448.907C1039.34 451.721 1040.64 454.335 1042.56 456.448L1069.66 486.331V461.559H1088.73Z" fill="#C42A56"/>
<path d="M1088.74 461.559H1114.67C1116.74 461.622 1118.79 461.271 1120.72 460.525C1122.64 459.779 1124.4 458.654 1125.88 457.217C1127.36 455.779 1128.54 454.058 1129.35 452.157C1130.15 450.255 1130.57 448.211 1130.57 446.146C1130.57 444.081 1130.15 442.037 1129.35 440.135C1128.54 438.233 1127.36 436.512 1125.88 435.075C1124.4 433.637 1122.64 432.512 1120.72 431.766C1118.79 431.021 1116.74 430.669 1114.67 430.733H1053.86C1056.02 430.717 1058.16 431.157 1060.14 432.025C1062.12 432.893 1063.89 434.169 1065.35 435.77L1088.74 461.559Z" fill="#C42A56"/>
<path d="M1038.79 448.937V506.582C1038.73 508.646 1039.08 510.702 1039.83 512.627C1040.57 514.553 1041.7 516.309 1043.13 517.792C1044.57 519.275 1046.29 520.453 1048.19 521.258C1050.1 522.063 1052.14 522.478 1054.21 522.478C1056.27 522.478 1058.31 522.063 1060.22 521.258C1062.12 520.453 1063.84 519.275 1065.28 517.792C1066.71 516.309 1067.84 514.553 1068.58 512.627C1069.33 510.702 1069.68 508.646 1069.62 506.582V486.36L1042.52 456.477C1040.59 454.364 1039.3 451.751 1038.79 448.937Z" fill="#C42A56"/>
<path d="M1053.86 430.718C1051.6 430.725 1049.38 431.228 1047.34 432.192C1045.3 433.155 1043.49 434.556 1042.05 436.295C1040.62 438.034 1039.58 440.068 1039.01 442.252C1038.45 444.437 1038.38 446.719 1038.79 448.937V446.124C1038.8 442.097 1040.37 438.231 1043.19 435.353C1046 432.474 1049.83 430.811 1053.86 430.718Z" fill="#14899B"/>
<path d="M1088.73 461.559H1069.59V486.39L1090.99 509.851L1091.5 510.382C1096.46 515.363 1099.26 522.099 1099.28 529.128C1099.3 536.157 1096.55 542.911 1091.62 547.923L742.76 892.233C739.918 895.12 738.326 899.01 738.329 903.062C738.332 907.113 739.929 911.001 742.776 913.884C745.622 916.767 749.489 918.414 753.54 918.469C757.591 918.524 761.501 916.982 764.425 914.177L1113.3 569.809C1113.34 569.766 1113.38 569.727 1113.42 569.691C1124.08 558.952 1130.08 544.437 1130.1 529.302C1130.12 514.167 1124.17 499.635 1113.54 488.864L1088.73 461.559Z" fill="#14899B"/>
<path d="M1088.73 461.559L1065.35 435.785C1063.28 433.501 1060.56 431.9 1057.56 431.192C1054.56 430.484 1051.42 430.703 1048.55 431.821C1045.67 432.938 1043.21 434.9 1041.47 437.449C1039.74 439.998 1038.82 443.012 1038.84 446.094V448.907C1039.34 451.721 1040.64 454.335 1042.56 456.448L1069.66 486.331V461.559H1088.73Z" fill="#922D69"/>
<path d="M1359.58 890.819C1356.53 890.817 1353.55 889.911 1351.02 888.217C1348.49 886.522 1346.51 884.115 1345.34 881.298C1344.18 878.482 1343.87 875.383 1344.47 872.393C1345.06 869.403 1346.53 866.657 1348.68 864.5L1345.55 867.622C1341.2 871.953 1335.49 874.653 1329.39 875.27C1323.28 875.887 1317.15 874.383 1312.02 871.01L1311.91 870.995L1254.72 834.013C1243.67 826.725 1230.44 823.478 1217.27 824.819C1204.1 826.161 1191.8 832.01 1182.45 841.377L1045.02 978.804C1042.2 981.709 1040.64 985.607 1040.67 989.654C1040.7 993.702 1042.32 997.576 1045.18 1000.44C1048.04 1003.3 1051.92 1004.93 1055.97 1004.96C1060.01 1004.99 1063.91 1003.43 1066.82 1000.62L1204.25 863.175C1208.6 858.85 1214.31 856.155 1220.41 855.541C1226.52 854.927 1232.65 856.431 1237.78 859.802L1237.91 859.89L1295.1 896.872C1306.15 904.16 1319.38 907.408 1332.55 906.066C1345.72 904.724 1358.02 898.875 1367.37 889.508L1388.17 868.712L1370.49 886.386C1369.06 887.808 1367.35 888.932 1365.48 889.693C1363.61 890.454 1361.6 890.837 1359.58 890.819Z" fill="#14899B"/>
<path d="M1530.57 704.408H1508.77L1348.73 864.5L1366.4 846.827C1367.83 845.395 1369.53 844.259 1371.4 843.483C1373.28 842.708 1375.28 842.309 1377.31 842.309C1379.33 842.309 1381.34 842.708 1383.21 843.483C1385.08 844.259 1386.78 845.395 1388.21 846.827C1389.64 848.259 1390.78 849.959 1391.56 851.831C1392.33 853.702 1392.73 855.707 1392.73 857.733C1392.73 859.758 1392.33 861.764 1391.56 863.635C1390.78 865.506 1389.64 867.207 1388.21 868.639L1530.63 726.22L1530.57 704.408Z" fill="#6CCD18"/>
<path d="M1388.15 846.826C1385.26 843.94 1381.34 842.32 1377.25 842.32C1373.16 842.32 1369.24 843.94 1366.34 846.826L1348.67 864.5C1347.16 865.915 1345.96 867.617 1345.13 869.506C1344.29 871.394 1343.85 873.431 1343.82 875.495C1343.79 877.56 1344.17 879.609 1344.94 881.522C1345.72 883.435 1346.87 885.173 1348.33 886.633C1349.79 888.093 1351.53 889.245 1353.44 890.02C1355.36 890.796 1357.41 891.179 1359.47 891.148C1361.53 891.116 1363.57 890.671 1365.46 889.838C1367.35 889.005 1369.05 887.801 1370.47 886.297L1388.14 868.624C1391.02 865.731 1392.64 861.813 1392.65 857.728C1392.65 853.643 1391.03 849.724 1388.15 846.826Z" fill="#6CCD18"/>
<path d="M1388.15 846.826C1385.26 843.94 1381.34 842.32 1377.25 842.32C1373.16 842.32 1369.24 843.94 1366.34 846.826L1348.67 864.5C1347.16 865.915 1345.96 867.617 1345.13 869.506C1344.29 871.394 1343.85 873.431 1343.82 875.495C1343.79 877.56 1344.17 879.609 1344.94 881.522C1345.72 883.435 1346.87 885.173 1348.33 886.633C1349.79 888.093 1351.53 889.245 1353.44 890.02C1355.36 890.796 1357.41 891.179 1359.47 891.148C1361.53 891.116 1363.57 890.671 1365.46 889.838C1367.35 889.005 1369.05 887.801 1370.47 886.297L1388.14 868.624C1391.02 865.731 1392.64 861.813 1392.65 857.728C1392.65 853.643 1391.03 849.724 1388.15 846.826Z" fill="#086E0F"/>
<path d="M961.117 974.798C960.868 974.791 960.632 974.691 960.454 974.518C960.283 974.34 960.188 974.102 960.188 973.855C960.188 973.608 960.283 973.371 960.454 973.192L1286.38 647.278C1286.47 647.19 1286.57 647.12 1286.69 647.072C1286.8 647.024 1286.92 647 1287.05 647C1287.17 647 1287.29 647.024 1287.41 647.072C1287.52 647.12 1287.62 647.19 1287.71 647.278C1287.88 647.456 1287.98 647.694 1287.98 647.941C1287.98 648.188 1287.88 648.425 1287.71 648.604L961.779 974.518C961.604 974.695 961.366 974.796 961.117 974.798Z" fill="white"/>
<path d="M1287.9 652.462L1295.23 639.737L1282.52 647.087L1287.9 652.462Z" fill="white"/>
<path d="M1421.59 970.983C1421.4 970.985 1421.22 970.95 1421.04 970.879C1420.87 970.808 1420.71 970.703 1420.58 970.571C1420.34 970.299 1420.2 969.945 1420.2 969.577C1420.2 969.209 1420.34 968.854 1420.58 968.583L1596.66 792.525C1596.93 792.281 1597.28 792.146 1597.64 792.146C1598.01 792.146 1598.36 792.281 1598.63 792.525C1598.88 792.796 1599.02 793.151 1599.02 793.519C1599.02 793.887 1598.88 794.242 1598.63 794.513L1422.57 970.571C1422.44 970.702 1422.29 970.805 1422.12 970.876C1421.95 970.947 1421.77 970.983 1421.59 970.983Z" fill="white"/>
<path d="M550.473 922.248C550.289 922.25 550.107 922.214 549.937 922.144C549.767 922.073 549.614 921.968 549.486 921.836C549.242 921.565 549.106 921.214 549.106 920.849C549.106 920.485 549.242 920.133 549.486 919.862L802.806 666.542C802.911 666.334 803.063 666.155 803.251 666.017C803.438 665.88 803.656 665.789 803.885 665.752C804.115 665.715 804.35 665.732 804.571 665.803C804.792 665.874 804.994 665.997 805.159 666.16C805.324 666.324 805.447 666.525 805.52 666.745C805.593 666.966 805.612 667.201 805.577 667.431C805.541 667.66 805.452 667.878 805.316 668.067C805.18 668.255 805.001 668.409 804.795 668.515L551.474 921.836C551.345 921.971 551.189 922.077 551.017 922.148C550.844 922.219 550.659 922.253 550.473 922.248Z" fill="white"/>
<path d="M804.957 674.348L815.973 655.29L796.9 666.292L804.957 674.348Z" fill="white"/>
<path d="M1363.73 406.123C1363.43 406.126 1363.12 406.068 1362.84 405.952C1362.56 405.835 1362.3 405.663 1362.09 405.445C1361.87 405.229 1361.7 404.972 1361.58 404.689C1361.46 404.406 1361.4 404.102 1361.4 403.796C1361.4 403.489 1361.46 403.186 1361.58 402.902C1361.7 402.619 1361.87 402.362 1362.09 402.146L1533.83 240.387C1534.28 239.99 1534.86 239.779 1535.46 239.797C1536.05 239.815 1536.62 240.062 1537.04 240.485C1537.47 240.909 1537.71 241.479 1537.73 242.077C1537.74 242.675 1537.53 243.256 1537.13 243.701L1365.38 405.445C1365.17 405.661 1364.91 405.832 1364.63 405.948C1364.34 406.064 1364.04 406.124 1363.73 406.123Z" fill="white"/>
<path d="M1361.6 392.484L1343.23 424.267L1375.03 405.931L1361.6 392.484Z" fill="white"/>
<path d="M754.925 956.137C754.619 956.139 754.316 956.08 754.033 955.964C753.749 955.848 753.492 955.676 753.276 955.46C753.058 955.242 752.885 954.984 752.767 954.7C752.65 954.416 752.589 954.111 752.589 953.803C752.589 953.495 752.65 953.191 752.767 952.906C752.885 952.622 753.058 952.364 753.276 952.146L985.02 720.402C985.459 719.963 986.055 719.716 986.677 719.716C987.298 719.716 987.894 719.963 988.334 720.402C988.773 720.842 989.02 721.438 989.02 722.059C989.02 722.68 988.773 723.276 988.334 723.716L756.575 955.46C756.358 955.676 756.101 955.848 755.818 955.964C755.535 956.08 755.231 956.139 754.925 956.137Z" fill="white"/>
<path d="M988.806 733.348L1007.17 701.565L975.374 719.916L988.806 733.348Z" fill="white"/>
<path d="M1373.13 490.823C1373.23 491.059 1373.31 491.294 1373.4 491.515C1373.31 491.294 1373.23 491.014 1373.13 490.823Z" fill="#015A00"/>
<path d="M1366.78 483.503L1367.46 483.901C1367.24 483.754 1367 483.651 1366.78 483.503Z" fill="#015A00"/>
<path d="M1370.82 486.95L1371.23 487.509L1370.82 486.95Z" fill="#015A00"/>
<path d="M1371.72 488.172C1371.86 488.378 1371.98 488.613 1372.13 488.849C1371.98 488.613 1371.86 488.393 1371.72 488.172Z" fill="#015A00"/>
<path d="M1372.48 489.453C1372.61 489.683 1372.72 489.918 1372.82 490.159C1372.72 489.918 1372.61 489.683 1372.48 489.453Z" fill="#015A00"/>
<path d="M1368.11 484.387C1368.29 484.519 1368.49 484.652 1368.67 484.799L1368.11 484.387Z" fill="#015A00"/>
<path d="M1361.1 481.485L1361.91 481.603L1361.1 481.485Z" fill="#015A00"/>
<path d="M1358.89 481.309C1359.4 481.309 1359.92 481.309 1360.36 481.382C1359.9 481.338 1359.4 481.309 1358.89 481.309Z" fill="#015A00"/>
<path d="M1362.67 481.795L1363.37 481.971L1362.67 481.795Z" fill="#015A00"/>
<path d="M1365.46 482.796L1366.16 483.135C1365.93 483.01 1365.7 482.897 1365.46 482.796Z" fill="#015A00"/>
<path d="M1364.1 482.178L1364.79 482.428C1364.57 482.332 1364.34 482.248 1364.1 482.178Z" fill="#015A00"/>
<path d="M1321.67 512.149L1132.64 701.182L1152.61 681.211C1154.02 679.708 1155.73 678.504 1157.62 677.67C1159.5 676.837 1161.54 676.392 1163.61 676.36C1165.67 676.329 1167.72 676.712 1169.63 677.488C1171.55 678.264 1173.28 679.415 1174.74 680.875C1176.2 682.335 1177.35 684.073 1178.13 685.986C1178.91 687.899 1179.29 689.949 1179.26 692.013C1179.23 694.077 1178.78 696.114 1177.95 698.002C1177.11 699.891 1175.91 701.593 1174.41 703.008L1343.48 533.946V512.149H1321.67Z" fill="#015A00"/>
<path d="M1374.01 493.709C1374.01 493.989 1374.1 494.254 1374.13 494.533C1374.1 494.254 1374.06 493.96 1374.01 493.709Z" fill="#015A00"/>
<path d="M1373.65 492.251C1373.72 492.487 1373.76 492.722 1373.82 492.958C1373.76 492.722 1373.76 492.487 1373.65 492.251Z" fill="#015A00"/>
<path d="M1143.54 727.501C1140.49 727.499 1137.51 726.593 1134.97 724.899C1132.44 723.204 1130.47 720.797 1129.3 717.98C1128.13 715.164 1127.83 712.065 1128.42 709.075C1129.02 706.085 1130.48 703.339 1132.64 701.182L923.236 910.584C921.733 911.999 920.529 913.701 919.696 915.59C918.862 917.478 918.417 919.515 918.386 921.579C918.354 923.644 918.738 925.693 919.513 927.606C920.289 929.519 921.441 931.257 922.9 932.717C924.36 934.177 926.098 935.329 928.011 936.104C929.924 936.88 931.974 937.263 934.038 937.232C936.102 937.2 938.139 936.755 940.028 935.922C941.916 935.088 943.619 933.885 945.033 932.381L1174.41 703.008L1154.44 722.979C1153.01 724.416 1151.31 725.556 1149.44 726.332C1147.57 727.108 1145.56 727.505 1143.54 727.501Z" fill="#6CCD00"/>
<path d="M1174.41 681.211C1172.98 679.779 1171.28 678.643 1169.41 677.867C1167.54 677.092 1165.53 676.693 1163.51 676.693C1161.48 676.693 1159.48 677.092 1157.61 677.867C1155.74 678.643 1154.04 679.779 1152.61 681.211L1132.64 701.182C1131.14 702.597 1129.93 704.299 1129.1 706.188C1128.26 708.077 1127.82 710.113 1127.79 712.178C1127.76 714.242 1128.14 716.291 1128.92 718.204C1129.69 720.117 1130.84 721.855 1132.3 723.315C1133.76 724.775 1135.5 725.927 1137.41 726.702C1139.33 727.478 1141.38 727.861 1143.44 727.83C1145.5 727.799 1147.54 727.353 1149.43 726.52C1151.32 725.687 1153.02 724.483 1154.44 722.979L1174.41 703.008C1175.84 701.578 1176.98 699.879 1177.75 698.008C1178.53 696.138 1178.92 694.134 1178.92 692.11C1178.92 690.085 1178.53 688.081 1177.75 686.211C1176.98 684.341 1175.84 682.642 1174.41 681.211Z" fill="#015A00"/>
<path d="M1174.41 681.211C1172.98 679.779 1171.28 678.643 1169.41 677.867C1167.54 677.092 1165.53 676.693 1163.51 676.693C1161.48 676.693 1159.48 677.092 1157.61 677.867C1155.74 678.643 1154.04 679.779 1152.61 681.211L1132.64 701.182C1131.14 702.597 1129.93 704.299 1129.1 706.188C1128.26 708.077 1127.82 710.113 1127.79 712.178C1127.76 714.242 1128.14 716.291 1128.92 718.204C1129.69 720.117 1130.84 721.855 1132.3 723.315C1133.76 724.775 1135.5 725.927 1137.41 726.702C1139.33 727.478 1141.38 727.861 1143.44 727.83C1145.5 727.799 1147.54 727.353 1149.43 726.52C1151.32 725.687 1153.02 724.483 1154.44 722.979L1174.41 703.008C1175.84 701.578 1176.98 699.879 1177.75 698.008C1178.53 696.138 1178.92 694.134 1178.92 692.11C1178.92 690.085 1178.53 688.081 1177.75 686.211C1176.98 684.341 1175.84 682.642 1174.41 681.211Z" fill="#009000"/>
<path d="M1366.16 483.135C1366.38 483.247 1366.58 483.37 1366.78 483.503C1366.58 483.37 1366.38 483.247 1366.16 483.135Z" fill="#C6ED07"/>
<path d="M1358.89 481.309H1270.04C1265.95 481.309 1262.02 482.933 1259.13 485.825C1256.24 488.717 1254.62 492.639 1254.62 496.729C1254.62 500.818 1256.24 504.741 1259.13 507.632C1262.02 510.524 1265.95 512.149 1270.04 512.149H1321.67L1347.99 485.83C1349.42 484.395 1351.12 483.256 1352.99 482.48C1354.86 481.704 1356.86 481.306 1358.89 481.309Z" fill="#C6ED07"/>
<path d="M1364.79 482.487L1365.46 482.796L1364.79 482.487Z" fill="#C6ED07"/>
<path d="M1360.42 481.382L1361.1 481.485L1360.42 481.382Z" fill="#C6ED07"/>
<path d="M1369.79 507.628L1343.48 533.946V585.583C1343.42 587.647 1343.77 589.703 1344.52 591.628C1345.26 593.554 1346.39 595.31 1347.83 596.793C1349.26 598.276 1350.98 599.454 1352.89 600.259C1354.79 601.064 1356.83 601.479 1358.9 601.479C1360.96 601.479 1363.01 601.064 1364.91 600.259C1366.81 599.454 1368.53 598.276 1369.97 596.793C1371.41 595.31 1372.53 593.554 1373.28 591.628C1374.02 589.703 1374.37 587.647 1374.31 585.583V496.729C1374.31 498.754 1373.92 500.76 1373.14 502.631C1372.36 504.502 1371.22 506.2 1369.79 507.628Z" fill="#C6ED07"/>
<path d="M1373.4 491.515C1373.4 491.765 1373.57 492.001 1373.65 492.251C1373.57 492.001 1373.47 491.765 1373.4 491.515Z" fill="#C6ED07"/>
<path d="M1363.37 481.972C1363.62 481.972 1363.85 482.148 1364.1 482.236C1363.85 482.178 1363.62 482.045 1363.37 481.972Z" fill="#C6ED07"/>
<path d="M1361.98 481.604L1362.75 481.795L1361.98 481.604Z" fill="#C6ED07"/>
<path d="M1371.23 487.509C1371.39 487.73 1371.57 487.951 1371.72 488.171C1371.57 487.936 1371.39 487.73 1371.23 487.509Z" fill="#C6ED07"/>
<path d="M1373.76 492.958C1373.76 493.209 1373.9 493.459 1373.95 493.709C1373.95 493.459 1373.88 493.209 1373.76 492.958Z" fill="#C6ED07"/>
<path d="M1372.13 488.85C1372.25 489.056 1372.38 489.247 1372.48 489.453C1372.38 489.247 1372.29 489.056 1372.13 488.85Z" fill="#C6ED07"/>
<path d="M1367.46 483.901L1368.11 484.386L1367.46 483.901Z" fill="#C6ED07"/>
<path d="M1372.82 490.16C1372.92 490.381 1373.04 490.601 1373.13 490.822C1373.04 490.601 1372.92 490.381 1372.82 490.16Z" fill="#C6ED07"/>
<path d="M1368.67 484.799C1369.04 485.109 1369.4 485.447 1369.76 485.801C1369.41 485.448 1369.05 485.114 1368.67 484.799Z" fill="#C6ED07"/>
<path d="M1374.13 494.535C1374.13 494.755 1374.13 494.976 1374.24 495.211C1374.21 494.976 1374.16 494.755 1374.13 494.535Z" fill="#C6ED07"/>
<path d="M1369.83 485.86C1370.17 486.213 1370.51 486.582 1370.82 486.95C1370.51 486.596 1370.17 486.213 1369.83 485.86Z" fill="#C6ED07"/>
<path d="M1374.31 496.729C1374.31 496.214 1374.31 495.713 1374.31 495.256C1374.31 495.021 1374.24 494.8 1374.21 494.579C1374.18 494.358 1374.21 494.034 1374.09 493.754C1373.97 493.474 1373.96 493.253 1373.9 493.003C1373.84 492.753 1373.79 492.532 1373.72 492.296C1373.65 492.06 1373.54 491.81 1373.47 491.56C1373.4 491.309 1373.31 491.103 1373.2 490.867C1373.1 490.632 1373 490.426 1372.89 490.205C1372.79 489.963 1372.68 489.728 1372.56 489.498C1372.45 489.292 1372.32 489.1 1372.2 488.894C1372.08 488.688 1371.94 488.423 1371.79 488.216C1371.64 488.01 1371.47 487.775 1371.3 487.554L1370.89 486.994C1370.58 486.626 1370.24 486.258 1369.91 485.904H1369.83C1369.48 485.551 1369.11 485.212 1368.74 484.903C1368.37 484.593 1368.36 484.623 1368.18 484.49L1367.53 484.004L1366.86 483.607C1366.66 483.473 1366.45 483.35 1366.24 483.238L1365.53 482.9L1364.87 482.59L1364.18 482.34C1363.93 482.252 1363.69 482.149 1363.44 482.075L1362.75 481.898L1361.98 481.707L1361.17 481.589L1360.49 481.486C1359.99 481.486 1359.48 481.412 1359.02 481.412C1357 481.409 1354.99 481.808 1353.12 482.584C1351.25 483.36 1349.55 484.498 1348.12 485.934L1321.8 512.252H1343.62V534.05L1369.92 507.731C1371.35 506.28 1372.47 504.56 1373.22 502.671C1373.97 500.783 1374.34 498.763 1374.31 496.729Z" fill="#015A00"/>
<path d="M1374.31 496.729C1374.31 496.214 1374.31 495.713 1374.31 495.256C1374.31 495.021 1374.24 494.8 1374.21 494.579C1374.18 494.358 1374.21 494.034 1374.09 493.754C1373.97 493.474 1373.96 493.253 1373.9 493.003C1373.84 492.753 1373.79 492.532 1373.72 492.296C1373.65 492.06 1373.54 491.81 1373.47 491.56C1373.4 491.309 1373.31 491.103 1373.2 490.867C1373.1 490.632 1373 490.426 1372.89 490.205C1372.79 489.963 1372.68 489.728 1372.56 489.498C1372.45 489.292 1372.32 489.1 1372.2 488.894C1372.08 488.688 1371.94 488.423 1371.79 488.216C1371.64 488.01 1371.47 487.775 1371.3 487.554L1370.89 486.994C1370.58 486.626 1370.24 486.258 1369.91 485.904H1369.83C1369.48 485.551 1369.11 485.212 1368.74 484.903C1368.37 484.593 1368.36 484.623 1368.18 484.49L1367.53 484.004L1366.86 483.607C1366.66 483.473 1366.45 483.35 1366.24 483.238L1365.53 482.9L1364.87 482.59L1364.18 482.34C1363.93 482.252 1363.69 482.149 1363.44 482.075L1362.75 481.898L1361.98 481.707L1361.17 481.589L1360.49 481.486C1359.99 481.486 1359.48 481.412 1359.02 481.412C1357 481.409 1354.99 481.808 1353.12 482.584C1351.25 483.36 1349.55 484.498 1348.12 485.934L1321.8 512.252H1343.62V534.05L1369.92 507.731C1371.35 506.28 1372.47 504.56 1373.22 502.671C1373.97 500.783 1374.34 498.763 1374.31 496.729Z" fill="#63BC0B"/>
<path d="M1271.42 697.972H1210.96C1206.87 697.972 1202.95 699.596 1200.06 702.488C1197.17 705.38 1195.54 709.302 1195.54 713.392C1195.54 717.482 1197.17 721.404 1200.06 724.296C1202.95 727.187 1206.87 728.812 1210.96 728.812H1234.2L1260.52 702.493C1261.95 701.059 1263.65 699.921 1265.52 699.145C1267.39 698.369 1269.4 697.971 1271.42 697.972Z" fill="#C6ED07"/>
<path d="M1330.71 586.746C1330.53 586.748 1330.35 586.712 1330.18 586.641C1330.01 586.57 1329.85 586.466 1329.73 586.334C1329.48 586.063 1329.35 585.711 1329.35 585.347C1329.35 584.982 1329.48 584.631 1329.73 584.36L1685.47 228.679C1685.74 228.431 1686.09 228.293 1686.46 228.293C1686.83 228.293 1687.18 228.431 1687.46 228.679C1687.7 228.95 1687.83 229.301 1687.83 229.666C1687.83 230.03 1687.7 230.382 1687.46 230.653L1331.7 586.392C1331.57 586.514 1331.41 586.608 1331.24 586.668C1331.07 586.729 1330.89 586.755 1330.71 586.746Z" fill="white"/>
<path d="M1329.43 578.631L1318.42 597.704L1337.5 586.687L1329.43 578.631Z" fill="white"/>
<path d="M988.057 266.759H964.817C961.153 266.759 957.638 268.215 955.047 270.806C952.456 273.397 951 276.911 951 280.576C951 284.241 952.456 287.755 955.047 290.346C957.638 292.937 961.153 294.393 964.817 294.393H1019.12C1017.22 294.38 1015.33 293.971 1013.59 293.192C1011.85 292.412 1010.29 291.28 1009.01 289.867L988.057 266.759Z" fill="#14899B"/>
<path d="M1032.82 277.989V226.349C1032.82 222.685 1031.36 219.17 1028.77 216.579C1026.18 213.988 1022.67 212.532 1019 212.532C1015.34 212.532 1011.82 213.988 1009.23 216.579C1006.64 219.17 1005.19 222.685 1005.19 226.349V244.469L1029.48 271.245C1031.19 273.142 1032.35 275.476 1032.82 277.989Z" fill="#14899B"/>
<path d="M1298.07 -119.212C1299.39 -120.48 1300.44 -121.998 1301.17 -123.677C1301.9 -125.357 1302.29 -127.164 1302.32 -128.995C1302.34 -130.826 1302 -132.644 1301.32 -134.343C1300.63 -136.041 1299.62 -137.587 1298.33 -138.89C1297.05 -140.193 1295.51 -141.228 1293.82 -141.933C1292.13 -142.639 1290.32 -143.001 1288.49 -143C1286.66 -142.999 1284.85 -142.633 1283.16 -141.925C1281.47 -141.217 1279.94 -140.181 1278.65 -138.876L966.045 169.695L965.952 169.801C956.399 179.421 951.027 192.424 951.005 205.982C950.983 219.541 956.312 232.56 965.834 242.212L988.057 266.759H1005.21V244.469L986.117 223.42L985.655 222.932C981.21 218.472 978.704 212.439 978.682 206.143C978.66 199.847 981.123 193.796 985.537 189.306L1298.07 -119.212Z" fill="#C6ED07"/>
<path d="M988.057 266.758L1009.01 289.853C1010.87 291.892 1013.3 293.321 1015.99 293.951C1018.67 294.581 1021.49 294.383 1024.06 293.383C1026.63 292.383 1028.84 290.628 1030.39 288.349C1031.95 286.07 1032.78 283.374 1032.77 280.615V278.081C1032.3 275.568 1031.14 273.235 1029.43 271.338L1005.13 244.561V266.758H988.057Z" fill="#0E6674"/>
<path d="M871.006 210.924C870.842 210.924 870.679 210.891 870.527 210.828C870.376 210.764 870.238 210.671 870.122 210.554C869.9 210.311 869.776 209.993 869.776 209.663C869.776 209.334 869.9 209.016 870.122 208.773L1260.47 -181.567C1260.59 -181.697 1260.73 -181.802 1260.88 -181.877C1261.04 -181.951 1261.21 -181.993 1261.38 -181.999C1261.55 -182.005 1261.72 -181.976 1261.88 -181.913C1262.04 -181.85 1262.19 -181.755 1262.31 -181.633C1262.43 -181.511 1262.53 -181.365 1262.59 -181.205C1262.65 -181.045 1262.68 -180.873 1262.68 -180.701C1262.67 -180.529 1262.63 -180.36 1262.55 -180.205C1262.48 -180.049 1262.37 -179.911 1262.24 -179.798L871.904 210.554C871.787 210.673 871.647 210.767 871.493 210.83C871.339 210.894 871.173 210.926 871.006 210.924Z" fill="white"/>
<path d="M869.858 203.586L860 220.676L877.09 210.818L869.858 203.586Z" fill="white"/>
<path d="M956.594 51.2034C956.359 51.1775 956.135 51.0888 955.946 50.9468C955.757 50.8048 955.609 50.6146 955.519 50.3961C955.429 50.1776 955.399 49.9388 955.432 49.7047C955.466 49.4707 955.562 49.2499 955.71 49.0655L1148.06 -143.293C1148.15 -143.476 1148.29 -143.635 1148.46 -143.755C1148.63 -143.875 1148.82 -143.954 1149.02 -143.985C1149.23 -144.016 1149.44 -143.999 1149.64 -143.934C1149.83 -143.87 1150.01 -143.76 1150.16 -143.613C1150.3 -143.467 1150.41 -143.288 1150.48 -143.092C1150.54 -142.895 1150.56 -142.686 1150.53 -142.481C1150.5 -142.277 1150.42 -142.082 1150.3 -141.914C1150.18 -141.745 1150.02 -141.608 1149.84 -141.512L957.491 50.8207C957.375 50.9418 957.236 51.0382 957.082 51.104C956.927 51.1698 956.761 51.2036 956.594 51.2034Z" fill="white"/>
<path d="M955.446 43.8789L945.574 60.9689L962.677 51.0976L955.446 43.8789Z" fill="white"/>
<path d="M1252.53 13.4204L1248.48 9.36899C1244.01 4.89088 1241.5 -1.17702 1241.5 -7.5033C1241.5 -13.8296 1244.01 -19.8975 1248.48 -24.3756C1250.94 -26.9914 1252.28 -30.463 1252.23 -34.0545C1252.18 -37.6461 1250.72 -41.0752 1248.19 -43.6151C1245.65 -46.155 1242.22 -47.606 1238.62 -47.6605C1235.03 -47.715 1231.56 -46.3687 1228.95 -43.9071C1219.31 -34.2438 1213.89 -21.1521 1213.89 -7.5033C1213.89 6.14553 1219.31 19.2372 1228.95 28.9005L1233 32.9387C1237.47 37.4168 1239.98 43.4848 1239.98 49.811C1239.98 56.1373 1237.47 62.2052 1233 66.6833L1110.01 189.666V209.197H1129.55L1252.53 86.228C1262.16 76.563 1267.58 63.472 1267.58 49.8242C1267.58 36.1765 1262.16 23.0854 1252.53 13.4204Z" fill="#14899B"/>
<path d="M1096.2 236.844H1153.35C1157.02 236.844 1160.53 235.389 1163.12 232.797C1165.71 230.206 1167.17 226.692 1167.17 223.027C1167.17 219.363 1165.71 215.848 1163.12 213.257C1160.53 210.666 1157.02 209.21 1153.35 209.21H1129.6L1106.02 232.793C1104.73 234.087 1103.2 235.111 1101.51 235.807C1099.83 236.503 1098.02 236.855 1096.2 236.844Z" fill="#C42A56"/>
<path d="M1110.01 189.679V165.924C1110.07 164.075 1109.76 162.233 1109.09 160.507C1108.42 158.782 1107.41 157.208 1106.12 155.879C1104.83 154.551 1103.29 153.494 1101.59 152.773C1099.88 152.052 1098.05 151.68 1096.2 151.68C1094.35 151.68 1092.52 152.052 1090.82 152.773C1089.11 153.494 1087.57 154.551 1086.28 155.879C1084.99 157.208 1083.99 158.782 1083.32 160.507C1082.65 162.233 1082.34 164.075 1082.39 165.924V222.975C1082.39 221.161 1082.74 219.365 1083.44 217.689C1084.13 216.013 1085.15 214.49 1086.43 213.209L1110.01 189.679Z" fill="#C42A56"/>
<path d="M1110.01 189.679L1086.43 213.262C1085.15 214.543 1084.13 216.066 1083.44 217.742C1082.74 219.417 1082.39 221.214 1082.39 223.027C1082.37 223.467 1082.37 223.908 1082.39 224.347C1082.39 224.558 1082.39 224.756 1082.47 224.967C1082.55 225.178 1082.47 225.456 1082.59 225.693C1082.71 225.931 1082.7 226.142 1082.76 226.379C1082.83 226.617 1082.85 226.802 1082.92 227C1082.99 227.198 1083.07 227.435 1083.15 227.66C1083.22 227.884 1083.29 228.082 1083.37 228.28L1083.65 228.874L1083.95 229.507L1084.28 230.061C1084.4 230.259 1084.52 230.47 1084.65 230.655C1084.78 230.84 1084.94 231.051 1085.09 231.249C1085.23 231.447 1085.32 231.592 1085.45 231.751C1085.74 232.104 1086.04 232.439 1086.37 232.754C1086.69 233.079 1087.03 233.387 1087.38 233.677L1087.87 234.047L1088.46 234.482C1088.66 234.614 1088.86 234.72 1089.07 234.839C1089.25 234.958 1089.43 235.068 1089.63 235.169C1089.83 235.283 1090.03 235.384 1090.25 235.472C1090.44 235.564 1090.64 235.67 1090.85 235.749C1091.05 235.836 1091.25 235.91 1091.46 235.974L1092.13 236.211C1092.33 236.277 1092.54 236.317 1092.75 236.369L1093.44 236.541L1094.16 236.647L1094.77 236.739C1095.22 236.739 1095.67 236.739 1096.09 236.739C1097.91 236.743 1099.7 236.387 1101.38 235.691C1103.06 234.996 1104.58 233.975 1105.86 232.688L1129.44 209.105H1109.91L1110.01 189.679Z" fill="#922D69"/>
</g>
</svg>
