<svg width="428" height="926" viewBox="0 0 428 926" fill="none" xmlns="http://www.w3.org/2000/svg">
<path d="M195.581 894.492C195.706 894.742 195.706 894.867 195.831 895.116C195.706 894.867 195.581 894.617 195.581 894.492Z" fill="#C42A56"/>
<path d="M194.956 893.367C195.081 893.617 195.206 893.742 195.206 893.992C195.206 893.742 195.081 893.492 194.956 893.367Z" fill="#C42A56"/>
<path d="M187.833 887.12C188.083 887.245 188.207 887.245 188.457 887.37C188.332 887.37 188.083 887.245 187.833 887.12Z" fill="#C42A56"/>
<path d="M194.332 892.243C194.457 892.368 194.582 892.618 194.707 892.868C194.582 892.618 194.457 892.368 194.332 892.243Z" fill="#C42A56"/>
<path d="M190.207 888.245C190.457 888.37 190.582 888.495 190.832 888.619C190.582 888.495 190.332 888.37 190.207 888.245Z" fill="#C42A56"/>
<path d="M191.332 888.994C191.457 889.119 191.707 889.244 191.832 889.369C191.582 889.244 191.457 889.119 191.332 888.994Z" fill="#C42A56"/>
<path d="M189.082 887.62C189.332 887.745 189.457 887.745 189.707 887.87C189.457 887.87 189.207 887.745 189.082 887.62Z" fill="#C42A56"/>
<path d="M195.956 895.741C195.956 895.991 196.081 896.116 196.081 896.366C196.081 896.116 196.081 895.866 195.956 895.741Z" fill="#C42A56"/>
<path d="M193.582 891.243C193.707 891.368 193.832 891.618 193.957 891.743C193.832 891.493 193.707 891.368 193.582 891.243Z" fill="#C42A56"/>
<path d="M151.838 912.609L79.475 984.954C71.8512 992.575 59.9781 993.7 50.9796 987.827L-13.6349 945.096C-23.0084 938.848 -34.2566 936.099 -45.3798 937.224C-56.503 938.348 -67.0013 943.346 -75 951.218L-191.606 1067.79C-196.73 1072.92 -196.73 1081.16 -191.606 1086.29C-189.106 1088.78 -185.732 1090.16 -182.358 1090.16C-178.983 1090.16 -175.609 1088.91 -173.109 1086.29L-56.503 969.71C-48.8792 962.088 -37.0062 960.964 -28.0076 966.836L36.6069 1009.57C44.6056 1014.82 53.9791 1017.69 63.6026 1017.69C65.2273 1017.69 66.852 1017.56 68.4768 1017.44C79.6 1016.32 90.0983 1011.32 98.097 1003.45L170.46 931.101V912.609H151.838Z" fill="#C42A56"/>
<path d="M185.333 886.495C185.583 886.495 185.833 886.495 186.083 886.62C185.833 886.62 185.583 886.62 185.333 886.495Z" fill="#C42A56"/>
<path d="M184.708 886.495C184.333 886.495 183.833 886.37 183.458 886.37C183.958 886.37 184.333 886.37 184.708 886.495Z" fill="#C42A56"/>
<path d="M196.331 896.866C196.331 897.116 196.456 897.365 196.456 897.615C196.331 897.365 196.331 897.116 196.331 896.866Z" fill="#C42A56"/>
<path d="M186.708 886.87C186.958 886.87 187.083 886.995 187.333 886.995C187.083 886.87 186.833 886.87 186.708 886.87Z" fill="#C42A56"/>
<path d="M196.456 898.24C196.456 898.615 196.581 899.115 196.581 899.49C196.581 898.99 196.581 898.615 196.456 898.24Z" fill="#C42A56"/>
<path d="M184.708 886.495C184.958 886.495 185.082 886.495 185.332 886.62C185.207 886.495 184.958 886.495 184.708 886.495Z" fill="#C6ED07"/>
<path d="M190.707 888.619C190.957 888.744 191.082 888.869 191.207 888.994C191.082 888.869 190.957 888.744 190.707 888.619Z" fill="#C6ED07"/>
<path d="M187.332 886.995C187.582 887.12 187.707 887.12 187.957 887.245C187.707 887.12 187.457 886.995 187.332 886.995Z" fill="#C6ED07"/>
<path d="M186.083 886.62C186.333 886.62 186.457 886.745 186.707 886.745C186.457 886.745 186.208 886.745 186.083 886.62Z" fill="#C6ED07"/>
<path d="M189.582 887.995C189.707 888.12 189.957 888.245 190.082 888.37C189.957 888.12 189.832 887.995 189.582 887.995Z" fill="#C6ED07"/>
<path d="M188.458 887.37C188.708 887.495 188.833 887.495 189.083 887.62C188.833 887.62 188.708 887.495 188.458 887.37Z" fill="#C6ED07"/>
<path d="M196.456 897.616C196.456 897.866 196.581 897.991 196.581 898.24C196.456 897.991 196.456 897.741 196.456 897.616Z" fill="#C6ED07"/>
<path d="M196.206 896.241C196.206 896.491 196.331 896.616 196.331 896.866C196.206 896.741 196.206 896.491 196.206 896.241Z" fill="#C6ED07"/>
<path d="M195.831 895.117C195.956 895.367 195.956 895.491 196.081 895.741C195.956 895.491 195.831 895.242 195.831 895.117Z" fill="#C6ED07"/>
<path d="M192.706 908.736L170.335 931.101V950.718C170.335 957.965 176.209 963.837 183.458 963.837C190.707 963.837 196.581 957.965 196.581 950.718V899.49C196.581 902.863 195.331 906.112 192.706 908.736Z" fill="#C6ED07"/>
<path d="M192.707 890.244C192.957 890.494 193.332 890.868 193.582 891.243C193.332 890.868 193.082 890.494 192.707 890.244Z" fill="#C6ED07"/>
<path d="M195.331 893.867C195.456 894.117 195.456 894.242 195.581 894.492C195.456 894.242 195.331 894.117 195.331 893.867Z" fill="#C6ED07"/>
<path d="M193.957 891.618C194.082 891.743 194.207 891.993 194.332 892.118C194.207 891.993 194.082 891.868 193.957 891.618Z" fill="#C6ED07"/>
<path d="M191.707 889.369C192.082 889.619 192.332 889.869 192.707 890.244C192.457 889.869 192.082 889.619 191.707 889.369Z" fill="#C6ED07"/>
<path d="M194.706 892.743C194.831 892.868 194.956 893.117 194.956 893.242C194.956 893.117 194.831 892.993 194.706 892.743Z" fill="#C6ED07"/>
<path d="M196.581 899.49C196.581 899.115 196.581 898.615 196.456 898.24C196.456 897.99 196.456 897.866 196.331 897.616C196.331 897.366 196.331 897.116 196.206 896.866C196.206 896.616 196.081 896.491 196.081 896.241C196.081 895.991 195.956 895.866 195.956 895.616C195.831 895.367 195.831 895.242 195.706 894.992C195.581 894.742 195.581 894.617 195.456 894.367C195.331 894.117 195.331 893.992 195.206 893.742C195.081 893.492 195.081 893.367 194.956 893.118C194.831 892.993 194.706 892.743 194.706 892.618C194.581 892.368 194.456 892.243 194.331 891.993C194.206 891.743 194.081 891.618 193.956 891.493C193.831 891.368 193.706 891.118 193.581 890.993C193.331 890.619 193.081 890.369 192.706 889.994C192.456 889.744 192.081 889.369 191.706 889.119C191.581 888.994 191.456 888.869 191.207 888.744C191.082 888.619 190.832 888.495 190.707 888.37C190.582 888.245 190.332 888.12 190.082 887.995C189.957 887.87 189.707 887.745 189.582 887.62C189.332 887.495 189.207 887.37 188.957 887.37C188.707 887.245 188.582 887.245 188.332 887.12C188.082 886.995 187.957 886.995 187.707 886.87C187.457 886.745 187.332 886.745 187.082 886.62C186.832 886.62 186.707 886.495 186.457 886.495C186.207 886.495 186.082 886.37 185.832 886.37C185.582 886.37 185.332 886.245 185.082 886.245C184.833 886.245 184.708 886.121 184.458 886.121C184.083 886.121 183.583 885.996 183.208 885.996C179.833 885.996 176.459 887.245 173.959 889.869L151.588 912.234H170.335V930.726L192.706 908.361C195.331 906.112 196.581 902.863 196.581 899.49Z" fill="#AB1B44"/>
<path d="M92.5985 760.174C92.3486 760.174 92.2236 760.049 92.0986 759.924C91.8486 759.674 91.8486 759.175 92.0986 758.8L234.796 616.187C235.046 615.938 235.546 615.938 235.921 616.187C236.171 616.437 236.171 616.937 235.921 617.312L93.2234 759.924C92.9735 760.174 92.8485 760.174 92.5985 760.174Z" fill="white"/>
<path d="M91.8486 755.551L85.5996 766.422L96.4728 760.174L91.8486 755.551Z" fill="white"/>
<path d="M28.4834 685.831L8.61161 663.965C5.98703 661.092 2.48757 659.717 -1.13684 659.717C-8.26069 659.842 -13.8848 665.715 -13.8848 672.837V675.211C-13.5098 677.46 -12.385 679.709 -10.7603 681.583L12.236 706.947L12.236 685.831H28.4834Z" fill="#C42A56"/>
<path d="M28.4835 685.831H50.4799C57.7287 685.831 63.6028 679.959 63.6028 672.712C63.6028 665.465 57.7287 659.592 50.4799 659.592H-0.886744C-1.01172 659.592 -1.13672 659.592 -1.13672 659.592C2.48769 659.592 5.98715 660.967 8.61172 663.84L28.4835 685.831Z" fill="#C42A56"/>
<path d="M-13.8848 675.086L-13.8848 723.94C-13.8848 731.187 -8.01072 737.059 -0.761899 737.059C6.48692 737.059 12.361 731.187 12.361 723.94L12.361 706.822L-10.6353 681.458C-12.51 679.709 -13.5098 677.46 -13.8848 675.086Z" fill="#C42A56"/>
<path d="M28.4835 685.831H12.2362V706.947L30.3582 726.814C30.4832 726.939 30.6082 727.063 30.8582 727.313C39.6067 736.06 39.6067 750.304 30.9831 759.175L-265.094 1051.18C-270.218 1056.3 -270.343 1064.54 -265.219 1069.67C-262.719 1072.29 -259.345 1073.54 -255.845 1073.54C-252.471 1073.54 -249.221 1072.29 -246.597 1069.79L49.4801 777.667L49.6051 777.542C58.7286 768.296 63.7278 756.051 63.7278 743.057C63.7278 730.187 58.7286 718.067 49.7301 708.946L28.4835 685.831Z" fill="#14899B"/>
<path d="M28.4834 685.831L8.61161 663.965C5.98703 661.092 2.48757 659.717 -1.13684 659.717C-8.26069 659.842 -13.8848 665.715 -13.8848 672.837V675.211C-13.5098 677.46 -12.385 679.709 -10.7603 681.583L12.236 706.947L12.236 685.831H28.4834Z" fill="#14899B"/>
<path d="M-79.8741 1121.27C-80.1241 1121.27 -80.2491 1121.15 -80.3741 1121.02C-80.624 1120.77 -80.624 1120.27 -80.3741 1119.9L196.206 843.389C196.456 843.139 196.956 843.139 197.331 843.389C197.581 843.638 197.581 844.138 197.331 844.513L-79.2492 1121.02C-79.4992 1121.15 -79.6242 1121.27 -79.8741 1121.27Z" fill="white"/>
<path d="M197.456 847.762L203.705 837.017L192.832 843.264L197.456 847.762Z" fill="white"/>
<path d="M269.819 710.696C269.944 710.946 269.944 711.071 270.069 711.321C269.944 711.071 269.819 710.821 269.819 710.696Z" fill="#015A00"/>
<path d="M264.445 704.448C264.695 704.573 264.82 704.698 265.069 704.823C264.82 704.698 264.57 704.573 264.445 704.448Z" fill="#015A00"/>
<path d="M267.82 707.322C267.945 707.447 268.07 707.697 268.195 707.822C268.07 707.697 267.945 707.572 267.82 707.322Z" fill="#015A00"/>
<path d="M268.569 708.447C268.694 708.572 268.819 708.822 268.944 709.071C268.819 708.822 268.694 708.572 268.569 708.447Z" fill="#015A00"/>
<path d="M269.194 709.446C269.319 709.696 269.444 709.821 269.444 710.071C269.444 709.946 269.319 709.696 269.194 709.446Z" fill="#015A00"/>
<path d="M265.57 705.198C265.695 705.323 265.945 705.448 266.07 705.573C265.82 705.448 265.695 705.323 265.57 705.198Z" fill="#015A00"/>
<path d="M259.571 702.699C259.821 702.699 260.071 702.699 260.321 702.824C260.071 702.824 259.821 702.824 259.571 702.699Z" fill="#015A00"/>
<path d="M257.696 702.574C258.071 702.574 258.571 702.574 258.946 702.699C258.571 702.574 258.071 702.574 257.696 702.574Z" fill="#015A00"/>
<path d="M260.946 702.949C261.196 702.949 261.321 703.074 261.57 703.074C261.321 703.074 261.071 703.074 260.946 702.949Z" fill="#015A00"/>
<path d="M263.32 703.824C263.57 703.949 263.695 703.949 263.945 704.074C263.695 704.074 263.445 703.949 263.32 703.824Z" fill="#015A00"/>
<path d="M262.07 703.324C262.32 703.449 262.445 703.449 262.695 703.574C262.57 703.449 262.32 703.449 262.07 703.324Z" fill="#015A00"/>
<path d="M226.076 728.688L65.7275 889.12L82.7248 872.127C87.849 867.004 96.0976 867.004 101.222 872.127C106.346 877.25 106.346 885.496 101.222 890.619L244.698 747.18V728.688H226.076V728.688Z" fill="#015A00"/>
<path d="M270.819 715.694C270.819 715.319 270.819 714.819 270.694 714.444C270.819 714.819 270.819 715.194 270.819 715.694Z" fill="#015A00"/>
<path d="M270.569 713.069C270.569 713.319 270.694 713.569 270.694 713.819C270.569 713.569 270.569 713.319 270.569 713.069Z" fill="#015A00"/>
<path d="M270.194 711.82C270.194 712.07 270.319 712.195 270.319 712.445C270.319 712.32 270.319 712.07 270.194 711.82Z" fill="#015A00"/>
<path d="M74.976 911.485C71.6015 911.485 68.227 910.236 65.7274 907.612C60.6032 902.489 60.6032 894.242 65.7274 889.12L-111.994 1066.79C-117.118 1071.92 -117.118 1080.16 -111.994 1085.29C-109.494 1087.78 -106.12 1089.16 -102.745 1089.16C-99.3708 1089.16 -95.9964 1087.91 -93.4968 1085.29L101.097 890.744L84.0995 907.737C81.5999 910.111 78.3504 911.485 74.976 911.485Z" fill="#6CCD00"/>
<path d="M101.097 872.127C95.973 867.004 87.7243 867.004 82.6001 872.127L65.6029 889.12C60.4787 894.242 60.4787 902.489 65.6029 907.612C68.1025 910.111 71.4769 911.485 74.8514 911.485C78.2258 911.485 81.6003 910.236 84.0999 907.612L101.097 890.619C106.221 885.621 106.221 877.25 101.097 872.127Z" fill="#C6ED07"/>
<path d="M263.82 704.073C263.945 704.198 264.195 704.323 264.32 704.323C264.195 704.323 264.07 704.198 263.82 704.073Z" fill="#C6ED07"/>
<path d="M257.697 702.574H182.334C175.085 702.574 169.211 708.447 169.211 715.694C169.211 722.941 175.085 728.813 182.334 728.813H226.202L248.573 706.448C250.948 703.824 254.322 702.574 257.697 702.574Z" fill="#C6ED07"/>
<path d="M262.695 703.574C262.945 703.699 263.07 703.699 263.319 703.823C263.07 703.699 262.945 703.699 262.695 703.574Z" fill="#C6ED07"/>
<path d="M258.946 702.699C259.196 702.699 259.321 702.699 259.57 702.824C259.321 702.699 259.196 702.699 258.946 702.699Z" fill="#C6ED07"/>
<path d="M266.946 724.939L244.574 747.305V791.161C244.574 798.408 250.448 804.281 257.697 804.281C264.946 804.281 270.82 798.408 270.82 791.161V715.818C270.82 719.067 269.445 722.316 266.946 724.939Z" fill="#C6ED07"/>
<path d="M269.944 711.196C270.069 711.446 270.069 711.571 270.194 711.821C270.194 711.696 270.069 711.446 269.944 711.196Z" fill="#C6ED07"/>
<path d="M261.445 703.199C261.695 703.324 261.82 703.324 262.07 703.449C261.945 703.324 261.695 703.199 261.445 703.199Z" fill="#C6ED07"/>
<path d="M260.195 702.824C260.445 702.824 260.57 702.949 260.82 702.949C260.695 702.949 260.445 702.824 260.195 702.824Z" fill="#C6ED07"/>
<path d="M268.194 707.822C268.319 707.947 268.444 708.197 268.569 708.322C268.444 708.197 268.319 708.072 268.194 707.822Z" fill="#C6ED07"/>
<path d="M270.319 712.445C270.319 712.695 270.444 712.82 270.444 713.07C270.444 712.945 270.444 712.695 270.319 712.445Z" fill="#C6ED07"/>
<path d="M268.944 708.946C269.069 709.071 269.194 709.321 269.194 709.446C269.194 709.321 269.069 709.196 268.944 708.946Z" fill="#C6ED07"/>
<path d="M264.945 704.823C265.195 704.948 265.32 705.073 265.445 705.198C265.32 705.073 265.195 704.948 264.945 704.823Z" fill="#C6ED07"/>
<path d="M269.569 710.071C269.694 710.321 269.694 710.446 269.819 710.695C269.694 710.446 269.569 710.321 269.569 710.071Z" fill="#C6ED07"/>
<path d="M265.945 705.573C266.32 705.823 266.57 706.073 266.82 706.447C266.57 706.073 266.32 705.823 265.945 705.573Z" fill="#C6ED07"/>
<path d="M270.694 713.819C270.694 714.069 270.819 714.194 270.819 714.444C270.694 714.194 270.694 713.944 270.694 713.819Z" fill="#C6ED07"/>
<path d="M266.944 706.447C267.194 706.697 267.569 707.072 267.819 707.322C267.569 707.072 267.319 706.697 266.944 706.447Z" fill="#C6ED07"/>
<path d="M270.82 715.694C270.82 715.194 270.82 714.819 270.695 714.444C270.695 714.194 270.695 714.069 270.57 713.819C270.57 713.569 270.57 713.32 270.445 713.07C270.445 712.82 270.32 712.695 270.32 712.445C270.32 712.195 270.195 712.07 270.195 711.82C270.07 711.57 270.07 711.445 269.945 711.195C269.82 710.946 269.82 710.821 269.695 710.571C269.57 710.321 269.57 710.196 269.445 709.946C269.32 709.696 269.32 709.571 269.195 709.321C269.07 709.196 268.945 708.946 268.945 708.821C268.82 708.572 268.695 708.447 268.57 708.197C268.445 707.947 268.32 707.822 268.195 707.697C268.07 707.572 267.945 707.322 267.82 707.197C267.57 706.822 267.32 706.572 266.946 706.323C266.696 706.073 266.321 705.698 266.071 705.448C265.946 705.323 265.696 705.198 265.571 705.073C265.446 704.948 265.196 704.823 265.071 704.698C264.946 704.573 264.696 704.448 264.446 704.323C264.321 704.198 264.071 704.074 263.946 704.074C263.696 703.949 263.571 703.824 263.321 703.824C263.071 703.699 262.946 703.699 262.696 703.574C262.446 703.449 262.321 703.449 262.071 703.324C261.821 703.199 261.696 703.199 261.446 703.074C261.196 703.074 261.072 702.949 260.822 702.949C260.572 702.949 260.447 702.824 260.197 702.824C259.947 702.824 259.697 702.699 259.447 702.699C259.197 702.699 259.072 702.574 258.822 702.574C258.447 702.574 257.947 702.449 257.572 702.449C254.198 702.449 250.823 703.699 248.324 706.323L225.952 728.688H244.449V747.18L266.821 724.815C269.445 722.316 270.82 719.067 270.82 715.694Z" fill="#6CCD00"/>
<path d="M183.458 886.371H132.092C124.843 886.371 118.969 892.243 118.969 899.49C118.969 906.737 124.843 912.609 132.092 912.609H151.838L174.21 890.244C176.834 887.62 180.084 886.371 183.458 886.371Z" fill="#C6ED07"/>
<path d="M332.057 253.759H308.817C305.153 253.759 301.638 255.215 299.047 257.806C296.456 260.397 295 263.911 295 267.576C295 271.241 296.456 274.755 299.047 277.346C301.638 279.937 305.153 281.393 308.817 281.393H363.123C361.216 281.38 359.333 280.971 357.593 280.192C355.853 279.412 354.293 278.28 353.014 276.867L332.057 253.759Z" fill="#14899B"/>
<path d="M376.82 264.989V213.349C376.82 209.685 375.364 206.17 372.773 203.579C370.182 200.988 366.667 199.532 363.003 199.532C359.338 199.532 355.824 200.988 353.233 203.579C350.641 206.17 349.186 209.685 349.186 213.349V231.469L373.481 258.245C375.195 260.142 376.35 262.476 376.82 264.989Z" fill="#14899B"/>
<path d="M642.067 -132.212C643.388 -133.48 644.444 -134.998 645.174 -136.677C645.903 -138.357 646.292 -140.164 646.317 -141.995C646.341 -143.826 646.002 -145.644 645.318 -147.343C644.635 -149.041 643.62 -150.587 642.334 -151.89C641.047 -153.193 639.514 -154.228 637.825 -154.933C636.135 -155.639 634.322 -156.001 632.491 -156C630.66 -155.999 628.847 -155.633 627.158 -154.925C625.47 -154.217 623.938 -153.181 622.654 -151.876L310.045 156.695L309.952 156.801C300.399 166.421 295.027 179.424 295.005 192.982C294.983 206.541 300.312 219.56 309.834 229.212L332.057 253.759H349.213V231.469L330.117 210.42L329.655 209.932C325.21 205.472 322.704 199.439 322.682 193.143C322.66 186.847 325.123 180.796 329.537 176.306L642.067 -132.212Z" fill="#C6ED07"/>
<path d="M332.057 253.758L353.013 276.853C354.872 278.892 357.303 280.321 359.989 280.951C362.675 281.581 365.489 281.383 368.06 280.383C370.631 279.383 372.839 277.628 374.393 275.349C375.948 273.07 376.776 270.374 376.768 267.615V265.081C376.298 262.568 375.143 260.235 373.429 258.338L349.133 231.561V253.758H332.057Z" fill="#0E6674"/>
<path d="M215.006 197.924C214.842 197.924 214.679 197.891 214.527 197.828C214.376 197.764 214.238 197.671 214.122 197.554C213.9 197.311 213.776 196.993 213.776 196.663C213.776 196.334 213.9 196.016 214.122 195.773L604.475 -194.567C604.587 -194.697 604.726 -194.802 604.881 -194.877C605.036 -194.951 605.205 -194.993 605.378 -194.999C605.55 -195.005 605.721 -194.976 605.882 -194.913C606.042 -194.85 606.188 -194.755 606.309 -194.633C606.431 -194.511 606.527 -194.365 606.59 -194.205C606.653 -194.045 606.682 -193.873 606.676 -193.701C606.67 -193.529 606.628 -193.36 606.553 -193.205C606.479 -193.049 606.373 -192.911 606.243 -192.798L215.904 197.554C215.787 197.673 215.647 197.767 215.493 197.83C215.339 197.894 215.173 197.926 215.006 197.924V197.924Z" fill="white"/>
<path d="M213.858 190.586L204 207.676L221.09 197.818L213.858 190.586Z" fill="white"/>
<path d="M300.594 38.2034C300.359 38.1775 300.135 38.0888 299.946 37.9468C299.757 37.8048 299.609 37.6146 299.519 37.3961C299.429 37.1776 299.399 36.9388 299.432 36.7047C299.466 36.4707 299.562 36.2499 299.71 36.0655L492.055 -156.293C492.151 -156.476 492.289 -156.635 492.457 -156.755C492.626 -156.875 492.82 -156.954 493.025 -156.985C493.229 -157.016 493.439 -156.999 493.635 -156.934C493.832 -156.87 494.011 -156.76 494.157 -156.613C494.303 -156.467 494.413 -156.288 494.478 -156.092C494.542 -155.895 494.56 -155.686 494.528 -155.481C494.497 -155.277 494.418 -155.082 494.298 -154.914C494.178 -154.745 494.02 -154.608 493.837 -154.512L301.491 37.8207C301.375 37.9418 301.236 38.0382 301.082 38.104C300.927 38.1698 300.761 38.2036 300.594 38.2034V38.2034Z" fill="white"/>
<path d="M299.446 30.8789L289.574 47.9689L306.677 38.0976L299.446 30.8789Z" fill="white"/>
<path d="M454.014 176.679V152.924C454.071 151.075 453.756 149.233 453.088 147.507C452.419 145.782 451.411 144.208 450.123 142.879C448.835 141.551 447.293 140.494 445.589 139.773C443.885 139.052 442.053 138.68 440.203 138.68C438.353 138.68 436.521 139.052 434.817 139.773C433.113 140.494 431.571 141.551 430.283 142.879C428.995 144.208 427.987 145.782 427.318 147.507C426.65 149.233 426.335 151.075 426.392 152.924V209.975C426.389 208.161 426.744 206.365 427.437 204.689C428.13 203.013 429.147 201.49 430.431 200.209L454.014 176.679Z" fill="#C42A56"/>
<path d="M454.014 176.679L430.431 200.262C429.148 201.543 428.131 203.066 427.438 204.742C426.745 206.417 426.39 208.214 426.393 210.027C426.368 210.467 426.368 210.908 426.393 211.347C426.393 211.558 426.393 211.756 426.472 211.967C426.551 212.178 426.472 212.456 426.591 212.693C426.71 212.931 426.697 213.142 426.763 213.379C426.829 213.617 426.855 213.802 426.921 214C426.987 214.198 427.066 214.435 427.145 214.66C427.224 214.884 427.291 215.082 427.37 215.28L427.647 215.874L427.95 216.507L428.28 217.061C428.399 217.259 428.518 217.47 428.65 217.655C428.782 217.84 428.94 218.051 429.085 218.249C429.23 218.447 429.323 218.592 429.455 218.751C429.737 219.104 430.041 219.439 430.365 219.754V219.754C430.688 220.079 431.027 220.387 431.382 220.677L431.87 221.047L432.464 221.482C432.662 221.614 432.86 221.72 433.071 221.839C433.25 221.958 433.435 222.068 433.625 222.169C433.825 222.283 434.032 222.384 434.245 222.472C434.443 222.564 434.641 222.67 434.852 222.749C435.05 222.836 435.253 222.91 435.459 222.974L436.132 223.211C436.33 223.277 436.542 223.317 436.753 223.369L437.439 223.541L438.165 223.647L438.772 223.739C439.22 223.739 439.669 223.739 440.091 223.739C441.906 223.743 443.704 223.387 445.38 222.691C447.056 221.996 448.578 220.975 449.857 219.688L473.44 196.105H453.909L454.014 176.679Z" fill="#922D69"/>
</svg>
