<svg width="1440" height="717" viewBox="0 0 1440 717" fill="none" xmlns="http://www.w3.org/2000/svg">
<path d="M1685.5 -683H-244.5V91.5L-244.5 130.5C-244.5 130.5 -48.4999 35.6896 -4.49992 85C39.5001 134.31 51.5 198 131 198C210.5 198 353 143.5 424 143.5C535.623 143.5 513.291 227 636 227C735 227 863 143.5 993 143.5C1123 143.5 1139.5 243.5 1267 243.5C1324.13 243.5 1392.6 136.84 1474.5 118C1575.37 94.7974 1685.5 158.5 1685.5 158.5V-683Z" fill="#68C0AF"/>
<path d="M1687 -683H-247V78.5C-247 78.5 -66.5 5 -4.5 66C57.5 127 43 162.5 122.5 162.5C202 162.5 358.5 116 429.5 116C541.123 116 514.791 223 637.5 223C736.5 223 861.5 116 991.5 116C1121.5 116 1167 224 1260 205.5C1353 187 1398.5 139.5 1423.5 125.5C1448.5 111.5 1530.5 51 1687 140V-683Z" fill="#7BCFBF"/>
<path d="M54.582 489.492C54.707 489.742 54.707 489.867 54.832 490.116C54.707 489.867 54.582 489.617 54.582 489.492Z" fill="#C42A56"/>
<path d="M53.957 488.367C54.082 488.617 54.207 488.742 54.207 488.992C54.207 488.742 54.082 488.492 53.957 488.367Z" fill="#C42A56"/>
<path d="M46.832 482.12C47.0817 482.245 47.2065 482.245 47.4562 482.37C47.3313 482.37 47.0817 482.245 46.832 482.12Z" fill="#C42A56"/>
<path d="M53.332 487.243C53.457 487.368 53.582 487.618 53.707 487.868C53.582 487.618 53.457 487.368 53.332 487.243Z" fill="#C42A56"/>
<path d="M49.207 483.245C49.457 483.37 49.582 483.495 49.8319 483.619C49.582 483.495 49.332 483.37 49.207 483.245Z" fill="#C42A56"/>
<path d="M50.332 483.994C50.457 484.119 50.707 484.244 50.832 484.369C50.582 484.244 50.457 484.119 50.332 483.994Z" fill="#C42A56"/>
<path d="M48.082 482.62C48.332 482.745 48.457 482.745 48.7069 482.87C48.457 482.87 48.207 482.745 48.082 482.62Z" fill="#C42A56"/>
<path d="M54.957 490.741C54.957 490.991 55.082 491.116 55.082 491.366C55.082 491.116 55.082 490.866 54.957 490.741Z" fill="#C42A56"/>
<path d="M52.582 486.243C52.707 486.368 52.832 486.618 52.957 486.743C52.832 486.493 52.707 486.368 52.582 486.243Z" fill="#C42A56"/>
<path d="M10.8383 507.609L-61.525 579.953C-69.1488 587.575 -81.0219 588.7 -90.0204 582.827L-154.635 540.095C-164.008 533.848 -175.257 531.099 -186.38 532.224C-197.503 533.348 -208.001 538.346 -216 546.218L-332.606 662.793C-337.73 667.916 -337.73 676.162 -332.606 681.285C-330.106 683.784 -326.732 685.158 -323.358 685.158C-319.983 685.158 -316.609 683.909 -314.109 681.285L-197.503 564.71C-189.879 557.088 -178.006 555.963 -169.008 561.836L-104.393 604.568C-96.3944 609.816 -87.0209 612.689 -77.3974 612.689C-75.7727 612.689 -74.148 612.564 -72.5232 612.439C-61.4 611.315 -50.9017 606.317 -42.903 598.445L29.4603 526.101V507.609H10.8383Z" fill="#C42A56"/>
<path d="M44.332 481.495C44.582 481.495 44.832 481.495 45.0819 481.62C44.832 481.62 44.582 481.62 44.332 481.495Z" fill="#C42A56"/>
<path d="M43.7088 481.495C43.3338 481.495 42.8339 481.37 42.459 481.37C42.9589 481.37 43.3338 481.37 43.7088 481.495Z" fill="#C42A56"/>
<path d="M55.3301 491.866C55.3301 492.116 55.4548 492.365 55.4548 492.615C55.3301 492.365 55.3301 492.116 55.3301 491.866Z" fill="#C42A56"/>
<path d="M45.707 481.87C45.957 481.87 46.082 481.995 46.3319 481.995C46.082 481.87 45.832 481.87 45.707 481.87Z" fill="#C42A56"/>
<path d="M55.4551 493.24C55.4551 493.615 55.5801 494.115 55.5801 494.49C55.5801 493.99 55.5801 493.615 55.4551 493.24Z" fill="#C42A56"/>
<path d="M43.707 481.495C43.9567 481.495 44.0815 481.495 44.3311 481.62C44.2063 481.495 43.9567 481.495 43.707 481.495Z" fill="#C6ED07"/>
<path d="M49.707 483.619C49.957 483.744 50.082 483.869 50.2069 483.994C50.082 483.869 49.957 483.744 49.707 483.619Z" fill="#C6ED07"/>
<path d="M46.332 481.995C46.582 482.12 46.7069 482.12 46.9569 482.245C46.7069 482.12 46.457 481.995 46.332 481.995Z" fill="#C6ED07"/>
<path d="M45.082 481.62C45.3317 481.62 45.4565 481.745 45.7061 481.745C45.4565 481.745 45.2068 481.745 45.082 481.62Z" fill="#C6ED07"/>
<path d="M48.582 482.995C48.707 483.119 48.957 483.244 49.082 483.369C48.957 483.119 48.832 482.995 48.582 482.995Z" fill="#C6ED07"/>
<path d="M47.457 482.37C47.707 482.495 47.832 482.495 48.0819 482.62C47.832 482.62 47.707 482.495 47.457 482.37Z" fill="#C6ED07"/>
<path d="M55.4551 492.616C55.4551 492.866 55.5801 492.991 55.5801 493.24C55.4551 492.991 55.4551 492.741 55.4551 492.616Z" fill="#C6ED07"/>
<path d="M55.207 491.241C55.207 491.491 55.332 491.616 55.332 491.866C55.207 491.741 55.207 491.491 55.207 491.241Z" fill="#C6ED07"/>
<path d="M54.832 490.117C54.957 490.366 54.957 490.491 55.082 490.741C54.957 490.491 54.832 490.241 54.832 490.117Z" fill="#C6ED07"/>
<path d="M51.7073 503.736L29.3359 526.101L29.3359 545.718C29.3359 552.965 35.21 558.837 42.4588 558.837C49.7077 558.837 55.5817 552.965 55.5817 545.718V494.49C55.5817 497.863 54.3319 501.112 51.7073 503.736Z" fill="#C6ED07"/>
<path d="M51.707 485.244C51.957 485.494 52.3319 485.868 52.5819 486.243C52.3319 485.868 52.0819 485.494 51.707 485.244Z" fill="#C6ED07"/>
<path d="M54.3301 488.867C54.455 489.117 54.4551 489.242 54.58 489.492C54.4551 489.242 54.3301 489.117 54.3301 488.867Z" fill="#C6ED07"/>
<path d="M52.957 486.618C53.082 486.743 53.207 486.993 53.332 487.118C53.207 486.993 53.082 486.868 52.957 486.618Z" fill="#C6ED07"/>
<path d="M50.707 484.369C51.082 484.619 51.3319 484.869 51.7068 485.244C51.4569 484.869 51.082 484.619 50.707 484.369Z" fill="#C6ED07"/>
<path d="M53.707 487.743C53.832 487.868 53.9569 488.117 53.9569 488.242C53.9569 488.117 53.832 487.993 53.707 487.743Z" fill="#C6ED07"/>
<path d="M55.5806 494.49C55.5806 494.115 55.5806 493.615 55.4556 493.24C55.4556 492.99 55.4556 492.866 55.3306 492.616C55.3306 492.366 55.3307 492.116 55.2057 491.866C55.2057 491.616 55.0807 491.491 55.0807 491.241C55.0807 490.991 54.9557 490.866 54.9557 490.616C54.8307 490.367 54.8307 490.242 54.7057 489.992C54.5808 489.742 54.5808 489.617 54.4558 489.367C54.3308 489.117 54.3308 488.992 54.2058 488.742C54.0809 488.492 54.0809 488.367 53.9559 488.118C53.8309 487.993 53.7059 487.743 53.7059 487.618C53.5809 487.368 53.456 487.243 53.331 486.993C53.206 486.743 53.081 486.618 52.956 486.493C52.8311 486.368 52.7061 486.118 52.5811 485.993C52.3312 485.619 52.0812 485.369 51.7062 484.994C51.4563 484.744 51.0814 484.369 50.7064 484.119C50.5814 483.994 50.4565 483.869 50.2065 483.744C50.0815 483.619 49.8315 483.495 49.7066 483.37C49.5816 483.245 49.3316 483.12 49.0817 482.995C48.9567 482.87 48.7067 482.745 48.5817 482.62C48.3318 482.495 48.2068 482.37 47.9568 482.37C47.7069 482.245 47.5819 482.245 47.3319 482.12C47.082 481.995 46.957 481.995 46.707 481.87C46.4571 481.745 46.3321 481.745 46.0821 481.62C45.8322 481.62 45.7072 481.495 45.4572 481.495C45.2073 481.495 45.0823 481.37 44.8323 481.37C44.5824 481.37 44.3324 481.245 44.0825 481.245C43.8325 481.245 43.7075 481.121 43.4576 481.121C43.0826 481.121 42.5827 480.996 42.2078 480.996C38.8333 480.996 35.4589 482.245 32.9593 484.869L10.5879 507.234H29.3349L29.3349 525.726L51.7062 503.361C54.3308 501.112 55.5806 497.863 55.5806 494.49Z" fill="#AB1B44"/>
<path d="M-48.4025 355.174C-48.6524 355.174 -48.7774 355.049 -48.9024 354.924C-49.1523 354.674 -49.1523 354.175 -48.9024 353.8L93.7952 211.187C94.0452 210.938 94.5451 210.938 94.9201 211.187C95.17 211.437 95.17 211.937 94.9201 212.312L-47.7776 354.924C-48.0275 355.174 -48.1525 355.174 -48.4025 355.174Z" fill="#6CCD00"/>
<path d="M-220.873 716.27C-221.123 716.27 -221.248 716.145 -221.373 716.02C-221.623 715.77 -221.623 715.271 -221.373 714.896L55.2072 438.389C55.4571 438.139 55.957 438.139 56.332 438.389C56.5819 438.639 56.5819 439.139 56.332 439.513L-220.248 716.02C-220.498 716.145 -220.623 716.27 -220.873 716.27Z" fill="#015A00"/>
<path d="M56.4563 442.762L62.7053 432.017L51.832 438.264L56.4563 442.762Z" fill="#015A00"/>
<path d="M128.818 305.695C128.943 305.945 128.943 306.07 129.068 306.32C128.943 306.07 128.818 305.82 128.818 305.695Z" fill="#015A00"/>
<path d="M123.443 299.448C123.693 299.573 123.818 299.698 124.067 299.822C123.818 299.698 123.568 299.573 123.443 299.448Z" fill="#015A00"/>
<path d="M126.818 302.322C126.943 302.447 127.068 302.697 127.193 302.822C127.068 302.697 126.943 302.572 126.818 302.322Z" fill="#015A00"/>
<path d="M127.568 303.447C127.693 303.571 127.818 303.821 127.943 304.071C127.818 303.821 127.693 303.571 127.568 303.447Z" fill="#015A00"/>
<path d="M128.193 304.446C128.318 304.696 128.443 304.821 128.443 305.071C128.443 304.946 128.318 304.696 128.193 304.446Z" fill="#015A00"/>
<path d="M124.568 300.198C124.693 300.323 124.943 300.448 125.068 300.573C124.818 300.448 124.693 300.323 124.568 300.198Z" fill="#015A00"/>
<path d="M118.57 297.699C118.82 297.699 119.07 297.699 119.32 297.824C119.07 297.824 118.82 297.824 118.57 297.699Z" fill="#015A00"/>
<path d="M116.695 297.574C117.07 297.574 117.57 297.574 117.945 297.699C117.57 297.574 117.07 297.574 116.695 297.574Z" fill="#015A00"/>
<path d="M119.945 297.949C120.195 297.949 120.32 298.073 120.569 298.073C120.32 298.073 120.07 298.073 119.945 297.949Z" fill="#015A00"/>
<path d="M122.32 298.823C122.57 298.948 122.695 298.948 122.945 299.073C122.695 299.073 122.445 298.948 122.32 298.823Z" fill="#015A00"/>
<path d="M121.07 298.323C121.32 298.448 121.445 298.448 121.695 298.573C121.57 298.448 121.32 298.448 121.07 298.323Z" fill="#015A00"/>
<path d="M85.0755 323.688L-75.2734 484.119L-58.2762 467.127C-53.152 462.004 -44.9033 462.004 -39.7792 467.127C-34.655 472.249 -34.655 480.496 -39.7792 485.619L103.698 342.18V323.688H85.0755Z" fill="#015A00"/>
<path d="M129.818 310.693C129.818 310.318 129.818 309.819 129.693 309.444C129.818 309.819 129.818 310.194 129.818 310.693Z" fill="#015A00"/>
<path d="M129.568 308.069C129.568 308.319 129.693 308.569 129.693 308.819C129.568 308.569 129.568 308.319 129.568 308.069Z" fill="#015A00"/>
<path d="M129.193 306.82C129.193 307.07 129.318 307.195 129.318 307.445C129.318 307.32 129.318 307.07 129.193 306.82Z" fill="#015A00"/>
<path d="M122.818 299.073C122.943 299.198 123.193 299.323 123.318 299.323C123.193 299.323 123.068 299.198 122.818 299.073Z" fill="#C6ED07"/>
<path d="M116.695 297.574H41.3319C34.083 297.574 28.209 303.446 28.209 310.693C28.209 317.94 34.083 323.813 41.3319 323.813H85.1998L107.571 301.447C109.946 298.823 113.32 297.574 116.695 297.574Z" fill="#C6ED07"/>
<path d="M121.695 298.573C121.945 298.698 122.07 298.698 122.319 298.823C122.07 298.698 121.945 298.698 121.695 298.573Z" fill="#C6ED07"/>
<path d="M117.945 297.699C118.195 297.699 118.32 297.699 118.569 297.824C118.32 297.699 118.195 297.699 117.945 297.699Z" fill="#C6ED07"/>
<path d="M125.944 319.939L103.572 342.305V386.161C103.572 393.408 109.446 399.28 116.695 399.28C123.944 399.28 129.818 393.408 129.818 386.161V310.818C129.818 314.067 128.443 317.315 125.944 319.939Z" fill="#C6ED07"/>
<path d="M128.943 306.195C129.068 306.445 129.068 306.57 129.193 306.82C129.193 306.695 129.068 306.445 128.943 306.195Z" fill="#C6ED07"/>
<path d="M120.445 298.199C120.695 298.324 120.82 298.324 121.07 298.449C120.945 298.324 120.695 298.199 120.445 298.199Z" fill="#C6ED07"/>
<path d="M119.195 297.824C119.445 297.824 119.57 297.949 119.82 297.949C119.695 297.949 119.445 297.824 119.195 297.824Z" fill="#C6ED07"/>
<path d="M127.193 302.822C127.318 302.947 127.443 303.196 127.568 303.321C127.443 303.196 127.318 303.072 127.193 302.822Z" fill="#C6ED07"/>
<path d="M129.318 307.445C129.318 307.694 129.443 307.819 129.443 308.069C129.443 307.944 129.443 307.694 129.318 307.445Z" fill="#C6ED07"/>
<path d="M127.943 303.946C128.068 304.071 128.193 304.321 128.193 304.446C128.193 304.321 128.068 304.196 127.943 303.946Z" fill="#C6ED07"/>
<path d="M123.943 299.823C124.193 299.948 124.318 300.073 124.443 300.198C124.318 300.073 124.193 299.948 123.943 299.823Z" fill="#C6ED07"/>
<path d="M128.568 305.071C128.693 305.321 128.693 305.445 128.818 305.695C128.693 305.445 128.568 305.321 128.568 305.071Z" fill="#C6ED07"/>
<path d="M124.943 300.573C125.318 300.822 125.568 301.072 125.818 301.447C125.568 301.072 125.318 300.822 124.943 300.573Z" fill="#C6ED07"/>
<path d="M129.693 308.819C129.693 309.069 129.818 309.194 129.818 309.444C129.693 309.194 129.693 308.944 129.693 308.819Z" fill="#C6ED07"/>
<path d="M125.943 301.447C126.193 301.697 126.568 302.072 126.818 302.322C126.568 302.072 126.318 301.697 125.943 301.447Z" fill="#C6ED07"/>
<path d="M129.819 310.693C129.819 310.194 129.819 309.819 129.694 309.444C129.694 309.194 129.694 309.069 129.569 308.819C129.569 308.569 129.569 308.319 129.444 308.069C129.444 307.82 129.319 307.695 129.319 307.445C129.319 307.195 129.194 307.07 129.194 306.82C129.069 306.57 129.069 306.445 128.944 306.195C128.819 305.945 128.819 305.82 128.694 305.571C128.569 305.321 128.569 305.196 128.444 304.946C128.319 304.696 128.319 304.571 128.194 304.321C128.069 304.196 127.944 303.946 127.944 303.821C127.819 303.571 127.694 303.446 127.569 303.197C127.444 302.947 127.319 302.822 127.194 302.697C127.069 302.572 126.944 302.322 126.819 302.197C126.569 301.822 126.319 301.572 125.945 301.322C125.695 301.072 125.32 300.698 125.07 300.448C124.945 300.323 124.695 300.198 124.57 300.073C124.445 299.948 124.195 299.823 124.07 299.698C123.945 299.573 123.695 299.448 123.445 299.323C123.32 299.198 123.07 299.073 122.945 299.073C122.695 298.948 122.57 298.823 122.32 298.823C122.07 298.698 121.945 298.698 121.695 298.573C121.445 298.449 121.32 298.449 121.07 298.324C120.82 298.199 120.695 298.199 120.445 298.074C120.196 298.074 120.071 297.949 119.821 297.949C119.571 297.949 119.446 297.824 119.196 297.824C118.946 297.824 118.696 297.699 118.446 297.699C118.196 297.699 118.071 297.574 117.821 297.574C117.446 297.574 116.946 297.449 116.571 297.449C113.197 297.449 109.822 298.698 107.323 301.322L84.9512 323.688H103.448V342.18L125.82 319.814C128.444 317.315 129.819 314.067 129.819 310.693Z" fill="#6CCD00"/>
<path d="M42.4583 481.37H-8.90838C-16.1572 481.37 -22.0312 487.243 -22.0312 494.49C-22.0312 501.737 -16.1572 507.609 -8.90838 507.609H10.8384L33.2098 485.244C35.8344 482.62 39.0839 481.37 42.4583 481.37Z" fill="#C6ED07"/>
<path d="M1237.06 210.759H1213.82C1210.15 210.759 1206.64 212.214 1204.05 214.806C1201.46 217.397 1200 220.911 1200 224.576C1200 228.24 1201.46 231.755 1204.05 234.346C1206.64 236.937 1210.15 238.393 1213.82 238.393H1268.12C1266.22 238.38 1264.33 237.971 1262.59 237.191C1260.85 236.412 1259.29 235.28 1258.01 233.866L1237.06 210.759Z" fill="#14899B"/>
<path d="M1281.82 221.989V170.35C1281.82 166.685 1280.36 163.171 1277.77 160.579C1275.18 157.988 1271.67 156.532 1268 156.532C1264.34 156.532 1260.82 157.988 1258.23 160.579C1255.64 163.171 1254.19 166.685 1254.19 170.35V188.469L1278.48 215.246C1280.19 217.143 1281.35 219.476 1281.82 221.989Z" fill="#14899B"/>
<path d="M1547.07 -175.212C1548.39 -176.48 1549.44 -177.998 1550.17 -179.677C1550.9 -181.357 1551.29 -183.164 1551.32 -184.995C1551.34 -186.826 1551 -188.644 1550.32 -190.343C1549.63 -192.041 1548.62 -193.587 1547.33 -194.89C1546.05 -196.193 1544.51 -197.228 1542.82 -197.933C1541.13 -198.639 1539.32 -199.001 1537.49 -199C1535.66 -198.999 1533.85 -198.633 1532.16 -197.925C1530.47 -197.217 1528.94 -196.181 1527.65 -194.876L1215.04 113.695L1214.95 113.801C1205.4 123.421 1200.03 136.424 1200 149.982C1199.98 163.541 1205.31 176.56 1214.83 186.212L1237.06 210.759H1254.21V188.469L1235.12 167.42L1234.65 166.932C1230.21 162.472 1227.7 156.439 1227.68 150.143C1227.66 143.847 1230.12 137.796 1234.54 133.306L1547.07 -175.212Z" fill="#C6ED07"/>
<path d="M1237.06 210.759L1258.01 233.853C1259.87 235.892 1262.3 237.321 1264.99 237.951C1267.67 238.581 1270.49 238.383 1273.06 237.383C1275.63 236.383 1277.84 234.628 1279.39 232.349C1280.95 230.07 1281.78 227.374 1281.77 224.615V222.082C1281.3 219.569 1280.14 217.235 1278.43 215.338L1254.13 188.561V210.759H1237.06Z" fill="#0E6674"/>
<path d="M1120.01 154.924C1119.84 154.924 1119.68 154.891 1119.53 154.828C1119.38 154.764 1119.24 154.671 1119.12 154.554C1118.9 154.311 1118.78 153.993 1118.78 153.663C1118.78 153.334 1118.9 153.016 1119.12 152.773L1509.48 -237.567C1509.59 -237.697 1509.73 -237.802 1509.88 -237.877C1510.04 -237.951 1510.21 -237.993 1510.38 -237.999C1510.55 -238.005 1510.72 -237.976 1510.88 -237.913C1511.04 -237.85 1511.19 -237.755 1511.31 -237.633C1511.43 -237.511 1511.53 -237.365 1511.59 -237.205C1511.65 -237.045 1511.68 -236.873 1511.68 -236.701C1511.67 -236.529 1511.63 -236.36 1511.55 -236.205C1511.48 -236.049 1511.37 -235.911 1511.24 -235.798L1120.9 154.554C1120.79 154.673 1120.65 154.767 1120.49 154.83C1120.34 154.894 1120.17 154.926 1120.01 154.924Z" fill="white"/>
<path d="M1118.86 147.586L1109 164.676L1126.09 154.818L1118.86 147.586Z" fill="white"/>
<path d="M1204.45 -12.121L1194.57 4.96906L1211.68 -4.90224L1204.45 -12.121Z" fill="white"/>
<path d="M1501.53 -42.5798L1497.48 -46.6313C1493.01 -51.1094 1490.5 -57.1773 1490.5 -63.5035C1490.5 -69.8298 1493.01 -75.8977 1497.48 -80.3758C1499.94 -82.9916 1501.28 -86.4632 1501.23 -90.0548C1501.17 -93.6463 1499.72 -97.0755 1497.18 -99.6154C1494.64 -102.155 1491.21 -103.606 1487.62 -103.661C1484.03 -103.715 1480.56 -102.369 1477.94 -99.9073C1468.31 -90.2441 1462.89 -77.1524 1462.89 -63.5035C1462.89 -49.8547 1468.31 -36.763 1477.94 -27.0998L1482 -23.0615C1486.46 -18.5834 1488.97 -12.5155 1488.97 -6.18922C1488.97 0.137054 1486.46 6.20496 1482 10.6831L1359.01 133.665V153.197H1378.55L1501.53 30.2277C1511.16 20.5628 1516.57 7.47173 1516.57 -6.17603C1516.57 -19.8238 1511.16 -32.9148 1501.53 -42.5798Z" fill="#14899B"/>
<path d="M1345.2 180.845H1402.35C1406.02 180.845 1409.53 179.389 1412.12 176.798C1414.71 174.206 1416.17 170.692 1416.17 167.027C1416.17 163.363 1414.71 159.848 1412.12 157.257C1409.53 154.666 1406.02 153.21 1402.35 153.21H1378.6L1355.02 176.793C1353.73 178.087 1352.2 179.112 1350.51 179.807C1348.83 180.503 1347.02 180.855 1345.2 180.845Z" fill="#C42A56"/>
<path d="M1359.01 133.679V109.924C1359.07 108.075 1358.76 106.232 1358.09 104.507C1357.42 102.781 1356.41 101.208 1355.12 99.879C1353.84 98.5505 1352.29 97.4942 1350.59 96.7729C1348.89 96.0516 1347.05 95.6799 1345.2 95.6799C1343.35 95.6799 1341.52 96.0516 1339.82 96.7729C1338.11 97.4942 1336.57 98.5505 1335.28 99.879C1334 101.208 1332.99 102.781 1332.32 104.507C1331.65 106.232 1331.34 108.075 1331.39 109.924V166.974C1331.39 165.161 1331.74 163.365 1332.44 161.689C1333.13 160.013 1334.15 158.49 1335.43 157.209L1359.01 133.679Z" fill="#C42A56"/>
<path d="M1359.01 133.679L1335.43 157.262C1334.15 158.543 1333.13 160.066 1332.44 161.742C1331.74 163.417 1331.39 165.214 1331.39 167.027C1331.37 167.467 1331.37 167.908 1331.39 168.347C1331.39 168.558 1331.39 168.756 1331.47 168.967C1331.55 169.178 1331.47 169.456 1331.59 169.693C1331.71 169.931 1331.7 170.142 1331.76 170.379C1331.83 170.617 1331.85 170.802 1331.92 171C1331.99 171.198 1332.07 171.435 1332.14 171.66C1332.22 171.884 1332.29 172.082 1332.37 172.28L1332.65 172.874L1332.95 173.507L1333.28 174.061C1333.4 174.259 1333.52 174.47 1333.65 174.655C1333.78 174.84 1333.94 175.051 1334.08 175.249C1334.23 175.447 1334.32 175.592 1334.45 175.751C1334.74 176.104 1335.04 176.439 1335.36 176.754C1335.69 177.079 1336.03 177.387 1336.38 177.677L1336.87 178.047L1337.46 178.482C1337.66 178.614 1337.86 178.72 1338.07 178.839C1338.25 178.958 1338.43 179.068 1338.62 179.169C1338.82 179.283 1339.03 179.384 1339.24 179.472C1339.44 179.564 1339.64 179.67 1339.85 179.749C1340.05 179.836 1340.25 179.91 1340.46 179.974L1341.13 180.211C1341.33 180.277 1341.54 180.317 1341.75 180.369L1342.44 180.541L1343.16 180.647L1343.77 180.739C1344.22 180.739 1344.67 180.739 1345.09 180.739C1346.91 180.743 1348.7 180.387 1350.38 179.691C1352.06 178.996 1353.58 177.975 1354.86 176.688L1378.44 153.105H1358.91L1359.01 133.679Z" fill="#922D69"/>
</svg>
