<svg width="1440" height="665" viewBox="0 0 1440 665" fill="none" xmlns="http://www.w3.org/2000/svg">
<path d="M-59.9794 488.231C-180.479 523.731 -158.979 468.075 -369.479 438.075C-515.053 417.328 -591.917 649.5 -491.448 792C-390.979 934.5 -473.48 1064.42 -473.48 1064.42H-287.979H1908C1884.66 1055.52 1940.94 680.044 1831.5 618C1769.85 583.051 1686 807 1524.5 749C1363 691 1472.61 437.189 1116.02 574.731C906.02 655.731 1084.02 490.731 977.02 440.231C870.02 389.731 790.577 460.863 706.52 505.387C622.464 549.911 480.52 590.887 414.02 505.387C373.119 452.8 533.02 355.731 377.02 325.231C213.02 293.167 60.5206 452.731 -59.9794 488.231Z" fill="#7BCFBF"/>
<path d="M1425.66 540.515C1425.76 540.736 1425.84 540.962 1425.91 541.192C1425.84 540.962 1425.76 540.736 1425.66 540.515Z" fill="#C42A56"/>
<path d="M1425.01 539.131C1425.14 539.354 1425.25 539.585 1425.35 539.822C1425.25 539.585 1425.14 539.354 1425.01 539.131Z" fill="#C42A56"/>
<path d="M1416.63 531.899L1417.32 532.149L1416.63 531.899Z" fill="#C42A56"/>
<path d="M1424.25 537.835C1424.4 538.055 1424.51 538.276 1424.66 538.511C1424.51 538.276 1424.4 538.055 1424.25 537.835Z" fill="#C42A56"/>
<path d="M1419.31 533.151L1419.99 533.563L1419.31 533.151Z" fill="#C42A56"/>
<path d="M1420.65 534.064L1421.2 534.476L1420.65 534.064Z" fill="#C42A56"/>
<path d="M1418.03 532.459L1418.74 532.797L1418.03 532.459Z" fill="#C42A56"/>
<path d="M1426.18 541.988C1426.25 542.223 1426.3 542.459 1426.35 542.679C1426.3 542.385 1426.25 542.15 1426.18 541.988Z" fill="#C42A56"/>
<path d="M1423.35 536.627C1423.5 536.803 1423.63 536.995 1423.76 537.171C1423.63 536.995 1423.5 536.803 1423.35 536.627Z" fill="#C42A56"/>
<path d="M1374.2 561.812L1288.87 647.145C1284.52 651.474 1278.81 654.174 1272.7 654.791C1266.6 655.408 1260.46 653.904 1255.33 650.533L1179.25 600.178C1168.2 592.86 1154.96 589.586 1141.78 590.912C1128.59 592.238 1116.27 598.082 1106.91 607.454L969.479 744.895C967.976 746.309 966.772 748.012 965.939 749.9C965.106 751.789 964.66 753.826 964.629 755.89C964.597 757.954 964.981 760.004 965.756 761.917C966.532 763.83 967.684 765.568 969.143 767.028C970.603 768.488 972.341 769.639 974.254 770.415C976.167 771.19 978.217 771.574 980.281 771.542C982.345 771.511 984.382 771.066 986.271 770.232C988.16 769.399 989.862 768.195 991.277 766.692L1128.72 629.266C1133.07 624.944 1138.78 622.255 1144.89 621.648C1150.99 621.042 1157.12 622.557 1162.24 625.937L1238.35 676.233C1249.4 683.551 1262.64 686.825 1275.82 685.499C1289.01 684.173 1301.33 678.329 1310.7 668.957L1396.04 583.609V561.812H1374.2Z" fill="#C42A56"/>
<path d="M1413.61 531.148C1413.89 531.148 1414.17 531.222 1414.44 531.281L1413.61 531.148Z" fill="#C42A56"/>
<path d="M1412.95 531.045C1412.44 531.045 1411.94 530.971 1411.48 530.971C1411.94 530.971 1412.45 531.001 1412.95 531.045Z" fill="#C42A56"/>
<path d="M1426.54 543.372C1426.54 543.652 1426.63 543.917 1426.66 544.196C1426.63 543.917 1426.59 543.652 1426.54 543.372Z" fill="#C42A56"/>
<path d="M1415.21 531.457L1415.9 531.634L1415.21 531.457Z" fill="#C42A56"/>
<path d="M1426.77 544.933C1426.77 545.434 1426.84 545.935 1426.84 546.406C1426.87 545.891 1426.87 545.375 1426.77 544.933Z" fill="#C42A56"/>
<path d="M1412.95 531.045L1413.61 531.148L1412.95 531.045Z" fill="#C6ED07"/>
<path d="M1419.99 533.578C1420.22 533.725 1420.44 533.887 1420.65 534.064C1420.44 533.887 1420.22 533.725 1419.99 533.578Z" fill="#C6ED07"/>
<path d="M1415.9 531.678C1416.15 531.678 1416.38 531.855 1416.63 531.943L1415.9 531.678Z" fill="#C6ED07"/>
<path d="M1414.44 531.281L1415.2 531.457L1414.44 531.281Z" fill="#C6ED07"/>
<path d="M1418.7 532.798L1419.31 533.165L1418.7 532.798Z" fill="#C6ED07"/>
<path d="M1417.33 532.15L1417.99 532.459L1417.33 532.15Z" fill="#C6ED07"/>
<path d="M1426.66 544.197C1426.66 544.418 1426.74 544.638 1426.77 544.874C1426.74 544.638 1426.69 544.418 1426.66 544.197Z" fill="#C6ED07"/>
<path d="M1426.35 542.607C1426.35 542.871 1426.49 543.121 1426.54 543.371C1426.49 543.121 1426.41 542.871 1426.35 542.607Z" fill="#C6ED07"/>
<path d="M1425.91 541.178C1426 541.428 1426.1 541.663 1426.18 541.913C1426.1 541.663 1426 541.428 1425.91 541.178Z" fill="#C6ED07"/>
<path d="M1422.32 557.29L1396.01 583.609V606.791C1396.01 610.882 1397.64 614.806 1400.53 617.7C1403.43 620.593 1407.35 622.218 1411.44 622.218C1415.53 622.218 1419.46 620.593 1422.35 617.7C1425.24 614.806 1426.87 610.882 1426.87 606.791V546.406C1426.87 548.431 1426.46 550.436 1425.68 552.304C1424.9 554.172 1423.76 555.867 1422.32 557.29Z" fill="#C6ED07"/>
<path d="M1422.35 535.508C1422.7 535.861 1423.03 536.244 1423.35 536.627C1423.03 536.237 1422.7 535.863 1422.35 535.508Z" fill="#C6ED07"/>
<path d="M1425.4 539.823C1425.5 540.044 1425.62 540.264 1425.71 540.5C1425.57 540.264 1425.4 540.044 1425.4 539.823Z" fill="#C6ED07"/>
<path d="M1423.76 537.172C1423.92 537.392 1424.1 537.613 1424.25 537.834C1424.09 537.569 1423.92 537.392 1423.76 537.172Z" fill="#C6ED07"/>
<path d="M1421.2 534.477C1421.58 534.791 1421.95 535.125 1422.3 535.478C1421.95 535.125 1421.58 534.791 1421.2 534.477Z" fill="#C6ED07"/>
<path d="M1424.66 538.512C1424.78 538.718 1424.91 538.909 1425.01 539.13C1424.91 538.909 1424.78 538.718 1424.66 538.512Z" fill="#C6ED07"/>
<path d="M1426.87 546.406C1426.87 545.891 1426.87 545.39 1426.8 544.933C1426.8 544.698 1426.72 544.477 1426.69 544.256C1426.66 544.035 1426.62 543.711 1426.58 543.431C1426.53 543.151 1426.44 542.93 1426.38 542.665C1426.33 542.4 1426.28 542.209 1426.21 541.973C1426.13 541.737 1426.03 541.487 1425.94 541.237C1425.87 541.006 1425.79 540.78 1425.69 540.559C1425.6 540.324 1425.49 540.103 1425.38 539.882C1425.28 539.644 1425.17 539.413 1425.04 539.19C1424.94 538.969 1424.81 538.777 1424.69 538.571C1424.57 538.365 1424.43 538.114 1424.28 537.893C1424.13 537.673 1423.95 537.452 1423.79 537.231C1423.63 537.01 1423.53 536.863 1423.38 536.686C1423.23 536.509 1422.73 535.92 1422.38 535.566C1422.03 535.213 1421.66 534.879 1421.27 534.565L1420.73 534.153C1420.51 533.976 1420.29 533.814 1420.07 533.667L1419.39 533.254L1418.77 532.886L1418.06 532.547L1417.4 532.238L1416.71 531.988C1416.46 531.899 1416.22 531.796 1415.97 531.722L1415.28 531.546L1414.51 531.369C1414.25 531.369 1413.97 531.281 1413.69 531.236L1413.03 531.133C1412.53 531.133 1412.01 531.06 1411.55 531.06C1409.53 531.059 1407.52 531.457 1405.65 532.233C1403.78 533.009 1402.08 534.147 1400.65 535.581L1374.34 561.9H1396.15V583.697L1422.45 557.379C1423.88 555.934 1425 554.22 1425.76 552.336C1426.52 550.452 1426.9 548.437 1426.87 546.406Z" fill="#C42A56"/>
<path d="M1426.87 546.406C1426.87 545.891 1426.87 545.39 1426.8 544.933C1426.8 544.698 1426.72 544.477 1426.69 544.256C1426.66 544.035 1426.62 543.711 1426.58 543.431C1426.53 543.151 1426.44 542.93 1426.38 542.665C1426.33 542.4 1426.28 542.209 1426.21 541.973C1426.13 541.737 1426.03 541.487 1425.94 541.237C1425.87 541.006 1425.79 540.78 1425.69 540.559C1425.6 540.324 1425.49 540.103 1425.38 539.882C1425.28 539.644 1425.17 539.413 1425.04 539.19C1424.94 538.969 1424.81 538.777 1424.69 538.571C1424.57 538.365 1424.43 538.114 1424.28 537.893C1424.13 537.673 1423.95 537.452 1423.79 537.231C1423.63 537.01 1423.53 536.863 1423.38 536.686C1423.23 536.509 1422.73 535.92 1422.38 535.566C1422.03 535.213 1421.66 534.879 1421.27 534.565L1420.73 534.153C1420.51 533.976 1420.29 533.814 1420.07 533.667L1419.39 533.254L1418.77 532.886L1418.06 532.547L1417.4 532.238L1416.71 531.988C1416.46 531.899 1416.22 531.796 1415.97 531.722L1415.28 531.546L1414.51 531.369C1414.25 531.369 1413.97 531.281 1413.69 531.236L1413.03 531.133C1412.53 531.133 1412.01 531.06 1411.55 531.06C1409.53 531.059 1407.52 531.457 1405.65 532.233C1403.78 533.009 1402.08 534.147 1400.65 535.581L1374.34 561.9H1396.15V583.697L1422.45 557.379C1423.88 555.934 1425 554.22 1425.76 552.336C1426.52 550.452 1426.9 548.437 1426.87 546.406Z" fill="#E24F10"/>
<path d="M1304.33 382.234C1304.21 382.234 1304.09 382.209 1303.97 382.161C1303.86 382.113 1303.76 382.043 1303.67 381.954C1303.5 381.776 1303.4 381.538 1303.4 381.291C1303.4 381.044 1303.5 380.807 1303.67 380.629L1684.03 0.279744C1684.12 0.191572 1684.22 0.121524 1684.34 0.0737032C1684.45 0.0258828 1684.57 0.00125122 1684.7 0.00125122C1684.82 0.00125122 1684.94 0.0258828 1685.06 0.0737032C1685.17 0.121524 1685.27 0.191572 1685.36 0.279744C1685.45 0.364864 1685.52 0.466734 1685.57 0.579314C1685.61 0.691895 1685.64 0.812894 1685.64 0.935137C1685.64 1.05738 1685.61 1.17838 1685.57 1.29096C1685.52 1.40354 1685.45 1.50541 1685.36 1.59053L1305 381.954C1304.91 382.044 1304.81 382.115 1304.69 382.163C1304.58 382.211 1304.46 382.235 1304.33 382.234Z" fill="white"/>
<path d="M1303.48 376.77L1296.14 389.495L1308.85 382.146L1303.48 376.77Z" fill="white"/>
<path d="M1490.42 89.428H1430.04C1427.97 89.3641 1425.92 89.7156 1423.99 90.4614C1422.06 91.2073 1420.31 92.3323 1418.82 93.7699C1417.34 95.2074 1416.16 96.9281 1415.36 98.8298C1414.55 100.732 1414.14 102.776 1414.14 104.841C1414.14 106.906 1414.55 108.95 1415.36 110.852C1416.16 112.753 1417.34 114.474 1418.82 115.912C1420.31 117.349 1422.06 118.474 1423.99 119.22C1425.92 119.966 1427.97 120.317 1430.04 120.254H1453.28L1479.59 93.9347C1482.47 91.0602 1486.36 89.4398 1490.42 89.428Z" fill="#019002"/>
<path d="M1453.2 120.254L1315.95 257.503C1310.61 262.838 1306.38 269.172 1303.49 276.144C1300.6 283.117 1299.11 290.59 1299.11 298.138C1299.11 305.685 1300.6 313.159 1303.49 320.131C1306.38 327.103 1310.61 333.438 1315.95 338.772L1320.47 343.293C1322.95 345.765 1324.91 348.7 1326.25 351.931C1327.59 355.162 1328.28 358.626 1328.28 362.123C1328.28 365.621 1327.59 369.084 1326.25 372.315C1324.91 375.546 1322.95 378.481 1320.47 380.953L1215.23 486.199C1210.42 490.996 1203.97 493.779 1197.18 493.979C1190.39 494.179 1183.78 491.78 1178.7 487.274L1133.59 447.17C1122.64 437.427 1108.38 432.239 1093.73 432.669C1079.08 433.099 1065.14 439.114 1054.78 449.482L1009.13 495.138C1012.26 492.971 1016.09 492.043 1019.87 492.534C1023.65 493.024 1027.11 494.899 1029.59 497.794C1032.07 500.69 1033.39 504.402 1033.29 508.212C1033.19 512.022 1031.68 515.66 1029.05 518.423L1004.02 543.858L1076.58 471.294C1081.39 466.496 1087.84 463.713 1094.63 463.514C1101.42 463.314 1108.03 465.712 1113.11 470.219L1158.22 510.323C1169.18 520.046 1183.43 525.22 1198.08 524.791C1212.73 524.361 1226.65 518.359 1237.03 508.011L1342.27 402.765C1347.61 397.43 1351.85 391.096 1354.74 384.124C1357.63 377.151 1359.11 369.678 1359.11 362.13C1359.11 354.583 1357.63 347.109 1354.74 340.137C1351.85 333.165 1347.61 326.83 1342.27 321.496L1337.75 316.975C1332.76 311.979 1329.96 305.206 1329.96 298.145C1329.96 291.084 1332.76 284.311 1337.75 279.315L1475 142.08V120.254H1453.2Z" fill="#6CCD00"/>
<path d="M980.612 523.666L980.406 523.887L982.056 522.223L980.612 523.666Z" fill="#6CCD18"/>
<path d="M1007.12 496.832L982.086 522.223L1009.23 495.079C1008.47 495.596 1007.77 496.183 1007.12 496.832Z" fill="#C6ED07"/>
<path d="M991.497 549.985C988.476 549.981 985.523 549.09 983.004 547.422C980.485 545.754 978.511 543.382 977.328 540.603C976.146 537.823 975.805 534.756 976.35 531.785C976.895 528.813 978.3 526.067 980.392 523.887L781.315 725.66C779.823 727.085 778.632 728.796 777.813 730.689C776.994 732.583 776.564 734.622 776.547 736.686C776.531 738.749 776.928 740.795 777.717 742.702C778.505 744.608 779.668 746.338 781.137 747.787C782.606 749.236 784.351 750.375 786.268 751.138C788.185 751.901 790.236 752.271 792.299 752.226C794.362 752.182 796.395 751.724 798.278 750.879C800.161 750.035 801.855 748.821 803.26 747.31L1003.94 544.064L1002.4 545.611C1000.96 547.021 999.253 548.133 997.383 548.884C995.512 549.635 993.512 550.009 991.497 549.985Z" fill="#C6ED07"/>
<path d="M1028.91 496.685C1026.33 494.144 1022.94 492.591 1019.34 492.298C1015.73 492.004 1012.14 492.989 1009.19 495.079L982.086 522.223L980.436 523.887C977.575 526.805 975.99 530.74 976.03 534.827C976.07 538.913 977.732 542.816 980.65 545.677C983.568 548.539 987.502 550.123 991.589 550.083C995.675 550.043 999.578 548.382 1002.44 545.464L1003.99 543.917L1029.02 518.482C1030.45 517.044 1031.57 515.339 1032.34 513.464C1033.11 511.59 1033.49 509.583 1033.48 507.559C1033.47 505.535 1033.06 503.532 1032.28 501.667C1031.49 499.801 1030.35 498.108 1028.91 496.685Z" fill="#C6ED07"/>
<path d="M1028.91 496.685C1026.33 494.144 1022.94 492.591 1019.34 492.298C1015.73 492.004 1012.14 492.989 1009.19 495.079L982.086 522.223L980.436 523.887C977.575 526.805 975.99 530.74 976.03 534.827C976.07 538.913 977.732 542.816 980.65 545.677C983.568 548.539 987.502 550.123 991.589 550.083C995.675 550.043 999.578 548.382 1002.44 545.464L1003.99 543.917L1029.02 518.482C1030.45 517.044 1031.57 515.339 1032.34 513.464C1033.11 511.59 1033.49 509.583 1033.48 507.559C1033.47 505.535 1033.06 503.532 1032.28 501.667C1031.49 499.801 1030.35 498.108 1028.91 496.685Z" fill="#41B100"/>
<path d="M1698.26 313.293L1521.13 490.44C1517.74 493.827 1515.11 497.888 1513.39 502.361C1511.68 506.833 1510.93 511.616 1511.19 516.398C1511.45 521.18 1512.71 525.854 1514.89 530.116C1517.08 534.378 1520.14 538.132 1523.87 541.134L1536.68 551.443C1537.04 551.729 1537.34 552.089 1537.55 552.497C1537.76 552.906 1537.88 553.355 1537.91 553.814C1537.93 554.273 1537.86 554.732 1537.69 555.161C1537.53 555.591 1537.27 555.98 1536.95 556.303L1332.88 760.359C1331.37 761.774 1330.17 763.476 1329.34 765.365C1328.5 767.253 1328.06 769.29 1328.03 771.354C1327.99 773.419 1328.38 775.468 1329.15 777.381C1329.93 779.294 1331.08 781.032 1332.54 782.492C1334 783.952 1335.74 785.104 1337.65 785.879C1339.56 786.655 1341.61 787.038 1343.68 787.007C1345.74 786.975 1347.78 786.53 1349.67 785.697C1351.56 784.864 1353.26 783.66 1354.67 782.156L1558.7 578.145C1562.08 574.756 1564.71 570.693 1566.42 566.221C1568.13 561.748 1568.88 556.965 1568.62 552.184C1568.36 547.403 1567.1 542.73 1564.92 538.469C1562.73 534.207 1559.68 530.454 1555.94 527.451L1543.13 517.142C1542.77 516.853 1542.48 516.493 1542.27 516.084C1542.07 515.674 1541.95 515.226 1541.92 514.768C1541.9 514.309 1541.97 513.851 1542.14 513.422C1542.3 512.994 1542.56 512.605 1542.88 512.282L1720.06 335.09V313.293H1698.26Z" fill="#C6ED07"/>
<path d="M1228.73 294.559L1205.35 268.785C1203.28 266.501 1200.56 264.9 1197.56 264.192C1194.56 263.484 1191.42 263.703 1188.55 264.821C1185.67 265.938 1183.21 267.9 1181.47 270.449C1179.74 272.997 1178.82 276.012 1178.84 279.094V281.907C1179.34 284.721 1180.64 287.335 1182.56 289.448L1209.66 319.331V294.559H1228.73Z" fill="#C42A56"/>
<path d="M1228.74 294.559H1254.67C1256.74 294.622 1258.79 294.271 1260.72 293.525C1262.64 292.779 1264.4 291.654 1265.88 290.217C1267.36 288.779 1268.54 287.058 1269.35 285.157C1270.15 283.255 1270.57 281.211 1270.57 279.146C1270.57 277.081 1270.15 275.037 1269.35 273.135C1268.54 271.233 1267.36 269.512 1265.88 268.075C1264.4 266.637 1262.64 265.512 1260.72 264.766C1258.79 264.021 1256.74 263.669 1254.67 263.733H1193.86C1196.02 263.717 1198.16 264.157 1200.14 265.025C1202.12 265.893 1203.89 267.169 1205.35 268.77L1228.74 294.559Z" fill="#C42A56"/>
<path d="M1178.79 281.937V339.582C1178.73 341.646 1179.08 343.702 1179.83 345.628C1180.57 347.553 1181.7 349.31 1183.13 350.792C1184.57 352.275 1186.29 353.454 1188.19 354.259C1190.1 355.064 1192.14 355.479 1194.21 355.479C1196.27 355.479 1198.31 355.064 1200.22 354.259C1202.12 353.454 1203.84 352.275 1205.28 350.792C1206.71 349.31 1207.84 347.553 1208.58 345.628C1209.33 343.702 1209.68 341.646 1209.62 339.582V319.36L1182.52 289.477C1180.59 287.364 1179.3 284.751 1178.79 281.937Z" fill="#C42A56"/>
<path d="M1193.86 263.718C1191.6 263.725 1189.38 264.228 1187.34 265.192C1185.3 266.156 1183.49 267.556 1182.05 269.295C1180.62 271.034 1179.58 273.068 1179.01 275.253C1178.45 277.437 1178.38 279.719 1178.79 281.937V279.124C1178.8 275.097 1180.37 271.231 1183.19 268.353C1186 265.474 1189.83 263.811 1193.86 263.718Z" fill="#14899B"/>
<path d="M1228.73 294.559H1209.59V319.39L1230.99 342.852L1231.5 343.382C1236.46 348.363 1239.26 355.099 1239.28 362.128C1239.3 369.157 1236.55 375.911 1231.62 380.923L882.761 725.233C879.919 728.12 878.327 732.01 878.33 736.062C878.333 740.113 879.93 744.001 882.777 746.884C885.623 749.767 889.49 751.414 893.541 751.469C897.592 751.524 901.502 749.982 904.426 747.177L1253.3 402.809C1253.34 402.766 1253.38 402.727 1253.42 402.691C1264.08 391.952 1270.08 377.437 1270.1 362.302C1270.12 347.167 1264.17 332.635 1253.54 321.864L1228.73 294.559Z" fill="#14899B"/>
<path d="M1228.73 294.559L1205.35 268.785C1203.28 266.501 1200.56 264.9 1197.56 264.192C1194.56 263.484 1191.42 263.703 1188.55 264.821C1185.67 265.938 1183.21 267.9 1181.47 270.449C1179.74 272.997 1178.82 276.012 1178.84 279.094V281.907C1179.34 284.721 1180.64 287.335 1182.56 289.448L1209.66 319.331V294.559H1228.73Z" fill="#922D69"/>
<path d="M1499.58 723.819C1496.53 723.817 1493.55 722.912 1491.02 721.217C1488.49 719.523 1486.51 717.115 1485.34 714.299C1484.18 711.482 1483.87 708.383 1484.47 705.393C1485.06 702.403 1486.53 699.657 1488.68 697.5L1485.55 700.623C1481.2 704.953 1475.49 707.653 1469.39 708.27C1463.28 708.887 1457.15 707.383 1452.03 704.01L1451.91 703.995L1394.72 667.013C1383.67 659.725 1370.44 656.478 1357.27 657.82C1344.1 659.161 1331.8 665.01 1322.45 674.377L1185.02 811.804C1182.2 814.709 1180.64 818.607 1180.67 822.655C1180.7 826.702 1182.32 830.576 1185.18 833.439C1188.05 836.302 1191.92 837.926 1195.97 837.959C1200.01 837.992 1203.91 836.432 1206.82 833.616L1344.25 696.175C1348.6 691.851 1354.31 689.155 1360.42 688.541C1366.52 687.927 1372.65 689.431 1377.78 692.802L1377.91 692.89L1435.1 729.872C1446.15 737.16 1459.38 740.408 1472.55 739.066C1485.72 737.724 1498.02 731.875 1507.37 722.508L1528.17 701.712L1510.5 719.386C1509.06 720.809 1507.35 721.933 1505.48 722.694C1503.61 723.454 1501.6 723.837 1499.58 723.819Z" fill="#14899B"/>
<path d="M1101.12 807.798C1100.87 807.791 1100.63 807.691 1100.45 807.518C1100.28 807.339 1100.19 807.102 1100.19 806.855C1100.19 806.608 1100.28 806.37 1100.45 806.192L1426.38 480.278C1426.47 480.19 1426.57 480.12 1426.69 480.072C1426.8 480.024 1426.92 479.999 1427.05 479.999C1427.17 479.999 1427.29 480.024 1427.41 480.072C1427.52 480.12 1427.62 480.19 1427.71 480.278C1427.88 480.456 1427.98 480.694 1427.98 480.941C1427.98 481.188 1427.88 481.425 1427.71 481.603L1101.78 807.518C1101.6 807.695 1101.37 807.796 1101.12 807.798Z" fill="white"/>
<path d="M1427.9 485.462L1435.23 472.737L1422.52 480.086L1427.9 485.462Z" fill="white"/>
<path d="M690.472 755.248C690.288 755.25 690.106 755.214 689.936 755.144C689.766 755.073 689.613 754.968 689.485 754.836C689.241 754.565 689.105 754.214 689.105 753.849C689.105 753.485 689.241 753.133 689.485 752.862L942.805 499.542C942.91 499.334 943.062 499.155 943.25 499.017C943.438 498.88 943.655 498.789 943.884 498.752C944.114 498.715 944.349 498.732 944.57 498.803C944.791 498.874 944.993 498.997 945.158 499.16C945.323 499.324 945.446 499.525 945.519 499.745C945.592 499.966 945.611 500.201 945.576 500.431C945.54 500.66 945.451 500.878 945.315 501.067C945.179 501.255 945 501.409 944.794 501.515L691.473 754.836C691.344 754.971 691.188 755.077 691.016 755.148C690.843 755.219 690.658 755.253 690.472 755.248Z" fill="white"/>
<path d="M944.957 507.348L955.973 488.29L936.9 499.292L944.957 507.348Z" fill="white"/>
<path d="M894.926 789.137C894.62 789.139 894.317 789.08 894.034 788.964C893.75 788.848 893.493 788.676 893.277 788.46C893.059 788.242 892.886 787.984 892.768 787.7C892.651 787.415 892.59 787.111 892.59 786.803C892.59 786.495 892.651 786.19 892.768 785.906C892.886 785.622 893.059 785.363 893.277 785.146L1125.02 553.402C1125.46 552.963 1126.06 552.716 1126.68 552.716C1127.3 552.716 1127.9 552.963 1128.33 553.402C1128.77 553.841 1129.02 554.437 1129.02 555.059C1129.02 555.68 1128.77 556.276 1128.33 556.716L896.576 788.46C896.359 788.676 896.102 788.848 895.819 788.964C895.536 789.08 895.232 789.139 894.926 789.137Z" fill="white"/>
<path d="M1128.8 566.348L1147.17 534.565L1115.37 552.916L1128.8 566.348Z" fill="white"/>
<path d="M1461.67 345.149L1272.64 534.182L1292.61 514.211C1294.02 512.708 1295.73 511.504 1297.62 510.67C1299.5 509.837 1301.54 509.392 1303.61 509.36C1305.67 509.329 1307.72 509.713 1309.63 510.488C1311.55 511.264 1313.28 512.415 1314.74 513.875C1316.2 515.335 1317.35 517.073 1318.13 518.986C1318.91 520.899 1319.29 522.949 1319.26 525.013C1319.23 527.077 1318.78 529.114 1317.95 531.003C1317.11 532.891 1315.91 534.594 1314.41 536.008L1483.48 366.946V345.149H1461.67Z" fill="#015A00"/>
<path d="M1283.54 560.501C1280.49 560.499 1277.51 559.593 1274.98 557.899C1272.44 556.204 1270.47 553.797 1269.3 550.98C1268.13 548.164 1267.83 545.065 1268.42 542.075C1269.02 539.085 1270.48 536.339 1272.64 534.182L1063.24 743.584C1061.73 744.999 1060.53 746.701 1059.7 748.59C1058.86 750.478 1058.42 752.515 1058.39 754.579C1058.36 756.643 1058.74 758.693 1059.51 760.606C1060.29 762.519 1061.44 764.257 1062.9 765.717C1064.36 767.177 1066.1 768.328 1068.01 769.104C1069.93 769.879 1071.97 770.263 1074.04 770.232C1076.1 770.2 1078.14 769.755 1080.03 768.922C1081.92 768.088 1083.62 766.884 1085.03 765.381L1314.41 536.008L1294.44 555.979C1293.01 557.416 1291.31 558.556 1289.44 559.332C1287.57 560.108 1285.56 560.505 1283.54 560.501Z" fill="#6CCD00"/>
<path d="M1314.41 514.211C1312.98 512.779 1311.28 511.643 1309.41 510.868C1307.54 510.092 1305.53 509.693 1303.51 509.693C1301.48 509.693 1299.48 510.092 1297.61 510.868C1295.74 511.643 1294.04 512.779 1292.61 514.211L1272.64 534.182C1271.13 535.597 1269.93 537.299 1269.1 539.188C1268.26 541.077 1267.82 543.113 1267.79 545.178C1267.76 547.242 1268.14 549.291 1268.91 551.204C1269.69 553.117 1270.84 554.855 1272.3 556.315C1273.76 557.775 1275.5 558.927 1277.41 559.702C1279.33 560.478 1281.38 560.861 1283.44 560.83C1285.5 560.799 1287.54 560.353 1289.43 559.52C1291.32 558.687 1293.02 557.483 1294.43 555.979L1314.41 536.008C1315.84 534.578 1316.97 532.879 1317.75 531.009C1318.52 529.138 1318.92 527.134 1318.92 525.11C1318.92 523.085 1318.52 521.081 1317.75 519.211C1316.97 517.341 1315.84 515.642 1314.41 514.211Z" fill="#015A00"/>
<path d="M1314.41 514.211C1312.98 512.779 1311.28 511.643 1309.41 510.868C1307.54 510.092 1305.53 509.693 1303.51 509.693C1301.48 509.693 1299.48 510.092 1297.61 510.868C1295.74 511.643 1294.04 512.779 1292.61 514.211L1272.64 534.182C1271.13 535.597 1269.93 537.299 1269.1 539.188C1268.26 541.077 1267.82 543.113 1267.79 545.178C1267.76 547.242 1268.14 549.291 1268.91 551.204C1269.69 553.117 1270.84 554.855 1272.3 556.315C1273.76 557.775 1275.5 558.927 1277.41 559.702C1279.33 560.478 1281.38 560.861 1283.44 560.83C1285.5 560.799 1287.54 560.353 1289.43 559.52C1291.32 558.687 1293.02 557.483 1294.43 555.979L1314.41 536.008C1315.84 534.578 1316.97 532.879 1317.75 531.009C1318.52 529.138 1318.92 527.134 1318.92 525.11C1318.92 523.085 1318.52 521.081 1317.75 519.211C1316.97 517.341 1315.84 515.642 1314.41 514.211Z" fill="#009000"/>
<path d="M1498.89 314.309H1410.04C1405.95 314.309 1402.02 315.933 1399.13 318.825C1396.24 321.717 1394.62 325.639 1394.62 329.729C1394.62 333.819 1396.24 337.741 1399.13 340.633C1402.02 343.525 1405.95 345.149 1410.04 345.149H1461.67L1487.99 318.83C1489.42 317.395 1491.12 316.256 1492.99 315.48C1494.86 314.704 1496.86 314.306 1498.89 314.309Z" fill="#C6ED07"/>
<path d="M1411.42 530.971H1350.96C1346.87 530.971 1342.95 532.596 1340.06 535.488C1337.17 538.38 1335.54 542.302 1335.54 546.392C1335.54 550.481 1337.17 554.403 1340.06 557.295C1342.95 560.187 1346.87 561.812 1350.96 561.812H1374.2L1400.52 535.493C1401.95 534.059 1403.65 532.921 1405.52 532.145C1407.39 531.369 1409.39 530.97 1411.42 530.971Z" fill="#C6ED07"/>
</svg>
