<svg width="1920" height="742" viewBox="0 0 1920 742" fill="none" xmlns="http://www.w3.org/2000/svg">
<path d="M336.021 137.886C215.521 173.386 237.021 117.73 26.5204 87.7305C-120.214 66.8182 -161.072 386 -95.0259 507C-28.9795 628 -77.4798 742.422 -77.4798 742.422H108.02H2235.5C2210.32 732.819 2497.5 365.5 2308 261C2118.5 156.5 2090 422 1943 386C1796 350 1869.14 117.505 1528.52 248.886C1318.52 329.886 1502.02 160.386 1395.02 109.886C1288.02 59.3862 1186.58 139.862 1102.52 184.386C1018.46 228.91 876.52 269.887 810.02 184.386C769.119 131.799 929.52 35.3861 773.52 4.88614C617.52 -25.6139 456.521 102.386 336.021 137.886Z" fill="#53B3A1"/>
<path d="M336.021 167.231C215.521 202.731 237.021 147.075 26.5206 117.075C-119.053 96.3282 -195.917 328.5 -95.4482 471C5.02057 613.5 -77.4797 743.423 -77.4797 743.423H108.021H2304C2280.66 734.524 2336.94 359.044 2227.5 297C2165.85 262.051 2082 486 1920.5 428C1759 370 1868.61 116.189 1512.02 253.731C1302.02 334.731 1480.02 169.731 1373.02 119.231C1266.02 68.7309 1186.58 139.863 1102.52 184.387C1018.46 228.911 876.52 269.887 810.02 184.387C769.119 131.8 929.02 34.7308 773.02 4.23092C609.02 -27.833 456.521 131.731 336.021 167.231Z" fill="#7BCFBF"/>
<path d="M297.838 446.609L225.475 518.954C217.851 526.575 205.978 527.7 196.98 521.827L132.365 479.096C122.992 472.848 111.743 470.099 100.62 471.224C89.497 472.348 78.9987 477.346 71 485.218L-45.6061 601.793C-50.7303 606.916 -50.7303 615.162 -45.6061 620.285C-43.1065 622.784 -39.732 624.159 -36.3576 624.159C-32.9831 624.159 -29.6087 622.909 -27.1091 620.285L89.497 503.71C97.1208 496.088 108.994 494.964 117.992 500.836L182.607 543.568C190.606 548.816 199.979 551.69 209.603 551.69C211.227 551.69 212.852 551.565 214.477 551.44C225.6 550.315 236.098 545.317 244.097 537.446L316.46 465.101V446.609H297.838Z" fill="#C42A56"/>
<path d="M338.706 442.736L316.335 465.101V484.718C316.335 491.965 322.209 497.837 329.458 497.837C336.707 497.837 342.581 491.965 342.581 484.718V433.49C342.581 436.863 341.331 440.112 338.706 442.736Z" fill="#C6ED07"/>
<path d="M340.706 426.743C340.831 426.868 340.956 427.117 340.956 427.242C340.956 427.117 340.831 426.993 340.706 426.743Z" fill="#C6ED07"/>
<path d="M342.581 433.49C342.581 433.115 342.581 432.615 342.456 432.24C342.456 431.99 342.456 431.866 342.331 431.616C342.331 431.366 342.331 431.116 342.206 430.866C342.206 430.616 342.081 430.491 342.081 430.241C342.081 429.991 341.956 429.866 341.956 429.616C341.831 429.367 341.831 429.242 341.706 428.992C341.581 428.742 341.581 428.617 341.456 428.367C341.331 428.117 341.331 427.992 341.206 427.742C341.081 427.492 341.081 427.367 340.956 427.118C340.831 426.993 340.706 426.743 340.706 426.618C340.581 426.368 340.456 426.243 340.331 425.993C340.206 425.743 340.081 425.618 339.956 425.493C339.831 425.368 339.706 425.118 339.581 424.993C339.331 424.619 339.081 424.369 338.706 423.994C338.456 423.744 338.081 423.369 337.706 423.119C337.581 422.994 337.456 422.869 337.207 422.744C337.082 422.619 336.832 422.495 336.707 422.37C336.582 422.245 336.332 422.12 336.082 421.995C335.957 421.87 335.707 421.745 335.582 421.62C335.332 421.495 335.207 421.37 334.957 421.37C334.707 421.245 334.582 421.245 334.332 421.12C334.082 420.995 333.957 420.995 333.707 420.87C333.457 420.745 333.332 420.745 333.082 420.62C332.832 420.62 332.707 420.495 332.457 420.495C332.207 420.495 332.082 420.37 331.832 420.37C331.582 420.37 331.332 420.245 331.082 420.245C330.833 420.245 330.708 420.121 330.458 420.121C330.083 420.121 329.583 419.996 329.208 419.996C325.833 419.996 322.459 421.245 319.959 423.869L297.588 446.234H316.335V464.726L338.706 442.361C341.331 440.112 342.581 436.863 342.581 433.49Z" fill="#AB1B44"/>
<path d="M238.598 294.174C238.348 294.174 238.223 294.049 238.098 293.924C237.848 293.674 237.848 293.175 238.098 292.8L380.795 150.187C381.045 149.938 381.545 149.938 381.92 150.187C382.17 150.437 382.17 150.937 381.92 151.312L239.222 293.924C238.972 294.174 238.847 294.174 238.598 294.174Z" fill="white"/>
<path d="M237.849 289.551L231.6 300.421L242.473 294.174L237.849 289.551Z" fill="white"/>
<path d="M174.483 219.831L154.612 197.965C151.987 195.091 148.488 193.717 144.863 193.717C137.739 193.842 132.115 199.714 132.115 206.836V209.21C132.49 211.459 133.615 213.708 135.24 215.582L158.236 240.947V219.831H174.483Z" fill="#C42A56"/>
<path d="M174.483 219.831H196.48C203.729 219.831 209.603 213.958 209.603 206.711C209.603 199.464 203.729 193.592 196.48 193.592H145.113C144.988 193.592 144.863 193.592 144.863 193.592C148.488 193.592 151.987 194.966 154.612 197.84L174.483 219.831Z" fill="#C42A56"/>
<path d="M132.115 209.085V257.94C132.115 265.187 137.989 271.059 145.238 271.059C152.487 271.059 158.361 265.187 158.361 257.94V240.822L135.365 215.458C133.49 213.708 132.49 211.459 132.115 209.085Z" fill="#C42A56"/>
<path d="M144.863 193.717C141.739 193.717 138.614 194.841 136.115 197.09C132.615 200.214 131.241 204.837 132.115 209.21V206.836C132.115 199.589 137.74 193.842 144.863 193.717Z" fill="#14899B"/>
<path d="M174.484 219.831H158.236V240.947L176.358 260.813C176.483 260.938 176.608 261.063 176.858 261.313C185.607 270.059 185.607 284.303 176.983 293.174L-119.094 585.175C-124.218 590.298 -124.343 598.544 -119.219 603.667C-116.719 606.291 -113.345 607.54 -109.845 607.54C-106.471 607.54 -103.221 606.291 -100.597 603.792L195.48 311.666L195.605 311.541C204.729 302.295 209.728 290.051 209.728 277.056C209.728 264.187 204.729 252.067 195.73 242.946L174.484 219.831Z" fill="#14899B"/>
<path d="M174.483 219.831L154.612 197.965C151.987 195.091 148.488 193.717 144.863 193.717C137.739 193.842 132.115 199.714 132.115 206.836V209.21C132.49 211.459 133.615 213.708 135.24 215.582L158.236 240.947V219.831H174.483Z" fill="#14899B"/>
<path d="M66.1259 655.27C65.8759 655.27 65.7509 655.145 65.6259 655.02C65.376 654.77 65.376 654.271 65.6259 653.896L342.206 377.389C342.456 377.139 342.956 377.139 343.331 377.389C343.581 377.638 343.581 378.138 343.331 378.513L66.7508 655.02C66.5008 655.145 66.3758 655.27 66.1259 655.27Z" fill="white"/>
<path d="M343.456 381.762L349.705 371.017L338.832 377.264L343.456 381.762Z" fill="white"/>
<path d="M372.076 262.688L211.728 423.12L228.725 406.127C233.849 401.004 242.098 401.004 247.222 406.127C252.346 411.25 252.346 419.496 247.222 424.619L390.699 281.18V262.688H372.076Z" fill="#015A00"/>
<path d="M220.976 445.485C217.602 445.485 214.227 444.236 211.727 441.612C206.603 436.489 206.603 428.242 211.727 423.12L34.0062 600.794C28.882 605.917 28.882 614.163 34.0062 619.286C36.5058 621.785 39.8803 623.159 43.2547 623.159C46.6292 623.159 50.0036 621.91 52.5032 619.286L247.097 424.744L230.099 441.737C227.6 444.111 224.35 445.485 220.976 445.485Z" fill="#6CCD00"/>
<path d="M247.097 406.127C241.973 401.004 233.724 401.004 228.6 406.127L211.603 423.12C206.479 428.242 206.479 436.489 211.603 441.612C214.102 444.111 217.477 445.485 220.851 445.485C224.226 445.485 227.6 444.236 230.1 441.612L247.097 424.619C252.221 419.621 252.221 411.25 247.097 406.127Z" fill="#C6ED07"/>
<path d="M403.697 236.574H328.334C321.085 236.574 315.211 242.447 315.211 249.694C315.211 256.941 321.085 262.813 328.334 262.813H372.202L394.573 240.448C396.948 237.824 400.322 236.574 403.697 236.574Z" fill="#C6ED07"/>
<path d="M412.946 258.939L390.574 281.305V325.161C390.574 332.408 396.448 338.281 403.697 338.281C410.946 338.281 416.82 332.408 416.82 325.161V249.818C416.82 253.067 415.445 256.316 412.946 258.939Z" fill="#C6ED07"/>
<path d="M416.82 249.694C416.82 249.194 416.82 248.819 416.695 248.444C416.695 248.194 416.695 248.069 416.57 247.819C416.57 247.569 416.57 247.32 416.445 247.07C416.445 246.82 416.32 246.695 416.32 246.445C416.32 246.195 416.195 246.07 416.195 245.82C416.07 245.57 416.07 245.445 415.945 245.195C415.82 244.946 415.82 244.821 415.695 244.571C415.57 244.321 415.57 244.196 415.445 243.946C415.32 243.696 415.32 243.571 415.195 243.321C415.07 243.196 414.945 242.946 414.945 242.821C414.82 242.572 414.695 242.447 414.57 242.197C414.445 241.947 414.32 241.822 414.195 241.697C414.07 241.572 413.945 241.322 413.82 241.197C413.57 240.822 413.32 240.572 412.946 240.323C412.696 240.073 412.321 239.698 412.071 239.448C411.946 239.323 411.696 239.198 411.571 239.073C411.446 238.948 411.196 238.823 411.071 238.698C410.946 238.573 410.696 238.448 410.446 238.323C410.321 238.198 410.071 238.074 409.946 238.074C409.696 237.949 409.571 237.824 409.321 237.824C409.071 237.699 408.946 237.699 408.696 237.574C408.446 237.449 408.321 237.449 408.071 237.324C407.821 237.199 407.696 237.199 407.446 237.074C407.196 237.074 407.072 236.949 406.822 236.949C406.572 236.949 406.447 236.824 406.197 236.824C405.947 236.824 405.697 236.699 405.447 236.699C405.197 236.699 405.072 236.574 404.822 236.574C404.447 236.574 403.947 236.449 403.572 236.449C400.198 236.449 396.823 237.699 394.324 240.323L371.952 262.688H390.449V281.18L412.821 258.815C415.445 256.316 416.82 253.067 416.82 249.694Z" fill="#6CCD00"/>
<path d="M329.458 420.37H278.092C270.843 420.37 264.969 426.243 264.969 433.49C264.969 440.736 270.843 446.609 278.092 446.609H297.838L320.21 424.243C322.834 421.62 326.084 420.37 329.458 420.37Z" fill="#C6ED07"/>
<path d="M1619.41 680.672L1547.04 753.016C1539.42 760.638 1527.55 761.762 1518.55 755.89L1453.93 713.158C1444.56 706.911 1433.31 704.162 1422.19 705.286C1411.06 706.411 1400.57 711.409 1392.57 719.28L1275.96 835.856C1270.84 840.979 1270.84 849.225 1275.96 854.348C1278.46 856.847 1281.84 858.221 1285.21 858.221C1288.58 858.221 1291.96 856.972 1294.46 854.348L1411.06 737.773C1418.69 730.151 1430.56 729.026 1439.56 734.899L1504.17 777.631C1512.17 782.878 1521.55 785.752 1531.17 785.752C1532.79 785.752 1534.42 785.627 1536.04 785.502C1547.17 784.378 1557.67 779.38 1565.66 771.508L1638.03 699.164V680.672H1619.41Z" fill="#C42A56"/>
<path d="M1660.27 676.798L1637.9 699.164V718.78C1637.9 726.027 1643.78 731.9 1651.03 731.9C1658.27 731.9 1664.15 726.027 1664.15 718.78V667.552C1664.15 670.926 1662.9 674.174 1660.27 676.798Z" fill="#C6ED07"/>
<path d="M1664.15 667.552C1664.15 667.177 1664.15 666.678 1664.02 666.303C1664.02 666.053 1664.02 665.928 1663.9 665.678C1663.9 665.428 1663.9 665.178 1663.77 664.928C1663.77 664.679 1663.65 664.554 1663.65 664.304C1663.65 664.054 1663.52 663.929 1663.52 663.679C1663.4 663.429 1663.4 663.304 1663.27 663.054C1663.15 662.804 1663.15 662.679 1663.02 662.43C1662.9 662.18 1662.9 662.055 1662.77 661.805C1662.65 661.555 1662.65 661.43 1662.52 661.18C1662.4 661.055 1662.27 660.805 1662.27 660.68C1662.15 660.43 1662.02 660.305 1661.9 660.056C1661.77 659.806 1661.65 659.681 1661.52 659.556C1661.4 659.431 1661.27 659.181 1661.15 659.056C1660.9 658.681 1660.65 658.431 1660.27 658.056C1660.02 657.806 1659.65 657.432 1659.27 657.182C1659.15 657.057 1659.02 656.932 1658.77 656.807C1658.65 656.682 1658.4 656.557 1658.27 656.432C1658.15 656.307 1657.9 656.182 1657.65 656.057C1657.52 655.932 1657.27 655.807 1657.15 655.682C1656.9 655.557 1656.77 655.432 1656.52 655.432C1656.27 655.308 1656.15 655.308 1655.9 655.183C1655.65 655.058 1655.52 655.058 1655.27 654.933C1655.02 654.808 1654.9 654.808 1654.65 654.683C1654.4 654.683 1654.27 654.558 1654.02 654.558C1653.77 654.558 1653.65 654.433 1653.4 654.433C1653.15 654.433 1652.9 654.308 1652.65 654.308C1652.4 654.308 1652.27 654.183 1652.02 654.183C1651.65 654.183 1651.15 654.058 1650.78 654.058C1647.4 654.058 1644.03 655.308 1641.53 657.931L1619.16 680.297H1637.9V698.789L1660.27 676.424C1662.9 674.174 1664.15 670.926 1664.15 667.552Z" fill="#AB1B44"/>
<path d="M1582 547.174C1581.75 547.174 1581.62 547.049 1581.5 546.924C1581.25 546.674 1581.25 546.175 1581.5 545.8L1724.2 403.187C1724.45 402.938 1724.95 402.938 1725.32 403.187C1725.57 403.437 1725.57 403.937 1725.32 404.312L1582.62 546.924C1582.37 547.174 1582.25 547.174 1582 547.174Z" fill="#14899B"/>
<path d="M1581.25 542.551L1575 553.422L1585.87 547.174L1581.25 542.551Z" fill="#14899B"/>
<path d="M1496.05 453.894L1476.18 432.028C1473.55 429.154 1470.05 427.78 1466.43 427.78C1459.31 427.905 1453.68 433.777 1453.68 440.899V443.273C1454.06 445.522 1455.18 447.771 1456.81 449.645L1479.8 475.01V453.894H1496.05Z" fill="#C42A56"/>
<path d="M1496.05 453.894H1518.05C1525.3 453.894 1531.17 448.021 1531.17 440.774C1531.17 433.527 1525.3 427.655 1518.05 427.655H1466.68C1466.56 427.655 1466.43 427.655 1466.43 427.655C1470.06 427.655 1473.55 429.029 1476.18 431.903L1496.05 453.894Z" fill="#C42A56"/>
<path d="M1453.68 443.148V492.003C1453.68 499.249 1459.56 505.122 1466.81 505.122C1474.05 505.122 1479.93 499.249 1479.93 492.003V474.885L1456.93 449.521C1455.06 447.771 1454.06 445.522 1453.68 443.148Z" fill="#C42A56"/>
<path d="M1496.05 453.894H1479.8V475.01L1497.93 494.876C1498.05 495.001 1498.18 495.126 1498.43 495.376C1507.17 504.122 1507.17 518.366 1498.55 527.237L1202.47 819.238C1197.35 824.361 1197.22 832.607 1202.35 837.73C1204.85 840.354 1208.22 841.603 1211.72 841.603C1215.1 841.603 1218.35 840.354 1220.97 837.855L1517.05 545.729L1517.17 545.604C1526.3 536.358 1531.3 524.114 1531.3 511.119C1531.3 498.25 1526.3 486.13 1517.3 477.009L1496.05 453.894Z" fill="#14899B"/>
<path d="M1496.05 453.894L1476.18 432.028C1473.55 429.154 1470.05 427.78 1466.43 427.78C1459.31 427.905 1453.68 433.777 1453.68 440.899V443.273C1454.06 445.522 1455.18 447.771 1456.81 449.645L1479.8 475.01V453.894H1496.05Z" fill="#14899B"/>
<path d="M1387.69 889.333C1387.44 889.333 1387.32 889.208 1387.19 889.083C1386.94 888.833 1386.94 888.333 1387.19 887.958L1663.77 611.451C1664.02 611.201 1664.52 611.201 1664.9 611.451C1665.15 611.701 1665.15 612.201 1664.9 612.576L1388.32 889.083C1388.07 889.208 1387.94 889.333 1387.69 889.333Z" fill="#6CCD00"/>
<path d="M1665.02 615.825L1671.27 605.079L1660.4 611.326L1665.02 615.825Z" fill="#6CCD00"/>
<path d="M1212.72 873.464C1212.22 873.464 1211.72 873.214 1211.35 872.84C1210.6 872.09 1210.6 870.84 1211.35 870.091L1408.07 673.425C1408.82 672.675 1410.07 672.675 1410.82 673.425C1411.57 674.174 1411.57 675.424 1410.82 676.173L1214.1 872.84C1213.72 873.339 1213.22 873.464 1212.72 873.464Z" fill="white"/>
<path d="M1411.19 684.42L1426.81 657.557L1399.82 673.05L1411.19 684.42Z" fill="white"/>
<path d="M1651.03 654.433H1599.66C1592.41 654.433 1586.54 660.305 1586.54 667.552C1586.54 674.799 1592.41 680.671 1599.66 680.671H1619.41L1641.78 658.306C1644.4 655.682 1647.65 654.433 1651.03 654.433Z" fill="#C6ED07"/>
<path d="M1671.81 395.491L1649.44 417.856V437.598C1649.44 444.845 1655.31 450.717 1662.56 450.717C1669.81 450.717 1675.68 444.845 1675.68 437.598V386.245C1675.56 389.618 1674.31 392.867 1671.81 395.491Z" fill="#019002"/>
<path d="M1662.43 373.125H1611.07C1603.82 373.125 1597.94 378.997 1597.94 386.244C1597.94 393.491 1603.82 399.364 1611.07 399.364H1630.81L1653.19 376.998C1655.81 374.374 1659.18 373.125 1662.43 373.125Z" fill="#019002"/>
<path d="M1630.94 399.364L1514.46 515.814C1505.21 525.06 1500.21 537.305 1500.21 550.299C1500.21 563.294 1505.33 575.539 1514.46 584.785L1518.33 588.658C1522.58 592.906 1524.96 598.654 1524.96 604.651C1524.96 610.649 1522.58 616.396 1518.33 620.644L1428.97 709.981C1420.47 718.478 1406.85 718.852 1397.98 710.856L1359.73 676.87C1340.49 659.753 1311.12 660.627 1292.87 678.87L1254.12 717.603C1259.25 713.98 1266.25 714.479 1270.87 718.977C1276 724.1 1276.12 732.347 1271 737.47L1249.75 759.085L1311.37 697.487C1319.86 688.99 1333.49 688.615 1342.36 696.612L1380.6 730.597C1389.85 738.844 1401.48 742.842 1412.97 742.842C1425.47 742.842 1437.97 738.094 1447.47 728.598L1536.83 639.261C1546.08 630.015 1551.08 617.771 1551.08 604.776C1551.08 591.782 1545.95 579.537 1536.83 570.291L1532.95 566.418C1528.7 562.169 1526.33 556.422 1526.33 550.424C1526.33 544.427 1528.7 538.679 1532.95 534.431L1649.44 417.981V399.364H1630.94Z" fill="#6CCD00"/>
<path d="M1675.56 386.244C1675.56 385.745 1675.56 385.37 1675.43 384.995C1675.43 384.745 1675.43 384.62 1675.31 384.37C1675.31 384.12 1675.31 383.87 1675.18 383.62C1675.18 383.371 1675.06 383.246 1675.06 382.996C1675.06 382.746 1674.93 382.621 1674.93 382.371C1674.81 382.121 1674.81 381.996 1674.68 381.746C1674.56 381.496 1674.56 381.371 1674.43 381.122C1674.31 380.872 1674.31 380.747 1674.18 380.497C1674.06 380.247 1674.06 380.122 1673.93 379.872C1673.81 379.747 1673.68 379.497 1673.68 379.372C1673.56 379.122 1673.43 378.997 1673.31 378.748C1673.18 378.498 1673.06 378.373 1672.93 378.248C1672.81 378.123 1672.68 377.873 1672.56 377.748C1672.31 377.373 1672.06 377.123 1671.68 376.873C1671.43 376.623 1671.06 376.249 1670.81 375.999C1670.68 375.874 1670.43 375.749 1670.31 375.624C1670.18 375.499 1669.93 375.374 1669.81 375.249C1669.68 375.124 1669.43 374.999 1669.18 374.874C1669.06 374.749 1668.81 374.624 1668.68 374.624C1668.43 374.499 1668.31 374.374 1668.06 374.374C1667.81 374.249 1667.68 374.249 1667.43 374.125C1667.18 374 1667.06 374 1666.81 373.875C1666.56 373.75 1666.43 373.75 1666.18 373.625C1665.93 373.625 1665.81 373.5 1665.56 373.5C1665.31 373.5 1665.18 373.375 1664.93 373.375C1664.68 373.375 1664.43 373.25 1664.18 373.25C1663.93 373.25 1663.81 373.125 1663.56 373.125C1663.18 373.125 1662.68 373 1662.31 373C1658.93 373 1655.56 374.249 1653.06 376.873L1630.69 399.239H1649.19V417.731L1671.56 395.365C1674.31 392.867 1675.56 389.618 1675.56 386.244Z" fill="#C6ED07"/>
<path d="M1239.13 763.833C1235.75 763.833 1232.38 762.584 1229.88 759.96C1224.88 754.962 1224.75 746.716 1229.75 741.718L1060.78 912.895C1055.66 918.018 1055.78 926.264 1060.91 931.387C1063.41 933.886 1066.78 935.135 1070.15 935.135C1073.53 935.135 1076.9 933.886 1079.53 931.262L1249.88 758.71L1248.5 760.085C1245.75 762.584 1242.5 763.833 1239.13 763.833Z" fill="#C6ED07"/>
<path d="M1270.87 718.602C1266.25 714.104 1259.25 713.605 1254.12 717.228L1231.13 740.343L1229.75 741.718C1224.88 746.84 1224.88 754.962 1229.88 759.96C1232.38 762.459 1235.75 763.833 1239.13 763.833C1242.5 763.833 1245.88 762.584 1248.38 759.96L1249.75 758.585L1271 736.97C1276 731.972 1276 723.725 1270.87 718.602Z" fill="#54BF01"/>
<path d="M1737.39 478.758C1737.51 479.008 1737.51 479.133 1737.64 479.383C1737.51 479.133 1737.39 478.883 1737.39 478.758Z" fill="#015A00"/>
<path d="M1732.01 472.511C1732.26 472.636 1732.39 472.76 1732.64 472.885C1732.39 472.76 1732.14 472.636 1732.01 472.511Z" fill="#015A00"/>
<path d="M1735.39 475.385C1735.51 475.51 1735.64 475.76 1735.76 475.884C1735.64 475.76 1735.51 475.635 1735.39 475.385Z" fill="#015A00"/>
<path d="M1736.14 476.509C1736.26 476.634 1736.39 476.884 1736.51 477.134C1736.39 476.884 1736.26 476.634 1736.14 476.509Z" fill="#015A00"/>
<path d="M1736.76 477.509C1736.89 477.759 1737.01 477.884 1737.01 478.134C1737.01 478.009 1736.89 477.759 1736.76 477.509Z" fill="#015A00"/>
<path d="M1733.14 473.261C1733.26 473.386 1733.51 473.511 1733.64 473.636C1733.39 473.511 1733.26 473.386 1733.14 473.261Z" fill="#015A00"/>
<path d="M1727.14 470.762C1727.39 470.762 1727.64 470.762 1727.89 470.887C1727.64 470.887 1727.39 470.887 1727.14 470.762Z" fill="#015A00"/>
<path d="M1725.26 470.637C1725.64 470.637 1726.14 470.637 1726.51 470.762C1726.14 470.637 1725.64 470.637 1725.26 470.637Z" fill="#015A00"/>
<path d="M1728.51 471.011C1728.76 471.011 1728.89 471.136 1729.14 471.136C1728.89 471.136 1728.64 471.136 1728.51 471.011Z" fill="#015A00"/>
<path d="M1730.89 471.886C1731.14 472.011 1731.26 472.011 1731.51 472.136C1731.26 472.136 1731.01 472.011 1730.89 471.886Z" fill="#015A00"/>
<path d="M1729.64 471.386C1729.89 471.511 1730.01 471.511 1730.26 471.636C1730.14 471.511 1729.89 471.511 1729.64 471.386Z" fill="#015A00"/>
<path d="M1693.64 496.75L1533.29 657.182L1550.29 640.189C1555.42 635.066 1563.67 635.066 1568.79 640.189C1573.91 645.312 1573.91 653.559 1568.79 658.681L1712.27 515.243V496.75H1693.64Z" fill="#015A00"/>
<path d="M1738.39 483.756C1738.39 483.381 1738.39 482.882 1738.26 482.507C1738.39 482.882 1738.39 483.256 1738.39 483.756Z" fill="#015A00"/>
<path d="M1738.14 481.132C1738.14 481.382 1738.26 481.632 1738.26 481.881C1738.14 481.632 1738.14 481.382 1738.14 481.132Z" fill="#015A00"/>
<path d="M1737.76 479.883C1737.76 480.133 1737.89 480.258 1737.89 480.508C1737.89 480.383 1737.89 480.133 1737.76 479.883Z" fill="#015A00"/>
<path d="M1542.54 679.548C1539.17 679.548 1535.79 678.298 1533.29 675.674C1528.17 670.551 1528.17 662.305 1533.29 657.182L1355.57 834.856C1350.45 839.979 1350.45 848.226 1355.57 853.348C1358.07 855.847 1361.45 857.222 1364.82 857.222C1368.2 857.222 1371.57 855.972 1374.07 853.348L1568.66 658.806L1551.67 675.799C1549.17 678.173 1545.92 679.548 1542.54 679.548Z" fill="#6CCD00"/>
<path d="M1568.66 640.189C1563.54 635.066 1555.29 635.066 1550.17 640.189L1533.17 657.182C1528.05 662.305 1528.05 670.551 1533.17 675.674C1535.67 678.173 1539.04 679.548 1542.42 679.548C1545.79 679.548 1549.17 678.298 1551.67 675.674L1568.66 658.681C1573.79 653.684 1573.79 645.312 1568.66 640.189Z" fill="#C6ED07"/>
<path d="M1731.39 472.136C1731.51 472.261 1731.76 472.386 1731.89 472.386C1731.76 472.386 1731.64 472.261 1731.39 472.136Z" fill="#C6ED07"/>
<path d="M1725.26 470.637H1649.9C1642.65 470.637 1636.78 476.509 1636.78 483.756C1636.78 491.003 1642.65 496.876 1649.9 496.876H1693.77L1716.14 474.51C1718.52 471.886 1721.89 470.637 1725.26 470.637Z" fill="#C6ED07"/>
<path d="M1730.26 471.636C1730.51 471.761 1730.64 471.761 1730.89 471.886C1730.64 471.761 1730.51 471.761 1730.26 471.636Z" fill="#C6ED07"/>
<path d="M1726.51 470.762C1726.76 470.762 1726.89 470.762 1727.14 470.887C1726.89 470.762 1726.76 470.762 1726.51 470.762Z" fill="#C6ED07"/>
<path d="M1734.51 493.002L1712.14 515.367V559.224C1712.14 566.471 1718.02 572.343 1725.26 572.343C1732.51 572.343 1738.39 566.471 1738.39 559.224V483.881C1738.39 487.129 1737.01 490.378 1734.51 493.002Z" fill="#C6ED07"/>
<path d="M1737.51 479.258C1737.64 479.508 1737.64 479.633 1737.76 479.883C1737.76 479.758 1737.64 479.508 1737.51 479.258Z" fill="#C6ED07"/>
<path d="M1729.01 471.262C1729.26 471.387 1729.39 471.387 1729.64 471.512C1729.51 471.387 1729.26 471.262 1729.01 471.262Z" fill="#C6ED07"/>
<path d="M1727.76 470.886C1728.01 470.886 1728.14 471.011 1728.39 471.011C1728.26 471.011 1728.01 470.886 1727.76 470.886Z" fill="#C6ED07"/>
<path d="M1735.76 475.884C1735.89 476.009 1736.01 476.259 1736.14 476.384C1736.01 476.259 1735.89 476.134 1735.76 475.884Z" fill="#C6ED07"/>
<path d="M1737.89 480.507C1737.89 480.757 1738.01 480.882 1738.01 481.132C1738.01 481.007 1738.01 480.757 1737.89 480.507Z" fill="#C6ED07"/>
<path d="M1736.51 477.009C1736.64 477.134 1736.76 477.384 1736.76 477.509C1736.76 477.384 1736.64 477.259 1736.51 477.009Z" fill="#C6ED07"/>
<path d="M1732.51 472.886C1732.76 473.011 1732.89 473.136 1733.01 473.261C1732.89 473.136 1732.76 473.011 1732.51 472.886Z" fill="#C6ED07"/>
<path d="M1737.14 478.133C1737.26 478.383 1737.26 478.508 1737.39 478.758C1737.26 478.508 1737.14 478.383 1737.14 478.133Z" fill="#C6ED07"/>
<path d="M1733.51 473.635C1733.89 473.885 1734.14 474.135 1734.39 474.51C1734.14 474.135 1733.89 473.885 1733.51 473.635Z" fill="#C6ED07"/>
<path d="M1738.26 481.882C1738.26 482.132 1738.39 482.257 1738.39 482.507C1738.26 482.257 1738.26 482.007 1738.26 481.882Z" fill="#C6ED07"/>
<path d="M1734.51 474.51C1734.76 474.76 1735.14 475.134 1735.39 475.384C1735.14 475.134 1734.89 474.76 1734.51 474.51Z" fill="#C6ED07"/>
<path d="M1738.39 483.756C1738.39 483.256 1738.39 482.881 1738.26 482.507C1738.26 482.257 1738.26 482.132 1738.14 481.882C1738.14 481.632 1738.14 481.382 1738.01 481.132C1738.01 480.882 1737.89 480.757 1737.89 480.507C1737.89 480.258 1737.76 480.133 1737.76 479.883C1737.64 479.633 1737.64 479.508 1737.51 479.258C1737.39 479.008 1737.39 478.883 1737.26 478.633C1737.14 478.383 1737.14 478.258 1737.01 478.009C1736.89 477.759 1736.89 477.634 1736.76 477.384C1736.64 477.259 1736.51 477.009 1736.51 476.884C1736.39 476.634 1736.26 476.509 1736.14 476.259C1736.01 476.009 1735.89 475.884 1735.76 475.759C1735.64 475.635 1735.51 475.385 1735.39 475.26C1735.14 474.885 1734.89 474.635 1734.51 474.385C1734.26 474.135 1733.89 473.76 1733.64 473.51C1733.51 473.385 1733.26 473.261 1733.14 473.136C1733.01 473.011 1732.76 472.886 1732.64 472.761C1732.51 472.636 1732.26 472.511 1732.01 472.386C1731.89 472.261 1731.64 472.136 1731.51 472.136C1731.26 472.011 1731.14 471.886 1730.89 471.886C1730.64 471.761 1730.51 471.761 1730.26 471.636C1730.01 471.511 1729.89 471.511 1729.64 471.386C1729.39 471.261 1729.26 471.261 1729.01 471.136C1728.76 471.136 1728.64 471.011 1728.39 471.011C1728.14 471.011 1728.01 470.887 1727.76 470.887C1727.51 470.887 1727.26 470.762 1727.01 470.762C1726.76 470.762 1726.64 470.637 1726.39 470.637C1726.01 470.637 1725.51 470.512 1725.14 470.512C1721.76 470.512 1718.39 471.761 1715.89 474.385L1693.52 496.751H1712.02V515.243L1734.39 492.877C1737.01 490.378 1738.39 487.13 1738.39 483.756Z" fill="#6CCD00"/>
<path d="M1820.91 661.238L1660.56 821.67L1677.56 804.677C1682.69 799.554 1690.93 799.554 1696.06 804.677C1701.18 809.8 1701.18 818.046 1696.06 823.169L1839.54 679.73V661.238H1820.91Z" fill="#14899B"/>
<path d="M1852.53 635.125H1777.17C1769.92 635.125 1764.05 640.997 1764.05 648.244C1764.05 655.491 1769.92 661.364 1777.17 661.364H1821.04L1843.41 638.998C1845.78 636.374 1849.16 635.125 1852.53 635.125Z" fill="#C42A56"/>
<path d="M1861.78 657.49L1839.41 679.856V723.712C1839.41 730.959 1845.28 736.831 1852.53 736.831C1859.78 736.831 1865.66 730.959 1865.66 723.712V648.369C1865.66 651.618 1864.28 654.866 1861.78 657.49Z" fill="#C42A56"/>
<path d="M1865.66 648.244C1865.66 647.745 1865.66 647.37 1865.53 646.995C1865.53 646.745 1865.53 646.62 1865.41 646.37C1865.41 646.12 1865.41 645.87 1865.28 645.62C1865.28 645.371 1865.16 645.246 1865.16 644.996C1865.16 644.746 1865.03 644.621 1865.03 644.371C1864.91 644.121 1864.91 643.996 1864.78 643.746C1864.66 643.496 1864.66 643.371 1864.53 643.122C1864.41 642.872 1864.41 642.747 1864.28 642.497C1864.16 642.247 1864.16 642.122 1864.03 641.872C1863.91 641.747 1863.78 641.497 1863.78 641.372C1863.66 641.122 1863.53 640.997 1863.41 640.748C1863.28 640.498 1863.16 640.373 1863.03 640.248C1862.91 640.123 1862.78 639.873 1862.66 639.748C1862.41 639.373 1862.16 639.123 1861.78 638.873C1861.53 638.623 1861.16 638.249 1860.91 637.999C1860.78 637.874 1860.53 637.749 1860.41 637.624C1860.28 637.499 1860.03 637.374 1859.91 637.249C1859.78 637.124 1859.53 636.999 1859.28 636.874C1859.16 636.749 1858.91 636.624 1858.78 636.624C1858.53 636.499 1858.41 636.374 1858.16 636.374C1857.91 636.249 1857.78 636.249 1857.53 636.125C1857.28 636 1857.16 636 1856.91 635.875C1856.66 635.75 1856.53 635.75 1856.28 635.625C1856.03 635.625 1855.91 635.5 1855.66 635.5C1855.41 635.5 1855.28 635.375 1855.03 635.375C1854.78 635.375 1854.53 635.25 1854.28 635.25C1854.03 635.25 1853.91 635.125 1853.66 635.125C1853.28 635.125 1852.78 635 1852.41 635C1849.03 635 1845.66 636.249 1843.16 638.873L1820.79 661.239H1839.29V679.731L1861.66 657.365C1864.28 654.867 1865.66 651.618 1865.66 648.244Z" fill="#0A6F74"/>
<path d="M2020.34 276.626L2015.82 272.104C2010.83 267.107 2008.03 260.335 2008.03 253.275C2008.03 246.215 2010.83 239.443 2015.82 234.445C2018.56 231.526 2020.07 227.651 2020.01 223.643C2019.94 219.635 2018.33 215.808 2015.49 212.973C2012.66 210.139 2008.83 208.52 2004.82 208.459C2000.81 208.398 1996.94 209.9 1994.02 212.648C1983.26 223.432 1977.22 238.042 1977.22 253.275C1977.22 268.507 1983.26 283.117 1994.02 293.902L1998.54 298.408C2003.53 303.406 2006.33 310.178 2006.33 317.238C2006.33 324.298 2003.53 331.07 1998.54 336.068L1861.29 473.317V495.115H1883.09L2020.34 357.88C2031.09 347.094 2037.13 332.484 2037.13 317.253C2037.13 302.022 2031.09 287.412 2020.34 276.626Z" fill="#C6ED07"/>
<path d="M1845.87 525.97H1909.66C1913.75 525.97 1917.67 524.346 1920.56 521.454C1923.45 518.562 1925.08 514.64 1925.08 510.55C1925.08 506.46 1923.45 502.538 1920.56 499.646C1917.67 496.754 1913.75 495.13 1909.66 495.13H1883.15L1856.83 521.449C1855.39 522.893 1853.69 524.036 1851.8 524.812C1849.92 525.589 1847.91 525.982 1845.87 525.97Z" fill="#14899B"/>
<path d="M1861.29 473.332V446.821C1861.35 444.757 1861 442.701 1860.26 440.776C1859.51 438.85 1858.39 437.094 1856.95 435.611C1855.51 434.128 1853.79 432.95 1851.89 432.145C1849.99 431.34 1847.94 430.925 1845.88 430.925C1843.81 430.925 1841.77 431.34 1839.87 432.145C1837.96 432.95 1836.24 434.128 1834.81 435.611C1833.37 437.094 1832.24 438.85 1831.5 440.776C1830.75 442.701 1830.4 444.757 1830.46 446.821V510.49C1830.46 508.466 1830.86 506.462 1831.63 504.591C1832.4 502.721 1833.54 501.022 1834.97 499.592L1861.29 473.332Z" fill="#14899B"/>
<path d="M1861.29 473.332L1834.97 499.651C1833.54 501.081 1832.4 502.78 1831.63 504.65C1830.86 506.521 1830.46 508.526 1830.46 510.549C1830.44 511.04 1830.44 511.532 1830.46 512.022C1830.46 512.258 1830.46 512.479 1830.55 512.715C1830.64 512.95 1830.55 513.259 1830.69 513.525C1830.82 513.79 1830.8 514.025 1830.88 514.29C1830.95 514.556 1830.98 514.762 1831.05 514.983C1831.13 515.204 1831.22 515.469 1831.3 515.719C1831.39 515.969 1831.47 516.19 1831.55 516.411L1831.86 517.074L1832.2 517.781L1832.57 518.399C1832.7 518.62 1832.84 518.856 1832.98 519.062C1833.13 519.268 1833.31 519.504 1833.47 519.725C1833.63 519.946 1833.73 520.108 1833.88 520.285C1834.2 520.679 1834.54 521.053 1834.9 521.404C1835.26 521.767 1835.64 522.111 1836.03 522.435L1836.58 522.847L1837.24 523.333C1837.46 523.481 1837.68 523.598 1837.92 523.731C1838.12 523.865 1838.32 523.987 1838.54 524.099C1838.76 524.227 1838.99 524.34 1839.23 524.438C1839.45 524.541 1839.67 524.659 1839.91 524.747C1840.13 524.844 1840.35 524.927 1840.58 524.998L1841.33 525.263C1841.55 525.336 1841.79 525.381 1842.03 525.439L1842.79 525.631L1843.6 525.749L1844.28 525.852C1844.78 525.852 1845.28 525.852 1845.75 525.852C1847.78 525.856 1849.78 525.459 1851.65 524.683C1853.53 523.907 1855.22 522.767 1856.65 521.33L1882.97 495.012H1861.17L1861.29 473.332Z" fill="#0A6F74"/>
<path d="M1771.32 440.327C1771.01 440.33 1770.71 440.272 1770.42 440.156C1770.14 440.039 1769.88 439.867 1769.67 439.649C1769.45 439.433 1769.28 439.176 1769.16 438.893C1769.04 438.61 1768.98 438.306 1768.98 438C1768.98 437.693 1769.04 437.39 1769.16 437.107C1769.28 436.824 1769.45 436.566 1769.67 436.35L2001.41 204.591C2001.86 204.194 2002.44 203.983 2003.04 204.001C2003.64 204.019 2004.21 204.266 2004.63 204.69C2005.05 205.113 2005.29 205.683 2005.31 206.281C2005.32 206.879 2005.11 207.46 2004.71 207.905L1772.97 439.649C1772.75 439.865 1772.49 440.036 1772.21 440.152C1771.93 440.269 1771.62 440.328 1771.32 440.327Z" fill="white"/>
<path d="M1769.18 426.688L1750.82 458.471L1782.61 440.135L1769.18 426.688Z" fill="white"/>
<path d="M1738.3 620.95C1738.11 620.952 1737.93 620.916 1737.76 620.845C1737.59 620.774 1737.44 620.67 1737.31 620.538C1737.07 620.267 1736.93 619.915 1736.93 619.551C1736.93 619.186 1737.07 618.835 1737.31 618.564L2143.05 212.883C2143.32 212.635 2143.68 212.497 2144.05 212.497C2144.41 212.497 2144.77 212.635 2145.04 212.883C2145.28 213.154 2145.42 213.505 2145.42 213.87C2145.42 214.235 2145.28 214.586 2145.04 214.857L1739.28 620.597C1739.15 620.718 1739 620.812 1738.83 620.873C1738.66 620.933 1738.48 620.96 1738.3 620.95Z" fill="white"/>
<path d="M1737.02 612.835L1726 631.908L1745.09 620.891L1737.02 612.835Z" fill="white"/>
</svg>
