<svg width="120" height="103" viewBox="0 0 120 103" fill="none" xmlns="http://www.w3.org/2000/svg">
<path d="M87.9611 71.9751C88.2123 71.662 89.1528 70.7839 89.4659 70.4084C95.0451 63.9517 96.2992 59.0611 96.8007 54.3589C97.1773 49.8455 97.0514 45.7706 95.1081 40.3786C93.6038 38.1227 92.3497 35.9287 89.4029 34.3637C86.9582 33.6734 84.5759 34.5509 82.32 36.1817C82.3118 36.1815 82.3036 36.183 82.296 36.1861C82.2883 36.1892 82.2814 36.1938 82.2756 36.1996C82.2697 36.2054 82.2652 36.2124 82.2621 36.22C82.259 36.2276 82.2575 36.2358 82.2576 36.2441C80.0012 38.3133 77.7437 40.8204 75.3614 44.2056C75.0482 44.7677 74.7346 45.5232 74.2961 46.3372C73.4181 48.2176 72.3528 50.5375 71.4118 52.6691C70.8497 53.9232 70.2841 55.1144 69.9075 56.0543L69.5314 56.9318L69.4691 57.1825L68.0272 53.2335L66.4599 48.8455L66.0209 47.7167L66.4599 46.2737L68.0272 40.821L69.0952 37.1227C69.2211 36.6207 69.4089 36.1822 69.5343 35.7426C70.224 33.6116 70.7254 31.4811 71.4146 29.2859C72.01 27.2739 72.7425 25.305 73.6069 23.3931C73.8569 23.095 74.0873 22.781 74.2967 22.4532C75.3001 21.0731 76.2405 19.7549 77.9326 19.2563L79.6252 19.3187C80.0018 19.5053 80.3779 19.8201 80.6932 20.3216L81.3824 19.8201C81.8844 19.068 80.8203 18.4412 79.9405 17.8763H66.4588C65.7061 17.8763 65.2047 17.6256 65.0793 16.7481C65.2047 15.8711 65.7061 15.4315 66.4588 15.2432C66.8973 15.1179 67.3993 15.1179 68.026 15.1808C68.2768 15.0549 68.2138 14.8672 68.026 14.6187C67.9631 14.6187 67.9631 14.5557 67.9007 14.5557L66.4588 14.6187L64.8286 14.6817H64.7662L63.5745 15.5592L63.199 15.8099C61.6312 16.8133 62.2585 17.6278 63.199 18.2546C63.3243 18.3799 63.4497 18.4435 63.5745 18.5683C64.0141 18.7566 64.3896 18.9438 64.7662 19.1304C65.3155 19.3151 65.8829 19.4408 66.4588 19.5053C66.5875 19.4952 66.7168 19.5173 66.8349 19.5694L68.026 19.7572L69.5303 20.0079L68.026 19.8201L67.5241 19.7572C67.148 19.8201 66.8349 20.0079 66.456 20.1956C65.8939 20.5099 65.3272 20.9483 64.7634 21.3868C64.7005 21.4492 64.5751 21.5763 64.5127 21.6375C64.0113 22.0771 63.7606 22.4532 63.5717 22.8293C63.4469 23.2053 63.5093 23.5184 63.5717 23.7697C63.7606 24.1452 64.0113 24.3959 64.2614 24.7096C64.0113 25.0227 63.8224 25.3993 63.5717 25.7119C63.0095 26.5911 62.444 27.5304 61.9415 28.4101C61.6913 28.8497 61.4401 29.2882 61.2523 29.7272C61.064 29.9779 60.9386 30.2922 60.7503 30.5423C60.6293 30.8468 60.4824 31.1404 60.3113 31.4198L59.9982 32.0472L59.9352 31.9212L58.5614 29.1578C58.3731 28.7817 58.1853 28.4051 57.934 28.0897C57.3719 27.1487 56.8064 26.2088 56.1796 25.2678L55.803 24.7057C55.9289 24.5797 56.0537 24.392 56.1796 24.2678C56.5551 23.7056 56.7417 23.139 56.1796 22.3228C56.0537 22.135 55.803 21.8854 55.5523 21.6336C55.3015 21.4462 55.0508 21.2588 54.8001 21.0715C54.048 20.4452 53.2958 19.9438 52.4802 19.7555L51.5403 19.8185L50.4722 20.0062L49.3423 20.1304L50.4711 19.9427L51.5392 19.7544L53.1694 19.5666C53.7234 19.4932 54.2693 19.3672 54.7996 19.1905C55.2834 19.0685 55.7477 18.8793 56.179 18.6284C56.3668 18.5031 56.6175 18.4412 56.8058 18.2523C57.7457 17.5632 58.3725 16.7481 56.8058 15.7447L56.179 15.3062L55.1756 14.6164H54.7996L52.0406 14.4883C51.7899 14.8014 51.6645 15.0504 51.9152 15.178C53.4201 14.9273 54.4853 15.2404 54.799 16.3057C54.8614 16.4321 54.8614 16.5581 54.9238 16.6817C54.8614 16.8706 54.8614 16.996 54.799 17.1213C54.6107 17.7481 54.1098 17.8735 53.4819 17.8735H40.1289C39.2509 18.4384 38.1856 19.0017 38.6865 19.7544L39.3762 20.2564C39.6905 19.8173 40.066 19.4401 40.4443 19.3159L42.1369 19.2535C43.7671 19.7544 44.7699 21.0703 45.7733 22.4504C45.9611 22.7011 46.2118 23.0125 46.4631 23.3273C47.4035 25.3965 48.0933 27.2769 48.5941 29.1578C49.2833 31.4148 49.7853 33.5458 50.475 35.6786C50.6004 36.117 50.7887 36.619 50.9135 37.121L51.5409 39.3133L53.9861 47.5244L51.5409 54.17L50.5374 56.9908L50.475 56.8031L50.4121 56.7407C50.0366 55.7991 49.344 54.2965 48.5941 52.6028C47.7166 50.5971 46.6503 48.2777 45.7733 46.3962C45.2714 45.5199 44.8958 44.7036 44.5198 44.0769C42.2594 40.6298 40.0036 38.1227 37.7472 36.1153C37.739 36.1156 37.7308 36.1143 37.7231 36.1113C37.7154 36.1084 37.7085 36.1039 37.7026 36.0982C37.6967 36.0924 37.692 36.0856 37.6889 36.078C37.6857 36.0704 37.6841 36.0623 37.6842 36.0541C35.3643 34.4239 33.0443 33.5452 30.6013 34.2355C27.5922 35.7393 26.4005 37.9968 24.8967 40.1903C22.8899 45.643 22.8275 49.7196 23.1406 54.2335C23.7028 58.8728 24.9586 63.8247 30.5383 70.2814C30.8514 70.6586 31.7919 71.5355 32.0432 71.8492C32.2944 72.1628 33.0455 73.0403 33.3597 73.354L36.8702 76.6144L36.1799 76.8651C35.24 77.2412 34.1118 77.4272 32.8577 77.4913H30.4748C29.6597 77.4295 28.97 77.7426 28.4056 78.6825C28.6563 79.4352 28.0919 80.3756 27.2774 81.3167C26.7152 81.6292 26.65 82.0677 26.776 82.5073L27.4657 83.8232L27.8418 83.6355L27.5281 82.3825C28.0295 81.6292 28.8452 80.8771 30.5372 80.4386L37.6842 77.2412L37.9349 77.1788L38.9372 77.6802C40.442 78.37 42.26 78.8708 44.5175 79.2474L45.7711 79.3728L48.2158 79.5611L46.8993 81.1913L45.8312 81.3178H45.7688C42.8221 81.3796 40.252 81.8799 38.4341 82.948C37.2429 84.5147 38.3087 84.7654 40.0013 84.703C41.5686 84.2639 42.8851 83.8249 44.1387 83.1357C44.6401 82.885 45.2067 82.8221 45.7688 82.7597C45.8169 82.7551 45.8616 82.7329 45.8942 82.6973C46.7717 82.6973 47.7121 82.6973 48.5925 82.7597C49.2192 82.8221 49.846 82.8221 50.4734 82.885C50.85 82.948 51.1631 83.0109 51.5414 83.0722C52.6453 83.2123 53.7358 83.4432 54.8018 83.7625C55.3032 83.8249 55.7417 84.0132 56.1813 84.1386C56.3061 84.201 56.369 84.201 56.4944 84.2639L57.9357 84.64L58.1246 84.703L57.9357 84.7654L56.1813 85.4557L55.428 85.7693H55.4915L54.8018 85.9565L55.428 85.7693L54.8018 85.4557L53.234 84.64C52.6719 84.3893 52.1058 84.201 51.542 84.1386C51.3157 84.0896 51.0842 84.0687 50.8528 84.0762C50.7269 84.0762 50.6015 84.0132 50.4762 84.0132C49.8488 84.0132 49.222 84.0132 48.5953 84.0762C47.9685 84.1391 47.2787 84.2639 46.6514 84.5147C45.0842 85.4557 45.8369 86.2702 47.2787 87.0847C47.7074 87.2598 48.1472 87.4062 48.5953 87.5232C49.217 87.6422 49.845 87.7262 50.4762 87.775H51.9804C52.9209 87.5873 53.8614 87.3995 54.8018 87.0847H54.8642L55.1149 86.9599L56.183 88.277L56.6838 88.8392C57.1858 89.466 57.6249 90.1557 57.9374 90.9697C58.0633 91.2215 58.1887 91.4711 58.2511 91.7853C58.3764 92.0984 58.5018 92.4121 58.5647 92.7258C58.7525 93.2272 58.8784 93.6038 59.0038 94.0429L59.3169 94.732V94.7944C59.1144 95.2591 58.8622 95.7005 58.5647 96.111C58.3764 96.4241 58.1887 96.8007 57.9374 97.1132C57.3753 97.9295 56.7468 98.7434 56.183 99.3056C55.681 99.807 55.2425 100.184 54.8035 100.374C54.7405 100.374 54.7405 100.374 54.6781 100.436C53.6747 100.998 52.6095 101.188 51.5437 100.813C51.1676 100.687 50.9163 100.499 50.5403 100.311C50.5404 100.302 50.5389 100.294 50.5358 100.287C50.5327 100.279 50.5281 100.272 50.5223 100.266C50.5165 100.26 50.5096 100.256 50.5019 100.253C50.4943 100.25 50.4861 100.248 50.4779 100.248C49.6628 99.997 48.973 99.3073 48.7847 98.6181C48.5969 97.6141 49.2237 96.9879 50.4779 96.8614C50.7915 96.799 51.1046 96.799 51.5459 96.799H51.6083C54.1166 96.9873 54.3667 95.921 54.8057 95.0435V94.9805H54.8681C55.2448 95.0435 55.5579 94.9805 55.6208 95.0435C55.6925 95.2358 55.7761 95.4236 55.871 95.6056C55.9005 95.6632 55.9456 95.7114 56.0012 95.7447C56.0567 95.778 56.1205 95.795 56.1852 95.7939H56.2476C56.4354 95.7939 56.6237 95.9187 56.6237 95.668L56.4983 94.4144C56.4983 94.3509 56.373 94.2879 56.1852 94.2879C55.8525 94.2453 55.5173 94.2249 55.1818 94.2267H54.8057C54.7428 94.2267 54.6804 94.1632 54.6174 94.1632C54.4921 94.1013 54.3667 93.976 54.3667 93.9136C54.3667 93.7871 54.3043 93.6617 54.3043 93.4116V90.3389C54.3043 90.1518 54.3667 89.9629 54.3667 89.9005C54.3667 89.7751 54.4297 89.7127 54.555 89.6503C54.6174 89.6503 54.6804 89.5874 54.8057 89.5874C54.8681 89.525 54.9305 89.525 55.0559 89.525C55.3072 89.525 55.871 89.3991 55.871 89.3361C55.871 89.2113 55.3088 89.1483 55.1189 89.1483H51.4824C51.2946 89.1483 51.1698 89.2113 51.1698 89.3361C51.1698 89.4609 51.2946 89.525 51.4824 89.525H51.5459C51.7966 89.525 51.922 89.5874 51.9844 89.6503C52.1097 89.6503 52.1721 89.7127 52.2351 89.7751C52.2351 89.9005 52.298 89.9629 52.298 90.1518V93.8506C52.298 93.976 52.2351 94.1013 52.1721 94.1013C52.1097 94.1632 52.0473 94.1632 51.922 94.1632H49.4767C49.4143 94.1632 49.3513 94.1632 49.3513 94.1013V90.3389C49.3513 90.1518 49.3513 89.9629 49.4143 89.9005C49.4143 89.7751 49.4767 89.7127 49.6026 89.6503C49.665 89.5874 49.8528 89.525 50.0416 89.525C50.292 89.525 50.4171 89.462 50.4171 89.3361C50.4171 89.2113 50.3553 89.1483 50.1664 89.1483H46.5305C46.3422 89.1483 45.9684 89.2113 45.9684 89.3361C45.9684 89.3991 46.0943 89.3991 46.2191 89.462C46.2821 89.462 46.5328 89.525 46.5952 89.525C46.8465 89.525 47.0342 89.5874 47.096 89.6503C47.2225 89.7127 47.2849 89.7751 47.2849 89.8381C47.3473 89.9629 47.3473 90.0894 47.3473 90.3389V93.6617C47.3438 93.8165 47.3009 93.9678 47.2225 94.1013C47.1596 94.1632 46.9718 94.2267 46.6604 94.2879C46.4102 94.2879 46.2849 94.3509 46.2849 94.4144C46.2849 94.5403 46.3473 94.6027 46.5356 94.6027H48.6043L50.4852 94.5403H53.1087C53.3023 94.5452 53.4932 94.5876 53.6708 94.6651C53.8591 94.7281 53.985 94.7905 54.0474 94.9153L53.985 95.0412C53.6084 95.9817 52.6679 96.0441 51.5397 95.8557C51.2885 95.7939 51.0377 95.7309 50.8505 95.668L50.4739 95.4802C49.8466 95.2295 49.2198 95.1671 48.593 95.1042C48.2992 95.0959 48.0052 95.117 47.7155 95.1671L45.8346 96.3583C45.799 96.3904 45.7767 96.4348 45.7722 96.4825C45.5215 97.0447 45.5845 97.4865 45.7722 97.9255C45.96 98.3646 46.2736 98.7395 46.6491 99.1161C47.2113 99.6783 47.9033 100.12 48.593 100.496C49.2198 100.871 49.8466 101.122 50.4739 101.373C50.8506 101.498 51.1637 101.686 51.542 101.812C51.576 101.807 51.6105 101.811 51.643 101.822C51.6755 101.833 51.7051 101.851 51.7297 101.875C52.1224 101.951 52.521 101.993 52.9209 102C53.5697 101.929 54.204 101.76 54.8018 101.498C55.1779 101.373 55.5539 101.185 55.8699 101.06C55.9958 100.934 56.0582 100.871 56.1841 100.809C56.816 100.319 57.4031 99.7733 57.9385 99.1791C58.1274 98.9284 58.3775 98.6777 58.5659 98.427C58.9406 97.9263 59.3167 97.2993 59.6941 96.5461L59.9448 96.1076L60.5721 97.2364C60.6205 97.3488 60.6837 97.4543 60.7599 97.55C60.9482 97.8002 61.0736 98.0514 61.2619 98.2392C61.4562 98.5578 61.6875 98.8524 61.951 99.1167C62.5132 99.8059 63.0793 100.245 63.5812 100.684C63.7598 100.794 63.9278 100.92 64.0832 101.061C64.3339 101.185 64.5847 101.248 64.773 101.374C65.3171 101.617 65.8841 101.805 66.4656 101.936C66.6533 101.936 66.8416 101.998 67.0277 101.998C67.3651 101.987 67.7008 101.946 68.0305 101.873H68.1565C68.6568 101.747 69.0958 101.559 69.5348 101.434C70.1622 101.121 70.7889 100.872 71.4152 100.494C72.1159 100.114 72.7684 99.6506 73.3585 99.1144C73.7351 98.6754 74.1741 98.237 74.2995 97.6726V96.8575C74.2995 96.6703 74.2365 96.5438 74.1112 96.3566L72.2938 95.1654C71.9801 95.1025 71.7317 95.1025 71.4152 95.1025C70.7701 95.1062 70.1317 95.2339 69.5348 95.4786L69.1588 95.6663C68.7203 95.7922 68.3437 95.8541 68.0305 95.917C67.4038 96.0424 66.8394 95.98 66.4633 95.7293C66.1496 95.5409 65.9613 95.2908 65.8365 94.8518L64.8961 94.6635C65.3981 95.2908 65.5229 96.1677 66.4633 96.6073C66.9661 96.7821 67.5007 96.8461 68.0305 96.7951H68.2813C68.7832 96.7951 69.1587 96.7951 69.5348 96.8575C70.726 96.9834 71.4152 97.6102 71.228 98.6142C71.0397 99.3022 70.3505 99.9919 69.5348 100.244C69.5257 100.243 69.5165 100.244 69.5079 100.247C69.4992 100.25 69.4913 100.255 69.4848 100.262C69.4783 100.268 69.4733 100.276 69.4702 100.284C69.4671 100.293 69.4659 100.302 69.4668 100.311C69.0182 100.587 68.5327 100.798 68.0249 100.938C67.4628 101.064 66.9569 101.064 66.4577 100.875C66.0187 100.813 65.6426 100.624 65.2665 100.437C65.1412 100.374 64.9529 100.311 64.7651 100.186C64.4514 99.9976 64.013 99.6237 63.5734 99.1825C63.0719 98.5563 62.5087 97.8665 61.9432 97.0508C61.693 96.6759 61.4418 96.2987 61.254 95.9226C61.0657 95.6719 60.9403 95.4218 60.752 95.1081C60.6759 95.0123 60.6128 94.9068 60.5643 94.7944L60.7537 94.3526L60.942 94.0406C61.0044 93.7258 61.1298 93.4133 61.2557 93.099C61.381 92.7235 61.5058 92.2215 61.6947 91.7831C61.7397 91.5212 61.824 91.2676 61.9449 91.0309C62.3209 90.2158 62.7594 89.4637 63.2614 88.8386L63.5745 88.4625L64.7662 87.0825L64.8286 87.0201L65.1423 87.0825L66.4588 87.4591C66.9602 87.585 67.4617 87.7102 67.9631 87.8346H69.5303C70.2201 87.7728 70.8468 87.7098 71.4107 87.585C71.9127 87.4591 72.3517 87.2708 72.7901 87.0825C74.232 86.3309 74.9223 85.4523 73.4169 84.5124C72.7709 84.2769 72.0961 84.1294 71.4107 84.0739C70.7844 84.011 70.1577 84.011 69.5303 84.011C69.405 84.011 69.2796 84.0739 69.2172 84.0739C68.8173 84.0814 68.4188 84.1231 68.026 84.1987C67.4822 84.32 66.9557 84.5088 66.4588 84.7609C66.1541 84.882 65.8603 85.029 65.5808 85.2005L64.7662 85.576L64.5155 85.7648H64.5762L64.7645 85.8267L64.5138 85.7648L63.5728 85.3882L63.1973 85.2617L61.9432 84.7609L61.7554 84.6985L61.9432 84.6355L63.5104 84.2594C63.5102 84.2512 63.5116 84.2429 63.5147 84.2352C63.5177 84.2275 63.5223 84.2205 63.5281 84.2146C63.534 84.2087 63.5409 84.2041 63.5486 84.201C63.5563 84.1979 63.5645 84.1963 63.5728 84.1965C64.0124 84.0717 64.3879 83.9463 64.7645 83.8204C65.3267 83.6951 65.8927 83.5073 66.4571 83.382C66.9585 83.3196 67.4605 83.1942 68.0244 83.1312C68.5258 83.0064 69.0278 82.9435 69.5286 82.8805C70.156 82.8176 70.7828 82.7552 71.409 82.7552C72.35 82.6928 73.2281 82.6928 74.1679 82.6928C74.2303 82.7552 74.2303 82.7552 74.2933 82.7552C74.7947 82.8176 75.3585 82.8805 75.8605 83.0677C77.1765 83.758 78.4936 84.1965 80.0608 84.6979C81.7534 84.7603 82.8186 84.4478 81.628 82.9429C79.8101 81.817 77.2411 81.3785 74.295 81.2548H74.232L73.164 81.1289L71.9734 79.687L74.2927 79.4993L75.4209 79.3734C77.7403 79.0597 79.5588 78.4964 81.0637 77.8061L82.066 77.3047L82.3167 77.3677L89.4637 80.5645C91.0938 81.003 91.909 81.7563 92.4104 82.5702L92.0967 83.8238L92.4733 84.0121L93.2255 82.6962C93.3508 82.1936 93.2879 81.7563 92.6633 81.442C91.8477 80.5016 91.3468 79.5617 91.5346 78.8095C91.0331 77.8685 90.3434 77.5549 89.5283 77.6178C88.7354 77.6808 87.9388 77.6808 87.146 77.6178C85.8924 77.5549 84.7018 77.3677 83.7608 76.991L83.1346 76.7409L86.6451 73.4805C86.9582 73.1657 87.7109 72.3517 87.9611 71.9751ZM54.0463 86.2061C54.0407 86.2011 54.0334 86.1977 54.0277 86.1932L52.9175 86.5816C52.4161 86.6446 51.9771 86.7076 51.5386 86.7705C51.1001 86.8335 50.7865 86.8323 50.4705 86.8953H50.4104C48.3417 86.6446 48.7178 85.391 50.0973 85.2651C50.216 85.2151 50.3449 85.1941 50.4734 85.2038C50.8304 85.1969 51.1875 85.2174 51.5414 85.2651C52.4116 85.3281 53.4032 85.6389 54.0306 86.1938L54.1745 86.1437L54.0463 86.2061ZM65.9568 86.2061C66.0992 86.0661 66.2706 85.9591 66.4588 85.8924C66.8973 85.6423 67.4622 85.454 68.026 85.3303C68.5275 85.2674 69.0941 85.2061 69.5303 85.2061C69.7186 85.2061 69.844 85.2061 69.9693 85.2674C71.3483 85.4568 71.7249 86.7104 69.6562 86.8976H69.5303C69.1543 86.8976 68.5904 86.8346 68.026 86.7728L67.0856 86.5839C66.8973 86.5215 66.6466 86.4585 66.4588 86.3961C66.2711 86.3337 66.0198 86.2708 65.832 86.2084L65.0793 85.9571L65.9568 86.2061ZM69.5303 57.2432L69.5933 57.1802L69.5303 57.3056V57.2432ZM66.4588 57.4934L67.9007 61.1304V61.1933C67.4622 62.1332 66.9602 63.0731 66.4588 63.9517C65.8967 64.8916 65.3908 65.8315 64.7662 66.7101C64.7033 66.8349 64.5779 66.9603 64.5155 67.1486L63.9534 67.8378L63.5767 67.0221L61.9465 63.2614L61.4451 62.0079L61.9465 60.6278L62.6369 58.8734C62.95 57.9948 63.2631 57.1178 63.5762 56.178C63.7651 55.6765 63.9528 55.2364 64.0782 54.735L64.6403 52.6039L64.7657 53.0429L65.8939 56.178L66.4588 57.4934ZM58.5614 70.5962L57.934 69.907L57.5591 69.4674L57.934 68.7777L58.5614 67.713L59.3765 66.27L59.9386 65.1423L60.0016 65.0164L60.5637 66.2076L60.7537 66.5831L61.2557 67.3358L61.9449 68.5893L62.3839 69.342L61.9449 69.78L61.2557 70.5956L60.7537 71.0976L59.9386 72.0358L59.8762 72.0982L58.5614 70.5962ZM58.8121 73.1657L58.5614 73.4175L58.4366 73.4799L58.3101 73.4175L57.934 73.7306L56.7417 74.7341C56.5699 74.8996 56.3815 75.0471 56.1796 75.1742C55.74 75.4873 55.2391 75.801 54.8001 76.0517C53.7669 76.7312 52.6759 77.3184 51.5397 77.8067L50.9776 77.995H50.9146L51.3542 77.5554C51.4166 77.4925 51.4785 77.4306 51.542 77.3682C52.7078 76.1409 53.7967 74.8427 54.8024 73.4811C55.1155 73.1668 55.3645 72.7908 55.6175 72.413L56.1796 71.5979L56.3044 71.4096L57.1824 72.413L57.934 73.1016L58.3101 73.4164L58.5614 73.2275L58.7491 73.1016L58.8121 73.1657ZM61.0044 73.1027L61.2557 73.2922L61.5688 73.5423L61.9449 73.2287L62.7594 72.5389L63.5745 71.662L63.7634 71.4737L64.3896 72.4141C64.5155 72.6019 64.6409 72.7896 64.7662 72.9763L66.4588 75.0438C66.9477 75.6583 67.4709 76.2446 68.026 76.7999C68.2138 77.0506 68.4027 77.2384 68.5882 77.4885L69.3398 78.1783L68.9643 78.1159C68.6502 77.9911 68.3367 77.8657 68.0238 77.7398C67.5218 77.4885 66.9557 77.2384 66.4566 76.9877L64.764 76.0478C64.3873 75.7971 64.0118 75.5463 63.5722 75.2321C63.4475 75.1703 63.3221 75.0438 63.1967 74.919L61.9426 73.9161L61.5665 73.5395L61.5036 73.6025L61.2534 73.4147L60.9398 73.1629L61.0044 73.1027ZM71.9098 20.1304C72.0358 19.8803 72.0358 19.5683 71.9728 19.1905C72.7873 19.1905 73.603 19.2535 74.2922 19.0017C74.5654 18.9276 74.8211 18.7997 75.0443 18.6256L76.8628 18.5002V18.9387C76.1107 19.2535 75.2956 19.8803 74.3546 20.7572L74.2922 20.8202L73.7908 21.3216L73.8531 21.2586C73.6187 20.9074 73.2938 20.626 72.9127 20.4441L71.7221 20.2564L71.9098 20.1304ZM68.0232 22.7011C68.2739 22.4504 68.5247 22.1997 68.9007 22.0119L69.5275 22.3239L70.4685 22.7635C70.0938 23.0772 69.7801 23.3279 69.5275 23.5156C68.9007 23.9546 68.4595 24.2054 68.0232 24.3931C67.772 24.4566 67.5212 24.5185 67.2087 24.5809L66.8321 24.2054C67.148 23.7039 67.5241 23.1401 68.026 22.7011H68.0232ZM61.9449 33.5458V33.4828C62.4468 32.3552 63.0129 31.227 63.5751 30.1606C64.0146 29.4085 64.3902 28.6569 64.7668 27.9683C65.2682 27.1532 65.7067 26.3381 66.2087 25.5241C66.2711 25.5865 66.3964 25.5865 66.4594 25.5865C67.0215 25.7108 67.5274 25.6489 68.0266 25.5241C68.5518 25.3237 69.0558 25.0714 69.5309 24.7709C69.9699 24.4583 70.4719 24.0817 70.9104 23.7056L71.4112 24.0187L71.5995 24.0817L71.4742 24.2706C71.4503 24.2951 71.4322 24.3248 71.4213 24.3573C71.4104 24.3898 71.4069 24.4243 71.4112 24.4583C70.785 25.9004 70.1582 27.4047 69.5309 28.9711C69.03 30.2247 68.528 31.5424 68.0266 32.8578C67.4645 34.2378 66.9586 35.6167 66.4594 37.0586C66.2087 37.6859 66.0203 38.3127 65.7691 38.9389L64.7668 41.7603L64.5161 42.5748L63.5751 40.256L62.8235 38.2498L61.9454 36.2435L61.3833 34.8646L61.9449 33.5458ZM59.9386 38.1851L60.0016 38.0598L60.7537 40.0666L61.2557 41.2566L61.5058 41.8834L61.9449 43.5766L63.136 47.5891L63.0731 48.0275V48.0888L62.3839 51.1631C62.2585 51.6634 62.1332 52.2278 61.9449 52.7933C61.7571 53.5455 61.5058 54.36 61.2557 55.1133C61.1298 55.4258 61.0044 55.6754 60.942 55.9902L60.7537 56.3668L60.0016 58.4355L59.9386 58.3107L59.0611 55.9902C58.9363 55.4893 58.7474 55.0503 58.5597 54.5483C58.3714 53.7962 58.1212 53.1064 57.9323 52.4173C57.8075 51.9782 57.7446 51.5392 57.6198 51.1643L56.8677 47.9039L56.6788 47.0899L56.8677 47.7167C57.1808 46.3996 57.5574 45.146 57.9323 43.8942C58.1212 43.2044 58.3714 42.5771 58.5597 41.9503C58.8734 41.0104 59.2494 40.0705 59.5631 39.1289L59.9386 38.1851ZM50.4728 22.3891L51.1625 22.0136C51.2873 22.076 51.4132 22.2013 51.5386 22.2637C52.2907 22.8259 52.7922 23.5173 53.2306 24.207L52.8551 24.5826C52.3537 24.4583 51.9771 24.3948 51.5386 24.1441C51.1625 23.9563 50.9113 23.7686 50.4705 23.3919C50.2193 23.2672 49.9686 23.0159 49.6554 22.7652L50.4728 22.3891ZM47.2124 20.4458C46.8313 20.6277 46.5064 20.9091 46.272 21.2603L46.3973 21.4481C46.1713 21.2345 45.9618 21.0041 45.7705 20.7589C44.7671 19.819 43.9526 19.2552 43.0723 18.9404V18.5019L45.0156 18.6273C45.2234 18.8249 45.4855 18.9559 45.7683 19.0034C46.458 19.2552 47.2102 19.1922 48.0877 19.1922C48.0253 19.5042 48.0253 19.819 48.1506 20.0692L48.4013 20.258L47.2124 20.4458ZM51.5409 31.6048C51.1648 30.6637 50.8517 29.7238 50.4728 28.7834L48.5919 24.2706V24.207L48.5295 24.0817L48.5919 24.0187L49.2187 23.7056C49.6577 24.0187 50.0343 24.3335 50.4728 24.6466C50.8494 24.8973 51.1625 25.1469 51.5409 25.3358C52.23 25.6489 52.9827 25.7743 53.8602 25.5241C54.1739 26.0863 54.487 26.5922 54.8007 27.1543C55.3021 27.9694 55.7406 28.7845 56.1802 29.5996C56.3679 29.9757 56.6186 30.4141 56.8069 30.7913L57.9346 33.2355L58.5614 34.6122L58.6873 34.9259L58.5614 35.176L57.934 36.6803L57.2448 38.3105L56.1768 41.0087L55.5494 42.6389L54.7973 40.5708L54.2352 38.8777C53.3566 36.3672 52.4785 33.9854 51.5386 31.6031L51.5409 31.6048ZM54.0485 56.0537L54.8007 53.7967L55.301 52.4173L55.9283 54.6742C55.9907 54.925 56.1161 55.2364 56.179 55.4893C56.5538 56.6799 56.9299 57.8083 57.3072 58.8745L57.9335 60.4412L58.5608 62.009L57.9335 63.4503L56.179 67.5882L56.0531 67.9013L55.4258 66.9614C55.2386 66.7113 54.9873 66.3993 54.7996 66.0833C53.7963 64.4539 52.8559 62.7613 51.9782 61.0056L54.0485 56.0537ZM50.4104 57.0549L50.4734 57.1178V57.1802L50.4104 57.1178V57.0549ZM37.8101 76.1759L37.6848 76.0506L36.0546 74.7965C35.2395 74.0443 34.5497 73.2922 34.0483 72.4141L33.9859 72.2258L34.5481 72.4141C35.0495 72.5389 35.6774 72.5389 36.805 72.3517C37.0557 72.2258 37.3672 72.1005 37.6831 71.9751C39.3077 71.2369 40.7759 70.1942 42.0082 68.9036C43.2623 66.8968 44.5164 64.7657 45.2685 62.0703C45.5828 60.8161 45.5828 59.8779 45.5198 59.3119C45.3254 57.382 44.7044 55.5195 43.7019 53.8591C43.1397 52.4797 41.9469 51.1648 40.2537 49.8472C39.1857 49.4711 38.3104 49.0945 37.6836 48.5931C37.0569 48.0916 36.5549 47.5908 36.1782 47.0264C35.3013 45.8982 35.4267 44.8341 36.3671 43.8919C37.7466 41.8227 37.37 40.7575 36.1164 40.0694L35.6779 40.5079C37.4324 41.197 36.8056 42.3882 35.9281 43.6423C35.1765 44.2663 34.3614 44.8284 33.9854 45.6447C33.3586 46.8993 33.5463 47.7144 33.9854 48.466C34.1107 48.7178 34.4868 49.3446 35.0534 49.7831C35.4924 50.0968 36.1215 50.2845 36.746 50.2845C37.0597 50.2845 37.3733 50.3469 37.687 50.3469C38.4392 50.4099 39.1283 50.5352 39.7557 50.7859C40.3178 51.4127 40.9468 51.9771 41.26 52.6669C42.8272 56.8666 43.4523 61.1304 42.0121 66.646C41.3853 68.6529 40.0688 70.2201 37.687 70.5962C37.248 70.6591 36.809 70.6591 36.3075 70.6591C35.7454 70.5962 35.3047 70.4708 34.8651 70.3443L33.7369 69.7181V69.5928C34.299 68.7777 34.8651 68.0879 36.0568 68.2138C36.593 68.3283 37.1389 68.3914 37.687 68.4022C40.0064 68.4646 40.6956 67.274 40.3853 65.0799L39.6955 65.0164C40.0086 66.9603 39.2559 67.5871 37.6893 67.3363C37.5009 67.274 37.3126 67.211 37.1271 67.211C35.2468 66.1429 34.7454 65.1423 33.8049 64.8916C32.6137 64.5779 31.485 65.0799 30.9841 66.0822C25.1542 58.3096 26.0935 47.778 26.5955 41.1324C26.6579 40.1279 27.7867 37.1828 29.2286 36.2418C31.2978 33.6712 33.6796 34.5487 36.2496 36.931C36.7511 37.4931 37.253 38.0598 37.6921 38.6871C39.1334 40.505 40.6377 42.6361 41.8924 44.9555C43.1459 47.3378 44.4624 49.7201 45.779 52.4161C46.2804 53.6073 46.847 54.8614 47.4092 56.178L48.5998 59.4383L49.1619 60.8797L48.5998 62.009L47.91 63.5757C47.3479 64.8927 46.7194 66.2087 45.779 67.7141C44.5254 69.7192 42.7698 71.9762 40.0114 74.86C39.3841 75.2984 38.7573 75.6756 38.1305 76.0517L37.8101 76.1759ZM47.9021 78.5566H46.7739C46.3979 78.5566 46.0848 78.5566 45.7711 78.4953C43.3882 78.3694 41.0694 77.742 38.7495 76.9275L38.6865 76.8646L38.9372 76.7398C41.3825 75.2344 43.6395 73.4794 45.7711 71.2224C46.8095 70.1123 47.753 68.9171 48.5919 67.6495C48.968 67.0873 49.344 66.5207 49.6599 65.9557L50.475 64.5774L50.7887 63.9512L51.5409 65.1418L53.171 67.5865L54.8012 69.5922L55.1144 69.9688L54.8012 70.3438L51.5409 75.1096L51.1648 75.6104L50.475 76.5503L49.0956 78.3064L48.5941 78.3694L47.9021 78.5566ZM61.9449 85.9543C62.3839 86.0802 62.7594 86.268 63.136 86.3933L63.5745 86.5187L63.8882 86.644L63.5745 86.8318V86.8947C63.1469 87.3273 62.7491 87.7884 62.3839 88.2748C62.2585 88.4625 62.0702 88.7121 61.9449 88.901C61.6947 89.3395 61.4434 89.7785 61.2557 90.2175C61.0674 90.5306 60.942 90.8437 60.7537 91.158C60.5659 91.6594 60.4406 92.0979 60.2523 92.5993L59.9386 93.352L59.6255 92.5993C59.3748 91.7224 58.9987 90.8437 58.5574 89.9662C58.3691 89.6537 58.1814 89.2771 57.9301 88.8982C57.8053 88.7093 57.6175 88.4597 57.4916 88.272C57.1785 87.77 56.7395 87.268 56.3634 86.8919L56.1757 86.7671L56.0497 86.6412L56.1757 86.5783L56.8024 86.3905C57.1785 86.2651 57.5551 86.0774 57.9301 85.9515C58.1814 85.8891 58.3691 85.8261 58.5574 85.7643C58.6834 85.7013 58.8081 85.6389 58.8711 85.6389L59.9392 85.2612L60.7543 85.5754L61.1303 85.7013H61.2562C61.4434 85.7677 61.6947 85.8924 61.9449 85.9548V85.9543ZM71.4107 81.1896C70.7844 81.2537 70.1577 81.3165 69.5303 81.3779C69.0295 81.4409 68.5275 81.5039 68.026 81.6287C67.4639 81.6922 66.958 81.7551 66.4588 81.8799L64.7662 82.256C64.5155 82.3819 64.2041 82.4443 63.9511 82.5067L63.5745 82.6321L61.9443 83.2589L61.2551 83.572L60.7531 83.6973L59.938 84.011L59.8756 84.0739L58.5591 83.5118L57.9318 83.2611L56.1773 82.5714L56.0514 82.509C55.613 82.3842 55.2369 82.2582 54.7979 82.1947C53.7298 81.8822 52.6663 81.6944 51.5375 81.5679C51.1614 81.5061 50.8483 81.4431 50.4694 81.3802C49.8421 81.3184 49.2153 81.3184 48.5885 81.256C48.4626 81.256 48.2754 81.1919 48.0871 81.1919C48.2125 80.9412 48.4008 80.754 48.5885 80.5027C48.8422 80.1742 49.1143 79.8604 49.4036 79.5628L49.7797 79.1867L50.4694 78.9984L51.1592 78.8107C51.284 78.7466 51.4099 78.7466 51.5352 78.6842C52.7264 78.3087 53.8546 77.9326 54.7956 77.4312C55.297 77.1805 55.7355 76.9298 56.1751 76.679C56.8019 76.3654 57.3651 75.9258 57.9295 75.5508C58.0554 75.4879 58.1808 75.362 58.3056 75.299L58.5569 75.0483L59.8734 73.9802L59.9358 74.0432L60.7537 74.7341L61.2557 75.0477L61.9449 75.6756L62.4468 76.0517C62.8216 76.3017 63.1975 76.5524 63.5745 76.8038C64.0141 76.9916 64.3896 77.2423 64.7662 77.4306C65.3284 77.6813 65.8343 77.932 66.4588 78.1822C66.9602 78.3711 67.4622 78.5583 68.026 78.7443C68.2768 78.8084 68.4651 78.9338 68.7158 78.9962L69.5303 79.1845L70.5337 79.4346L70.6585 79.4982C70.91 79.8111 71.1607 80.1244 71.4107 80.438C71.5836 80.6801 71.7723 80.9106 71.9756 81.1278C71.7873 81.1902 71.599 81.1902 71.4107 81.1902V81.1896ZM81.2537 77.0529C78.9337 77.9304 76.6773 78.5566 74.295 78.6831C73.9189 78.7455 73.6052 78.7455 73.2269 78.7455C72.8486 78.7455 72.4742 78.7455 72.0982 78.6831L71.4079 78.5577L71.0947 78.4964L69.5275 76.5514L68.713 75.5497L68.0232 74.4209L66.456 72.1634L64.9512 70.0329L66.456 68.1514L66.7697 67.7135L68.0232 65.8321L69.2144 64.0771L69.5275 64.7663L70.2802 66.0828C70.6557 66.7107 71.0324 67.2745 71.4079 67.8383C72.2865 69.2173 73.2888 70.409 74.2922 71.4742C76.2813 73.5842 78.5612 75.3997 81.0631 76.8657L81.3133 76.991L81.2537 77.0529ZM85.9548 45.77C85.6417 44.9549 84.7642 44.3911 84.0121 43.7643C83.1346 42.5102 82.5696 41.319 84.2628 40.6922L83.8243 40.2538C82.6326 40.8806 82.1941 41.9458 83.573 44.015C84.4505 45.0179 84.6411 46.0207 83.7608 47.1495C83.4477 47.7116 82.9463 48.2783 82.3189 48.7797C81.6297 49.2822 80.8146 49.6583 79.7488 50.0344C78.0562 51.2874 76.8027 52.6045 76.2388 53.9834C75.29 55.6631 74.6927 57.5183 74.4833 59.4361C74.4203 60.0629 74.4203 60.9409 74.7334 62.1945C75.4232 64.8927 76.6773 67.0851 77.9938 69.0278C79.2474 70.3432 80.6921 71.3472 82.3189 72.1617C82.5696 72.2882 82.8811 72.413 83.197 72.5378C84.265 72.6637 84.8896 72.6637 85.3893 72.6008L85.9514 72.3506L85.889 72.6008C85.4506 73.4164 84.6984 74.2309 83.8833 74.9207L82.3155 76.1748L82.1907 76.2996L81.8776 76.1748C81.2503 75.7987 80.6229 75.4216 79.9967 74.9831C77.2378 72.1617 75.5457 69.9683 74.2916 68.0244C73.2882 66.4572 72.6614 65.0788 72.0993 63.7612L71.409 62.2569L70.8468 61.0033L71.409 59.4991L72.6007 56.3646C73.1628 54.9851 73.7289 53.731 74.2933 52.4769C75.5474 49.8444 76.8639 47.4626 78.1158 45.0803C79.3109 42.8604 80.7185 40.7616 82.3189 38.8136C82.7579 38.1862 83.2594 37.6224 83.699 37.058C86.3314 34.6763 88.7132 33.7976 90.7819 36.3683C92.1608 37.3706 93.3525 40.3184 93.4144 41.3207C93.9163 47.9028 94.8568 58.4355 89.0263 66.2087C88.4642 65.2059 87.3961 64.7039 86.1431 65.0175C85.2651 65.3312 84.7012 66.2711 82.8827 67.3375C82.6944 67.3375 82.5061 67.4004 82.3206 67.4617C80.7539 67.7141 80.0018 67.0868 80.3143 65.1435L79.6252 65.2059C79.2491 67.3982 80.0018 68.591 82.3234 68.5281C82.8511 68.5202 83.3765 68.4575 83.8912 68.3409C85.1448 68.215 85.7092 68.9677 86.2106 69.7192L86.273 69.8457L85.1448 70.4719C84.6433 70.6603 84.1419 70.7851 83.6399 70.7851C83.2015 70.7851 82.7 70.7851 82.3234 70.7227C79.9416 70.3455 78.5627 68.7788 77.9983 66.7737C76.4935 61.2557 77.1827 56.9925 78.7499 52.8563C79.0012 52.1042 79.6909 51.6022 80.2548 51.0378C80.8169 50.6612 81.5089 50.5993 82.3234 50.4756C82.6371 50.4756 82.9508 50.4756 83.2639 50.4127C83.8288 50.4127 84.455 50.2873 84.8941 49.9118C85.5214 49.4722 85.8969 48.8438 86.0228 48.5942C86.3944 47.8398 86.5827 47.0247 85.9548 45.7706V45.77Z" fill="black"/>
<path d="M69.3417 89.9047C69.3417 89.717 69.3417 89.6546 69.4046 89.5916C69.4385 89.5577 69.4825 89.5358 69.53 89.5292C69.5929 89.5292 69.7183 89.4662 69.8437 89.4662C70.2036 89.461 70.5627 89.5031 70.9117 89.5916C71.0371 89.717 71.2254 89.7793 71.4126 89.9047C71.4755 89.9047 71.4755 89.9671 71.5385 89.9671C71.7892 90.0936 72.0405 90.9699 72.2277 90.9699C72.6661 91.3471 72.7898 89.9671 72.6043 89.5916C72.4789 89.2155 72.3536 89.0295 72.2277 88.9648C72.1653 88.9019 71.9146 88.9019 71.6009 88.9019H64.3893C64.0761 88.9019 63.8878 88.9019 63.763 88.9648C63.7001 89.0272 63.6377 89.0902 63.5742 89.1526C63.5742 89.2779 63.5118 89.4033 63.4494 89.5916C63.4111 89.6698 63.3896 89.7553 63.3864 89.8423C63.261 90.0936 63.3864 90.7204 63.5742 90.9104C63.7001 91.0357 63.763 91.0357 63.8249 90.9722C64.0137 90.9722 64.2639 90.0958 64.4522 89.9694C64.5648 89.9212 64.6703 89.858 64.7659 89.7816C64.9536 89.7192 65.0166 89.6568 65.142 89.5938C65.3297 89.5314 65.7041 89.4685 66.1448 89.4685C66.2533 89.4586 66.3622 89.4805 66.4585 89.5314C66.524 89.5422 66.5873 89.5632 66.6462 89.5938C66.7092 89.6568 66.7092 89.7192 66.7092 89.907V93.7907C66.7092 93.9172 66.7092 93.9796 66.6462 94.0426C66.6462 94.105 66.5838 94.1668 66.4585 94.2303H66.3331C66.2078 94.2916 66.0824 94.3546 66.0195 94.3546C66.0195 94.4181 65.2044 94.6064 65.2044 94.6688C65.2044 94.7312 65.4551 94.7942 65.7665 94.7942H69.5283C70.0904 94.7942 70.8448 94.8571 70.8448 94.6688C70.8448 94.6064 70.0297 94.4181 69.9673 94.3546C69.9049 94.2911 69.842 94.2916 69.7166 94.2303H69.5283C69.4029 94.1668 69.34 94.105 69.34 94.0426V89.9041L69.3417 89.9047Z" fill="black"/>
<path d="M56.1783 12.7965C56.3657 12.9839 56.553 13.1712 56.7404 13.3586C56.7404 14.2361 57.2418 14.6122 57.931 14.4868C58.1534 14.4828 58.3704 14.4179 58.5584 14.2991C58.8091 13.7965 59.1205 13.4216 59.6866 13.7965C59.8125 13.86 59.8749 13.9854 59.9373 14.0484C60.251 14.2361 60.4994 14.4239 60.7524 14.5492C60.9407 14.6122 61.0661 14.6751 61.2544 14.7381H61.9435C62.3826 14.6751 62.8216 14.4868 63.3854 14.176C63.463 14.1047 63.5266 14.0197 63.5732 13.9252C64.0752 13.4238 64.5142 12.9213 64.7649 12.2951C65.078 11.7329 65.327 11.1044 65.3922 10.4153C65.3922 10.1634 65.2034 9.91384 64.7649 9.66313C64.39 9.44685 63.9897 9.27804 63.5732 9.16058C63.2601 9.03579 62.884 8.84747 62.5703 8.72268C62.3826 8.78451 62.1943 8.72268 61.9435 8.65972C61.6844 8.5978 61.4464 8.46778 61.2544 8.28309C61.1424 8.23389 61.0528 8.14469 61.0031 8.03294L61.2544 7.59391L61.3168 7.46912C61.5045 7.28024 61.7558 7.09192 61.9435 6.90698C62.6957 6.21668 63.2601 5.65285 63.5737 5.15031C64.5772 3.89674 64.4518 3.207 63.5737 2.8315C63.1982 2.64374 62.6344 2.58078 61.9435 2.51839C61.6934 2.51839 61.5045 2.45543 61.2544 2.45543H60.7541C60.4809 2.44737 60.2077 2.46847 59.939 2.51839L58.9991 2.89333C58.8737 2.64262 58.7478 2.4543 58.56 2.32838C58.3717 2.14063 58.184 2.01528 57.9327 2.01528C57.6202 1.95288 57.3706 2.07823 57.0558 2.4543L56.3031 3.08165C56.2407 3.3318 56.366 3.58307 56.4284 3.77026L56.868 4.5224C56.6167 4.71184 56.366 4.89959 56.1783 5.02495C55.5509 5.52638 55.1102 5.9654 54.7988 6.40387C54.2974 7.15657 54.1096 7.84631 54.1096 8.78564C54.0467 9.60074 54.3598 10.4158 54.7988 11.1056C55.1749 11.7301 55.6763 12.2939 56.1783 12.7965ZM59.939 11.0404C59.7507 11.354 59.6259 11.7931 59.5005 11.9808C59.3122 11.9808 59.6259 10.2888 59.4375 10.1005C59.5005 9.78736 59.6259 9.66201 59.8142 9.59849H59.939C60.1902 9.59849 60.5663 9.59849 60.7541 9.7244C61.0048 9.78736 61.0677 9.97455 60.7541 10.1623C60.6917 10.2888 60.5663 10.3517 60.378 10.4141C60.2027 10.601 60.0548 10.8118 59.939 11.0404ZM61.2561 10.4141C61.2561 10.3517 61.3184 10.3517 61.4438 10.2888C61.5995 10.2101 61.7708 10.1669 61.9452 10.1623C62.4333 10.0563 62.943 10.1233 63.3871 10.3517C63.4501 10.4141 63.5125 10.476 63.5749 10.476C63.8885 10.6649 64.0768 10.9785 64.0768 11.544C64.1392 11.6694 63.9515 12.1062 63.5749 12.5475C63.3247 12.923 62.8857 13.299 62.572 13.4255C62.3669 13.4746 62.156 13.4958 61.9452 13.4885C61.6316 13.4255 61.4438 13.3625 61.2561 13.2378C61.043 13.0957 60.8701 12.9011 60.7541 12.6728C60.7387 12.5785 60.695 12.491 60.6287 12.4221C60.5663 11.86 60.5663 11.2939 60.7541 10.8549C60.8746 10.6619 61.0492 10.5087 61.2561 10.4141ZM59.5005 3.89337C59.6259 3.76801 59.8142 3.70562 59.939 3.64322C60.1902 3.58082 60.5011 3.58082 60.7541 3.76801C60.817 3.76801 60.88 3.83041 61.0048 3.89337C61.0677 3.89337 61.1301 3.95633 61.2561 4.01985C61.6316 4.3324 61.8823 4.77199 61.6951 5.33581C61.5692 5.58652 61.3814 5.89795 61.2561 6.15035C61.0677 6.27626 60.9424 6.46402 60.7541 6.58937C60.5248 6.83253 60.2471 7.02497 59.939 7.15432C59.6883 7.27911 59.4375 7.40391 59.1874 7.40391L58.8737 4.58367L59.5005 3.89337ZM56.1783 6.33866C56.5214 6.0585 56.901 5.82609 57.3065 5.6478C57.5578 7.77885 57.4318 9.97287 57.1811 12.1686C56.8051 11.8555 56.4914 11.6064 56.1783 11.3535C55.3632 10.5384 54.9236 9.72328 54.9236 8.78283C54.9236 7.90533 55.3013 7.0284 56.1783 6.33866Z" fill="black"/>
</svg>
