<svg width="2036" height="1144" viewBox="0 0 2036 1144" fill="none" xmlns="http://www.w3.org/2000/svg">
<path d="M477.021 137.887C356.521 173.387 378.021 117.731 167.52 87.731C20.7858 66.8187 -20.0722 386 45.9741 507C112.02 628 63.5202 962.422 63.5202 962.422H249.02H2035.02C1986.6 943.959 1922.52 646 1933.55 557C1944.58 468 2010.14 117.505 1669.52 248.887C1459.52 329.887 1643.02 160.387 1536.02 109.887C1429.02 59.3867 1327.58 139.863 1243.52 184.387C1159.46 228.91 1017.52 269.887 951.02 184.387C910.119 131.8 1070.52 35.3866 914.52 4.88663C758.52 -25.6134 597.521 102.387 477.021 137.887Z" fill="#53B3A1"/>
<path d="M477.021 167.231C356.521 202.731 378.021 147.075 167.521 117.075C21.9467 96.3282 -54.9169 328.5 45.5518 471C146.021 613.5 63.5203 962.423 63.5203 962.423H249.021H2035.02C1998.54 948.511 2063.02 638 1950.57 531C1838.11 424 2009.61 116.189 1653.02 253.731C1443.02 334.731 1621.02 169.731 1514.02 119.231C1407.02 68.7309 1327.58 139.863 1243.52 184.387C1159.46 228.911 1017.52 269.887 951.02 184.387C910.119 131.8 1070.02 34.7308 914.02 4.23092C750.02 -27.833 597.521 131.731 477.021 167.231Z" fill="#7BCFBF"/>
<path d="M700.838 331.609L628.475 403.953C620.851 411.575 608.978 412.7 599.98 406.827L535.365 364.095C525.992 357.848 514.743 355.099 503.62 356.224C492.497 357.348 481.999 362.346 474 370.218L357.394 486.793C352.27 491.916 352.27 500.162 357.394 505.285C359.894 507.784 363.268 509.158 366.642 509.158C370.017 509.158 373.391 507.909 375.891 505.285L492.497 388.71C500.121 381.088 511.994 379.963 520.992 385.836L585.607 428.568C593.606 433.816 602.979 436.689 612.603 436.689C614.227 436.689 615.852 436.564 617.477 436.439C628.6 435.315 639.098 430.317 647.097 422.445L719.46 350.101V331.609H700.838Z" fill="#C42A56"/>
<path d="M741.706 327.736L719.335 350.101V369.718C719.335 376.965 725.209 382.837 732.458 382.837C739.707 382.837 745.581 376.965 745.581 369.718V318.49C745.581 321.863 744.331 325.112 741.706 327.736Z" fill="#C6ED07"/>
<path d="M743.706 311.743C743.831 311.868 743.956 312.117 743.956 312.242C743.956 312.117 743.831 311.993 743.706 311.743Z" fill="#C6ED07"/>
<path d="M745.581 318.49C745.581 318.115 745.581 317.615 745.456 317.24C745.456 316.99 745.456 316.866 745.331 316.616C745.331 316.366 745.331 316.116 745.206 315.866C745.206 315.616 745.081 315.491 745.081 315.241C745.081 314.991 744.956 314.866 744.956 314.616C744.831 314.367 744.831 314.242 744.706 313.992C744.581 313.742 744.581 313.617 744.456 313.367C744.331 313.117 744.331 312.992 744.206 312.742C744.081 312.492 744.081 312.367 743.956 312.118C743.831 311.993 743.706 311.743 743.706 311.618C743.581 311.368 743.456 311.243 743.331 310.993C743.206 310.743 743.081 310.618 742.956 310.493C742.831 310.368 742.706 310.118 742.581 309.993C742.331 309.619 742.081 309.369 741.706 308.994C741.456 308.744 741.081 308.369 740.706 308.119C740.581 307.994 740.456 307.869 740.207 307.744C740.082 307.619 739.832 307.495 739.707 307.37C739.582 307.245 739.332 307.12 739.082 306.995C738.957 306.87 738.707 306.745 738.582 306.62C738.332 306.495 738.207 306.37 737.957 306.37C737.707 306.245 737.582 306.245 737.332 306.12C737.082 305.995 736.957 305.995 736.707 305.87C736.457 305.745 736.332 305.745 736.082 305.62C735.832 305.62 735.707 305.495 735.457 305.495C735.207 305.495 735.082 305.37 734.832 305.37C734.582 305.37 734.332 305.245 734.082 305.245C733.833 305.245 733.708 305.121 733.458 305.121C733.083 305.121 732.583 304.996 732.208 304.996C728.833 304.996 725.459 306.245 722.959 308.869L700.588 331.234H719.335V349.726L741.706 327.361C744.331 325.112 745.581 321.863 745.581 318.49Z" fill="#AB1B44"/>
<path d="M641.598 179.174C641.348 179.174 641.223 179.049 641.098 178.924C640.848 178.674 640.848 178.175 641.098 177.8L783.795 35.1874C784.045 34.9375 784.545 34.9375 784.92 35.1874C785.17 35.4373 785.17 35.9371 784.92 36.3119L642.222 178.924C641.972 179.174 641.847 179.174 641.598 179.174Z" fill="white"/>
<path d="M640.849 174.551L634.6 185.421L645.473 179.174L640.849 174.551Z" fill="white"/>
<path d="M577.483 104.831L557.612 82.9652C554.987 80.0914 551.488 78.717 547.863 78.717C540.739 78.842 535.115 84.7145 535.115 91.8364V94.2104C535.49 96.4595 536.615 98.7085 538.24 100.583L561.236 125.947V104.831H577.483Z" fill="#C42A56"/>
<path d="M577.483 104.831H599.48C606.729 104.831 612.603 98.9583 612.603 91.7114C612.603 84.4645 606.729 78.592 599.48 78.592H548.113C547.988 78.592 547.863 78.592 547.863 78.592C551.488 78.592 554.987 79.9664 557.612 82.8402L577.483 104.831Z" fill="#C42A56"/>
<path d="M535.115 94.0854V142.94C535.115 150.187 540.989 156.059 548.238 156.059C555.487 156.059 561.361 150.187 561.361 142.94V125.822L538.365 100.458C536.49 98.7085 535.49 96.4594 535.115 94.0854Z" fill="#C42A56"/>
<path d="M547.863 78.717C544.739 78.717 541.614 79.8416 539.115 82.0906C535.615 85.2143 534.241 89.8373 535.115 94.2104V91.8364C535.115 84.5895 540.74 78.842 547.863 78.717Z" fill="#14899B"/>
<path d="M577.484 104.831H561.236V125.947L579.358 145.814C579.483 145.939 579.608 146.063 579.858 146.313C588.607 155.06 588.607 169.304 579.983 178.175L283.906 470.175C278.782 475.298 278.657 483.545 283.781 488.667C286.281 491.291 289.655 492.541 293.155 492.541C296.529 492.541 299.779 491.291 302.403 488.792L598.48 196.667L598.605 196.542C607.729 187.296 612.728 175.051 612.728 162.057C612.728 149.187 607.729 137.067 598.73 127.946L577.484 104.831Z" fill="#14899B"/>
<path d="M577.483 104.831L557.612 82.9652C554.987 80.0914 551.488 78.717 547.863 78.717C540.739 78.842 535.115 84.7145 535.115 91.8364V94.2104C535.49 96.4595 536.615 98.7085 538.24 100.583L561.236 125.947V104.831H577.483Z" fill="#14899B"/>
<path d="M469.126 540.27C468.876 540.27 468.751 540.145 468.626 540.02C468.376 539.77 468.376 539.271 468.626 538.896L745.206 262.389C745.456 262.139 745.956 262.139 746.331 262.389C746.581 262.639 746.581 263.139 746.331 263.513L469.751 540.02C469.501 540.145 469.376 540.27 469.126 540.27Z" fill="white"/>
<path d="M746.456 266.762L752.705 256.017L741.832 262.264L746.456 266.762Z" fill="white"/>
<path d="M775.076 147.688L614.728 308.119L631.725 291.127C636.849 286.004 645.098 286.004 650.222 291.127C655.346 296.249 655.346 304.496 650.222 309.619L793.698 166.18V147.688H775.076V147.688Z" fill="#015A00"/>
<path d="M623.976 330.485C620.602 330.485 617.227 329.235 614.727 326.611C609.603 321.489 609.603 313.242 614.727 308.119L437.006 485.794C431.882 490.916 431.882 499.163 437.006 504.286C439.506 506.785 442.88 508.159 446.255 508.159C449.629 508.159 453.004 506.91 455.503 504.286L650.097 309.744L633.099 326.736C630.6 329.11 627.35 330.485 623.976 330.485Z" fill="#6CCD00"/>
<path d="M650.097 291.127C644.973 286.004 636.724 286.004 631.6 291.127L614.603 308.119C609.479 313.242 609.479 321.489 614.603 326.611C617.102 329.11 620.477 330.485 623.851 330.485C627.226 330.485 630.6 329.235 633.1 326.611L650.097 309.619C655.221 304.621 655.221 296.249 650.097 291.127Z" fill="#C6ED07"/>
<path d="M806.697 121.574H731.334C724.085 121.574 718.211 127.446 718.211 134.693C718.211 141.94 724.085 147.813 731.334 147.813H775.202L797.573 125.447C799.948 122.823 803.322 121.574 806.697 121.574Z" fill="#C6ED07"/>
<path d="M815.946 143.939L793.574 166.305V210.161C793.574 217.408 799.448 223.28 806.697 223.28C813.946 223.28 819.82 217.408 819.82 210.161V134.818C819.82 138.067 818.445 141.315 815.946 143.939Z" fill="#C6ED07"/>
<path d="M819.82 134.693C819.82 134.194 819.82 133.819 819.695 133.444C819.695 133.194 819.695 133.069 819.57 132.819C819.57 132.569 819.57 132.319 819.445 132.069C819.445 131.82 819.32 131.695 819.32 131.445C819.32 131.195 819.195 131.07 819.195 130.82C819.07 130.57 819.07 130.445 818.945 130.195C818.82 129.945 818.82 129.82 818.695 129.571C818.57 129.321 818.57 129.196 818.445 128.946C818.32 128.696 818.32 128.571 818.195 128.321C818.07 128.196 817.945 127.946 817.945 127.821C817.82 127.571 817.695 127.446 817.57 127.197C817.445 126.947 817.32 126.822 817.195 126.697C817.07 126.572 816.945 126.322 816.82 126.197C816.57 125.822 816.32 125.572 815.946 125.322C815.696 125.072 815.321 124.698 815.071 124.448C814.946 124.323 814.696 124.198 814.571 124.073C814.446 123.948 814.196 123.823 814.071 123.698C813.946 123.573 813.696 123.448 813.446 123.323C813.321 123.198 813.071 123.073 812.946 123.073C812.696 122.948 812.571 122.823 812.321 122.823C812.071 122.698 811.946 122.698 811.696 122.573C811.446 122.449 811.321 122.449 811.071 122.324C810.821 122.199 810.696 122.199 810.446 122.074C810.196 122.074 810.072 121.949 809.822 121.949C809.572 121.949 809.447 121.824 809.197 121.824C808.947 121.824 808.697 121.699 808.447 121.699C808.197 121.699 808.072 121.574 807.822 121.574C807.447 121.574 806.947 121.449 806.572 121.449C803.198 121.449 799.823 122.698 797.324 125.322L774.952 147.688H793.449V166.18L815.821 143.814C818.445 141.315 819.82 138.067 819.82 134.693Z" fill="#6CCD00"/>
<path d="M732.458 305.37H681.092C673.843 305.37 667.969 311.243 667.969 318.49C667.969 325.737 673.843 331.609 681.092 331.609H700.838L723.21 309.244C725.834 306.62 729.084 305.37 732.458 305.37Z" fill="#C6ED07"/>
<path d="M1216.41 802.672L1144.04 875.016C1136.42 882.638 1124.55 883.762 1115.55 877.89L1050.93 835.158C1041.56 828.91 1030.31 826.162 1019.19 827.286C1008.06 828.411 997.566 833.409 989.567 841.28L872.961 957.855C867.837 962.978 867.837 971.225 872.961 976.348C875.461 978.846 878.835 980.221 882.21 980.221C885.584 980.221 888.959 978.971 891.458 976.348L1008.06 859.772C1015.69 852.151 1027.56 851.026 1036.56 856.898L1101.17 899.63C1109.17 904.878 1118.55 907.752 1128.17 907.752C1129.79 907.752 1131.42 907.627 1133.04 907.502C1144.17 906.377 1154.67 901.38 1162.66 893.508L1235.03 821.164V802.672H1216.41Z" fill="#C42A56"/>
<path d="M1257.27 798.798L1234.9 821.164V840.78C1234.9 848.027 1240.78 853.9 1248.03 853.9C1255.27 853.9 1261.15 848.027 1261.15 840.78V789.552C1261.15 792.926 1259.9 796.174 1257.27 798.798Z" fill="#C6ED07"/>
<path d="M1261.15 789.552C1261.15 789.177 1261.15 788.678 1261.02 788.303C1261.02 788.053 1261.02 787.928 1260.9 787.678C1260.9 787.428 1260.9 787.178 1260.77 786.928C1260.77 786.679 1260.65 786.554 1260.65 786.304C1260.65 786.054 1260.52 785.929 1260.52 785.679C1260.4 785.429 1260.4 785.304 1260.27 785.054C1260.15 784.804 1260.15 784.679 1260.02 784.43C1259.9 784.18 1259.9 784.055 1259.77 783.805C1259.65 783.555 1259.65 783.43 1259.52 783.18C1259.4 783.055 1259.27 782.805 1259.27 782.68C1259.15 782.43 1259.02 782.305 1258.9 782.056C1258.77 781.806 1258.65 781.681 1258.52 781.556C1258.4 781.431 1258.27 781.181 1258.15 781.056C1257.9 780.681 1257.65 780.431 1257.27 780.056C1257.02 779.806 1256.65 779.432 1256.27 779.182C1256.15 779.057 1256.02 778.932 1255.77 778.807C1255.65 778.682 1255.4 778.557 1255.27 778.432C1255.15 778.307 1254.9 778.182 1254.65 778.057C1254.52 777.932 1254.27 777.807 1254.15 777.682C1253.9 777.557 1253.77 777.432 1253.52 777.432C1253.27 777.308 1253.15 777.308 1252.9 777.183C1252.65 777.058 1252.52 777.058 1252.27 776.933C1252.02 776.808 1251.9 776.808 1251.65 776.683C1251.4 776.683 1251.27 776.558 1251.02 776.558C1250.77 776.558 1250.65 776.433 1250.4 776.433C1250.15 776.433 1249.9 776.308 1249.65 776.308C1249.4 776.308 1249.27 776.183 1249.02 776.183C1248.65 776.183 1248.15 776.058 1247.78 776.058C1244.4 776.058 1241.03 777.308 1238.53 779.931L1216.16 802.297H1234.9V820.789L1257.27 798.424C1259.9 796.174 1261.15 792.926 1261.15 789.552Z" fill="#AB1B44"/>
<path d="M1179 669.174C1178.75 669.174 1178.62 669.049 1178.5 668.924C1178.25 668.674 1178.25 668.175 1178.5 667.8L1321.2 525.187C1321.45 524.938 1321.95 524.938 1322.32 525.187C1322.57 525.437 1322.57 525.937 1322.32 526.312L1179.62 668.924C1179.37 669.174 1179.25 669.174 1179 669.174Z" fill="#14899B"/>
<path d="M1178.25 664.551L1172 675.422L1182.87 669.174L1178.25 664.551Z" fill="#14899B"/>
<path d="M1093.05 575.893L1073.18 554.028C1070.55 551.154 1067.05 549.78 1063.43 549.78C1056.31 549.904 1050.68 555.777 1050.68 562.899V565.273C1051.06 567.522 1052.18 569.771 1053.81 571.645L1076.8 597.009V575.893H1093.05Z" fill="#C42A56"/>
<path d="M1093.05 575.893H1115.05C1122.3 575.893 1128.17 570.021 1128.17 562.774C1128.17 555.527 1122.3 549.655 1115.05 549.655H1063.68C1063.56 549.655 1063.43 549.655 1063.43 549.655C1067.06 549.655 1070.55 551.029 1073.18 553.903L1093.05 575.893Z" fill="#C42A56"/>
<path d="M1050.68 565.148V614.002C1050.68 621.249 1056.56 627.122 1063.81 627.122C1071.05 627.122 1076.93 621.249 1076.93 614.002V596.884L1053.93 571.52C1052.06 569.771 1051.06 567.522 1050.68 565.148Z" fill="#C42A56"/>
<path d="M1093.05 575.894H1076.8V597.01L1094.93 616.876C1095.05 617.001 1095.18 617.126 1095.43 617.376C1104.17 626.122 1104.17 640.366 1095.55 649.237L799.474 941.238C794.349 946.361 794.224 954.607 799.349 959.73C801.848 962.354 805.223 963.603 808.722 963.603C812.097 963.603 815.346 962.354 817.971 959.855L1114.05 667.729L1114.17 667.604C1123.3 658.358 1128.3 646.114 1128.3 633.119C1128.3 620.25 1123.3 608.13 1114.3 599.009L1093.05 575.894Z" fill="#14899B"/>
<path d="M1093.05 575.893L1073.18 554.028C1070.55 551.154 1067.05 549.78 1063.43 549.78C1056.31 549.904 1050.68 555.777 1050.68 562.899V565.273C1051.06 567.522 1052.18 569.771 1053.81 571.645L1076.8 597.009V575.893H1093.05Z" fill="#14899B"/>
<path d="M984.693 1011.33C984.443 1011.33 984.318 1011.21 984.193 1011.08C983.943 1010.83 983.943 1010.33 984.193 1009.96L1260.77 733.451C1261.02 733.201 1261.52 733.201 1261.9 733.451C1262.15 733.701 1262.15 734.201 1261.9 734.576L985.318 1011.08C985.068 1011.21 984.943 1011.33 984.693 1011.33Z" fill="#6CCD00"/>
<path d="M1262.02 737.825L1268.27 727.079L1257.4 733.326L1262.02 737.825Z" fill="#6CCD00"/>
<path d="M809.722 995.464C809.222 995.464 808.723 995.214 808.348 994.84C807.598 994.09 807.598 992.84 808.348 992.091L1005.07 795.425C1005.82 794.675 1007.07 794.675 1007.82 795.425C1008.57 796.174 1008.57 797.424 1007.82 798.173L811.097 994.84C810.722 995.339 810.222 995.464 809.722 995.464Z" fill="white"/>
<path d="M1008.19 806.42L1023.81 779.557L996.817 795.05L1008.19 806.42Z" fill="white"/>
<path d="M1248.03 776.433H1196.66C1189.41 776.433 1183.54 782.305 1183.54 789.552C1183.54 796.799 1189.41 802.672 1196.66 802.672H1216.41L1238.78 780.306C1241.4 777.682 1244.65 776.433 1248.03 776.433Z" fill="#C6ED07"/>
<path d="M1268.81 517.49L1246.44 539.856V559.597C1246.44 566.844 1252.31 572.717 1259.56 572.717C1266.81 572.717 1272.68 566.844 1272.68 559.597V508.244C1272.56 511.618 1271.31 514.867 1268.81 517.49Z" fill="#019002"/>
<path d="M1259.43 495.125H1208.07C1200.82 495.125 1194.94 500.997 1194.94 508.244C1194.94 515.491 1200.82 521.364 1208.07 521.364H1227.81L1250.19 498.998C1252.81 496.374 1256.18 495.125 1259.43 495.125Z" fill="#019002"/>
<path d="M1227.94 521.364L1111.46 637.814C1102.21 647.06 1097.21 659.305 1097.21 672.299C1097.21 685.294 1102.33 697.539 1111.46 706.785L1115.33 710.658C1119.58 714.906 1121.96 720.654 1121.96 726.651C1121.96 732.649 1119.58 738.396 1115.33 742.644L1025.97 831.981C1017.47 840.478 1003.85 840.852 994.976 832.856L956.732 798.87C937.485 781.753 908.115 782.627 889.868 800.87L851.124 839.603C856.248 835.98 863.247 836.479 867.872 840.977C872.996 846.1 873.121 854.347 867.997 859.47L846.75 881.085L908.365 819.487C916.864 810.99 930.486 810.615 939.36 818.612L977.604 852.597C986.852 860.844 998.475 864.842 1009.97 864.842C1022.47 864.842 1034.97 860.094 1044.47 850.598L1133.83 761.261C1143.08 752.015 1148.08 739.771 1148.08 726.776C1148.08 713.782 1142.95 701.537 1133.83 692.291L1129.95 688.418C1125.7 684.169 1123.33 678.422 1123.33 672.424C1123.33 666.427 1125.7 660.679 1129.95 656.431L1246.44 539.981V521.364H1227.94Z" fill="#6CCD00"/>
<path d="M1272.56 508.244C1272.56 507.745 1272.56 507.37 1272.43 506.995C1272.43 506.745 1272.43 506.62 1272.31 506.37C1272.31 506.12 1272.31 505.87 1272.18 505.62C1272.18 505.371 1272.06 505.246 1272.06 504.996C1272.06 504.746 1271.93 504.621 1271.93 504.371C1271.81 504.121 1271.81 503.996 1271.68 503.746C1271.56 503.496 1271.56 503.371 1271.43 503.122C1271.31 502.872 1271.31 502.747 1271.18 502.497C1271.06 502.247 1271.06 502.122 1270.93 501.872C1270.81 501.747 1270.68 501.497 1270.68 501.372C1270.56 501.122 1270.43 500.997 1270.31 500.748C1270.18 500.498 1270.06 500.373 1269.93 500.248C1269.81 500.123 1269.68 499.873 1269.56 499.748C1269.31 499.373 1269.06 499.123 1268.68 498.873C1268.43 498.623 1268.06 498.249 1267.81 497.999C1267.68 497.874 1267.43 497.749 1267.31 497.624C1267.18 497.499 1266.93 497.374 1266.81 497.249C1266.68 497.124 1266.43 496.999 1266.18 496.874C1266.06 496.749 1265.81 496.624 1265.68 496.624C1265.43 496.499 1265.31 496.374 1265.06 496.374C1264.81 496.249 1264.68 496.249 1264.43 496.125C1264.18 496 1264.06 496 1263.81 495.875C1263.56 495.75 1263.43 495.75 1263.18 495.625C1262.93 495.625 1262.81 495.5 1262.56 495.5C1262.31 495.5 1262.18 495.375 1261.93 495.375C1261.68 495.375 1261.43 495.25 1261.18 495.25C1260.93 495.25 1260.81 495.125 1260.56 495.125C1260.18 495.125 1259.68 495 1259.31 495C1255.93 495 1252.56 496.249 1250.06 498.873L1227.69 521.239H1246.19V539.731L1268.56 517.365C1271.31 514.867 1272.56 511.618 1272.56 508.244Z" fill="#C6ED07"/>
<path d="M836.127 885.833C832.753 885.833 829.378 884.584 826.879 881.96C821.88 876.962 821.755 868.716 826.754 863.718L657.781 1034.89C652.657 1040.02 652.782 1048.26 657.906 1053.39C660.406 1055.89 663.78 1057.14 667.155 1057.14C670.529 1057.14 673.904 1055.89 676.528 1053.26L846.876 880.71L845.501 882.085C842.751 884.584 839.502 885.833 836.127 885.833Z" fill="#C6ED07"/>
<path d="M867.872 840.603C863.248 836.105 856.249 835.605 851.125 839.228L828.128 862.343L826.753 863.718C821.879 868.841 821.879 876.962 826.878 881.96C829.378 884.459 832.752 885.833 836.127 885.833C839.501 885.833 842.876 884.584 845.375 881.96L846.75 880.586L867.997 858.97C872.996 853.972 872.996 845.725 867.872 840.603Z" fill="#54BF01"/>
<path d="M1334.39 600.758C1334.51 601.008 1334.51 601.133 1334.64 601.383C1334.51 601.133 1334.39 600.883 1334.39 600.758Z" fill="#015A00"/>
<path d="M1329.01 594.51C1329.26 594.635 1329.39 594.76 1329.64 594.885C1329.39 594.76 1329.14 594.635 1329.01 594.51Z" fill="#015A00"/>
<path d="M1332.39 597.384C1332.51 597.509 1332.64 597.759 1332.76 597.884C1332.64 597.759 1332.51 597.634 1332.39 597.384Z" fill="#015A00"/>
<path d="M1333.14 598.509C1333.26 598.634 1333.39 598.884 1333.51 599.134C1333.39 598.884 1333.26 598.634 1333.14 598.509Z" fill="#015A00"/>
<path d="M1333.76 599.508C1333.89 599.758 1334.01 599.883 1334.01 600.133C1334.01 600.008 1333.89 599.758 1333.76 599.508Z" fill="#015A00"/>
<path d="M1330.14 595.26C1330.26 595.385 1330.51 595.51 1330.64 595.635C1330.39 595.51 1330.26 595.385 1330.14 595.26Z" fill="#015A00"/>
<path d="M1324.14 592.761C1324.39 592.761 1324.64 592.761 1324.89 592.886C1324.64 592.886 1324.39 592.886 1324.14 592.761Z" fill="#015A00"/>
<path d="M1322.26 592.636C1322.64 592.636 1323.14 592.636 1323.51 592.761C1323.14 592.636 1322.64 592.636 1322.26 592.636Z" fill="#015A00"/>
<path d="M1325.51 593.011C1325.76 593.011 1325.89 593.136 1326.14 593.136C1325.89 593.136 1325.64 593.136 1325.51 593.011Z" fill="#015A00"/>
<path d="M1327.89 593.886C1328.14 594.011 1328.26 594.011 1328.51 594.136C1328.26 594.136 1328.01 594.011 1327.89 593.886Z" fill="#015A00"/>
<path d="M1326.64 593.386C1326.89 593.511 1327.01 593.511 1327.26 593.636C1327.14 593.511 1326.89 593.511 1326.64 593.386Z" fill="#015A00"/>
<path d="M1290.64 618.75L1130.29 779.182L1147.29 762.189C1152.42 757.066 1160.67 757.066 1165.79 762.189C1170.91 767.312 1170.91 775.558 1165.79 780.681L1309.27 637.242V618.75H1290.64V618.75Z" fill="#015A00"/>
<path d="M1335.39 605.756C1335.39 605.381 1335.39 604.881 1335.26 604.506C1335.39 604.881 1335.39 605.256 1335.39 605.756Z" fill="#015A00"/>
<path d="M1335.14 603.132C1335.14 603.382 1335.26 603.632 1335.26 603.881C1335.14 603.632 1335.14 603.382 1335.14 603.132Z" fill="#015A00"/>
<path d="M1334.76 601.882C1334.76 602.132 1334.89 602.257 1334.89 602.507C1334.89 602.382 1334.89 602.132 1334.76 601.882Z" fill="#015A00"/>
<path d="M1139.54 801.547C1136.17 801.547 1132.79 800.298 1130.29 797.674C1125.17 792.551 1125.17 784.305 1130.29 779.182L952.574 956.856C947.449 961.979 947.449 970.225 952.574 975.348C955.073 977.847 958.448 979.222 961.822 979.222C965.197 979.222 968.571 977.972 971.071 975.348L1165.66 780.806L1148.67 797.799C1146.17 800.173 1142.92 801.547 1139.54 801.547Z" fill="#6CCD00"/>
<path d="M1165.66 762.189C1160.54 757.066 1152.29 757.066 1147.17 762.189L1130.17 779.182C1125.05 784.305 1125.05 792.551 1130.17 797.674C1132.67 800.173 1136.04 801.547 1139.42 801.547C1142.79 801.547 1146.17 800.298 1148.67 797.674L1165.66 780.681C1170.79 775.683 1170.79 767.312 1165.66 762.189Z" fill="#C6ED07"/>
<path d="M1328.39 594.136C1328.51 594.261 1328.76 594.386 1328.89 594.386C1328.76 594.386 1328.64 594.261 1328.39 594.136Z" fill="#C6ED07"/>
<path d="M1322.26 592.636H1246.9C1239.65 592.636 1233.78 598.509 1233.78 605.756C1233.78 613.003 1239.65 618.875 1246.9 618.875H1290.77L1313.14 596.51C1315.52 593.886 1318.89 592.636 1322.26 592.636Z" fill="#C6ED07"/>
<path d="M1327.26 593.636C1327.51 593.761 1327.64 593.761 1327.89 593.886C1327.64 593.761 1327.51 593.761 1327.26 593.636Z" fill="#C6ED07"/>
<path d="M1323.51 592.761C1323.76 592.761 1323.89 592.761 1324.14 592.886C1323.89 592.761 1323.76 592.761 1323.51 592.761Z" fill="#C6ED07"/>
<path d="M1331.51 615.002L1309.14 637.367V681.223C1309.14 688.47 1315.02 694.343 1322.26 694.343C1329.51 694.343 1335.39 688.47 1335.39 681.223V605.881C1335.39 609.129 1334.01 612.378 1331.51 615.002Z" fill="#C6ED07"/>
<path d="M1334.51 601.258C1334.64 601.508 1334.64 601.633 1334.76 601.883C1334.76 601.758 1334.64 601.508 1334.51 601.258Z" fill="#C6ED07"/>
<path d="M1326.01 593.261C1326.26 593.386 1326.39 593.386 1326.64 593.511C1326.51 593.386 1326.26 593.261 1326.01 593.261Z" fill="#C6ED07"/>
<path d="M1324.76 592.886C1325.01 592.886 1325.14 593.011 1325.39 593.011C1325.26 593.011 1325.01 592.886 1324.76 592.886Z" fill="#C6ED07"/>
<path d="M1332.76 597.884C1332.89 598.009 1333.01 598.259 1333.14 598.384C1333.01 598.259 1332.89 598.134 1332.76 597.884Z" fill="#C6ED07"/>
<path d="M1334.89 602.507C1334.89 602.757 1335.01 602.882 1335.01 603.132C1335.01 603.007 1335.01 602.757 1334.89 602.507Z" fill="#C6ED07"/>
<path d="M1333.51 599.009C1333.64 599.134 1333.76 599.384 1333.76 599.509C1333.76 599.384 1333.64 599.259 1333.51 599.009Z" fill="#C6ED07"/>
<path d="M1329.51 594.885C1329.76 595.01 1329.89 595.135 1330.01 595.26C1329.89 595.135 1329.76 595.01 1329.51 594.885Z" fill="#C6ED07"/>
<path d="M1334.14 600.133C1334.26 600.383 1334.26 600.508 1334.39 600.758C1334.26 600.508 1334.14 600.383 1334.14 600.133Z" fill="#C6ED07"/>
<path d="M1330.51 595.635C1330.89 595.885 1331.14 596.135 1331.39 596.51C1331.14 596.135 1330.89 595.885 1330.51 595.635Z" fill="#C6ED07"/>
<path d="M1335.26 603.881C1335.26 604.131 1335.39 604.256 1335.39 604.506C1335.26 604.256 1335.26 604.006 1335.26 603.881Z" fill="#C6ED07"/>
<path d="M1331.51 596.51C1331.76 596.76 1332.14 597.134 1332.39 597.384C1332.14 597.134 1331.89 596.76 1331.51 596.51Z" fill="#C6ED07"/>
<path d="M1335.39 605.756C1335.39 605.256 1335.39 604.881 1335.26 604.506C1335.26 604.256 1335.26 604.132 1335.14 603.882C1335.14 603.632 1335.14 603.382 1335.01 603.132C1335.01 602.882 1334.89 602.757 1334.89 602.507C1334.89 602.257 1334.76 602.132 1334.76 601.882C1334.64 601.633 1334.64 601.508 1334.51 601.258C1334.39 601.008 1334.39 600.883 1334.26 600.633C1334.14 600.383 1334.14 600.258 1334.01 600.008C1333.89 599.758 1333.89 599.633 1333.76 599.384C1333.64 599.259 1333.51 599.009 1333.51 598.884C1333.39 598.634 1333.26 598.509 1333.14 598.259C1333.01 598.009 1332.89 597.884 1332.76 597.759C1332.64 597.634 1332.51 597.384 1332.39 597.259C1332.14 596.885 1331.89 596.635 1331.51 596.385C1331.26 596.135 1330.89 595.76 1330.64 595.51C1330.51 595.385 1330.26 595.26 1330.14 595.135C1330.01 595.01 1329.76 594.885 1329.64 594.761C1329.51 594.636 1329.26 594.511 1329.01 594.386C1328.89 594.261 1328.64 594.136 1328.51 594.136C1328.26 594.011 1328.14 593.886 1327.89 593.886C1327.64 593.761 1327.51 593.761 1327.26 593.636C1327.01 593.511 1326.89 593.511 1326.64 593.386C1326.39 593.261 1326.26 593.261 1326.01 593.136C1325.76 593.136 1325.64 593.011 1325.39 593.011C1325.14 593.011 1325.01 592.886 1324.76 592.886C1324.51 592.886 1324.26 592.761 1324.01 592.761C1323.76 592.761 1323.64 592.636 1323.39 592.636C1323.01 592.636 1322.51 592.511 1322.14 592.511C1318.76 592.511 1315.39 593.761 1312.89 596.385L1290.52 618.75H1309.02V637.242L1331.39 614.877C1334.01 612.378 1335.39 609.129 1335.39 605.756Z" fill="#6CCD00"/>
<path d="M1417.91 783.238L1257.56 943.67L1274.56 926.677C1279.69 921.554 1287.93 921.554 1293.06 926.677C1298.18 931.8 1298.18 940.046 1293.06 945.169L1436.54 801.73V783.238H1417.91V783.238Z" fill="#14899B"/>
<path d="M1266.81 966.035C1263.44 966.035 1260.06 964.786 1257.56 962.162C1252.44 957.039 1252.44 948.793 1257.56 943.67L1079.84 1121.34C1074.72 1126.47 1074.72 1134.71 1079.84 1139.84C1082.34 1142.34 1085.72 1143.71 1089.09 1143.71C1092.47 1143.71 1095.84 1142.46 1098.34 1139.84L1292.93 945.294L1275.94 962.287C1273.44 964.661 1270.19 966.035 1266.81 966.035Z" fill="#14899B"/>
<path d="M1292.93 926.678C1287.81 921.555 1279.56 921.555 1274.44 926.678L1257.44 943.671C1252.31 948.794 1252.31 957.04 1257.44 962.163C1259.94 964.662 1263.31 966.036 1266.69 966.036C1270.06 966.036 1273.44 964.787 1275.94 962.163L1292.93 945.17C1298.06 940.172 1298.06 931.801 1292.93 926.678Z" fill="#0A6F74"/>
<path d="M1449.53 757.125H1374.17C1366.92 757.125 1361.05 762.997 1361.05 770.244C1361.05 777.491 1366.92 783.364 1374.17 783.364H1418.04L1440.41 760.998C1442.78 758.374 1446.16 757.125 1449.53 757.125Z" fill="#C42A56"/>
<path d="M1458.78 779.49L1436.41 801.856V845.712C1436.41 852.959 1442.28 858.831 1449.53 858.831C1456.78 858.831 1462.66 852.959 1462.66 845.712V770.369C1462.66 773.618 1461.28 776.866 1458.78 779.49Z" fill="#C42A56"/>
<path d="M1462.66 770.244C1462.66 769.745 1462.66 769.37 1462.53 768.995C1462.53 768.745 1462.53 768.62 1462.41 768.37C1462.41 768.12 1462.41 767.87 1462.28 767.62C1462.28 767.371 1462.16 767.246 1462.16 766.996C1462.16 766.746 1462.03 766.621 1462.03 766.371C1461.91 766.121 1461.91 765.996 1461.78 765.746C1461.66 765.496 1461.66 765.371 1461.53 765.122C1461.41 764.872 1461.41 764.747 1461.28 764.497C1461.16 764.247 1461.16 764.122 1461.03 763.872C1460.91 763.747 1460.78 763.497 1460.78 763.372C1460.66 763.122 1460.53 762.997 1460.41 762.748C1460.28 762.498 1460.16 762.373 1460.03 762.248C1459.91 762.123 1459.78 761.873 1459.66 761.748C1459.41 761.373 1459.16 761.123 1458.78 760.873C1458.53 760.623 1458.16 760.249 1457.91 759.999C1457.78 759.874 1457.53 759.749 1457.41 759.624C1457.28 759.499 1457.03 759.374 1456.91 759.249C1456.78 759.124 1456.53 758.999 1456.28 758.874C1456.16 758.749 1455.91 758.624 1455.78 758.624C1455.53 758.499 1455.41 758.374 1455.16 758.374C1454.91 758.249 1454.78 758.249 1454.53 758.125C1454.28 758 1454.16 758 1453.91 757.875C1453.66 757.75 1453.53 757.75 1453.28 757.625C1453.03 757.625 1452.91 757.5 1452.66 757.5C1452.41 757.5 1452.28 757.375 1452.03 757.375C1451.78 757.375 1451.53 757.25 1451.28 757.25C1451.03 757.25 1450.91 757.125 1450.66 757.125C1450.28 757.125 1449.78 757 1449.41 757C1446.03 757 1442.66 758.249 1440.16 760.873L1417.79 783.239H1436.29V801.731L1458.66 779.365C1461.28 776.867 1462.66 773.618 1462.66 770.244Z" fill="#0A6F74"/>
<path d="M1617.34 398.626L1612.82 394.104C1607.83 389.107 1605.03 382.335 1605.03 375.275C1605.03 368.215 1607.83 361.443 1612.82 356.445C1615.56 353.526 1617.07 349.651 1617.01 345.643C1616.94 341.635 1615.33 337.808 1612.49 334.973C1609.66 332.139 1605.83 330.52 1601.82 330.459C1597.81 330.398 1593.94 331.9 1591.02 334.648C1580.26 345.432 1574.22 360.042 1574.22 375.275C1574.22 390.507 1580.26 405.117 1591.02 415.902L1595.54 420.408C1600.53 425.406 1603.33 432.178 1603.33 439.238C1603.33 446.298 1600.53 453.07 1595.54 458.068L1458.29 595.317V617.115H1480.09L1617.34 479.88C1628.09 469.094 1634.13 454.484 1634.13 439.253C1634.13 424.022 1628.09 409.412 1617.34 398.626V398.626Z" fill="#C6ED07"/>
<path d="M1442.87 647.97H1506.66C1510.75 647.97 1514.67 646.346 1517.56 643.454C1520.45 640.562 1522.08 636.64 1522.08 632.55C1522.08 628.46 1520.45 624.538 1517.56 621.646C1514.67 618.754 1510.75 617.13 1506.66 617.13H1480.15L1453.83 643.449C1452.39 644.893 1450.69 646.036 1448.8 646.812C1446.92 647.589 1444.91 647.982 1442.87 647.97V647.97Z" fill="#14899B"/>
<path d="M1458.29 595.332V568.821C1458.35 566.757 1458 564.701 1457.26 562.776C1456.51 560.85 1455.39 559.094 1453.95 557.611C1452.51 556.128 1450.79 554.95 1448.89 554.145C1446.99 553.34 1444.94 552.925 1442.88 552.925C1440.81 552.925 1438.77 553.34 1436.87 554.145C1434.96 554.95 1433.24 556.128 1431.81 557.611C1430.37 559.094 1429.24 560.85 1428.5 562.776C1427.75 564.701 1427.4 566.757 1427.46 568.821V632.49C1427.46 630.466 1427.86 628.462 1428.63 626.591C1429.4 624.721 1430.54 623.022 1431.97 621.592L1458.29 595.332Z" fill="#14899B"/>
<path d="M1458.29 595.332L1431.97 621.651C1430.54 623.081 1429.4 624.78 1428.63 626.65C1427.86 628.521 1427.46 630.526 1427.46 632.549C1427.44 633.04 1427.44 633.532 1427.46 634.022C1427.46 634.258 1427.46 634.479 1427.55 634.715C1427.64 634.95 1427.55 635.259 1427.69 635.525C1427.82 635.79 1427.8 636.025 1427.88 636.29C1427.95 636.556 1427.98 636.762 1428.05 636.983C1428.13 637.204 1428.22 637.469 1428.3 637.719C1428.39 637.969 1428.47 638.19 1428.55 638.411L1428.86 639.074L1429.2 639.781L1429.57 640.399C1429.7 640.62 1429.84 640.856 1429.98 641.062C1430.13 641.268 1430.31 641.504 1430.47 641.725C1430.63 641.946 1430.73 642.108 1430.88 642.285C1431.2 642.679 1431.54 643.053 1431.9 643.404V643.404C1432.26 643.767 1432.64 644.111 1433.03 644.435L1433.58 644.847L1434.24 645.333C1434.46 645.481 1434.68 645.598 1434.92 645.731C1435.12 645.865 1435.32 645.987 1435.54 646.099C1435.76 646.227 1435.99 646.34 1436.23 646.438C1436.45 646.541 1436.67 646.659 1436.91 646.747C1437.13 646.844 1437.35 646.927 1437.58 646.998L1438.33 647.263C1438.55 647.336 1438.79 647.381 1439.03 647.439L1439.79 647.631L1440.6 647.749L1441.28 647.852C1441.78 647.852 1442.28 647.852 1442.75 647.852C1444.78 647.856 1446.78 647.459 1448.65 646.683C1450.53 645.907 1452.22 644.767 1453.65 643.33L1479.97 617.012H1458.17L1458.29 595.332Z" fill="#0A6F74"/>
<path d="M1368.32 562.327C1368.01 562.33 1367.71 562.272 1367.42 562.156C1367.14 562.039 1366.88 561.867 1366.67 561.649C1366.45 561.433 1366.28 561.176 1366.16 560.893C1366.04 560.61 1365.98 560.306 1365.98 560C1365.98 559.693 1366.04 559.39 1366.16 559.107C1366.28 558.824 1366.45 558.566 1366.67 558.35L1598.41 326.591C1598.86 326.194 1599.44 325.983 1600.04 326.001C1600.64 326.019 1601.21 326.266 1601.63 326.69C1602.05 327.113 1602.29 327.683 1602.31 328.281C1602.32 328.879 1602.11 329.46 1601.71 329.905L1369.97 561.649C1369.75 561.865 1369.49 562.036 1369.21 562.152C1368.93 562.269 1368.62 562.328 1368.32 562.327V562.327Z" fill="white"/>
<path d="M1366.18 548.688L1347.82 580.471L1379.61 562.135L1366.18 548.688Z" fill="white"/>
<path d="M1335.3 742.95C1335.11 742.952 1334.93 742.916 1334.76 742.845C1334.59 742.774 1334.44 742.67 1334.31 742.538C1334.07 742.267 1333.93 741.915 1333.93 741.551C1333.93 741.186 1334.07 740.835 1334.31 740.564L1740.05 334.883C1740.32 334.635 1740.68 334.497 1741.05 334.497C1741.41 334.497 1741.77 334.635 1742.04 334.883C1742.28 335.154 1742.42 335.505 1742.42 335.87C1742.42 336.235 1742.28 336.586 1742.04 336.857L1336.28 742.597C1336.15 742.718 1336 742.812 1335.83 742.873C1335.66 742.933 1335.48 742.96 1335.3 742.95Z" fill="white"/>
<path d="M1334.02 734.835L1323 753.908L1342.09 742.891L1334.02 734.835Z" fill="white"/>
</svg>
