<svg width="1440" height="1397" viewBox="0 0 1440 1397" fill="none" xmlns="http://www.w3.org/2000/svg">
<path d="M1860.5 0H-69.5V1244.5L-69.5 1325.5C-69.5 1325.5 81.5 1239.5 145.5 1273C209.5 1306.5 226.5 1351 306 1351C385.5 1351 528 1296.5 599 1296.5C710.623 1296.5 688.291 1380 811 1380C910 1380 1038 1296.5 1168 1296.5C1298 1296.5 1314.5 1396.5 1442 1396.5C1499.13 1396.5 1567.6 1289.84 1649.5 1271C1750.37 1247.8 1860.5 1311.5 1860.5 1311.5V0Z" fill="#68C0AF"/>
<path d="M1862 3H-72V1314C-72 1314 78.5 1218.5 148 1272.5C217.5 1326.5 242 1351.5 321.5 1351.5C401 1351.5 533.5 1282 604.5 1282C716.123 1282 689.791 1389 812.5 1389C911.5 1389 1036.5 1282 1166.5 1282C1296.5 1282 1342 1390 1435 1371.5C1528 1353 1573.5 1305.5 1598.5 1291.5C1623.5 1277.5 1705.5 1217 1862 1306V3Z" fill="#7BCFBF"/>
</svg>
