<svg width="77" height="77" viewBox="0 0 77 77" fill="none" xmlns="http://www.w3.org/2000/svg">
<rect width="77" height="77" rx="38.5" fill="white"/>
<path d="M43.8632 33.0195C43.1861 33.0195 42.5683 32.6373 42.2646 32.0317L36.9033 21.3091C36.652 20.8064 36.652 20.2131 36.9033 19.7105L42.2646 8.98779C42.5683 8.3822 43.1861 8 43.8632 8H54.5859C55.2038 8 55.7797 8.32108 56.1077 8.84816C56.4323 9.37524 56.4602 10.0331 56.1845 10.5864L45.4619 32.0317C45.1582 32.6373 44.5404 33.0195 43.8632 33.0195Z" fill="#2682FF"/>
<path d="M45.4707 30.446L34.748 9.0009C34.4262 8.39316 33.8187 8 33.1396 8H22.417C21.8095 8 21.2374 8.3218 20.88 8.85781C20.5582 9.3582 20.5582 10.0374 20.8084 10.5733L31.2809 31.554C31.8172 31.3395 32.3889 31.2324 32.9966 31.2324H43.8621C44.4696 31.2682 45.0775 31.3753 45.6135 31.5897C45.6851 31.1967 45.6494 30.8035 45.4707 30.446Z" fill="#6AA9FF"/>
<path d="M43.7188 40.4062H32.9961C30.0397 40.4062 27.6348 37.8821 27.6348 34.9258C27.6348 31.9694 30.0397 29.4453 32.9961 29.4453H43.8618C46.8182 29.5553 49.0801 32.0288 49.0801 34.9258C49.0801 37.8821 46.6751 40.4062 43.7188 40.4062ZM43.7955 33.0177L32.9961 33.0195C32.0118 33.0195 31.209 33.9398 31.209 34.9258C31.209 35.9118 32.0118 36.832 32.9961 36.832H43.7188C44.7031 36.832 45.5059 35.9118 45.5059 34.9258C45.5059 33.9747 44.7379 33.0544 43.7955 33.0177Z" fill="#DFE7F4"/>
<path d="M43.8614 29.4453H38.5001V33.0187L43.7951 33.0179C44.7375 33.0546 45.5054 33.9747 45.5054 34.9259C45.5054 35.9119 44.7026 36.8322 43.7182 36.8322H38.5V40.4064H43.7182C46.6746 40.4064 49.0796 37.8823 49.0796 34.9259C49.0797 32.0288 46.8178 29.5553 43.8614 29.4453Z" fill="#C7CFE1"/>
<path d="M38.502 69C29.6328 69 22.418 61.7852 22.418 52.916C22.418 44.0468 29.6328 36.832 38.502 36.832C47.3711 36.832 54.5859 44.0468 54.5859 52.916C54.5859 61.7852 47.3711 69 38.502 69Z" fill="#F0F7FF"/>
<path d="M54.5859 52.916C54.5859 44.0468 47.3711 36.832 38.502 36.832V69C47.3711 69 54.5859 61.7852 54.5859 52.916Z" fill="#DFE7F4"/>
<path d="M41.3522 59.5623L38.5004 58.0805L35.6487 59.5623C35.0518 59.8694 34.3223 59.8188 33.7743 59.4227C33.2263 59.0247 32.9506 58.3511 33.0622 57.6844L33.5859 54.5098L31.2997 52.2533C30.802 51.7681 30.6499 51.0489 30.8529 50.4278C31.0623 49.7855 31.6173 49.3143 32.2875 49.2132L35.4637 48.7349L36.9018 45.8605C37.5092 44.6494 39.4917 44.6494 40.099 45.8605L41.5371 48.7349L44.7134 49.2132C45.3835 49.3144 45.9385 49.7856 46.1479 50.4278C46.3574 51.0717 46.1863 51.7786 45.7011 52.2533L43.415 54.5098L43.9386 57.6844C44.0503 58.3511 43.7745 59.0247 43.2265 59.4227C42.6822 59.8171 41.9541 59.8754 41.3522 59.5623Z" fill="#DFE7F4"/>
<path d="M41.3517 59.5673C41.9536 59.8804 42.6818 59.8221 43.2261 59.4276C43.7741 59.0297 44.0498 58.3561 43.9382 57.6894L43.4145 54.5147L45.7007 52.2582C46.1859 51.7836 46.357 51.0767 46.1475 50.4327C45.9381 49.7905 45.3831 49.3192 44.7129 49.2181L41.5367 48.7399L40.0986 45.8655C39.7949 45.2599 39.1475 44.957 38.5 44.957V58.0855L41.3517 59.5673Z" fill="#C7CFE1"/>
</svg>
