<svg width="2669" height="1136" viewBox="0 0 2669 1136" fill="none" xmlns="http://www.w3.org/2000/svg">
<path d="M477.02 529.886C356.52 565.386 378.02 509.73 167.519 479.73C20.7848 458.818 -20.0732 778 45.9732 899C112.019 1020 63.5192 1134.42 63.5192 1134.42H249.019H2376.5C2351.31 1124.82 2638.5 757.5 2449 653C2259.5 548.5 2231 814 2084 778C1937 742 2010.14 509.505 1669.52 640.886C1459.52 721.886 1643.02 552.386 1536.02 501.886C1429.02 451.386 1327.58 531.862 1243.52 576.386C1159.46 620.91 1017.52 661.887 951.019 576.386C910.118 523.799 1070.52 427.386 914.519 396.886C758.519 366.386 597.52 494.386 477.02 529.886Z" fill="#53B3A1"/>
<path d="M477.021 559.231C356.521 594.731 378.021 539.075 167.521 509.075C21.9467 488.328 -54.9169 720.5 45.5518 863C146.021 1005.5 63.5203 1135.42 63.5203 1135.42H249.021H2445C2421.66 1126.52 2477.94 751.044 2368.5 689C2306.85 654.051 2223 878 2061.5 820C1900 762 2009.61 508.189 1653.02 645.731C1443.02 726.731 1621.02 561.731 1514.02 511.231C1407.02 460.731 1327.58 531.863 1243.52 576.387C1159.46 620.911 1017.52 661.887 951.02 576.387C910.119 523.8 1070.02 426.731 914.02 396.231C750.02 364.167 597.521 523.731 477.021 559.231Z" fill="#7BCFBF"/>
<path d="M1962.66 611.515C1962.76 611.736 1962.84 611.962 1962.91 612.192C1962.84 611.962 1962.76 611.736 1962.66 611.515Z" fill="#C42A56"/>
<path d="M1962.01 610.131C1962.14 610.354 1962.25 610.585 1962.35 610.822C1962.25 610.585 1962.14 610.354 1962.01 610.131Z" fill="#C42A56"/>
<path d="M1953.63 602.899L1954.32 603.15L1953.63 602.899Z" fill="#C42A56"/>
<path d="M1961.25 608.834C1961.4 609.055 1961.51 609.276 1961.66 609.511C1961.51 609.276 1961.4 609.055 1961.25 608.834Z" fill="#C42A56"/>
<path d="M1956.31 604.151L1956.99 604.563L1956.31 604.151Z" fill="#C42A56"/>
<path d="M1957.65 605.064L1958.2 605.476L1957.65 605.064Z" fill="#C42A56"/>
<path d="M1955.03 603.459L1955.74 603.797L1955.03 603.459Z" fill="#C42A56"/>
<path d="M1963.18 612.988C1963.25 613.223 1963.3 613.459 1963.35 613.679C1963.3 613.385 1963.25 613.15 1963.18 612.988Z" fill="#C42A56"/>
<path d="M1960.35 607.627C1960.5 607.803 1960.63 607.995 1960.76 608.171C1960.63 607.995 1960.5 607.803 1960.35 607.627Z" fill="#C42A56"/>
<path d="M1911.2 632.812L1825.87 718.145C1821.52 722.474 1815.81 725.174 1809.7 725.791C1803.6 726.407 1797.46 724.904 1792.33 721.533L1716.25 671.178C1705.2 663.86 1691.96 660.586 1678.78 661.912C1665.59 663.238 1653.27 669.082 1643.91 678.453L1506.48 815.894C1504.98 817.309 1503.77 819.011 1502.94 820.9C1502.11 822.789 1501.66 824.826 1501.63 826.89C1501.6 828.954 1501.98 831.004 1502.76 832.917C1503.53 834.83 1504.68 836.568 1506.14 838.028C1507.6 839.487 1509.34 840.639 1511.25 841.415C1513.17 842.19 1515.22 842.574 1517.28 842.542C1519.35 842.511 1521.38 842.066 1523.27 841.232C1525.16 840.399 1526.86 839.195 1528.28 837.692L1665.72 700.265C1670.07 695.944 1675.78 693.255 1681.89 692.648C1687.99 692.042 1694.12 693.557 1699.24 696.937L1775.35 747.233C1786.4 754.551 1799.64 757.825 1812.82 756.499C1826.01 755.173 1838.33 749.329 1847.7 739.957L1933.04 654.609V632.812H1911.2Z" fill="#C42A56"/>
<path d="M1950.61 602.148C1950.89 602.148 1951.17 602.222 1951.44 602.281L1950.61 602.148Z" fill="#C42A56"/>
<path d="M1949.95 602.045C1949.44 602.045 1948.94 601.972 1948.48 601.972C1948.94 601.972 1949.45 602.001 1949.95 602.045Z" fill="#C42A56"/>
<path d="M1963.54 614.372C1963.54 614.652 1963.63 614.916 1963.66 615.196C1963.63 614.916 1963.59 614.652 1963.54 614.372Z" fill="#C42A56"/>
<path d="M1952.21 602.458L1952.9 602.634L1952.21 602.458Z" fill="#C42A56"/>
<path d="M1963.77 615.934C1963.77 616.434 1963.84 616.935 1963.84 617.406C1963.87 616.891 1963.87 616.375 1963.77 615.934Z" fill="#C42A56"/>
<path d="M1949.95 602.045L1950.61 602.148L1949.95 602.045Z" fill="#C6ED07"/>
<path d="M1956.99 604.578C1957.22 604.725 1957.44 604.887 1957.65 605.064C1957.44 604.887 1957.22 604.725 1956.99 604.578Z" fill="#C6ED07"/>
<path d="M1952.9 602.678C1953.15 602.678 1953.38 602.855 1953.63 602.943L1952.9 602.678Z" fill="#C6ED07"/>
<path d="M1951.44 602.281L1952.2 602.457L1951.44 602.281Z" fill="#C6ED07"/>
<path d="M1955.7 603.798L1956.31 604.166L1955.7 603.798Z" fill="#C6ED07"/>
<path d="M1954.33 603.15L1954.99 603.459L1954.33 603.15Z" fill="#C6ED07"/>
<path d="M1963.66 615.197C1963.66 615.418 1963.74 615.639 1963.77 615.874C1963.74 615.639 1963.69 615.418 1963.66 615.197Z" fill="#C6ED07"/>
<path d="M1963.35 613.606C1963.35 613.871 1963.49 614.121 1963.54 614.371C1963.49 614.121 1963.41 613.871 1963.35 613.606Z" fill="#C6ED07"/>
<path d="M1962.91 612.178C1963 612.428 1963.1 612.663 1963.18 612.913C1963.1 612.663 1963 612.428 1962.91 612.178Z" fill="#C6ED07"/>
<path d="M1959.32 628.29L1933.01 654.609V677.791C1933.01 681.882 1934.64 685.806 1937.53 688.7C1940.43 691.593 1944.35 693.218 1948.44 693.218C1952.53 693.218 1956.46 691.593 1959.35 688.7C1962.24 685.806 1963.87 681.882 1963.87 677.791V617.406C1963.87 619.431 1963.46 621.436 1962.68 623.304C1961.9 625.172 1960.76 626.867 1959.32 628.29V628.29Z" fill="#C6ED07"/>
<path d="M1959.35 606.508C1959.7 606.861 1960.03 607.244 1960.35 607.627C1960.03 607.237 1959.7 606.864 1959.35 606.508V606.508Z" fill="#C6ED07"/>
<path d="M1962.4 610.823C1962.5 611.043 1962.62 611.264 1962.71 611.499C1962.57 611.264 1962.4 611.043 1962.4 610.823Z" fill="#C6ED07"/>
<path d="M1960.76 608.172C1960.92 608.393 1961.1 608.613 1961.25 608.834C1961.09 608.569 1960.92 608.393 1960.76 608.172Z" fill="#C6ED07"/>
<path d="M1958.2 605.477C1958.58 605.791 1958.95 606.125 1959.3 606.478C1958.95 606.125 1958.58 605.791 1958.2 605.477V605.477Z" fill="#C6ED07"/>
<path d="M1961.66 609.512C1961.78 609.718 1961.91 609.909 1962.01 610.13C1961.91 609.909 1961.78 609.718 1961.66 609.512Z" fill="#C6ED07"/>
<path d="M1963.87 617.406C1963.87 616.891 1963.87 616.39 1963.8 615.933C1963.8 615.698 1963.72 615.477 1963.69 615.256C1963.66 615.035 1963.62 614.711 1963.58 614.431C1963.53 614.151 1963.44 613.93 1963.38 613.665C1963.33 613.4 1963.28 613.209 1963.21 612.973C1963.13 612.737 1963.03 612.487 1962.94 612.237C1962.87 612.006 1962.79 611.78 1962.69 611.559C1962.6 611.323 1962.49 611.103 1962.38 610.882C1962.28 610.644 1962.17 610.413 1962.04 610.189C1961.94 609.969 1961.81 609.777 1961.69 609.571C1961.57 609.365 1961.43 609.114 1961.28 608.893C1961.13 608.672 1960.95 608.451 1960.79 608.231C1960.63 608.01 1960.53 607.862 1960.38 607.686C1960.23 607.509 1959.73 606.92 1959.38 606.566C1959.03 606.213 1958.66 605.879 1958.27 605.565L1957.73 605.152C1957.51 604.976 1957.29 604.814 1957.07 604.666L1956.39 604.254L1955.77 603.886L1955.06 603.547L1954.4 603.238L1953.71 602.987C1953.46 602.899 1953.22 602.796 1952.97 602.722L1952.28 602.546L1951.51 602.369C1951.25 602.369 1950.97 602.281 1950.69 602.236L1950.03 602.133C1949.53 602.133 1949.01 602.06 1948.55 602.06C1946.53 602.058 1944.52 602.457 1942.65 603.233C1940.78 604.009 1939.08 605.147 1937.65 606.581L1911.34 632.9H1933.15V654.697L1959.45 628.378C1960.88 626.934 1962 625.22 1962.76 623.336C1963.52 621.452 1963.9 619.437 1963.87 617.406V617.406Z" fill="#C42A56"/>
<path d="M1963.87 617.406C1963.87 616.891 1963.87 616.39 1963.8 615.933C1963.8 615.698 1963.72 615.477 1963.69 615.256C1963.66 615.035 1963.62 614.711 1963.58 614.431C1963.53 614.151 1963.44 613.93 1963.38 613.665C1963.33 613.4 1963.28 613.209 1963.21 612.973C1963.13 612.737 1963.03 612.487 1962.94 612.237C1962.87 612.006 1962.79 611.78 1962.69 611.559C1962.6 611.323 1962.49 611.103 1962.38 610.882C1962.28 610.644 1962.17 610.413 1962.04 610.189C1961.94 609.969 1961.81 609.777 1961.69 609.571C1961.57 609.365 1961.43 609.114 1961.28 608.893C1961.13 608.672 1960.95 608.451 1960.79 608.231C1960.63 608.01 1960.53 607.862 1960.38 607.686C1960.23 607.509 1959.73 606.92 1959.38 606.566C1959.03 606.213 1958.66 605.879 1958.27 605.565L1957.73 605.152C1957.51 604.976 1957.29 604.814 1957.07 604.666L1956.39 604.254L1955.77 603.886L1955.06 603.547L1954.4 603.238L1953.71 602.987C1953.46 602.899 1953.22 602.796 1952.97 602.722L1952.28 602.546L1951.51 602.369C1951.25 602.369 1950.97 602.281 1950.69 602.236L1950.03 602.133C1949.53 602.133 1949.01 602.06 1948.55 602.06C1946.53 602.058 1944.52 602.457 1942.65 603.233C1940.78 604.009 1939.08 605.147 1937.65 606.581L1911.34 632.9H1933.15V654.697L1959.45 628.378C1960.88 626.934 1962 625.22 1962.76 623.336C1963.52 621.452 1963.9 619.437 1963.87 617.406V617.406Z" fill="#E24F10"/>
<path d="M1841.33 453.234C1841.21 453.234 1841.09 453.209 1840.97 453.161C1840.86 453.113 1840.76 453.042 1840.67 452.954C1840.5 452.776 1840.4 452.538 1840.4 452.291C1840.4 452.044 1840.5 451.807 1840.67 451.629L2221.03 71.2797C2221.12 71.1915 2221.22 71.1215 2221.34 71.0737C2221.45 71.0259 2221.57 71.0012 2221.7 71.0012C2221.82 71.0012 2221.94 71.0259 2222.06 71.0737C2222.17 71.1215 2222.27 71.1915 2222.36 71.2797C2222.45 71.3648 2222.52 71.4667 2222.57 71.5793C2222.61 71.6919 2222.64 71.8129 2222.64 71.9351C2222.64 72.0574 2222.61 72.1783 2222.57 72.2909C2222.52 72.4035 2222.45 72.5054 2222.36 72.5905L1842 452.954C1841.91 453.044 1841.81 453.115 1841.69 453.163C1841.58 453.211 1841.46 453.235 1841.33 453.234V453.234Z" fill="white"/>
<path d="M1840.48 447.77L1833.14 460.495L1845.85 453.146L1840.48 447.77Z" fill="white"/>
<path d="M2041.93 170.635C2042.02 170.885 2042.12 171.12 2042.19 171.37L2041.93 170.635Z" fill="#019002"/>
<path d="M2038.35 164.979C2038.7 165.324 2039.03 165.688 2039.33 166.069C2039.03 165.685 2038.7 165.321 2038.35 164.979V164.979Z" fill="#019002"/>
<path d="M2037.2 163.918C2037.57 164.228 2037.94 164.552 2038.29 164.905C2037.94 164.566 2037.51 164.228 2037.2 163.918Z" fill="#019002"/>
<path d="M2039.76 166.628C2039.93 166.849 2040.09 167.055 2040.23 167.276C2040.09 167.055 2039.93 166.849 2039.76 166.628Z" fill="#019002"/>
<path d="M2040.65 167.954C2040.78 168.16 2040.9 168.366 2041.01 168.572C2040.9 168.366 2040.78 168.204 2040.65 167.954Z" fill="#019002"/>
<path d="M2041.35 169.28C2041.46 169.5 2041.57 169.721 2041.66 169.942C2041.57 169.677 2041.46 169.5 2041.35 169.28Z" fill="#019002"/>
<path d="M2036.04 163.02C2036.26 163.167 2036.48 163.344 2036.68 163.505C2036.42 163.344 2036.2 163.167 2036.04 163.02Z" fill="#019002"/>
<path d="M2030.44 160.723C2030.69 160.773 2030.94 160.836 2031.19 160.914L2030.44 160.723Z" fill="#019002"/>
<path d="M2028.94 160.502C2029.17 160.521 2029.39 160.555 2029.61 160.605C2029.39 160.555 2029.17 160.521 2028.94 160.502V160.502Z" fill="#019002"/>
<path d="M2031.9 161.091L2032.63 161.341L2031.9 161.091Z" fill="#019002"/>
<path d="M2034.68 162.313L2035.3 162.681L2034.68 162.313Z" fill="#019002"/>
<path d="M2033.33 161.592L2033.99 161.915L2033.33 161.592Z" fill="#019002"/>
<path d="M2042.66 173.639C2042.66 173.874 2042.66 174.095 2042.77 174.316C2042.74 174.095 2042.69 173.874 2042.66 173.639Z" fill="#019002"/>
<path d="M2038.32 186.747L2012 213.066V236.306C2012 240.396 2013.62 244.318 2016.52 247.21C2019.41 250.102 2023.33 251.727 2027.42 251.727C2031.51 251.727 2035.43 250.102 2038.32 247.21C2041.22 244.318 2042.84 240.396 2042.84 236.306V175.922C2042.82 179.986 2041.2 183.878 2038.32 186.747V186.747Z" fill="#019002"/>
<path d="M2027.42 160.428H1967.04C1964.97 160.364 1962.92 160.716 1960.99 161.461C1959.06 162.207 1957.31 163.332 1955.82 164.77C1954.34 166.207 1953.16 167.928 1952.36 169.83C1951.55 171.732 1951.14 173.776 1951.14 175.841C1951.14 177.906 1951.55 179.95 1952.36 181.852C1953.16 183.753 1954.34 185.474 1955.82 186.912C1957.31 188.349 1959.06 189.474 1960.99 190.22C1962.92 190.966 1964.97 191.317 1967.04 191.254H1990.28L2016.59 164.935C2019.47 162.06 2023.36 160.44 2027.42 160.428Z" fill="#019002"/>
<path d="M2042.36 172.063C2042.36 172.328 2042.49 172.578 2042.53 172.828C2042.49 172.622 2042.41 172.328 2042.36 172.063Z" fill="#019002"/>
<path d="M2032.63 161.341L2033.33 161.591L2032.63 161.341Z" fill="#6CCD18"/>
<path d="M2027.42 160.428C2027.94 160.428 2028.44 160.428 2028.89 160.502C2028.44 160.457 2027.92 160.428 2027.42 160.428Z" fill="#6CCD18"/>
<path d="M1990.2 191.254L1852.95 328.503C1847.61 333.838 1843.38 340.172 1840.49 347.144C1837.6 354.117 1836.11 361.59 1836.11 369.138C1836.11 376.685 1837.6 384.159 1840.49 391.131C1843.38 398.103 1847.61 404.438 1852.95 409.772L1857.47 414.293C1859.95 416.765 1861.91 419.7 1863.25 422.931C1864.59 426.162 1865.28 429.626 1865.28 433.123C1865.28 436.621 1864.59 440.084 1863.25 443.315C1861.91 446.546 1859.95 449.481 1857.47 451.953L1752.23 557.199C1747.42 561.996 1740.97 564.779 1734.18 564.979C1727.39 565.179 1720.78 562.781 1715.7 558.274L1670.59 518.17C1659.64 508.427 1645.38 503.239 1630.73 503.669C1616.08 504.099 1602.14 510.114 1591.78 520.482L1546.13 566.138C1549.26 563.971 1553.09 563.043 1556.87 563.534C1560.65 564.024 1564.11 565.899 1566.59 568.795C1569.07 571.69 1570.39 575.402 1570.29 579.212C1570.19 583.022 1568.68 586.66 1566.05 589.423L1541.02 614.858L1613.58 542.294C1618.39 537.496 1624.84 534.713 1631.63 534.514C1638.42 534.314 1645.03 536.712 1650.11 541.219L1695.22 581.323C1706.18 591.046 1720.43 596.22 1735.08 595.791C1749.73 595.361 1763.65 589.359 1774.03 579.011L1879.27 473.765C1884.61 468.43 1888.85 462.096 1891.74 455.124C1894.63 448.151 1896.11 440.678 1896.11 433.131C1896.11 425.583 1894.63 418.11 1891.74 411.137C1888.85 404.165 1884.61 397.83 1879.27 392.496L1874.75 387.975C1869.76 382.979 1866.96 376.206 1866.96 369.145C1866.96 362.084 1869.76 355.311 1874.75 350.315L2012 213.08V191.254H1990.2Z" fill="#6CCD00"/>
<path d="M1517.61 594.666L1517.41 594.887L1519.06 593.223L1517.61 594.666Z" fill="#6CCD18"/>
<path d="M2033.99 161.916L2034.68 162.239L2033.99 161.916Z" fill="#6CCD18"/>
<path d="M2029.62 160.605C2029.89 160.63 2030.17 160.669 2030.44 160.722C2030.17 160.669 2029.89 160.63 2029.62 160.605V160.605Z" fill="#6CCD18"/>
<path d="M2031.19 160.914L2031.9 161.091L2031.19 160.914Z" fill="#6CCD18"/>
<path d="M2035.3 162.608L2035.98 163.02L2035.3 162.608Z" fill="#6CCD18"/>
<path d="M2042.53 172.829C2042.53 173.094 2042.62 173.373 2042.66 173.638C2042.62 173.373 2042.59 173.094 2042.53 172.829Z" fill="#6CCD18"/>
<path d="M2040.23 167.276C2040.38 167.497 2040.51 167.732 2040.65 167.953C2040.46 167.732 2040.46 167.497 2040.23 167.276Z" fill="#6CCD18"/>
<path d="M2042.18 171.371L2042.35 172.062L2042.18 171.371Z" fill="#6CCD18"/>
<path d="M2041.01 168.573C2041.13 168.808 2041.25 169.043 2041.35 169.279C2041.25 169.043 2041.13 168.808 2041.01 168.573Z" fill="#6CCD18"/>
<path d="M2039.34 166.069C2039.5 166.245 2039.62 166.437 2039.76 166.628C2039.62 166.437 2039.5 166.245 2039.34 166.069Z" fill="#6CCD18"/>
<path d="M2041.66 169.942C2041.75 170.163 2041.84 170.398 2041.91 170.634C2041.84 170.398 2041.75 170.163 2041.66 169.942Z" fill="#6CCD18"/>
<path d="M2036.62 163.506L2037.2 163.918L2036.62 163.506Z" fill="#6CCD18"/>
<path d="M2042.84 175.848C2042.84 175.333 2042.84 174.817 2042.84 174.375C2042.84 174.154 2042.77 173.933 2042.74 173.698C2042.71 173.462 2042.74 173.153 2042.61 172.888C2042.47 172.623 2042.49 172.387 2042.43 172.122L2042.25 171.43C2042.25 171.179 2042.07 170.944 2041.99 170.693C2041.9 170.443 2041.82 170.222 2041.74 170.001C2041.65 169.78 2041.53 169.559 2041.43 169.338C2041.32 169.117 2041.21 168.867 2041.09 168.631C2040.97 168.396 2040.85 168.219 2040.72 168.013C2040.59 167.807 2040.45 167.556 2040.31 167.335C2040.16 167.114 2040 166.908 2039.84 166.687C2039.67 166.466 2039.57 166.304 2039.41 166.128C2039.1 165.747 2038.77 165.383 2038.42 165.038V164.964C2038.07 164.611 2037.7 164.287 2037.33 163.977L2036.76 163.565C2036.55 163.403 2036.33 163.226 2036.11 163.079L2035.43 162.667L2034.81 162.298L2034.12 161.974L2033.46 161.65L2032.77 161.4L2032.03 161.15L2031.32 160.973C2031.08 160.895 2030.83 160.831 2030.57 160.781C2030.3 160.728 2030.02 160.688 2029.75 160.664C2029.52 160.614 2029.3 160.579 2029.07 160.56C2028.57 160.56 2028.07 160.487 2027.6 160.487C2025.57 160.483 2023.57 160.879 2021.7 161.653C2019.83 162.426 2018.13 163.561 2016.7 164.994L1990.2 191.253H2012V213.066L2038.32 186.747C2039.75 185.317 2040.89 183.619 2041.67 181.748C2042.44 179.878 2042.84 177.873 2042.84 175.848V175.848Z" fill="#6CCD00"/>
<path d="M2042.84 175.848C2042.84 175.333 2042.84 174.817 2042.84 174.375C2042.84 174.154 2042.77 173.933 2042.74 173.698C2042.71 173.462 2042.74 173.153 2042.61 172.888C2042.47 172.623 2042.49 172.387 2042.43 172.122L2042.25 171.43C2042.25 171.179 2042.07 170.944 2041.99 170.693C2041.9 170.443 2041.82 170.222 2041.74 170.001C2041.65 169.78 2041.53 169.559 2041.43 169.338C2041.32 169.117 2041.21 168.867 2041.09 168.631C2040.97 168.396 2040.85 168.219 2040.72 168.013C2040.59 167.807 2040.45 167.556 2040.31 167.335C2040.16 167.114 2040 166.908 2039.84 166.687C2039.67 166.466 2039.57 166.304 2039.41 166.128C2039.1 165.747 2038.77 165.383 2038.42 165.038V164.964C2038.07 164.611 2037.7 164.287 2037.33 163.977L2036.76 163.565C2036.55 163.403 2036.33 163.226 2036.11 163.079L2035.43 162.667L2034.81 162.298L2034.12 161.974L2033.46 161.65L2032.77 161.4L2032.03 161.15L2031.32 160.973C2031.08 160.895 2030.83 160.831 2030.57 160.781C2030.3 160.728 2030.02 160.688 2029.75 160.664C2029.52 160.614 2029.3 160.579 2029.07 160.56C2028.57 160.56 2028.07 160.487 2027.6 160.487C2025.57 160.483 2023.57 160.879 2021.7 161.653C2019.83 162.426 2018.13 163.561 2016.7 164.994L1990.2 191.253H2012V213.066L2038.32 186.747C2039.75 185.317 2040.89 183.619 2041.67 181.748C2042.44 179.878 2042.84 177.873 2042.84 175.848V175.848Z" fill="#007400"/>
<path d="M1544.12 567.832L1519.09 593.223L1546.23 566.08C1545.47 566.596 1544.77 567.183 1544.12 567.832Z" fill="#C6ED07"/>
<path d="M1528.5 620.985C1525.48 620.981 1522.52 620.09 1520 618.422C1517.48 616.754 1515.51 614.382 1514.33 611.603C1513.15 608.823 1512.81 605.756 1513.35 602.785C1513.89 599.813 1515.3 597.067 1517.39 594.887L1318.32 796.66C1316.82 798.085 1315.63 799.796 1314.81 801.689C1313.99 803.583 1313.56 805.622 1313.55 807.686C1313.53 809.749 1313.93 811.795 1314.72 813.702C1315.51 815.608 1316.67 817.338 1318.14 818.787C1319.61 820.236 1321.35 821.375 1323.27 822.138C1325.19 822.901 1327.24 823.271 1329.3 823.226C1331.36 823.182 1333.4 822.724 1335.28 821.879C1337.16 821.035 1338.85 819.821 1340.26 818.31L1540.94 615.064L1539.4 616.611C1537.96 618.021 1536.25 619.133 1534.38 619.884C1532.51 620.635 1530.51 621.009 1528.5 620.985Z" fill="#C6ED07"/>
<path d="M1565.91 567.685C1563.33 565.144 1559.94 563.591 1556.34 563.298C1552.73 563.004 1549.14 563.989 1546.19 566.08L1519.09 593.223L1517.44 594.887C1514.57 597.805 1512.99 601.74 1513.03 605.827C1513.07 609.913 1514.73 613.816 1517.65 616.677C1520.57 619.539 1524.5 621.124 1528.59 621.083C1532.68 621.043 1536.58 619.382 1539.44 616.464L1540.99 614.917L1566.02 589.482C1567.45 588.044 1568.57 586.339 1569.34 584.464C1570.11 582.59 1570.49 580.584 1570.48 578.559C1570.47 576.535 1570.06 574.533 1569.28 572.667C1568.49 570.801 1567.35 569.108 1565.91 567.685V567.685Z" fill="#C6ED07"/>
<path d="M1565.91 567.685C1563.33 565.144 1559.94 563.591 1556.34 563.298C1552.73 563.004 1549.14 563.989 1546.19 566.08L1519.09 593.223L1517.44 594.887C1514.57 597.805 1512.99 601.74 1513.03 605.827C1513.07 609.913 1514.73 613.816 1517.65 616.677C1520.57 619.539 1524.5 621.124 1528.59 621.083C1532.68 621.043 1536.58 619.382 1539.44 616.464L1540.99 614.917L1566.02 589.482C1567.45 588.044 1568.57 586.339 1569.34 584.464C1570.11 582.59 1570.49 580.584 1570.48 578.559C1570.47 576.535 1570.06 574.533 1569.28 572.667C1568.49 570.801 1567.35 569.108 1565.91 567.685V567.685Z" fill="#41B100"/>
<path d="M2286.41 362.319C2286.51 362.539 2286.63 362.76 2286.72 362.981C2286.63 362.76 2286.51 362.613 2286.41 362.319Z" fill="#C42A56"/>
<path d="M2282.24 356.958C2282.63 357.272 2283.01 357.606 2283.36 357.959C2283.01 357.602 2282.64 357.268 2282.24 356.958V356.958Z" fill="#C42A56"/>
<path d="M2283.46 357.989C2283.82 358.357 2284.16 358.725 2284.47 359.108C2284.15 358.717 2283.82 358.344 2283.46 357.989V357.989Z" fill="#C42A56"/>
<path d="M2284.82 359.667C2284.98 359.873 2285.14 360.094 2285.29 360.315C2285.14 360.094 2284.94 359.873 2284.82 359.667Z" fill="#C42A56"/>
<path d="M2285.71 360.993C2285.84 361.199 2285.96 361.405 2286.07 361.611C2285.96 361.405 2285.84 361.14 2285.71 360.993Z" fill="#C42A56"/>
<path d="M2281.04 356.059L2281.7 356.545C2281.48 356.383 2281.27 356.206 2281.04 356.059Z" fill="#C42A56"/>
<path d="M2274 353.541C2274.23 353.56 2274.46 353.595 2274.69 353.644C2274.46 353.595 2274.23 353.56 2274 353.541V353.541Z" fill="#C42A56"/>
<path d="M2275.5 353.776C2275.75 353.826 2276 353.89 2276.25 353.968C2276 353.89 2275.75 353.826 2275.5 353.776V353.776Z" fill="#C42A56"/>
<path d="M2279.74 355.249L2280.36 355.617L2279.74 355.249Z" fill="#C42A56"/>
<path d="M2276.96 354.13L2277.69 354.38L2276.96 354.13Z" fill="#C42A56"/>
<path d="M2278.38 354.63L2279.05 354.939L2278.38 354.63Z" fill="#C42A56"/>
<path d="M2287.72 366.678C2287.72 366.899 2287.8 367.134 2287.83 367.355C2287.8 367.134 2287.75 366.899 2287.72 366.678Z" fill="#C42A56"/>
<path d="M2283.38 379.786L2257.06 406.09V429.345C2257.06 433.435 2258.68 437.357 2261.58 440.249C2264.47 443.141 2268.39 444.766 2272.48 444.766C2276.57 444.766 2280.49 443.141 2283.38 440.249C2286.27 437.357 2287.9 433.435 2287.9 429.345V368.873C2287.9 370.9 2287.5 372.908 2286.73 374.781C2285.95 376.654 2284.81 378.355 2283.38 379.786V379.786Z" fill="#C42A56"/>
<path d="M2272.48 353.467H2212.09C2210.03 353.403 2207.97 353.755 2206.05 354.501C2204.12 355.246 2202.37 356.371 2200.88 357.809C2199.4 359.247 2198.22 360.967 2197.42 362.869C2196.61 364.771 2196.2 366.815 2196.2 368.88C2196.2 370.945 2196.61 372.989 2197.42 374.891C2198.22 376.793 2199.4 378.513 2200.88 379.951C2202.37 381.388 2204.12 382.513 2206.05 383.259C2207.97 384.005 2210.03 384.356 2212.09 384.293H2235.33L2261.65 357.974C2264.52 355.099 2268.42 353.479 2272.48 353.467V353.467Z" fill="#C42A56"/>
<path d="M2287.41 365.102C2287.41 365.352 2287.54 365.602 2287.59 365.867C2287.54 365.558 2287.47 365.352 2287.41 365.102Z" fill="#C42A56"/>
<path d="M2286.97 363.673C2287.06 363.909 2287.16 364.159 2287.24 364.409C2287.16 364.159 2287.06 363.909 2286.97 363.673Z" fill="#C42A56"/>
<path d="M2272.48 353.467C2272.99 353.467 2273.49 353.467 2273.95 353.541C2273.46 353.488 2272.97 353.464 2272.48 353.467V353.467Z" fill="#C6ED07"/>
<path d="M2277.69 354.38L2278.38 354.63L2277.69 354.38Z" fill="#C6ED07"/>
<path d="M2279.05 354.94L2279.74 355.278L2279.05 354.94Z" fill="#C6ED07"/>
<path d="M2274.63 353.644C2274.89 353.644 2275.16 353.644 2275.44 353.761C2275.22 353.776 2274.95 353.673 2274.63 353.644Z" fill="#C6ED07"/>
<path d="M2235.26 384.292L2058.13 561.44C2054.74 564.827 2052.11 568.888 2050.39 573.361C2048.68 577.833 2047.93 582.616 2048.19 587.398C2048.45 592.18 2049.71 596.854 2051.89 601.116C2054.08 605.378 2057.14 609.132 2060.87 612.134L2073.68 622.443C2074.04 622.729 2074.34 623.089 2074.55 623.497C2074.76 623.906 2074.88 624.354 2074.91 624.814C2074.93 625.273 2074.86 625.732 2074.69 626.161C2074.53 626.59 2074.27 626.98 2073.95 627.303L1869.88 831.359C1868.37 832.774 1867.17 834.476 1866.34 836.365C1865.5 838.253 1865.06 840.29 1865.03 842.354C1864.99 844.419 1865.38 846.468 1866.15 848.381C1866.93 850.294 1868.08 852.032 1869.54 853.492C1871 854.952 1872.74 856.103 1874.65 856.879C1876.56 857.655 1878.61 858.038 1880.68 858.007C1882.74 857.975 1884.78 857.53 1886.67 856.697C1888.56 855.864 1890.26 854.66 1891.67 853.156L2095.7 649.145C2099.08 645.756 2101.71 641.693 2103.42 637.221C2105.13 632.748 2105.88 627.965 2105.62 623.184C2105.36 618.403 2104.1 613.73 2101.92 609.468C2099.73 605.207 2096.68 601.454 2092.94 598.451L2080.13 588.142C2079.77 587.853 2079.48 587.493 2079.27 587.083C2079.07 586.674 2078.95 586.226 2078.92 585.768C2078.9 585.309 2078.97 584.851 2079.14 584.422C2079.3 583.994 2079.56 583.605 2079.88 583.282L2257.06 406.09V384.292H2235.26Z" fill="#C6ED07"/>
<path d="M2276.25 353.953L2276.96 354.13L2276.25 353.953Z" fill="#C6ED07"/>
<path d="M2287.24 364.41L2287.41 365.101L2287.24 364.41Z" fill="#C6ED07"/>
<path d="M2280.36 355.647L2281.03 356.059L2280.36 355.647Z" fill="#C6ED07"/>
<path d="M2284.39 359.108C2284.54 359.284 2284.67 359.476 2284.82 359.667C2284.67 359.476 2284.55 359.284 2284.39 359.108Z" fill="#C6ED07"/>
<path d="M2286.07 361.612C2286.19 361.847 2286.31 362.082 2286.41 362.318C2286.31 362.082 2286.19 361.847 2286.07 361.612Z" fill="#C6ED07"/>
<path d="M2285.29 360.315C2285.44 360.536 2285.57 360.771 2285.7 360.992C2285.57 360.771 2285.45 360.536 2285.29 360.315Z" fill="#C6ED07"/>
<path d="M2281.7 356.545L2282.24 356.957L2281.7 356.545Z" fill="#C6ED07"/>
<path d="M2286.72 362.981C2286.81 363.202 2286.9 363.437 2286.97 363.673C2286.9 363.437 2286.81 363.202 2286.72 362.981Z" fill="#C6ED07"/>
<path d="M2287.59 365.868C2287.59 366.133 2287.68 366.412 2287.72 366.677C2287.68 366.412 2287.65 366.133 2287.59 365.868Z" fill="#C6ED07"/>
<path d="M2287.88 368.872C2287.88 368.372 2287.88 367.856 2287.88 367.4C2287.88 367.179 2287.81 366.943 2287.78 366.722C2287.75 366.501 2287.78 366.177 2287.65 365.912C2287.51 365.647 2287.53 365.397 2287.47 365.146L2287.29 364.454C2287.29 364.204 2287.12 363.953 2287.03 363.718C2286.94 363.482 2286.87 363.246 2286.78 363.025C2286.69 362.804 2286.57 362.584 2286.47 362.363C2286.37 362.142 2286.25 361.891 2286.13 361.656C2286.01 361.42 2285.89 361.243 2285.76 361.037C2285.63 360.831 2285.5 360.581 2285.35 360.36C2285.2 360.139 2285.04 359.918 2284.88 359.712C2284.72 359.505 2284.6 359.329 2284.45 359.152C2284.3 358.975 2283.8 358.401 2283.45 358.033C2283.09 357.679 2282.72 357.345 2282.33 357.031L2281.79 356.619L2281.12 356.133L2280.45 355.72L2279.83 355.352L2279.13 355.013L2278.47 354.704L2277.78 354.454L2277.04 354.203L2276.34 354.027C2276.09 353.949 2275.84 353.885 2275.59 353.835C2275.31 353.835 2275.04 353.747 2274.78 353.717C2274.55 353.669 2274.32 353.634 2274.08 353.614C2273.58 353.614 2273.08 353.541 2272.61 353.541C2270.59 353.537 2268.58 353.933 2266.71 354.706C2264.84 355.48 2263.14 356.615 2261.71 358.047L2235.39 384.366H2257.19V406.163L2283.51 379.859C2284.93 378.407 2286.04 376.689 2286.79 374.803C2287.55 372.917 2287.92 370.902 2287.88 368.872V368.872Z" fill="#C42A56"/>
<path d="M2287.88 368.872C2287.88 368.372 2287.88 367.856 2287.88 367.4C2287.88 367.179 2287.81 366.943 2287.78 366.722C2287.75 366.501 2287.78 366.177 2287.65 365.912C2287.51 365.647 2287.53 365.397 2287.47 365.146L2287.29 364.454C2287.29 364.204 2287.12 363.953 2287.03 363.718C2286.94 363.482 2286.87 363.246 2286.78 363.025C2286.69 362.804 2286.57 362.584 2286.47 362.363C2286.37 362.142 2286.25 361.891 2286.13 361.656C2286.01 361.42 2285.89 361.243 2285.76 361.037C2285.63 360.831 2285.5 360.581 2285.35 360.36C2285.2 360.139 2285.04 359.918 2284.88 359.712C2284.72 359.505 2284.6 359.329 2284.45 359.152C2284.3 358.975 2283.8 358.401 2283.45 358.033C2283.09 357.679 2282.72 357.345 2282.33 357.031L2281.79 356.619L2281.12 356.133L2280.45 355.72L2279.83 355.352L2279.13 355.013L2278.47 354.704L2277.78 354.454L2277.04 354.203L2276.34 354.027C2276.09 353.949 2275.84 353.885 2275.59 353.835C2275.31 353.835 2275.04 353.747 2274.78 353.717C2274.55 353.669 2274.32 353.634 2274.08 353.614C2273.58 353.614 2273.08 353.541 2272.61 353.541C2270.59 353.537 2268.58 353.933 2266.71 354.706C2264.84 355.48 2263.14 356.615 2261.71 358.047L2235.39 384.366H2257.19V406.163L2283.51 379.859C2284.93 378.407 2286.04 376.689 2286.79 374.803C2287.55 372.917 2287.92 370.902 2287.88 368.872V368.872Z" fill="#A3264A"/>
<path d="M2317.69 582.059H2291.76C2287.67 582.059 2283.75 583.684 2280.85 586.576C2277.96 589.467 2276.34 593.39 2276.34 597.479C2276.34 601.569 2277.96 605.491 2280.85 608.383C2283.75 611.275 2287.67 612.899 2291.76 612.899H2352.36C2350.24 612.885 2348.13 612.428 2346.19 611.558C2344.25 610.689 2342.51 609.425 2341.08 607.848L2317.69 582.059Z" fill="#C6ED07"/>
<path d="M2367.65 594.593V536.962C2367.65 532.873 2366.03 528.951 2363.13 526.059C2360.24 523.167 2356.32 521.542 2352.23 521.542C2348.14 521.542 2344.22 523.167 2341.33 526.059C2338.44 528.951 2336.81 532.873 2336.81 536.962V557.184L2363.92 587.067C2365.84 589.184 2367.13 591.788 2367.65 594.593Z" fill="#C6ED07"/>
<path d="M2352.36 612.826H2352.51C2354.77 612.823 2357.01 612.323 2359.06 611.359C2361.1 610.396 2362.91 608.994 2364.36 607.252C2365.8 605.511 2366.85 603.472 2367.42 601.282C2367.99 599.092 2368.07 596.803 2367.65 594.578V597.406C2367.65 601.474 2366.05 605.378 2363.19 608.267C2360.32 611.156 2356.43 612.795 2352.36 612.826Z" fill="#C42A56"/>
<path d="M2663.67 151.311C2665.14 149.897 2666.32 148.203 2667.13 146.329C2667.95 144.454 2668.38 142.437 2668.41 140.393C2668.44 138.35 2668.06 136.322 2667.3 134.426C2666.53 132.53 2665.4 130.805 2663.96 129.351C2662.53 127.897 2660.82 126.742 2658.93 125.955C2657.05 125.167 2655.02 124.763 2652.98 124.764C2650.94 124.766 2648.91 125.173 2647.03 125.963C2645.14 126.754 2643.44 127.91 2642 129.367L2293.13 473.735L2293.02 473.853C2282.36 484.59 2276.37 499.101 2276.34 514.232C2276.32 529.363 2282.26 543.893 2292.89 554.665L2317.69 582.059H2336.84V557.184L2315.53 533.693L2315.01 533.148C2310.05 528.171 2307.25 521.438 2307.23 514.412C2307.21 507.385 2309.95 500.632 2314.88 495.621L2663.67 151.311Z" fill="#C42A56"/>
<path d="M2317.69 582.059L2341.08 607.833C2343.16 610.108 2345.87 611.703 2348.87 612.406C2351.86 613.109 2355 612.888 2357.87 611.773C2360.74 610.657 2363.21 608.698 2364.94 606.155C2366.68 603.611 2367.6 600.602 2367.59 597.523V594.696C2367.07 591.891 2365.78 589.287 2363.87 587.17L2336.75 557.287V582.059H2317.69Z" fill="#C6ED07"/>
<path d="M2317.69 582.059L2341.08 607.833C2343.16 610.108 2345.87 611.703 2348.87 612.406C2351.86 613.109 2355 612.888 2357.87 611.773C2360.74 610.657 2363.21 608.698 2364.94 606.155C2366.68 603.611 2367.6 600.602 2367.59 597.523V594.696C2367.07 591.891 2365.78 589.287 2363.87 587.17L2336.75 557.287V582.059H2317.69Z" fill="#9C1A3F"/>
<path d="M2103.37 390.124C2103.23 389.948 2103.09 389.756 2102.96 389.565C2103.09 389.756 2103.23 389.948 2103.37 390.124Z" fill="#C6ED07"/>
<path d="M2100.54 384.822C2100.54 384.601 2100.43 384.366 2100.37 384.131C2100.43 384.366 2100.47 384.587 2100.54 384.822Z" fill="#C6ED07"/>
<path d="M2110.07 394.837C2109.84 394.767 2109.62 394.684 2109.4 394.587C2109.62 394.684 2109.84 394.767 2110.07 394.837V394.837Z" fill="#C6ED07"/>
<path d="M2108.72 394.278C2108.48 394.18 2108.25 394.067 2108.03 393.939C2108.25 394.067 2108.48 394.18 2108.72 394.278Z" fill="#C6ED07"/>
<path d="M2107.41 393.541C2107.17 393.409 2106.95 393.291 2106.73 393.144C2106.95 393.321 2107.17 393.438 2107.41 393.541Z" fill="#C6ED07"/>
<path d="M2102.47 388.902C2102.33 388.696 2102.19 388.46 2102.06 388.24C2102.19 388.46 2102.31 388.696 2102.47 388.902Z" fill="#C6ED07"/>
<path d="M2101.69 387.65L2101.36 386.944L2101.69 387.65Z" fill="#C6ED07"/>
<path d="M2101.05 386.25C2100.96 386.03 2100.88 385.794 2100.79 385.559L2101.05 386.25Z" fill="#C6ED07"/>
<path d="M2115.29 395.766C2114.77 395.766 2114.27 395.766 2113.81 395.766C2114.27 395.736 2114.79 395.766 2115.29 395.766Z" fill="#C6ED07"/>
<path d="M2100.18 383.364C2100.18 383.099 2100.09 382.819 2100.04 382.555C2100.09 382.819 2100.12 383.099 2100.18 383.364Z" fill="#C6ED07"/>
<path d="M2106.07 392.687L2105.52 392.275L2106.07 392.687Z" fill="#C6ED07"/>
<path d="M2289.75 146.422L2285.23 141.9C2280.25 136.903 2277.44 130.131 2277.44 123.071C2277.44 116.01 2280.25 109.239 2285.23 104.241C2287.98 101.322 2289.48 97.4473 2289.42 93.4391C2289.36 89.4309 2287.74 85.6039 2284.91 82.7694C2282.07 79.9348 2278.25 78.3155 2274.24 78.2547C2270.23 78.1939 2266.35 79.6963 2263.44 82.4436C2252.68 93.2279 2246.64 107.838 2246.64 123.071C2246.64 138.303 2252.68 152.913 2263.44 163.698L2267.96 168.204C2272.94 173.202 2275.74 179.974 2275.74 187.034C2275.74 194.094 2272.94 200.866 2267.96 205.864L2130.71 343.113V364.911H2152.5L2289.75 227.676C2300.51 216.89 2306.55 202.28 2306.55 187.049C2306.55 171.818 2300.51 157.208 2289.75 146.422V146.422Z" fill="#C6ED07"/>
<path d="M2111.52 395.28C2111.28 395.28 2111.04 395.177 2110.82 395.103C2111.04 395.177 2111.28 395.221 2111.52 395.28Z" fill="#C6ED07"/>
<path d="M2113.09 395.589L2112.28 395.471L2113.09 395.589Z" fill="#C6ED07"/>
<path d="M2099.95 381.862C2099.93 381.372 2099.93 380.88 2099.95 380.39C2099.93 380.88 2099.93 381.372 2099.95 381.862V381.862Z" fill="#C6ED07"/>
<path d="M2110.82 395.103L2110.07 394.838L2110.82 395.103Z" fill="#14899B"/>
<path d="M2112.28 395.471L2111.52 395.28L2112.28 395.471Z" fill="#14899B"/>
<path d="M2113.77 395.692L2113.09 395.589L2113.77 395.692Z" fill="#14899B"/>
<path d="M2106.73 393.173L2106.07 392.688L2106.73 393.173Z" fill="#14899B"/>
<path d="M2108.03 393.939C2107.81 393.827 2107.61 393.705 2107.41 393.571C2107.61 393.708 2107.81 393.831 2108.03 393.939Z" fill="#14899B"/>
<path d="M2109.4 394.587C2109.16 394.499 2108.94 394.381 2108.72 394.278C2108.94 394.381 2109.16 394.499 2109.4 394.587Z" fill="#14899B"/>
<path d="M2105.52 392.275C2105.13 391.951 2104.75 391.607 2104.39 391.244C2104.75 391.607 2105.13 391.951 2105.52 392.275V392.275Z" fill="#14899B"/>
<path d="M2100.04 382.554C2100.04 382.319 2099.97 382.098 2099.96 381.863C2099.97 382.098 2100.01 382.319 2100.04 382.554Z" fill="#14899B"/>
<path d="M2100.37 384.13C2100.37 383.865 2100.22 383.615 2100.18 383.365C2100.22 383.615 2100.29 383.865 2100.37 384.13Z" fill="#14899B"/>
<path d="M2115.29 395.766H2179.07C2183.16 395.766 2187.09 394.141 2189.98 391.249C2192.87 388.357 2194.49 384.435 2194.49 380.345C2194.49 376.256 2192.87 372.334 2189.98 369.442C2187.09 366.55 2183.16 364.925 2179.07 364.925H2152.56L2126.24 391.244C2124.81 392.688 2123.1 393.831 2121.22 394.608C2119.34 395.384 2117.32 395.778 2115.29 395.766V395.766Z" fill="#14899B"/>
<path d="M2130.71 343.128V316.618C2130.77 314.553 2130.42 312.498 2129.67 310.572C2128.93 308.646 2127.8 306.89 2126.37 305.407C2124.93 303.925 2123.21 302.746 2121.31 301.941C2119.4 301.136 2117.36 300.721 2115.3 300.721C2113.23 300.721 2111.19 301.136 2109.28 301.941C2107.38 302.746 2105.66 303.925 2104.22 305.407C2102.79 306.89 2101.66 308.646 2100.92 310.572C2100.17 312.498 2099.82 314.553 2099.88 316.618V380.286C2099.88 378.262 2100.27 376.258 2101.05 374.387C2101.82 372.517 2102.96 370.818 2104.39 369.388L2130.71 343.128Z" fill="#14899B"/>
<path d="M2100.84 385.558C2100.75 385.308 2100.66 385.073 2100.59 384.823C2100.62 385.073 2100.71 385.308 2100.84 385.558Z" fill="#14899B"/>
<path d="M2102.96 389.564C2102.8 389.344 2102.62 389.138 2102.47 388.902C2102.62 389.123 2102.8 389.344 2102.96 389.564Z" fill="#14899B"/>
<path d="M2104.39 391.244C2104.03 390.893 2103.69 390.519 2103.37 390.125C2103.7 390.508 2104.03 390.891 2104.39 391.244Z" fill="#14899B"/>
<path d="M2102.06 388.239L2101.69 387.621L2102.06 388.239Z" fill="#14899B"/>
<path d="M2101.35 386.913L2101.04 386.251L2101.35 386.913Z" fill="#14899B"/>
<path d="M2130.71 343.128L2104.39 369.447C2102.96 370.877 2101.82 372.576 2101.05 374.446C2100.27 376.317 2099.88 378.321 2099.88 380.345C2099.85 380.836 2099.85 381.328 2099.88 381.818C2099.88 382.054 2099.88 382.275 2099.97 382.51C2100.06 382.746 2099.97 383.055 2100.1 383.32C2100.23 383.586 2100.22 383.821 2100.29 384.086C2100.37 384.351 2100.4 384.558 2100.47 384.779C2100.54 384.999 2100.63 385.265 2100.72 385.515C2100.81 385.765 2100.88 385.986 2100.97 386.207L2101.28 386.87L2101.62 387.577L2101.99 388.195C2102.12 388.416 2102.25 388.652 2102.4 388.858C2102.55 389.064 2102.72 389.3 2102.89 389.521C2103.05 389.742 2103.15 389.904 2103.3 390.081C2103.61 390.475 2103.95 390.848 2104.31 391.2V391.2C2104.67 391.563 2105.05 391.907 2105.45 392.231L2105.99 392.643L2106.66 393.129C2106.88 393.277 2107.1 393.394 2107.33 393.527C2107.53 393.66 2107.74 393.783 2107.95 393.895C2108.17 394.023 2108.41 394.136 2108.64 394.234C2108.86 394.337 2109.09 394.455 2109.32 394.543C2109.54 394.639 2109.77 394.723 2110 394.794L2110.75 395.059C2110.97 395.132 2111.21 395.176 2111.44 395.235L2112.21 395.427L2113.02 395.545L2113.7 395.648C2114.2 395.648 2114.7 395.648 2115.17 395.648C2117.19 395.652 2119.2 395.255 2121.07 394.479C2122.94 393.702 2124.64 392.563 2126.07 391.126L2152.39 364.807H2130.59L2130.71 343.128Z" fill="#C6ED07"/>
<path d="M2130.71 343.128L2104.39 369.447C2102.96 370.877 2101.82 372.576 2101.05 374.446C2100.27 376.317 2099.88 378.321 2099.88 380.345C2099.85 380.836 2099.85 381.328 2099.88 381.818C2099.88 382.054 2099.88 382.275 2099.97 382.51C2100.06 382.746 2099.97 383.055 2100.1 383.32C2100.23 383.586 2100.22 383.821 2100.29 384.086C2100.37 384.351 2100.4 384.558 2100.47 384.779C2100.54 384.999 2100.63 385.265 2100.72 385.515C2100.81 385.765 2100.88 385.986 2100.97 386.207L2101.28 386.87L2101.62 387.577L2101.99 388.195C2102.12 388.416 2102.25 388.652 2102.4 388.858C2102.55 389.064 2102.72 389.3 2102.89 389.521C2103.05 389.742 2103.15 389.904 2103.3 390.081C2103.61 390.475 2103.95 390.848 2104.31 391.2V391.2C2104.67 391.563 2105.05 391.907 2105.45 392.231L2105.99 392.643L2106.66 393.129C2106.88 393.277 2107.1 393.394 2107.33 393.527C2107.53 393.66 2107.74 393.783 2107.95 393.895C2108.17 394.023 2108.41 394.136 2108.64 394.234C2108.86 394.337 2109.09 394.455 2109.32 394.543C2109.54 394.639 2109.77 394.723 2110 394.794L2110.75 395.059C2110.97 395.132 2111.21 395.176 2111.44 395.235L2112.21 395.427L2113.02 395.545L2113.7 395.648C2114.2 395.648 2114.7 395.648 2115.17 395.648C2117.19 395.652 2119.2 395.255 2121.07 394.479C2122.94 393.702 2124.64 392.563 2126.07 391.126L2152.39 364.807H2130.59L2130.71 343.128Z" fill="#086E0F"/>
<path d="M1765.73 365.559L1742.35 339.785C1740.28 337.501 1737.56 335.9 1734.56 335.192C1731.56 334.484 1728.42 334.703 1725.55 335.821C1722.67 336.938 1720.21 338.9 1718.47 341.449C1716.74 343.998 1715.82 347.012 1715.84 350.094V352.907C1716.34 355.721 1717.64 358.335 1719.56 360.448L1746.66 390.331V365.559H1765.73Z" fill="#C42A56"/>
<path d="M1765.74 365.559H1791.67C1793.74 365.622 1795.79 365.271 1797.72 364.525C1799.64 363.779 1801.4 362.654 1802.88 361.217C1804.36 359.779 1805.54 358.058 1806.35 356.157C1807.15 354.255 1807.57 352.211 1807.57 350.146C1807.57 348.081 1807.15 346.037 1806.35 344.135C1805.54 342.233 1804.36 340.512 1802.88 339.075C1801.4 337.637 1799.64 336.512 1797.72 335.766C1795.79 335.021 1793.74 334.669 1791.67 334.733H1730.86C1733.02 334.717 1735.16 335.157 1737.14 336.025C1739.12 336.893 1740.89 338.169 1742.35 339.77L1765.74 365.559Z" fill="#C42A56"/>
<path d="M1715.79 352.937V410.582C1715.73 412.646 1716.08 414.702 1716.83 416.628C1717.57 418.553 1718.7 420.31 1720.13 421.792C1721.57 423.275 1723.29 424.454 1725.19 425.259C1727.1 426.064 1729.14 426.479 1731.21 426.479C1733.27 426.479 1735.31 426.064 1737.22 425.259C1739.12 424.454 1740.84 423.275 1742.28 421.792C1743.71 420.31 1744.84 418.553 1745.58 416.628C1746.33 414.702 1746.68 412.646 1746.62 410.582V390.36L1719.52 360.477C1717.59 358.364 1716.3 355.751 1715.79 352.937Z" fill="#C42A56"/>
<path d="M1730.86 334.719C1728.6 334.725 1726.38 335.228 1724.34 336.192C1722.3 337.156 1720.49 338.557 1719.05 340.295C1717.62 342.034 1716.58 344.068 1716.01 346.253C1715.45 348.437 1715.38 350.72 1715.79 352.937V350.124C1715.8 346.097 1717.37 342.232 1720.19 339.353C1723 336.474 1726.83 334.811 1730.86 334.719V334.719Z" fill="#14899B"/>
<path d="M1765.73 365.559H1746.59V390.39L1767.99 413.851L1768.5 414.382C1773.46 419.363 1776.26 426.099 1776.28 433.128C1776.3 440.157 1773.55 446.911 1768.62 451.923L1419.76 796.233C1416.92 799.12 1415.33 803.01 1415.33 807.062C1415.33 811.113 1416.93 815.001 1419.78 817.884C1422.62 820.767 1426.49 822.414 1430.54 822.469C1434.59 822.524 1438.5 820.982 1441.43 818.177L1790.3 473.809C1790.34 473.766 1790.38 473.727 1790.42 473.691C1801.08 462.952 1807.08 448.437 1807.1 433.302C1807.12 418.167 1801.17 403.635 1790.54 392.864L1765.73 365.559Z" fill="#14899B"/>
<path d="M1765.73 365.559L1742.35 339.785C1740.28 337.501 1737.56 335.9 1734.56 335.192C1731.56 334.484 1728.42 334.703 1725.55 335.821C1722.67 336.938 1720.21 338.9 1718.47 341.449C1716.74 343.998 1715.82 347.012 1715.84 350.094V352.907C1716.34 355.721 1717.64 358.335 1719.56 360.448L1746.66 390.331V365.559H1765.73Z" fill="#922D69"/>
<path d="M2036.58 794.819C2033.53 794.817 2030.55 793.911 2028.02 792.217C2025.49 790.522 2023.51 788.115 2022.34 785.298C2021.18 782.482 2020.87 779.383 2021.47 776.393C2022.06 773.403 2023.53 770.657 2025.68 768.5L2022.55 771.622C2018.2 775.953 2012.49 778.653 2006.39 779.27C2000.28 779.887 1994.15 778.383 1989.03 775.01L1988.91 774.995L1931.72 738.013C1920.67 730.725 1907.44 727.478 1894.27 728.819C1881.1 730.161 1868.8 736.01 1859.45 745.377L1722.02 882.804C1719.2 885.709 1717.64 889.607 1717.67 893.654C1717.7 897.702 1719.32 901.576 1722.18 904.439C1725.05 907.302 1728.92 908.925 1732.97 908.958C1737.01 908.992 1740.91 907.432 1743.82 904.616L1881.25 767.175C1885.6 762.85 1891.31 760.155 1897.42 759.541C1903.52 758.927 1909.65 760.431 1914.78 763.802L1914.91 763.89L1972.1 800.872C1983.15 808.16 1996.38 811.408 2009.55 810.066C2022.72 808.724 2035.02 802.875 2044.37 793.508L2065.17 772.712L2047.5 790.386C2046.06 791.808 2044.35 792.932 2042.48 793.693C2040.61 794.454 2038.6 794.837 2036.58 794.819V794.819Z" fill="#14899B"/>
<path d="M2207.57 608.408H2185.77L2025.73 768.5L2043.4 750.827C2044.83 749.395 2046.53 748.259 2048.4 747.483C2050.28 746.708 2052.28 746.309 2054.31 746.309C2056.33 746.309 2058.34 746.708 2060.21 747.483C2062.08 748.259 2063.78 749.395 2065.21 750.827C2066.64 752.259 2067.78 753.959 2068.56 755.831C2069.33 757.702 2069.73 759.707 2069.73 761.733C2069.73 763.758 2069.33 765.764 2068.56 767.635C2067.78 769.506 2066.64 771.207 2065.21 772.639L2207.63 630.22L2207.57 608.408Z" fill="#6CCD18"/>
<path d="M2065.15 750.826C2062.26 747.94 2058.34 746.32 2054.25 746.32C2050.16 746.32 2046.24 747.94 2043.34 750.826L2025.67 768.5C2024.17 769.915 2022.96 771.617 2022.13 773.506C2021.29 775.394 2020.85 777.431 2020.82 779.495C2020.79 781.56 2021.17 783.609 2021.95 785.522C2022.72 787.435 2023.87 789.173 2025.33 790.633C2026.79 792.093 2028.53 793.245 2030.44 794.02C2032.36 794.796 2034.41 795.179 2036.47 795.148C2038.53 795.116 2040.57 794.671 2042.46 793.838C2044.35 793.005 2046.05 791.801 2047.47 790.297L2065.14 772.624C2068.02 769.731 2069.64 765.813 2069.65 761.728C2069.65 757.643 2068.03 753.724 2065.15 750.826V750.826Z" fill="#6CCD18"/>
<path d="M2065.15 750.826C2062.26 747.94 2058.34 746.32 2054.25 746.32C2050.16 746.32 2046.24 747.94 2043.34 750.826L2025.67 768.5C2024.17 769.915 2022.96 771.617 2022.13 773.506C2021.29 775.394 2020.85 777.431 2020.82 779.495C2020.79 781.56 2021.17 783.609 2021.95 785.522C2022.72 787.435 2023.87 789.173 2025.33 790.633C2026.79 792.093 2028.53 793.245 2030.44 794.02C2032.36 794.796 2034.41 795.179 2036.47 795.148C2038.53 795.116 2040.57 794.671 2042.46 793.838C2044.35 793.005 2046.05 791.801 2047.47 790.297L2065.14 772.624C2068.02 769.731 2069.64 765.813 2069.65 761.728C2069.65 757.643 2068.03 753.724 2065.15 750.826V750.826Z" fill="#086E0F"/>
<path d="M2236.22 585.108L2236.59 585.726L2236.22 585.108Z" fill="#14899B"/>
<path d="M2227.5 578.245L2228.24 578.495L2227.5 578.245Z" fill="#14899B"/>
<path d="M2235.32 583.782C2235.48 583.988 2235.66 584.209 2235.81 584.429C2235.66 584.209 2235.48 583.988 2235.32 583.782Z" fill="#14899B"/>
<path d="M2236.93 586.478L2237.23 587.154L2236.93 586.478Z" fill="#14899B"/>
<path d="M2228.88 578.746L2229.56 579.069L2228.88 578.746Z" fill="#14899B"/>
<path d="M2230.25 579.394L2230.87 579.761L2230.25 579.394Z" fill="#14899B"/>
<path d="M2231.55 580.174L2232.21 580.659L2231.55 580.174Z" fill="#14899B"/>
<path d="M2232.76 581.072C2233.14 581.382 2233.51 581.72 2233.88 582.074C2233.52 581.72 2233.14 581.396 2232.76 581.072Z" fill="#14899B"/>
<path d="M2233.91 582.059C2234.26 582.409 2234.59 582.778 2234.91 583.164C2234.59 582.778 2234.26 582.409 2233.91 582.059Z" fill="#14899B"/>
<path d="M2237.48 587.773C2237.57 588.024 2237.66 588.274 2237.73 588.524C2237.66 588.274 2237.57 588.024 2237.48 587.773Z" fill="#14899B"/>
<path d="M2224.55 577.641C2224.78 577.661 2225.01 577.695 2225.23 577.744C2225.01 577.694 2224.78 577.659 2224.55 577.641V577.641Z" fill="#14899B"/>
<path d="M2222.99 577.641H2162.52C2158.51 577.765 2154.71 579.443 2151.93 582.32C2149.14 585.197 2147.58 589.047 2147.58 593.054C2147.58 597.061 2149.14 600.911 2151.93 603.788C2154.71 606.665 2158.51 608.343 2162.52 608.467H2185.78L2212.09 582.059C2213.53 580.643 2215.23 579.524 2217.1 578.766C2218.97 578.008 2220.97 577.626 2222.99 577.641Z" fill="#14899B"/>
<path d="M2226.03 577.876C2226.29 577.925 2226.54 577.988 2226.79 578.068C2226.54 577.988 2226.29 577.925 2226.03 577.876V577.876Z" fill="#14899B"/>
<path d="M2237.91 589.217C2237.99 589.468 2238.06 589.723 2238.1 589.982C2238.06 589.723 2237.99 589.468 2237.91 589.217V589.217Z" fill="#14899B"/>
<path d="M2207.57 630.22V653.46C2207.7 657.465 2209.37 661.265 2212.25 664.055C2215.13 666.844 2218.98 668.404 2222.99 668.404C2226.99 668.404 2230.84 666.844 2233.72 664.055C2236.6 661.265 2238.27 657.465 2238.4 653.46V592.987C2238.4 595.013 2238 597.02 2237.23 598.892C2236.46 600.765 2235.32 602.467 2233.89 603.901L2207.57 630.22Z" fill="#14899B"/>
<path d="M2238.24 590.793C2238.24 591.014 2238.31 591.249 2238.32 591.47C2238.31 591.249 2238.27 591.014 2238.24 590.793Z" fill="#14899B"/>
<path d="M2222.99 577.641C2223.51 577.641 2224.01 577.641 2224.46 577.714C2224.01 577.641 2223.49 577.641 2222.99 577.641Z" fill="#6CCD18"/>
<path d="M2225.19 577.759C2225.46 577.783 2225.73 577.822 2226 577.876C2225.73 577.822 2225.46 577.783 2225.19 577.759V577.759Z" fill="#6CCD18"/>
<path d="M2226.76 578.068L2227.47 578.244L2226.76 578.068Z" fill="#6CCD18"/>
<path d="M2230.87 579.762L2231.55 580.174L2230.87 579.762Z" fill="#6CCD18"/>
<path d="M2229.56 579.114L2230.25 579.437L2229.56 579.114Z" fill="#6CCD18"/>
<path d="M2228.21 578.495L2228.88 578.745L2228.21 578.495Z" fill="#6CCD18"/>
<path d="M2237.81 588.525C2237.81 588.746 2237.93 588.981 2237.99 589.216C2237.94 588.982 2237.88 588.751 2237.81 588.525V588.525Z" fill="#6CCD18"/>
<path d="M2238.1 589.983C2238.1 590.248 2238.19 590.512 2238.24 590.792C2238.19 590.512 2238.16 590.248 2238.1 589.983Z" fill="#6CCD18"/>
<path d="M2238.32 591.47C2238.35 591.961 2238.35 592.452 2238.32 592.943C2238.35 592.452 2238.35 591.961 2238.32 591.47V591.47Z" fill="#6CCD18"/>
<path d="M2232.21 580.66L2232.76 581.072L2232.21 580.66Z" fill="#6CCD18"/>
<path d="M2237.23 587.096C2237.32 587.317 2237.4 587.552 2237.48 587.773C2237.4 587.552 2237.32 587.317 2237.23 587.096Z" fill="#6CCD18"/>
<path d="M2234.86 583.223C2235.01 583.399 2235.14 583.59 2235.28 583.782C2235.19 583.532 2235.05 583.399 2234.86 583.223Z" fill="#6CCD18"/>
<path d="M2235.81 584.431C2235.95 584.651 2236.09 584.887 2236.22 585.107C2236.09 584.887 2235.95 584.651 2235.81 584.431Z" fill="#6CCD18"/>
<path d="M2236.59 585.727C2236.7 585.947 2236.81 586.197 2236.92 586.418C2236.81 586.197 2236.7 585.962 2236.59 585.727Z" fill="#6CCD18"/>
<path d="M2238.32 591.471C2238.32 591.25 2238.32 591.014 2238.24 590.793C2238.15 590.572 2238.24 590.248 2238.1 589.983C2238.06 589.724 2237.99 589.468 2237.91 589.217C2237.91 588.982 2237.81 588.746 2237.74 588.525C2237.66 588.304 2237.57 588.024 2237.48 587.774C2237.4 587.523 2237.32 587.317 2237.23 587.096L2236.93 586.419C2236.81 586.198 2236.7 585.948 2236.59 585.727L2236.22 585.108C2236.09 584.887 2235.95 584.652 2235.81 584.431C2235.66 584.21 2235.48 583.989 2235.32 583.783C2235.16 583.576 2235.05 583.4 2234.91 583.223C2234.59 582.837 2234.26 582.469 2233.91 582.118V582.118C2233.54 581.765 2233.17 581.426 2232.79 581.117L2232.24 580.704L2231.58 580.218L2230.9 579.806L2230.28 579.438L2229.59 579.114L2228.91 578.79L2228.24 578.539L2227.5 578.289L2226.79 578.112C2226.54 578.033 2226.29 577.969 2226.03 577.921C2225.76 577.866 2225.49 577.827 2225.22 577.803C2225 577.735 2224.78 577.681 2224.55 577.641C2224.05 577.641 2223.55 577.567 2223.08 577.567C2221.06 577.564 2219.05 577.96 2217.18 578.733C2215.31 579.507 2213.61 580.642 2212.18 582.074L2185.86 608.393H2207.66V630.22L2233.98 603.901C2235.41 602.467 2236.55 600.765 2237.32 598.893C2238.09 597.02 2238.49 595.014 2238.49 592.988V592.988C2238.46 592.479 2238.41 591.973 2238.32 591.471Z" fill="#6CCD18"/>
<path d="M2238.32 591.471C2238.32 591.25 2238.32 591.014 2238.24 590.793C2238.15 590.572 2238.24 590.248 2238.1 589.983C2238.06 589.724 2237.99 589.468 2237.91 589.217C2237.91 588.982 2237.81 588.746 2237.74 588.525C2237.66 588.304 2237.57 588.024 2237.48 587.774C2237.4 587.523 2237.32 587.317 2237.23 587.096L2236.93 586.419C2236.81 586.198 2236.7 585.948 2236.59 585.727L2236.22 585.108C2236.09 584.887 2235.95 584.652 2235.81 584.431C2235.66 584.21 2235.48 583.989 2235.32 583.783C2235.16 583.576 2235.05 583.4 2234.91 583.223C2234.59 582.837 2234.26 582.469 2233.91 582.118V582.118C2233.54 581.765 2233.17 581.426 2232.79 581.117L2232.24 580.704L2231.58 580.218L2230.9 579.806L2230.28 579.438L2229.59 579.114L2228.91 578.79L2228.24 578.539L2227.5 578.289L2226.79 578.112C2226.54 578.033 2226.29 577.969 2226.03 577.921C2225.76 577.866 2225.49 577.827 2225.22 577.803C2225 577.735 2224.78 577.681 2224.55 577.641C2224.05 577.641 2223.55 577.567 2223.08 577.567C2221.06 577.564 2219.05 577.96 2217.18 578.733C2215.31 579.507 2213.61 580.642 2212.18 582.074L2185.86 608.393H2207.66V630.22L2233.98 603.901C2235.41 602.467 2236.55 600.765 2237.32 598.893C2238.09 597.02 2238.49 595.014 2238.49 592.988V592.988C2238.46 592.479 2238.41 591.973 2238.32 591.471Z" fill="#007400"/>
<path d="M1638.12 878.798C1637.87 878.791 1637.63 878.691 1637.45 878.518C1637.28 878.34 1637.19 878.102 1637.19 877.855C1637.19 877.608 1637.28 877.371 1637.45 877.192L1963.38 551.278C1963.47 551.19 1963.57 551.12 1963.69 551.072C1963.8 551.024 1963.92 551 1964.05 551C1964.17 551 1964.29 551.024 1964.41 551.072C1964.52 551.12 1964.62 551.19 1964.71 551.278C1964.88 551.456 1964.98 551.694 1964.98 551.941C1964.98 552.188 1964.88 552.425 1964.71 552.604L1638.78 878.518C1638.6 878.695 1638.37 878.796 1638.12 878.798V878.798Z" fill="white"/>
<path d="M1964.9 556.462L1972.23 543.737L1959.52 551.087L1964.9 556.462Z" fill="white"/>
<path d="M2098.59 874.983C2098.4 874.985 2098.22 874.95 2098.04 874.879C2097.87 874.808 2097.72 874.703 2097.59 874.571C2097.34 874.299 2097.2 873.945 2097.2 873.577C2097.2 873.209 2097.34 872.854 2097.59 872.583L2273.66 696.525C2273.93 696.281 2274.28 696.146 2274.64 696.146C2275.01 696.146 2275.36 696.281 2275.63 696.525C2275.88 696.796 2276.02 697.151 2276.02 697.519C2276.02 697.887 2275.88 698.242 2275.63 698.513L2099.57 874.571C2099.44 874.702 2099.29 874.805 2099.12 874.876C2098.95 874.947 2098.77 874.983 2098.59 874.983V874.983Z" fill="white"/>
<path d="M2275.93 704.301L2286.94 685.229L2267.87 696.23L2275.93 704.301Z" fill="white"/>
<path d="M1227.47 826.248C1227.29 826.25 1227.11 826.214 1226.94 826.144C1226.77 826.073 1226.61 825.968 1226.48 825.836C1226.24 825.565 1226.11 825.214 1226.11 824.849C1226.11 824.485 1226.24 824.133 1226.48 823.862L1479.81 570.542C1479.91 570.334 1480.06 570.155 1480.25 570.017C1480.44 569.88 1480.65 569.789 1480.88 569.752C1481.11 569.715 1481.35 569.732 1481.57 569.803C1481.79 569.874 1481.99 569.997 1482.16 570.16C1482.32 570.324 1482.45 570.525 1482.52 570.745C1482.59 570.966 1482.61 571.201 1482.58 571.431C1482.54 571.66 1482.45 571.878 1482.31 572.067C1482.18 572.255 1482 572.409 1481.79 572.515L1228.47 825.836C1228.34 825.971 1228.19 826.077 1228.02 826.148C1227.84 826.219 1227.66 826.253 1227.47 826.248V826.248Z" fill="white"/>
<path d="M1481.96 578.348L1492.97 559.29L1473.9 570.292L1481.96 578.348Z" fill="white"/>
<path d="M2153.08 556.3C2152.9 556.3 2152.71 556.264 2152.55 556.193C2152.38 556.122 2152.22 556.018 2152.09 555.888C2151.84 555.616 2151.71 555.261 2151.71 554.893C2151.71 554.525 2151.84 554.171 2152.09 553.899L2587.73 118.277C2587.86 118.131 2588.01 118.013 2588.18 117.93C2588.36 117.847 2588.55 117.801 2588.74 117.794C2588.93 117.787 2589.12 117.819 2589.3 117.89C2589.48 117.96 2589.64 118.067 2589.78 118.203C2589.91 118.338 2590.02 118.501 2590.09 118.68C2590.16 118.859 2590.19 119.05 2590.19 119.242C2590.18 119.435 2590.13 119.623 2590.05 119.797C2589.97 119.97 2589.85 120.124 2589.7 120.25L2154.08 555.888C2153.95 556.02 2153.79 556.125 2153.62 556.196C2153.45 556.267 2153.27 556.302 2153.08 556.3V556.3Z" fill="white"/>
<path d="M2151.8 548.111L2140.8 567.184L2159.87 556.182L2151.8 548.111Z" fill="white"/>
<path d="M2040.73 310.123C2040.43 310.126 2040.12 310.068 2039.84 309.952C2039.56 309.835 2039.3 309.663 2039.08 309.445C2038.87 309.229 2038.69 308.972 2038.58 308.689C2038.46 308.406 2038.4 308.102 2038.4 307.796C2038.4 307.489 2038.46 307.186 2038.58 306.902C2038.69 306.619 2038.87 306.362 2039.08 306.146L2210.83 144.387C2211.28 143.99 2211.86 143.779 2212.46 143.797C2213.05 143.815 2213.62 144.062 2214.04 144.485C2214.47 144.909 2214.71 145.479 2214.72 146.077C2214.74 146.675 2214.53 147.256 2214.13 147.701L2042.38 309.445C2042.17 309.661 2041.91 309.832 2041.63 309.948C2041.34 310.064 2041.04 310.124 2040.73 310.123Z" fill="white"/>
<path d="M2038.6 296.485L2020.23 328.267L2052.03 309.931L2038.6 296.485Z" fill="white"/>
<path d="M1431.93 860.137C1431.62 860.139 1431.32 860.08 1431.03 859.964C1430.75 859.848 1430.49 859.676 1430.28 859.46C1430.06 859.242 1429.89 858.984 1429.77 858.7C1429.65 858.416 1429.59 858.111 1429.59 857.803C1429.59 857.495 1429.65 857.191 1429.77 856.906C1429.89 856.622 1430.06 856.364 1430.28 856.146L1662.02 624.402C1662.46 623.963 1663.06 623.716 1663.68 623.716C1664.3 623.716 1664.9 623.963 1665.33 624.402C1665.77 624.842 1666.02 625.438 1666.02 626.059C1666.02 626.68 1665.77 627.276 1665.33 627.716L1433.58 859.46C1433.36 859.676 1433.1 859.848 1432.82 859.964C1432.54 860.08 1432.23 860.139 1431.93 860.137V860.137Z" fill="white"/>
<path d="M1665.8 637.348L1684.17 605.565L1652.37 623.916L1665.8 637.348Z" fill="white"/>
<path d="M2320.02 317.384C2319.76 317.355 2319.51 317.256 2319.3 317.097C2319.09 316.939 2318.92 316.726 2318.82 316.483C2318.72 316.239 2318.69 315.972 2318.72 315.711C2318.76 315.45 2318.87 315.203 2319.03 314.998L2443.69 190.323C2443.8 190.119 2443.95 189.942 2444.14 189.808C2444.33 189.674 2444.55 189.586 2444.78 189.551C2445 189.516 2445.24 189.536 2445.46 189.608C2445.68 189.68 2445.88 189.802 2446.04 189.966C2446.2 190.129 2446.32 190.329 2446.4 190.548C2446.47 190.767 2446.49 191.001 2446.45 191.229C2446.42 191.457 2446.33 191.674 2446.2 191.862C2446.06 192.05 2445.89 192.204 2445.68 192.312L2321.02 316.956C2320.89 317.092 2320.74 317.199 2320.56 317.273C2320.39 317.346 2320.21 317.384 2320.02 317.384Z" fill="white"/>
<path d="M2318.74 309.209L2307.72 328.282L2326.81 317.266L2318.74 309.209Z" fill="white"/>
<path d="M2050.13 394.823C2050.23 395.058 2050.31 395.294 2050.4 395.514C2050.31 395.294 2050.23 395.014 2050.13 394.823Z" fill="#015A00"/>
<path d="M2043.78 387.503L2044.46 387.901C2044.24 387.754 2044 387.651 2043.78 387.503Z" fill="#015A00"/>
<path d="M2047.82 390.95L2048.23 391.509L2047.82 390.95Z" fill="#015A00"/>
<path d="M2048.72 392.172C2048.86 392.378 2048.98 392.613 2049.13 392.849C2048.98 392.613 2048.86 392.393 2048.72 392.172Z" fill="#015A00"/>
<path d="M2049.48 393.453C2049.61 393.683 2049.72 393.918 2049.82 394.159C2049.72 393.918 2049.61 393.683 2049.48 393.453V393.453Z" fill="#015A00"/>
<path d="M2045.11 388.387C2045.29 388.519 2045.49 388.652 2045.67 388.799L2045.11 388.387Z" fill="#015A00"/>
<path d="M2038.1 385.486L2038.91 385.603L2038.1 385.486Z" fill="#015A00"/>
<path d="M2035.89 385.309C2036.4 385.309 2036.92 385.309 2037.36 385.382C2036.9 385.338 2036.4 385.309 2035.89 385.309Z" fill="#015A00"/>
<path d="M2039.67 385.795L2040.37 385.971L2039.67 385.795Z" fill="#015A00"/>
<path d="M2042.46 386.796L2043.16 387.135C2042.93 387.01 2042.7 386.897 2042.46 386.796Z" fill="#015A00"/>
<path d="M2041.1 386.178L2041.79 386.428C2041.57 386.332 2041.34 386.248 2041.1 386.178V386.178Z" fill="#015A00"/>
<path d="M1998.67 416.149L1809.64 605.182L1829.61 585.211C1831.02 583.708 1832.73 582.504 1834.62 581.67C1836.5 580.837 1838.54 580.392 1840.61 580.36C1842.67 580.329 1844.72 580.712 1846.63 581.488C1848.55 582.264 1850.28 583.415 1851.74 584.875C1853.2 586.335 1854.35 588.073 1855.13 589.986C1855.91 591.899 1856.29 593.949 1856.26 596.013C1856.23 598.077 1855.78 600.114 1854.95 602.002C1854.11 603.891 1852.91 605.593 1851.41 607.008L2020.48 437.946V416.149H1998.67Z" fill="#015A00"/>
<path d="M2051.01 397.71C2051.01 397.989 2051.1 398.254 2051.13 398.533C2051.1 398.254 2051.06 397.96 2051.01 397.71Z" fill="#015A00"/>
<path d="M2050.65 396.251C2050.72 396.487 2050.76 396.722 2050.82 396.958C2050.76 396.722 2050.76 396.487 2050.65 396.251Z" fill="#015A00"/>
<path d="M1820.54 631.501C1817.49 631.499 1814.51 630.593 1811.98 628.899C1809.44 627.204 1807.47 624.797 1806.3 621.98C1805.13 619.164 1804.83 616.065 1805.42 613.075C1806.02 610.085 1807.48 607.339 1809.64 605.182L1600.24 814.584C1598.73 815.999 1597.53 817.701 1596.7 819.59C1595.86 821.478 1595.42 823.515 1595.39 825.579C1595.36 827.644 1595.74 829.693 1596.51 831.606C1597.29 833.519 1598.44 835.257 1599.9 836.717C1601.36 838.177 1603.1 839.329 1605.01 840.104C1606.93 840.88 1608.97 841.263 1611.04 841.232C1613.1 841.2 1615.14 840.755 1617.03 839.922C1618.92 839.088 1620.62 837.885 1622.03 836.381L1851.41 607.008L1831.44 626.979C1830.01 628.416 1828.31 629.556 1826.44 630.332C1824.57 631.108 1822.56 631.505 1820.54 631.501Z" fill="#6CCD00"/>
<path d="M1851.41 585.211C1849.98 583.779 1848.28 582.643 1846.41 581.867C1844.54 581.092 1842.53 580.693 1840.51 580.693C1838.48 580.693 1836.48 581.092 1834.61 581.867C1832.74 582.643 1831.04 583.779 1829.61 585.211L1809.64 605.182C1808.13 606.597 1806.93 608.299 1806.1 610.188C1805.26 612.077 1804.82 614.113 1804.79 616.178C1804.76 618.242 1805.14 620.291 1805.91 622.204C1806.69 624.117 1807.84 625.855 1809.3 627.315C1810.76 628.775 1812.5 629.927 1814.41 630.702C1816.33 631.478 1818.38 631.861 1820.44 631.83C1822.5 631.799 1824.54 631.353 1826.43 630.52C1828.32 629.687 1830.02 628.483 1831.43 626.979L1851.41 607.008C1852.84 605.578 1853.97 603.879 1854.75 602.008C1855.52 600.138 1855.92 598.134 1855.92 596.11C1855.92 594.085 1855.52 592.081 1854.75 590.211C1853.97 588.341 1852.84 586.642 1851.41 585.211V585.211Z" fill="#015A00"/>
<path d="M1851.41 585.211C1849.98 583.779 1848.28 582.643 1846.41 581.867C1844.54 581.092 1842.53 580.693 1840.51 580.693C1838.48 580.693 1836.48 581.092 1834.61 581.867C1832.74 582.643 1831.04 583.779 1829.61 585.211L1809.64 605.182C1808.13 606.597 1806.93 608.299 1806.1 610.188C1805.26 612.077 1804.82 614.113 1804.79 616.178C1804.76 618.242 1805.14 620.291 1805.91 622.204C1806.69 624.117 1807.84 625.855 1809.3 627.315C1810.76 628.775 1812.5 629.927 1814.41 630.702C1816.33 631.478 1818.38 631.861 1820.44 631.83C1822.5 631.799 1824.54 631.353 1826.43 630.52C1828.32 629.687 1830.02 628.483 1831.43 626.979L1851.41 607.008C1852.84 605.578 1853.97 603.879 1854.75 602.008C1855.52 600.138 1855.92 598.134 1855.92 596.11C1855.92 594.085 1855.52 592.081 1854.75 590.211C1853.97 588.341 1852.84 586.642 1851.41 585.211V585.211Z" fill="#009000"/>
<path d="M2043.16 387.135C2043.38 387.247 2043.58 387.369 2043.78 387.503C2043.58 387.369 2043.38 387.247 2043.16 387.135V387.135Z" fill="#C6ED07"/>
<path d="M2035.89 385.309H1947.04C1942.95 385.309 1939.02 386.933 1936.13 389.825C1933.24 392.717 1931.62 396.639 1931.62 400.729C1931.62 404.819 1933.24 408.741 1936.13 411.633C1939.02 414.525 1942.95 416.149 1947.04 416.149H1998.67L2024.99 389.83C2026.42 388.395 2028.12 387.256 2029.99 386.48C2031.86 385.704 2033.86 385.306 2035.89 385.309V385.309Z" fill="#C6ED07"/>
<path d="M2041.79 386.487L2042.46 386.796L2041.79 386.487Z" fill="#C6ED07"/>
<path d="M2037.42 385.382L2038.1 385.485L2037.42 385.382Z" fill="#C6ED07"/>
<path d="M2046.79 411.628L2020.48 437.946V489.583C2020.42 491.647 2020.77 493.703 2021.52 495.628C2022.26 497.554 2023.39 499.31 2024.83 500.793C2026.26 502.276 2027.98 503.454 2029.89 504.259C2031.79 505.064 2033.83 505.479 2035.9 505.479C2037.96 505.479 2040.01 505.064 2041.91 504.259C2043.81 503.454 2045.53 502.276 2046.97 500.793C2048.41 499.31 2049.53 497.554 2050.28 495.628C2051.02 493.703 2051.37 491.647 2051.31 489.583V400.729C2051.31 402.754 2050.92 404.76 2050.14 406.631C2049.36 408.502 2048.22 410.2 2046.79 411.628Z" fill="#C6ED07"/>
<path d="M2050.4 395.515C2050.4 395.765 2050.57 396.001 2050.65 396.251C2050.57 396.001 2050.47 395.765 2050.4 395.515Z" fill="#C6ED07"/>
<path d="M2040.37 385.971C2040.62 385.971 2040.85 386.148 2041.1 386.236C2040.85 386.177 2040.62 386.045 2040.37 385.971Z" fill="#C6ED07"/>
<path d="M2038.98 385.603L2039.75 385.795L2038.98 385.603Z" fill="#C6ED07"/>
<path d="M2048.23 391.509C2048.39 391.73 2048.57 391.951 2048.72 392.171C2048.57 391.936 2048.39 391.73 2048.23 391.509Z" fill="#C6ED07"/>
<path d="M2050.76 396.959C2050.76 397.209 2050.9 397.459 2050.95 397.709C2050.95 397.459 2050.88 397.209 2050.76 396.959Z" fill="#C6ED07"/>
<path d="M2049.13 392.85C2049.25 393.056 2049.38 393.247 2049.48 393.453C2049.38 393.247 2049.29 393.056 2049.13 392.85Z" fill="#C6ED07"/>
<path d="M2044.46 387.901L2045.11 388.386L2044.46 387.901Z" fill="#C6ED07"/>
<path d="M2049.82 394.16C2049.93 394.381 2050.04 394.602 2050.13 394.822C2050.04 394.602 2049.93 394.381 2049.82 394.16Z" fill="#C6ED07"/>
<path d="M2045.67 388.799C2046.04 389.109 2046.4 389.447 2046.76 389.801C2046.41 389.448 2046.05 389.114 2045.67 388.799Z" fill="#C6ED07"/>
<path d="M2051.13 398.534C2051.13 398.755 2051.13 398.976 2051.24 399.211C2051.21 398.976 2051.16 398.755 2051.13 398.534Z" fill="#C6ED07"/>
<path d="M2046.83 389.86C2047.17 390.213 2047.51 390.582 2047.82 390.95C2047.51 390.596 2047.17 390.213 2046.83 389.86Z" fill="#C6ED07"/>
<path d="M2051.31 400.729C2051.31 400.213 2051.31 399.713 2051.31 399.256C2051.31 399.021 2051.24 398.8 2051.21 398.579C2051.18 398.358 2051.21 398.034 2051.09 397.754C2050.97 397.474 2050.96 397.253 2050.9 397.003C2050.84 396.752 2050.79 396.531 2050.72 396.296C2050.65 396.06 2050.54 395.81 2050.47 395.559C2050.4 395.309 2050.31 395.103 2050.21 394.867C2050.1 394.632 2050 394.425 2049.9 394.204C2049.8 393.963 2049.68 393.727 2049.56 393.498C2049.45 393.291 2049.32 393.1 2049.2 392.894C2049.09 392.687 2048.94 392.422 2048.79 392.216C2048.64 392.01 2048.47 391.774 2048.31 391.553L2047.89 390.994C2047.58 390.626 2047.24 390.257 2046.91 389.904H2046.83C2046.48 389.55 2046.11 389.212 2045.74 388.902C2045.37 388.593 2045.36 388.623 2045.18 388.49L2044.53 388.004L2043.86 387.606C2043.66 387.473 2043.45 387.35 2043.24 387.238L2042.53 386.899L2041.87 386.59L2041.18 386.34C2040.93 386.251 2040.69 386.148 2040.44 386.075L2039.75 385.898L2038.98 385.706L2038.17 385.589L2037.49 385.486C2036.99 385.486 2036.48 385.412 2036.02 385.412C2034 385.409 2031.99 385.807 2030.12 386.583C2028.25 387.359 2026.55 388.498 2025.12 389.933L1998.8 416.252H2020.62V438.05L2046.92 411.731C2048.35 410.28 2049.47 408.56 2050.22 406.671C2050.98 404.782 2051.35 402.762 2051.31 400.729V400.729Z" fill="#015A00"/>
<path d="M2051.31 400.729C2051.31 400.213 2051.31 399.713 2051.31 399.256C2051.31 399.021 2051.24 398.8 2051.21 398.579C2051.18 398.358 2051.21 398.034 2051.09 397.754C2050.97 397.474 2050.96 397.253 2050.9 397.003C2050.84 396.752 2050.79 396.531 2050.72 396.296C2050.65 396.06 2050.54 395.81 2050.47 395.559C2050.4 395.309 2050.31 395.103 2050.21 394.867C2050.1 394.632 2050 394.425 2049.9 394.204C2049.8 393.963 2049.68 393.727 2049.56 393.498C2049.45 393.291 2049.32 393.1 2049.2 392.894C2049.09 392.687 2048.94 392.422 2048.79 392.216C2048.64 392.01 2048.47 391.774 2048.31 391.553L2047.89 390.994C2047.58 390.626 2047.24 390.257 2046.91 389.904H2046.83C2046.48 389.55 2046.11 389.212 2045.74 388.902C2045.37 388.593 2045.36 388.623 2045.18 388.49L2044.53 388.004L2043.86 387.606C2043.66 387.473 2043.45 387.35 2043.24 387.238L2042.53 386.899L2041.87 386.59L2041.18 386.34C2040.93 386.251 2040.69 386.148 2040.44 386.075L2039.75 385.898L2038.98 385.706L2038.17 385.589L2037.49 385.486C2036.99 385.486 2036.48 385.412 2036.02 385.412C2034 385.409 2031.99 385.807 2030.12 386.583C2028.25 387.359 2026.55 388.498 2025.12 389.933L1998.8 416.252H2020.62V438.05L2046.92 411.731C2048.35 410.28 2049.47 408.56 2050.22 406.671C2050.98 404.782 2051.35 402.762 2051.31 400.729V400.729Z" fill="#63BC0B"/>
<path d="M1948.42 601.972H1887.96C1883.87 601.972 1879.95 603.596 1877.06 606.488C1874.17 609.38 1872.54 613.302 1872.54 617.392C1872.54 621.482 1874.17 625.404 1877.06 628.296C1879.95 631.187 1883.87 632.812 1887.96 632.812H1911.2L1937.52 606.493C1938.95 605.059 1940.65 603.921 1942.52 603.145C1944.39 602.369 1946.39 601.971 1948.42 601.972V601.972Z" fill="#C6ED07"/>
<path d="M2007.71 490.746C2007.53 490.748 2007.35 490.712 2007.18 490.641C2007.01 490.571 2006.85 490.466 2006.73 490.334C2006.48 490.063 2006.35 489.712 2006.35 489.347C2006.35 488.982 2006.48 488.631 2006.73 488.36L2362.47 132.679C2362.74 132.431 2363.09 132.293 2363.46 132.293C2363.83 132.293 2364.18 132.431 2364.46 132.679C2364.7 132.95 2364.83 133.302 2364.83 133.666C2364.83 134.031 2364.7 134.382 2364.46 134.653L2008.7 490.393C2008.57 490.514 2008.41 490.608 2008.24 490.669C2008.07 490.729 2007.89 490.756 2007.71 490.746Z" fill="white"/>
<path d="M2006.43 482.631L1995.42 501.704L2014.5 490.687L2006.43 482.631Z" fill="white"/>
<path d="M507.838 296.609L435.475 368.953C427.851 376.575 415.978 377.7 406.98 371.827L342.365 329.095C332.992 322.848 321.743 320.099 310.62 321.224C299.497 322.348 288.999 327.346 281 335.218L164.394 451.793C159.27 456.916 159.27 465.162 164.394 470.285C166.894 472.784 170.268 474.158 173.642 474.158C177.017 474.158 180.391 472.909 182.891 470.285L299.497 353.71C307.121 346.088 318.994 344.963 327.992 350.836L392.607 393.568C400.606 398.816 409.979 401.689 419.603 401.689C421.227 401.689 422.852 401.564 424.477 401.439C435.6 400.315 446.098 395.317 454.097 387.445L526.46 315.101V296.609H507.838Z" fill="#C42A56"/>
<path d="M548.707 292.736L526.336 315.101V334.718C526.336 341.965 532.21 347.837 539.459 347.837C546.708 347.837 552.582 341.965 552.582 334.718V283.49C552.582 286.863 551.332 290.112 548.707 292.736Z" fill="#C6ED07"/>
<path d="M550.707 276.743C550.832 276.868 550.957 277.117 550.957 277.242C550.957 277.117 550.832 276.993 550.707 276.743Z" fill="#C6ED07"/>
<path d="M552.581 283.49C552.581 283.115 552.581 282.615 552.456 282.24C552.456 281.99 552.456 281.866 552.331 281.616C552.331 281.366 552.331 281.116 552.206 280.866C552.206 280.616 552.081 280.491 552.081 280.241C552.081 279.991 551.956 279.866 551.956 279.616C551.831 279.367 551.831 279.242 551.706 278.992C551.581 278.742 551.581 278.617 551.456 278.367C551.331 278.117 551.331 277.992 551.206 277.742C551.081 277.492 551.081 277.367 550.956 277.118C550.831 276.993 550.706 276.743 550.706 276.618C550.581 276.368 550.456 276.243 550.331 275.993C550.206 275.743 550.081 275.618 549.956 275.493C549.831 275.368 549.706 275.118 549.581 274.993C549.331 274.619 549.081 274.369 548.706 273.994C548.456 273.744 548.081 273.369 547.706 273.119C547.581 272.994 547.456 272.869 547.207 272.744C547.082 272.619 546.832 272.495 546.707 272.37C546.582 272.245 546.332 272.12 546.082 271.995C545.957 271.87 545.707 271.745 545.582 271.62C545.332 271.495 545.207 271.37 544.957 271.37C544.707 271.245 544.582 271.245 544.332 271.12C544.082 270.995 543.957 270.995 543.707 270.87C543.457 270.745 543.332 270.745 543.082 270.62C542.832 270.62 542.707 270.495 542.457 270.495C542.207 270.495 542.082 270.37 541.832 270.37C541.582 270.37 541.332 270.245 541.082 270.245C540.833 270.245 540.708 270.121 540.458 270.121C540.083 270.121 539.583 269.996 539.208 269.996C535.833 269.996 532.459 271.245 529.959 273.869L507.588 296.234H526.335V314.726L548.706 292.361C551.331 290.112 552.581 286.863 552.581 283.49Z" fill="#AB1B44"/>
<path d="M448.598 144.174C448.348 144.174 448.223 144.049 448.098 143.924C447.848 143.674 447.848 143.175 448.098 142.8L590.795 0.18742C591.045 -0.0624734 591.545 -0.0624734 591.92 0.18742C592.17 0.437314 592.17 0.937101 591.92 1.31194L449.222 143.924C448.972 144.174 448.847 144.174 448.598 144.174Z" fill="white"/>
<path d="M447.849 139.551L441.6 150.421L452.473 144.174L447.849 139.551Z" fill="white"/>
<path d="M384.483 69.8309L364.612 47.9652C361.987 45.0914 358.488 43.717 354.863 43.717C347.739 43.842 342.115 49.7145 342.115 56.8364V59.2104C342.49 61.4595 343.615 63.7085 345.24 65.5827L368.236 90.9469V69.8309H384.483Z" fill="#C42A56"/>
<path d="M384.483 69.8308H406.48C413.729 69.8308 419.603 63.9583 419.603 56.7114C419.603 49.4645 413.729 43.592 406.48 43.592H355.113C354.988 43.592 354.863 43.592 354.863 43.592C358.488 43.592 361.987 44.9664 364.612 47.8402L384.483 69.8308Z" fill="#C42A56"/>
<path d="M342.115 59.0854V107.94C342.115 115.187 347.989 121.059 355.238 121.059C362.487 121.059 368.361 115.187 368.361 107.94V90.8219L345.365 65.4577C343.49 63.7085 342.49 61.4594 342.115 59.0854Z" fill="#C42A56"/>
<path d="M354.863 43.717C351.739 43.717 348.614 44.8416 346.115 47.0906C342.615 50.2143 341.241 54.8373 342.115 59.2104V56.8364C342.115 49.5895 347.74 43.842 354.863 43.717Z" fill="#14899B"/>
<path d="M384.484 69.8311H368.236V90.947L386.358 110.814C386.483 110.939 386.608 111.063 386.858 111.313C395.607 120.06 395.607 134.304 386.983 143.175L90.9062 435.175C85.782 440.298 85.657 448.545 90.7812 453.667C93.2808 456.291 96.6553 457.541 100.155 457.541C103.529 457.541 106.779 456.291 109.403 453.792L405.48 161.667L405.605 161.542C414.729 152.296 419.728 140.051 419.728 127.057C419.728 114.187 414.729 102.067 405.73 92.9462L384.484 69.8311Z" fill="#14899B"/>
<path d="M384.483 69.8309L364.612 47.9652C361.987 45.0914 358.488 43.717 354.863 43.717C347.739 43.842 342.115 49.7145 342.115 56.8364V59.2104C342.49 61.4595 343.615 63.7085 345.24 65.5827L368.236 90.9469V69.8309H384.483Z" fill="#14899B"/>
<path d="M276.127 505.27C275.877 505.27 275.752 505.145 275.627 505.02C275.377 504.77 275.377 504.271 275.627 503.896L552.207 227.389C552.457 227.139 552.957 227.139 553.332 227.389C553.582 227.639 553.582 228.139 553.332 228.513L276.752 505.02C276.502 505.145 276.377 505.27 276.127 505.27Z" fill="white"/>
<path d="M553.456 231.762L559.705 221.017L548.832 227.264L553.456 231.762Z" fill="white"/>
<path d="M582.076 112.688L421.727 273.119L438.724 256.127C443.848 251.004 452.097 251.004 457.221 256.127C462.345 261.249 462.345 269.496 457.221 274.619L600.698 131.18V112.688H582.076V112.688Z" fill="#015A00"/>
<path d="M430.975 295.485C427.601 295.485 424.226 294.235 421.726 291.611C416.602 286.489 416.602 278.242 421.726 273.119L244.005 450.794C238.881 455.916 238.881 464.163 244.005 469.286C246.505 471.785 249.879 473.159 253.254 473.159C256.628 473.159 260.003 471.91 262.502 469.286L457.096 274.744L440.098 291.736C437.599 294.11 434.349 295.485 430.975 295.485Z" fill="#6CCD00"/>
<path d="M457.095 256.127C451.971 251.004 443.722 251.004 438.598 256.127L421.601 273.119C416.477 278.242 416.477 286.489 421.601 291.611C424.101 294.11 427.475 295.485 430.849 295.485C434.224 295.485 437.598 294.235 440.098 291.611L457.095 274.619C462.219 269.621 462.219 261.249 457.095 256.127Z" fill="#C6ED07"/>
<path d="M613.695 86.5737H538.332C531.083 86.5737 525.209 92.4462 525.209 99.6931C525.209 106.94 531.083 112.813 538.332 112.813H582.2L604.571 90.4471C606.946 87.8232 610.32 86.5737 613.695 86.5737Z" fill="#C6ED07"/>
<path d="M622.944 108.939L600.572 131.305V175.161C600.572 182.408 606.446 188.28 613.695 188.28C620.944 188.28 626.818 182.408 626.818 175.161V99.8181C626.818 103.067 625.443 106.315 622.944 108.939Z" fill="#C6ED07"/>
<path d="M626.819 99.6933C626.819 99.1935 626.819 98.8187 626.694 98.4438C626.694 98.194 626.694 98.069 626.569 97.8191C626.569 97.5692 626.569 97.3193 626.444 97.0694C626.444 96.8196 626.319 96.6946 626.319 96.4447C626.319 96.1948 626.194 96.0699 626.194 95.82C626.069 95.5701 626.069 95.4451 625.944 95.1952C625.819 94.9454 625.819 94.8204 625.694 94.5705C625.569 94.3206 625.569 94.1957 625.444 93.9458C625.319 93.6959 625.319 93.5709 625.194 93.321C625.069 93.1961 624.944 92.9462 624.944 92.8212C624.819 92.5714 624.694 92.4464 624.569 92.1965C624.444 91.9466 624.319 91.8217 624.194 91.6967C624.069 91.5718 623.944 91.3219 623.819 91.197C623.569 90.8221 623.319 90.5722 622.945 90.3223C622.695 90.0724 622.32 89.6976 622.07 89.4477C621.945 89.3227 621.695 89.1978 621.57 89.0728C621.445 88.9479 621.195 88.823 621.07 88.698C620.945 88.5731 620.695 88.4481 620.445 88.3232C620.32 88.1982 620.07 88.0733 619.945 88.0733C619.695 87.9483 619.57 87.8234 619.32 87.8234C619.07 87.6984 618.945 87.6984 618.695 87.5735C618.445 87.4485 618.32 87.4485 618.07 87.3236C617.82 87.1987 617.695 87.1987 617.445 87.0737C617.196 87.0737 617.071 86.9488 616.821 86.9488C616.571 86.9488 616.446 86.8238 616.196 86.8238C615.946 86.8238 615.696 86.6989 615.446 86.6989C615.196 86.6989 615.071 86.5739 614.821 86.5739C614.446 86.5739 613.946 86.449 613.571 86.449C610.197 86.449 606.822 87.6984 604.323 90.3223L581.951 112.688H600.448V131.18L622.82 108.814C625.444 106.315 626.819 103.067 626.819 99.6933Z" fill="#6CCD00"/>
<path d="M539.458 270.37H488.092C480.843 270.37 474.969 276.243 474.969 283.49C474.969 290.737 480.843 296.609 488.092 296.609H507.838L530.21 274.244C532.834 271.62 536.084 270.37 539.458 270.37Z" fill="#C6ED07"/>
</svg>
