<svg width="497" height="353" viewBox="0 0 497 353" fill="none" xmlns="http://www.w3.org/2000/svg">
<rect width="497" height="353" rx="20" fill="#F8F8F8"/>
<path d="M233.055 269.988C222.07 270.027 211.086 270.3 200.14 271.509C196.011 271.977 191.96 272.991 187.831 273.381C179.574 274.201 171.433 275.722 163.136 276.424C156.436 276.97 149.736 277.321 143.075 278.023C136.843 278.686 129.909 278.53 123.716 277.438C119.12 276.619 114.523 276.151 110.005 274.825C104.941 273.342 99.4488 272.289 94.1902 272.328C86.6724 272.367 79.3884 272.406 72.1822 274.981C69.6503 275.878 66.5731 277.399 64.6644 279.31C60.2239 283.756 59.6396 294.756 64.0022 299.319C71.3642 307.003 87.1009 310.006 97.4233 310.162C108.758 310.318 119.743 309.46 131.078 308.992C141.595 308.524 152.112 307.861 162.668 307.9C184.209 307.939 205.788 307.9 227.29 306.457C247.506 305.092 267.761 305.56 288.017 305.56C308.778 305.56 329.423 305.716 350.029 308.485C359.027 309.694 368.18 310.123 377.217 310.942C385.319 311.683 393.071 310.942 401.134 310.24C407.912 309.655 414.612 307.9 420.766 304.975C425.635 302.634 434.282 295.419 435.802 289.841C439.969 274.279 376.867 274.63 367.168 274.669C356.339 274.708 345.393 275.059 334.565 274.669C330.007 274.513 325.528 273.616 321.087 272.64C316.647 271.665 312.206 271.899 307.688 271.509C288.952 269.793 270.177 270.066 251.402 270.066C245.286 270.027 239.171 269.988 233.055 269.988Z" fill="#E7E7E7"/>
<path d="M368.646 218.969L369.893 247.364L366.309 295.651L360.934 296.041L354.429 252.162L345.392 215.069L368.646 218.969Z" fill="#10ACC5"/>
<path d="M361.127 298.303L367.126 300.76L369.814 297.679L366.698 294.988L360.933 295.378L361.127 298.303Z" fill="#2B3342"/>
<path d="M330.708 208.907L329.5 230.398L333.006 294.208L338.381 294.481L346.444 252.591L353.534 206.723L330.708 208.907Z" fill="#10ACC5"/>
<path d="M338.224 296.744L332.265 299.357L329.538 296.315L332.576 293.545L338.38 293.818L338.224 296.744Z" fill="#2B3342"/>
<path d="M361.906 145.682L345.157 143.888C345.157 143.888 335.847 144.902 329.498 167.056C325.992 179.381 324.902 198.805 324.668 213.627C325.057 215.733 327.356 225.016 337.094 223.417C353.804 220.725 362.685 218.034 369.93 219.36C376.124 220.725 375.618 212.184 374.916 205.67L372.462 185.505L361.906 145.682Z" fill="#E2E2E2"/>
<path d="M358.676 124.816C354.469 123.879 350.106 123.06 345.86 123.879C344.926 124.075 343.952 124.387 343.445 125.206C343.251 125.518 343.134 125.869 343.056 126.22C342.004 130.198 340.641 136.088 343.251 139.754C343.757 140.456 344.419 141.002 345.12 141.47C346.094 142.055 347.146 142.484 348.236 142.679C348.003 143.654 347.691 144.629 347.302 145.566C348.275 147.009 352.794 147.204 353.612 145.8C353.651 144.59 353.69 143.381 353.768 142.172C354.313 141.938 354.858 141.665 355.365 141.353C357.273 140.066 358.559 138.155 359.299 136.01C360.117 133.669 361.247 131.407 361.948 129.028C362.22 128.17 362.415 127.156 361.987 126.376C361.48 125.518 360.429 125.245 359.494 125.05C359.221 124.933 358.948 124.855 358.676 124.816Z" fill="#AA6755"/>
<path d="M344.613 127.078C346.717 125.752 349.833 125.167 351.78 125.284C357.701 125.713 359.883 130.081 360.194 135.542C361.83 133.474 364.907 130.861 365.063 128.17C365.219 125.986 364.907 122.982 363.7 121.11C362.57 119.355 359.61 118.38 357.857 117.327C356.221 116.352 354.585 115.377 352.91 114.441C352.56 114.246 352.209 114.051 351.819 113.973C351.352 113.895 350.885 114.012 350.417 114.129C346.522 115.143 342.627 116.157 338.77 117.132C338.03 117.327 337.173 117.6 336.901 118.341C336.745 118.77 336.823 119.277 336.94 119.745C337.368 121.773 338.225 123.84 338.42 125.869C338.654 127.039 339.355 133.162 341.458 132.46C342.081 131.446 342.159 130.198 342.666 129.106C343.094 128.287 343.756 127.624 344.613 127.078Z" fill="#4F4B47"/>
<path d="M345.158 143.886L338.964 145.759L316.333 169.512L315.009 177.313L325.799 195.215L328.72 188.663L324.163 175.441L331.408 170.292L341.107 148.45L345.158 143.886Z" fill="#A9B4B9"/>
<path d="M373.323 137.22C372.894 137.025 372.505 136.79 372.076 136.595C376.283 130.472 378.542 122.983 378.542 115.026C378.542 95.8756 365.026 80.274 348.432 80.274C331.839 80.274 318.322 95.8756 318.322 115.026C318.322 122.983 320.581 130.472 324.788 136.595C324.126 136.908 323.698 137.103 323.503 137.22C305.857 145.332 294.483 163.04 294.483 182.386V194.438C294.483 199.626 298.69 203.838 303.871 203.838H392.916C398.096 203.838 402.303 199.626 402.303 194.438V182.386C402.342 163.079 390.968 145.332 373.323 137.22Z" fill="white"/>
<path d="M371.882 140.184C371.726 140.379 371.57 140.574 371.415 140.769C365.338 147.906 357.158 151.846 348.433 151.846C339.708 151.846 331.528 147.906 325.451 140.769C325.295 140.574 325.139 140.379 324.984 140.184C308.974 147.516 297.795 163.703 297.795 182.425V194.477C297.795 197.87 300.561 200.64 303.949 200.64H392.994C396.383 200.64 399.149 197.87 399.149 194.477V182.425C399.11 163.703 387.891 147.516 371.882 140.184Z" fill="#68C0AF"/>
<path d="M348.434 146.579C355.484 146.579 361.911 143.381 366.702 138.154C372 132.382 375.272 124.191 375.272 115.064C375.272 97.6683 363.236 83.549 348.434 83.549C333.593 83.549 321.596 97.6683 321.596 115.064C321.596 124.191 324.907 132.382 330.165 138.154C334.956 143.381 341.383 146.579 348.434 146.579Z" fill="#68C0AF"/>
<path d="M299.663 160.815L302.974 158.904L306.012 164.404L302.818 170.059L297.754 167.719L299.663 160.815Z" fill="#AA6755"/>
<path d="M397.199 158.244L393.888 156.332L390.85 161.832L394.044 167.487L399.107 165.147L397.199 158.244Z" fill="#AA6755"/>
<path d="M149.542 221.235L126.21 212.693L131.04 253.53L128.235 288.79L128.158 289.024L128.235 289.063V289.102L132.832 289.57H132.988L143.232 258.172L148.685 224.706L149.542 221.235Z" fill="#3B455A"/>
<path d="M132.558 291.168L127.806 291.051L126.599 295.068L126.715 295.107H126.677L134.545 299.788L138.323 300.217L138.791 295.926L137.778 295.185L132.558 291.168Z" fill="#3B455A"/>
<path d="M165.395 221.94L158.384 291.951L153.787 292.146L149.152 254.352L141.128 216.713L165.395 221.94Z" fill="#3B455A"/>
<path d="M158.384 293.552L164.5 297.023L163.915 299.91L153.009 298.272L153.671 294.098L158.384 293.552Z" fill="#3B455A"/>
<path d="M176.304 239.529C177.784 238.515 177.823 236.72 177.823 234.926C177.823 231.572 177.199 228.14 176.459 224.863C174.979 218.74 173.343 211.368 172.603 203.45C170.733 182.973 164.267 169.205 164.267 169.205L162.164 163.627C161.735 162.886 161.307 162.184 160.878 161.482C158.269 157.387 153.75 150.444 148.92 149.313C148.803 149.274 148.725 149.274 148.609 149.235C143.506 148.104 137.001 148.65 132.404 151.107C131.547 151.575 130.768 152.199 129.989 152.823C127.73 154.656 125.899 155.632 124.926 158.401C124.069 160.819 123.874 163.432 123.406 165.929C122.472 170.999 121.887 176.109 121.147 181.179C119.745 190.735 118.537 200.291 117.018 209.808C116.239 214.722 115.46 219.637 115.11 224.59C114.798 228.959 110.825 233.405 108.605 237.344C107.826 238.71 118.927 242.259 119.901 242.493C124.497 243.546 129.366 243.273 134.118 243.312C144.519 243.351 154.88 243.039 165.241 242.337C168.669 242.103 172.915 241.44 175.992 239.724C176.148 239.646 176.226 239.607 176.304 239.529Z" fill="#F15858"/>
<path d="M142.883 148.687C142.883 148.687 137.04 147.087 136.222 160.31C135.404 173.532 134.08 206.958 132.171 216.124C130.302 225.29 127.458 243.271 127.458 243.271L145.376 243.895L165.826 242.296C165.826 242.296 158.815 229.346 157.763 220.18C156.672 211.015 158.581 176.496 153.984 163.547C149.427 150.598 148.492 148.921 142.883 148.687Z" fill="#F15858"/>
<path d="M169.37 178.135L170.694 179.734L175.563 172.987L156.165 151.418L148.881 149.272L152.387 158.711L169.37 178.135Z" fill="#826656"/>
<path d="M153.167 172.519L148.921 169.281L150.206 167.409L153.634 168.969L153.829 167.799L157.14 171.037L156.049 173.182L153.167 172.519Z" fill="#EAC1A4"/>
<path d="M169.836 171.697L169.641 172.126L156.359 169.552L154.411 173.921L170.693 179.732L169.836 171.697Z" fill="#826656"/>
<path d="M151.061 138.234C151.957 140.886 150.672 143.733 149.542 146.152C148.529 148.297 148.218 149.701 150.711 150.286C152.152 150.598 154.684 151.222 155.93 150.13C156.865 149.311 156.359 146.737 155.891 145.723C155.541 144.943 154.606 144.553 154.294 143.772C154.138 143.46 154.138 143.07 154.138 142.719C154.099 141.276 154.333 139.833 154.723 138.468C154.995 137.532 155.385 136.635 155.463 135.66C155.58 134.256 154.606 132.617 154.06 131.33C153.087 128.912 149.698 125.714 146.893 127.586C146.231 128.015 145.881 128.756 145.569 129.458C145.374 129.887 145.218 130.316 145.179 130.784C145.14 132.617 146.854 132.929 148.023 133.827C149.386 134.919 150.477 136.518 151.061 138.234Z" fill="#3B3631"/>
<path d="M145.647 148.608C148.101 148.023 150.01 145.956 150.945 143.615C151.88 141.275 151.919 138.662 151.646 136.127C150.789 127.78 140.389 128.287 136.883 134.722C133.845 140.3 138.519 150.285 145.647 148.608Z" fill="#D5C6AB"/>
<path d="M145.647 147.714C145.608 148.65 145.569 149.625 145.53 150.561C145.53 150.717 145.53 150.873 145.413 150.951C145.296 151.068 145.141 151.068 144.946 151.068C144.167 151.029 143.388 151.029 142.609 150.99C142.219 150.99 141.83 150.951 141.479 150.795C140.739 150.405 140.583 149.391 140.7 148.572C140.817 147.753 141.128 146.895 140.934 146.076C142.531 146.856 144.05 145.062 145.647 145.881V147.714Z" fill="#D5C6AB"/>
<path d="M142.298 121.619C139.571 122.556 137.818 125.325 135.169 126.417C133.65 127.041 131.819 127.119 130.573 128.211C127.768 130.629 130.028 135.778 127.729 138.664C127.262 139.288 126.6 139.717 126.132 140.341C125.081 141.628 124.964 143.423 124.886 145.1C124.847 145.49 124.847 145.88 124.925 146.27C125.275 150.092 130.846 149.858 133.066 149.624C135.481 149.351 134.663 148.025 134.663 148.025L134.585 147.908C134.351 146.348 134.975 144.71 136.221 143.696C136.688 143.345 137.195 143.033 137.545 142.564C138.247 141.472 137.584 140.029 137.701 138.703C138.13 133.438 146.933 134.569 149.426 130.824C152.464 126.183 147.478 119.864 142.298 121.619Z" fill="#3B3631"/>
<path d="M168.746 137.22C168.317 137.025 167.928 136.79 167.499 136.595C171.706 130.472 173.965 122.983 173.965 115.026C173.965 95.8756 160.449 80.274 143.855 80.274C127.261 80.274 113.745 95.8756 113.745 115.026C113.745 122.983 116.004 130.472 120.211 136.595C119.549 136.908 119.12 137.103 118.926 137.22C101.28 145.332 89.9062 163.04 89.9062 182.386V194.438C89.9062 199.626 94.1131 203.838 99.2937 203.838H188.339C193.519 203.838 197.726 199.626 197.726 194.438V182.386C197.804 163.079 186.391 145.332 168.746 137.22Z" fill="white"/>
<path d="M167.343 140.184C167.187 140.379 167.031 140.574 166.876 140.769C160.799 147.906 152.619 151.846 143.894 151.846C135.168 151.846 126.989 147.906 120.912 140.769C120.756 140.574 120.6 140.379 120.445 140.184C104.435 147.516 93.2559 163.703 93.2559 182.425V194.477C93.2559 197.87 96.0215 200.64 99.4103 200.64H188.455C191.844 200.64 194.61 197.87 194.61 194.477V182.425C194.571 163.703 183.352 147.516 167.343 140.184Z" fill="#68C0AF"/>
<path d="M143.895 146.579C150.945 146.579 157.372 143.381 162.163 138.154C167.461 132.382 170.733 124.191 170.733 115.064C170.733 97.6683 158.697 83.549 143.895 83.549C129.054 83.549 117.057 97.6683 117.057 115.064C117.057 124.191 120.368 132.382 125.626 138.154C130.417 143.381 136.844 146.579 143.895 146.579Z" fill="#68C0AF"/>
<path d="M95.1274 160.815L98.4384 158.904L101.477 164.404L98.2825 170.059L93.2188 167.719L95.1274 160.815Z" fill="#EAC1A4"/>
<path d="M192.664 158.244L189.353 156.332L186.314 161.832L189.509 167.487L194.572 165.147L192.664 158.244Z" fill="#EAC1A4"/>
<path d="M269.28 292.064L269.708 295.497L263.359 299.748L259.503 296.784L262.463 292.961L268.851 288.671L269.28 292.064Z" fill="#363F51"/>
<path d="M269.475 290.938L264.567 247.488L270.488 198.85L269.164 188.514L242.754 187.5L241.819 204.35L246.26 247.566L262.931 293.161L269.475 290.938Z" fill="#D3D3D3"/>
<path d="M240.3 139.446L227.017 143.073L211.67 170.298L218.954 177.046L229.159 164.915L240.3 139.446Z" fill="#3B455A"/>
<path d="M223.394 192.375L223.355 236.215L232.159 292.653L238.508 292.575L241.975 240.388L250.155 188.162L223.394 192.375Z" fill="#D3D3D3"/>
<path d="M238.468 295.268L231.651 298.778L228.185 295.385L231.573 291.914L238.468 291.836V295.268Z" fill="#363F51"/>
<path d="M273.214 207.274C273.136 205.362 273.058 203.802 273.019 203.217C272.902 198.108 272.435 193.037 271.811 187.967C271.227 183.442 270.526 172.17 269.747 167.685C269.124 163.979 266.865 154.657 265.267 151.225C261.255 142.644 262.502 141.864 244.895 139.29C237.183 138.159 235.352 142.995 229.042 148.534C228.419 149.08 228.458 152.317 228.302 153.175C228.029 154.696 227.756 156.218 227.445 157.7C227.211 158.87 226.938 160.079 226.627 161.249C223.472 173.379 219.888 185.041 219.148 197.64C218.953 201.189 217.863 204.621 217.94 208.21C217.94 208.639 217.979 209.068 218.252 209.38C219.304 210.706 225.186 208.678 226.977 208.483C231.535 208.054 236.17 207.742 240.728 207.781C245.402 207.82 250.115 208.288 254.711 209.068C257.789 209.575 260.944 210.316 263.709 211.759C266.358 213.124 268.228 215.152 270.916 216.595C271.149 216.712 271.461 216.868 271.734 216.829C273.253 216.673 273.331 211.291 273.214 207.274Z" fill="#3B455A"/>
<path d="M244.859 141.744C245.755 142.173 247.858 142.329 250.04 141.471C250.468 141.315 250.78 140.886 250.78 140.418C250.78 139.092 250.663 137.766 250.468 136.44C252.104 135.855 254.013 134.997 254.286 133.281C254.363 132.734 254.286 132.188 254.208 131.642C253.818 129.419 253.429 127.157 253.039 124.934C252.922 124.154 252.766 123.374 252.338 122.711C251.598 121.54 250.157 121.033 248.832 120.799C245.365 120.214 241.626 120.955 238.938 123.218C238.237 123.803 237.575 124.544 237.263 125.441C236.796 126.806 237.147 128.288 237.497 129.692C237.848 130.979 238.159 132.266 238.51 133.554C238.899 135.036 239.445 136.713 240.886 137.259C241.626 137.571 242.522 137.454 243.223 137.922C244.392 138.663 244.236 140.457 244.859 141.744Z" fill="#D5C6AB"/>
<path d="M225.811 119.358C225.227 113.819 227.642 107.969 232.199 109.139C234.965 109.841 237.419 111.011 240.223 109.958C242.833 108.983 244.703 109.373 247.429 110.348C250.39 111.401 254.363 111.635 257.012 113.156C258.141 113.78 259.037 114.755 259.699 115.808C262.114 119.514 262.114 124.662 259.738 128.368C259.193 129.187 258.57 129.967 257.907 130.708C256.505 132.229 254.83 134.101 252.922 134.647C252.883 132.931 254.441 127.509 253.116 126.105C251.013 123.882 246.3 124.662 243.729 125.208C240.885 125.793 238.392 127.822 235.588 128.251C229.394 129.226 226.356 124.428 225.811 119.358Z" fill="#3B3631"/>
<path d="M277.073 107.54C276.606 107.306 276.099 107.072 275.593 106.838C280.501 99.7007 283.15 90.9248 283.15 81.6419C283.15 59.2148 267.374 41 247.976 41C228.578 41 212.802 59.2148 212.802 81.6419C212.802 90.9248 215.451 99.7007 220.359 106.838C219.58 107.189 219.073 107.462 218.879 107.579C198.273 117.057 184.951 137.768 184.951 160.391V174.471C184.951 180.516 189.859 185.47 195.936 185.47H300.055C306.093 185.47 311.04 180.555 311.04 174.471V160.351C311.04 137.768 297.718 117.018 277.073 107.54Z" fill="white"/>
<path d="M275.399 110.97C275.204 111.204 275.009 111.438 274.815 111.672C267.686 120.019 258.143 124.621 247.938 124.621C237.732 124.621 228.189 120.019 221.061 111.672C220.866 111.438 220.671 111.204 220.476 110.97C201.74 119.551 188.652 138.467 188.652 160.348V174.429C188.652 178.407 191.885 181.606 195.82 181.606H299.939C303.912 181.606 307.106 178.368 307.106 174.429V160.348C307.223 138.506 294.135 119.551 275.399 110.97Z" fill="#7BCFBF"/>
<path d="M247.977 118.498C256.234 118.498 263.713 114.754 269.322 108.67C275.477 101.961 279.372 92.3269 279.372 81.6789C279.372 61.319 265.31 44.8594 247.977 44.8594C230.643 44.8594 216.581 61.358 216.581 81.6789C216.581 92.3269 220.437 101.961 226.631 108.67C232.24 114.754 239.719 118.498 247.977 118.498Z" fill="#7BCFBF"/>
</svg>
