<svg width="1440" height="669" viewBox="0 0 1440 669" fill="none" xmlns="http://www.w3.org/2000/svg">
<path d="M1685.5 -258H-244.5V516.5L-244.5 555.5C-244.5 555.5 -48.4999 460.69 -4.49992 510C39.5001 559.31 51.5 623 131 623C210.5 623 353 568.5 424 568.5C535.623 568.5 513.291 652 636 652C735 652 863 568.5 993 568.5C1123 568.5 1139.5 668.5 1267 668.5C1324.13 668.5 1392.6 561.84 1474.5 543C1575.37 519.797 1685.5 583.5 1685.5 583.5V-258Z" fill="#68C0AF"/>
<path d="M1687 -258H-247V503.5C-247 503.5 -66.5 430 -4.5 491C57.5 552 43 587.5 122.5 587.5C202 587.5 358.5 541 429.5 541C541.123 541 514.791 648 637.5 648C736.5 648 861.5 541 991.5 541C1121.5 541 1167 649 1260 630.5C1353 612 1398.5 564.5 1423.5 550.5C1448.5 536.5 1530.5 476 1687 565V-258Z" fill="#7BCFBF"/>
<path d="M1237.06 210.759H1213.82C1210.15 210.759 1206.64 212.214 1204.05 214.806C1201.46 217.397 1200 220.911 1200 224.576C1200 228.24 1201.46 231.755 1204.05 234.346C1206.64 236.937 1210.15 238.393 1213.82 238.393H1268.12C1266.22 238.38 1264.33 237.971 1262.59 237.191C1260.85 236.412 1259.29 235.28 1258.01 233.866L1237.06 210.759Z" fill="#14899B"/>
<path d="M1281.82 221.989V170.35C1281.82 166.685 1280.36 163.171 1277.77 160.579C1275.18 157.988 1271.67 156.532 1268 156.532C1264.34 156.532 1260.82 157.988 1258.23 160.579C1255.64 163.171 1254.19 166.685 1254.19 170.35V188.469L1278.48 215.246C1280.19 217.143 1281.35 219.476 1281.82 221.989Z" fill="#14899B"/>
<path d="M1547.07 -175.212C1548.39 -176.48 1549.44 -177.998 1550.17 -179.677C1550.9 -181.357 1551.29 -183.164 1551.32 -184.995C1551.34 -186.826 1551 -188.644 1550.32 -190.343C1549.63 -192.041 1548.62 -193.587 1547.33 -194.89C1546.05 -196.193 1544.51 -197.228 1542.82 -197.933C1541.13 -198.639 1539.32 -199.001 1537.49 -199C1535.66 -198.999 1533.85 -198.633 1532.16 -197.925C1530.47 -197.217 1528.94 -196.181 1527.65 -194.876L1215.04 113.695L1214.95 113.801C1205.4 123.421 1200.03 136.424 1200 149.982C1199.98 163.541 1205.31 176.56 1214.83 186.212L1237.06 210.759H1254.21V188.469L1235.12 167.42L1234.66 166.932C1230.21 162.472 1227.7 156.439 1227.68 150.143C1227.66 143.847 1230.12 137.796 1234.54 133.306L1547.07 -175.212Z" fill="#C6ED07"/>
<path d="M1237.06 210.759L1258.01 233.853C1259.87 235.892 1262.3 237.321 1264.99 237.951C1267.67 238.581 1270.49 238.383 1273.06 237.383C1275.63 236.383 1277.84 234.628 1279.39 232.349C1280.95 230.07 1281.78 227.374 1281.77 224.615V222.082C1281.3 219.569 1280.14 217.235 1278.43 215.338L1254.13 188.561V210.759H1237.06Z" fill="#0E6674"/>
<path d="M1120.01 154.924C1119.84 154.924 1119.68 154.891 1119.53 154.828C1119.38 154.764 1119.24 154.671 1119.12 154.554C1118.9 154.311 1118.78 153.993 1118.78 153.663C1118.78 153.334 1118.9 153.016 1119.12 152.773L1509.47 -237.567C1509.59 -237.697 1509.73 -237.802 1509.88 -237.877C1510.04 -237.951 1510.21 -237.993 1510.38 -237.999C1510.55 -238.005 1510.72 -237.976 1510.88 -237.913C1511.04 -237.85 1511.19 -237.755 1511.31 -237.633C1511.43 -237.511 1511.53 -237.365 1511.59 -237.205C1511.65 -237.045 1511.68 -236.873 1511.68 -236.701C1511.67 -236.529 1511.63 -236.36 1511.55 -236.205C1511.48 -236.049 1511.37 -235.911 1511.24 -235.798L1120.9 154.554C1120.79 154.673 1120.65 154.767 1120.49 154.83C1120.34 154.894 1120.17 154.926 1120.01 154.924Z" fill="white"/>
<path d="M1118.86 147.586L1109 164.676L1126.09 154.818L1118.86 147.586Z" fill="white"/>
<path d="M1204.45 -12.1208L1194.57 4.96918L1211.68 -4.90212L1204.45 -12.1208Z" fill="white"/>
<path d="M1501.53 -42.5798L1497.48 -46.6313C1493.01 -51.1094 1490.5 -57.1773 1490.5 -63.5035C1490.5 -69.8298 1493.01 -75.8977 1497.48 -80.3758C1499.94 -82.9916 1501.28 -86.4632 1501.23 -90.0548C1501.18 -93.6463 1499.72 -97.0755 1497.19 -99.6154C1494.65 -102.155 1491.22 -103.606 1487.62 -103.661C1484.03 -103.715 1480.56 -102.369 1477.95 -99.9073C1468.31 -90.2441 1462.89 -77.1524 1462.89 -63.5035C1462.89 -49.8547 1468.31 -36.763 1477.95 -27.0998L1482 -23.0615C1486.47 -18.5834 1488.98 -12.5155 1488.98 -6.18922C1488.98 0.137054 1486.47 6.20496 1482 10.6831L1359.01 133.665V153.197H1378.55L1501.53 30.2277C1511.16 20.5628 1516.58 7.47173 1516.58 -6.17603C1516.58 -19.8238 1511.16 -32.9148 1501.53 -42.5798Z" fill="#14899B"/>
<path d="M1345.2 180.845H1402.35C1406.02 180.845 1409.53 179.389 1412.12 176.798C1414.71 174.206 1416.17 170.692 1416.17 167.027C1416.17 163.363 1414.71 159.848 1412.12 157.257C1409.53 154.666 1406.02 153.21 1402.35 153.21H1378.6L1355.02 176.793C1353.73 178.087 1352.2 179.112 1350.51 179.807C1348.83 180.503 1347.02 180.855 1345.2 180.845Z" fill="#C42A56"/>
<path d="M1359.01 133.679V109.924C1359.07 108.075 1358.76 106.232 1358.09 104.507C1357.42 102.781 1356.41 101.208 1355.12 99.879C1353.83 98.5505 1352.29 97.4942 1350.59 96.7729C1348.88 96.0516 1347.05 95.6799 1345.2 95.6799C1343.35 95.6799 1341.52 96.0516 1339.82 96.7729C1338.11 97.4942 1336.57 98.5505 1335.28 99.879C1333.99 101.208 1332.99 102.781 1332.32 104.507C1331.65 106.232 1331.34 108.075 1331.39 109.924V166.974C1331.39 165.161 1331.74 163.365 1332.44 161.689C1333.13 160.013 1334.15 158.49 1335.43 157.209L1359.01 133.679Z" fill="#C42A56"/>
<path d="M1359.01 133.679L1335.43 157.262C1334.15 158.543 1333.13 160.066 1332.44 161.742C1331.74 163.417 1331.39 165.214 1331.39 167.027C1331.37 167.467 1331.37 167.908 1331.39 168.347C1331.39 168.558 1331.39 168.756 1331.47 168.967C1331.55 169.178 1331.47 169.456 1331.59 169.693C1331.71 169.931 1331.7 170.142 1331.76 170.379C1331.83 170.617 1331.85 170.802 1331.92 171C1331.99 171.198 1332.07 171.435 1332.15 171.66C1332.22 171.884 1332.29 172.082 1332.37 172.28L1332.65 172.874L1332.95 173.507L1333.28 174.061C1333.4 174.259 1333.52 174.47 1333.65 174.655C1333.78 174.84 1333.94 175.051 1334.09 175.249C1334.23 175.447 1334.32 175.592 1334.45 175.751C1334.74 176.104 1335.04 176.439 1335.37 176.754C1335.69 177.079 1336.03 177.387 1336.38 177.677L1336.87 178.047L1337.46 178.482C1337.66 178.614 1337.86 178.72 1338.07 178.839C1338.25 178.958 1338.43 179.068 1338.63 179.169C1338.83 179.283 1339.03 179.384 1339.25 179.472C1339.44 179.564 1339.64 179.67 1339.85 179.749C1340.05 179.836 1340.25 179.91 1340.46 179.974L1341.13 180.211C1341.33 180.277 1341.54 180.317 1341.75 180.369L1342.44 180.541L1343.16 180.647L1343.77 180.739C1344.22 180.739 1344.67 180.739 1345.09 180.739C1346.91 180.743 1348.7 180.387 1350.38 179.691C1352.06 178.996 1353.58 177.975 1354.86 176.688L1378.44 153.105H1358.91L1359.01 133.679Z" fill="#922D69"/>
</svg>
