<svg width="1920" height="633" viewBox="0 0 1920 633" fill="none" xmlns="http://www.w3.org/2000/svg">
<path d="M1542.69 2.00022C1682.22 12.7816 1727.5 125.5 1927.21 70.5003V515.5C1927.21 515.5 1735.66 696.5 1567.92 599C1400.19 501.5 1352.69 635.5 1248.69 622.5C1144.69 609.5 1055.19 507 888.188 590C721.188 673 649.688 547.5 511.526 563.42C373.364 579.34 324.188 633.5 227.188 622.5C130.188 611.5 -4.81219 537.778 -4.81219 537.778L-4.81244 70.5003C122 122 249.668 1.50291 346.688 2.00022C507.534 2.82471 552.73 91.5753 660.188 70.5003C829.953 37.2051 860.792 -8.50355 963.188 2.00022C1054.03 11.3187 1154.64 79.7118 1248.69 70.5003C1353.99 60.1862 1403.16 -8.78115 1542.69 2.00022Z" fill="#53B3A1"/>
<path d="M1541.19 38.5005C1680.72 49.2818 1758.5 124.5 1927.5 77.5005V548C1927.5 548 1735.66 696.5 1567.92 599C1400.19 501.5 1352.69 635.501 1248.69 622.5C1144.69 609.5 1055.19 507 888.188 590C721.188 673 626.849 512.081 488.687 528C350.525 543.92 292 601 195 590C97.9997 579 66.9995 576.5 -4.81348 528L-4.81299 70.5005C32.0203 99.0005 249.667 1.50312 346.687 2.00043C507.534 2.82491 552.73 91.5755 660.188 70.5005C829.953 37.2053 858.292 2.99671 960.688 13.5005C1051.53 22.819 1154.14 106.212 1248.19 97.0005C1353.49 86.6864 1401.66 27.7191 1541.19 38.5005Z" fill="#7BCFBF"/>
<mask id="mask0_5_20234" style="mask-type:alpha" maskUnits="userSpaceOnUse" x="-5" y="1" width="1933" height="632">
<path d="M1541.19 38.5C1680.72 49.2813 1758.5 124.5 1927.5 77.5V548C1927.5 548 1735.66 696.5 1567.92 599C1400.19 501.5 1352.69 635.5 1248.69 622.5C1144.69 609.5 1055.19 507 888.188 590C721.188 673 626.849 512.08 488.687 528C350.525 543.92 292 601 195 590C97.9997 579 66.9995 576.5 -4.81348 528L-4.81299 70.5C32.0203 99 249.667 1.50263 346.687 1.99994C507.534 2.82443 552.73 91.575 660.188 70.5C829.953 37.2048 858.292 2.99622 960.688 13.5C1051.53 22.8185 1154.14 106.212 1248.19 97C1353.49 86.6859 1401.66 27.7186 1541.19 38.5Z" fill="#7BCFBF"/>
</mask>
<g mask="url(#mask0_5_20234)">
<path d="M-3.6832 541.29L-29.9873 567.609V590.791C-29.9873 594.882 -28.3619 598.806 -25.4687 601.7C-22.5755 604.593 -18.6514 606.218 -14.5598 606.218C-10.4682 606.218 -6.5441 604.593 -3.65088 601.7C-0.75766 598.806 0.867731 594.882 0.867731 590.791V530.406C0.866259 532.431 0.463299 534.436 -0.317856 536.304C-1.09901 538.172 -2.24285 539.867 -3.6832 541.29Z" fill="#C6ED07"/>
<path d="M0.868538 530.406C0.868538 529.891 0.868557 529.39 0.794918 528.933C0.794918 528.698 0.721268 528.477 0.691811 528.256C0.662354 528.035 0.618145 527.711 0.573963 527.431C0.529778 527.151 0.441448 526.93 0.382538 526.665C0.323624 526.4 0.279404 526.209 0.205765 525.973C0.132122 525.737 0.0290375 525.487 -0.05933 525.237C-0.129768 525.006 -0.213341 524.78 -0.309677 524.559C-0.398045 524.323 -0.515903 524.103 -0.618996 523.882C-0.717022 523.644 -0.830139 523.413 -0.95771 523.189C-1.06081 522.969 -1.19339 522.777 -1.31121 522.571C-1.42904 522.365 -1.57631 522.114 -1.72359 521.893C-1.87087 521.672 -2.04759 521.451 -2.20959 521.231C-2.3716 521.01 -2.47469 520.862 -2.62197 520.686C-2.76925 520.509 -3.26999 519.92 -3.62346 519.566C-3.97377 519.213 -4.34248 518.879 -4.72806 518.565L-5.27303 518.152C-5.48904 517.976 -5.70993 517.814 -5.93576 517.666L-6.61323 517.254L-7.23182 516.886L-7.93878 516.547L-8.60151 516.238L-9.29372 515.987C-9.5441 515.899 -9.77975 515.796 -10.0301 515.722L-10.7223 515.546L-11.4882 515.369C-11.7533 515.369 -12.0331 515.281 -12.313 515.236L-12.9757 515.133C-13.4765 515.133 -13.9919 515.06 -14.4485 515.06C-16.4734 515.058 -18.4785 515.457 -20.3488 516.233C-22.2191 517.009 -23.9177 518.147 -25.3472 519.581L-51.666 545.9H-29.8539V567.697L-3.54984 541.378C-2.12281 539.934 -0.997284 538.22 -0.238754 536.336C0.519775 534.452 0.896168 532.437 0.868538 530.406Z" fill="#C42A56"/>
<path d="M0.868538 530.406C0.868538 529.891 0.868557 529.39 0.794918 528.933C0.794918 528.698 0.721268 528.477 0.691811 528.256C0.662354 528.035 0.618145 527.711 0.573963 527.431C0.529778 527.151 0.441448 526.93 0.382538 526.665C0.323624 526.4 0.279404 526.209 0.205765 525.973C0.132122 525.737 0.0290375 525.487 -0.05933 525.237C-0.129768 525.006 -0.213341 524.78 -0.309677 524.559C-0.398045 524.323 -0.515903 524.103 -0.618996 523.882C-0.717022 523.644 -0.830139 523.413 -0.95771 523.189C-1.06081 522.969 -1.19339 522.777 -1.31121 522.571C-1.42904 522.365 -1.57631 522.114 -1.72359 521.893C-1.87087 521.672 -2.04759 521.451 -2.20959 521.231C-2.3716 521.01 -2.47469 520.862 -2.62197 520.686C-2.76925 520.509 -3.26999 519.92 -3.62346 519.566C-3.97377 519.213 -4.34248 518.879 -4.72806 518.565L-5.27303 518.152C-5.48904 517.976 -5.70993 517.814 -5.93576 517.666L-6.61323 517.254L-7.23182 516.886L-7.93878 516.547L-8.60151 516.238L-9.29372 515.987C-9.5441 515.899 -9.77975 515.796 -10.0301 515.722L-10.7223 515.546L-11.4882 515.369C-11.7533 515.369 -12.0331 515.281 -12.313 515.236L-12.9757 515.133C-13.4765 515.133 -13.9919 515.06 -14.4485 515.06C-16.4734 515.058 -18.4785 515.457 -20.3488 516.233C-22.2191 517.009 -23.9177 518.147 -25.3472 519.581L-51.666 545.9H-29.8539V567.697L-3.54984 541.378C-2.12281 539.934 -0.997284 538.22 -0.238754 536.336C0.519775 534.452 0.896168 532.437 0.868538 530.406Z" fill="#E24F10"/>
<path d="M-121.668 366.234C-121.792 366.233 -121.914 366.209 -122.028 366.161C-122.142 366.113 -122.245 366.042 -122.331 365.954C-122.502 365.776 -122.598 365.538 -122.598 365.291C-122.598 365.044 -122.502 364.807 -122.331 364.628L258.032 -15.7205C258.119 -15.8087 258.222 -15.8788 258.336 -15.9266C258.45 -15.9744 258.572 -15.999 258.695 -15.999C258.819 -15.999 258.941 -15.9744 259.055 -15.9266C259.168 -15.8788 259.272 -15.8087 259.358 -15.7205C259.446 -15.6354 259.515 -15.5335 259.563 -15.421C259.611 -15.3084 259.635 -15.1874 259.635 -15.0651C259.635 -14.9429 259.611 -14.8219 259.563 -14.7093C259.515 -14.5967 259.446 -14.4949 259.358 -14.4097L-121.006 365.954C-121.091 366.044 -121.194 366.115 -121.308 366.163C-121.422 366.211 -121.545 366.235 -121.668 366.234Z" fill="white"/>
<path d="M75.3188 99.7464L49 126.065V149.306C49 153.396 50.6246 157.318 53.5165 160.21C56.4083 163.101 60.3305 164.726 64.4202 164.726C68.5099 164.726 72.432 163.101 75.3238 160.21C78.2157 157.318 79.8403 153.396 79.8403 149.306V88.9214C79.823 92.9855 78.1974 96.8774 75.3188 99.7464Z" fill="#019002"/>
<path d="M64.4199 73.4278H4.03529C1.97117 73.364 -0.084733 73.7154 -2.01045 74.4613C-3.93617 75.2071 -5.69247 76.3322 -7.17511 77.7697C-8.65776 79.2072 -9.83654 80.9279 -10.6415 82.8296C-11.4465 84.7314 -11.8613 86.7754 -11.8613 88.8406C-11.8613 90.9057 -11.4465 92.9497 -10.6415 94.8515C-9.83654 96.7532 -8.65776 98.4739 -7.17511 99.9114C-5.69247 101.349 -3.93617 102.474 -2.01045 103.22C-0.084733 103.966 1.97117 104.317 4.03529 104.253H27.276L53.5948 77.9345C56.4653 75.06 60.3576 73.4396 64.4199 73.4278Z" fill="#019002"/>
<path d="M27.2028 104.253L-110.047 241.503C-115.386 246.837 -119.622 253.172 -122.512 260.144C-125.402 267.116 -126.889 274.59 -126.889 282.137C-126.889 289.685 -125.402 297.158 -122.512 304.131C-119.622 311.103 -115.386 317.437 -110.047 322.772L-105.525 327.293C-103.051 329.765 -101.088 332.7 -99.7481 335.931C-98.4087 339.162 -97.7192 342.625 -97.7192 346.123C-97.7192 349.62 -98.4087 353.084 -99.7481 356.315C-101.088 359.546 -103.051 362.481 -105.525 364.953L-210.771 470.198C-215.577 474.996 -222.033 477.779 -228.821 477.979C-235.608 478.178 -242.217 475.78 -247.296 471.273L-292.408 431.169C-303.359 421.426 -317.621 416.239 -332.272 416.669C-346.923 417.098 -360.856 423.113 -371.217 433.482L-416.874 479.138C-413.738 476.971 -409.911 476.043 -406.131 476.534C-402.352 477.024 -398.888 478.898 -396.41 481.794C-393.931 484.69 -392.615 488.402 -392.714 492.212C-392.813 496.022 -394.321 499.66 -396.947 502.423L-421.984 527.858L-349.42 455.294C-344.614 450.496 -338.158 447.713 -331.37 447.513C-324.583 447.314 -317.974 449.712 -312.895 454.219L-267.783 494.323C-256.822 504.046 -242.565 509.22 -227.92 508.79C-213.275 508.361 -199.345 502.359 -188.974 492.01L-83.728 386.765C-78.3886 381.43 -74.1529 375.096 -71.263 368.124C-68.373 361.151 -66.8856 353.678 -66.8856 346.13C-66.8856 338.583 -68.373 331.109 -71.263 324.137C-74.1529 317.165 -78.3886 310.83 -83.728 305.496L-88.2495 300.974C-93.24 295.979 -96.0433 289.206 -96.0433 282.145C-96.0433 275.083 -93.24 268.311 -88.2495 263.315L49.0001 126.08V104.253H27.2028Z" fill="#6CCD00"/>
<path d="M79.8398 88.8481C79.8398 88.3326 79.8398 87.8171 79.8398 87.3753C79.8398 87.1544 79.7661 86.9335 79.7367 86.6978C79.7072 86.4622 79.7367 86.1529 79.6042 85.8878C79.4716 85.6227 79.4863 85.387 79.4274 85.1219L79.2506 84.4297C79.2506 84.1793 79.0739 83.9437 78.9855 83.6933C78.8972 83.4429 78.8235 83.222 78.7352 83.0011C78.6468 82.7802 78.5289 82.5592 78.4258 82.3383C78.3228 82.1174 78.205 81.867 78.0871 81.6314C77.9693 81.3957 77.8515 81.219 77.7189 81.0128C77.5864 80.8066 77.4539 80.5563 77.3066 80.3353C77.1593 80.1144 76.9973 79.9082 76.8353 79.6873C76.6733 79.4664 76.5701 79.3044 76.4081 79.1276C76.0989 78.747 75.7695 78.3832 75.4214 78.0378V77.9641C75.0679 77.6107 74.6997 77.2867 74.3315 76.9774L73.7571 76.565C73.5509 76.403 73.33 76.2262 73.1091 76.079L72.4317 75.6666L71.813 75.2984L71.1209 74.9744L70.4581 74.6504L69.7659 74.4L69.0295 74.1496L68.3225 73.9729C68.0759 73.8953 67.8251 73.8314 67.5714 73.7814C67.2987 73.7277 67.0234 73.6884 66.7466 73.6636C66.5234 73.6138 66.2971 73.5793 66.0692 73.5605C65.5684 73.5605 65.0677 73.4868 64.5964 73.4868C62.5724 73.483 60.5677 73.8792 58.6973 74.6526C56.8269 75.426 55.1278 76.5614 53.6977 77.9936L27.2021 104.253H48.9995V126.066L75.3183 99.7467C76.7524 98.3173 77.8901 96.6187 78.666 94.7484C79.442 92.8781 79.8409 90.8729 79.8398 88.8481Z" fill="#6CCD00"/>
<path d="M79.8398 88.8481C79.8398 88.3326 79.8398 87.8171 79.8398 87.3753C79.8398 87.1544 79.7661 86.9335 79.7367 86.6978C79.7072 86.4622 79.7367 86.1529 79.6042 85.8878C79.4716 85.6227 79.4863 85.387 79.4274 85.1219L79.2506 84.4297C79.2506 84.1793 79.0739 83.9437 78.9855 83.6933C78.8972 83.4429 78.8235 83.222 78.7352 83.0011C78.6468 82.7802 78.5289 82.5592 78.4258 82.3383C78.3228 82.1174 78.205 81.867 78.0871 81.6314C77.9693 81.3957 77.8515 81.219 77.7189 81.0128C77.5864 80.8066 77.4539 80.5563 77.3066 80.3353C77.1593 80.1144 76.9973 79.9082 76.8353 79.6873C76.6733 79.4664 76.5701 79.3044 76.4081 79.1276C76.0989 78.747 75.7695 78.3832 75.4214 78.0378V77.9641C75.0679 77.6107 74.6997 77.2867 74.3315 76.9774L73.7571 76.565C73.5509 76.403 73.33 76.2262 73.1091 76.079L72.4317 75.6666L71.813 75.2984L71.1209 74.9744L70.4581 74.6504L69.7659 74.4L69.0295 74.1496L68.3225 73.9729C68.0759 73.8953 67.8251 73.8314 67.5714 73.7814C67.2987 73.7277 67.0234 73.6884 66.7466 73.6636C66.5234 73.6138 66.2971 73.5793 66.0692 73.5605C65.5684 73.5605 65.0677 73.4868 64.5964 73.4868C62.5724 73.483 60.5677 73.8792 58.6973 74.6526C56.8269 75.426 55.1278 76.5614 53.6977 77.9936L27.2021 104.253H48.9995V126.066L75.3183 99.7467C76.7524 98.3173 77.8901 96.6187 78.666 94.7484C79.442 92.8781 79.8409 90.8729 79.8398 88.8481Z" fill="#007400"/>
<path d="M320.375 292.785L294.057 319.09V342.345C294.057 346.435 295.681 350.357 298.573 353.249C301.465 356.14 305.387 357.765 309.477 357.765C313.566 357.765 317.489 356.14 320.38 353.249C323.272 350.357 324.897 346.435 324.897 342.345V281.872C324.9 283.899 324.502 285.907 323.726 287.78C322.95 289.653 321.811 291.354 320.375 292.785Z" fill="#C42A56"/>
<path d="M309.477 266.467H249.093C247.029 266.403 244.973 266.754 243.047 267.5C241.121 268.246 239.365 269.371 237.883 270.809C236.4 272.246 235.221 273.967 234.416 275.869C233.611 277.77 233.196 279.815 233.196 281.88C233.196 283.945 233.611 285.989 234.416 287.891C235.221 289.792 236.4 291.513 237.883 292.951C239.365 294.388 241.121 295.513 243.047 296.259C244.973 297.005 247.029 297.356 249.093 297.292H272.334L298.652 270.974C301.523 268.099 305.415 266.479 309.477 266.467Z" fill="#C42A56"/>
<path d="M272.26 297.292L95.1272 474.44C91.7411 477.826 89.1061 481.888 87.3937 486.36C85.6814 490.833 84.9299 495.615 85.1883 500.397C85.4467 505.179 86.7092 509.853 88.8936 514.115C91.078 518.377 94.1353 522.131 97.8665 525.133L110.68 535.443C111.04 535.729 111.335 536.088 111.546 536.497C111.757 536.905 111.879 537.354 111.904 537.813C111.929 538.272 111.857 538.732 111.692 539.161C111.526 539.59 111.272 539.979 110.945 540.303L-93.1253 744.358C-94.6286 745.773 -95.8326 747.475 -96.6658 749.364C-97.499 751.253 -97.9444 753.29 -97.9758 755.354C-98.0071 757.418 -97.6236 759.467 -96.8481 761.381C-96.0726 763.294 -94.9208 765.032 -93.4611 766.492C-92.0013 767.951 -90.2634 769.103 -88.3502 769.879C-86.437 770.654 -84.3876 771.038 -82.3235 771.006C-80.2593 770.975 -78.2225 770.529 -76.3337 769.696C-74.4449 768.863 -72.7427 767.659 -71.3279 766.156L132.698 562.144C136.081 558.756 138.713 554.693 140.423 550.22C142.133 545.747 142.882 540.965 142.623 536.184C142.363 531.402 141.1 526.729 138.915 522.468C136.731 518.207 133.674 514.453 129.944 511.451L117.131 501.141C116.774 500.853 116.482 500.492 116.273 500.083C116.065 499.674 115.945 499.226 115.921 498.767C115.898 498.309 115.971 497.85 116.136 497.422C116.301 496.994 116.555 496.605 116.88 496.281L294.057 319.089V297.292H272.26Z" fill="#C6ED07"/>
<path d="M324.883 281.872C324.883 281.371 324.883 280.856 324.883 280.399C324.883 280.178 324.809 279.942 324.78 279.722C324.75 279.501 324.78 279.177 324.647 278.912C324.515 278.646 324.529 278.396 324.471 278.146L324.294 277.453C324.294 277.203 324.117 276.953 324.029 276.717C323.94 276.481 323.867 276.246 323.778 276.025C323.69 275.804 323.572 275.583 323.469 275.362C323.366 275.141 323.248 274.891 323.13 274.655C323.013 274.42 322.895 274.243 322.762 274.037C322.63 273.83 322.497 273.58 322.35 273.359C322.203 273.138 322.04 272.917 321.878 272.711C321.716 272.505 321.599 272.328 321.451 272.151C321.304 271.975 320.803 271.4 320.45 271.032C320.095 270.679 319.721 270.345 319.33 270.031L318.786 269.618L318.123 269.132L317.445 268.72L316.827 268.352L316.135 268.013L315.472 267.704L314.78 267.453L314.043 267.203L313.336 267.026C313.09 266.948 312.839 266.885 312.585 266.835C312.305 266.835 312.04 266.746 311.775 266.717C311.547 266.668 311.316 266.634 311.083 266.614C310.582 266.614 310.081 266.54 309.61 266.54C307.586 266.536 305.581 266.932 303.711 267.706C301.841 268.479 300.142 269.615 298.711 271.047L272.393 297.366H294.19V319.163L320.509 292.859C321.927 291.407 323.044 289.688 323.794 287.803C324.545 285.917 324.915 283.901 324.883 281.872Z" fill="#C42A56"/>
<path d="M324.883 281.872C324.883 281.371 324.883 280.856 324.883 280.399C324.883 280.178 324.809 279.942 324.78 279.722C324.75 279.501 324.78 279.177 324.647 278.912C324.515 278.646 324.529 278.396 324.471 278.146L324.294 277.453C324.294 277.203 324.117 276.953 324.029 276.717C323.94 276.481 323.867 276.246 323.778 276.025C323.69 275.804 323.572 275.583 323.469 275.362C323.366 275.141 323.248 274.891 323.13 274.655C323.013 274.42 322.895 274.243 322.762 274.037C322.63 273.83 322.497 273.58 322.35 273.359C322.203 273.138 322.04 272.917 321.878 272.711C321.716 272.505 321.599 272.328 321.451 272.151C321.304 271.975 320.803 271.4 320.45 271.032C320.095 270.679 319.721 270.345 319.33 270.031L318.786 269.618L318.123 269.132L317.445 268.72L316.827 268.352L316.135 268.013L315.472 267.704L314.78 267.453L314.043 267.203L313.336 267.026C313.09 266.948 312.839 266.885 312.585 266.835C312.305 266.835 312.04 266.746 311.775 266.717C311.547 266.668 311.316 266.634 311.083 266.614C310.582 266.614 310.081 266.54 309.61 266.54C307.586 266.536 305.581 266.932 303.711 267.706C301.841 268.479 300.142 269.615 298.711 271.047L272.393 297.366H294.19V319.163L320.509 292.859C321.927 291.407 323.044 289.688 323.794 287.803C324.545 285.917 324.915 283.901 324.883 281.872Z" fill="#A3264A"/>
<path d="M354.692 495.059H328.756C324.666 495.059 320.744 496.684 317.852 499.576C314.961 502.467 313.336 506.39 313.336 510.479C313.336 514.569 314.961 518.491 317.852 521.383C320.744 524.275 324.666 525.899 328.756 525.899H389.362C387.234 525.885 385.132 525.428 383.19 524.558C381.248 523.689 379.508 522.425 378.08 520.848L354.692 495.059Z" fill="#C6ED07"/>
<path d="M404.649 507.593V449.962C404.649 445.872 403.024 441.95 400.132 439.058C397.241 436.167 393.318 434.542 389.229 434.542C385.139 434.542 381.217 436.167 378.325 439.058C375.433 441.95 373.809 445.872 373.809 449.962V470.184L400.923 500.067C402.835 502.183 404.125 504.788 404.649 507.593Z" fill="#C6ED07"/>
<path d="M426.667 334.311C428.141 332.896 429.32 331.202 430.134 329.328C430.948 327.454 431.382 325.436 431.41 323.393C431.437 321.35 431.059 319.321 430.296 317.425C429.532 315.53 428.4 313.805 426.964 312.35C425.529 310.896 423.818 309.742 421.932 308.954C420.047 308.167 418.023 307.762 415.98 307.764C413.936 307.765 411.913 308.173 410.029 308.963C408.144 309.753 406.435 310.91 405.002 312.366L330.126 386.735L330.023 386.853C319.361 397.59 313.367 412.1 313.342 427.231C313.317 442.363 319.264 456.893 329.891 467.665L354.693 495.059H373.839V470.183L352.528 446.692L352.012 446.147C347.051 441.171 344.255 434.438 344.23 427.411C344.205 420.384 346.954 413.632 351.88 408.62L426.667 334.311Z" fill="#C42A56"/>
<path d="M354.692 495.059L378.08 520.833C380.154 523.108 382.868 524.703 385.865 525.406C388.863 526.109 392.003 525.888 394.872 524.773C397.742 523.657 400.206 521.698 401.941 519.155C403.675 516.611 404.599 513.602 404.591 510.523V507.696C404.067 504.891 402.777 502.287 400.865 500.17L373.75 470.287V495.059H354.692Z" fill="#C6ED07"/>
<path d="M354.692 495.059L378.08 520.833C380.154 523.108 382.868 524.703 385.865 525.406C388.863 526.109 392.003 525.888 394.872 524.773C397.742 523.657 400.206 521.698 401.941 519.155C403.675 516.611 404.599 513.602 404.591 510.523V507.696C404.067 504.891 402.777 502.287 400.865 500.17L373.75 470.287V495.059H354.692Z" fill="#AB1B44"/>
<path d="M326.754 59.4212L322.232 54.8998C317.245 49.9022 314.445 43.1303 314.445 36.0701C314.445 29.0099 317.245 22.2381 322.232 17.2405C324.98 14.3212 326.482 10.4469 326.421 6.43865C326.361 2.43044 324.741 -1.39654 321.907 -4.2311C319.072 -7.06566 315.245 -8.68497 311.237 -8.74578C307.229 -8.8066 303.354 -7.30414 300.435 -4.55689C289.678 6.22741 283.637 20.8379 283.637 36.0701C283.637 51.3024 289.678 65.9128 300.435 76.6971L304.957 81.2039C309.944 86.2015 312.744 92.9733 312.744 100.034C312.744 107.094 309.944 113.866 304.957 118.863L167.707 256.113V277.91H189.504L326.754 140.675C337.508 129.889 343.546 115.279 343.546 100.048C343.546 84.8172 337.508 70.2074 326.754 59.4212Z" fill="#C6ED07"/>
<path d="M152.286 308.766H216.073C220.162 308.766 224.085 307.141 226.977 304.249C229.868 301.357 231.493 297.435 231.493 293.345C231.493 289.256 229.868 285.334 226.977 282.442C224.085 279.55 220.162 277.925 216.073 277.925H189.563L163.244 304.244C161.809 305.688 160.101 306.831 158.22 307.608C156.339 308.384 154.321 308.778 152.286 308.766Z" fill="#14899B"/>
<path d="M167.706 256.128V229.617C167.77 227.553 167.418 225.497 166.673 223.572C165.927 221.646 164.802 219.89 163.364 218.407C161.927 216.924 160.206 215.745 158.304 214.94C156.402 214.135 154.358 213.721 152.293 213.721C150.228 213.721 148.184 214.135 146.282 214.94C144.381 215.745 142.66 216.924 141.222 218.407C139.785 219.89 138.66 221.646 137.914 223.572C137.168 225.497 136.817 227.553 136.88 229.617V293.286C136.877 291.262 137.273 289.257 138.046 287.387C138.82 285.517 139.955 283.818 141.387 282.388L167.706 256.128Z" fill="#14899B"/>
<path d="M167.706 256.128L141.387 282.447C139.955 283.877 138.82 285.576 138.046 287.446C137.273 289.317 136.877 291.321 136.881 293.345C136.852 293.836 136.852 294.328 136.881 294.818C136.881 295.054 136.881 295.275 136.969 295.51C137.057 295.746 136.969 296.055 137.102 296.32C137.234 296.586 137.219 296.821 137.293 297.086C137.367 297.351 137.396 297.558 137.47 297.779C137.543 297.999 137.632 298.265 137.72 298.515C137.808 298.765 137.882 298.986 137.971 299.207L138.28 299.87L138.619 300.577L138.987 301.195C139.119 301.416 139.252 301.652 139.399 301.858C139.546 302.064 139.723 302.3 139.885 302.521C140.047 302.742 140.15 302.904 140.298 303.081C140.612 303.475 140.952 303.848 141.314 304.2C141.674 304.563 142.052 304.907 142.448 305.231L142.993 305.643L143.656 306.129C143.876 306.277 144.097 306.394 144.333 306.527C144.533 306.66 144.739 306.783 144.952 306.895C145.175 307.023 145.406 307.136 145.644 307.234C145.865 307.337 146.086 307.455 146.321 307.543C146.542 307.639 146.768 307.723 146.999 307.794L147.75 308.059C147.971 308.132 148.206 308.176 148.442 308.235L149.208 308.427L150.018 308.545L150.695 308.648C151.196 308.648 151.697 308.648 152.168 308.648C154.194 308.652 156.2 308.255 158.07 307.479C159.941 306.702 161.639 305.563 163.067 304.126L189.386 277.807H167.588L167.706 256.128Z" fill="#C6ED07"/>
<path d="M167.706 256.128L141.387 282.447C139.955 283.877 138.82 285.576 138.046 287.446C137.273 289.317 136.877 291.321 136.881 293.345C136.852 293.836 136.852 294.328 136.881 294.818C136.881 295.054 136.881 295.275 136.969 295.51C137.057 295.746 136.969 296.055 137.102 296.32C137.234 296.586 137.219 296.821 137.293 297.086C137.367 297.351 137.396 297.558 137.47 297.779C137.543 297.999 137.632 298.265 137.72 298.515C137.808 298.765 137.882 298.986 137.971 299.207L138.28 299.87L138.619 300.577L138.987 301.195C139.119 301.416 139.252 301.652 139.399 301.858C139.546 302.064 139.723 302.3 139.885 302.521C140.047 302.742 140.15 302.904 140.298 303.081C140.612 303.475 140.952 303.848 141.314 304.2C141.674 304.563 142.052 304.907 142.448 305.231L142.993 305.643L143.656 306.129C143.876 306.277 144.097 306.394 144.333 306.527C144.533 306.66 144.739 306.783 144.952 306.895C145.175 307.023 145.406 307.136 145.644 307.234C145.865 307.337 146.086 307.455 146.321 307.543C146.542 307.639 146.768 307.723 146.999 307.794L147.75 308.059C147.971 308.132 148.206 308.176 148.442 308.235L149.208 308.427L150.018 308.545L150.695 308.648C151.196 308.648 151.697 308.648 152.168 308.648C154.194 308.652 156.2 308.255 158.07 307.479C159.941 306.702 161.639 305.563 163.067 304.126L189.386 277.807H167.588L167.706 256.128Z" fill="#086E0F"/>
<path d="M244.571 521.407H222.774L62.7256 681.5L80.3991 663.826C81.8313 662.394 83.5316 661.258 85.4029 660.483C87.2741 659.708 89.2797 659.309 91.3052 659.309C93.3306 659.309 95.3362 659.708 97.2074 660.483C99.0787 661.258 100.779 662.394 102.211 663.826C103.643 665.258 104.779 666.959 105.555 668.83C106.33 670.701 106.729 672.707 106.729 674.732C106.729 676.758 106.33 678.763 105.555 680.635C104.779 682.506 103.643 684.206 102.211 685.638L244.63 543.219L244.571 521.407Z" fill="#6CCD18"/>
<path d="M259.992 490.641H199.519C195.514 490.764 191.714 492.443 188.924 495.319C186.135 498.196 184.575 502.046 184.575 506.053C184.575 510.061 186.135 513.91 188.924 516.787C191.714 519.664 195.514 521.342 199.519 521.466H222.774L249.093 495.059C250.53 493.643 252.233 492.524 254.103 491.765C255.973 491.007 257.974 490.625 259.992 490.641Z" fill="#14899B"/>
<path d="M244.571 543.22V566.46C244.695 570.465 246.373 574.265 249.25 577.055C252.127 579.844 255.977 581.404 259.984 581.404C263.991 581.404 267.841 579.844 270.718 577.055C273.595 574.265 275.273 570.465 275.397 566.46V505.987C275.399 508.013 275.003 510.02 274.229 511.892C273.456 513.765 272.321 515.467 270.89 516.901L244.571 543.22Z" fill="#14899B"/>
<path d="M275.323 504.47C275.323 504.249 275.323 504.013 275.235 503.793C275.146 503.572 275.235 503.248 275.102 502.983C275.054 502.724 274.99 502.468 274.911 502.217C274.911 501.981 274.808 501.745 274.734 501.525C274.66 501.304 274.572 501.024 274.484 500.773C274.395 500.523 274.322 500.317 274.233 500.096L273.924 499.418C273.806 499.197 273.703 498.947 273.585 498.726L273.217 498.108C273.085 497.887 272.952 497.651 272.805 497.43C272.657 497.209 272.481 496.988 272.319 496.782C272.157 496.576 272.054 496.399 271.906 496.222C271.592 495.837 271.258 495.468 270.905 495.118C270.537 494.764 270.168 494.426 269.786 494.116L269.241 493.704L268.578 493.218L267.9 492.806L267.282 492.437L266.59 492.113L265.912 491.789L265.235 491.539L264.498 491.289L263.791 491.112C263.54 491.032 263.284 490.969 263.025 490.92C262.758 490.866 262.487 490.826 262.215 490.803C261.998 490.735 261.777 490.68 261.553 490.641C261.052 490.641 260.551 490.567 260.08 490.567C258.056 490.563 256.051 490.959 254.181 491.733C252.31 492.506 250.611 493.642 249.181 495.074L222.862 521.392H244.66V543.219L270.979 516.9C272.41 515.467 273.544 513.765 274.318 511.892C275.091 510.02 275.488 508.013 275.485 505.987C275.461 505.479 275.407 504.972 275.323 504.47Z" fill="#6CCD18"/>
<path d="M275.323 504.47C275.323 504.249 275.323 504.013 275.235 503.793C275.146 503.572 275.235 503.248 275.102 502.983C275.054 502.724 274.99 502.468 274.911 502.217C274.911 501.981 274.808 501.745 274.734 501.525C274.66 501.304 274.572 501.024 274.484 500.773C274.395 500.523 274.322 500.317 274.233 500.096L273.924 499.418C273.806 499.197 273.703 498.947 273.585 498.726L273.217 498.108C273.085 497.887 272.952 497.651 272.805 497.43C272.657 497.209 272.481 496.988 272.319 496.782C272.157 496.576 272.054 496.399 271.906 496.222C271.592 495.837 271.258 495.468 270.905 495.118C270.537 494.764 270.168 494.426 269.786 494.116L269.241 493.704L268.578 493.218L267.9 492.806L267.282 492.437L266.59 492.113L265.912 491.789L265.235 491.539L264.498 491.289L263.791 491.112C263.54 491.032 263.284 490.969 263.025 490.92C262.758 490.866 262.487 490.826 262.215 490.803C261.998 490.735 261.777 490.68 261.553 490.641C261.052 490.641 260.551 490.567 260.08 490.567C258.056 490.563 256.051 490.959 254.181 491.733C252.31 492.506 250.611 493.642 249.181 495.074L222.862 521.392H244.66V543.219L270.979 516.9C272.41 515.467 273.544 513.765 274.318 511.892C275.091 510.02 275.488 508.013 275.485 505.987C275.461 505.479 275.407 504.972 275.323 504.47Z" fill="#007400"/>
<path d="M-324.883 791.797C-325.132 791.791 -325.368 791.691 -325.546 791.517C-325.717 791.339 -325.812 791.102 -325.812 790.855C-325.812 790.608 -325.717 790.37 -325.546 790.192L0.383118 464.278C0.469513 464.189 0.572632 464.119 0.686432 464.071C0.800232 464.024 0.922424 463.999 1.04587 463.999C1.16931 463.999 1.29147 464.024 1.4053 464.071C1.5191 464.119 1.62225 464.189 1.70862 464.278C1.87964 464.456 1.97513 464.693 1.97513 464.94C1.97513 465.187 1.87964 465.425 1.70862 465.603L-324.221 791.517C-324.396 791.695 -324.634 791.795 -324.883 791.797Z" fill="white"/>
<path d="M1.89917 469.462L9.23365 456.737L-3.47656 464.086L1.89917 469.462Z" fill="white"/>
<path d="M140.387 772.754C140.201 772.756 140.016 772.721 139.844 772.65C139.672 772.579 139.516 772.474 139.385 772.342C139.137 772.07 138.999 771.716 138.999 771.348C138.999 770.98 139.137 770.625 139.385 770.354L315.458 594.296C315.728 594.052 316.08 593.917 316.444 593.917C316.809 593.917 317.16 594.052 317.431 594.296C317.679 594.567 317.817 594.922 317.817 595.29C317.817 595.658 317.679 596.013 317.431 596.284L141.373 772.342C141.245 772.473 141.091 772.576 140.921 772.647C140.752 772.718 140.57 772.754 140.387 772.754Z" fill="white"/>
<path d="M317.726 602.073L328.743 583L309.67 594.002L317.726 602.073Z" fill="white"/>
<path d="M190.079 469.3C189.895 469.3 189.714 469.263 189.544 469.193C189.375 469.122 189.221 469.018 189.092 468.887C188.844 468.616 188.706 468.261 188.706 467.893C188.706 467.525 188.844 467.171 189.092 466.899L434.73 221.276C434.855 221.131 435.01 221.013 435.183 220.93C435.357 220.847 435.545 220.8 435.737 220.793C435.929 220.786 436.121 220.819 436.3 220.89C436.479 220.96 436.641 221.066 436.777 221.202C436.913 221.338 437.02 221.501 437.09 221.68C437.16 221.859 437.193 222.05 437.186 222.242C437.179 222.434 437.133 222.623 437.05 222.796C436.966 222.97 436.849 223.124 436.703 223.25L191.08 468.887C190.95 469.02 190.794 469.125 190.622 469.196C190.45 469.266 190.265 469.302 190.079 469.3Z" fill="white"/>
<path d="M188.797 461.111L177.795 480.184L196.868 469.182L188.797 461.111Z" fill="white"/>
<path d="M77.7337 223.123C77.4273 223.126 77.1234 223.068 76.84 222.952C76.5566 222.835 76.2996 222.663 76.0841 222.445C75.8668 222.229 75.6944 221.972 75.5767 221.689C75.459 221.406 75.3984 221.102 75.3984 220.796C75.3984 220.489 75.459 220.186 75.5767 219.902C75.6944 219.619 75.8668 219.362 76.0841 219.146L307.828 -12.6126C308.275 -13.01 308.857 -13.2213 309.455 -13.203C310.053 -13.1848 310.621 -12.9384 311.043 -12.5145C311.465 -12.0906 311.709 -11.5213 311.725 -10.9233C311.74 -10.3254 311.527 -9.74414 311.127 -9.29884L79.3832 222.445C79.1663 222.661 78.909 222.832 78.6259 222.948C78.3429 223.064 78.0396 223.124 77.7337 223.123Z" fill="white"/>
<path d="M75.5981 209.484L57.2324 241.267L89.03 222.931L75.5981 209.484Z" fill="white"/>
<path d="M357.019 230.383C356.757 230.354 356.507 230.255 356.296 230.097C356.085 229.938 355.921 229.726 355.82 229.482C355.719 229.238 355.685 228.972 355.723 228.711C355.76 228.45 355.867 228.203 356.032 227.997L440.692 143.323C440.799 143.119 440.953 142.942 441.141 142.808C441.329 142.674 441.546 142.586 441.774 142.551C442.003 142.516 442.236 142.536 442.455 142.608C442.675 142.68 442.874 142.802 443.038 142.966C443.201 143.129 443.324 143.328 443.396 143.548C443.468 143.767 443.487 144.001 443.452 144.229C443.417 144.457 443.329 144.674 443.195 144.862C443.061 145.05 442.885 145.204 442.68 145.311L358.021 229.956C357.891 230.091 357.736 230.199 357.564 230.272C357.391 230.346 357.206 230.384 357.019 230.383Z" fill="white"/>
<path d="M355.737 222.209L344.721 241.282L363.808 230.266L355.737 222.209Z" fill="white"/>
<path d="M35.6697 329.149L-153.363 518.182L-133.392 498.211C-131.977 496.708 -130.275 495.504 -128.386 494.67C-126.498 493.837 -124.461 493.392 -122.397 493.36C-120.333 493.329 -118.283 493.712 -116.37 494.488C-114.457 495.264 -112.719 496.415 -111.259 497.875C-109.799 499.335 -108.648 501.073 -107.872 502.986C-107.096 504.899 -106.713 506.949 -106.744 509.013C-106.776 511.077 -107.221 513.114 -108.054 515.002C-108.888 516.891 -110.091 518.593 -111.595 520.008L57.4818 350.946V329.149H35.6697Z" fill="#015A00"/>
<path d="M72.888 298.309H-15.9656C-20.0553 298.309 -23.9775 299.933 -26.8693 302.825C-29.7611 305.717 -31.3857 309.639 -31.3857 313.729C-31.3857 317.818 -29.7611 321.741 -26.8693 324.632C-23.9775 327.524 -20.0553 329.149 -15.9656 329.149H35.6705L61.9893 302.83C63.4178 301.395 65.1163 300.256 66.9868 299.48C68.8573 298.704 70.8629 298.306 72.888 298.309Z" fill="#C6ED07"/>
<path d="M83.787 324.627L57.483 350.946V402.582C57.4191 404.646 57.7706 406.702 58.5164 408.628C59.2623 410.554 60.3873 412.31 61.8248 413.793C63.2623 415.275 64.983 416.454 66.8848 417.259C68.7865 418.064 70.8307 418.479 72.8958 418.479C74.9609 418.479 77.0049 418.064 78.9067 417.259C80.8084 416.454 82.5291 415.275 83.9666 413.793C85.4041 412.31 86.5292 410.554 87.275 408.628C88.0209 406.702 88.3723 404.646 88.3085 402.582V313.729C88.3128 315.754 87.9155 317.76 87.1394 319.631C86.3633 321.501 85.2238 323.2 83.787 324.627Z" fill="#C6ED07"/>
<path d="M88.3078 313.729C88.3078 313.213 88.3078 312.712 88.3078 312.256C88.3078 312.02 88.2342 311.799 88.2047 311.578C88.1753 311.357 88.2047 311.033 88.0869 310.754C87.9691 310.474 87.9544 310.253 87.8955 310.003C87.8366 309.752 87.7923 309.531 87.7187 309.296C87.6451 309.06 87.542 308.81 87.4683 308.559C87.3947 308.309 87.3064 308.103 87.2033 307.867C87.1002 307.631 86.997 307.425 86.8939 307.204C86.7931 306.963 86.68 306.727 86.5552 306.497C86.4521 306.291 86.3196 306.1 86.2018 305.893C86.0839 305.687 85.9366 305.422 85.7893 305.216C85.6421 305.01 85.4654 304.774 85.3034 304.553L84.891 303.994C84.5817 303.625 84.243 303.257 83.9042 302.904H83.8306C83.4771 302.55 83.1089 302.211 82.7407 301.902C82.3725 301.593 82.3578 301.622 82.1811 301.49L81.533 301.004L80.8555 300.606C80.6559 300.473 80.4495 300.35 80.237 300.238L79.53 299.899L78.8673 299.59L78.175 299.34C77.9246 299.251 77.689 299.148 77.4386 299.074L76.7465 298.898L75.9806 298.706L75.1706 298.588L74.493 298.485C73.9923 298.485 73.4768 298.412 73.0202 298.412C70.9951 298.409 68.9895 298.807 67.119 299.583C65.2485 300.359 63.5501 301.498 62.1216 302.933L35.8027 329.252H57.6149V351.049L83.919 324.73C85.3442 323.28 86.4663 321.56 87.2199 319.671C87.9734 317.782 88.3433 315.762 88.3078 313.729Z" fill="#015A00"/>
<g style="mix-blend-mode:overlay">
<path d="M88.3078 313.729C88.3078 313.213 88.3078 312.712 88.3078 312.256C88.3078 312.02 88.2342 311.799 88.2047 311.578C88.1753 311.357 88.2047 311.033 88.0869 310.754C87.9691 310.474 87.9544 310.253 87.8955 310.003C87.8366 309.752 87.7923 309.531 87.7187 309.296C87.6451 309.06 87.542 308.81 87.4683 308.559C87.3947 308.309 87.3064 308.103 87.2033 307.867C87.1002 307.631 86.997 307.425 86.8939 307.204C86.7931 306.963 86.68 306.727 86.5552 306.497C86.4521 306.291 86.3196 306.1 86.2018 305.893C86.0839 305.687 85.9366 305.422 85.7893 305.216C85.6421 305.01 85.4654 304.774 85.3034 304.553L84.891 303.994C84.5817 303.625 84.243 303.257 83.9042 302.904H83.8306C83.4771 302.55 83.1089 302.211 82.7407 301.902C82.3725 301.593 82.3578 301.622 82.1811 301.49L81.533 301.004L80.8555 300.606C80.6559 300.473 80.4495 300.35 80.237 300.238L79.53 299.899L78.8673 299.59L78.175 299.34C77.9246 299.251 77.689 299.148 77.4386 299.074L76.7465 298.898L75.9806 298.706L75.1706 298.588L74.493 298.485C73.9923 298.485 73.4768 298.412 73.0202 298.412C70.9951 298.409 68.9895 298.807 67.119 299.583C65.2485 300.359 63.5501 301.498 62.1216 302.933L35.8027 329.252H57.6149V351.049L83.919 324.73C85.3442 323.28 86.4663 321.56 87.2199 319.671C87.9734 317.782 88.3433 315.762 88.3078 313.729Z" fill="#C6ED07"/>
</g>
<path d="M44.7139 403.746C44.5301 403.748 44.3477 403.712 44.1781 403.641C44.0084 403.57 43.855 403.466 43.7271 403.334C43.4828 403.063 43.3477 402.711 43.3477 402.347C43.3477 401.982 43.4828 401.631 43.7271 401.36L449.467 -4.32089C449.738 -4.56928 450.093 -4.70703 450.461 -4.70703C450.829 -4.70703 451.184 -4.56928 451.455 -4.32089C451.699 -4.05026 451.835 -3.69867 451.835 -3.33412C451.835 -2.96957 451.699 -2.61797 451.455 -2.34735L45.7007 403.392C45.5679 403.514 45.4123 403.608 45.2429 403.668C45.0734 403.729 44.8936 403.755 44.7139 403.746Z" fill="white"/>
<path d="M43.4326 395.631L32.416 414.704L51.5034 403.687L43.4326 395.631Z" fill="white"/>
<path d="M1136.47 543.292C1136.45 542.898 1136.28 542.527 1135.99 542.258C1135.85 542.12 1135.69 542.011 1135.52 541.936C1135.34 541.862 1135.15 541.823 1134.95 541.823C1134.76 541.823 1134.57 541.862 1134.39 541.936C1134.22 542.011 1134.05 542.12 1133.92 542.258L940.395 750.885C940.263 751.025 940.161 751.19 940.093 751.37C940.026 751.55 939.994 751.741 940.001 751.933C940.007 752.125 940.051 752.314 940.131 752.489C940.21 752.664 940.323 752.822 940.464 752.953C940.604 753.085 940.769 753.187 940.949 753.255C941.129 753.322 941.32 753.354 941.512 753.347C941.704 753.341 941.893 753.297 942.068 753.217C942.243 753.138 942.401 753.025 942.532 752.884L1135.95 544.327C1136.11 544.199 1136.23 544.041 1136.32 543.863C1136.41 543.685 1136.46 543.491 1136.47 543.292Z" fill="white"/>
<path d="M1127.85 542.258L1147.37 530.018L1136.61 550.36L1127.85 542.258Z" fill="white"/>
<path d="M1397.43 561.738C1397.39 561.094 1397.11 560.489 1396.64 560.048C1396.41 559.819 1396.14 559.637 1395.85 559.512C1395.55 559.388 1395.23 559.324 1394.91 559.324C1394.59 559.324 1394.27 559.388 1393.98 559.512C1393.68 559.637 1393.41 559.819 1393.19 560.048L1160.08 811.462C1159.63 811.921 1159.37 812.54 1159.37 813.186C1159.37 813.832 1159.63 814.451 1160.08 814.91C1160.31 815.139 1160.58 815.322 1160.87 815.446C1161.17 815.57 1161.49 815.634 1161.81 815.634C1162.13 815.634 1162.45 815.57 1162.74 815.446C1163.04 815.322 1163.31 815.139 1163.53 814.91L1396.64 563.634C1396.89 563.389 1397.09 563.094 1397.23 562.768C1397.37 562.442 1397.43 562.091 1397.43 561.738Z" fill="white"/>
<path d="M1383.09 560.048L1415.56 539.602L1397.64 573.563L1383.09 560.048Z" fill="white"/>
<path d="M1225.1 558.239V576.271C1225.1 579.444 1226.36 582.487 1228.6 584.73C1230.85 586.974 1233.89 588.235 1237.06 588.235C1240.23 588.235 1243.28 586.974 1245.52 584.73C1247.76 582.487 1249.03 579.444 1249.03 576.271V529.415C1249.04 532.576 1247.8 535.615 1245.58 537.862L1225.1 558.239Z" fill="#009000"/>
<path d="M1237.31 517.816H1190.45C1188.83 517.729 1187.2 517.973 1185.68 518.534C1184.15 519.095 1182.76 519.961 1181.58 521.079C1180.4 522.197 1179.46 523.543 1178.82 525.036C1178.17 526.529 1177.84 528.138 1177.84 529.763C1177.84 531.388 1178.17 532.996 1178.82 534.489C1179.46 535.982 1180.4 537.329 1181.58 538.446C1182.76 539.564 1184.15 540.43 1185.68 540.991C1187.2 541.552 1188.83 541.797 1190.45 541.709H1208.55L1230.71 522.605C1232.93 520.4 1242 520.23 1245.13 520.202L1237.31 517.816Z" fill="#009000"/>
<path d="M1208.31 541.344L1101.84 647.709C1100.17 649.382 1099.03 651.511 1098.58 653.829C1098.12 656.146 1098.35 658.548 1099.26 660.731C1100.16 662.914 1101.69 664.78 1103.65 666.095C1105.61 667.41 1107.92 668.115 1110.29 668.12C1111.85 668.133 1113.4 667.835 1114.85 667.243C1116.3 666.651 1117.62 665.777 1118.73 664.672L1225.1 558.307V541.413L1208.31 541.344Z" fill="#6CCD00"/>
<path d="M1248.99 528.794V528.519C1248.97 528.427 1248.97 528.334 1248.99 528.243C1248.99 528.243 1248.99 528.001 1248.99 527.863C1248.97 527.795 1248.97 527.725 1248.99 527.657C1248.99 527.657 1248.99 527.415 1248.99 527.277V527.036C1248.97 526.91 1248.97 526.782 1248.99 526.657V526.277C1248.99 526.277 1248.99 526.277 1248.99 526.071V525.76V525.519V525.209V524.967V524.726C1249 524.623 1249 524.519 1248.99 524.416V524.209V523.899V523.692L1248.78 523.381L1248.58 523.071L1248.33 522.761L1248.13 522.485L1247.92 522.244V522.037L1247.51 521.588L1247.09 521.209H1246.89L1246.65 521.002L1246.37 520.761L1246.06 520.554C1245.96 520.465 1245.84 520.395 1245.71 520.347L1245.37 520.175L1245.06 520.002H1244.82H1244.54H1244.3H1244.02H1243.75H1243.51H1243.16H1242.96H1242.61H1242.4H1242.03H1239.34H1238.96H1237.2C1234.04 519.995 1231 521.234 1228.75 523.45L1208.31 541.344H1225.2V558.239L1245.61 537.862C1247.83 535.614 1249.07 532.576 1249.06 529.415C1249.02 529.208 1248.99 529.001 1248.99 528.794Z" fill="#007400"/>
<path d="M1394.87 463.562L1237.51 620.919L1254.13 604.267C1256.57 602.028 1259.78 600.818 1263.1 600.891C1266.41 600.963 1269.57 602.311 1271.91 604.654C1274.25 606.997 1275.6 610.155 1275.67 613.468C1275.75 616.78 1274.54 619.993 1272.3 622.436L1413 481.697V463.562H1394.87Z" fill="#005A00"/>
<path d="M1246.58 642.813C1244.04 642.812 1241.56 642.06 1239.45 640.65C1237.34 639.241 1235.7 637.238 1234.73 634.895C1233.76 632.552 1233.51 629.973 1234 627.486C1234.49 624.998 1235.72 622.713 1237.51 620.919L1063.19 795.206C1061.1 797.67 1060.02 800.831 1060.16 804.057C1060.3 807.284 1061.65 810.338 1063.95 812.611C1066.24 814.884 1069.31 816.207 1072.54 816.317C1075.76 816.427 1078.91 815.315 1081.36 813.204L1272.26 622.299L1255.61 638.917C1254.44 640.133 1253.04 641.105 1251.49 641.773C1249.93 642.442 1248.27 642.796 1246.58 642.813Z" fill="#6CCD00"/>
<path d="M1272.26 604.267C1269.86 601.862 1266.6 600.512 1263.2 600.512C1259.8 600.512 1256.53 601.862 1254.13 604.267L1237.51 620.92C1235.72 622.713 1234.5 624.999 1234 627.486C1233.51 629.974 1233.76 632.552 1234.73 634.895C1235.7 637.239 1237.34 639.241 1239.45 640.651C1241.56 642.06 1244.04 642.813 1246.58 642.813C1248.26 642.819 1249.93 642.489 1251.49 641.844C1253.05 641.199 1254.46 640.251 1255.65 639.055L1272.3 622.437C1274.7 620.021 1276.05 616.751 1276.04 613.345C1276.03 609.938 1274.67 606.673 1272.26 604.267Z" fill="#009000"/>
<path d="M1434.93 459.803L1413 481.697V524.691C1413.17 527.982 1414.6 531.082 1416.99 533.351C1419.38 535.621 1422.55 536.886 1425.85 536.886C1429.14 536.886 1432.31 535.621 1434.7 533.351C1437.09 531.082 1438.52 527.982 1438.69 524.691V450.701C1438.69 454.112 1437.34 457.384 1434.93 459.803Z" fill="#C6ED07"/>
<path d="M1432.56 439.701L1351.87 437.875C1348.58 438.046 1345.48 439.474 1343.21 441.863C1340.94 444.253 1339.68 447.423 1339.68 450.719C1339.68 454.014 1340.94 457.184 1343.21 459.574C1345.48 461.964 1348.58 463.391 1351.87 463.562H1397.12L1412.74 448.112C1413.94 446.914 1418.98 442.279 1420.55 441.634C1422.11 440.989 1430.86 439.695 1432.56 439.701Z" fill="#C6ED07"/>
<path d="M1449.54 670.908C1449.04 670.908 1448.54 670.658 1448.16 670.283C1447.41 669.533 1447.41 668.284 1448.16 667.534L1644.88 470.868C1645.63 470.118 1646.88 470.118 1647.63 470.868C1648.38 471.618 1648.38 472.867 1647.63 473.617L1450.91 670.283C1450.54 670.783 1450.04 670.908 1449.54 670.908Z" fill="white"/>
<path d="M1648 481.864L1663.63 455L1636.63 470.493L1648 481.864Z" fill="white"/>
<path d="M1438.69 450.702C1438.69 450.495 1438.69 450.288 1438.69 450.081C1438.71 449.978 1438.71 449.874 1438.69 449.771V449.461C1438.69 449.461 1438.69 449.219 1438.69 449.081V448.84C1438.67 448.703 1438.67 448.564 1438.69 448.426C1438.69 448.426 1438.69 448.426 1438.69 448.219C1438.71 448.082 1438.71 447.943 1438.69 447.806C1438.67 447.738 1438.67 447.667 1438.69 447.599C1438.7 447.473 1438.7 447.346 1438.69 447.22C1438.69 447.22 1438.69 447.22 1438.69 447.013C1438.69 446.806 1438.69 446.771 1438.69 446.633C1438.7 446.553 1438.7 446.472 1438.69 446.392C1438.7 446.289 1438.7 446.185 1438.69 446.082V445.806V445.53V445.22V444.978C1438.7 444.875 1438.7 444.771 1438.69 444.668V444.461L1438.48 444.116V443.944L1438.27 443.565V443.392L1438.03 443.082V442.875L1435.86 442.565L1435.65 442.324L1435.45 442.117L1435.03 441.669L1434.59 441.255L1434.34 441.048L1434.1 440.841C1434.03 440.743 1433.93 440.661 1433.83 440.6H1433.62L1433.31 440.358H1433.1L1432.76 440.151H1432.59L1432.24 439.979H1432.03H1431.72H1431.48H1431.17H1430.9H1430.62H1430.31H1430.07H1429.69H1429.48H1429.07H1428.9H1428.48H1428.28H1427.86H1426.04C1424.34 439.972 1422.66 440.301 1421.09 440.946C1419.52 441.591 1418.1 442.539 1416.9 443.737L1395 465.665H1413.14V483.801L1435.07 461.907C1436.52 460.459 1437.6 458.689 1438.23 456.741C1438.86 454.792 1439.02 452.723 1438.69 450.702Z" fill="#01A700"/>
<path d="M1513.54 364.196L1537.12 390.123H1563.43C1565.55 390.265 1567.69 389.969 1569.69 389.253C1571.7 388.538 1573.53 387.418 1575.09 385.963C1576.64 384.509 1577.88 382.75 1578.73 380.797C1579.58 378.844 1580.01 376.737 1580.01 374.608C1580.01 372.479 1579.58 370.373 1578.73 368.419C1577.88 366.466 1576.64 364.708 1575.09 363.253C1573.53 361.798 1571.7 360.679 1569.69 359.963C1567.69 359.247 1565.55 358.951 1563.43 359.093H1502.16C1504.31 359.11 1506.43 359.573 1508.39 360.451C1510.34 361.329 1512.1 362.605 1513.54 364.196Z" fill="#C6ED07"/>
<path d="M1486.75 376.573V434.6C1486.61 436.724 1486.91 438.855 1487.62 440.861C1488.34 442.866 1489.46 444.703 1490.91 446.258C1492.37 447.813 1494.12 449.052 1496.08 449.9C1498.03 450.747 1500.14 451.184 1502.27 451.184C1504.4 451.184 1506.5 450.747 1508.46 449.9C1510.41 449.052 1512.17 447.813 1513.62 446.258C1515.08 444.703 1516.2 442.866 1516.91 440.861C1517.63 438.855 1517.92 436.724 1517.78 434.6V414.223L1490.44 384.089C1488.54 381.972 1487.26 379.371 1486.75 376.573Z" fill="#C6ED07"/>
<path d="M1502.16 358.094C1499.87 358.093 1497.61 358.599 1495.54 359.575C1493.47 360.55 1491.63 361.972 1490.18 363.737C1488.72 365.503 1487.66 367.569 1487.1 369.788C1486.53 372.007 1486.46 374.324 1486.89 376.574V373.643C1486.89 369.567 1488.49 365.653 1491.35 362.745C1494.2 359.836 1498.09 358.166 1502.16 358.094Z" fill="#C42A56"/>
<path d="M1188.24 823.548C1185.31 826.442 1183.65 830.382 1183.62 834.5C1183.6 838.619 1185.21 842.579 1188.1 845.51C1191 848.441 1194.94 850.102 1199.06 850.128C1203.18 850.154 1207.14 848.542 1210.07 845.648L1561.74 498.385C1572.46 487.531 1578.48 472.889 1578.48 457.632C1578.48 442.375 1572.46 427.733 1561.74 416.879L1536.75 389.296H1517.47V414.327L1539.3 437.91L1539.81 438.462C1544.83 443.497 1547.65 450.316 1547.65 457.425C1547.65 464.534 1544.83 471.353 1539.81 476.388L1188.24 823.548Z" fill="#C42A56"/>
<path d="M1537.12 389.124L1513.54 363.127C1511.46 360.799 1508.73 359.16 1505.69 358.428C1502.66 357.696 1499.48 357.906 1496.57 359.03C1493.66 360.153 1491.16 362.138 1489.4 364.718C1487.65 367.298 1486.73 370.351 1486.75 373.47V376.401C1487.28 379.206 1488.58 381.808 1490.51 383.917L1517.85 414.051V389.124H1537.12Z" fill="#982702"/>
<path d="M1849.75 559.554C1849.87 559.804 1849.87 559.929 1850 560.179C1849.87 559.929 1849.75 559.679 1849.75 559.554Z" fill="#C42A56"/>
<path d="M1849.12 558.43C1849.25 558.68 1849.37 558.805 1849.37 559.054C1849.37 558.805 1849.25 558.555 1849.12 558.43Z" fill="#C42A56"/>
<path d="M1842 552.183C1842.25 552.307 1842.37 552.307 1842.62 552.432C1842.5 552.432 1842.25 552.307 1842 552.183Z" fill="#C42A56"/>
<path d="M1848.5 557.306C1848.62 557.431 1848.75 557.681 1848.87 557.93C1848.75 557.681 1848.62 557.431 1848.5 557.306Z" fill="#C42A56"/>
<path d="M1844.37 553.307C1844.62 553.432 1844.75 553.557 1845 553.682C1844.75 553.557 1844.5 553.432 1844.37 553.307Z" fill="#C42A56"/>
<path d="M1845.5 554.057C1845.62 554.182 1845.87 554.307 1846 554.431C1845.75 554.307 1845.62 554.182 1845.5 554.057Z" fill="#C42A56"/>
<path d="M1843.25 552.682C1843.5 552.807 1843.62 552.807 1843.87 552.932C1843.62 552.932 1843.37 552.807 1843.25 552.682Z" fill="#C42A56"/>
<path d="M1850.12 560.804C1850.12 561.054 1850.25 561.179 1850.25 561.428C1850.25 561.179 1850.25 560.929 1850.12 560.804Z" fill="#C42A56"/>
<path d="M1847.75 556.306C1847.87 556.431 1848 556.68 1848.12 556.805C1848 556.556 1847.87 556.431 1847.75 556.306Z" fill="#C42A56"/>
<path d="M1806.01 577.672L1733.64 650.016C1726.02 657.638 1714.15 658.762 1705.15 652.89L1640.53 610.158C1631.16 603.911 1619.91 601.162 1608.79 602.286C1597.66 603.411 1587.17 608.409 1579.17 616.28L1462.56 732.856C1457.44 737.979 1457.44 746.225 1462.56 751.348C1465.06 753.847 1468.43 755.221 1471.81 755.221C1475.18 755.221 1478.56 753.972 1481.06 751.348L1597.66 634.773C1605.29 627.151 1617.16 626.026 1626.16 631.899L1690.77 674.631C1698.77 679.878 1708.15 682.752 1717.77 682.752C1719.39 682.752 1721.02 682.627 1722.64 682.502C1733.77 681.378 1744.27 676.38 1752.26 668.508L1824.63 596.164V577.672H1806.01Z" fill="#C42A56"/>
<path d="M1839.5 551.558C1839.75 551.558 1840 551.558 1840.25 551.683C1840 551.683 1839.75 551.683 1839.5 551.558Z" fill="#C42A56"/>
<path d="M1838.87 551.558C1838.5 551.558 1838 551.433 1837.62 551.433C1838.12 551.433 1838.5 551.433 1838.87 551.558Z" fill="#C42A56"/>
<path d="M1850.5 561.929C1850.5 562.178 1850.62 562.428 1850.62 562.678C1850.5 562.428 1850.5 562.178 1850.5 561.929Z" fill="#C42A56"/>
<path d="M1840.88 551.933C1841.12 551.933 1841.25 552.058 1841.5 552.058C1841.25 551.933 1841 551.933 1840.88 551.933Z" fill="#C42A56"/>
<path d="M1850.62 563.303C1850.62 563.678 1850.75 564.177 1850.75 564.552C1850.75 564.052 1850.75 563.678 1850.62 563.303Z" fill="#C42A56"/>
<path d="M1838.88 551.558C1839.12 551.558 1839.25 551.558 1839.5 551.683C1839.37 551.558 1839.12 551.558 1838.88 551.558Z" fill="#C6ED07"/>
<path d="M1844.87 553.682C1845.12 553.807 1845.25 553.932 1845.37 554.056C1845.25 553.932 1845.12 553.807 1844.87 553.682Z" fill="#C6ED07"/>
<path d="M1841.5 552.058C1841.75 552.183 1841.87 552.183 1842.12 552.308C1841.87 552.183 1841.62 552.058 1841.5 552.058Z" fill="#C6ED07"/>
<path d="M1840.25 551.683C1840.5 551.683 1840.62 551.807 1840.87 551.807C1840.62 551.807 1840.37 551.807 1840.25 551.683Z" fill="#C6ED07"/>
<path d="M1843.75 553.057C1843.87 553.182 1844.12 553.307 1844.25 553.432C1844.12 553.182 1844 553.057 1843.75 553.057Z" fill="#C6ED07"/>
<path d="M1842.62 552.433C1842.87 552.558 1843 552.558 1843.25 552.682C1843 552.682 1842.87 552.558 1842.62 552.433Z" fill="#C6ED07"/>
<path d="M1850.62 562.678C1850.62 562.928 1850.75 563.053 1850.75 563.303C1850.62 563.053 1850.62 562.803 1850.62 562.678Z" fill="#C6ED07"/>
<path d="M1850.37 561.304C1850.37 561.554 1850.5 561.679 1850.5 561.928C1850.37 561.803 1850.37 561.554 1850.37 561.304Z" fill="#C6ED07"/>
<path d="M1850 560.179C1850.12 560.429 1850.12 560.554 1850.25 560.804C1850.12 560.554 1850 560.304 1850 560.179Z" fill="#C6ED07"/>
<path d="M1846.87 573.798L1824.5 596.164V615.78C1824.5 623.027 1830.38 628.9 1837.62 628.9C1844.87 628.9 1850.75 623.027 1850.75 615.78V564.552C1850.75 567.926 1849.5 571.174 1846.87 573.798Z" fill="#C6ED07"/>
<path d="M1846.87 555.306C1847.12 555.556 1847.5 555.931 1847.75 556.306C1847.5 555.931 1847.25 555.556 1846.87 555.306Z" fill="#C6ED07"/>
<path d="M1849.5 558.93C1849.62 559.18 1849.62 559.305 1849.75 559.554C1849.62 559.305 1849.5 559.18 1849.5 558.93Z" fill="#C6ED07"/>
<path d="M1848.12 556.681C1848.25 556.806 1848.37 557.055 1848.5 557.18C1848.37 557.055 1848.25 556.931 1848.12 556.681Z" fill="#C6ED07"/>
<path d="M1845.87 554.432C1846.25 554.682 1846.5 554.931 1846.87 555.306C1846.62 554.931 1846.25 554.682 1845.87 554.432Z" fill="#C6ED07"/>
<path d="M1848.87 557.805C1849 557.93 1849.12 558.18 1849.12 558.305C1849.12 558.18 1849 558.055 1848.87 557.805Z" fill="#C6ED07"/>
<path d="M1850.75 564.552C1850.75 564.177 1850.75 563.678 1850.62 563.303C1850.62 563.053 1850.62 562.928 1850.5 562.678C1850.5 562.428 1850.5 562.178 1850.37 561.928C1850.37 561.679 1850.25 561.554 1850.25 561.304C1850.25 561.054 1850.12 560.929 1850.12 560.679C1850 560.429 1850 560.304 1849.87 560.054C1849.75 559.804 1849.75 559.679 1849.62 559.43C1849.5 559.18 1849.5 559.055 1849.37 558.805C1849.25 558.555 1849.25 558.43 1849.12 558.18C1849 558.055 1848.87 557.805 1848.87 557.68C1848.75 557.43 1848.62 557.305 1848.5 557.056C1848.37 556.806 1848.25 556.681 1848.12 556.556C1848 556.431 1847.87 556.181 1847.75 556.056C1847.5 555.681 1847.25 555.431 1846.87 555.056C1846.62 554.806 1846.25 554.432 1845.87 554.182C1845.75 554.057 1845.62 553.932 1845.37 553.807C1845.25 553.682 1845 553.557 1844.87 553.432C1844.75 553.307 1844.5 553.182 1844.25 553.057C1844.12 552.932 1843.87 552.807 1843.75 552.682C1843.5 552.557 1843.37 552.432 1843.12 552.432C1842.87 552.308 1842.75 552.308 1842.5 552.183C1842.25 552.058 1842.12 552.058 1841.87 551.933C1841.62 551.808 1841.5 551.808 1841.25 551.683C1841 551.683 1840.87 551.558 1840.62 551.558C1840.37 551.558 1840.25 551.433 1840 551.433C1839.75 551.433 1839.5 551.308 1839.25 551.308C1839 551.308 1838.87 551.183 1838.62 551.183C1838.25 551.183 1837.75 551.058 1837.37 551.058C1834 551.058 1830.63 552.308 1828.13 554.931L1805.75 577.297H1824.5V595.789L1846.87 573.424C1849.5 571.174 1850.75 567.926 1850.75 564.552Z" fill="#AB1B44"/>
<path d="M1768.6 444.174C1768.35 444.174 1768.22 444.049 1768.1 443.924C1767.85 443.674 1767.85 443.175 1768.1 442.8L1910.8 300.187C1911.05 299.938 1911.55 299.938 1911.92 300.187C1912.17 300.437 1912.17 300.937 1911.92 301.312L1769.22 443.924C1768.97 444.174 1768.85 444.174 1768.6 444.174Z" fill="white"/>
<path d="M1767.85 439.551L1761.6 450.422L1772.47 444.174L1767.85 439.551Z" fill="white"/>
<path d="M1861.41 278.871C1861.53 279.121 1861.53 279.246 1861.66 279.496C1861.53 279.246 1861.53 278.996 1861.41 278.871Z" fill="#019002"/>
<path d="M1858.41 273.999C1858.66 274.248 1859.03 274.623 1859.28 274.873C1858.91 274.623 1858.66 274.248 1858.41 273.999Z" fill="#019002"/>
<path d="M1857.41 273.124C1857.78 273.373 1858.03 273.623 1858.28 273.998C1858.03 273.623 1857.66 273.373 1857.41 273.124Z" fill="#019002"/>
<path d="M1859.53 275.373C1859.66 275.498 1859.78 275.748 1859.91 275.873C1859.91 275.748 1859.66 275.623 1859.53 275.373Z" fill="#019002"/>
<path d="M1860.28 276.497C1860.41 276.622 1860.53 276.872 1860.53 276.997C1860.53 276.872 1860.41 276.747 1860.28 276.497Z" fill="#019002"/>
<path d="M1860.91 277.622C1861.03 277.747 1861.03 277.997 1861.16 278.247C1861.16 277.997 1861.03 277.872 1860.91 277.622Z" fill="#019002"/>
<path d="M1856.41 272.374C1856.66 272.499 1856.78 272.624 1856.91 272.749C1856.78 272.624 1856.53 272.499 1856.41 272.374Z" fill="#019002"/>
<path d="M1851.66 270.375C1851.91 270.375 1852.03 270.5 1852.28 270.5C1852.03 270.5 1851.91 270.5 1851.66 270.375Z" fill="#019002"/>
<path d="M1850.41 270.25C1850.66 270.25 1850.78 270.25 1851.03 270.375C1850.78 270.25 1850.53 270.25 1850.41 270.25Z" fill="#019002"/>
<path d="M1852.91 270.75C1853.16 270.875 1853.28 270.875 1853.53 271C1853.28 270.875 1853.16 270.75 1852.91 270.75Z" fill="#019002"/>
<path d="M1855.28 271.75C1855.41 271.874 1855.66 271.999 1855.78 271.999C1855.66 271.874 1855.41 271.75 1855.28 271.75Z" fill="#019002"/>
<path d="M1854.16 271.125C1854.41 271.249 1854.53 271.249 1854.78 271.374C1854.53 271.374 1854.28 271.249 1854.16 271.125Z" fill="#019002"/>
<path d="M1862.03 281.37C1862.03 281.62 1862.16 281.745 1862.16 281.995C1862.16 281.745 1862.03 281.495 1862.03 281.37Z" fill="#019002"/>
<path d="M1858.41 292.491L1836.04 314.856V334.598C1836.04 341.845 1841.91 347.717 1849.16 347.717C1856.41 347.717 1862.28 341.845 1862.28 334.598V283.245C1862.16 286.618 1860.91 289.867 1858.41 292.491Z" fill="#019002"/>
<path d="M1849.03 270.125H1797.67C1790.42 270.125 1784.54 275.997 1784.54 283.244C1784.54 290.491 1790.42 296.364 1797.67 296.364H1817.41L1839.79 273.998C1842.41 271.374 1845.78 270.125 1849.03 270.125Z" fill="#019002"/>
<path d="M1861.78 279.996C1861.78 280.245 1861.91 280.37 1861.91 280.62C1861.91 280.495 1861.78 280.245 1861.78 279.996Z" fill="#019002"/>
<path d="M1853.53 270.875C1853.78 270.999 1853.91 270.999 1854.16 271.124C1853.91 271.124 1853.66 270.999 1853.53 270.875Z" fill="#6CCD18"/>
<path d="M1849.03 270.125C1849.41 270.125 1849.91 270.125 1850.28 270.25C1849.91 270.125 1849.53 270.125 1849.03 270.125Z" fill="#6CCD18"/>
<path d="M1817.54 296.364L1701.06 412.814C1691.81 422.06 1686.81 434.305 1686.81 447.299C1686.81 460.294 1691.93 472.539 1701.06 481.785L1704.93 485.658C1709.18 489.906 1711.56 495.654 1711.56 501.651C1711.56 507.649 1709.18 513.396 1704.93 517.644L1615.57 606.981C1607.07 615.478 1593.45 615.852 1584.58 607.856L1546.33 573.87C1527.08 556.753 1497.71 557.627 1479.47 575.87L1440.72 614.603C1445.85 610.98 1452.85 611.479 1457.47 615.977C1462.6 621.1 1462.72 629.347 1457.6 634.47L1436.35 656.085L1497.96 594.487C1506.46 585.99 1520.09 585.615 1528.96 593.612L1567.2 627.597C1576.45 635.844 1588.08 639.842 1599.57 639.842C1612.07 639.842 1624.57 635.094 1634.07 625.598L1723.43 536.261C1732.68 527.015 1737.68 514.771 1737.68 501.776C1737.68 488.782 1732.55 476.537 1723.43 467.291L1719.55 463.418C1715.3 459.169 1712.93 453.422 1712.93 447.424C1712.93 441.427 1715.3 435.679 1719.55 431.431L1836.03 314.981V296.364H1817.54Z" fill="#6CCD00"/>
<path d="M1854.66 271.375C1854.91 271.499 1855.03 271.499 1855.28 271.624C1855.03 271.624 1854.91 271.499 1854.66 271.375Z" fill="#6CCD18"/>
<path d="M1850.91 270.25C1851.16 270.25 1851.41 270.25 1851.66 270.375C1851.41 270.375 1851.16 270.375 1850.91 270.25Z" fill="#6CCD18"/>
<path d="M1852.28 270.5C1852.53 270.5 1852.66 270.625 1852.91 270.625C1852.66 270.625 1852.53 270.625 1852.28 270.5Z" fill="#6CCD18"/>
<path d="M1855.78 271.999C1856.03 272.124 1856.16 272.249 1856.41 272.373C1856.16 272.249 1856.03 272.124 1855.78 271.999Z" fill="#6CCD18"/>
<path d="M1861.91 280.621C1861.91 280.871 1862.03 281.12 1862.03 281.37C1862.03 281.12 1862.03 280.871 1861.91 280.621Z" fill="#6CCD18"/>
<path d="M1860.03 275.998C1860.16 276.123 1860.28 276.372 1860.41 276.622C1860.16 276.372 1860.16 276.123 1860.03 275.998Z" fill="#6CCD18"/>
<path d="M1861.66 279.371C1861.66 279.621 1861.78 279.746 1861.78 279.996C1861.66 279.871 1861.66 279.621 1861.66 279.371Z" fill="#6CCD18"/>
<path d="M1860.66 277.122C1860.78 277.372 1860.91 277.497 1860.91 277.747C1860.78 277.497 1860.78 277.247 1860.66 277.122Z" fill="#6CCD18"/>
<path d="M1859.16 274.873C1859.28 274.998 1859.41 275.248 1859.53 275.373C1859.41 275.248 1859.28 275.123 1859.16 274.873Z" fill="#6CCD18"/>
<path d="M1861.16 278.247C1861.28 278.496 1861.28 278.621 1861.41 278.871C1861.28 278.621 1861.28 278.372 1861.16 278.247Z" fill="#6CCD18"/>
<path d="M1856.91 272.749C1857.03 272.874 1857.28 272.999 1857.41 273.124C1857.28 272.999 1857.03 272.874 1856.91 272.749Z" fill="#6CCD18"/>
<path d="M1862.16 283.245C1862.16 282.87 1862.16 282.37 1862.03 281.995C1862.16 282.37 1862.16 282.745 1862.16 283.245Z" fill="#6CCD18"/>
<path d="M1862.16 283.244C1862.16 282.745 1862.16 282.37 1862.03 281.995C1862.03 281.745 1862.03 281.62 1861.91 281.37C1861.91 281.12 1861.91 280.87 1861.78 280.62C1861.78 280.371 1861.66 280.246 1861.66 279.996C1861.66 279.746 1861.53 279.621 1861.53 279.371C1861.41 279.121 1861.41 278.996 1861.28 278.746C1861.16 278.496 1861.16 278.371 1861.03 278.122C1860.91 277.872 1860.91 277.747 1860.78 277.497C1860.66 277.247 1860.66 277.122 1860.53 276.872C1860.41 276.747 1860.28 276.497 1860.28 276.372C1860.16 276.122 1860.03 275.997 1859.91 275.748C1859.78 275.498 1859.66 275.373 1859.53 275.248C1859.41 275.123 1859.28 274.873 1859.16 274.748C1858.91 274.373 1858.66 274.123 1858.28 273.873C1858.03 273.623 1857.66 273.249 1857.41 272.999C1857.28 272.874 1857.03 272.749 1856.91 272.624C1856.78 272.499 1856.53 272.374 1856.41 272.249C1856.28 272.124 1856.03 271.999 1855.78 271.874C1855.66 271.749 1855.41 271.624 1855.28 271.624C1855.03 271.499 1854.91 271.374 1854.66 271.374C1854.41 271.249 1854.28 271.249 1854.03 271.125C1853.78 271 1853.66 271 1853.41 270.875C1853.16 270.75 1853.03 270.75 1852.78 270.625C1852.53 270.625 1852.41 270.5 1852.16 270.5C1851.91 270.5 1851.78 270.375 1851.53 270.375C1851.28 270.375 1851.03 270.25 1850.78 270.25C1850.53 270.25 1850.41 270.125 1850.16 270.125C1849.78 270.125 1849.28 270 1848.91 270C1845.53 270 1842.16 271.249 1839.66 273.873L1817.29 296.239H1835.79V314.731L1858.16 292.365C1860.91 289.867 1862.16 286.618 1862.16 283.244Z" fill="#C6ED07"/>
<path d="M1438.98 615.727L1417.73 637.218L1440.72 614.228C1440.1 614.728 1439.47 615.228 1438.98 615.727Z" fill="#C6ED07"/>
<path d="M1457.47 615.602C1452.85 611.104 1445.85 610.605 1440.72 614.228L1417.73 637.343L1416.35 638.718C1411.48 643.84 1411.48 651.962 1416.48 656.96C1418.98 659.459 1422.35 660.833 1425.73 660.833C1429.1 660.833 1432.48 659.584 1434.98 656.96L1436.35 655.585L1457.6 633.97C1462.6 628.972 1462.6 620.725 1457.47 615.602Z" fill="#C6ED07"/>
<path d="M1457.47 615.602C1452.85 611.104 1445.85 610.605 1440.72 614.228L1417.73 637.343L1416.35 638.718C1411.48 643.84 1411.48 651.962 1416.48 656.96C1418.98 659.459 1422.35 660.833 1425.73 660.833C1429.1 660.833 1432.48 659.584 1434.98 656.96L1436.35 655.585L1457.6 633.97C1462.6 628.972 1462.6 620.725 1457.47 615.602Z" fill="#54BF01"/>
<path d="M1574.29 786.333C1574.04 786.333 1573.92 786.208 1573.79 786.083C1573.54 785.833 1573.54 785.333 1573.79 784.958L1850.37 508.451C1850.62 508.201 1851.12 508.201 1851.5 508.451C1851.75 508.701 1851.75 509.201 1851.5 509.576L1574.92 786.083C1574.67 786.208 1574.54 786.333 1574.29 786.333Z" fill="white"/>
<path d="M1851.62 512.825L1857.87 502.079L1847 508.326L1851.62 512.825Z" fill="white"/>
<path d="M1918.61 369.511C1918.86 369.636 1918.99 369.76 1919.24 369.885C1918.99 369.76 1918.74 369.636 1918.61 369.511Z" fill="#015A00"/>
<path d="M1919.74 370.261C1919.86 370.386 1920.11 370.511 1920.24 370.636C1919.99 370.511 1919.86 370.386 1919.74 370.261Z" fill="#015A00"/>
<path d="M1913.74 367.762C1913.99 367.762 1914.24 367.762 1914.49 367.887C1914.24 367.887 1913.99 367.887 1913.74 367.762Z" fill="#015A00"/>
<path d="M1911.86 367.637C1912.24 367.637 1912.74 367.637 1913.11 367.762C1912.74 367.637 1912.24 367.637 1911.86 367.637Z" fill="#015A00"/>
<path d="M1915.11 368.011C1915.36 368.011 1915.49 368.136 1915.74 368.136C1915.49 368.136 1915.24 368.136 1915.11 368.011Z" fill="#015A00"/>
<path d="M1917.49 368.886C1917.74 369.011 1917.86 369.011 1918.11 369.136C1917.86 369.136 1917.61 369.011 1917.49 368.886Z" fill="#015A00"/>
<path d="M1916.24 368.386C1916.49 368.511 1916.61 368.511 1916.86 368.636C1916.74 368.511 1916.49 368.511 1916.24 368.386Z" fill="#015A00"/>
<path d="M1880.24 393.75L1719.89 554.182L1736.89 537.189C1742.02 532.066 1750.26 532.066 1755.39 537.189C1760.51 542.312 1760.51 550.559 1755.39 555.681L1898.87 412.243V393.75H1880.24Z" fill="#015A00"/>
<path d="M1729.14 576.548C1725.77 576.548 1722.39 575.298 1719.89 572.674C1714.77 567.551 1714.77 559.305 1719.89 554.182L1542.17 731.856C1537.05 736.979 1537.05 745.226 1542.17 750.348C1544.67 752.847 1548.05 754.222 1551.42 754.222C1554.8 754.222 1558.17 752.972 1560.67 750.348L1755.26 555.806L1738.27 572.799C1735.77 575.173 1732.52 576.548 1729.14 576.548Z" fill="#6CCD00"/>
<path d="M1755.26 537.189C1750.14 532.066 1741.89 532.066 1736.77 537.189L1719.77 554.182C1714.65 559.305 1714.65 567.551 1719.77 572.674C1722.27 575.173 1725.64 576.548 1729.02 576.548C1732.39 576.548 1735.77 575.298 1738.27 572.674L1755.26 555.681C1760.39 550.684 1760.39 542.312 1755.26 537.189Z" fill="#C6ED07"/>
<path d="M1917.99 369.136C1918.11 369.261 1918.36 369.386 1918.49 369.386C1918.36 369.386 1918.24 369.261 1917.99 369.136Z" fill="#C6ED07"/>
<path d="M1911.86 367.637H1836.5C1829.25 367.637 1823.38 373.509 1823.38 380.756C1823.38 388.003 1829.25 393.876 1836.5 393.876H1880.37L1902.74 371.51C1905.11 368.886 1908.49 367.637 1911.86 367.637Z" fill="#C6ED07"/>
<path d="M1916.86 368.636C1917.11 368.761 1917.24 368.761 1917.49 368.886C1917.24 368.761 1917.11 368.761 1916.86 368.636Z" fill="#C6ED07"/>
<path d="M1913.11 367.762C1913.36 367.762 1913.49 367.762 1913.74 367.887C1913.49 367.762 1913.36 367.762 1913.11 367.762Z" fill="#C6ED07"/>
<path d="M1921.11 390.002L1898.74 412.367V456.224C1898.74 463.471 1904.62 469.343 1911.86 469.343C1919.11 469.343 1924.99 463.471 1924.99 456.224V380.881C1924.99 384.129 1923.61 387.378 1921.11 390.002Z" fill="#C6ED07"/>
<path d="M1915.61 368.262C1915.86 368.387 1915.99 368.387 1916.24 368.512C1916.11 368.387 1915.86 368.262 1915.61 368.262Z" fill="#C6ED07"/>
<path d="M1914.36 367.886C1914.61 367.886 1914.74 368.011 1914.99 368.011C1914.86 368.011 1914.61 367.886 1914.36 367.886Z" fill="#C6ED07"/>
<path d="M1919.11 369.886C1919.36 370.011 1919.49 370.136 1919.61 370.261C1919.49 370.136 1919.36 370.011 1919.11 369.886Z" fill="#C6ED07"/>
<path d="M1924.99 380.756C1924.99 380.256 1924.99 379.881 1924.86 379.507C1924.86 379.257 1924.86 379.132 1924.74 378.882C1924.74 378.632 1924.74 378.382 1924.61 378.132C1924.61 377.882 1924.49 377.757 1924.49 377.507C1924.49 377.258 1924.36 377.133 1924.36 376.883C1924.24 376.633 1924.24 376.508 1924.11 376.258C1923.99 376.008 1923.99 375.883 1923.86 375.633C1923.74 375.383 1923.74 375.258 1923.61 375.009C1923.49 374.759 1923.49 374.634 1923.36 374.384C1923.24 374.259 1923.11 374.009 1923.11 373.884C1922.99 373.634 1922.86 373.509 1922.74 373.259C1922.61 373.009 1922.49 372.884 1922.36 372.759C1922.24 372.635 1922.11 372.385 1921.99 372.26C1921.74 371.885 1921.49 371.635 1921.11 371.385C1920.86 371.135 1920.49 370.76 1920.24 370.51C1920.11 370.385 1919.86 370.261 1919.74 370.136C1919.61 370.011 1919.36 369.886 1919.24 369.761C1919.11 369.636 1918.86 369.511 1918.61 369.386C1918.49 369.261 1918.24 369.136 1918.11 369.136C1917.86 369.011 1917.74 368.886 1917.49 368.886C1917.24 368.761 1917.11 368.761 1916.86 368.636C1916.61 368.511 1916.49 368.511 1916.24 368.386C1915.99 368.261 1915.86 368.261 1915.61 368.136C1915.36 368.136 1915.24 368.011 1914.99 368.011C1914.74 368.011 1914.61 367.887 1914.36 367.887C1914.11 367.887 1913.86 367.762 1913.61 367.762C1913.36 367.762 1913.24 367.637 1912.99 367.637C1912.61 367.637 1912.11 367.512 1911.74 367.512C1908.36 367.512 1904.99 368.761 1902.49 371.385L1880.12 393.751H1898.62V412.243L1920.99 389.877C1923.61 387.378 1924.99 384.13 1924.99 380.756Z" fill="#6CCD00"/>
<path d="M1837.63 551.433H1786.26C1779.01 551.433 1773.14 557.305 1773.14 564.552C1773.14 571.799 1779.01 577.671 1786.26 577.671H1806.01L1828.38 555.306C1831 552.682 1834.25 551.433 1837.63 551.433Z" fill="#C6ED07"/>
<path d="M1722.79 232.759H1699.55C1695.89 232.759 1692.38 234.215 1689.78 236.806C1687.19 239.397 1685.74 242.911 1685.74 246.576C1685.74 250.241 1687.19 253.755 1689.78 256.346C1692.38 258.937 1695.89 260.393 1699.55 260.393H1753.86C1751.95 260.38 1750.07 259.971 1748.33 259.192C1746.59 258.412 1745.03 257.28 1743.75 255.867L1722.79 232.759Z" fill="#14899B"/>
<path d="M1767.56 243.989V192.349C1767.56 188.685 1766.1 185.17 1763.51 182.579C1760.92 179.988 1757.41 178.532 1753.74 178.532C1750.08 178.532 1746.56 179.988 1743.97 182.579C1741.38 185.17 1739.92 188.685 1739.92 192.349V210.469L1764.22 237.245C1765.93 239.142 1767.09 241.476 1767.56 243.989Z" fill="#14899B"/>
<path d="M2032.8 -153.212C2034.13 -154.48 2035.18 -155.998 2035.91 -157.677C2036.64 -159.357 2037.03 -161.164 2037.05 -162.995C2037.08 -164.826 2036.74 -166.644 2036.06 -168.343C2035.37 -170.041 2034.36 -171.587 2033.07 -172.89C2031.78 -174.193 2030.25 -175.228 2028.56 -175.933C2026.87 -176.639 2025.06 -177.001 2023.23 -177C2021.4 -176.999 2019.58 -176.633 2017.9 -175.925C2016.21 -175.217 2014.68 -174.181 2013.39 -172.876L1700.78 135.695L1700.69 135.801C1691.14 145.421 1685.76 158.424 1685.74 171.982C1685.72 185.541 1691.05 198.56 1700.57 208.212L1722.79 232.759H1739.95V210.469L1720.85 189.42L1720.39 188.932C1715.95 184.472 1713.44 178.439 1713.42 172.143C1713.4 165.847 1715.86 159.796 1720.27 155.306L2032.8 -153.212Z" fill="#C6ED07"/>
<path d="M1722.79 232.758L1743.75 255.853C1745.61 257.892 1748.04 259.321 1750.73 259.951C1753.41 260.581 1756.23 260.383 1758.8 259.383C1761.37 258.383 1763.58 256.628 1765.13 254.349C1766.69 252.07 1767.51 249.374 1767.51 246.615V244.081C1767.04 241.568 1765.88 239.235 1764.17 237.338L1739.87 210.561V232.758H1722.79Z" fill="#0A6F74"/>
<path d="M1691.33 17.2034C1691.1 17.1775 1690.87 17.0888 1690.68 16.9468C1690.49 16.8048 1690.35 16.6146 1690.26 16.3961C1690.17 16.1776 1690.14 15.9388 1690.17 15.7047C1690.2 15.4707 1690.3 15.2499 1690.45 15.0655L1882.79 -177.293C1882.89 -177.476 1883.03 -177.635 1883.19 -177.755C1883.36 -177.875 1883.56 -177.954 1883.76 -177.985C1883.97 -178.016 1884.18 -177.999 1884.37 -177.934C1884.57 -177.87 1884.75 -177.76 1884.89 -177.613C1885.04 -177.467 1885.15 -177.288 1885.21 -177.092C1885.28 -176.895 1885.3 -176.686 1885.27 -176.481C1885.23 -176.277 1885.16 -176.082 1885.04 -175.914C1884.92 -175.745 1884.76 -175.608 1884.57 -175.512L1692.23 16.8207C1692.11 16.9418 1691.97 17.0382 1691.82 17.104C1691.66 17.1698 1691.5 17.2036 1691.33 17.2034Z" fill="white"/>
<path d="M1690.18 9.87891L1680.31 26.9689L1697.41 17.0976L1690.18 9.87891Z" fill="white"/>
<path d="M1987.27 -20.5796L1983.21 -24.631C1978.75 -29.1091 1976.24 -35.177 1976.24 -41.5033C1976.24 -47.8296 1978.75 -53.8975 1983.21 -58.3756C1985.68 -60.9914 1987.02 -64.463 1986.97 -68.0545C1986.91 -71.6461 1985.46 -75.0752 1982.92 -77.6151C1980.38 -80.155 1976.95 -81.606 1973.36 -81.6605C1969.77 -81.715 1966.3 -80.3687 1963.68 -77.9071C1954.04 -68.2438 1948.63 -55.1521 1948.63 -41.5033C1948.63 -27.8545 1954.04 -14.7628 1963.68 -5.09954L1967.73 -1.06127C1972.2 3.41684 1974.71 9.48476 1974.71 15.811C1974.71 22.1373 1972.2 28.2052 1967.73 32.6833L1844.75 155.666V175.197H1864.28L1987.27 52.228C1996.9 42.563 2002.31 29.472 2002.31 15.8242C2002.31 2.17645 1996.9 -10.9146 1987.27 -20.5796Z" fill="#14899B"/>
<path d="M1830.93 202.844H1888.09C1891.76 202.844 1895.27 201.389 1897.86 198.797C1900.45 196.206 1901.91 192.692 1901.91 189.027C1901.91 185.363 1900.45 181.848 1897.86 179.257C1895.27 176.666 1891.76 175.21 1888.09 175.21H1864.34L1840.75 198.793C1839.47 200.087 1837.94 201.111 1836.25 201.807C1834.57 202.503 1832.76 202.855 1830.93 202.844Z" fill="#C42A56"/>
<path d="M1844.75 155.679V131.924C1844.81 130.075 1844.49 128.233 1843.82 126.507C1843.16 124.782 1842.15 123.208 1840.86 121.879C1839.57 120.551 1838.03 119.494 1836.33 118.773C1834.62 118.052 1832.79 117.68 1830.94 117.68C1829.09 117.68 1827.26 118.052 1825.55 118.773C1823.85 119.494 1822.31 120.551 1821.02 121.879C1819.73 123.208 1818.72 124.782 1818.06 126.507C1817.39 128.233 1817.07 130.075 1817.13 131.924V188.975C1817.13 187.161 1817.48 185.365 1818.17 183.689C1818.87 182.013 1819.88 180.49 1821.17 179.209L1844.75 155.679Z" fill="#C42A56"/>
<path d="M1844.75 155.679L1821.17 179.262C1819.89 180.543 1818.87 182.066 1818.17 183.742C1817.48 185.417 1817.13 187.214 1817.13 189.027C1817.1 189.467 1817.1 189.908 1817.13 190.347C1817.13 190.558 1817.13 190.756 1817.21 190.967C1817.29 191.178 1817.21 191.456 1817.33 191.693C1817.45 191.931 1817.43 192.142 1817.5 192.379C1817.57 192.617 1817.59 192.802 1817.66 193C1817.72 193.198 1817.8 193.435 1817.88 193.66C1817.96 193.884 1818.03 194.082 1818.11 194.28L1818.38 194.874L1818.69 195.507L1819.02 196.061C1819.14 196.259 1819.26 196.47 1819.39 196.655C1819.52 196.84 1819.68 197.051 1819.82 197.249C1819.97 197.447 1820.06 197.592 1820.19 197.751C1820.47 198.104 1820.78 198.439 1821.1 198.754C1821.43 199.079 1821.76 199.387 1822.12 199.677L1822.61 200.047L1823.2 200.482C1823.4 200.614 1823.6 200.72 1823.81 200.839C1823.99 200.958 1824.17 201.068 1824.36 201.169C1824.56 201.283 1824.77 201.384 1824.98 201.472C1825.18 201.564 1825.38 201.67 1825.59 201.749C1825.79 201.836 1825.99 201.91 1826.2 201.974L1826.87 202.211C1827.07 202.277 1827.28 202.317 1827.49 202.369L1828.18 202.541L1828.9 202.647L1829.51 202.739C1829.96 202.739 1830.41 202.739 1830.83 202.739C1832.64 202.743 1834.44 202.387 1836.12 201.691C1837.79 200.996 1839.32 199.975 1840.59 198.688L1864.18 175.105H1844.65L1844.75 155.679Z" fill="#FA569B"/>
</g>
</svg>
