<svg width="1935" height="632" viewBox="0 0 1935 632" fill="none" xmlns="http://www.w3.org/2000/svg">
<path d="M1549.31 1.53343C1688.84 12.3148 1734.12 125.033 1933.83 70.0335V515.033C1933.83 515.033 1742.29 696.033 1574.55 598.533C1406.81 501.033 1359.31 635.034 1255.31 622.033C1151.31 609.033 1061.81 506.533 894.813 589.533C727.813 672.533 656.313 547.033 518.151 562.953C379.989 578.873 330.813 633.033 233.813 622.033C136.813 611.033 1.81281 537.311 1.81281 537.311L1.81256 70.0335C128.625 121.533 256.293 1.03611 353.313 1.53343C514.159 2.35791 559.355 91.1085 666.813 70.0335C836.578 36.7383 867.417 -8.97035 969.813 1.53343C1060.65 10.8519 1161.26 79.245 1255.31 70.0335C1360.62 59.7194 1409.78 -9.24794 1549.31 1.53343Z" fill="#53B3A1"/>
<path d="M1547.81 38.0334C1687.34 48.8148 1765.12 124.033 1934.12 77.0334V547.533C1934.12 547.533 1742.29 696.033 1574.55 598.533C1406.81 501.033 1359.31 635.034 1255.31 622.033C1151.31 609.033 1061.81 506.533 894.814 589.533C727.814 672.533 633.475 511.614 495.313 527.533C357.151 543.453 298.626 600.533 201.626 589.533C104.626 578.533 73.6255 576.033 1.8125 527.533L1.81299 70.0334C38.6463 98.5334 256.293 1.03608 353.313 1.53339C514.159 2.35787 559.356 91.1084 666.814 70.0334C836.579 36.7383 864.918 2.52967 967.314 13.0334C1058.15 22.3519 1160.76 105.745 1254.81 96.5334C1360.12 86.2193 1408.28 27.252 1547.81 38.0334Z" fill="#7BCFBF"/>
<mask id="mask0_609_37245" style="mask-type:alpha" maskUnits="userSpaceOnUse" x="0" y="0" width="1933" height="632">
<path d="M1546 37.5002C1685.53 48.2816 1763.31 123.5 1932.31 76.5002V547C1932.31 547 1740.47 695.5 1572.74 598C1405 500.5 1357.5 634.5 1253.5 621.5C1149.5 608.5 1060 506 893.001 589C726.001 672 631.663 511.08 493.501 527C355.339 542.92 296.813 600 199.813 589C102.813 578 71.813 575.5 0 527L0.000488281 69.5002C36.8338 98.0002 254.481 0.502873 351.501 1.00019C512.347 1.82467 557.544 90.5752 665.001 69.5002C834.767 36.2051 863.105 1.99647 965.501 12.5002C1056.34 21.8187 1158.95 105.212 1253 96.0002C1358.31 85.6861 1406.47 26.7188 1546 37.5002Z" fill="#7BCFBF"/>
</mask>
<g mask="url(#mask0_609_37245)">
<path d="M1591.98 62.6614L1664.35 -9.68273C1671.97 -17.3045 1683.84 -18.429 1692.84 -12.5565L1757.46 30.1753C1766.83 36.4226 1778.08 39.1714 1789.2 38.0469C1800.32 36.9224 1810.82 31.9245 1818.82 24.0529L1935.43 -92.5224C1940.55 -97.6453 1940.55 -105.892 1935.43 -111.015C1932.93 -113.513 1929.55 -114.888 1926.18 -114.888C1922.8 -114.888 1919.43 -113.638 1916.93 -111.015L1800.32 5.56073C1792.7 13.1825 1780.83 14.307 1771.83 8.43453L1707.21 -34.2973C1699.21 -39.545 1689.84 -42.4188 1680.22 -42.4188C1678.59 -42.4188 1676.97 -42.2938 1675.34 -42.1689C1664.22 -41.0444 1653.72 -36.0465 1645.72 -28.1749L1573.36 44.1693L1573.36 62.6614L1591.98 62.6614Z" fill="#C42A56"/>
<path d="M1551.11 66.5347L1573.48 44.1693L1573.48 24.5526C1573.48 17.3057 1567.61 11.4332 1560.36 11.4332C1553.11 11.4332 1547.24 17.3057 1547.24 24.5526L1547.24 75.7808C1547.24 72.4072 1548.49 69.1586 1551.11 66.5347Z" fill="#C6ED07"/>
<path d="M1549.11 82.5278C1548.99 82.4029 1548.86 82.153 1548.86 82.0281C1548.86 82.153 1548.99 82.278 1549.11 82.5278Z" fill="#C6ED07"/>
<path d="M1547.24 75.7807C1547.24 76.1555 1547.24 76.6553 1547.36 77.0302C1547.36 77.28 1547.36 77.405 1547.49 77.6549C1547.49 77.9048 1547.49 78.1547 1547.61 78.4046C1547.61 78.6545 1547.74 78.7794 1547.74 79.0293C1547.74 79.2792 1547.86 79.4041 1547.86 79.654C1547.99 79.9039 1547.99 80.0289 1548.11 80.2788C1548.24 80.5287 1548.24 80.6536 1548.36 80.9035C1548.49 81.1534 1548.49 81.2783 1548.61 81.5282C1548.74 81.7781 1548.74 81.9031 1548.86 82.153C1548.99 82.2779 1549.11 82.5278 1549.11 82.6528C1549.24 82.9026 1549.36 83.0276 1549.49 83.2775C1549.61 83.5274 1549.74 83.6523 1549.86 83.7773C1549.99 83.9022 1550.11 84.1521 1550.24 84.277C1550.49 84.6519 1550.74 84.9018 1551.11 85.2766C1551.36 85.5265 1551.74 85.9013 1552.11 86.1512C1552.24 86.2762 1552.36 86.4012 1552.61 86.5261C1552.74 86.6511 1552.99 86.776 1553.11 86.9009C1553.24 87.0259 1553.49 87.1508 1553.74 87.2758C1553.86 87.4007 1554.11 87.5257 1554.24 87.6506C1554.49 87.7756 1554.61 87.9005 1554.86 87.9005C1555.11 88.0255 1555.24 88.0254 1555.49 88.1504C1555.74 88.2753 1555.86 88.2754 1556.11 88.4003C1556.36 88.5252 1556.49 88.5252 1556.74 88.6502C1556.99 88.6502 1557.11 88.7751 1557.36 88.7751C1557.61 88.7751 1557.74 88.9001 1557.99 88.9001C1558.24 88.9001 1558.49 89.025 1558.74 89.025C1558.99 89.025 1559.11 89.15 1559.36 89.15C1559.74 89.15 1560.24 89.2749 1560.61 89.2749C1563.99 89.2749 1567.36 88.0255 1569.86 85.4016L1592.23 63.0361L1573.49 63.0361L1573.49 44.544L1551.11 66.9095C1548.49 69.1585 1547.24 72.4071 1547.24 75.7807Z" fill="#AB1B44"/>
<path d="M1651.22 215.096C1651.47 215.096 1651.6 215.221 1651.72 215.346C1651.97 215.596 1651.97 216.096 1651.72 216.471L1509.03 359.083C1508.78 359.333 1508.28 359.333 1507.9 359.083C1507.65 358.833 1507.65 358.333 1507.9 357.959L1650.6 215.346C1650.85 215.096 1650.97 215.096 1651.22 215.096Z" fill="white"/>
<path d="M1651.97 219.719L1658.22 208.849L1647.35 215.096L1651.97 219.719Z" fill="white"/>
<path d="M1715.34 289.44L1735.21 311.305C1737.83 314.179 1741.33 315.553 1744.96 315.553C1752.08 315.429 1757.71 309.556 1757.71 302.434L1757.71 300.06C1757.33 297.811 1756.21 295.562 1754.58 293.688L1731.58 268.324L1731.58 289.44L1715.34 289.44Z" fill="#C42A56"/>
<path d="M1715.34 289.44L1693.34 289.44C1686.09 289.44 1680.22 295.312 1680.22 302.559C1680.22 309.806 1686.09 315.678 1693.34 315.678L1744.71 315.678C1744.83 315.678 1744.96 315.678 1744.96 315.678C1741.33 315.678 1737.83 314.304 1735.21 311.43L1715.34 289.44Z" fill="#C42A56"/>
<path d="M1757.71 300.185L1757.71 251.331C1757.71 244.084 1751.83 238.212 1744.58 238.212C1737.33 238.212 1731.46 244.084 1731.46 251.331L1731.46 268.449L1754.46 293.813C1756.33 295.562 1757.33 297.811 1757.71 300.185Z" fill="#C42A56"/>
<path d="M1744.96 315.553C1748.08 315.553 1751.21 314.429 1753.71 312.18C1757.2 309.056 1758.58 304.433 1757.7 300.06L1757.7 302.434C1757.7 309.681 1752.08 315.429 1744.96 315.553Z" fill="#14899B"/>
<path d="M1715.34 289.439L1731.58 289.439L1731.58 268.323L1713.46 248.457C1713.34 248.332 1713.21 248.207 1712.96 247.957C1704.21 239.211 1704.21 224.967 1712.84 216.096L2008.91 -75.9047C2014.04 -81.0275 2014.16 -89.2741 2009.04 -94.3969C2006.54 -97.0207 2003.17 -98.2702 1999.67 -98.2702C1996.29 -98.2702 1993.04 -97.0207 1990.42 -94.5218L1694.34 197.604L1694.22 197.729C1685.09 206.975 1680.09 219.219 1680.09 232.214C1680.09 245.083 1685.09 257.203 1694.09 266.324L1715.34 289.439Z" fill="#14899B"/>
<path d="M1715.34 289.44L1735.21 311.305C1737.83 314.179 1741.33 315.553 1744.96 315.553C1752.08 315.429 1757.71 309.556 1757.71 302.434L1757.71 300.06C1757.33 297.811 1756.21 295.562 1754.58 293.688L1731.58 268.324L1731.58 289.44L1715.34 289.44Z" fill="#14899B"/>
<path d="M1823.69 -146C1823.94 -146 1824.07 -145.875 1824.19 -145.75C1824.44 -145.5 1824.44 -145 1824.19 -144.625L1547.61 131.882C1547.36 132.132 1546.86 132.132 1546.49 131.882C1546.24 131.632 1546.24 131.132 1546.49 130.757L1823.07 -145.75C1823.32 -145.875 1823.44 -146 1823.69 -146Z" fill="white"/>
<path d="M1546.36 127.508L1540.12 138.254L1550.99 132.007L1546.36 127.508Z" fill="white"/>
<path d="M1517.74 246.583L1678.09 86.1512L1661.1 103.144C1655.97 108.267 1647.72 108.267 1642.6 103.144C1637.48 98.0212 1637.48 89.7747 1642.6 84.6519L1499.12 228.091L1499.12 246.583L1517.74 246.583V246.583Z" fill="#015A00"/>
<path d="M1668.85 63.7857C1672.22 63.7857 1675.59 65.0352 1678.09 67.659C1683.22 72.7819 1683.22 81.0283 1678.09 86.1511L1855.82 -91.523C1860.94 -96.6459 1860.94 -104.892 1855.82 -110.015C1853.32 -112.514 1849.94 -113.888 1846.57 -113.888C1843.19 -113.888 1839.82 -112.639 1837.32 -110.015L1642.72 84.5269L1659.72 67.5341C1662.22 65.1601 1665.47 63.7857 1668.85 63.7857Z" fill="#6CCD00"/>
<path d="M1642.73 103.144C1647.85 108.267 1656.1 108.267 1661.22 103.144L1678.22 86.1512C1683.34 81.0284 1683.34 72.7819 1678.22 67.6591C1675.72 65.1602 1672.35 63.7857 1668.97 63.7857C1665.6 63.7857 1662.22 65.0352 1659.72 67.6591L1642.73 84.6519C1637.6 89.6497 1637.6 98.0212 1642.73 103.144Z" fill="#C6ED07"/>
<path d="M1486.13 272.697L1561.49 272.697C1568.74 272.697 1574.61 266.824 1574.61 259.577C1574.61 252.33 1568.74 246.458 1561.49 246.458L1517.62 246.458L1495.25 268.823C1492.87 271.447 1489.5 272.697 1486.13 272.697Z" fill="#C6ED07"/>
<path d="M1476.88 250.331L1499.25 227.966L1499.25 184.11C1499.25 176.863 1493.37 170.99 1486.13 170.99C1478.88 170.99 1473 176.863 1473 184.11L1473 259.452C1473 256.204 1474.38 252.955 1476.88 250.331Z" fill="#C6ED07"/>
<path d="M1473 259.577C1473 260.077 1473 260.452 1473.13 260.827C1473.13 261.077 1473.13 261.202 1473.25 261.451C1473.25 261.701 1473.25 261.951 1473.38 262.201C1473.38 262.451 1473.5 262.576 1473.5 262.826C1473.5 263.076 1473.63 263.201 1473.63 263.451C1473.75 263.7 1473.75 263.825 1473.88 264.075C1474 264.325 1474 264.45 1474.13 264.7C1474.25 264.95 1474.25 265.075 1474.38 265.325C1474.5 265.575 1474.5 265.7 1474.63 265.949C1474.75 266.074 1474.88 266.324 1474.88 266.449C1475 266.699 1475.13 266.824 1475.25 267.074C1475.38 267.324 1475.5 267.449 1475.63 267.574C1475.75 267.699 1475.88 267.949 1476 268.074C1476.25 268.448 1476.5 268.698 1476.88 268.948C1477.13 269.198 1477.5 269.573 1477.75 269.823C1477.88 269.948 1478.13 270.073 1478.25 270.198C1478.38 270.323 1478.63 270.448 1478.75 270.572C1478.88 270.697 1479.13 270.822 1479.38 270.947C1479.5 271.072 1479.75 271.197 1479.88 271.197C1480.13 271.322 1480.25 271.447 1480.5 271.447C1480.75 271.572 1480.88 271.572 1481.13 271.697C1481.37 271.822 1481.5 271.822 1481.75 271.947C1482 272.072 1482.12 272.072 1482.37 272.197C1482.62 272.197 1482.75 272.322 1483 272.322C1483.25 272.322 1483.37 272.447 1483.62 272.447C1483.87 272.447 1484.12 272.572 1484.37 272.572C1484.62 272.572 1484.75 272.697 1485 272.697C1485.37 272.697 1485.87 272.822 1486.25 272.822C1489.62 272.822 1493 271.572 1495.5 268.948L1517.87 246.583L1499.37 246.583L1499.37 228.091L1477 250.456C1474.38 252.955 1473 256.204 1473 259.577Z" fill="#6CCD00"/>
<path d="M1560.36 88.9002L1611.73 88.9001C1618.98 88.9001 1624.85 83.0277 1624.85 75.7807C1624.85 68.5338 1618.98 62.6613 1611.73 62.6613L1591.98 62.6613L1569.61 85.0268C1566.99 87.6507 1563.74 88.9002 1560.36 88.9002Z" fill="#C6ED07"/>
<path d="M223.662 513.515C223.758 513.736 223.842 513.962 223.912 514.192C223.842 513.962 223.758 513.736 223.662 513.515Z" fill="#C42A56"/>
<path d="M223.014 512.131C223.141 512.354 223.254 512.585 223.352 512.822C223.254 512.585 223.141 512.354 223.014 512.131Z" fill="#C42A56"/>
<path d="M214.633 504.899L215.324 505.15L214.633 504.899Z" fill="#C42A56"/>
<path d="M222.248 510.834C222.395 511.055 222.513 511.276 222.66 511.511C222.513 511.276 222.395 511.055 222.248 510.834Z" fill="#C42A56"/>
<path d="M217.314 506.151L217.991 506.563L217.314 506.151Z" fill="#C42A56"/>
<path d="M218.654 507.064L219.199 507.476L218.654 507.064Z" fill="#C42A56"/>
<path d="M216.033 505.459L216.739 505.797L216.033 505.459Z" fill="#C42A56"/>
<path d="M224.177 514.988C224.25 515.223 224.294 515.459 224.353 515.679C224.294 515.385 224.25 515.15 224.177 514.988Z" fill="#C42A56"/>
<path d="M221.35 509.627C221.497 509.803 221.629 509.995 221.762 510.171C221.629 509.995 221.497 509.803 221.35 509.627Z" fill="#C42A56"/>
<path d="M172.203 534.812L86.8692 620.145C82.5179 624.474 76.8094 627.174 70.7026 627.791C64.5958 628.407 58.4628 626.904 53.3337 623.533L-22.7508 573.178C-33.7979 565.86 -47.0356 562.586 -60.2204 563.912C-73.4051 565.238 -85.7258 571.082 -95.0944 580.453L-232.521 717.894C-234.024 719.309 -235.228 721.011 -236.061 722.9C-236.894 724.789 -237.34 726.826 -237.371 728.89C-237.403 730.954 -237.019 733.004 -236.244 734.917C-235.468 736.83 -234.316 738.568 -232.857 740.028C-231.397 741.487 -229.659 742.639 -227.746 743.415C-225.833 744.19 -223.783 744.574 -221.719 744.542C-219.655 744.511 -217.618 744.066 -215.729 743.232C-213.84 742.399 -212.138 741.195 -210.723 739.692L-73.2824 602.265C-68.9277 597.944 -63.2178 595.255 -57.1131 594.648C-51.0083 594.042 -44.881 595.557 -39.7616 598.937L36.3524 649.233C47.3995 656.551 60.6372 659.825 73.8219 658.499C87.0066 657.173 99.3274 651.329 108.696 641.957L194.044 556.609V534.812H172.203Z" fill="#C42A56"/>
<path d="M211.614 504.148C211.894 504.148 212.173 504.222 212.438 504.281L211.614 504.148Z" fill="#C42A56"/>
<path d="M210.951 504.045C210.436 504.045 209.935 503.971 209.479 503.971C209.935 503.971 210.451 504.001 210.951 504.045Z" fill="#C42A56"/>
<path d="M224.545 516.372C224.545 516.652 224.633 516.917 224.663 517.196C224.633 516.917 224.589 516.652 224.545 516.372Z" fill="#C42A56"/>
<path d="M213.205 504.458L213.896 504.634L213.205 504.458Z" fill="#C42A56"/>
<path d="M224.767 517.934C224.767 518.434 224.84 518.935 224.84 519.406C224.87 518.891 224.87 518.375 224.767 517.934Z" fill="#C42A56"/>
<path d="M210.951 504.045L211.613 504.148L210.951 504.045Z" fill="#C6ED07"/>
<path d="M217.991 506.578C218.217 506.725 218.437 506.887 218.653 507.064C218.437 506.887 218.217 506.725 217.991 506.578Z" fill="#C6ED07"/>
<path d="M213.896 504.678C214.147 504.678 214.382 504.855 214.632 504.943L213.896 504.678Z" fill="#C6ED07"/>
<path d="M212.439 504.281L213.204 504.457L212.439 504.281Z" fill="#C6ED07"/>
<path d="M216.695 505.798L217.313 506.165L216.695 505.798Z" fill="#C6ED07"/>
<path d="M215.326 505.15L215.988 505.459L215.326 505.15Z" fill="#C6ED07"/>
<path d="M224.663 517.197C224.663 517.418 224.737 517.638 224.766 517.874C224.737 517.638 224.693 517.418 224.663 517.197Z" fill="#C6ED07"/>
<path d="M224.354 515.606C224.354 515.871 224.486 516.121 224.545 516.371C224.486 516.121 224.412 515.871 224.354 515.606Z" fill="#C6ED07"/>
<path d="M223.912 514.178C224 514.428 224.103 514.663 224.177 514.913C224.103 514.663 224 514.428 223.912 514.178Z" fill="#C6ED07"/>
<path d="M220.318 530.29L194.014 556.609V579.791C194.014 583.882 195.639 587.806 198.532 590.7C201.426 593.593 205.35 595.218 209.441 595.218C213.533 595.218 217.457 593.593 220.35 590.7C223.243 587.806 224.869 583.882 224.869 579.791V519.406C224.867 521.431 224.464 523.436 223.683 525.304C222.902 527.172 221.758 528.867 220.318 530.29V530.29Z" fill="#C6ED07"/>
<path d="M220.348 508.508C220.701 508.861 221.025 509.244 221.349 509.627C221.035 509.237 220.7 508.863 220.348 508.508V508.508Z" fill="#C6ED07"/>
<path d="M223.396 512.823C223.499 513.044 223.617 513.264 223.705 513.5C223.573 513.264 223.396 513.044 223.396 512.823Z" fill="#C6ED07"/>
<path d="M221.762 510.172C221.924 510.393 222.1 510.613 222.247 510.834C222.085 510.569 221.924 510.393 221.762 510.172Z" fill="#C6ED07"/>
<path d="M219.199 507.477C219.585 507.791 219.954 508.125 220.304 508.478C219.954 508.125 219.585 507.791 219.199 507.477V507.477Z" fill="#C6ED07"/>
<path d="M222.66 511.512C222.778 511.718 222.91 511.909 223.013 512.13C222.91 511.909 222.778 511.718 222.66 511.512Z" fill="#C6ED07"/>
<path d="M224.87 519.406C224.87 518.891 224.87 518.39 224.796 517.933C224.796 517.698 224.722 517.477 224.693 517.256C224.663 517.035 224.619 516.711 224.575 516.431C224.531 516.151 224.442 515.93 224.384 515.665C224.325 515.4 224.28 515.209 224.207 514.973C224.133 514.737 224.03 514.487 223.942 514.237C223.871 514.006 223.788 513.78 223.691 513.559C223.603 513.323 223.485 513.103 223.382 512.882C223.284 512.644 223.171 512.413 223.043 512.189C222.94 511.969 222.808 511.777 222.69 511.571C222.572 511.365 222.425 511.114 222.277 510.893C222.13 510.672 221.953 510.451 221.791 510.231C221.629 510.01 221.526 509.862 221.379 509.686C221.232 509.509 220.731 508.92 220.378 508.566C220.027 508.213 219.658 507.879 219.273 507.565L218.728 507.152C218.512 506.976 218.291 506.814 218.065 506.666L217.388 506.254L216.769 505.886L216.062 505.547L215.399 505.238L214.707 504.987C214.457 504.899 214.221 504.796 213.971 504.722L213.279 504.546L212.513 504.369C212.248 504.369 211.968 504.281 211.688 504.236L211.025 504.133C210.525 504.133 210.009 504.06 209.552 504.06C207.528 504.058 205.522 504.457 203.652 505.233C201.782 506.009 200.083 507.147 198.654 508.581L172.335 534.9H194.147V556.697L220.451 530.378C221.878 528.934 223.004 527.22 223.762 525.336C224.521 523.452 224.897 521.437 224.87 519.406V519.406Z" fill="#C42A56"/>
<path d="M224.87 519.406C224.87 518.891 224.87 518.39 224.796 517.933C224.796 517.698 224.722 517.477 224.693 517.256C224.663 517.035 224.619 516.711 224.575 516.431C224.531 516.151 224.442 515.93 224.384 515.665C224.325 515.4 224.28 515.209 224.207 514.973C224.133 514.737 224.03 514.487 223.942 514.237C223.871 514.006 223.788 513.78 223.691 513.559C223.603 513.323 223.485 513.103 223.382 512.882C223.284 512.644 223.171 512.413 223.043 512.189C222.94 511.969 222.808 511.777 222.69 511.571C222.572 511.365 222.425 511.114 222.277 510.893C222.13 510.672 221.953 510.451 221.791 510.231C221.629 510.01 221.526 509.862 221.379 509.686C221.232 509.509 220.731 508.92 220.378 508.566C220.027 508.213 219.658 507.879 219.273 507.565L218.728 507.152C218.512 506.976 218.291 506.814 218.065 506.666L217.388 506.254L216.769 505.886L216.062 505.547L215.399 505.238L214.707 504.987C214.457 504.899 214.221 504.796 213.971 504.722L213.279 504.546L212.513 504.369C212.248 504.369 211.968 504.281 211.688 504.236L211.025 504.133C210.525 504.133 210.009 504.06 209.552 504.06C207.528 504.058 205.522 504.457 203.652 505.233C201.782 506.009 200.083 507.147 198.654 508.581L172.335 534.9H194.147V556.697L220.451 530.378C221.878 528.934 223.004 527.22 223.762 525.336C224.521 523.452 224.897 521.437 224.87 519.406V519.406Z" fill="#E24F10"/>
<path d="M102.333 355.234C102.209 355.234 102.087 355.209 101.973 355.161C101.859 355.113 101.756 355.042 101.67 354.954C101.499 354.776 101.403 354.538 101.403 354.291C101.403 354.044 101.499 353.807 101.67 353.629L482.033 -26.7203C482.12 -26.8085 482.223 -26.8785 482.337 -26.9263C482.45 -26.9741 482.573 -26.9988 482.696 -26.9988C482.82 -26.9988 482.942 -26.9741 483.056 -26.9263C483.169 -26.8785 483.273 -26.8085 483.359 -26.7203C483.447 -26.6352 483.516 -26.5333 483.564 -26.4207C483.612 -26.3081 483.636 -26.1871 483.636 -26.0649C483.636 -25.9426 483.612 -25.8217 483.564 -25.7091C483.516 -25.5965 483.447 -25.4946 483.359 -25.4095L102.995 354.954C102.91 355.044 102.807 355.115 102.693 355.163C102.579 355.211 102.456 355.235 102.333 355.234V355.234Z" fill="white"/>
<path d="M101.479 349.77L94.1445 362.495L106.855 355.146L101.479 349.77Z" fill="white"/>
<path d="M302.928 72.6345C303.016 72.8846 303.119 73.12 303.193 73.37L302.928 72.6345Z" fill="#019002"/>
<path d="M299.349 66.979C299.697 67.3244 300.026 67.6882 300.335 68.0689C300.03 67.685 299.7 67.321 299.349 66.979V66.979Z" fill="#019002"/>
<path d="M298.2 65.9185C298.568 66.2277 298.937 66.5518 299.29 66.9052C298.937 66.5665 298.509 66.2277 298.2 65.9185Z" fill="#019002"/>
<path d="M300.763 68.6284C300.925 68.8491 301.086 69.055 301.233 69.2757C301.086 69.055 300.925 68.8491 300.763 68.6284Z" fill="#019002"/>
<path d="M301.646 69.9539C301.779 70.1598 301.897 70.3657 302.014 70.5717C301.897 70.3657 301.779 70.2039 301.646 69.9539Z" fill="#019002"/>
<path d="M302.353 71.2795C302.456 71.5002 302.573 71.7208 302.661 71.9415C302.573 71.6767 302.456 71.5002 302.353 71.2795Z" fill="#019002"/>
<path d="M297.036 65.02C297.257 65.1671 297.477 65.3437 297.683 65.5055C297.419 65.3437 297.198 65.1671 297.036 65.02Z" fill="#019002"/>
<path d="M291.439 62.7227C291.693 62.7725 291.943 62.8364 292.19 62.9139L291.439 62.7227Z" fill="#019002"/>
<path d="M289.938 62.5017C290.165 62.5205 290.391 62.5549 290.614 62.6047C290.391 62.5549 290.165 62.5205 289.938 62.5017V62.5017Z" fill="#019002"/>
<path d="M292.897 63.0908L293.633 63.3409L292.897 63.0908Z" fill="#019002"/>
<path d="M295.682 64.3132L296.299 64.681L295.682 64.3132Z" fill="#019002"/>
<path d="M294.326 63.5916L294.988 63.9152L294.326 63.5916Z" fill="#019002"/>
<path d="M303.664 75.6389C303.664 75.8743 303.664 76.0949 303.767 76.3156C303.738 76.0949 303.693 75.8743 303.664 75.6389Z" fill="#019002"/>
<path d="M299.319 88.7469L273 115.066V138.306C273 142.396 274.625 146.318 277.516 149.21C280.408 152.102 284.331 153.727 288.42 153.727C292.51 153.727 296.432 152.102 299.324 149.21C302.216 146.318 303.84 142.396 303.84 138.306V77.9219C303.823 81.986 302.197 85.8779 299.319 88.7469V88.7469Z" fill="#019002"/>
<path d="M288.42 62.428H228.035C225.971 62.3642 223.915 62.7156 221.99 63.4615C220.064 64.2073 218.308 65.3324 216.825 66.7699C215.342 68.2074 214.163 69.9281 213.358 71.8299C212.553 73.7316 212.139 75.7757 212.139 77.8408C212.139 79.9059 212.553 81.95 213.358 83.8517C214.163 85.7535 215.342 87.4742 216.825 88.9117C218.308 90.3492 220.064 91.4743 221.99 92.2201C223.915 92.966 225.971 93.3174 228.035 93.2536H251.276L277.595 66.9348C280.465 64.0603 284.358 62.4398 288.42 62.428Z" fill="#019002"/>
<path d="M303.354 74.063C303.354 74.3278 303.487 74.5778 303.531 74.8279C303.487 74.622 303.413 74.3278 303.354 74.063Z" fill="#019002"/>
<path d="M293.634 63.3411L294.325 63.5911L293.634 63.3411Z" fill="#6CCD18"/>
<path d="M288.42 62.428C288.935 62.428 289.436 62.428 289.893 62.5016C289.436 62.4574 288.921 62.428 288.42 62.428Z" fill="#6CCD18"/>
<path d="M251.203 93.2537L113.953 230.503C108.614 235.838 104.378 242.172 101.488 249.144C98.5983 256.117 97.1109 263.59 97.1109 271.138C97.1109 278.685 98.5983 286.159 101.488 293.131C104.378 300.103 108.614 306.438 113.953 311.772L118.475 316.293C120.949 318.765 122.912 321.7 124.252 324.931C125.591 328.162 126.281 331.626 126.281 335.123C126.281 338.621 125.591 342.084 124.252 345.315C122.912 348.546 120.949 351.481 118.475 353.953L13.2289 459.199C8.42301 463.996 1.96733 466.779 -4.82052 466.979C-11.6084 467.179 -18.2166 464.781 -23.2964 460.274L-68.408 420.17C-79.3591 410.427 -93.6205 405.239 -108.272 405.669C-122.923 406.099 -136.856 412.114 -147.217 422.482L-192.874 468.138C-189.738 465.971 -185.911 465.043 -182.131 465.534C-178.352 466.024 -174.888 467.899 -172.41 470.795C-169.931 473.69 -168.615 477.402 -168.714 481.212C-168.813 485.022 -170.321 488.66 -172.947 491.423L-197.984 516.858L-125.42 444.294C-120.614 439.496 -114.158 436.713 -107.37 436.514C-100.583 436.314 -93.9744 438.712 -88.8946 443.219L-43.7829 483.323C-32.8225 493.046 -18.5652 498.22 -3.91993 497.791C10.7253 497.361 24.6547 491.359 35.0263 481.011L140.272 375.765C145.611 370.43 149.847 364.096 152.737 357.124C155.627 350.151 157.114 342.678 157.114 335.131C157.114 327.583 155.627 320.11 152.737 313.137C149.847 306.165 145.611 299.83 140.272 294.496L135.751 289.975C130.76 284.979 127.957 278.206 127.957 271.145C127.957 264.084 130.76 257.311 135.751 252.315L273 115.08V93.2537H251.203Z" fill="#6CCD00"/>
<path d="M294.989 63.9155L295.681 64.2392L294.989 63.9155Z" fill="#6CCD18"/>
<path d="M290.615 62.6047C290.892 62.6295 291.167 62.6688 291.439 62.7224C291.167 62.6688 290.892 62.6295 290.615 62.6047V62.6047Z" fill="#6CCD18"/>
<path d="M292.19 62.9141L292.896 63.0906L292.19 62.9141Z" fill="#6CCD18"/>
<path d="M296.3 64.6077L296.977 65.0196L296.3 64.6077Z" fill="#6CCD18"/>
<path d="M303.531 74.8289C303.531 75.0936 303.62 75.3731 303.664 75.6379C303.62 75.3731 303.59 75.0936 303.531 74.8289Z" fill="#6CCD18"/>
<path d="M301.234 69.2764C301.381 69.497 301.514 69.7324 301.646 69.953C301.455 69.7324 301.455 69.497 301.234 69.2764Z" fill="#6CCD18"/>
<path d="M303.178 73.3708L303.354 74.0622L303.178 73.3708Z" fill="#6CCD18"/>
<path d="M302.014 70.5725C302.131 70.8079 302.249 71.0432 302.352 71.2786C302.249 71.0432 302.131 70.8079 302.014 70.5725Z" fill="#6CCD18"/>
<path d="M300.336 68.0688C300.498 68.2454 300.615 68.4366 300.763 68.6278C300.615 68.4366 300.498 68.2454 300.336 68.0688Z" fill="#6CCD18"/>
<path d="M302.662 71.9424C302.75 72.163 302.839 72.3984 302.912 72.6338C302.839 72.3984 302.75 72.163 302.662 71.9424Z" fill="#6CCD18"/>
<path d="M297.625 65.5063L298.199 65.9182L297.625 65.5063Z" fill="#6CCD18"/>
<path d="M303.841 77.8481C303.841 77.3326 303.841 76.8171 303.841 76.3753C303.841 76.1544 303.767 75.9335 303.738 75.6978C303.708 75.4622 303.738 75.1529 303.605 74.8878C303.473 74.6227 303.487 74.387 303.428 74.1219L303.252 73.4297C303.252 73.1793 303.075 72.9437 302.986 72.6933C302.898 72.4429 302.825 72.222 302.736 72.0011C302.648 71.7802 302.53 71.5592 302.427 71.3383C302.324 71.1174 302.206 70.867 302.088 70.6314C301.97 70.3957 301.852 70.219 301.72 70.0128C301.587 69.8066 301.455 69.5563 301.308 69.3353C301.16 69.1144 300.998 68.9082 300.836 68.6873C300.674 68.4664 300.571 68.3044 300.409 68.1276C300.1 67.747 299.771 67.3832 299.422 67.0378V66.9641C299.069 66.6107 298.701 66.2867 298.333 65.9774L297.758 65.565C297.552 65.403 297.331 65.2262 297.11 65.079L296.433 64.6666L295.814 64.2984L295.122 63.9744L294.459 63.6504L293.767 63.4L293.03 63.1496L292.323 62.9729C292.077 62.8953 291.826 62.8314 291.572 62.7814C291.3 62.7277 291.024 62.6884 290.748 62.6636C290.524 62.6138 290.298 62.5793 290.07 62.5605C289.569 62.5605 289.069 62.4868 288.597 62.4868C286.573 62.483 284.569 62.8792 282.698 63.6526C280.828 64.426 279.129 65.5614 277.699 66.9936L251.203 93.2535H273V115.066L299.319 88.7467C300.753 87.3173 301.891 85.6187 302.667 83.7484C303.443 81.8781 303.842 79.873 303.841 77.8481V77.8481Z" fill="#6CCD00"/>
<path d="M303.841 77.8481C303.841 77.3326 303.841 76.8171 303.841 76.3753C303.841 76.1544 303.767 75.9335 303.738 75.6978C303.708 75.4622 303.738 75.1529 303.605 74.8878C303.473 74.6227 303.487 74.387 303.428 74.1219L303.252 73.4297C303.252 73.1793 303.075 72.9437 302.986 72.6933C302.898 72.4429 302.825 72.222 302.736 72.0011C302.648 71.7802 302.53 71.5592 302.427 71.3383C302.324 71.1174 302.206 70.867 302.088 70.6314C301.97 70.3957 301.852 70.219 301.72 70.0128C301.587 69.8066 301.455 69.5563 301.308 69.3353C301.16 69.1144 300.998 68.9082 300.836 68.6873C300.674 68.4664 300.571 68.3044 300.409 68.1276C300.1 67.747 299.771 67.3832 299.422 67.0378V66.9641C299.069 66.6107 298.701 66.2867 298.333 65.9774L297.758 65.565C297.552 65.403 297.331 65.2262 297.11 65.079L296.433 64.6666L295.814 64.2984L295.122 63.9744L294.459 63.6504L293.767 63.4L293.03 63.1496L292.323 62.9729C292.077 62.8953 291.826 62.8314 291.572 62.7814C291.3 62.7277 291.024 62.6884 290.748 62.6636C290.524 62.6138 290.298 62.5793 290.07 62.5605C289.569 62.5605 289.069 62.4868 288.597 62.4868C286.573 62.483 284.569 62.8792 282.698 63.6526C280.828 64.426 279.129 65.5614 277.699 66.9936L251.203 93.2535H273V115.066L299.319 88.7467C300.753 87.3173 301.891 85.6187 302.667 83.7484C303.443 81.8781 303.842 79.873 303.841 77.8481V77.8481Z" fill="#007400"/>
<path d="M547.41 264.319C547.513 264.539 547.631 264.76 547.719 264.981C547.631 264.76 547.513 264.613 547.41 264.319Z" fill="#C42A56"/>
<path d="M543.242 258.958C543.633 259.272 544.006 259.606 544.362 259.959C544.01 259.602 543.636 259.268 543.242 258.958V258.958Z" fill="#C42A56"/>
<path d="M544.465 259.989C544.818 260.357 545.157 260.725 545.466 261.108C545.152 260.717 544.818 260.344 544.465 259.989V259.989Z" fill="#C42A56"/>
<path d="M545.82 261.667C545.982 261.873 546.144 262.094 546.291 262.315C546.144 262.094 545.938 261.873 545.82 261.667Z" fill="#C42A56"/>
<path d="M546.705 262.993C546.837 263.199 546.955 263.405 547.073 263.611C546.955 263.405 546.837 263.14 546.705 262.993Z" fill="#C42A56"/>
<path d="M542.035 258.059L542.697 258.545C542.476 258.383 542.271 258.206 542.035 258.059Z" fill="#C42A56"/>
<path d="M534.996 255.541C535.228 255.56 535.459 255.595 535.687 255.644C535.459 255.595 535.228 255.56 534.996 255.541V255.541Z" fill="#C42A56"/>
<path d="M536.498 255.776C536.751 255.826 537.002 255.89 537.248 255.968C537.002 255.89 536.751 255.826 536.498 255.776V255.776Z" fill="#C42A56"/>
<path d="M540.738 257.249L541.356 257.617L540.738 257.249Z" fill="#C42A56"/>
<path d="M537.955 256.13L538.691 256.38L537.955 256.13Z" fill="#C42A56"/>
<path d="M539.385 256.63L540.047 256.939L539.385 256.63Z" fill="#C42A56"/>
<path d="M548.723 268.678C548.723 268.899 548.796 269.134 548.826 269.355C548.796 269.134 548.752 268.899 548.723 268.678Z" fill="#C42A56"/>
<path d="M548.412 267.102C548.412 267.352 548.544 267.602 548.589 267.867C548.544 267.558 548.471 267.352 548.412 267.102Z" fill="#C42A56"/>
<path d="M547.971 265.673C548.059 265.909 548.162 266.159 548.235 266.409C548.162 266.159 548.059 265.909 547.971 265.673Z" fill="#C42A56"/>
<path d="M533.479 255.467C533.994 255.467 534.495 255.467 534.951 255.541C534.462 255.488 533.97 255.464 533.479 255.467V255.467Z" fill="#C6ED07"/>
<path d="M538.691 256.38L539.383 256.63L538.691 256.38Z" fill="#C6ED07"/>
<path d="M540.047 256.94L540.738 257.278L540.047 256.94Z" fill="#C6ED07"/>
<path d="M535.629 255.644C535.894 255.644 536.158 255.644 536.438 255.761C536.217 255.776 535.953 255.673 535.629 255.644Z" fill="#C6ED07"/>
<path d="M537.25 255.953L537.956 256.13L537.25 255.953Z" fill="#C6ED07"/>
<path d="M548.236 266.41L548.413 267.101L548.236 266.41Z" fill="#C6ED07"/>
<path d="M541.357 257.647L542.034 258.059L541.357 257.647Z" fill="#C6ED07"/>
<path d="M545.393 261.108C545.54 261.284 545.672 261.476 545.819 261.667C545.672 261.476 545.554 261.284 545.393 261.108Z" fill="#C6ED07"/>
<path d="M547.072 263.612C547.19 263.847 547.308 264.082 547.411 264.318C547.308 264.082 547.19 263.847 547.072 263.612Z" fill="#C6ED07"/>
<path d="M546.293 262.315C546.44 262.536 546.573 262.771 546.705 262.992C546.573 262.771 546.455 262.536 546.293 262.315Z" fill="#C6ED07"/>
<path d="M542.697 258.545L543.242 258.957L542.697 258.545Z" fill="#C6ED07"/>
<path d="M547.721 264.981C547.809 265.202 547.897 265.437 547.971 265.673C547.897 265.437 547.809 265.202 547.721 264.981Z" fill="#C6ED07"/>
<path d="M548.59 267.868C548.59 268.133 548.678 268.412 548.722 268.677C548.678 268.412 548.649 268.133 548.59 267.868Z" fill="#C6ED07"/>
<path d="M613.363 514.826H613.511C615.774 514.823 618.008 514.323 620.056 513.359C622.104 512.396 623.914 510.994 625.359 509.252C626.804 507.511 627.848 505.472 628.417 503.282C628.986 501.092 629.066 498.803 628.651 496.578V499.406C628.655 503.474 627.05 507.378 624.186 510.267C621.322 513.156 617.431 514.795 613.363 514.826Z" fill="#C42A56"/>
<path d="M364.372 292.124C364.225 291.948 364.092 291.756 363.96 291.565C364.092 291.756 364.225 291.948 364.372 292.124Z" fill="#C6ED07"/>
<path d="M361.545 286.822C361.545 286.601 361.427 286.366 361.368 286.131C361.427 286.366 361.471 286.587 361.545 286.822Z" fill="#C6ED07"/>
<path d="M371.073 296.837C370.843 296.767 370.617 296.684 370.396 296.587C370.617 296.684 370.843 296.767 371.073 296.837V296.837Z" fill="#C6ED07"/>
<path d="M369.718 296.278C369.48 296.18 369.249 296.067 369.026 295.939C369.249 296.067 369.48 296.18 369.718 296.278Z" fill="#C6ED07"/>
<path d="M368.407 295.541C368.172 295.409 367.951 295.291 367.73 295.144C367.951 295.321 368.172 295.438 368.407 295.541Z" fill="#C6ED07"/>
<path d="M363.473 290.902C363.326 290.696 363.194 290.46 363.062 290.24C363.194 290.46 363.312 290.696 363.473 290.902Z" fill="#C6ED07"/>
<path d="M362.693 289.65L362.354 288.944L362.693 289.65Z" fill="#C6ED07"/>
<path d="M362.045 288.25C361.957 288.03 361.883 287.794 361.795 287.559L362.045 288.25Z" fill="#C6ED07"/>
<path d="M376.287 297.766C375.772 297.766 375.271 297.766 374.814 297.766C375.271 297.736 375.786 297.766 376.287 297.766Z" fill="#C6ED07"/>
<path d="M361.176 285.364C361.176 285.099 361.088 284.819 361.044 284.555C361.088 284.819 361.117 285.099 361.176 285.364Z" fill="#C6ED07"/>
<path d="M367.068 294.687L366.523 294.275L367.068 294.687Z" fill="#C6ED07"/>
<path d="M390.146 326.846L394.644 331.39C399.605 336.414 402.37 343.2 402.333 350.26C402.297 357.32 399.461 364.078 394.448 369.049C391.685 371.954 390.163 375.821 390.203 379.829C390.243 383.838 391.842 387.673 394.662 390.522C397.482 393.371 401.3 395.011 405.308 395.092C409.316 395.174 413.198 393.692 416.131 390.96C426.945 380.232 433.062 365.653 433.141 350.421C433.22 335.189 427.255 320.547 416.554 309.707L412.056 305.177C407.095 300.153 404.33 293.367 404.366 286.307C404.403 279.247 407.239 272.489 412.252 267.518L550.214 130.984L550.327 109.187L528.53 109.074L390.569 245.593C379.759 256.323 373.644 270.901 373.565 286.132C373.486 301.363 379.448 316.004 390.146 326.846V326.846Z" fill="#C6ED07"/>
<path d="M372.517 297.28C372.281 297.28 372.046 297.177 371.825 297.103C372.046 297.177 372.281 297.221 372.517 297.28Z" fill="#C6ED07"/>
<path d="M374.092 297.589L373.283 297.471L374.092 297.589Z" fill="#C6ED07"/>
<path d="M360.956 283.862C360.927 283.372 360.927 282.88 360.956 282.39C360.928 282.88 360.928 283.372 360.956 283.862V283.862Z" fill="#C6ED07"/>
<path d="M371.823 297.103L371.073 296.838L371.823 297.103Z" fill="#14899B"/>
<path d="M373.282 297.471L372.517 297.28L373.282 297.471Z" fill="#14899B"/>
<path d="M374.769 297.692L374.093 297.589L374.769 297.692Z" fill="#14899B"/>
<path d="M367.729 295.173L367.067 294.688L367.729 295.173Z" fill="#14899B"/>
<path d="M369.026 295.939C368.814 295.827 368.608 295.705 368.408 295.571C368.606 295.708 368.812 295.831 369.026 295.939Z" fill="#14899B"/>
<path d="M370.395 296.587C370.16 296.499 369.939 296.381 369.719 296.278C369.939 296.381 370.16 296.499 370.395 296.587Z" fill="#14899B"/>
<path d="M366.523 294.275C366.127 293.951 365.749 293.607 365.389 293.244C365.749 293.607 366.127 293.951 366.523 294.275V294.275Z" fill="#14899B"/>
<path d="M361.043 284.554C361.043 284.319 360.97 284.098 360.955 283.863C360.97 284.098 361.014 284.319 361.043 284.554Z" fill="#14899B"/>
<path d="M361.367 286.13C361.367 285.865 361.22 285.615 361.176 285.365C361.22 285.615 361.293 285.865 361.367 286.13Z" fill="#14899B"/>
<path d="M565.908 78.4123L502.123 78.0805C498.033 78.0592 494.102 79.6634 491.196 82.5402C488.289 85.4169 486.644 89.3306 486.622 93.4202C486.601 97.5098 488.205 101.44 491.082 104.347C493.959 107.254 497.873 108.899 501.962 108.92L528.472 109.058L554.928 82.8767C556.369 81.4404 558.083 80.3058 559.969 79.5392C561.854 78.7727 563.873 78.3896 565.908 78.4123V78.4123Z" fill="#C42A56"/>
<path d="M550.216 130.969L550.078 157.479C550.004 159.543 550.344 161.6 551.08 163.53C551.816 165.459 552.932 167.222 554.362 168.712C555.792 170.202 557.506 171.389 559.404 172.204C561.301 173.019 563.343 173.445 565.408 173.455C567.473 173.466 569.519 173.062 571.425 172.267C573.331 171.472 575.058 170.302 576.503 168.827C577.948 167.352 579.083 165.601 579.839 163.679C580.594 161.758 580.957 159.704 580.903 157.639L581.235 93.9712C581.228 95.9952 580.821 97.9978 580.038 99.8641C579.255 101.73 578.111 103.424 576.671 104.846L550.216 130.969Z" fill="#C42A56"/>
<path d="M361.839 287.558C361.751 287.308 361.662 287.073 361.589 286.823C361.618 287.073 361.707 287.308 361.839 287.558Z" fill="#14899B"/>
<path d="M363.959 291.564C363.797 291.344 363.621 291.138 363.474 290.902C363.621 291.123 363.797 291.344 363.959 291.564Z" fill="#14899B"/>
<path d="M365.388 293.244C365.026 292.893 364.687 292.519 364.372 292.125C364.696 292.508 365.035 292.891 365.388 293.244Z" fill="#14899B"/>
<path d="M363.061 290.239L362.693 289.621L363.061 290.239Z" fill="#14899B"/>
<path d="M362.355 288.913L362.046 288.251L362.355 288.913Z" fill="#14899B"/>
<path d="M550.216 130.969L576.671 104.788C578.111 103.365 579.255 101.672 580.038 99.8055C580.822 97.9392 581.228 95.9365 581.235 93.9126C581.266 93.4222 581.268 92.9305 581.243 92.4398C581.244 92.2041 581.245 91.9832 581.158 91.7471C581.071 91.511 581.161 91.2022 581.029 90.9364C580.898 90.6706 580.914 90.435 580.842 90.1696C580.77 89.9041 580.741 89.6977 580.669 89.4764C580.596 89.2551 580.509 88.9896 580.422 88.7387C580.335 88.4879 580.263 88.2666 580.175 88.0452L579.87 87.3809L579.535 86.6722L579.17 86.0517C579.038 85.8301 578.907 85.5938 578.761 85.3868C578.614 85.1799 578.439 84.9433 578.278 84.7215C578.117 84.4998 578.015 84.3373 577.869 84.1598C577.556 83.7641 577.218 83.3884 576.858 83.0351V83.0351C576.5 82.6704 576.123 82.3244 575.73 81.9983L575.187 81.5831L574.527 81.0936C574.306 80.9452 574.086 80.8262 573.851 80.6925C573.652 80.5579 573.446 80.4339 573.234 80.321C573.012 80.1923 572.781 80.078 572.544 79.9787C572.324 79.8745 572.103 79.7555 571.868 79.6659C571.648 79.5684 571.422 79.4836 571.192 79.412L570.442 79.143C570.222 79.0682 569.986 79.0228 569.751 78.9627L568.986 78.7672L568.177 78.6452L567.5 78.5386C566.999 78.536 566.498 78.5334 566.027 78.5309C564.002 78.5161 561.994 78.903 560.119 79.6694C558.244 80.4357 556.54 81.5663 555.105 82.9956L528.65 109.177L550.447 109.291L550.216 130.969Z" fill="#922D69"/>
<path d="M26.7344 267.559L3.34643 241.785C1.27608 239.501 -1.43843 237.9 -4.43832 237.192C-7.43822 236.484 -10.5823 236.703 -13.455 237.821C-16.3276 238.938 -18.7937 240.9 -20.5272 243.449C-22.2607 245.998 -23.1801 249.012 -23.1638 252.094V254.907C-22.6559 257.721 -21.3643 260.335 -19.4377 262.448L7.6617 292.331V267.559H26.7344Z" fill="#C42A56"/>
<path d="M26.7351 267.559H52.671C54.7351 267.622 56.791 267.271 58.7168 266.525C60.6425 265.779 62.3987 264.654 63.8814 263.217C65.364 261.779 66.5428 260.058 67.3478 258.157C68.1528 256.255 68.5676 254.211 68.5676 252.146C68.5676 250.081 68.1528 248.037 67.3478 246.135C66.5428 244.233 65.364 242.512 63.8814 241.075C62.3987 239.637 60.6425 238.512 58.7168 237.766C56.791 237.021 54.7351 236.669 52.671 236.733H-8.14062C-5.9792 236.717 -3.83875 237.157 -1.85919 238.025C0.120377 238.893 1.89447 240.169 3.34714 241.77L26.7351 267.559Z" fill="#C42A56"/>
<path d="M-23.2075 254.937V312.582C-23.2713 314.646 -22.9198 316.702 -22.174 318.628C-21.4281 320.553 -20.3031 322.31 -18.8656 323.792C-17.428 325.275 -15.7074 326.454 -13.8056 327.259C-11.9039 328.064 -9.85981 328.479 -7.7947 328.479C-5.72959 328.479 -3.6855 328.064 -1.78375 327.259C0.118 326.454 1.83868 325.275 3.27619 323.792C4.71371 322.31 5.83878 320.553 6.58463 318.628C7.33048 316.702 7.68189 314.646 7.61807 312.582V292.36L-19.4813 262.477C-21.408 260.364 -22.6995 257.751 -23.2075 254.937Z" fill="#C42A56"/>
<path d="M26.7339 267.559H7.58762V292.39L28.9873 315.851L29.5028 316.382C34.4625 321.363 37.2568 328.099 37.2789 335.128C37.301 342.157 34.5489 348.911 29.6206 353.923L-319.24 698.233C-322.082 701.12 -323.674 705.01 -323.671 709.062C-323.668 713.113 -322.071 717.001 -319.224 719.884C-316.378 722.767 -312.511 724.414 -308.46 724.469C-304.409 724.524 -300.499 722.982 -297.575 720.177L51.3001 375.809C51.3356 375.766 51.3751 375.727 51.418 375.691C62.0825 364.952 68.0773 350.437 68.0993 335.302C68.1214 320.167 62.1689 305.635 51.5358 294.864L26.7339 267.559Z" fill="#14899B"/>
<path d="M26.7344 267.559L3.34643 241.785C1.27608 239.501 -1.43843 237.9 -4.43832 237.192C-7.43822 236.484 -10.5823 236.703 -13.455 237.821C-16.3276 238.938 -18.7937 240.9 -20.5272 243.449C-22.2607 245.998 -23.1801 249.012 -23.1638 252.094V254.907C-22.6559 257.721 -21.3643 260.335 -19.4377 262.448L7.6617 292.331V267.559H26.7344Z" fill="#922D69"/>
<path d="M497.219 487.108L497.587 487.726L497.219 487.108Z" fill="#14899B"/>
<path d="M488.5 480.245L489.236 480.495L488.5 480.245Z" fill="#14899B"/>
<path d="M496.32 485.782C496.482 485.988 496.659 486.209 496.806 486.43C496.659 486.209 496.482 485.988 496.32 485.782Z" fill="#14899B"/>
<path d="M497.926 488.478L498.235 489.154L497.926 488.478Z" fill="#14899B"/>
<path d="M489.883 480.746L490.56 481.069L489.883 480.746Z" fill="#14899B"/>
<path d="M491.254 481.394L491.872 481.761L491.254 481.394Z" fill="#14899B"/>
<path d="M492.549 482.174L493.211 482.659L492.549 482.174Z" fill="#14899B"/>
<path d="M493.758 483.072C494.141 483.382 494.509 483.72 494.877 484.074C494.524 483.72 494.141 483.396 493.758 483.072Z" fill="#14899B"/>
<path d="M494.906 484.059C495.259 484.409 495.594 484.778 495.908 485.164C495.594 484.778 495.259 484.409 494.906 484.059Z" fill="#14899B"/>
<path d="M498.484 489.774C498.573 490.024 498.661 490.274 498.734 490.524C498.661 490.274 498.573 490.024 498.484 489.774Z" fill="#14899B"/>
<path d="M485.554 479.641C485.781 479.661 486.007 479.695 486.23 479.744C486.007 479.694 485.781 479.66 485.554 479.641V479.641Z" fill="#14899B"/>
<path d="M487.027 479.876C487.286 479.925 487.541 479.988 487.792 480.068C487.541 479.988 487.286 479.925 487.027 479.876V479.876Z" fill="#14899B"/>
<path d="M498.912 491.217C498.991 491.468 499.055 491.723 499.103 491.982C499.055 491.723 498.991 491.468 498.912 491.217V491.217Z" fill="#14899B"/>
<path d="M499.236 492.793C499.236 493.013 499.31 493.249 499.325 493.469C499.31 493.249 499.266 493.013 499.236 492.793Z" fill="#14899B"/>
<path d="M483.992 479.641C484.508 479.641 485.008 479.641 485.465 479.714C485.008 479.641 484.493 479.641 483.992 479.641Z" fill="#6CCD18"/>
<path d="M486.188 479.759C486.459 479.783 486.729 479.822 486.997 479.876C486.729 479.822 486.459 479.783 486.188 479.759V479.759Z" fill="#6CCD18"/>
<path d="M487.764 480.068L488.47 480.244L487.764 480.068Z" fill="#6CCD18"/>
<path d="M491.871 481.762L492.548 482.174L491.871 481.762Z" fill="#6CCD18"/>
<path d="M490.561 481.114L491.252 481.437L490.561 481.114Z" fill="#6CCD18"/>
<path d="M489.207 480.495L489.884 480.745L489.207 480.495Z" fill="#6CCD18"/>
<path d="M498.809 490.525C498.809 490.746 498.926 490.981 498.985 491.216C498.942 490.982 498.883 490.751 498.809 490.525V490.525Z" fill="#6CCD18"/>
<path d="M499.104 491.983C499.104 492.248 499.192 492.512 499.236 492.792C499.192 492.512 499.162 492.248 499.104 491.983Z" fill="#6CCD18"/>
<path d="M499.324 493.47C499.352 493.961 499.352 494.453 499.324 494.943C499.352 494.453 499.352 493.961 499.324 493.47V493.47Z" fill="#6CCD18"/>
<path d="M493.213 482.66L493.757 483.072L493.213 482.66Z" fill="#6CCD18"/>
<path d="M498.234 489.096C498.323 489.317 498.396 489.552 498.485 489.773C498.396 489.552 498.323 489.317 498.234 489.096Z" fill="#6CCD18"/>
<path d="M495.863 485.223C496.01 485.399 496.143 485.59 496.275 485.782C496.187 485.532 496.055 485.399 495.863 485.223Z" fill="#6CCD18"/>
<path d="M496.807 486.43C496.954 486.651 497.086 486.886 497.218 487.107C497.086 486.886 496.954 486.651 496.807 486.43Z" fill="#6CCD18"/>
<path d="M497.586 487.727C497.704 487.947 497.807 488.197 497.924 488.418C497.807 488.197 497.704 487.962 497.586 487.727Z" fill="#6CCD18"/>
<path d="M-100.883 780.797C-101.132 780.791 -101.368 780.691 -101.546 780.518C-101.717 780.339 -101.812 780.102 -101.812 779.855C-101.812 779.608 -101.717 779.37 -101.546 779.192L224.383 453.278C224.47 453.19 224.573 453.12 224.686 453.072C224.8 453.024 224.922 452.999 225.046 452.999C225.169 452.999 225.291 453.024 225.405 453.072C225.519 453.12 225.622 453.19 225.709 453.278C225.88 453.456 225.975 453.693 225.975 453.94C225.975 454.188 225.88 454.425 225.709 454.603L-100.221 780.518C-100.396 780.695 -100.634 780.795 -100.883 780.797V780.797Z" fill="white"/>
<path d="M225.9 458.462L233.235 445.737L220.524 453.086L225.9 458.462Z" fill="white"/>
<path d="M301.735 212.123C301.428 212.126 301.124 212.068 300.841 211.952C300.558 211.835 300.301 211.663 300.085 211.445C299.868 211.229 299.695 210.972 299.578 210.689C299.46 210.406 299.399 210.102 299.399 209.796C299.399 209.489 299.46 209.186 299.578 208.902C299.695 208.619 299.868 208.362 300.085 208.146L471.829 46.3874C472.276 45.99 472.858 45.7787 473.456 45.797C474.054 45.8152 474.622 46.0616 475.044 46.4855C475.466 46.9094 475.71 47.4787 475.726 48.0767C475.741 48.6746 475.528 49.2559 475.128 49.7012L303.384 211.445C303.167 211.661 302.91 211.832 302.627 211.948C302.344 212.064 302.041 212.124 301.735 212.123Z" fill="white"/>
<path d="M299.599 198.485L281.233 230.267L313.031 211.931L299.599 198.485Z" fill="white"/>
<path d="M581.02 219.384C580.758 219.355 580.508 219.256 580.297 219.097C580.086 218.939 579.922 218.726 579.821 218.483C579.72 218.239 579.686 217.972 579.724 217.711C579.761 217.45 579.868 217.203 580.033 216.998L704.693 92.3233C704.8 92.1188 704.954 91.9423 705.142 91.8082C705.33 91.6741 705.547 91.586 705.775 91.5512C706.004 91.5164 706.237 91.5358 706.456 91.6078C706.676 91.6799 706.875 91.8025 707.039 91.9658C707.202 92.1291 707.325 92.3286 707.397 92.548C707.469 92.7675 707.488 93.0008 707.453 93.2291C707.418 93.4575 707.33 93.6744 707.196 93.8625C707.062 94.0505 706.886 94.2044 706.681 94.3116L582.022 218.956C581.892 219.092 581.737 219.199 581.565 219.273C581.392 219.346 581.207 219.384 581.02 219.384Z" fill="white"/>
<path d="M579.739 211.209L568.723 230.282L587.81 219.266L579.739 211.209Z" fill="white"/>
<path d="M311.131 296.823C311.234 297.058 311.307 297.294 311.396 297.514C311.307 297.294 311.234 297.014 311.131 296.823Z" fill="#015A00"/>
<path d="M304.783 289.503L305.46 289.901C305.239 289.754 305.004 289.651 304.783 289.503Z" fill="#015A00"/>
<path d="M308.818 292.95L309.23 293.509L308.818 292.95Z" fill="#015A00"/>
<path d="M309.717 294.172C309.864 294.378 309.982 294.613 310.129 294.849C309.982 294.613 309.864 294.393 309.717 294.172Z" fill="#015A00"/>
<path d="M310.482 295.453C310.607 295.683 310.72 295.918 310.821 296.159C310.72 295.918 310.607 295.683 310.482 295.453V295.453Z" fill="#015A00"/>
<path d="M306.109 290.387C306.286 290.519 306.492 290.652 306.668 290.799L306.109 290.387Z" fill="#015A00"/>
<path d="M299.098 287.486L299.907 287.603L299.098 287.486Z" fill="#015A00"/>
<path d="M296.889 287.309C297.404 287.309 297.92 287.309 298.361 287.382C297.905 287.338 297.404 287.309 296.889 287.309Z" fill="#015A00"/>
<path d="M300.674 287.795L301.365 287.971L300.674 287.795Z" fill="#015A00"/>
<path d="M303.457 288.796L304.163 289.135C303.934 289.01 303.698 288.897 303.457 288.796Z" fill="#015A00"/>
<path d="M302.103 288.178L302.794 288.428C302.568 288.332 302.338 288.248 302.103 288.178V288.178Z" fill="#015A00"/>
<path d="M259.672 318.149L70.6387 507.182L90.6097 487.211C92.0245 485.708 93.7268 484.504 95.6155 483.67C97.5043 482.837 99.5411 482.392 101.605 482.36C103.669 482.329 105.719 482.712 107.632 483.488C109.545 484.264 111.283 485.415 112.743 486.875C114.203 488.335 115.354 490.073 116.13 491.986C116.905 493.899 117.289 495.949 117.258 498.013C117.226 500.077 116.781 502.114 115.948 504.002C115.114 505.891 113.91 507.593 112.407 509.008L281.484 339.946V318.149H259.672Z" fill="#015A00"/>
<path d="M312.015 299.71C312.015 299.989 312.103 300.254 312.132 300.533C312.103 300.254 312.059 299.96 312.015 299.71Z" fill="#015A00"/>
<path d="M311.646 298.251C311.72 298.487 311.764 298.722 311.823 298.958C311.764 298.722 311.764 298.487 311.646 298.251Z" fill="#015A00"/>
<path d="M81.5365 533.501C78.4881 533.499 75.5088 532.593 72.9748 530.899C70.4408 529.204 68.4659 526.797 67.2996 523.98C66.1333 521.164 65.828 518.065 66.4221 515.075C67.0163 512.085 68.4833 509.339 70.6378 507.182L-138.764 716.584C-140.267 717.999 -141.471 719.701 -142.304 721.59C-143.138 723.478 -143.583 725.515 -143.614 727.579C-143.646 729.644 -143.262 731.693 -142.487 733.606C-141.711 735.519 -140.559 737.257 -139.1 738.717C-137.64 740.177 -135.902 741.329 -133.989 742.104C-132.076 742.88 -130.026 743.263 -127.962 743.232C-125.898 743.2 -123.861 742.755 -121.972 741.922C-120.084 741.088 -118.381 739.885 -116.967 738.381L112.406 509.008L92.4351 528.979C91.0077 530.416 89.3094 531.556 87.4387 532.332C85.5679 533.108 83.5618 533.505 81.5365 533.501Z" fill="#6CCD00"/>
<path d="M112.407 487.211C110.976 485.779 109.277 484.643 107.407 483.867C105.537 483.092 103.532 482.693 101.508 482.693C99.4838 482.693 97.4793 483.092 95.6092 483.867C93.7392 484.643 92.0402 485.779 90.6095 487.211L70.6384 507.182C69.135 508.597 67.9311 510.299 67.0979 512.188C66.2647 514.077 65.8192 516.113 65.7879 518.178C65.7566 520.242 66.14 522.291 66.9156 524.204C67.6911 526.117 68.8428 527.855 70.3026 529.315C71.7623 530.775 73.5003 531.927 75.4135 532.702C77.3266 533.478 79.3761 533.861 81.4402 533.83C83.5043 533.799 85.5412 533.353 87.4299 532.52C89.3187 531.687 91.0209 530.483 92.4357 528.979L112.407 509.008C113.839 507.578 114.975 505.879 115.75 504.008C116.525 502.138 116.924 500.134 116.924 498.11C116.924 496.085 116.525 494.081 115.75 492.211C114.975 490.341 113.839 488.642 112.407 487.211V487.211Z" fill="#015A00"/>
<path d="M112.407 487.211C110.976 485.779 109.277 484.643 107.407 483.867C105.537 483.092 103.532 482.693 101.508 482.693C99.4838 482.693 97.4793 483.092 95.6092 483.867C93.7392 484.643 92.0402 485.779 90.6095 487.211L70.6384 507.182C69.135 508.597 67.9311 510.299 67.0979 512.188C66.2647 514.077 65.8192 516.113 65.7879 518.178C65.7566 520.242 66.14 522.291 66.9156 524.204C67.6911 526.117 68.8428 527.855 70.3026 529.315C71.7623 530.775 73.5003 531.927 75.4135 532.702C77.3266 533.478 79.3761 533.861 81.4402 533.83C83.5043 533.799 85.5412 533.353 87.4299 532.52C89.3187 531.687 91.0209 530.483 92.4357 528.979L112.407 509.008C113.839 507.578 114.975 505.879 115.75 504.008C116.525 502.138 116.924 500.134 116.924 498.11C116.924 496.085 116.525 494.081 115.75 492.211C114.975 490.341 113.839 488.642 112.407 487.211V487.211Z" fill="#009000"/>
<path d="M304.164 289.135C304.376 289.247 304.583 289.369 304.782 289.503C304.583 289.369 304.376 289.247 304.164 289.135V289.135Z" fill="#C6ED07"/>
<path d="M296.889 287.309H208.035C203.946 287.309 200.024 288.933 197.132 291.825C194.24 294.717 192.615 298.639 192.615 302.729C192.615 306.819 194.24 310.741 197.132 313.633C200.024 316.525 203.946 318.149 208.035 318.149H259.672L285.99 291.83C287.419 290.395 289.117 289.256 290.988 288.48C292.858 287.704 294.864 287.306 296.889 287.309V287.309Z" fill="#C6ED07"/>
<path d="M302.795 288.487L303.457 288.796L302.795 288.487Z" fill="#C6ED07"/>
<path d="M298.421 287.382L299.098 287.485L298.421 287.382Z" fill="#C6ED07"/>
<path d="M307.788 313.628L281.484 339.946V391.583C281.42 393.647 281.772 395.703 282.517 397.628C283.263 399.554 284.388 401.31 285.826 402.793C287.263 404.276 288.984 405.454 290.886 406.259C292.787 407.064 294.832 407.479 296.897 407.479C298.962 407.479 301.006 407.064 302.908 406.259C304.809 405.454 306.53 404.276 307.968 402.793C309.405 401.31 310.53 399.554 311.276 397.628C312.022 395.703 312.373 393.647 312.309 391.583V302.729C312.314 304.754 311.916 306.76 311.14 308.631C310.364 310.502 309.225 312.2 307.788 313.628Z" fill="#C6ED07"/>
<path d="M311.396 297.515C311.396 297.765 311.573 298.001 311.647 298.251C311.573 298.001 311.47 297.765 311.396 297.515Z" fill="#C6ED07"/>
<path d="M301.366 287.971C301.616 287.971 301.852 288.148 302.102 288.236C301.852 288.177 301.616 288.045 301.366 287.971Z" fill="#C6ED07"/>
<path d="M299.982 287.603L300.747 287.795L299.982 287.603Z" fill="#C6ED07"/>
<path d="M309.231 293.509C309.393 293.73 309.57 293.951 309.717 294.171C309.57 293.936 309.393 293.73 309.231 293.509Z" fill="#C6ED07"/>
<path d="M311.764 298.959C311.764 299.209 311.896 299.459 311.955 299.709C311.955 299.459 311.881 299.209 311.764 298.959Z" fill="#C6ED07"/>
<path d="M310.13 294.85C310.248 295.056 310.38 295.247 310.483 295.453C310.38 295.247 310.292 295.056 310.13 294.85Z" fill="#C6ED07"/>
<path d="M305.46 289.901L306.107 290.386L305.46 289.901Z" fill="#C6ED07"/>
<path d="M310.821 296.16C310.924 296.381 311.042 296.602 311.13 296.822C311.042 296.602 310.924 296.381 310.821 296.16Z" fill="#C6ED07"/>
<path d="M306.668 290.799C307.036 291.109 307.404 291.447 307.758 291.801C307.412 291.448 307.048 291.114 306.668 290.799Z" fill="#C6ED07"/>
<path d="M312.133 300.534C312.133 300.755 312.133 300.976 312.236 301.211C312.206 300.976 312.162 300.755 312.133 300.534Z" fill="#C6ED07"/>
<path d="M307.832 291.86C308.171 292.213 308.509 292.582 308.819 292.95C308.509 292.596 308.171 292.213 307.832 291.86Z" fill="#C6ED07"/>
<path d="M312.309 302.729C312.309 302.213 312.309 301.713 312.309 301.256C312.309 301.021 312.235 300.8 312.206 300.579C312.176 300.358 312.206 300.034 312.088 299.754C311.97 299.474 311.955 299.253 311.896 299.003C311.838 298.752 311.793 298.531 311.72 298.296C311.646 298.06 311.543 297.81 311.469 297.559C311.396 297.309 311.307 297.103 311.204 296.867C311.101 296.632 310.998 296.425 310.895 296.204C310.794 295.963 310.681 295.727 310.556 295.498C310.453 295.291 310.321 295.1 310.203 294.894C310.085 294.687 309.938 294.422 309.79 294.216C309.643 294.01 309.466 293.774 309.304 293.553L308.892 292.994C308.583 292.626 308.244 292.257 307.905 291.904H307.832C307.478 291.55 307.11 291.212 306.742 290.902C306.374 290.593 306.359 290.623 306.182 290.49L305.534 290.004L304.856 289.606C304.657 289.473 304.45 289.35 304.238 289.238L303.531 288.899L302.868 288.59L302.176 288.34C301.926 288.251 301.69 288.148 301.44 288.075L300.747 287.898L299.982 287.706L299.172 287.589L298.494 287.486C297.993 287.486 297.478 287.412 297.021 287.412C294.996 287.409 292.991 287.807 291.12 288.583C289.249 289.359 287.551 290.498 286.123 291.933L259.804 318.252H281.616V340.05L307.92 313.731C309.345 312.28 310.467 310.56 311.221 308.671C311.974 306.782 312.344 304.762 312.309 302.729V302.729Z" fill="#015A00"/>
<path d="M312.309 302.729C312.309 302.213 312.309 301.713 312.309 301.256C312.309 301.021 312.235 300.8 312.206 300.579C312.176 300.358 312.206 300.034 312.088 299.754C311.97 299.474 311.955 299.253 311.896 299.003C311.838 298.752 311.793 298.531 311.72 298.296C311.646 298.06 311.543 297.81 311.469 297.559C311.396 297.309 311.307 297.103 311.204 296.867C311.101 296.632 310.998 296.425 310.895 296.204C310.794 295.963 310.681 295.727 310.556 295.498C310.453 295.291 310.321 295.1 310.203 294.894C310.085 294.687 309.938 294.422 309.79 294.216C309.643 294.01 309.466 293.774 309.304 293.553L308.892 292.994C308.583 292.626 308.244 292.257 307.905 291.904H307.832C307.478 291.55 307.11 291.212 306.742 290.902C306.374 290.593 306.359 290.623 306.182 290.49L305.534 290.004L304.856 289.606C304.657 289.473 304.45 289.35 304.238 289.238L303.531 288.899L302.868 288.59L302.176 288.34C301.926 288.251 301.69 288.148 301.44 288.075L300.747 287.898L299.982 287.706L299.172 287.589L298.494 287.486C297.993 287.486 297.478 287.412 297.021 287.412C294.996 287.409 292.991 287.807 291.12 288.583C289.249 289.359 287.551 290.498 286.123 291.933L259.804 318.252H281.616V340.05L307.92 313.731C309.345 312.28 310.467 310.56 311.221 308.671C311.974 306.782 312.344 304.762 312.309 302.729V302.729Z" fill="#63BC0B"/>
<path d="M209.42 503.971H148.962C144.872 503.971 140.95 505.596 138.058 508.488C135.167 511.38 133.542 515.302 133.542 519.392C133.542 523.481 135.167 527.403 138.058 530.295C140.95 533.187 144.872 534.812 148.962 534.812H172.203L198.522 508.493C199.951 507.059 201.65 505.921 203.52 505.145C205.39 504.369 207.395 503.97 209.42 503.971V503.971Z" fill="#C6ED07"/>
<path d="M268.714 392.746C268.53 392.748 268.348 392.712 268.178 392.641C268.008 392.571 267.855 392.466 267.727 392.334C267.483 392.063 267.348 391.712 267.348 391.347C267.348 390.982 267.483 390.631 267.727 390.36L623.467 34.6794C623.738 34.431 624.093 34.2932 624.461 34.2932C624.829 34.2932 625.184 34.431 625.455 34.6794C625.699 34.95 625.835 35.3016 625.835 35.6661C625.835 36.0307 625.699 36.3823 625.455 36.6529L269.701 392.393C269.568 392.514 269.412 392.608 269.243 392.669C269.073 392.729 268.894 392.756 268.714 392.746Z" fill="white"/>
<path d="M267.433 384.631L256.416 403.704L275.503 392.687L267.433 384.631Z" fill="white"/>
<path d="M1486.47 514.292C1486.45 513.898 1486.28 513.527 1485.99 513.258C1485.85 513.12 1485.69 513.011 1485.52 512.936C1485.34 512.862 1485.15 512.823 1484.95 512.823C1484.76 512.823 1484.57 512.862 1484.39 512.936C1484.22 513.011 1484.05 513.12 1483.92 513.258L1290.39 721.885C1290.26 722.025 1290.16 722.19 1290.09 722.37C1290.03 722.55 1289.99 722.741 1290 722.933C1290.01 723.125 1290.05 723.314 1290.13 723.489C1290.21 723.664 1290.32 723.822 1290.46 723.953C1290.6 724.085 1290.77 724.187 1290.95 724.255C1291.13 724.322 1291.32 724.354 1291.51 724.347C1291.7 724.341 1291.89 724.297 1292.07 724.217C1292.24 724.138 1292.4 724.025 1292.53 723.884L1485.95 515.327C1486.11 515.199 1486.23 515.041 1486.32 514.863C1486.41 514.685 1486.46 514.491 1486.47 514.292V514.292Z" fill="white"/>
<path d="M1477.85 513.258L1497.37 501.018L1486.61 521.36L1477.85 513.258Z" fill="white"/>
<path d="M1747.43 532.738C1747.39 532.094 1747.11 531.489 1746.64 531.048C1746.41 530.819 1746.14 530.637 1745.85 530.512C1745.55 530.388 1745.23 530.324 1744.91 530.324C1744.59 530.324 1744.27 530.388 1743.98 530.512C1743.68 530.637 1743.41 530.819 1743.19 531.048L1510.08 782.462C1509.63 782.921 1509.37 783.54 1509.37 784.186C1509.37 784.832 1509.63 785.451 1510.08 785.91C1510.31 786.139 1510.58 786.322 1510.87 786.446C1511.17 786.57 1511.49 786.634 1511.81 786.634C1512.13 786.634 1512.45 786.57 1512.74 786.446C1513.04 786.322 1513.31 786.139 1513.53 785.91L1746.64 534.634C1746.89 534.389 1747.09 534.094 1747.23 533.768C1747.37 533.442 1747.43 533.091 1747.43 532.738V532.738Z" fill="white"/>
<path d="M1733.09 531.048L1765.56 510.602L1747.64 544.563L1733.09 531.048Z" fill="white"/>
<path d="M1575.1 529.238V547.27C1575.1 550.444 1576.36 553.487 1578.6 555.73C1580.85 557.974 1583.89 559.234 1587.06 559.234C1590.23 559.234 1593.28 557.974 1595.52 555.73C1597.76 553.487 1599.03 550.444 1599.03 547.27V500.415C1599.04 503.576 1597.8 506.614 1595.58 508.862L1575.1 529.238Z" fill="#009000"/>
<path d="M1587.31 488.816H1540.45C1538.83 488.729 1537.2 488.973 1535.68 489.534C1534.15 490.095 1532.76 490.961 1531.58 492.079C1530.4 493.197 1529.46 494.543 1528.82 496.036C1528.17 497.529 1527.84 499.138 1527.84 500.763C1527.84 502.388 1528.17 503.996 1528.82 505.489C1529.46 506.982 1530.4 508.329 1531.58 509.446C1532.76 510.564 1534.15 511.43 1535.68 511.991C1537.2 512.552 1538.83 512.797 1540.45 512.709H1558.55L1580.71 493.605C1582.93 491.4 1592 491.23 1595.13 491.202L1587.31 488.816Z" fill="#009000"/>
<path d="M1558.31 512.344L1451.84 618.709C1450.17 620.382 1449.04 622.511 1448.58 624.829C1448.12 627.146 1448.35 629.548 1449.26 631.731C1450.16 633.914 1451.69 635.78 1453.65 637.095C1455.62 638.41 1457.92 639.115 1460.29 639.12C1461.85 639.133 1463.41 638.835 1464.86 638.243C1466.31 637.651 1467.62 636.777 1468.73 635.672L1575.1 529.307V512.413L1558.31 512.344Z" fill="#6CCD00"/>
<path d="M1598.99 499.794V499.518C1598.98 499.427 1598.98 499.334 1598.99 499.242C1598.99 499.242 1598.99 499.001 1598.99 498.863C1598.97 498.795 1598.97 498.724 1598.99 498.656C1598.99 498.656 1598.99 498.415 1598.99 498.277V498.036C1598.97 497.91 1598.97 497.782 1598.99 497.657V497.657V497.277C1598.99 497.277 1598.99 497.277 1598.99 497.07V496.76V496.519V496.208V495.967V495.726C1599 495.623 1599 495.518 1598.99 495.415V495.209V494.898V494.691L1598.78 494.381L1598.58 494.071L1598.34 493.76L1598.13 493.485L1597.92 493.243V493.036L1597.51 492.588L1597.09 492.209H1596.89L1596.65 492.002L1596.37 491.761L1596.06 491.554C1595.96 491.465 1595.84 491.395 1595.72 491.347V491.347L1595.37 491.175L1595.06 491.002H1594.82H1594.54H1594.3H1594.03H1593.75H1593.51H1593.16H1592.96H1592.61H1592.41H1592.03H1589.34H1588.96H1587.2C1584.04 490.994 1581 492.233 1578.75 494.45L1558.31 512.344H1575.2V529.238L1595.61 508.862C1597.84 506.614 1599.08 503.576 1599.06 500.415C1599.03 500.208 1598.99 500.001 1598.99 499.794Z" fill="#007400"/>
<path d="M1744.87 434.562L1587.51 591.919L1604.13 575.267C1606.57 573.028 1609.78 571.818 1613.1 571.891C1616.41 571.963 1619.57 573.311 1621.91 575.654C1624.25 577.997 1625.6 581.155 1625.67 584.468C1625.75 587.78 1624.54 590.993 1622.3 593.436L1763 452.697V434.562H1744.87Z" fill="#005A00"/>
<path d="M1596.58 613.813C1594.04 613.813 1591.56 613.06 1589.45 611.651C1587.34 610.241 1585.7 608.238 1584.73 605.895C1583.76 603.552 1583.51 600.974 1584 598.486C1584.49 595.998 1585.72 593.713 1587.51 591.92L1413.19 766.206C1411.1 768.67 1410.02 771.831 1410.16 775.057C1410.3 778.284 1411.65 781.339 1413.95 783.611C1416.24 785.884 1419.31 787.208 1422.54 787.317C1425.76 787.427 1428.91 786.315 1431.36 784.204L1622.26 593.299L1605.61 609.917C1604.44 611.134 1603.04 612.105 1601.49 612.774C1599.93 613.443 1598.27 613.796 1596.58 613.813V613.813Z" fill="#6CCD00"/>
<path d="M1622.26 575.267C1619.86 572.862 1616.6 571.512 1613.2 571.512C1609.79 571.512 1606.53 572.862 1604.13 575.267L1587.51 591.92C1585.72 593.713 1584.49 595.999 1584 598.486C1583.51 600.974 1583.76 603.552 1584.73 605.895C1585.7 608.239 1587.34 610.241 1589.45 611.651C1591.56 613.06 1594.04 613.813 1596.58 613.813C1598.26 613.819 1599.93 613.489 1601.49 612.844C1603.04 612.199 1604.46 611.251 1605.64 610.055L1622.3 593.437C1624.7 591.021 1626.04 587.751 1626.04 584.345C1626.03 580.938 1624.67 577.673 1622.26 575.267V575.267Z" fill="#009000"/>
<path d="M1784.93 430.803L1763 452.697V495.691C1763.17 498.982 1764.6 502.082 1766.99 504.351C1769.38 506.621 1772.55 507.886 1775.85 507.886C1779.14 507.886 1782.31 506.621 1784.7 504.351C1787.09 502.082 1788.52 498.982 1788.69 495.691V421.701C1788.69 425.112 1787.34 428.384 1784.93 430.803V430.803Z" fill="#C6ED07"/>
<path d="M1782.56 410.701L1701.87 408.875C1698.58 409.046 1695.48 410.473 1693.21 412.863C1690.94 415.253 1689.68 418.423 1689.68 421.718C1689.68 425.014 1690.94 428.184 1693.21 430.573C1695.48 432.963 1698.58 434.391 1701.87 434.561H1747.12L1762.74 419.112C1763.94 417.914 1768.98 413.278 1770.55 412.633C1772.11 411.988 1780.86 410.694 1782.56 410.701Z" fill="#C6ED07"/>
<path d="M1799.54 641.908C1799.04 641.908 1798.54 641.658 1798.16 641.283C1797.41 640.533 1797.41 639.284 1798.16 638.534L1994.88 441.868C1995.63 441.118 1996.88 441.118 1997.63 441.868C1998.38 442.618 1998.38 443.867 1997.63 444.617L1800.91 641.283C1800.54 641.783 1800.04 641.908 1799.54 641.908Z" fill="white"/>
<path d="M1788.69 421.702C1788.69 421.495 1788.69 421.288 1788.69 421.081C1788.71 420.978 1788.71 420.874 1788.69 420.771V420.461C1788.69 420.461 1788.69 420.219 1788.69 420.081V419.84C1788.67 419.703 1788.67 419.564 1788.69 419.426C1788.69 419.426 1788.69 419.426 1788.69 419.219C1788.71 419.082 1788.71 418.943 1788.69 418.806C1788.67 418.738 1788.67 418.667 1788.69 418.599C1788.7 418.473 1788.7 418.346 1788.69 418.22C1788.69 418.22 1788.69 418.22 1788.69 418.013C1788.69 417.806 1788.69 417.771 1788.69 417.633C1788.7 417.553 1788.7 417.472 1788.69 417.392C1788.7 417.289 1788.7 417.185 1788.69 417.082V416.806V416.53V416.22V415.978C1788.7 415.875 1788.7 415.771 1788.69 415.668V415.461L1788.48 415.116V414.944L1788.28 414.565V414.392L1788.03 414.082V413.875L1785.86 413.565L1785.66 413.324L1785.45 413.117L1785.03 412.669L1784.59 412.255L1784.35 412.048L1784.1 411.841C1784.03 411.743 1783.94 411.661 1783.83 411.6H1783.62L1783.31 411.358H1783.1L1782.76 411.151H1782.59L1782.24 410.979H1782.04H1781.73H1781.48H1781.17H1780.9H1780.62H1780.31H1780.07H1779.69H1779.48H1779.07H1778.9H1778.48H1778.28H1777.86H1776.04C1774.34 410.972 1772.66 411.301 1771.09 411.946C1769.52 412.591 1768.1 413.539 1766.9 414.737L1745.01 436.665H1763.14V454.801L1785.07 432.907C1786.52 431.459 1787.6 429.689 1788.23 427.741C1788.86 425.792 1789.02 423.723 1788.69 421.702Z" fill="#01A700"/>
<path d="M1863.54 335.196L1887.12 361.123H1913.43C1915.55 361.265 1917.69 360.969 1919.69 360.253C1921.7 359.538 1923.53 358.418 1925.09 356.963C1926.64 355.509 1927.88 353.75 1928.73 351.797C1929.58 349.844 1930.01 347.737 1930.01 345.608C1930.01 343.479 1929.58 341.373 1928.73 339.419C1927.88 337.466 1926.64 335.708 1925.09 334.253C1923.53 332.798 1921.7 331.679 1919.69 330.963C1917.69 330.247 1915.55 329.951 1913.43 330.093H1852.16C1854.31 330.11 1856.43 330.573 1858.39 331.451C1860.34 332.329 1862.1 333.605 1863.54 335.196V335.196Z" fill="#C6ED07"/>
<path d="M1836.75 347.573V405.6C1836.61 407.724 1836.91 409.855 1837.62 411.861C1838.34 413.866 1839.46 415.703 1840.91 417.258C1842.37 418.813 1844.12 420.052 1846.08 420.9C1848.03 421.747 1850.14 422.184 1852.27 422.184C1854.4 422.184 1856.5 421.747 1858.46 420.9C1860.41 420.052 1862.17 418.813 1863.62 417.258C1865.08 415.703 1866.2 413.866 1866.91 411.861C1867.63 409.855 1867.92 407.724 1867.78 405.6V385.223L1840.44 355.089C1838.54 352.972 1837.26 350.371 1836.75 347.573V347.573Z" fill="#C6ED07"/>
<path d="M1852.16 329.094C1849.87 329.093 1847.61 329.599 1845.54 330.574C1843.47 331.55 1841.63 332.971 1840.18 334.737C1838.72 336.503 1837.66 338.569 1837.1 340.788C1836.53 343.007 1836.46 345.324 1836.89 347.574V344.643C1836.89 340.566 1838.49 336.653 1841.35 333.744C1844.2 330.836 1848.09 329.166 1852.16 329.094V329.094Z" fill="#C42A56"/>
<path d="M1538.24 794.548C1535.31 797.442 1533.65 801.382 1533.62 805.5C1533.6 809.619 1535.21 813.579 1538.1 816.51C1541 819.441 1544.94 821.102 1549.06 821.128C1553.17 821.154 1557.13 819.542 1560.07 816.648L1911.74 469.385C1922.46 458.531 1928.48 443.889 1928.48 428.632C1928.48 413.375 1922.46 398.733 1911.74 387.879L1886.75 360.296H1867.47V385.327L1889.3 408.91L1889.81 409.462C1894.83 414.497 1897.65 421.316 1897.65 428.425C1897.65 435.534 1894.83 442.353 1889.81 447.388L1538.24 794.548Z" fill="#C42A56"/>
<path d="M1887.12 360.124L1863.54 334.127C1861.46 331.799 1858.73 330.16 1855.69 329.428C1852.66 328.696 1849.48 328.906 1846.57 330.03C1843.66 331.153 1841.16 333.138 1839.41 335.718C1837.65 338.298 1836.73 341.351 1836.75 344.47V347.401C1837.28 350.206 1838.59 352.808 1840.51 354.917L1867.85 385.051V360.124H1887.12Z" fill="#982702"/>
<path d="M2156.01 548.672L2083.64 621.016C2076.02 628.638 2064.15 629.762 2055.15 623.89L1990.53 581.158C1981.16 574.91 1969.91 572.162 1958.79 573.286C1947.66 574.411 1937.17 579.409 1929.17 587.28L1812.56 703.855C1807.44 708.978 1807.44 717.225 1812.56 722.348C1815.06 724.846 1818.44 726.221 1821.81 726.221C1825.18 726.221 1828.56 724.971 1831.06 722.348L1947.66 605.772C1955.29 598.151 1967.16 597.026 1976.16 602.898L2040.77 645.63C2048.77 650.878 2058.15 653.752 2067.77 653.752C2069.4 653.752 2071.02 653.627 2072.64 653.502C2083.77 652.377 2094.27 647.38 2102.26 639.508L2174.63 567.164V548.672H2156.01Z" fill="#C42A56"/>
<path d="M2167.54 267.364L2051.06 383.814C2041.81 393.06 2036.81 405.305 2036.81 418.299C2036.81 431.294 2041.93 443.539 2051.06 452.785L2054.93 456.658C2059.18 460.906 2061.56 466.654 2061.56 472.651C2061.56 478.649 2059.18 484.396 2054.93 488.644L1965.57 577.981C1957.07 586.478 1943.45 586.852 1934.58 578.856L1896.33 544.87C1877.08 527.753 1847.71 528.627 1829.47 546.87L1790.72 585.603C1795.85 581.98 1802.85 582.479 1807.47 586.977C1812.6 592.1 1812.72 600.347 1807.6 605.47L1786.35 627.085L1847.96 565.487C1856.46 556.99 1870.09 556.615 1878.96 564.612L1917.2 598.597C1926.45 606.844 1938.08 610.842 1949.57 610.842C1962.07 610.842 1974.57 606.094 1984.07 596.598L2073.43 507.261C2082.68 498.015 2087.68 485.771 2087.68 472.776C2087.68 459.782 2082.55 447.537 2073.43 438.291L2069.55 434.418C2065.3 430.169 2062.93 424.422 2062.93 418.424C2062.93 412.427 2065.3 406.679 2069.55 402.431L2186.03 285.981V267.364H2167.54Z" fill="#6CCD00"/>
<path d="M1766.48 609.593C1766.48 609.593 1766.35 609.718 1766.35 609.843L1767.73 608.468L1766.48 609.593Z" fill="#6CCD18"/>
<path d="M1788.98 586.727L1767.73 608.218L1790.72 585.228C1790.1 585.728 1789.47 586.228 1788.98 586.727Z" fill="#C6ED07"/>
<path d="M1775.73 631.833C1772.35 631.833 1768.98 630.584 1766.48 627.96C1761.48 622.962 1761.35 614.716 1766.35 609.718L1597.38 780.895C1592.26 786.018 1592.38 794.264 1597.51 799.387C1600.01 801.886 1603.38 803.135 1606.75 803.135C1610.13 803.135 1613.5 801.886 1616.13 799.262L1786.48 626.71L1785.1 628.085C1782.35 630.584 1779.1 631.833 1775.73 631.833Z" fill="#C6ED07"/>
<path d="M1807.47 586.603C1802.85 582.105 1795.85 581.605 1790.72 585.228L1767.73 608.343L1766.35 609.718C1761.48 614.841 1761.48 622.962 1766.48 627.96C1768.98 630.459 1772.35 631.833 1775.73 631.833C1779.1 631.833 1782.48 630.584 1784.98 627.96L1786.35 626.586L1807.6 604.97C1812.6 599.972 1812.6 591.725 1807.47 586.603Z" fill="#C6ED07"/>
<path d="M1807.47 586.603C1802.85 582.105 1795.85 581.605 1790.72 585.228L1767.73 608.343L1766.35 609.718C1761.48 614.841 1761.48 622.962 1766.48 627.96C1768.98 630.459 1772.35 631.833 1775.73 631.833C1779.1 631.833 1782.48 630.584 1784.98 627.96L1786.35 626.586L1807.6 604.97C1812.6 599.972 1812.6 591.725 1807.47 586.603Z" fill="#54BF01"/>
<path d="M1924.29 757.333C1924.04 757.333 1923.92 757.208 1923.79 757.083C1923.54 756.833 1923.54 756.333 1923.79 755.958L2200.37 479.451C2200.62 479.201 2201.12 479.201 2201.5 479.451C2201.75 479.701 2201.75 480.201 2201.5 480.576L1924.92 757.083C1924.67 757.208 1924.54 757.333 1924.29 757.333Z" fill="white"/>
<path d="M2079.14 547.547C2075.77 547.547 2072.39 546.298 2069.89 543.674C2064.77 538.551 2064.77 530.305 2069.89 525.182L1892.17 702.856C1887.05 707.979 1887.05 716.225 1892.17 721.348C1894.67 723.847 1898.05 725.222 1901.42 725.222C1904.8 725.222 1908.17 723.972 1910.67 721.348L2105.26 526.806L2088.27 543.799C2085.77 546.173 2082.52 547.547 2079.14 547.547Z" fill="#6CCD00"/>
<circle cx="1479.24" cy="490.243" r="38" fill="white"/>
<path d="M1488.97 452.939C1468.48 447.45 1447.43 459.608 1441.94 480.092C1436.45 500.576 1448.61 521.633 1469.09 527.122C1489.58 532.611 1510.63 520.453 1516.12 499.969C1521.61 479.485 1509.45 458.428 1488.97 452.939ZM1492.68 497.574C1489.76 499.644 1485.86 501.5 1481.34 503.65C1479.81 504.381 1478.05 505.213 1476.23 506.107C1475.75 506.346 1475.2 506.397 1474.68 506.258C1474.16 506.119 1473.71 505.799 1473.41 505.352C1472.28 503.668 1471.18 502.07 1470.22 500.669C1467.38 496.55 1464.93 492.99 1463.44 489.738C1461.77 486.1 1461.37 482.964 1462.2 479.885C1463 476.881 1464.77 474.393 1467.18 472.871C1469.62 471.329 1472.51 470.891 1475.33 471.646C1477.43 472.21 1479.18 473.395 1480.53 475.166C1481.21 476.056 1481.77 477.078 1482.2 478.208C1483.14 477.446 1484.13 476.838 1485.16 476.408C1487.21 475.546 1489.32 475.396 1491.43 475.96C1494.25 476.715 1496.53 478.539 1497.87 481.096C1499.19 483.617 1499.48 486.656 1498.68 489.66C1497.85 492.739 1495.95 495.259 1492.68 497.574V497.574Z" fill="#14899B"/>
<circle cx="533.242" cy="350.243" r="38" fill="white"/>
<path d="M542.969 312.939C522.485 307.45 501.427 319.608 495.938 340.092C490.45 360.576 502.607 381.633 523.091 387.122C543.575 392.611 564.633 380.453 570.121 359.969C575.61 339.485 563.452 318.428 542.969 312.939ZM546.682 357.574C543.762 359.644 539.856 361.5 535.344 363.65C533.806 364.381 532.053 365.213 530.233 366.107C529.751 366.346 529.201 366.397 528.682 366.258C528.162 366.119 527.711 365.799 527.414 365.352C526.285 363.668 525.182 362.07 524.216 360.669C521.384 356.55 518.929 352.99 517.435 349.738C515.766 346.1 515.374 342.964 516.199 339.885C517.004 336.881 518.774 334.393 521.179 332.871C523.62 331.329 526.51 330.891 529.329 331.646C531.434 332.21 533.184 333.395 534.528 335.166C535.214 336.056 535.765 337.078 536.198 338.208C537.137 337.446 538.135 336.838 539.165 336.408C541.214 335.546 543.322 335.396 545.427 335.96C548.246 336.715 550.53 338.539 551.872 341.096C553.195 343.617 553.483 346.656 552.678 349.66C551.854 352.739 549.946 355.259 546.682 357.574V357.574Z" fill="#16AACA"/>
<circle cx="1242.68" cy="555.683" r="18" fill="white"/>
<path d="M1231.09 533.178C1219.44 539.903 1215.45 554.8 1222.18 566.449C1228.9 578.097 1243.8 582.089 1255.45 575.364C1267.1 568.638 1271.09 553.741 1264.36 542.093C1257.64 530.444 1242.74 526.453 1231.09 533.178ZM1252.78 551.531C1252.4 553.769 1251.48 556.354 1250.42 559.341C1250.05 560.359 1249.64 561.519 1249.23 562.736C1249.12 563.059 1248.89 563.328 1248.6 563.499C1248.3 563.669 1247.96 563.728 1247.62 563.661C1246.36 563.412 1245.15 563.19 1244.09 562.995C1240.97 562.418 1238.27 561.923 1236.15 561.134C1233.77 560.251 1232.18 559.02 1231.17 557.269C1230.19 555.561 1229.86 553.652 1230.26 551.89C1230.66 550.104 1231.76 548.611 1233.37 547.685C1234.56 546.994 1235.88 546.741 1237.28 546.932C1237.98 547.024 1238.69 547.235 1239.39 547.547C1239.47 546.784 1239.64 546.065 1239.91 545.41C1240.45 544.104 1241.32 543.091 1242.52 542.4C1244.12 541.475 1245.97 541.269 1247.71 541.813C1249.44 542.35 1250.93 543.584 1251.92 545.292C1252.93 547.043 1253.2 549.029 1252.78 551.531V551.531Z" fill="#C6ED07"/>
<circle cx="345.377" cy="500.377" r="17" fill="white"/>
<path d="M353.29 480.797C341.308 475.939 327.655 481.715 322.797 493.696C317.939 505.678 323.714 519.331 335.696 524.189C347.677 529.047 361.33 523.271 366.188 511.29C371.047 499.308 365.271 485.655 353.29 480.797ZM352.186 508.082C350.264 509.115 347.762 509.945 344.87 510.907C343.885 511.234 342.762 511.606 341.594 512.01C341.285 512.118 340.948 512.108 340.644 511.985C340.34 511.862 340.091 511.634 339.945 511.341C339.388 510.238 338.841 509.189 338.362 508.268C336.957 505.564 335.739 503.226 335.079 501.146C334.342 498.819 334.341 496.892 335.071 495.092C335.783 493.334 337.041 491.962 338.61 491.222C340.203 490.472 341.984 490.424 343.633 491.092C344.865 491.591 345.834 492.439 346.515 493.612C346.863 494.202 347.12 494.861 347.297 495.577C347.922 495.187 348.572 494.894 349.227 494.712C350.532 494.344 351.818 494.411 353.049 494.91C354.698 495.578 355.943 496.854 356.564 498.501C357.174 500.126 357.121 501.986 356.409 503.743C355.678 505.544 354.335 506.926 352.186 508.082V508.082Z" fill="#C42A56"/>
<circle cx="389.244" cy="83.2441" r="38" fill="white"/>
<path d="M381.38 39.6446C357.423 43.8663 341.423 66.7123 345.644 90.6686C349.866 114.625 372.712 130.625 396.668 126.404C420.625 122.182 436.625 99.3361 432.404 75.3798C428.182 51.4234 405.336 35.423 381.38 39.6446ZM406.874 84.2507C404.841 87.818 401.679 91.6403 398.031 96.0626C396.786 97.5678 395.367 99.2828 393.908 101.094C393.523 101.576 392.976 101.896 392.368 102.003C391.761 102.11 391.137 101.996 390.611 101.675C388.621 100.471 386.701 99.3451 385.017 98.356C380.076 95.4472 375.798 92.936 372.669 90.2784C369.171 87.3055 367.243 84.2348 366.608 80.6343C365.989 77.1205 366.624 73.6766 368.387 70.9283C370.177 68.1417 372.969 66.2854 376.266 65.7045C378.728 65.2707 381.121 65.654 383.377 66.8442C384.522 67.4365 385.59 68.2322 386.587 69.197C387.195 67.9494 387.938 66.8345 388.8 65.8887C390.513 63.999 392.631 62.8206 395.093 62.3868C398.39 61.8058 401.649 62.5957 404.283 64.6025C406.88 66.5826 408.653 69.6022 409.272 73.116C409.907 76.7165 409.145 80.2612 406.874 84.2507V84.2507Z" fill="#F43756"/>
<path d="M1375.12 170.424C1405.26 178.751 1435.9 161.62 1443.54 132.16C1451.19 102.699 1432.95 72.0661 1402.81 63.7382C1372.66 55.4103 1342.03 72.5415 1334.39 102.002C1326.74 131.462 1344.98 162.096 1375.12 170.424Z" fill="#4A6EA9"/>
<path d="M1368.69 137.598C1368.45 138.498 1367.86 139.258 1367.04 139.713C1366.22 140.167 1365.24 140.281 1364.32 140.028L1354.74 137.382C1353.82 137.126 1353.03 136.524 1352.54 135.707C1352.05 134.891 1351.91 133.926 1352.13 133.023L1359.05 106.367C1359.29 105.467 1359.88 104.705 1360.7 104.249C1361.52 103.792 1362.5 103.677 1363.42 103.928L1373 106.574C1373.92 106.831 1374.71 107.434 1375.2 108.252C1375.69 109.07 1375.84 110.037 1375.61 110.942L1368.69 137.598ZM1414.88 127.948C1415.43 128.687 1415.77 129.56 1415.85 130.465C1415.93 131.371 1415.75 132.274 1415.33 133.07C1414.91 133.866 1414.27 134.524 1413.48 134.967C1412.68 135.411 1411.78 135.623 1410.85 135.579C1411.41 136.316 1411.75 137.188 1411.83 138.094C1411.92 139.001 1411.74 139.904 1411.32 140.702C1410.9 141.499 1410.26 142.158 1409.46 142.602C1408.67 143.046 1407.76 143.258 1406.84 143.214C1407.45 144.029 1407.79 145.003 1407.82 146.002C1407.85 147.001 1407.57 147.977 1407.01 148.795C1406.45 149.613 1405.64 150.233 1404.69 150.57C1403.75 150.908 1402.71 150.946 1401.73 150.679L1374.8 142.925C1373.88 142.667 1373.09 142.064 1372.61 141.249C1372.12 140.433 1371.98 139.47 1372.21 138.57L1379.13 111.913C1380.22 107.704 1396.01 103.737 1397.83 99.7886C1399 97.1656 1400.18 90.1085 1402.07 90.632C1405.29 91.5203 1409.1 93.8671 1407.29 100.847C1405.69 107.006 1399.49 113.856 1399.49 113.856L1416.19 118.47C1417.36 118.793 1418.38 119.525 1419.06 120.527C1419.73 121.528 1420.01 122.729 1419.85 123.901C1419.69 125.072 1419.09 126.132 1418.17 126.878C1417.26 127.625 1416.09 128.006 1414.88 127.948V127.948Z" fill="white"/>
<path d="M710.76 571.17C727.693 561.803 734.045 540.7 724.947 524.036C715.848 507.372 694.746 501.457 677.813 510.824C660.879 520.191 654.528 541.294 663.626 557.958C672.724 574.622 693.827 580.537 710.76 571.17Z" fill="#4A6EA9"/>
<path d="M693.978 559.12C694.252 559.633 694.31 560.236 694.139 560.799C693.967 561.362 693.581 561.84 693.063 562.128L687.683 565.104C687.164 565.389 686.557 565.462 685.993 565.305C685.43 565.148 684.956 564.775 684.674 564.267L676.44 549.185C676.164 548.673 676.105 548.07 676.276 547.506C676.446 546.943 676.831 546.465 677.349 546.176L682.729 543.2C683.249 542.914 683.857 542.841 684.422 542.998C684.986 543.155 685.462 543.529 685.744 544.038L693.978 559.12ZM710.422 534.619C710.982 534.712 711.502 534.96 711.921 535.335C712.341 535.711 712.644 536.198 712.795 536.742C712.946 537.285 712.939 537.863 712.775 538.409C712.612 538.955 712.297 539.447 711.869 539.828C712.43 539.919 712.951 540.166 713.372 540.54C713.793 540.914 714.097 541.401 714.249 541.945C714.401 542.489 714.395 543.067 714.231 543.613C714.068 544.159 713.753 544.651 713.324 545.033C713.941 545.136 714.507 545.428 714.944 545.867C715.382 546.306 715.669 546.872 715.767 547.486C715.865 548.101 715.769 548.734 715.491 549.299C715.214 549.864 714.769 550.333 714.218 550.642L698.955 558.868C698.437 559.152 697.831 559.223 697.269 559.065C696.706 558.908 696.234 558.535 695.954 558.027L687.72 542.945C686.42 540.564 691.758 531.885 690.891 529.305C690.299 527.607 687.829 523.899 688.893 523.31C690.7 522.31 693.392 521.71 695.548 525.659C697.45 529.144 697.6 534.948 697.6 534.948L706.984 529.756C707.641 529.393 708.405 529.28 709.129 529.44C709.854 529.599 710.49 530.019 710.914 530.621C711.339 531.222 711.524 531.961 711.433 532.699C711.342 533.436 710.982 534.12 710.422 534.619V534.619Z" fill="white"/>
</g>
</svg>
